<svg xmlns="http://www.w3.org/2000/svg" width="292.462" height="670.944" viewBox="0 0 292.462 670.944">
  <g id="Grupo_174542" data-name="Grupo 174542" transform="translate(-1200.838 -6316.427)">
    <g id="Grupo_174283" data-name="Grupo 174283" transform="translate(1200.838 6330.303) rotate(-3)">
      <path id="Trazado_114544" data-name="Trazado 114544" d="M121.185,521.613c-36.8-16.74-74.958-39.326-89.777-77.1-16.447-41.922.768-88.87.355-133.933-.329-35.7-11.834-70.173-20.885-104.693s-15.7-71.2-6.361-105.64C10.768,77.19,24.048,56.327,41.193,39.774,71.384,10.624,114.882-5.15,156.212,1.517s78.877,37.043,90.959,77.339c17.118,57.089-16.32,118.031-9.213,177.229,2.78,23.163,11.68,45.068,17.715,67.6a278.359,278.359,0,0,1,9.457,73.545c-.226,38-9.8,78.542-38,103.847C198.693,526.6,156.37,537.621,121.185,521.613Z" fill="#6b8dfc"/>
    </g>
    <g id="Grupo_174544" data-name="Grupo 174544" transform="translate(1234.773 6373.562)">
      <g id="Grupo_174545" data-name="Grupo 174545" transform="translate(0 0)">
        <path id="Trazado_180794" data-name="Trazado 180794" d="M277.33,1168.166,261.847,975.5l57.767-7.767s-12.124,146.974-18.533,194.315c0,0,37.11,12.874,37.05,19.825s-42.611,2.245-42.611,2.245-25.888,6.815-18.19-15.954" transform="translate(-155.101 -573.224)" fill="#e6ac71"/>
        <path id="Trazado_180795" data-name="Trazado 180795" d="M319.614,967.736,261.847,975.5l9.308,115.822A196.641,196.641,0,0,0,309.173,1086c5.336-56.389,10.44-118.265,10.44-118.265" transform="translate(-155.101 -573.224)" fill="#c78743"/>
        <path id="Trazado_180796" data-name="Trazado 180796" d="M413.728,1464.509c11.362,5.281,14.839,10.295,14.839,10.295s-.585,1.59-16.481,3.209a20.8,20.8,0,0,1,1.642-13.5" transform="translate(-243.822 -867.479)" fill="#777"/>
        <path id="Trazado_180797" data-name="Trazado 180797" d="M296.819,1452.082c14.807,8.12,32.605-1.086,32.605-1.086a99.341,99.341,0,0,1,15.258,5.509,20.8,20.8,0,0,0-1.642,13.5c-4.1.417-9.193.836-15.578,1.23-31.16,1.924-32.386-6.177-32.386-6.177-.182-7.884,1.852-12.555,1.742-12.98" transform="translate(-174.777 -859.475)" fill="#ada5a5"/>
        <path id="Trazado_180798" data-name="Trazado 180798" d="M295.093,1485.5a46.123,46.123,0,0,0,.576,4.853s8.954,3.149,33.394,3.358c27.31.234,30.84-3.215,30.84-3.215a8.569,8.569,0,0,0-.365-3.258c-29.021,5.3-52.18,1.443-64.445-1.737" transform="translate(-174.794 -879.913)" fill="#777"/>
        <path id="Trazado_180799" data-name="Trazado 180799" d="M394.506,1457.911a9.945,9.945,0,0,0-4.33,9.356" transform="translate(-231.09 -863.571)" fill="none" stroke="#1c1d27" stroke-linecap="round" stroke-linejoin="round" stroke-width="0.427"/>
        <path id="Trazado_180800" data-name="Trazado 180800" d="M381.259,1453.351s-4.168,2.449-4.208,9.35" transform="translate(-223.34 -860.87)" fill="none" stroke="#1c1d27" stroke-linecap="round" stroke-linejoin="round" stroke-width="0.427"/>
        <path id="Trazado_180801" data-name="Trazado 180801" d="M380.139,1446.821s3.475-7.852.068-8S380.139,1446.821,380.139,1446.821Z" transform="translate(-224.303 -852.263)" fill="none" stroke="#1c1d27" stroke-linecap="round" stroke-linejoin="round" stroke-width="0.427"/>
        <path id="Trazado_180802" data-name="Trazado 180802" d="M371.612,1452.246s-5.467-6.621-7.123-3.641S371.612,1452.246,371.612,1452.246Z" transform="translate(-215.776 -857.602)" fill="none" stroke="#1c1d27" stroke-linecap="round" stroke-linejoin="round" stroke-width="0.427"/>
        <path id="Trazado_180803" data-name="Trazado 180803" d="M89.877,1166.5,105.36,973.839l-57.767-7.767s12.124,146.974,18.533,194.315c0,0-37.11,12.874-37.05,19.825s42.611,2.245,42.611,2.245,25.888,6.815,18.19-15.954" transform="translate(-17.223 -572.238)" fill="#e6ac71"/>
        <path id="Trazado_180804" data-name="Trazado 180804" d="M74.5,966.072l57.767,7.767-9.308,115.822a196.611,196.611,0,0,1-38.018-5.324C79.6,1027.948,74.5,966.072,74.5,966.072" transform="translate(-44.128 -572.238)" fill="#c78743"/>
        <path id="Trazado_180805" data-name="Trazado 180805" d="M39.71,1462.846c-11.362,5.281-14.839,10.295-14.839,10.295s.585,1.59,16.481,3.209a20.8,20.8,0,0,0-1.642-13.5" transform="translate(-14.732 -866.494)" fill="#777"/>
        <path id="Trazado_180806" data-name="Trazado 180806" d="M109.135,1450.419c-14.807,8.119-32.605-1.086-32.605-1.086a99.332,99.332,0,0,0-15.258,5.509,20.8,20.8,0,0,1,1.642,13.5c4.1.417,9.193.836,15.578,1.23,31.16,1.924,32.386-6.176,32.386-6.176.182-7.884-1.852-12.555-1.742-12.98" transform="translate(-36.293 -858.49)" fill="#ada5a5"/>
        <path id="Trazado_180807" data-name="Trazado 180807" d="M88.74,1483.837a46.1,46.1,0,0,1-.576,4.853s-8.954,3.149-33.394,3.359c-27.31.234-30.84-3.215-30.84-3.215a8.571,8.571,0,0,1,.365-3.259c29.021,5.3,52.18,1.442,64.445-1.737" transform="translate(-14.156 -878.928)" fill="#777"/>
        <path id="Trazado_180808" data-name="Trazado 180808" d="M77.189,1456.248a9.945,9.945,0,0,1,4.33,9.356" transform="translate(-45.722 -862.586)" fill="none" stroke="#1c1d27" stroke-linecap="round" stroke-linejoin="round" stroke-width="0.427"/>
        <path id="Trazado_180809" data-name="Trazado 180809" d="M90.675,1451.688s4.168,2.449,4.208,9.35" transform="translate(-53.71 -859.885)" fill="none" stroke="#1c1d27" stroke-linecap="round" stroke-linejoin="round" stroke-width="0.427"/>
        <path id="Trazado_180810" data-name="Trazado 180810" d="M93.507,1445.158s-3.475-7.852-.068-8S93.507,1445.158,93.507,1445.158Z" transform="translate(-54.46 -851.278)" fill="none" stroke="#1c1d27" stroke-linecap="round" stroke-linejoin="round" stroke-width="0.427"/>
        <path id="Trazado_180811" data-name="Trazado 180811" d="M95.783,1450.583s5.467-6.621,7.123-3.641S95.783,1450.583,95.783,1450.583Z" transform="translate(-56.735 -856.617)" fill="none" stroke="#1c1d27" stroke-linecap="round" stroke-linejoin="round" stroke-width="0.427"/>
        <path id="Trazado_180812" data-name="Trazado 180812" d="M33.693,637.357s23.577,41.323,48,54.269c0,0-7.509,24.47-26.7,31.83,0,0-40.255-46.237-50.363-68.6-8.155-18.039-3.876-61.483.182-85.541,10.809,8.515,22.762,13.372,35.481,16.687Z" transform="translate(0 -337.227)" fill="#e6a07e"/>
        <path id="Trazado_180813" data-name="Trazado 180813" d="M48.89,554.2l-1.6,12.419c-12.718-3.315-24.672-8.171-35.481-16.687.972-5.762,1.932-10.424,2.7-13.345Z" transform="translate(-6.996 -317.837)" fill="#dc8765"/>
        <path id="Trazado_180814" data-name="Trazado 180814" d="M211.737,106.769s6.353,42.818-7.364,61.5-24.132,24.632-42.691,28.457S90.383,193.129,83.873,182s-17.716-45.555-12.051-68.85,139.914-6.38,139.914-6.38" transform="translate(-41.625 -59.73)" fill="#211010"/>
        <path id="Trazado_180815" data-name="Trazado 180815" d="M186.043,377.168s6.916-3.37,27.527-1.655,23.544,2.152,23.544,2.152L219.8,403.031,191.9,392.295Z" transform="translate(-110.199 -222.141)" fill="#ff6248"/>
        <path id="Trazado_180816" data-name="Trazado 180816" d="M235.923,339.533l-.429-20.2-42.37,7.263,1.241,19.272c14.463,1.641,28.361-1.065,41.558-6.329" transform="translate(-114.394 -189.149)" fill="#dc8765"/>
        <path id="Trazado_180817" data-name="Trazado 180817" d="M237.726,368.89c-13.2,5.265-27.1,7.971-41.558,6.329l.185,2.863s-.168,31.188,21.814,32.443,19.713-34.375,19.713-34.375Z" transform="translate(-116.197 -218.506)" fill="#e6a07e"/>
        <path id="Trazado_180818" data-name="Trazado 180818" d="M99.616,73.073s.033,24.65,1.391,53.79c1.1,23.59,21.045,45.787,49.934,46.293,27.153.475,54.76-11.755,61.4-50.122s-.795-69.165-35.646-75.969-69.165-3.713-77.078,26.008" transform="translate(-59.006 -26.089)" fill="#e6a07e"/>
        <path id="Trazado_180819" data-name="Trazado 180819" d="M196.654,90.393c.138-.212.23-.331.23-.331s-.082.123-.23.331" transform="translate(-116.485 -53.347)" fill="#ff6248"/>
        <path id="Trazado_180820" data-name="Trazado 180820" d="M347.752,242.374l5.279-22.447s19.952-8.345,21.994,12.435-19.793,22.871-27.272,10.013" transform="translate(-205.985 -129.29)" fill="#e6a07e"/>
        <path id="Trazado_180821" data-name="Trazado 180821" d="M297.388,160.818s4.364-5.491-5.7-11.621-13.427-4.516-14.852-1.146c-1.3,3.075,1.147,7.477,6.852,10.774,6.849,3.958,11.343,5.142,13.7,1.993" transform="translate(-163.775 -85.924)" fill="#211010"/>
        <path id="Trazado_180822" data-name="Trazado 180822" d="M128.914,160.235s-3.79-5.9,6.844-10.988,13.813-3.143,14.892.355c.985,3.19-1.894,7.323-7.9,10.029-7.212,3.249-11.8,3.975-13.835.6" transform="translate(-75.971 -86.57)" fill="#211010"/>
        <path id="Trazado_180823" data-name="Trazado 180823" d="M281.34,217.071c.134,2.839,2.132,5.052,4.462,4.942s4.109-2.5,3.975-5.342-2.132-5.052-4.462-4.941-4.11,2.5-3.975,5.341" transform="translate(-166.643 -125.413)" fill="#211010"/>
        <path id="Trazado_180824" data-name="Trazado 180824" d="M155.241,219.666c.135,2.839,2.132,5.052,4.462,4.942s4.109-2.5,3.975-5.341-2.133-5.052-4.462-4.942-4.11,2.5-3.975,5.341" transform="translate(-91.95 -126.95)" fill="#211010"/>
        <path id="Trazado_180825" data-name="Trazado 180825" d="M362.07,252.667a.418.418,0,0,0,.352-.608c-.051-.1-4.978-9.9,1.788-14.89a9.258,9.258,0,0,1,7.119-2.047c4.053.682,6.649,4.4,6.676,4.436a.418.418,0,0,0,.689-.472c-.113-.165-2.814-4.042-7.219-4.787a10.062,10.062,0,0,0-7.762,2.2c-7.339,5.412-2.089,15.84-2.035,15.945a.418.418,0,0,0,.391.226" transform="translate(-213.128 -138.712)" fill="#632114"/>
        <path id="Trazado_180826" data-name="Trazado 180826" d="M371.955,254.311a.418.418,0,0,0,.214-.764c-.072-.049-7.318-4.829-12.269.621a.418.418,0,0,0,.618.563c4.467-4.919,11.116-.534,11.183-.49a.42.42,0,0,0,.254.07" transform="translate(-213.117 -149.009)" fill="#632114"/>
        <path id="Trazado_180827" data-name="Trazado 180827" d="M206.757,190.273a.418.418,0,0,0,.135-.806,11.293,11.293,0,0,1-5.07-4.321c-1.273-2.292-1.079-5.833.408-7.432.893-.959,2.157-1.1,3.665-.4.048.022.124.062.225.114,5.279,2.74,7.532,1.289,8.495-.41,1.764-3.121-1.019-26.964-1.342-29.672a.424.424,0,0,0-.465-.365.418.418,0,0,0-.365.465c.87,7.284,2.824,26.722,1.445,29.161-1.135,2.007-3.618,2.036-7.383.08-.115-.06-.2-.106-.258-.131-1.838-.851-3.483-.645-4.628.586-1.733,1.863-1.979,5.792-.526,8.406a11.936,11.936,0,0,0,5.492,4.691.416.416,0,0,0,.174.029" transform="translate(-118.551 -87.063)" fill="#632114"/>
        <path id="Trazado_180828" data-name="Trazado 180828" d="M221.936,271.275a11.519,11.519,0,0,0,7.525-4.773.336.336,0,0,0-.57-.357,10.218,10.218,0,0,1-10.954,4.249.336.336,0,1,0-.157.653,11.03,11.03,0,0,0,4.156.228" transform="translate(-128.846 -157.553)" fill="#632114"/>
        <path id="Trazado_180829" data-name="Trazado 180829" d="M87.228,238.033l-.941-23.041s-18.015-11.965-23.948,8.054,15.114,26.2,24.889,14.987" transform="translate(-36.312 -125.246)" fill="#e6a07e"/>
        <path id="Trazado_180830" data-name="Trazado 180830" d="M87.037,246.641a.423.423,0,0,1-.159-.077.418.418,0,0,1-.071-.587c.068-.088,6.759-8.782,1.059-14.959a9.26,9.26,0,0,0-6.6-3.356c-4.108-.1-7.361,3.063-7.394,3.094a.418.418,0,0,1-.588-.594c.142-.14,3.527-3.437,7.994-3.336a10.061,10.061,0,0,1,7.206,3.625c6.184,6.7-.943,15.949-1.015,16.042a.418.418,0,0,1-.427.148" transform="translate(-43.332 -134.356)" fill="#632114"/>
        <path id="Trazado_180831" data-name="Trazado 180831" d="M86.916,247.536a.418.418,0,0,1-.066-.791c.08-.035,8.1-3.359,11.93,2.929a.418.418,0,1,1-.713.435c-3.457-5.674-10.815-2.625-10.889-2.595a.412.412,0,0,1-.262.022" transform="translate(-51.293 -145.618)" fill="#632114"/>
        <path id="Trazado_180832" data-name="Trazado 180832" d="M273.031,262.349c.974,3.929,7.728,5.636,15.086,3.812s12.533-6.488,11.559-10.417-7.728-5.636-15.086-3.812-12.533,6.488-11.559,10.417" transform="translate(-161.656 -148.795)" fill="#dc8765"/>
        <path id="Trazado_180833" data-name="Trazado 180833" d="M150.208,265.689c-.776,3.973-7.436,6.016-14.876,4.562s-12.842-5.852-12.066-9.824,7.436-6.016,14.876-4.562,12.842,5.852,12.066,9.824" transform="translate(-72.971 -151.28)" fill="#dc8765"/>
        <path id="Trazado_180834" data-name="Trazado 180834" d="M104.565,4.6c26.8-6.179,52.747,3.389,62.441,7.667C166.037,6.655,168.433.048,170.325,0c2.5-.062,2.252,10.97,2.117,14.345l.3.048c1-2.534,4.075-9.29,7.519-6.958,2.346,1.589-.335,5.137-3.167,7.969,8.813,2.6,29.265,7.571,32.274,31.636,3.565,28.52-8.585,42.324-8.585,42.324s-3.647,1.075-17.423-3.685c-4.162-1.439-17.39-57.393-31.9-42.355-30.834,31.945-46.758,29.128-73.974,35.2-9.575,2.137-5.787,8.336-10.108-9.912s3.295-56.2,37.188-64.01" transform="translate(-39.258 0)" fill="#211010"/>
        <path id="Trazado_180835" data-name="Trazado 180835" d="M74.05,888.047c-4,22.026,8.31,213.431,8.318,217.973l48.877-2.465-.919-169.783s16.651.413,18.826,0l3.73,168.148s30.509,1.748,47.7,2.191c0,0,20.562-196.792,16.115-228.643-45.2,18.034-96.192,22.88-142.643,12.58" transform="translate(-43.389 -518.57)" fill="#acade1"/>
        <path id="Trazado_180836" data-name="Trazado 180836" d="M83.336,799.315s-4.079,21.3-8.128,43.625c46.451,10.3,97.441,5.454,142.643-12.58a240.117,240.117,0,0,0-5.091-27.419Z" transform="translate(-44.548 -473.462)" fill="#acade1"/>
        <path id="Trazado_180837" data-name="Trazado 180837" d="M379.066,1073.329a.319.319,0,0,1-.3-.3c-2.522-53.558,11.693-249.9,11.618-250.286a.317.317,0,0,1,.253-.372.312.312,0,0,1,.373.253c.075.389-14.132,196.768-11.607,250.374a.321.321,0,0,1-.3.335h-.033" transform="translate(-224.178 -487.113)" fill="#211010"/>
        <path id="Trazado_180838" data-name="Trazado 180838" d="M375.431,692.66s-10.736,25.486-35.628,37.511a65.291,65.291,0,0,0,28.232,23.666s24.846-20.634,35.782-42.6c8.823-17.722,6.169-61.3,3.012-85.489-11.119,8.106-23.246,12.512-36.079,15.35Z" transform="translate(-201.277 -370.652)" fill="#e6a07e"/>
        <path id="Trazado_180839" data-name="Trazado 180839" d="M412.94,609.1l1.132,12.47c12.833-2.838,24.96-7.245,36.079-15.35-.756-5.794-1.54-10.489-2.2-13.437Z" transform="translate(-244.598 -351.128)" fill="#dc8765"/>
        <path id="Trazado_180840" data-name="Trazado 180840" d="M231.013,910.826a.319.319,0,0,1-.3-.327l1.276-52.92a.319.319,0,0,1,.327-.311.311.311,0,0,1,.311.327l-1.276,52.921a.32.32,0,0,1-.327.311h-.01" transform="translate(-136.658 -507.79)" fill="#211010"/>
        <path id="Trazado_180841" data-name="Trazado 180841" d="M232.347,923.382a.319.319,0,0,1,.036-.637c.382.022,9.362.411,10.418-9.055,1.088-9.759,1.259-26.621,1.261-26.79a.319.319,0,1,1,.637.006c0,.17-.173,17.065-1.265,26.856-1.124,10.072-10.989,9.626-11.088,9.62" transform="translate(-137.449 -525.154)" fill="#211010"/>
        <path id="Trazado_180842" data-name="Trazado 180842" d="M366.771,901.691a.3.3,0,0,1-.112-.027c-.229-.1-23.07-10.462-38.121-31.862a.319.319,0,1,1,.521-.367c14.946,21.251,37.633,31.545,37.86,31.646a.319.319,0,0,1-.148.609" transform="translate(-194.569 -514.916)" fill="#211010"/>
        <path id="Trazado_180843" data-name="Trazado 180843" d="M70.94,882.72a.319.319,0,0,1-.3-.336c.019-.331.346-.479,1.723-1.1,4.756-2.147,19.229-8.681,30.13-28.683a.319.319,0,0,1,.56.3C92.05,873.1,77.43,879.7,72.626,881.864a12.512,12.512,0,0,0-1.378.671.318.318,0,0,1-.307.185" transform="translate(-41.842 -504.926)" fill="#211010"/>
        <path id="Trazado_180844" data-name="Trazado 180844" d="M193.458,1016.085c-3.568-.2-5.627-.422-5.691-.428a.319.319,0,0,1-.282-.352.338.338,0,0,1,.352-.283,223.925,223.925,0,0,0,45.965-.867.319.319,0,1,1,.077.634,233.367,233.367,0,0,1-40.422,1.3" transform="translate(-111.053 -600.717)" fill="#211010"/>
        <path id="Trazado_180845" data-name="Trazado 180845" d="M266.718,1023.63a.325.325,0,0,1-.161-.054l-7.766-5.284a.319.319,0,1,1,.358-.528l7.766,5.284a.319.319,0,0,1-.2.583" transform="translate(-153.207 -602.825)" fill="#211010"/>
        <path id="Trazado_180846" data-name="Trazado 180846" d="M119.968,405.323,115.7,418.8s-4.106-12.875-4.565-14.245-34.182-1.941-34.182-1.941-33.067,16.929-57.189,44.053c0,0-7.062,9.662,35.661,24.473,0,0-1.318,37.2-3.064,48.932s-8.393,52.772-8.393,52.772,17.54,22.517,49.494,28.107c0,0,9.39-4.3,13.633-12.669,0,0,8.349,13.924,19.991,17.278s36.365-15.136,46.689-26.38S185.6,560.488,185.6,560.488l-5.7-69.713s20.113-3.693,35.936-26.456c0,0-15.963-40.716-23.76-45.464s-46.032-13.386-46.032-13.386Z" transform="translate(-11.45 -238.479)" fill="#ffcc3e"/>
        <path id="Trazado_180847" data-name="Trazado 180847" d="M413.214,580.437l.078,5.663s25.849-5.247,40.171-20.566c0,0-.016-9.145-4.313-11.553,0,0-13.1,15.108-35.936,26.456" transform="translate(-244.761 -328.142)" fill="#ff6248"/>
        <path id="Trazado_180848" data-name="Trazado 180848" d="M48.7,534.166l.139,5.662S22.8,535.574,7.906,520.815c0,0-.335-9.139,3.868-11.71,0,0,13.667,14.6,36.922,25.061" transform="translate(-4.679 -301.561)" fill="#ff6248"/>
        <path id="Trazado_180849" data-name="Trazado 180849" d="M192.8,391.324s-22.043-9.6-23.843-11.044A114.3,114.3,0,0,0,157.2,393.056s17.219,18.734,23.04,20.411Z" transform="translate(-93.117 -225.253)" fill="#ff6248"/>
        <path id="Trazado_180850" data-name="Trazado 180850" d="M266.267,392.282s16.414-9.552,18.366-10.785a69.213,69.213,0,0,1,13.917,15.318s-16.352,17.892-22.326,18.9Z" transform="translate(-157.719 -225.974)" fill="#ff6248"/>
        <path id="Trazado_180851" data-name="Trazado 180851" d="M242.447,441.835a.319.319,0,0,1,.335-.3h0a.319.319,0,0,1,.3.335l-8.6,169.481a.319.319,0,0,1-.335.3h0a.32.32,0,0,1-.3-.334" transform="translate(-138.513 -261.535)" fill="#ff6248"/>
        <path id="Trazado_180852" data-name="Trazado 180852" d="M281.271,527.575l31.96.049a3.66,3.66,0,0,1,3.642,3.359l2.1,25.408a3.66,3.66,0,0,1-1.486,3.254l-15.424,11.29a3.659,3.659,0,0,1-4.113.143L277.515,558.2a3.66,3.66,0,0,1-1.7-3.371l1.8-23.87a3.659,3.659,0,0,1,3.655-3.385" transform="translate(-163.369 -312.501)" fill="#ff6248"/>
        <rect id="Rectángulo_45067" data-name="Rectángulo 45067" width="1.276" height="39.217" transform="translate(114.177 221.067) rotate(-88.298)" fill="#fff"/>
        <path id="Trazado_180853" data-name="Trazado 180853" d="M259.256,437.236a.322.322,0,0,1,.025-.111l2.8-6.7a.319.319,0,0,1,.589.246l-2.78,6.645-6.817,175.845a.319.319,0,0,1-.331.307h-.006a.319.319,0,0,1-.3-.33" transform="translate(-149.527 -254.842)" fill="#ff6248"/>
        <path id="Trazado_180854" data-name="Trazado 180854" d="M237.77,436.487c-6.732-.384-10.054-3.032-10.248-3.192a.319.319,0,0,1,.4-.492c.066.054,6.739,5.345,20.316,1.92a.319.319,0,0,1,.155.619,35.236,35.236,0,0,1-10.628,1.145" transform="translate(-134.7 -256.321)" fill="#ff6248"/>
        <path id="Trazado_180855" data-name="Trazado 180855" d="M261.654,452.456a2.014,2.014,0,1,1-1.9-2.125,2.013,2.013,0,0,1,1.9,2.125" transform="translate(-152.603 -266.745)" fill="#ff6248"/>
        <path id="Trazado_180856" data-name="Trazado 180856" d="M258.35,510.323a2.014,2.014,0,1,1-1.9-2.126,2.014,2.014,0,0,1,1.9,2.126" transform="translate(-150.646 -301.021)" fill="#ff6248"/>
        <path id="Trazado_180857" data-name="Trazado 180857" d="M254.885,569.463a2.014,2.014,0,1,1,.043-2.847,2.013,2.013,0,0,1-.043,2.847" transform="translate(-148.954 -335.264)" fill="#ff6248"/>
        <path id="Trazado_180858" data-name="Trazado 180858" d="M252.543,637.363a2.014,2.014,0,1,1,.043-2.848,2.013,2.013,0,0,1-.043,2.848" transform="translate(-147.566 -375.483)" fill="#ff6248"/>
        <path id="Trazado_180859" data-name="Trazado 180859" d="M246.449,761.372a2.014,2.014,0,1,1,.043-2.847,2.014,2.014,0,0,1-.043,2.847" transform="translate(-143.957 -448.938)" fill="#ff6248"/>
        <path id="Trazado_180860" data-name="Trazado 180860" d="M249.444,703.158a2.014,2.014,0,1,1,.043-2.847,2.014,2.014,0,0,1-.043,2.847" transform="translate(-145.731 -414.456)" fill="#ff6248"/>
        <path id="Trazado_180861" data-name="Trazado 180861" d="M242.931,834.78a2.014,2.014,0,1,1,.043-2.848,2.014,2.014,0,0,1-.043,2.848" transform="translate(-141.873 -492.42)" fill="#ff6248"/>
      </g>
    </g>
  </g>
</svg>
