<svg id="Grupo_174163" data-name="Grupo 174163" xmlns="http://www.w3.org/2000/svg" width="85" height="82.508" viewBox="0 0 85 82.508">
  <path id="Trazado_117335" data-name="Trazado 117335" d="M200.36,931.32a.254.254,0,0,1-.129-.037c-.02-.023-.249-.184-.271-.206q-5.08-5.159-10.182-10.292a4.221,4.221,0,0,0-3.086-1.3,10.981,10.981,0,0,0-3.739.932,19.892,19.892,0,0,1-2.391.777c-1.269.295-2.57.624-3.891.959-4.586,1.162-9.328,2.365-13.826,2.365h0q-.423,0-.844-.015c-12.327-.433-14.6-9.175-17.478-20.241l-.249-.954c-.513-1.969-1.222-4.183-1.973-6.528-2.93-9.156-6.578-20.55-2.087-27.9,2.236-3.658,7.276-5.454,11.415-6.608,3.372-.941,6.724-1.946,10.078-2.951,3.572-1.071,7.265-2.178,10.916-3.183,1.071-.294,2.249-.638,3.507-1.005,5.954-1.737,14.107-4.116,21.1-4.116,4.337,0,7.788.925,10.257,2.751,6.225,4.6,8.041,13.374,9.642,21.113.3,1.44.589,2.846.9,4.187.188.813.384,1.636.583,2.464,2.075,8.686,4.221,17.667-.685,25.193-2.118,3.249-6.2,5.832-12.13,7.676a8.428,8.428,0,0,1-1.922.372c-1.948.179-2.022,1.073-2.219,3.461l-.034.414c-.317,3.784-.562,7.737-.752,12.081-.014.047-.025.093-.034.139a.375.375,0,0,1-.161.3A.574.574,0,0,1,200.36,931.32Z" transform="translate(-137.007 -849.917)" fill="#fff"/>
  <path id="Trazado_117336" data-name="Trazado 117336" d="M216.168,875.879c-2.02-8.728-3.212-20.209-10.961-25.94-9.017-6.669-26.476-.376-35.813,2.194-7.031,1.935-13.974,4.175-21,6.135-4.253,1.186-9.61,3.087-12.06,7.1-5.949,9.73,1.415,25.621,3.934,35.278,3.028,11.6,5.234,21.546,18.756,22.021,6.213.218,12.878-1.952,18.85-3.337,3.16-.733,5.956-2.943,8.185-.705q5.106,5.127,10.177,10.287a1.36,1.36,0,0,0,.536.405,1.41,1.41,0,0,0,1.559-.157,1.445,1.445,0,0,0,.649-1.018,1.394,1.394,0,0,0,.04-.161c0-.014.008-.023.009-.037.176-4.054.415-8.1.753-12.139.332-3.968.066-2.247,3.4-3.284,4.678-1.455,9.947-3.863,12.727-8.128C221.573,895.708,218.323,885.191,216.168,875.879Zm-.91,22.965c-1.972,7.573-10.561,10-17.1,11.94a1.614,1.614,0,0,0-1.144,1.5c-.438,3.9-.71,7.811-.914,11.728-3.79-4.618-8.074-10.422-13.695-9-8.648,2.19-24.874,8.556-32.691,1.667-4.181-3.684-5.086-11.809-6.438-16.87-1.629-6.1-3.12-12.244-4.617-18.379-1.058-4.34-2.211-9.061-.34-13.339,2.521-5.765,11.169-6.862,16.492-8.425,10.218-3,20.375-6.269,30.869-8.188,5.135-.94,10.763-1.406,15.826.088,4.977,1.469,7.051,7.189,8.305,11.667,2.111,7.544,3.893,15.234,5.417,22.917A27.961,27.961,0,0,1,215.258,898.843Zm-22.333-34.485a10.357,10.357,0,0,1,2.167-3.123,11.659,11.659,0,0,1,3.027-2.889.283.283,0,0,1,.412.317,6.793,6.793,0,0,1-2.156,3.279,17,17,0,0,1-3.038,2.733A.282.282,0,0,1,192.925,864.359Zm5.457-.51c-.064.82-.632,1.17-1.276,1.593a4.841,4.841,0,0,1-1.883.843.308.308,0,0,1-.343-.448,5.051,5.051,0,0,1,1.589-1.667,1.986,1.986,0,0,1,1.68-.627A.312.312,0,0,1,198.382,863.849Zm-36.215,38.8a10.7,10.7,0,0,1-1.771,3.673c-.592.847-1.134,2.031-2.266,2.145a.2.2,0,0,1-.2-.152c-.166-1.132.847-1.924,1.488-2.746.816-1.044,1.634-2.059,2.5-3.061C162.024,902.4,162.2,902.52,162.167,902.653Zm-3.985.454a3.35,3.35,0,0,1,2.007-1.772.321.321,0,0,1,.39.39,3.6,3.6,0,0,1-1.584,2.2A.6.6,0,0,1,158.182,903.108Zm6.545.188a2.418,2.418,0,0,1,.12,1.726,5.711,5.711,0,0,1-.52,1.876c-.235.382-.971.384-1.049-.137a4.325,4.325,0,0,1,.358-2.072,3.008,3.008,0,0,1,.784-1.432A.2.2,0,0,1,164.727,903.3Zm37.5-6.457a.488.488,0,0,1-.458.6c-1.051.124-1.964-1.084-2.644-1.743a29.668,29.668,0,0,1-2.32-2.339.135.135,0,0,1,.094-.228,5.306,5.306,0,0,1,3.122,1.406C200.767,895.109,202.079,895.838,202.225,896.839Zm-3.856-4.986c-.148-.063-.082-.269.04-.311,1.03-.36,2.752-.042,3.156,1.086a.2.2,0,0,1-.136.24,2.049,2.049,0,0,1-1.363-.314C199.5,892.31,198.931,892.095,198.369,891.853ZM197,897.039a.557.557,0,0,1-.085.665c-.037.03-.073.059-.111.086a.556.556,0,0,1-.665-.086,4.949,4.949,0,0,1-1.366-2.249.183.183,0,0,1,.224-.224A3.643,3.643,0,0,1,197,897.039Zm-41.143-25.175a3.667,3.667,0,0,1,.537,1.081.22.22,0,0,1-.211.278,2.554,2.554,0,0,1-1.4-.393,14.243,14.243,0,0,1-1.259-.986c-.775-.659-1.694-1.2-1.928-2.262a.319.319,0,0,1,.221-.39c1.137-.235,1.918.551,2.685,1.271A13.679,13.679,0,0,1,155.857,871.865ZM158,871.71a1.826,1.826,0,0,1-.829-.384,3.335,3.335,0,0,1-.71-.954,3.933,3.933,0,0,1-.736-2.038.774.774,0,0,1,1.151-.66,3.878,3.878,0,0,1,1.393,1.931,4.935,4.935,0,0,1,.38,1.1,1.783,1.783,0,0,1-.047.549A.479.479,0,0,1,158,871.71Zm-5.516,14.662c-1.11.653-3.138.9-4.084-.134a.262.262,0,0,1,0-.362,3.731,3.731,0,0,1,4.084-.518A.592.592,0,0,1,152.488,886.371Zm21.172-23.74a4.394,4.394,0,0,1,.213-2.425.271.271,0,0,1,.367-.1c1.522.687,1.622,3.494.587,4.655a.194.194,0,0,1-.236.031A2.939,2.939,0,0,1,173.66,862.631ZM204.881,876.2c-.454,1.32-2.895,1.649-4.029,1.124a.27.27,0,0,1-.054-.421,5.289,5.289,0,0,1,1.732-.981,2.91,2.91,0,0,1,1.926-.471A.614.614,0,0,1,204.881,876.2Zm-17.288,30.254a.285.285,0,0,1-.383.1c-.77-.388-.865-1.045-1.224-1.77a8.515,8.515,0,0,1-.751-1.878.381.381,0,0,1,.554-.426C186.976,903.1,188.351,905.158,187.593,906.457Zm4.911-35.775c-6.337-6.538-15.29-.239-18.352,6.756-2.561-2.886-5.774-4.942-9.905-4.326-4.228.631-6.243,5.108-6.718,8.833-1.482,11.619,12.562,19.2,22.1,20.3a1,1,0,0,0,1.017-.449C188.349,895.633,202.4,880.89,192.5,870.682Zm-32.293,15.444c-.47-.887-.809-2.754.384-3.238.14-.057.267.062.314.179a4.411,4.411,0,0,1,.182,1.431c.021.46.1.9.1,1.364A.527.527,0,0,1,160.211,886.126Zm15.841,12.106c-3.321.135-6.279-1.87-8.836-3.788-2.2-1.654-4.736-3.932-5.65-6.614a.074.074,0,0,1,.107-.083c2.552,1.723,4.465,4.3,7.056,6.027,2.376,1.586,4.993,2.535,7.471,3.913A.294.294,0,0,1,176.053,898.232Zm10.47-26.506a.1.1,0,0,1,.024-.178c3.6-1.127,9.044,5.131,6.466,8.287a.3.3,0,0,1-.46-.059c-.927-1.5-.9-3.321-1.988-4.78A15.309,15.309,0,0,0,186.522,871.725Zm6.4,12.193a.235.235,0,0,1-.316-.083c-.3-.445-.118-.832-.009-1.32.1-.427.087-.811.443-1.095a.227.227,0,0,1,.31,0A1.881,1.881,0,0,1,192.922,883.918Z" transform="translate(-134.072 -846.971)"/>
</svg>
