<svg xmlns="http://www.w3.org/2000/svg" xmlns:xlink="http://www.w3.org/1999/xlink" width="78" height="78" viewBox="0 0 78 78">
  <defs>
    <clipPath id="clip-path">
      <rect id="Rectángulo_338353" data-name="Rectángulo 338353" width="54.631" height="54.642" fill="none"/>
    </clipPath>
  </defs>
  <g id="Grupo_982632" data-name="Grupo 982632" transform="translate(-447 -2152)">
    <circle id="Elipse_4887" data-name="Elipse 4887" cx="39" cy="39" r="39" transform="translate(447 2152)" fill="#6b8dfc"/>
    <g id="Grupo_982631" data-name="Grupo 982631" transform="translate(459 2164)">
      <g id="Grupo_982630" data-name="Grupo 982630" clip-path="url(#clip-path)">
        <path id="Trazado_205117" data-name="Trazado 205117" d="M49.353,54.642H39.866c-.478-.147-.582-.516-.583-.959q0-1.731,0-3.462a1.149,1.149,0,0,0-.344-.915,9.148,9.148,0,0,1-2.535-4.772c-.174-.711-.172-.713-.917-.713H19.082c-.767,0-.754.005-.933.763a8.877,8.877,0,0,1-2.44,4.644,1.314,1.314,0,0,0-.418,1.047c.011,1.136,0,2.273,0,3.409,0,.443-.105.812-.583.959H5.223c-.593-.132-.7-.563-.7-1.088q.006-4.334,0-8.668c0-.16-.012-.32,0-.478.034-.438-.169-.606-.6-.588-.407.017-.815.015-1.223,0a3.128,3.128,0,0,1-2.036-.788A2.222,2.222,0,0,1,0,41.637V1.876A2.234,2.234,0,0,1,2.38,0c3.052.037,6.1.015,9.156.01.444,0,.819.074.946.576.058.914-.224,1.232-1.155,1.236-2.629.013-5.258,0-7.887.005-.2,0-.391,0-.586,0-.771.028-1.062.314-1.089,1.07,0,.124,0,.249,0,.373v37.2c0,.089,0,.178,0,.266.017.848.3,1.14,1.168,1.159.764.016,1.528,0,2.292,0,1.829,0,3.66.028,5.489-.009a2.988,2.988,0,0,0,3.06-2.368c.112-.611.233-1.221.355-1.83a5.473,5.473,0,0,1,.483-1.519,1.968,1.968,0,0,1,1.9-1.134,1.914,1.914,0,0,1,1.726,1.233,5.73,5.73,0,0,1,.464,2.282,20.831,20.831,0,0,1-.087,2.607c-.072.669.019.737.69.737q7.967,0,15.933,0c.7,0,.784-.063.717-.766a15.256,15.256,0,0,1,.027-3.718,3.827,3.827,0,0,1,.4-1.262,1.916,1.916,0,0,1,1.75-1.116,1.972,1.972,0,0,1,1.837,1.16,6.636,6.636,0,0,1,.555,1.939c.074.438.167.872.259,1.307a2.609,2.609,0,0,0,1.817,2.167c.168.053.325.143.491.207a1.47,1.47,0,0,0,.677.1c2.57,0,5.14.013,7.71-.015,1.072-.012,1.321-.258,1.328-1.314,0-.283-.009-.567.008-.851.042-.7.289-.966.99-1.083.655.161.806.335.815.972.008.531,0,1.063,0,1.595a2.5,2.5,0,0,1-1.977,2.492,8.261,8.261,0,0,1-1.9.115c-.657.012-.7.041-.7.693q-.005,4.519,0,9.038c0,.525-.105.955-.7,1.087" transform="translate(0 0)"/>
        <path id="Trazado_205118" data-name="Trazado 205118" d="M15.22,1.661a.468.468,0,0,0,.521.325,8.52,8.52,0,0,0,1.673-.115,1.693,1.693,0,0,0,1.658.689q16.581-.018,33.161-.006a1.873,1.873,0,0,1,1.04.135,1.12,1.12,0,0,1,.247.741c.017.248.01.5.01.745q0,18.742,0,37.484c0,1.411,0,1.411-1.377,1.411q-2.848,0-5.7,0a1.326,1.326,0,0,1-.577-.043c-1.956-.4-2.411-1.912-2.646-3.588a7.636,7.636,0,0,0-.472-1.9,1.9,1.9,0,0,0-1.833-1.3A1.845,1.845,0,0,0,39.209,37.6a10.463,10.463,0,0,0-.31,4.008c.021.477.248,1.117.024,1.39-.268.326-.93.1-1.42.1-5.24.008-10.48,0-15.72.016-.445,0-.567-.092-.528-.548a14.014,14.014,0,0,0-.079-4.454c-.278-1.183-.908-1.833-1.807-1.878-.982-.049-1.711.536-2.041,1.743-.252.921-.45,1.86-.614,2.8a2.983,2.983,0,0,1-3.08,2.314c-2.646.039-5.293.012-7.94.01-.983,0-1.264-.285-1.264-1.271q0-18.919,0-37.837c0-1,.272-1.271,1.253-1.271q4.264,0,8.527,0c.8,0,1.043-.265,1.01-1.063" transform="translate(-2.831 -1.062)" fill="#fef6f2"/>
        <path id="Trazado_205119" data-name="Trazado 205119" d="M119.281,44.536c2.272,0,4.543-.022,6.814,0,.536.006.668-.205.668-.689q-.01-19.406-.01-38.812a5.887,5.887,0,0,0-.1-.784,2.566,2.566,0,0,1,2.147.015,1.027,1.027,0,0,1,.564.911c.028.283.019.568.019.852q0,15.717,0,31.435c0,.231,0,.462,0,.693a.894.894,0,0,0,.677,1.009.4.4,0,0,1,.214.15.542.542,0,0,0-.218.5c.015.505,0,1.012,0,1.518-.7.182-.848.367-.852,1.063,0,.373,0,.746,0,1.119-.007.78-.34,1.1-1.166,1.1q-3.942.007-7.885,0a1.569,1.569,0,0,1-.877-.078" transform="translate(-76.232 -2.572)" fill="#feede6"/>
        <path id="Trazado_205120" data-name="Trazado 205120" d="M22.3,118.267c-1.526.006-3.053,0-4.579.025-.3,0-.342-.111-.341-.37q.012-4.341,0-8.681c0-.216,0-.368.3-.361.865.018,1.732.007,2.687.007a13.589,13.589,0,0,0-1.278,1.634c-.324.535-.276.994.136,1.262s.857.132,1.2-.39a7.585,7.585,0,0,1,3.706-3.066,3.925,3.925,0,0,0,2.42-3.015c.192-.773.3-1.567.473-2.344.079-.349.129-.9.521-.882s.389.569.416.924a18.939,18.939,0,0,1-.859,7.869,5.679,5.679,0,0,1-1.439,2.27,3.292,3.292,0,0,1-2.239.972.937.937,0,0,0-1.006.755q.076,1.317.049,2.636a1.015,1.015,0,0,1-.167.758" transform="translate(-11.104 -65.241)" fill="#fecdbe"/>
        <path id="Trazado_205121" data-name="Trazado 205121" d="M112.545,118.25c-1.545.006-3.09.006-4.635.024-.27,0-.326-.1-.321-.339.013-.693.015-1.385,0-2.078-.006-.279.085-.327.343-.266a3.719,3.719,0,0,0,1.109.118.807.807,0,0,0,.8-.769.775.775,0,0,0-.746-.818,4.043,4.043,0,0,1-3.628-2.617,12.478,12.478,0,0,1-1.114-4.732,15.175,15.175,0,0,1-.014-3.878c.055-.317.038-.814.4-.837s.424.463.5.781c.18.8.31,1.6.495,2.395a4.1,4.1,0,0,0,2.669,3.184,7.118,7.118,0,0,1,3.435,2.914,1.21,1.21,0,0,0,.614.559c.27.142.265.4.267.65.011,1.7.008,3.408,0,5.112a.766.766,0,0,1-.169.6" transform="translate(-66.606 -65.225)" fill="#fecdbe"/>
        <path id="Trazado_205122" data-name="Trazado 205122" d="M126.165,130.311q0-2.87,0-5.741a1.035,1.035,0,0,0-.1-.618c.93-.038,1.238-.63.732-1.426a9.825,9.825,0,0,0-.592-.816c-.194-.244-.408-.472-.677-.78.983,0,1.878,0,2.773,0,.3,0,.221.217.222.374,0,1.064,0,2.127,0,3.19,0,1.808-.007,3.616.007,5.423,0,.313-.057.439-.4.421-.654-.035-1.31-.02-1.965-.026" transform="translate(-80.225 -77.286)" fill="#feaf9d"/>
        <path id="Trazado_205123" data-name="Trazado 205123" d="M30.991,140.916c0-.951,0-1.9.005-2.853,0-.183-.076-.393.112-.541.209.79.523.964,1.483.821.8-.118.8-.118.8.669,0,.531-.011,1.063,0,1.594.008.253-.069.341-.33.332-.69-.022-1.38-.017-2.071-.023" transform="translate(-19.8 -87.89)" fill="#feaf9d"/>
        <path id="Trazado_205124" data-name="Trazado 205124" d="M79.863,36.855c-.833.016-1.065-.214-1.065-1.066q0-16.333,0-32.666c0-1.1-.245-1.352-1.335-1.35-.408,0-.816.011-1.224.017-.213-.006-.426-.017-.638-.017H41.552c-.82,0-1.027-.155-1.148-.853-.028-.5.286-.676.709-.734a3.528,3.528,0,0,1,.479-.011H77.55A2.547,2.547,0,0,1,80.4,3.034q0,16.355.005,32.71c0,.475-.058.886-.539,1.112" transform="translate(-25.821 -0.11)"/>
        <path id="Trazado_205125" data-name="Trazado 205125" d="M19.263,30.814c-.06.214-.1.331-.124.449a2.307,2.307,0,0,1-2.615,1.819,2.278,2.278,0,0,1-2.086-2.295q-.037-2.93,0-5.861a2.35,2.35,0,0,1,2.378-2.306c1.883-.016,3.766-.013,5.648,0a2.393,2.393,0,0,1,.574,4.727l-.389.108c.551.551,1.087,1.066,1.6,1.606.21.222.344.052.5-.036a9.588,9.588,0,0,1,5.514-1.279A10.171,10.171,0,1,1,19.773,40a9.612,9.612,0,0,1,1.052-7.038c.145-.252.167-.413-.069-.633-.5-.469-.966-.977-1.493-1.519" transform="translate(-9.215 -14.449)"/>
        <path id="Trazado_205126" data-name="Trazado 205126" d="M102.441,23.6A9.5,9.5,0,0,1,95.9,32.675c-.409.129-.551.284-.537.721.036,1.091.011,1.087,1.122,1.095a5.279,5.279,0,0,1,1.06.062,2.322,2.322,0,0,1,1.872,2.486,2.367,2.367,0,0,1-2.4,2.243,9.495,9.495,0,0,1-1.225,0c-.371-.032-.439.119-.428.449a6.929,6.929,0,0,1-.06,1.541,2.319,2.319,0,0,1-2.4,1.913,2.3,2.3,0,0,1-2.3-2.084,8.9,8.9,0,0,1-.022-1.383c.022-.367-.116-.441-.453-.436a7.416,7.416,0,0,1-1.751-.071,2.385,2.385,0,0,1,.332-4.7c.5-.031.995-.023,1.491-.01.262.007.415-.052.372-.348a.7.7,0,0,1,0-.106c.018-1.126.013-1.114-1.025-1.543a8.866,8.866,0,0,1-5.97-8.229,8.977,8.977,0,0,1,5.052-9.01,9.459,9.459,0,0,1,13.66,6.763,6.567,6.567,0,0,1,.147,1.582" transform="translate(-53.408 -9.067)"/>
        <path id="Trazado_205127" data-name="Trazado 205127" d="M18.869,30.731c0-.906-.005-1.812,0-2.717.005-.684.285-.957.98-.959q2.637-.006,5.275,0c.648,0,.987.27,1,.774.015.528-.336.819-1.005.823-.515,0-1.03,0-1.545,0a.8.8,0,0,0-.8.514.75.75,0,0,0,.2.875q1.784,1.795,3.579,3.579a.848.848,0,0,0,1.2.018,8.28,8.28,0,0,1,5.07-1.469,8.792,8.792,0,0,1,8.234,7.487,8.585,8.585,0,1,1-17.054.123,8.053,8.053,0,0,1,1.352-3.712c.475-.708.451-.929-.14-1.521q-1.6-1.6-3.2-3.2c-.3-.3-.608-.559-1.074-.358s-.494.6-.485,1.025c.01.479.012.959,0,1.439-.016.58-.328.9-.832.891-.484-.012-.756-.319-.761-.893-.008-.906,0-1.811,0-2.717" transform="translate(-12.058 -17.289)" fill="#8279c0"/>
        <path id="Trazado_205128" data-name="Trazado 205128" d="M94.893,36.661c0-.39,0-.781,0-1.172,0-.787-.165-.977-.933-1.177a7.667,7.667,0,0,1-5.985-6.156,7.847,7.847,0,0,1,15.4-3.031,7.815,7.815,0,0,1-5.735,9.139c-1.137.288-1.145.3-1.146,1.469,0,.8-.008,1.6,0,2.4.009.624.292.9.92.915.728.012,1.456,0,2.184.005.592.006.936.3.943.781s-.346.8-.924.813c-.746.013-1.492,0-2.237.006a.779.779,0,0,0-.885.882c-.013.71.013,1.421-.011,2.131a.8.8,0,0,1-1.1.828.738.738,0,0,1-.486-.75c0-.657,0-1.314,0-1.971,0-.872-.245-1.119-1.1-1.122-.657,0-1.314,0-1.971,0s-.977-.279-.984-.792.311-.8.957-.8c.71-.006,1.421.006,2.13,0a.853.853,0,0,0,.964-.947c0-.018,0-.035,0-.053q0-.693,0-1.385" transform="translate(-56.122 -12.028)" fill="#ea5569"/>
        <path id="Trazado_205129" data-name="Trazado 205129" d="M37.486,52.723a6.968,6.968,0,1,1,13.935.059,6.968,6.968,0,0,1-13.935-.059" transform="translate(-23.957 -29.234)"/>
        <path id="Trazado_205130" data-name="Trazado 205130" d="M92.356,29.414a6.128,6.128,0,0,1,6.308-6.274,6.261,6.261,0,0,1-.026,12.522,6.128,6.128,0,0,1-6.282-6.248" transform="translate(-59.025 -14.789)"/>
        <path id="Trazado_205131" data-name="Trazado 205131" d="M47.191,60.809a5.265,5.265,0,0,1-5.267-5.561,5.366,5.366,0,0,1,10.727.232,5.283,5.283,0,0,1-5.46,5.329" transform="translate(-26.793 -32.02)" fill="#fef6f2"/>
        <path id="Trazado_205132" data-name="Trazado 205132" d="M101.3,36.931a4.683,4.683,0,0,1-4.656-4.637,4.679,4.679,0,1,1,9.357.049,4.672,4.672,0,0,1-4.7,4.587" transform="translate(-61.764 -17.654)" fill="#fef6f2"/>
      </g>
    </g>
  </g>
</svg>
