<svg xmlns="http://www.w3.org/2000/svg" xmlns:xlink="http://www.w3.org/1999/xlink" width="78" height="78" viewBox="0 0 78 78">
  <defs>
    <clipPath id="clip-path">
      <rect id="Rectángulo_338354" data-name="Rectángulo 338354" width="42.385" height="58" fill="none"/>
    </clipPath>
  </defs>
  <g id="Grupo_982635" data-name="Grupo 982635" transform="translate(-762 -2145)">
    <circle id="Elipse_4888" data-name="Elipse 4888" cx="39" cy="39" r="39" transform="translate(762 2145)" fill="#6b8dfc"/>
    <g id="Grupo_982634" data-name="Grupo 982634" transform="translate(780 2155)">
      <g id="Grupo_982633" data-name="Grupo 982633" clip-path="url(#clip-path)">
        <path id="Trazado_205133" data-name="Trazado 205133" d="M29.67,36.451c.148-.645.406-.874,1.035-.876,1.68-.006,3.359-.012,5.039,0a1.438,1.438,0,0,1,1.341,2.2c-.785,1.559-1.6,3.1-2.4,4.662a.9.9,0,0,0,.565.071c1.982,0,3.963,0,5.944,0a2.308,2.308,0,0,1,.56.045.777.777,0,0,1,.633.822.726.726,0,0,1-.6.782.591.591,0,0,0-.525.473,11.967,11.967,0,0,0,0,8.144.6.6,0,0,0,.523.478.733.733,0,0,1,.6.834.757.757,0,0,1-.63.765,3.062,3.062,0,0,1-.673.048q-13.332,0-26.664-.01c-.486,0-.684.1-.611.607.044.314-.011.642.011.961A1.422,1.422,0,0,1,12.927,58h-.679a6.5,6.5,0,0,1-1.873-1.2.475.475,0,0,0-.672-.012A6.853,6.853,0,0,1,7.83,58h-.68a1.4,1.4,0,0,1-.906-1.523c.031-.488.176-1.1-.05-1.439-.241-.364-.9-.129-1.373-.186a5.473,5.473,0,0,1-4.7-4.662,9.845,9.845,0,0,1,.071-3.38,5.459,5.459,0,0,1,5.394-4.3c.958-.016,1.916,0,2.893,0-.033-.246-.217-.333-.34-.456Q5.08,38.986,2.011,35.93a1.4,1.4,0,0,1-.464-1.523A1.335,1.335,0,0,1,3.34,33.6c1.844.527,3.65,1.189,5.542,1.548a22.458,22.458,0,0,0,4.157.424c3.416.006,6.832,0,10.248,0,.29,0,.523.05.517-.412-.03-2.094-.013-4.189-.013-6.375-.63.288-1.218.552-1.8.823q-4.528,2.1-9.056,4.2A1.681,1.681,0,0,1,10.4,32.579a1.49,1.49,0,0,1,.131-.881c2.242-4.37,1.879-8.647-.313-12.938a12.985,12.985,0,0,0-8.682-7.073C.568,11.44.08,10.964.01,10.187A1.686,1.686,0,0,1,1.216,8.36C6.35,5.977,11.455,3.529,16.625,1.227A14,14,0,0,1,28.416,26.618c-.862.419-1.73.827-2.607,1.216a.468.468,0,0,0-.324.508q.015,3.425,0,6.851c0,.277.048.435.365.382.092-.015.19.009.282,0a1.11,1.11,0,0,1,1.424.884.821.821,0,0,1-.694.93,3.274,3.274,0,0,1-.789.049c-4.548,0-9.1.032-13.644-.013A22.924,22.924,0,0,1,5.7,36.262c-.322-.1-.647-.191-1.067-.318,1.528,1.525,2.985,2.986,4.448,4.443a2.993,2.993,0,0,0,2.7,1.157c6.763-.051,13.528-.035,20.293-.01a1.345,1.345,0,0,0,1.408-.841c.425-.86.872-1.712,1.311-2.566a2.044,2.044,0,0,1,.437-.676c-.5-.027-.989.015-1.476-.014-1.031.018-2.063.035-3.093-.005-.717-.028-1.036-.371-.993-.979" transform="translate(0 0)"/>
        <path id="Trazado_205134" data-name="Trazado 205134" d="M15.472,93.763l-4.6-4.728c1.049.289,2.144.613,3.252.891a21.7,21.7,0,0,0,5.253.662c4.489.01,8.978-.005,13.468.014a1.074,1.074,0,0,0,1.224-.827l2.114,0a1.008,1.008,0,0,0,1.156.829c.977-.025,1.956,0,2.934.008a.335.335,0,0,1,.031.373c-.672,1.6-1.71,2.972-3.829,2.966-6.69-.02-13.38-.007-20.07-.008a1.542,1.542,0,0,1-.928-.177" transform="translate(-6.508 -53.32)" fill="#835151"/>
        <path id="Trazado_205135" data-name="Trazado 205135" d="M16.45,119.164c-.1-1.336-.014-2.675-.047-4.011-.009-.347.229-.274.423-.275q2.179,0,4.359,0,3.17,0,6.34,0c.705,0,1.1-.318,1.085-.859-.014-.517-.41-.837-1.067-.838q-9.454,0-18.908,0c-.667,0-1.043.317-1.045.85s.366.838,1.036.847l1.018.015a.331.331,0,0,1,.209.213,13.9,13.9,0,0,1,.043,2.2.482.482,0,0,1-.247.474.881.881,0,0,0-.8,1.042c.028.365-.113.43-.449.433a3.83,3.83,0,0,1-4.066-3.969,10.608,10.608,0,0,1,.08-1.976,3.7,3.7,0,0,1,3.257-2.986,1.619,1.619,0,0,1,.616-.04q15,0,29.992,0c.847,0,.906.063.683.909a22.358,22.358,0,0,0-.508,2.55,10.374,10.374,0,0,0,.283,3.643c.09.424.218.84.3,1.266.078.389-.009.639-.477.578a1.409,1.409,0,0,0-.17,0q-10.7,0-21.39,0a.989.989,0,0,1-.553-.055" transform="translate(-2.591 -66.037)" fill="#edded9"/>
        <path id="Trazado_205136" data-name="Trazado 205136" d="M43.161,5.122a11.6,11.6,0,0,1,6.6,3.974A12.273,12.273,0,0,1,45.75,28.158C40.7,30.591,35.582,32.9,30.494,35.264c-.047.022-.1.032-.245.079a14.82,14.82,0,0,0,1.615-7.575,20.672,20.672,0,0,1,2.579-1.262c1.472-.717,2.98-1.359,4.436-2.11a19.132,19.132,0,0,1,2.023.061,7.769,7.769,0,0,0,7.571-6.025,7.753,7.753,0,0,0-2.894-8.146,1.371,1.371,0,0,1-.469-.479,12.26,12.26,0,0,0-1.758-4.038c-.118-.193-.353-.365-.193-.647" transform="translate(-18.115 -3.067)" fill="#fb5327"/>
        <path id="Trazado_205137" data-name="Trazado 205137" d="M23.573,23.939c-.081.225-.3.279-.48.364q-3.015,1.4-6.034,2.8a.934.934,0,0,1-.481.14c-.614-4.883-2.548-9.07-6.488-12.171a13.452,13.452,0,0,0-4.732-2.335l-.635-.18a1.01,1.01,0,0,1,.525-.34q7.269-3.381,14.541-6.755a12.264,12.264,0,0,1,7.71-.981,3.408,3.408,0,0,1,.375.118c.452.856,1.008,1.655,1.392,2.549A5.377,5.377,0,0,1,29.9,9.268c-.207.087-.36-.049-.523-.133a7.938,7.938,0,0,0-9.121.985,9,9,0,0,0-1.3,1.481c-.378.486-.114.924.066,1.374a22.661,22.661,0,0,1-.6,2.242c-.86.527-.935.71-.775,1.753a7.84,7.84,0,0,0,5.387,6.6c.21.077.44.132.54.371" transform="translate(-2.828 -2.54)" fill="#f96931"/>
        <path id="Trazado_205138" data-name="Trazado 205138" d="M22.347,96.112c6.977,0,13.955-.009,20.932.01A3.372,3.372,0,0,0,46.5,94.265a6.12,6.12,0,0,0,.645-1.308H48.8c-.557,1.085-1.174,2.1-1.607,3.188-.418,1.051-1.081,1.258-2.147,1.249Q35,97.313,24.96,97.4a2.867,2.867,0,0,1-2.613-1.285" transform="translate(-13.383 -55.669)" fill="#5a3535"/>
        <path id="Trazado_205139" data-name="Trazado 205139" d="M21.444,119.114l21.727-.006c.816,0,.827,0,.6-.82a13.364,13.364,0,0,1-.585-3.539,12.47,12.47,0,0,1,.592-3.648c.011-.036.03-.069.04-.105.18-.706.18-.706-.543-.706H13.287c-.207,0-.414-.012-.621-.019a1.5,1.5,0,0,1,.721-.076q16.609,0,33.218-.007c.519,0,.589.113.434.6a12.624,12.624,0,0,0,0,7.838c.134.422.141.584-.393.583q-12.365-.02-24.729-.009c-.156,0-.339.086-.472-.08" transform="translate(-7.585 -65.987)" fill="#ddcfca"/>
        <path id="Trazado_205140" data-name="Trazado 205140" d="M17.6,124.7a19.357,19.357,0,0,0,.075-2.787,19.3,19.3,0,0,1,2.686-.062c.246-.006.292.2.321.39a5.859,5.859,0,0,1,.027.9c0,1.164,0,2.328,0,3.491a1.049,1.049,0,0,1-.183.8c-.766.233-1.269.893-2.03,1.289,0-1.037,0-2,0-2.97,0-.7-.205-.93-.892-1.051" transform="translate(-10.538 -72.965)" fill="#e6b367"/>
        <path id="Trazado_205141" data-name="Trazado 205141" d="M20.511,127.381c0-1.651-.016-3.3.013-4.952.009-.484-.156-.609-.611-.587-.749.036-1.5.016-2.25.02l-.08-.1c1.563-.005,3.126-.007,4.688-.019.25,0,.378.05.377.339-.008,2.163,0,4.327,0,6.548-.8-.331-1.286-1.112-2.133-1.253" transform="translate(-10.53 -72.91)" fill="#d5a75e"/>
        <path id="Trazado_205142" data-name="Trazado 205142" d="M55.66,126.532c-1.243,0-2.486,0-3.729,0-.617,0-1-.316-1.015-.817s.387-.876,1.021-.877q3.729-.007,7.458,0c.636,0,1.031.359,1.011.882-.019.5-.4.811-1.017.813-1.243,0-2.486,0-3.729,0" transform="translate(-30.492 -74.758)"/>
        <path id="Trazado_205143" data-name="Trazado 205143" d="M37.97,18.556c-.5-.583-.515-.828-.1-1.446a8.037,8.037,0,0,1,10.839-2.319,1.313,1.313,0,0,0,.206.084,8.166,8.166,0,0,1,3.61,5.758,8.053,8.053,0,0,1-8.37,9.074c-.525-.025-1.047-.106-1.57-.161A8.94,8.94,0,0,1,38.665,27.2a7.932,7.932,0,0,1-2.2-5.348c-.015-.684.211-.926.9-1.043.521-.043.854.255.923.862.04.354.061.71.118,1.064a6.111,6.111,0,0,0,6.189,5.09c.15-.009.3-.005.451,0a6.134,6.134,0,0,0,5.455-4.548,6.051,6.051,0,0,0-1.2-5.53,6.179,6.179,0,0,0-8.584-.988,9.538,9.538,0,0,0-1.457,1.559c-.442.53-.806.586-1.294.243" transform="translate(-21.84 -8.146)"/>
        <path id="Trazado_205144" data-name="Trazado 205144" d="M46.424,30.5a6.324,6.324,0,0,1-6.793-5.09,7.5,7.5,0,0,1-.11-1.066.923.923,0,0,0-.8-1,8.691,8.691,0,0,1,.6-2.254c.625.228,1-.049,1.363-.558a6.307,6.307,0,0,1,10.064-.37,3.848,3.848,0,0,1,.1,1.845,13.511,13.511,0,0,1-3.677,7.907,2.31,2.31,0,0,1-.751.588" transform="translate(-23.19 -10.678)" fill="#faca7f"/>
        <path id="Trazado_205145" data-name="Trazado 205145" d="M57.922,33.978a18.854,18.854,0,0,0,2.568-3.271,14.045,14.045,0,0,0,1.633-4.649c.141-.807.058-1.615.122-2.42a6,6,0,0,1,.941,6.558,5.971,5.971,0,0,1-5.265,3.782" transform="translate(-34.688 -14.156)" fill="#e6b367"/>
      </g>
    </g>
  </g>
</svg>
