<svg xmlns="http://www.w3.org/2000/svg" xmlns:xlink="http://www.w3.org/1999/xlink" width="78" height="78" viewBox="0 0 78 78">
  <defs>
    <clipPath id="clip-path">
      <rect id="Rectángulo_338355" data-name="Rectángulo 338355" width="52.601" height="42.913" fill="none"/>
    </clipPath>
  </defs>
  <g id="Grupo_982638" data-name="Grupo 982638" transform="translate(-1077 -2130)">
    <circle id="Elipse_4889" data-name="Elipse 4889" cx="39" cy="39" r="39" transform="translate(1077 2130)" fill="#6b8dfc"/>
    <g id="Grupo_982637" data-name="Grupo 982637" transform="translate(1090 2148)">
      <g id="Grupo_982636" data-name="Grupo 982636" clip-path="url(#clip-path)">
        <path id="Trazado_205146" data-name="Trazado 205146" d="M0,8.93a1.207,1.207,0,0,1,1.557-.4A40.705,40.705,0,0,0,9.8,10.316a42.187,42.187,0,0,0,10.233-.107c.984-.13,1.949-.357,2.931-.483.427-.055.574-.208.567-.666-.031-1.881-.014-3.763-.013-5.645,0-.8.169-1.019.918-1.26A44.067,44.067,0,0,1,51.8,2.2a1,1,0,0,1,.767,1.062c-.011,4.277.118,8.558-.046,12.829a24.166,24.166,0,0,1-9.88,19.018,8.541,8.541,0,0,1-10.97-.686,26.645,26.645,0,0,1-3.813-4.416c-.063-.093-.1-.217-.239-.252a.98.98,0,0,0-.214.448,24.28,24.28,0,0,1-8.235,11.01,8.574,8.574,0,0,1-11.053-.686A25.043,25.043,0,0,1,.563,27.367,23.273,23.273,0,0,1,.1,24.329c-.009-.108.052-.247-.1-.31v-.411A2.567,2.567,0,0,0,0,22.48Z" transform="translate(0 0)"/>
        <path id="Trazado_205147" data-name="Trazado 205147" d="M0,52.865a1.313,1.313,0,0,1,0,1.129Z" transform="translate(0 -30.385)" fill="#373737"/>
        <path id="Trazado_205148" data-name="Trazado 205148" d="M70.165,37.172a6.179,6.179,0,0,1-3.129-1.639,23.169,23.169,0,0,1-6.447-9.953,23.423,23.423,0,0,1-1.18-7.408c0-3.866.005-7.732-.011-11.6a.54.54,0,0,1,.468-.625A42.421,42.421,0,0,1,73.525,4.144a38.5,38.5,0,0,1,7.015.829.882.882,0,0,1,.163.578q.008,3.574,0,7.149a1.206,1.206,0,0,1-.067.451c-.189.3-.423.122-.631.042a7.157,7.157,0,0,0-4.039-.263,2.763,2.763,0,0,0-.4.105c-.48.172-.689.485-.589.879a.686.686,0,0,0,.882.5,9.939,9.939,0,0,1,2.09-.18,4.811,4.811,0,0,1,2.315.756.789.789,0,0,1,.389.46,26.316,26.316,0,0,1-.469,7.177.777.777,0,0,1-.251.489.257.257,0,0,1-.29-.011,1.327,1.327,0,0,0-1.537-.01,14.453,14.453,0,0,1-11.6.122,6.746,6.746,0,0,0-.81-.321c-.691-.192-1.106.175-1.018.891a.2.2,0,0,0,.008.051c.613,1.972,1.11,4,2.766,5.448a6.823,6.823,0,0,0,4.407,1.8,6.72,6.72,0,0,0,5.384-2.158.807.807,0,0,1,.459-.308c.34.284.045.531-.076.751A23.9,23.9,0,0,1,75.148,33a24.328,24.328,0,0,1-4.1,3.923.866.866,0,0,1-.885.247" transform="translate(-34.14 -2.37)" fill="#fcb52f"/>
        <path id="Trazado_205149" data-name="Trazado 205149" d="M27.591,45.008a20.586,20.586,0,0,1-2.773,4.706A21.906,21.906,0,0,1,20.5,54.007a6.866,6.866,0,0,1-8.809-.512,23.4,23.4,0,0,1-7.6-17.371c0-3.644.01-7.288-.01-10.931,0-.461.1-.536.528-.4A39.616,39.616,0,0,0,12.081,26.3a42.106,42.106,0,0,0,9.674-.034c.542-.068,1.088-.109,1.632-.162.227.242.161.546.159.828a40.951,40.951,0,0,0,.306,6.374,11.931,11.931,0,0,1,.245,1.716c-.1.316-.37.276-.594.258a5.8,5.8,0,0,1-4.017-2c-.271-.307-.469-.672-.715-1a.8.8,0,0,0-1.082-.246.724.724,0,0,0-.159,1.046,7.216,7.216,0,0,0,4.161,3.363c.13.041.265.065.4.1.546.156.591.237.384.751-.307.76-.643,1.508-.962,2.263a2.593,2.593,0,0,0,.429,3.04,2.546,2.546,0,0,0,3.707.028c.155-.153.263-.364.494-.431a.263.263,0,0,1,.246.151,16.538,16.538,0,0,1,1.206,2.667" transform="translate(-2.346 -14.215)" fill="#4397d0"/>
        <path id="Trazado_205150" data-name="Trazado 205150" d="M94.356,24.263a3.118,3.118,0,0,0,.423-1.537,27.921,27.921,0,0,0,.317-5.689c0-.17.006-.341.009-.511.341-.084.474.207.664.381a5.451,5.451,0,0,1,.512.64c.344.424.751.516,1.11.253.4-.291.432-.686.087-1.166a6.58,6.58,0,0,0-2.017-1.867c-.148-.087-.378-.111-.369-.365q0-4.14,0-8.28a40.864,40.864,0,0,1,4.072,1.009.4.4,0,0,1,.347.453c-.017,4.054.117,8.115-.06,12.162a22.589,22.589,0,0,1-8.941,17.327,6.81,6.81,0,0,1-5.66,1.318.48.48,0,0,1-.134-.071A1.024,1.024,0,0,0,85.5,38a24.524,24.524,0,0,0,6.154-6.8,2.973,2.973,0,0,0,.669-1.412.422.422,0,0,1,.116-.421,8.365,8.365,0,0,0,1.21-2.567,14.175,14.175,0,0,0,.709-2.535" transform="translate(-48.694 -3.519)" fill="#fea73d"/>
        <path id="Trazado_205151" data-name="Trazado 205151" d="M50.085,36.418a40.458,40.458,0,0,1-.62-9.048c.685-.132,1.375-.245,2.053-.4.345-.08.435,0,.428.351-.019,1.077.008,2.155-.01,3.233a25.664,25.664,0,0,0,2.737,12.226.655.655,0,0,1,.109.533,21.584,21.584,0,0,1-1.113,2.967,24.842,24.842,0,0,1-1.128-2.268c-.1-.175-.137-.388-.319-.509-.088-.138-.016-.265.035-.388a2.873,2.873,0,0,0-.1-2.331c-.515-1.189-1.035-2.375-1.523-3.574-.128-.313-.411-.495-.548-.788" transform="translate(-28.425 -15.483)" fill="#3e8bc6"/>
        <path id="Trazado_205152" data-name="Trazado 205152" d="M86.689,48.159a1.267,1.267,0,0,1,.016.758,15.372,15.372,0,0,1-2.051,4.765,8.728,8.728,0,0,1-3.148,2.205,7.183,7.183,0,0,1-9.083-4.069c-.347-.906-.631-1.837-.946-2.755a.924.924,0,0,1,1.338-1.2,14.439,14.439,0,0,0,6.848,1.413,14.632,14.632,0,0,0,5.622-1.4c.651-.3.909-.229,1.4.283" transform="translate(-41.027 -27.415)" fill="#290e0b"/>
        <path id="Trazado_205153" data-name="Trazado 205153" d="M73.6,25.3a10.114,10.114,0,0,0-1.887-.265,4.82,4.82,0,0,0-3.784,1.833c-.109.132-.208.272-.326.4a.87.87,0,0,1-1.354-1.094,6.661,6.661,0,0,1,4.561-2.837,7.152,7.152,0,0,1,3.086.255.878.878,0,0,1,.7.989.9.9,0,0,1-1,.723" transform="translate(-37.974 -13.371)"/>
        <path id="Trazado_205154" data-name="Trazado 205154" d="M101.318,24.7a7.476,7.476,0,0,1,2.46,2.117c.406.562.4,1.052-.056,1.4-.425.322-.9.216-1.322-.3a4.228,4.228,0,0,0-1.07-1.085,4.894,4.894,0,0,0-4.343-.859c-.1.022-.2.056-.3.071a.878.878,0,1,1-.4-1.7,7.456,7.456,0,0,1,3.137-.211,8.951,8.951,0,0,1,1.894.579" transform="translate(-54.92 -13.82)"/>
        <path id="Trazado_205155" data-name="Trazado 205155" d="M23.863,67.934a10.035,10.035,0,0,1,5.556,1.584,3.067,3.067,0,0,1,1.18,4.057,3,3,0,0,1-3.952,1.364,6.149,6.149,0,0,0-5.144-.008,2.991,2.991,0,0,1-4.258-2.56,2.89,2.89,0,0,1,1.39-2.791,9.48,9.48,0,0,1,5.228-1.646" transform="translate(-9.903 -39.046)"/>
        <path id="Trazado_205156" data-name="Trazado 205156" d="M41.784,44.6a1.347,1.347,0,0,1,.687.779c.5,1.191,1,2.381,1.524,3.562a2.94,2.94,0,0,1-.073,2.74A2.765,2.765,0,0,1,40.86,52.9a2.729,2.729,0,0,1-2-2.455,3,3,0,0,1,.3-1.488c.333-.785.661-1.573,1.012-2.35.115-.256.133-.384-.193-.455a7.248,7.248,0,0,1-4.713-3.427c-.376-.6-.334-1.087.128-1.395a.919.919,0,0,1,1.336.428,5.8,5.8,0,0,0,4.136,2.815,6.4,6.4,0,0,0,.918.031" transform="translate(-20.124 -23.671)"/>
        <path id="Trazado_205157" data-name="Trazado 205157" d="M9.335,46.358a.922.922,0,0,1-.964-.448.858.858,0,0,1,.781-1.294,6,6,0,0,0,2.861-.849,5.967,5.967,0,0,0,1.877-1.926,1.256,1.256,0,0,1,.566-.574.866.866,0,0,1,1.078,1.255,7.358,7.358,0,0,1-6.2,3.836" transform="translate(-4.739 -23.676)"/>
        <path id="Trazado_205158" data-name="Trazado 205158" d="M87.591,53.485a5.4,5.4,0,0,1-10.611.008,16.37,16.37,0,0,0,10.611-.008" transform="translate(-44.246 -30.742)" fill="#a7392d"/>
        <path id="Trazado_205159" data-name="Trazado 205159" d="M26.408,72.122a7.9,7.9,0,0,1,4.5,1.341,1.351,1.351,0,0,1,.482,1.673,1.283,1.283,0,0,1-1.557.652,12.949,12.949,0,0,0-2.188-.694,7.329,7.329,0,0,0-4.013.454c-.188.079-.376.163-.57.225a1.294,1.294,0,0,1-1.092-2.336,7.87,7.87,0,0,1,4.441-1.315" transform="translate(-12.255 -41.452)" fill="#3570aa"/>
        <path id="Trazado_205160" data-name="Trazado 205160" d="M49.116,56.691c.33.768.61,1.4.877,2.047a.92.92,0,0,1-.277,1.19.957.957,0,0,1-1.191.011.921.921,0,0,1-.3-1.187c.267-.654.559-1.3.891-2.061" transform="translate(-27.663 -32.584)" fill="#86cdd8"/>
      </g>
    </g>
  </g>
</svg>
