<svg xmlns="http://www.w3.org/2000/svg" xmlns:xlink="http://www.w3.org/1999/xlink" width="78" height="78" viewBox="0 0 78 78">
  <defs>
    <clipPath id="clip-path">
      <rect id="Rectángulo_338358" data-name="Rectángulo 338358" width="62.058" height="43.522" fill="none"/>
    </clipPath>
  </defs>
  <g id="Grupo_982647" data-name="Grupo 982647" transform="translate(4211 9556)">
    <circle id="Elipse_4892" data-name="Elipse 4892" cx="39" cy="39" r="39" transform="translate(-4211 -9556)" fill="#6b8dfc"/>
    <g id="Grupo_982646" data-name="Grupo 982646" transform="translate(-4203 -9539)">
      <g id="Grupo_982645" data-name="Grupo 982645" transform="translate(0 0)" clip-path="url(#clip-path)">
        <path id="Trazado_205234" data-name="Trazado 205234" d="M0,26.311a12.148,12.148,0,0,0,.391-1.859A7.827,7.827,0,0,1,1.848,21.3c.169-.2.117-.331.022-.531A8.5,8.5,0,0,1,1.962,12.8a.665.665,0,0,0-.056-.717A8.69,8.69,0,0,1,1.59,4.768,2.85,2.85,0,0,1,4.173,2.742C9.188,2.2,14.192,1.564,19.2.962,21.564.678,23.929.408,26.291.1A22,22,0,0,1,31.721.3q5.47.646,10.941,1.29,5.921.7,11.842,1.4c2.144.254,4.287.519,6.433.753.574.062.989.284,1.071.868a.927.927,0,0,1-.768,1.071.918.918,0,0,0-.588.644,7.323,7.323,0,0,0-.005,5.543,1.018,1.018,0,0,0,.762.7.83.83,0,0,1,.648.849.844.844,0,0,1-.624.927,1.183,1.183,0,0,0-.843.858,7.4,7.4,0,0,0,0,5.264,1.152,1.152,0,0,0,.849.845.819.819,0,0,1,.616.87.837.837,0,0,1-.654.907A1.909,1.909,0,0,0,60.02,24.39a11.653,11.653,0,0,0-.811,5.871,9.213,9.213,0,0,0,.923,3.548,1.632,1.632,0,0,0,1.224,1.046.843.843,0,0,1,.692,1,.944.944,0,0,1-.92.884q-2.975.362-5.949.72c-.781.094-1.562.2-2.346.261-.394.032-.487.2-.478.574.025.989-.007,1.98.014,2.969.012.577-.107,1.064-.715,1.25-.59.18-.935-.192-1.25-.622-.582-.8-1.181-1.579-1.828-2.44-.622,1.034-1.208,2.007-1.795,2.98-.114.19-.228.38-.347.568a.935.935,0,0,1-1.129.48.953.953,0,0,1-.7-1.012c0-1.091-.014-2.182.01-3.272.008-.372-.068-.469-.462-.418-2.222.284-4.45.515-6.67.808a12.463,12.463,0,0,1-3.067-.221c-5.113-.577-10.222-1.186-15.331-1.79-4.969-.587-9.933-1.224-14.91-1.744a3.6,3.6,0,0,1-3.054-2.215,11,11,0,0,1-1-3.655c-.012-.1,0-.2-.119-.251Z" transform="translate(0 0)"/>
        <path id="Trazado_205235" data-name="Trazado 205235" d="M23.394,59.6a14.365,14.365,0,0,1-.432-5.447,10.867,10.867,0,0,1,1.115-3.992.523.523,0,0,1,.651-.336c3.682.444,7.365.869,11.048,1.3.46.054.92.114,1.38.168.254.03.348.134.251.4a17.73,17.73,0,0,0-.585,9.358.711.711,0,0,1-.627.123c-3.986-.43-7.968-.887-11.956-1.293a1.384,1.384,0,0,1-.846-.28" transform="translate(-12.234 -26.624)" fill="#fec93a"/>
        <path id="Trazado_205236" data-name="Trazado 205236" d="M99.5,33.954a9.613,9.613,0,0,0,.623,5.441l-3.955.477L85.533,41.15c-2.4.29-4.806.576-7.208.877-.438.055-.566-.253-.7-.536a6.943,6.943,0,0,1-.5-3.788,3.5,3.5,0,0,1,.316-1.345,1.013,1.013,0,0,1,.755-.321c3.22-.406,6.443-.787,9.666-1.169,3.583-.425,7.164-.865,10.748-1.282a1.853,1.853,0,0,1,.6-.032c.21.044.406.111.288.4" transform="translate(-41.185 -17.925)" fill="#e9e9e9"/>
        <path id="Trazado_205237" data-name="Trazado 205237" d="M99.5,15.207a9.781,9.781,0,0,0,.6,5.44c-1.314.163-2.57.325-3.828.476q-5.343.639-10.687,1.272-3.632.434-7.262.886c-.439.055-.565-.257-.7-.54a6.954,6.954,0,0,1-.5-3.785,3.517,3.517,0,0,1,.316-1.344,1.013,1.013,0,0,1,.755-.321c3.22-.406,6.443-.787,9.666-1.169,3.583-.425,7.164-.865,10.748-1.282a1.853,1.853,0,0,1,.6-.032c.21.044.407.11.288.4" transform="translate(-41.185 -7.906)" fill="#e9e9e9"/>
        <path id="Trazado_205238" data-name="Trazado 205238" d="M26.764,12.365q4.44.521,8.879,1.042c2.92.346,5.839.7,8.76,1.048,1.18.14,2.362.267,3.542.405.3.034.589.089.931.142a9.618,9.618,0,0,0-.491,5.792.836.836,0,0,1-.743.142c-4.218-.514-8.44-.995-12.659-1.5-2.18-.259-4.358-.527-6.54-.767a1.588,1.588,0,0,1-.905-.291,9.663,9.663,0,0,1-.143-3.571c.1-.866,0-1.129-.7-1.532a1.058,1.058,0,0,1,.072-.914" transform="translate(-14.223 -6.608)" fill="#5e5ee9"/>
        <path id="Trazado_205239" data-name="Trazado 205239" d="M6.481,34.181a7.117,7.117,0,0,1,.317-4.67c.182-.439.448-.551.944-.489,3.579.449,7.164.855,10.747,1.277q4.864.573,9.728,1.149c.055.181.151.375-.144.441-.808-.018-1.081.189-1.263.953a11.017,11.017,0,0,0-.118,3.633.74.74,0,0,1-.681.149c-3.224-.387-6.452-.746-9.677-1.121q-4.478-.52-8.958-1.02a1.314,1.314,0,0,1-.893-.3" transform="translate(-3.329 -15.502)" fill="#98dfd3"/>
        <path id="Trazado_205240" data-name="Trazado 205240" d="M92.443,63.606c-.007-1.028.011-2.057-.031-3.083-.018-.456.115-.63.577-.675a.925.925,0,0,0,.883-1.078.982.982,0,0,0-1.142-.831q-4.11.488-8.218,1c-.719.09-1.039.4-1.067.932-.029.555.23.866.957,1.017.263.054.265.173.264.364q-.013,1.723-.02,3.447c-.092.221-.286.26-.493.284-2.317.269-4.632.557-6.948.83a2,2,0,0,1-1.919-1.095,12.473,12.473,0,0,1,.032-5.842,1.826,1.826,0,0,1,1.645-1.136c3.362-.421,6.729-.811,10.093-1.214,1.462-.176,2.926-.338,4.386-.531a3.392,3.392,0,0,1,4.038,3.957,4.593,4.593,0,0,1-2.207,3.513c-.246.156-.509.364-.831.141" transform="translate(-40.06 -29.904)" fill="#e9e9e9"/>
        <path id="Trazado_205241" data-name="Trazado 205241" d="M27.112,5.921c1.509-.185,2.937-.363,4.365-.534,3.2-.383,6.405-.757,9.607-1.146a16.878,16.878,0,0,1,4.043.1q3.842.457,7.684.917Q57.254,5.783,61.7,6.3c1.561.183,3.123.358,4.685.539a.843.843,0,0,1,.474.173c-.751.1-1.5.2-2.252.294-4,.485-8.008.937-12,1.462a19.942,19.942,0,0,1-4.688-.287c-2.586-.264-5.164-.608-7.745-.915Q35.7,7.035,31.222,6.507c-1.181-.139-2.363-.267-3.545-.4a.754.754,0,0,1-.565-.186" transform="translate(-14.49 -2.222)" fill="#7070f1"/>
        <path id="Trazado_205242" data-name="Trazado 205242" d="M92.859,60.722a3.47,3.47,0,0,0,2.349-2,4,4,0,0,0,.122-3.927,3.276,3.276,0,0,0-3.284-1.553c-1.162.2-2.34.309-3.511.453q-2.382.295-4.765.581c-1.471.175-2.943.341-4.415.51-.756.088-1.519.135-2.265.273a2.51,2.51,0,0,0-1.355.935,5.7,5.7,0,0,1,.823-2.25,1.365,1.365,0,0,1,1.117-.692q10.359-1.221,20.712-2.488a3.249,3.249,0,0,1,.342,0,14.579,14.579,0,0,0-.964,3.831,13.229,13.229,0,0,0,1.081,7.2c.224.467.136.55-.348.6-1.744.177-3.485.392-5.224.614-.346.045-.462-.028-.441-.388.034-.563.02-1.128.027-1.693" transform="translate(-40.476 -27.02)" fill="#d9d3d3"/>
        <path id="Trazado_205243" data-name="Trazado 205243" d="M6.767,40.121c2.167.243,4.334.475,6.5.73,2.264.266,4.524.565,6.789.828,1.928.224,3.859.411,5.788.628a4.882,4.882,0,0,0,1.134.109c.08.394.147.792.244,1.182.088.348-.048.423-.367.385q-3.745-.455-7.493-.9-3.9-.459-7.8-.909c-1.14-.133-2.277-.3-3.42-.381a1.231,1.231,0,0,1-1.2-.979,1.729,1.729,0,0,1-.176-.7" transform="translate(-3.615 -21.443)" fill="#5bd2c6"/>
        <path id="Trazado_205244" data-name="Trazado 205244" d="M65.038,64.249a14.18,14.18,0,0,1-.434-5.631,11.665,11.665,0,0,1,.869-3.57c.128-.317.275-.44.621-.393.8.109,1.6.186,2.405.271.229.025.338.092.214.345a14.086,14.086,0,0,0-.9,9.273.264.264,0,0,1,0,.061c-.19.169-.411.09-.625.084-.536-.016-1.061-.145-1.6-.156a.582.582,0,0,1-.554-.282" transform="translate(-34.482 -29.205)" fill="#fec93a"/>
        <path id="Trazado_205245" data-name="Trazado 205245" d="M4.779,57.5a12.547,12.547,0,0,1,.142-8.408,5.156,5.156,0,0,1,.425-.8,1.04,1.04,0,0,1,1.264-.551,15.249,15.249,0,0,0,1.646.212,16.936,16.936,0,0,0-1.094,4.231,21.455,21.455,0,0,0,.155,5.3c.088.276-.1.393-.3.392a3.869,3.869,0,0,1-2.238-.38" transform="translate(-2.204 -25.492)" fill="#fec93a"/>
        <path id="Trazado_205246" data-name="Trazado 205246" d="M63.115,40.738a8.916,8.916,0,0,1,.409-4.755c.092-.238.175-.408.51-.365,1.4.182,2.8.33,4.278.5a9.628,9.628,0,0,0-.626,5.1.762.762,0,0,1-.679.159c-1.079-.115-2.154-.268-3.235-.372a1.034,1.034,0,0,1-.657-.269" transform="translate(-33.654 -19.033)" fill="#98dfd3"/>
        <path id="Trazado_205247" data-name="Trazado 205247" d="M23.971,70.835q2.028.223,4.057.446c1.254.136,2.508.266,3.762.4,1.332.146,2.664.3,4,.445.537.058,1.076.1,1.614.156.134.485.24.98.41,1.453.134.374-.008.415-.321.379-1.2-.139-2.4-.265-3.6-.407-2.922-.346-5.841-.714-8.766-1.033-.458-.05-.7-.2-.807-.625a6.079,6.079,0,0,1-.34-1.216" transform="translate(-12.811 -37.858)" fill="#f6921e"/>
        <path id="Trazado_205248" data-name="Trazado 205248" d="M6.7,16.123A6.992,6.992,0,0,1,6.85,10.61.564.564,0,0,1,7.5,10.2c.917.13,1.836.246,2.757.339.3.031.4.135.309.419a12.86,12.86,0,0,0-.324,5.391.184.184,0,0,1-.209.228,13.516,13.516,0,0,1-3.33-.45" transform="translate(-3.317 -5.445)" fill="#5e5ee9"/>
        <path id="Trazado_205249" data-name="Trazado 205249" d="M99.933,33c-.053-.325-.3-.28-.517-.254-2.479.312-4.955.642-7.434.945-1.846.225-3.7.405-5.543.626-1.865.223-3.726.484-5.592.7a29.95,29.95,0,0,0-2.972.384,1.277,1.277,0,0,1,1.258-1.19c3.571-.38,7.135-.821,10.7-1.249,3.165-.379,6.328-.77,9.493-1.154a2.673,2.673,0,0,1,.941-.026L99.933,33" transform="translate(-41.62 -16.97)" fill="#d9d3d3"/>
        <path id="Trazado_205250" data-name="Trazado 205250" d="M99.933,14.255c-.054-.326-.305-.28-.517-.253-2.478.312-4.954.642-7.434.945-1.846.225-3.7.405-5.543.626-1.865.223-3.726.484-5.592.7a29.967,29.967,0,0,0-2.972.384,1.28,1.28,0,0,1,1.258-1.19c3.871-.419,7.735-.9,11.6-1.362q4.266-.51,8.532-1.03a3.146,3.146,0,0,1,1-.038l-.335,1.215" transform="translate(-41.62 -6.954)" fill="#d9d3d3"/>
        <path id="Trazado_205251" data-name="Trazado 205251" d="M15.05,58.68a13.931,13.931,0,0,1,.622-9.456c.154-.338.325-.53.732-.389a3.118,3.118,0,0,0,.6.058c.2.026.4.073.648.121-.265.888-.611,1.737-.8,2.631a17.627,17.627,0,0,0-.153,6.373c.027.179.032.362.047.543.088.243-.062.369-.255.354a2.659,2.659,0,0,1-1.441-.235" transform="translate(-7.757 -26.075)" fill="#f6921e"/>
        <path id="Trazado_205252" data-name="Trazado 205252" d="M56.695,63.351A14.644,14.644,0,0,1,57.175,54c.122-.308.308-.358.6-.333,1.332.11,1.334.1.973,1.378a18.449,18.449,0,0,0-.28,8.429,1.846,1.846,0,0,1-1.776-.121" transform="translate(-30.01 -28.678)" fill="#f6921e"/>
        <path id="Trazado_205253" data-name="Trazado 205253" d="M28.6,25.289q1.785.214,3.57.429c1.171.139,2.343.273,3.514.412,1.21.143,2.42.292,3.631.434,1.191.141,2.384.273,3.575.414,1.628.193,3.254.395,4.881.582.557.064,1.117.1,1.676.142l.269.869a30.168,30.168,0,0,1-3.121-.314c-2.282-.25-4.561-.528-6.841-.8q-3.3-.388-6.6-.777c-1.2-.142-2.4-.3-3.6-.427-.867-.089-.885-.085-.954-.969" transform="translate(-15.286 -13.516)" fill="#5b52d6"/>
        <path id="Trazado_205254" data-name="Trazado 205254" d="M75.667,74.76c.246.035.361.246.516.4a1.733,1.733,0,0,0,1.644.494c1.162-.2,2.345-.283,3.517-.428,1.229-.152,2.456-.321,3.683-.482.006.5-.011,1.008.027,1.508.028.366-.11.494-.458.533-1.779.2-3.556.415-5.333.625a13.857,13.857,0,0,0-1.5.189,1.012,1.012,0,0,1-1.178-.5,6.353,6.353,0,0,1-.921-2.34" transform="translate(-40.44 -39.945)" fill="#d9d3d3"/>
        <path id="Trazado_205255" data-name="Trazado 205255" d="M22.544,11.978c.2.322-.1.606-.071.914-.872.041-1.109.3-1.216,1.164a17.252,17.252,0,0,0,0,3.684,3.031,3.031,0,0,1-2.238-.244,9.961,9.961,0,0,1,.134-5.353c.114-.375.241-.563.7-.486.89.149,1.793.218,2.691.32" transform="translate(-10.003 -6.221)" fill="#98dfd3"/>
        <path id="Trazado_205256" data-name="Trazado 205256" d="M102.91,65.192c.905-.269.967-.224.967.689v7.406a5.721,5.721,0,0,1-1.053-1.254.994.994,0,0,0-1.824.119,10.133,10.133,0,0,1-.985,1.435V71.125a1.7,1.7,0,0,1,.534-.563,5.853,5.853,0,0,0,2.2-4.565c.007-.275-.058-.569.158-.8" transform="translate(-53.453 -34.765)" fill="#c0272d"/>
        <path id="Trazado_205257" data-name="Trazado 205257" d="M102.887,65.357a6.492,6.492,0,0,1-1.468,4.758,5.435,5.435,0,0,1-1.426,1.176c-.006-1.748-.009-3.5-.02-5.243,0-.248.031-.417.342-.441.858-.068,1.714-.164,2.571-.249" transform="translate(-53.431 -34.93)" fill="#ec1c24"/>
        <path id="Trazado_205258" data-name="Trazado 205258" d="M53.148,34.693c.138-.118.093-.295.143-.441.9.1,1.8.215,2.7.3.306.028.429.077.316.429a13.066,13.066,0,0,0-.489,4.655.166.166,0,0,1-.089.2,2.448,2.448,0,0,1-1.967-.424,8.168,8.168,0,0,1,.015-3.333,1.118,1.118,0,0,0-.624-1.381" transform="translate(-28.405 -18.306)" fill="#706ff1"/>
        <path id="Trazado_205259" data-name="Trazado 205259" d="M63.282,46.623c1.525.148,3.036.426,4.571.481.122.524.243,1.047.383,1.648-1.48-.178-2.912-.353-4.346-.519a.39.39,0,0,1-.389-.368,5.686,5.686,0,0,1-.218-1.242" transform="translate(-33.82 -24.918)" fill="#5bd2c6"/>
        <path id="Trazado_205260" data-name="Trazado 205260" d="M65.634,75.275a7.62,7.62,0,0,0,1.594.207c.377.084.787.1,1.182.147l.676,1.95c-.885-.1-1.711-.184-2.537-.277-.195-.021-.244-.194-.306-.337a8.051,8.051,0,0,1-.609-1.691" transform="translate(-35.078 -40.231)" fill="#f5921e"/>
        <path id="Trazado_205261" data-name="Trazado 205261" d="M5.532,68.736c.672.081,1.343.17,2.016.239.21.022.462.065.524-.251.146.562.291,1.124.44,1.686.063.239,0,.3-.264.3-1.674-.009-2.176-.364-2.716-1.973" transform="translate(-2.957 -36.729)" fill="#f5921e"/>
        <path id="Trazado_205262" data-name="Trazado 205262" d="M57.319,74.475A16.292,16.292,0,0,0,59.1,74.6q.22.781.439,1.563c.035.127.138.263-.043.365A2.062,2.062,0,0,1,57.86,76a6.682,6.682,0,0,1-.541-1.525" transform="translate(-30.634 -39.802)" fill="#ef5a24"/>
        <path id="Trazado_205263" data-name="Trazado 205263" d="M54.457,45.325a3.2,3.2,0,0,0,2.056.228c.075.47.152.939.223,1.409.029.195-.041.312-.262.281l-.178-.028C54.791,47,54.791,47,54.457,45.325" transform="translate(-29.104 -24.224)" fill="#5857db"/>
        <path id="Trazado_205264" data-name="Trazado 205264" d="M7.27,22.933a26.824,26.824,0,0,1,3.165.31c.148.012.275.054.374-.088.284.983.284.984-.662.879-.62-.068-1.238-.182-1.859-.2a.977.977,0,0,1-1.017-.9" transform="translate(-3.885 -12.255)" fill="#5b52d7"/>
        <path id="Trazado_205265" data-name="Trazado 205265" d="M15.666,69.9a4.93,4.93,0,0,1,1.3.1.267.267,0,0,0,.4-.22c.14.541.27,1.084.424,1.621.089.31-.066.324-.305.331-1.084.03-1.279-.1-1.622-1.141-.075-.227-.128-.46-.192-.691" transform="translate(-8.373 -37.293)" fill="#ef5924"/>
        <path id="Trazado_205266" data-name="Trazado 205266" d="M19.365,24.219l2.238.244c.015.08.028.159.045.238.138.661.122.679-.565.584a2.846,2.846,0,0,0-.6-.081.908.908,0,0,1-1.119-.985" transform="translate(-10.35 -12.944)" fill="#5bd1c5"/>
      </g>
    </g>
  </g>
</svg>
