<svg xmlns="http://www.w3.org/2000/svg" xmlns:xlink="http://www.w3.org/1999/xlink" width="166" height="130" viewBox="0 0 166 130">
  <defs>
    <clipPath id="clip-path">
      <rect id="Rect치ngulo_338347" data-name="Rect치ngulo 338347" width="103.822" height="91.766" fill="none"/>
    </clipPath>
  </defs>
  <g id="Grupo_982614" data-name="Grupo 982614" transform="translate(7794 10499)">
    <rect id="Rect치ngulo_338318" data-name="Rect치ngulo 338318" width="166" height="130" rx="14" transform="translate(-7794 -10499)" fill="#6b8dfc"/>
    <g id="Grupo_982613" data-name="Grupo 982613" transform="translate(-7763 -10479)">
      <g id="Grupo_982612" data-name="Grupo 982612" clip-path="url(#clip-path)">
        <path id="Trazado_204923" data-name="Trazado 204923" d="M0,1.248A2.257,2.257,0,0,1,2.311,0q49.615.03,99.229.017c1.737,0,2.278.552,2.278,2.315q0,32.434,0,64.869a24.2,24.2,0,0,1-47.625,6.411c-.2-.788-.5-.97-1.275-.969q-26.2.036-52.4.038A2.783,2.783,0,0,1,0,71.61Z" transform="translate(0 0)" fill="#231f20"/>
        <path id="Trazado_204924" data-name="Trazado 204924" d="M101.9,56.579a25.887,25.887,0,0,0-4.92-5.818,23.528,23.528,0,0,0-13.733-5.827,1.671,1.671,0,0,1-1.429-.9Q75.484,33.853,69.105,23.7c-1.134-1.811-2.514-1.808-3.649.007Q57.6,36.279,49.748,48.858c-.752,1.2-.752,1.2-1.493.053q-2.574-4-5.149-8c-1.091-1.689-2.456-1.684-3.547.01q-7.121,11.068-14.22,22.149a1.426,1.426,0,0,1-1.452.785c-1.011-.055-2.027-.024-3.04-.011a1.8,1.8,0,0,0-2.01,1.688c-.03,1.038.777,1.761,2.025,1.761Q38.3,67.3,55.736,67.27c.943,0,1.354.153,1.19,1.185-.113.719.229,1.727-.146,2.131-.454.489-1.463.157-2.229.157q-24.179.012-48.356.028c-.929,0-1.232-.15-1.23-1.173q.053-31.73,0-63.461C4.968,5.2,5.218,5,6.123,5q47.342.036,94.685,0c.846,0,1.121.138,1.119,1.073q-.053,24.736-.026,49.471Z" transform="translate(-1.537 -1.548)" fill="#c8f2fe"/>
        <path id="Trazado_204925" data-name="Trazado 204925" d="M105.916,109.193A20.769,20.769,0,1,1,126.745,88.5a20.738,20.738,0,0,1-20.828,20.694" transform="translate(-26.383 -20.949)" fill="#ea423f"/>
        <path id="Trazado_204926" data-name="Trazado 204926" d="M85.006,37.321C88.674,43.183,92.254,48.9,95.83,54.626a1.244,1.244,0,0,1,.077.34,24.742,24.742,0,0,0-9.062,3.043,23.792,23.792,0,0,0-11.375,14.87c-.206.759-.485,1-1.272.994-3.943-.043-7.887-.02-12.018-.02L85.006,37.321" transform="translate(-19.253 -11.556)" fill="#bedda6"/>
        <path id="Trazado_204927" data-name="Trazado 204927" d="M52.086,62.292c1.852,2.875,3.629,5.647,5.426,8.406.219.336.081.556-.082.817q-3,4.8-6,9.605a.837.837,0,0,1-.8.466c-3.575-.014-7.15-.008-10.933-.008L52.086,62.292" transform="translate(-12.29 -19.288)" fill="#bedda6"/>
        <path id="Trazado_204928" data-name="Trazado 204928" d="M27.592,29.525a6.906,6.906,0,1,1,6.884,6.9,6.862,6.862,0,0,1-6.884-6.9" transform="translate(-8.544 -6.998)" fill="#231f20"/>
        <path id="Trazado_204929" data-name="Trazado 204929" d="M38.518,13.47a18.4,18.4,0,0,1-.012,1.923,1.637,1.637,0,0,1-1.691,1.546,1.605,1.605,0,0,1-1.684-1.547,32.188,32.188,0,0,1,.01-3.845,1.56,1.56,0,0,1,1.626-1.5,1.676,1.676,0,0,1,1.744,1.5,1.715,1.715,0,0,1,.037.3c0,.541,0,1.081,0,1.622h-.03" transform="translate(-10.861 -3.11)" fill="#242021"/>
        <path id="Trazado_204930" data-name="Trazado 204930" d="M38.524,48.638a17.782,17.782,0,0,1-.011,1.82,1.686,1.686,0,0,1-1.669,1.589,1.636,1.636,0,0,1-1.708-1.531,32.3,32.3,0,0,1,0-3.843,1.607,1.607,0,0,1,1.7-1.525,1.656,1.656,0,0,1,1.673,1.569c.064.634.012,1.281.012,1.922" transform="translate(-10.862 -13.979)" fill="#242021"/>
        <path id="Trazado_204931" data-name="Trazado 204931" d="M49.947,37.6a1.592,1.592,0,0,1,.8.26c.964.55,1.938,1.086,2.882,1.668a1.72,1.72,0,1,1-1.7,2.987q-1.554-.835-3.054-1.771A1.59,1.59,0,0,1,48.2,38.8a1.7,1.7,0,0,1,1.746-1.2" transform="translate(-14.895 -11.642)" fill="#231f20"/>
        <path id="Trazado_204932" data-name="Trazado 204932" d="M30.266,17.194A1.873,1.873,0,0,1,29.1,19a1.476,1.476,0,0,1-1.825-.445,18.714,18.714,0,0,1-2.116-3.651,1.5,1.5,0,0,1,.512-1.81,1.439,1.439,0,0,1,1.949-.166,13.163,13.163,0,0,1,2.648,4.262" transform="translate(-7.75 -3.908)" fill="#231f20"/>
        <path id="Trazado_204933" data-name="Trazado 204933" d="M54.583,21.79a1.855,1.855,0,0,1-.975,1.553c-.934.534-1.852,1.1-2.8,1.606a1.725,1.725,0,1,1-1.725-2.978c.976-.594,1.957-1.188,2.976-1.7a1.721,1.721,0,0,1,2.522,1.52" transform="translate(-14.896 -6.216)" fill="#231f20"/>
        <path id="Trazado_204934" data-name="Trazado 204934" d="M17.7,41a1.808,1.808,0,0,1,.858-1.411c1.018-.588,2.021-1.205,3.06-1.754a1.71,1.71,0,0,1,1.7,2.968c-.992.63-2.008,1.232-3.056,1.759A1.725,1.725,0,0,1,17.7,41" transform="translate(-5.48 -11.646)" fill="#231f20"/>
        <path id="Trazado_204935" data-name="Trazado 204935" d="M19.587,20.038a3.563,3.563,0,0,1,.7.235c1.025.574,2.055,1.143,3.048,1.769a1.713,1.713,0,0,1-1.682,2.983c-1.069-.561-2.12-1.166-3.134-1.822a1.594,1.594,0,0,1-.645-2.036,1.765,1.765,0,0,1,1.713-1.13" transform="translate(-5.493 -6.205)" fill="#231f20"/>
        <path id="Trazado_204936" data-name="Trazado 204936" d="M30.274,44.974a4.053,4.053,0,0,1-.265.745c-.556,1-1.111,2-1.72,2.963a1.711,1.711,0,0,1-2.356.646,1.679,1.679,0,0,1-.616-2.356q.828-1.556,1.762-3.055a1.628,1.628,0,0,1,2.034-.682,1.742,1.742,0,0,1,1.16,1.738" transform="translate(-7.764 -13.353)" fill="#231f20"/>
        <path id="Trazado_204937" data-name="Trazado 204937" d="M47.794,47.859a1.708,1.708,0,0,1-1.117,1.57,1.53,1.53,0,0,1-1.911-.495,34.666,34.666,0,0,1-2.059-3.58,1.686,1.686,0,0,1,2.678-1.843,14.541,14.541,0,0,1,2.373,4.07,1.064,1.064,0,0,1,.036.278" transform="translate(-13.176 -13.332)" fill="#231f20"/>
        <path id="Trazado_204938" data-name="Trazado 204938" d="M47.811,14.542a3.836,3.836,0,0,1-.253.773c-.57,1.026-1.136,2.057-1.769,3.045a1.66,1.66,0,0,1-2.288.589,1.694,1.694,0,0,1-.65-2.351q.827-1.553,1.77-3.044a1.583,1.583,0,0,1,1.91-.739,1.769,1.769,0,0,1,1.281,1.727" transform="translate(-13.197 -3.943)" fill="#231f20"/>
        <path id="Trazado_204939" data-name="Trazado 204939" d="M13.489,93.667c-.6,0-1.212.03-1.814-.006a1.724,1.724,0,0,1-1.655-1.7,1.7,1.7,0,0,1,1.542-1.708,35.244,35.244,0,0,1,3.829,0A1.71,1.71,0,0,1,15.3,93.66c-.6.039-1.21.007-1.814.008" transform="translate(-3.102 -27.93)" fill="#231f20"/>
        <path id="Trazado_204940" data-name="Trazado 204940" d="M18.508,33.47c-.642,0-1.287.041-1.924-.01a1.633,1.633,0,0,1-1.537-1.6,1.552,1.552,0,0,1,1.276-1.713,13.266,13.266,0,0,1,4.33-.006,1.522,1.522,0,0,1,1.27,1.8,1.635,1.635,0,0,1-1.59,1.535,1.975,1.975,0,0,1-.2.012H18.508V33.47" transform="translate(-4.659 -9.279)" fill="#241f20"/>
        <path id="Trazado_204941" data-name="Trazado 204941" d="M53.56,33.509c-.574,0-1.15.028-1.722-.006a1.635,1.635,0,0,1-1.664-1.567,1.588,1.588,0,0,1,1.4-1.8,27.543,27.543,0,0,1,4.043,0,1.66,1.66,0,0,1,1.445,1.794,1.7,1.7,0,0,1-1.679,1.58c-.606.036-1.216.007-1.824.008" transform="translate(-15.534 -9.306)" fill="#241f20"/>
        <path id="Trazado_204942" data-name="Trazado 204942" d="M110.044,98.871c0,1.824.009,3.647,0,5.47-.008,1.233-.638,1.959-1.679,1.983-1.08.024-1.765-.73-1.769-2-.009-3.614-.025-7.227.015-10.84.008-.77-.159-1.024-.982-1.013-3.545.05-7.091.024-10.637.02-1.479,0-2.231-.6-2.215-1.743.015-1.123.788-1.71,2.271-1.711,3.546,0,7.092-.028,10.637.02.782.01.935-.22.927-.955-.039-3.58-.021-7.159-.016-10.739,0-1.377.632-2.145,1.734-2.142s1.715.764,1.717,2.154c0,3.614.019,7.227-.014,10.841-.006.669.186.839.842.834,3.646-.031,7.294-.008,10.942-.019a1.872,1.872,0,0,1,1.916,1.042,1.722,1.722,0,0,1-1.789,2.414c-3.58.016-7.16.032-10.739-.014-.877-.011-1.232.148-1.181,1.129.091,1.751.026,3.51.026,5.267" transform="translate(-28.726 -23.292)" fill="#231f20"/>
        <path id="Trazado_204943" data-name="Trazado 204943" d="M39.5,31.069a3.451,3.451,0,1,1-6.9-.09,3.451,3.451,0,0,1,6.9.09" transform="translate(-10.093 -8.55)" fill="#feabb8"/>
      </g>
    </g>
  </g>
</svg>
