<svg xmlns="http://www.w3.org/2000/svg" xmlns:xlink="http://www.w3.org/1999/xlink" width="166" height="130" viewBox="0 0 166 130">
  <defs>
    <clipPath id="clip-path">
      <rect id="Rect치ngulo_338349" data-name="Rect치ngulo 338349" width="110.54" height="110.524" fill="none"/>
    </clipPath>
  </defs>
  <g id="Grupo_982620" data-name="Grupo 982620" transform="translate(7794 9695)">
    <rect id="Rect치ngulo_338322" data-name="Rect치ngulo 338322" width="166" height="130" rx="14" transform="translate(-7794 -9695)" fill="#6b8dfc"/>
    <g id="Grupo_982619" data-name="Grupo 982619" transform="translate(-7766 -9686)">
      <g id="Grupo_982618" data-name="Grupo 982618" clip-path="url(#clip-path)">
        <path id="Trazado_204965" data-name="Trazado 204965" d="M85.306,110.524H25.346a2.077,2.077,0,0,1-1.62-2.239c-.02-1.114-.034-2.228,0-3.342a5.785,5.785,0,0,1,5.706-5.737c2.443-.064,4.889,0,7.333-.026.513,0,1.207.218,1.467-.37a3.394,3.394,0,0,0,.026-2.222c-.074-.284-.36-.326-.612-.358A9.37,9.37,0,0,0,36.46,96.2q-12.4,0-24.8,0A23.867,23.867,0,0,1,8,95.978a9.332,9.332,0,0,1-7.527-5.89A8.045,8.045,0,0,1,.018,86.8Q0,47.987,0,9.172C0,5.128,1.948,2.39,5.48.641A8.087,8.087,0,0,1,9.166.021Q55.323,0,101.478,0a9.005,9.005,0,0,1,8.213,4.793,10.144,10.144,0,0,1,.85,3.085V88.1c-.492,4.993-4.916,8.116-10.256,8.094-8.437-.034-16.874-.009-25.311-.008h-.861c-1.807,0-2.233.575-1.83,2.37.16.708.687.639,1.174.643,2.333.018,4.667,0,7,.008,4.114.009,6.458,2.364,6.465,6.495,0,.861.005,1.723-.008,2.584a2.076,2.076,0,0,1-1.608,2.241"/>
        <path id="Trazado_204966" data-name="Trazado 204966" d="M103.211,77.321c-.357.022-.714.064-1.07.064-11.535,0-23.07-.012-34.6.029-1.029,0-1.206-.316-1.205-1.257q.038-35.569-.008-71.137c0-1.079.305-1.26,1.3-1.256,11,.043,21.992.034,32.988.039a3.021,3.021,0,0,1,1.837,1.7,8.132,8.132,0,0,1,1.061,4.126c.045,3.158.018,6.317.011,9.475a1.921,1.921,0,0,1-.261,1.238c-.691.24-1.046-.314-1.457-.66a30.53,30.53,0,0,0-7.552-4.725c-6.086-2.638-11.966-2.041-17.67,1.173a36.985,36.985,0,0,0-6.455,4.643c-.054.048-.106.1-.159.146-1.831,1.71-1.888,2.53-.086,4.226a27.912,27.912,0,0,0,11.995,7.136c5.5,1.451,10.584.319,15.385-2.521a47.847,47.847,0,0,0,5.08-3.626c.307-.24.709-.81,1.1-.033a4.907,4.907,0,0,1,.113,1.387q0,8.1-.005,16.2c0,.592.128,1.232-.37,1.725-2.155-1.238-4.519-.685-6.8-.756-2.189-.069-4.381-.02-6.572-.013A2.036,2.036,0,0,1,87.9,43.7a1.413,1.413,0,0,0-2.594.023,2.028,2.028,0,0,1-1.915.925q-5.172-.009-10.344,0a5.667,5.667,0,0,0-1.288.076,1.378,1.378,0,0,0-1.238,1.294,1.425,1.425,0,0,0,1.122,1.514,4.988,4.988,0,0,0,1.5.135c3.412,0,6.824.011,10.236-.005a2.038,2.038,0,0,1,2.061,1.018,1.3,1.3,0,0,0,2.308.025,2.186,2.186,0,0,1,2.167-1.045c2.8.024,5.6,0,8.4.014,1.646.01,3.3.126,4.782-.814.031.019.073.031.09.058.55.9.512,4.952-.051,5.857a7.744,7.744,0,0,0-4.553-.808,1.534,1.534,0,0,1-1.415-.794c-.822-1.228-1.836-1.284-2.649-.1a2.159,2.159,0,0,1-2.034.913q-9.59-.01-19.179,0a8.7,8.7,0,0,0-1.4.048A1.543,1.543,0,0,0,70.461,53.5a1.582,1.582,0,0,0,1.48,1.451,9.2,9.2,0,0,0,1.4.045c6.285,0,12.57.011,18.855-.01A2.558,2.558,0,0,1,94.677,56.1a1.345,1.345,0,0,0,2.335-.094A1.977,1.977,0,0,1,99.081,55a6.211,6.211,0,0,0,4.015-.81c.032.019.073.031.09.058.551.908.511,4.957-.055,5.858-1.693-1.043-3.58-.788-5.425-.795-2.621-.009-5.241-.013-7.862,0a2.106,2.106,0,0,1-2.077-1.007,1.316,1.316,0,0,0-2.373.041,1.963,1.963,0,0,1-1.976.966c-3.446-.013-6.893-.008-10.339,0a4.368,4.368,0,0,0-1.6.185,1.369,1.369,0,0,0-1.012,1.373A1.425,1.425,0,0,0,71.553,62.2a4.264,4.264,0,0,0,1.388.128c3.482,0,6.964.01,10.446,0a2.03,2.03,0,0,1,2.052,1.027,1.318,1.318,0,0,0,2.375.04,2.258,2.258,0,0,1,2.171-1.068c3.339.018,6.679-.055,10.015.041a8.8,8.8,0,0,0,3.156-.819c.446.374.392.9.393,1.39q.019,6.536,0,13.071a1.855,1.855,0,0,1-.341,1.316" fill="#ced7db"/>
        <path id="Trazado_204967" data-name="Trazado 204967" d="M3.779,37.975q0-13.956,0-27.913c0-4.039,2.232-6.278,6.262-6.279,9.306,0,18.612.017,27.918-.025,1.011,0,1.212.3,1.236,1.257a100.345,100.345,0,0,1-1.908,20.523c-.629,3.443-.3,6.937-.285,10.413a30.028,30.028,0,0,1-.413,7.394,15.1,15.1,0,0,1-3.855,7.224A72.693,72.693,0,0,0,22.622,63.256c-.4.638-.886,1.219-1.32,1.834a7.005,7.005,0,0,1-5.96,3.112,95.017,95.017,0,0,1-10.013-.128c-1.551-.156-1.55-.165-1.55-1.755V37.975" fill="#795548"/>
        <path id="Trazado_204968" data-name="Trazado 204968" d="M62.609,75.885c-1.255-.717-2.38-1.4-3.543-2.015a39.429,39.429,0,0,0-9.534-3.614c-5.662-1.3-10.311-4.382-14.728-7.966A4.268,4.268,0,0,1,33.2,58.842a7.31,7.31,0,0,1,2.34-5.956A19.37,19.37,0,0,0,40.7,38.158a3.231,3.231,0,0,1,1.574-3.128c5.443-4.041,7.98-9.636,8.218-16.317a9.971,9.971,0,0,0-1.328-5.37c-1.339-2.33-3.154-3.027-5.725-2.248-.168.051-.34.092-.583.157,0-2.341.009-4.627-.007-6.912,0-.628.406-.556.8-.556h4.96c4.385,0,8.771.013,13.156-.014.674,0,.922.143.922.878q-.03,35.362-.02,70.725c0,.107-.024.213-.059.512" fill="red"/>
        <path id="Trazado_204969" data-name="Trazado 204969" d="M8.7,92.006A5.343,5.343,0,0,1,3.81,86.793c-.083-1.857.008-3.721.02-5.581A1.717,1.717,0,0,1,4.88,81.1q48.614-.009,97.227,0c1.306,0,1.414.09,1.441,1.381.029,1.329.047,2.66-.007,3.987a8.243,8.243,0,0,1-1.469,4.55A2.355,2.355,0,0,1,99.989,92.1q-45.271-.024-90.545-.014a1.655,1.655,0,0,1-.742-.076" fill="#3f51b4"/>
        <path id="Trazado_204970" data-name="Trazado 204970" d="M57.271,77.356H56.236q-25.554,0-51.108.023c-1.056,0-1.483-.2-1.374-1.343a25.871,25.871,0,0,0,.011-3.555c-.03-.714.255-.833.892-.778a76.713,76.713,0,0,0,11.936.032,9.984,9.984,0,0,0,7.1-3.787c1.939-2.277,3.378-4.9,5.14-7.306.18-.245.384-.472.774-.948v3.049c0,2.372-.013,4.744.009,7.115a1.773,1.773,0,0,0,1.668,2,1.832,1.832,0,0,0,1.926-1.768c.106-1.342.025-2.7.025-4.238,1.68,1.056,3.035,2.167,4.476,3.148a35.011,35.011,0,0,0,12.007,5.1,22.922,22.922,0,0,1,7.551,3.251" fill="#795548"/>
        <path id="Trazado_204971" data-name="Trazado 204971" d="M103,52.731a17.207,17.207,0,0,0-.01-5.829,1.456,1.456,0,0,1,.017-1.508c.353-.363.179-.817.18-1.224q.021-9.189.013-18.377c-.149-.535.3-.762.573-1.059,1.221-1.335,1.2-2.085-.082-3.391-.27-.275-.78-.424-.666-.975.2-.155.168-.38.168-.59,0-3.472.049-6.946-.019-10.417A7.065,7.065,0,0,0,100.614,3.8c3.865-.081,6.254,2.214,6.255,6.047q.007,33.188.027,66.376c0,.989-.3,1.247-1.212,1.157-.819-.081-1.649-.046-2.474-.062q0-7.315-.019-14.63c0-.372.164-.792-.184-1.115a1.648,1.648,0,0,1-.01-1.508,5.264,5.264,0,0,0,.179-2.593A8.4,8.4,0,0,0,103,54.24a1.684,1.684,0,0,1,0-1.509" fill="#607d8a"/>
        <path id="Trazado_204972" data-name="Trazado 204972" d="M79.256,106.822c-.468.012-.934.033-1.4.033q-24.261,0-48.525-.032c-.524,0-1.547.678-1.615-.669-.09-1.834.414-2.777,1.618-2.95a4.64,4.64,0,0,1,.646-.022q24.1,0,48.2,0c.215,0,.43.023.645.036a3.3,3.3,0,0,1,.429,3.6" fill="#3e50b4"/>
        <path id="Trazado_204973" data-name="Trazado 204973" d="M8.7,92.006c.574-.011,1.149-.031,1.723-.031h88.4c2.228,0,3.036-.615,3.837-2.756.754-2.017.508-4.1.538-6.172.026-1.839.005-1.839-1.807-1.839l-97.564,0c.274-.362.666-.193,1-.193q50.467,0,100.934-.009c.909,0,1.18.255,1.129,1.147-.074,1.29-.016,2.587-.02,3.88-.009,3.664-2.136,5.915-5.791,6.12-.5.029-1.006.023-1.509.023q-44.645,0-89.288-.006A2.809,2.809,0,0,1,8.7,92.006" fill="#283592"/>
        <path id="Trazado_204974" data-name="Trazado 204974" d="M42.6,95.871H64.6a4.337,4.337,0,0,1,.239,3.023c-.078.586-.585.52-1.016.52H54.791c-3.761,0-7.523-.022-11.285.019-.791.008-1.122-.179-1.019-1.007a16.688,16.688,0,0,1,.116-2.556" fill="#3f51b4"/>
        <path id="Trazado_204975" data-name="Trazado 204975" d="M40.669,31.535c-.257-3.3.447-6.391.916-9.5.267-1.769.535-3.537.788-5.308a3.338,3.338,0,0,1,2.792-2.28c.423.038.568.383.752.692a8.087,8.087,0,0,1,.764,5.526,16.873,16.873,0,0,1-5.652,10.687,2.2,2.2,0,0,1-.36.186" fill="#785548"/>
        <path id="Trazado_204976" data-name="Trazado 204976" d="M42.6,95.871c0,.791.054,1.586-.015,2.371-.075.862.241,1.094,1.09,1.089,6.146-.033,12.293-.017,18.439-.017,2.481,0,2.481,0,2.481-2.472,0-.323,0-.647,0-.97.967-.012,1.935-.006,2.9-.043.554-.022.726.189.756.744.159,2.935.175,2.934-2.746,2.937-7.313.007-14.627,0-21.94.042-.94.006-1.333-.224-1.181-1.188.13-.824-.226-1.693.217-2.493" fill="#293791"/>
        <path id="Trazado_204977" data-name="Trazado 204977" d="M79.256,106.822a7.943,7.943,0,0,0-.429-3.6c.712-.01,1.425-.044,2.138-.025a2.46,2.46,0,0,1,1.931,3.425c-.156.29-.414.234-.649.233-1,0-2-.019-2.991-.03" fill="#283592"/>
        <path id="Trazado_204978" data-name="Trazado 204978" d="M103.03,20.368c.406.405.822.8,1.217,1.214a1.956,1.956,0,0,1-.04,3.1c-.343.36-.669.738-1,1.107a40.331,40.331,0,0,1-7.614,5.2c-6.667,3.281-13.152,2.847-19.515-.846a32.4,32.4,0,0,1-7.119-5.533,1.839,1.839,0,0,1-.134-2.85c3.835-3.907,8.223-6.946,13.625-8.251,5.16-1.246,9.954-.108,14.489,2.447a34.662,34.662,0,0,1,6.094,4.409"/>
        <path id="Trazado_204979" data-name="Trazado 204979" d="M103,52.731l0,1.509a2.063,2.063,0,0,1-2.061,1.083c-.645-.021-1.293.019-1.938-.009-.759-.034-1.41-.079-1.675.931-.175.664-.893.893-1.586.871a1.48,1.48,0,0,1-1.515-1c-.208-.826-.708-.806-1.341-.805q-10.124.015-20.249,0A4.672,4.672,0,0,1,71.36,55.2a1.672,1.672,0,0,1-1.275-1.778,1.719,1.719,0,0,1,1.5-1.722,6.271,6.271,0,0,1,1.181-.048q10.124,0,20.249.005c.567,0,.984.006,1.175-.727a1.548,1.548,0,0,1,1.673-1.088,1.593,1.593,0,0,1,1.632,1.169c.158.628.478.663.982.647.825-.028,1.652.012,2.477-.012A2.038,2.038,0,0,1,103,52.731"/>
        <path id="Trazado_204980" data-name="Trazado 204980" d="M103.012,45.4a3.847,3.847,0,0,1-.018,1.508,2.231,2.231,0,0,1-2.187,1.075c-3.774-.011-7.548,0-11.322-.008-.578,0-1.066-.077-1.262.752a1.765,1.765,0,0,1-3.211.006c-.2-.8-.655-.762-1.247-.761q-5.715.018-11.43,0c-1.476-.006-2.369-.823-2.256-2,.1-1.04.866-1.664,2.131-1.668q5.769-.018,11.538,0c.59,0,1.065.059,1.246-.768a1.523,1.523,0,0,1,1.592-1.064,1.58,1.58,0,0,1,1.671,1.113c.185.76.623.72,1.177.719,3.81-.009,7.62.009,11.43-.013a2.1,2.1,0,0,1,2.148,1.106"/>
        <path id="Trazado_204981" data-name="Trazado 204981" d="M103,60.068q0,.754.01,1.508a2.126,2.126,0,0,1-2.153,1.1c-3.841-.021-7.682,0-11.523-.016-.552,0-.894.042-1.069.711a1.776,1.776,0,0,1-3.31-.03c-.165-.716-.563-.678-1.077-.677-3.877.007-7.754,0-11.631.009a1.971,1.971,0,0,1-1.976-1.028c-.654-1.294.29-2.628,1.917-2.644,3.087-.03,6.174-.009,9.261-.009.61,0,1.22,0,1.831,0,.794.007,1.582.18,1.876-.976.166-.649.91-.846,1.613-.8a1.49,1.49,0,0,1,1.475,1.057c.175.759.605.728,1.163.726,3.805-.01,7.61,0,11.415-.01A2.208,2.208,0,0,1,103,60.068"/>
        <path id="Trazado_204982" data-name="Trazado 204982" d="M11.973,24.719c-.549-.108-1.146.108-1.651-.317a1.807,1.807,0,0,1-.14-2.687c4.964-5.448,11.971-6.758,18.106-2.536a1.9,1.9,0,0,1,.948,2.014C28.48,25,26.9,28.307,23.251,30.155c-2.57,1.3-5.232,1.014-7.836.028-.915-.347-1.2-1.324-.858-2.46.328-1.038,1.19-1.45,2.457-1.094a6.551,6.551,0,0,0,4.015.109c2.068-.712,3.027-2.414,3.772-4.282.258-.649-.272-.893-.741-1.1a8.462,8.462,0,0,0-7.846.513,16.8,16.8,0,0,0-3.064,2.354c-.321.293-.6.771-1.177.492"/>
        <path id="Trazado_204983" data-name="Trazado 204983" d="M27.335,14.153c-1.3-.259-2.537-.739-3.858-.931-4.729-.685-8.835.378-12.035,4.123-.233.273-.472.543-.727.8a1.734,1.734,0,0,1-2.572.275,1.736,1.736,0,0,1-.192-2.587,15.142,15.142,0,0,1,9.766-6.177,18.931,18.931,0,0,1,10.07.867c1.519.544,1.98,2.144.932,3.139a1.741,1.741,0,0,1-1.384.5"/>
        <path id="Trazado_204984" data-name="Trazado 204984" d="M11.973,24.719c.691-.13,1.068-.692,1.526-1.132a9.979,9.979,0,0,1,7.919-3.2A9.111,9.111,0,0,1,24.9,21.413c.266.136.458.227.4.629A6.556,6.556,0,0,1,18.963,27.3a6.651,6.651,0,0,1-1.882-.4,1.963,1.963,0,0,0-2.524.819,6.947,6.947,0,0,1-3.236-2.691l.652-.313" fill="#fefefe"/>
        <path id="Trazado_204985" data-name="Trazado 204985" d="M81.167,23.256a5.875,5.875,0,0,1,1.856-4.972,5,5,0,0,1,7.154-.018,6.788,6.788,0,0,1-.291,9.954,4.639,4.639,0,0,1-5.121.845,5.8,5.8,0,0,1-3.589-4.747,6.322,6.322,0,0,1-.009-1.062" fill="#009587"/>
        <path id="Trazado_204986" data-name="Trazado 204986" d="M78.137,27.024a29.67,29.67,0,0,1-5.048-3.555c-.355-.3-.312-.448.013-.721A30.824,30.824,0,0,1,78.115,19.2a12.036,12.036,0,0,0,.022,7.82" fill="#fdfdfd"/>
        <path id="Trazado_204987" data-name="Trazado 204987" d="M95.073,19.18a31.163,31.163,0,0,1,4.971,3.5c.408.344.437.515.013.869a30.8,30.8,0,0,1-4.925,3.466,12,12,0,0,0-.059-7.832" fill="#fdfdfd"/>
      </g>
    </g>
  </g>
</svg>
