<svg xmlns="http://www.w3.org/2000/svg" xmlns:xlink="http://www.w3.org/1999/xlink" width="284.759" height="224" viewBox="0 0 284.759 224">
  <defs>
    <clipPath id="clip-path">
      <rect id="Rectángulo_338311" data-name="Rectángulo 338311" width="284.759" height="223.996" transform="translate(0 0)" fill="none"/>
    </clipPath>
  </defs>
  <g id="Grupo_982566" data-name="Grupo 982566" transform="translate(-389 -6957)">
    <rect id="Rectángulo_338312" data-name="Rectángulo 338312" width="213" height="207" rx="10" transform="translate(415 6961)" fill="#acade1"/>
    <g id="Grupo_982565" data-name="Grupo 982565">
      <g id="Grupo_982483" data-name="Grupo 982483" transform="translate(237.583 3136)">
        <rect id="Rectángulo_45195" data-name="Rectángulo 45195" width="126" height="224" rx="11" transform="translate(232.417 3821)" fill="#8284d2"/>
      </g>
      <g id="Grupo_982564" data-name="Grupo 982564" transform="translate(389 6957.004)">
        <g id="Grupo_982563" data-name="Grupo 982563" transform="translate(0 -0.004)" clip-path="url(#clip-path)">
          <path id="Trazado_204749" data-name="Trazado 204749" d="M925.988,860.014l.971.577,47.246,33.883-13.658,8.62a16.592,16.592,0,0,1-18.018-.2l-34.61-22.927Z" transform="translate(-786.701 -745.191)" fill="#f9c6b7"/>
          <path id="Trazado_204750" data-name="Trazado 204750" d="M627.959,673.567c13.962-8.958,28.611-3.213,43.624,10.335l21.545,10.827-27.79,25.463Z" transform="translate(-544.119 -579.9)" fill="#5959d8"/>
          <path id="Trazado_204751" data-name="Trazado 204751" d="M1541.919,169.228h-2.651a.288.288,0,0,1-.288-.288V131.723a.288.288,0,0,1,.288-.288h2.651a.287.287,0,0,1,.287.288v37.218a.287.287,0,0,1-.287.288m-2.363-.575h2.076V132.01h-2.076Z" transform="translate(-1333.508 -113.886)" fill="#b4daef"/>
          <path id="Trazado_204752" data-name="Trazado 204752" d="M584.734,1424.982l1.051,5.9h89.442l-21.282-34.937Z" transform="translate(-506.664 -1209.57)" fill="#231f20"/>
          <path id="Trazado_204753" data-name="Trazado 204753" d="M5.138,1315.543.183,1346.964a14.608,14.608,0,0,0,15.886,16.85,42.5,42.5,0,0,0,11.029-2.935l8.781-45.072Z" transform="translate(0 -1139.901)" fill="#f9c6b7"/>
          <path id="Trazado_204754" data-name="Trazado 204754" d="M1556.253,524.979a31.405,31.405,0,0,0,4.652-5.51,63.251,63.251,0,0,0,3.851-6.348l6.57-11.855a34.606,34.606,0,0,0,11.455,2.686,2.116,2.116,0,0,0,1.368-.184,1.5,1.5,0,0,0,.223-2.036,4.348,4.348,0,0,0-1.825-1.32l-8.41-4.064c3.261-.682,5.686-2.462,8.523-4.21,2.557-1.575,5.046-3.881,5.292-6.875a.849.849,0,0,0-.937-1.106,13.049,13.049,0,0,0-5.973,1.607q-5.349,2.449-10.52,5.265a49.058,49.058,0,0,1,6.051-5.429c2.348-1.822,4.576-4.012,5.536-6.825a1.028,1.028,0,0,0,.053-.723.9.9,0,0,0-.5-.427c-1.416-.619-3.04.072-4.39.823a43.871,43.871,0,0,0-10.7,8.359,46.321,46.321,0,0,0,5.922-8.292,4.985,4.985,0,0,0,.707-1.987,1.832,1.832,0,0,0-.9-1.788,2.573,2.573,0,0,0-2.321.446c-4.135,2.462-7.1,6.444-9.948,10.321l-21.808,25.964Z" transform="translate(-1332.847 -411.236)" fill="#f9c6b7"/>
          <path id="Trazado_204755" data-name="Trazado 204755" d="M274.388,718.372l-15.071,5.844.749,49.369,33.706,35.432,8.922,19,72.173-33.451-22.6-36.907c-3.846-13.4-5.837-18.246-13.722-30.5l-30.012-25.6-9.449,5.255Z" transform="translate(-224.695 -607.89)" fill="#5959d8"/>
          <path id="Trazado_204756" data-name="Trazado 204756" d="M725.355,811.609a.288.288,0,0,1-.276-.208c-2.8-9.749-4.594-14.944-8.478-21.879A46.115,46.115,0,0,0,704.976,775.9L690,764a.288.288,0,1,1,.358-.45l14.977,11.9a46.688,46.688,0,0,1,11.769,13.8c3.912,6.985,5.718,12.207,8.529,22a.288.288,0,0,1-.277.367" transform="translate(-597.781 -661.552)" fill="#231f20"/>
          <path id="Trazado_204757" data-name="Trazado 204757" d="M51.619,871.276C37.7,873.56,28.211,882,26.757,902.075l-7.141,31.278,34.139.368L59.4,917.141Z" transform="translate(-16.997 -754.949)" fill="#5959d8"/>
          <path id="Trazado_204758" data-name="Trazado 204758" d="M145.088,291.475a22.027,22.027,0,0,1-7.394.541,72.876,72.876,0,0,1-25.633-7.419A28.671,28.671,0,0,1,99.7,273.078c-4.962-8.981-2.91-20.165,3.768-27.894A28,28,0,0,1,126.886,236c9,.866,13.819,8.931,17.262,16.386q1.806,3.912,3.463,7.89c.978,2.348,1.754,4.748,2.777,7.1,3.349,7.695,5.286,21.351-5.3,24.1" transform="translate(-84.006 -204.384)" fill="#f9c6b7"/>
          <path id="Trazado_204759" data-name="Trazado 204759" d="M228.638,599.148l16.7,30.251c20.735,5.58,31.822,3.084,27.068-12.67-3.862-2.136-7.177-8.114-10.366-14.974Z" transform="translate(-198.112 -519.154)" fill="#f9c6b7"/>
          <path id="Trazado_204760" data-name="Trazado 204760" d="M730.972,221.6H621.225a7.166,7.166,0,0,1-7.158-7.158V7.154A7.166,7.166,0,0,1,621.225,0H730.972a7.166,7.166,0,0,1,7.158,7.158V214.439a7.166,7.166,0,0,1-7.158,7.158M621.225.571a6.591,6.591,0,0,0-6.583,6.583V214.439a6.591,6.591,0,0,0,6.583,6.583H730.972a6.59,6.59,0,0,0,6.583-6.583V7.154A6.59,6.59,0,0,0,730.972.571Z" transform="translate(-532.081 0.004)" fill="#b4daef"/>
          <path id="Trazado_204761" data-name="Trazado 204761" d="M740.537,238.378H633.826a6.976,6.976,0,0,1-6.968-6.968V29.858a6.976,6.976,0,0,1,6.968-6.968H740.537a6.976,6.976,0,0,1,6.968,6.968V231.41a6.976,6.976,0,0,1-6.968,6.968M633.826,23.465a6.4,6.4,0,0,0-6.393,6.393V231.41a6.4,6.4,0,0,0,6.393,6.393H740.537a6.4,6.4,0,0,0,6.393-6.393V29.858a6.4,6.4,0,0,0-6.393-6.393Z" transform="translate(-543.165 -19.833)" fill="#b4daef"/>
          <path id="Trazado_204762" data-name="Trazado 204762" d="M1051.139,63.8a3.941,3.941,0,1,1-3.941-3.941,3.941,3.941,0,0,1,3.941,3.941" transform="translate(-903.969 -51.869)" fill="#231f20"/>
          <path id="Trazado_204763" data-name="Trazado 204763" d="M202.961,1301.576l55.179-35.19-6.458-19.282-48.129,20.752Z" transform="translate(-175.863 -1080.6)" fill="#f9c6b7"/>
          <path id="Trazado_204764" data-name="Trazado 204764" d="M1231,787.412l41.611-35.893,17.442,13.405-35.9,35.54Z" transform="translate(-1066.649 -651.181)" fill="#f9c6b7"/>
          <path id="Trazado_204765" data-name="Trazado 204765" d="M375.807,419.309a.288.288,0,0,1-.283-.341c.195-1.026.4-1.872.566-2.552.29-1.191.482-1.977.241-2.27-.3-.369-1.557-.339-3.586-.246a.29.29,0,0,1-.254-.13l-3.743-5.727a.287.287,0,1,1,.481-.315l3.654,5.589c2.454-.11,3.438-.09,3.892.462.424.515.229,1.316-.126,2.772-.164.674-.368,1.512-.56,2.523a.288.288,0,0,1-.282.234" transform="translate(-319.475 -353.179)" fill="#231f20"/>
          <path id="Trazado_204766" data-name="Trazado 204766" d="M383.929,523.849a7.017,7.017,0,0,1-4.336-1.778.287.287,0,0,1,.359-.449c2.967,2.371,5.666,2.191,8.25-.549a.288.288,0,1,1,.418.395,6.494,6.494,0,0,1-4.691,2.381" transform="translate(-328.819 -451.425)" fill="#231f20"/>
          <path id="Trazado_204767" data-name="Trazado 204767" d="M315.7,443.144c.366.959.236,1.9-.291,2.1s-1.25-.414-1.616-1.373-.236-1.9.291-2.1,1.25.414,1.616,1.373" transform="translate(-271.716 -382.756)" fill="#231f20"/>
          <path id="Trazado_204768" data-name="Trazado 204768" d="M418.618,394.907c.366.959.236,1.9-.291,2.1s-1.25-.414-1.616-1.373-.236-1.9.291-2.1,1.25.414,1.616,1.373" transform="translate(-360.896 -340.959)" fill="#231f20"/>
          <path id="Trazado_204769" data-name="Trazado 204769" d="M277.966,380.922c.742-.745,2.164-2.175,1.206-3.253-.6-.679-1.777-.522-2.544-.274a15.692,15.692,0,0,0-6.82,5.693,2.975,2.975,0,0,0-.4,1.368,1.437,1.437,0,0,0,.62,1.231c1.259.767,2.943-.91,3.9-1.554a26.336,26.336,0,0,0,4.04-3.211" transform="translate(-233.434 -326.824)" fill="#231f20"/>
          <path id="Trazado_204770" data-name="Trazado 204770" d="M390.677,328.793c.493-.469.943-.955.769-1.657a2.326,2.326,0,0,0-1.3-1.465c-1.4-.452-3.327,1.245-4.3,2a10.821,10.821,0,0,0-2.932,3.068,2.573,2.573,0,0,0-.384,1.231,1.273,1.273,0,0,0,.59,1.108c1.2.69,2.8-.819,3.71-1.4a24.867,24.867,0,0,0,3.841-2.89" transform="translate(-331.463 -282.124)" fill="#231f20"/>
          <path id="Trazado_204771" data-name="Trazado 204771" d="M83.635,228.27c1.57.057,2.753-1.622,2.761-3.193a8.889,8.889,0,0,0-1.6-4.368l-6.455-11.03c.187-1.077,1.511-1.97,2.548-2.315,2.678-.892,5.779.222,8.354-.933,2.8-1.254,3.947-4.7,6.509-6.379,2.83-1.857,6.818-1.211,9.546-3.215a5.819,5.819,0,0,0-3.971-10.485c-.01-1.946-1.589-3.559-3.327-4.436a10.328,10.328,0,0,0-8.975-.091c-1.682.806-3.2,2.093-5.046,2.334-1.432.187-2.862-.286-4.3-.35a7.7,7.7,0,0,0-5.612,2.127c-1.957,1.891-2.779,4.7-4.625,6.7-2.452,2.655-6.464,3.627-8.51,6.607a7.124,7.124,0,0,0,.188,8.111c-2.655,1.141-3.759,4.056-3.693,6.945a15.039,15.039,0,0,0,3.042,7.986c3.3,4.787,5.809,9.323,10.984,12.336,2.9,1.688,5.99,3.2,8.286,5.644,1.546,1.648,2.662,3.651,4.121,5.376a2.668,2.668,0,0,0,1.356,1,1.964,1.964,0,0,0,2.1-1.427,5.478,5.478,0,0,0-.037-2.747,83.868,83.868,0,0,0-4.01-14.12" transform="translate(-49.75 -156.7)" fill="#231f20"/>
          <path id="Trazado_204772" data-name="Trazado 204772" d="M1000.567,200.305H921.879a12.36,12.36,0,0,1-12.36-12.36v-2.1a12.36,12.36,0,0,1,12.36-12.36h78.688a12.36,12.36,0,0,1,12.36,12.36v2.1a12.36,12.36,0,0,1-12.36,12.36" transform="translate(-788.087 -150.322)" fill="#5959d8"/>
          <path id="Trazado_204773" data-name="Trazado 204773" d="M569.814,297.545H555.389a12.636,12.636,0,0,1-12.636-12.636v-1.549a12.636,12.636,0,0,1,12.636-12.636h14.425a12.636,12.636,0,0,1,12.636,12.636v1.549a12.636,12.636,0,0,1-12.636,12.636" transform="translate(-470.289 -234.579)" fill="#718ef4"/>
          <rect id="Rectángulo_338310" data-name="Rectángulo 338310" width="52.752" height="48.458" transform="translate(106.008 67.756)" fill="#b4daef"/>
          <path id="Trazado_204774" data-name="Trazado 204774" d="M787.919,1052.485H736.788a18.236,18.236,0,0,1-18.236-18.236v-1.636a18.236,18.236,0,0,1,18.236-18.236h51.131a18.236,18.236,0,0,1,18.236,18.236v1.636a18.236,18.236,0,0,1-18.236,18.236" transform="translate(-622.617 -878.946)" fill="#718ef4"/>
          <path id="Trazado_204775" data-name="Trazado 204775" d="M941.381,580.37a7.259,7.259,0,1,1-7.259-7.259,7.259,7.259,0,0,1,7.259,7.259" transform="translate(-803.115 -496.593)" fill="#fff"/>
          <path id="Trazado_204776" data-name="Trazado 204776" d="M904.137,710.8a14.111,14.111,0,0,0-28.085,0Z" transform="translate(-759.088 -604.873)" fill="#fff"/>
          <path id="Trazado_204777" data-name="Trazado 204777" d="M1404.951,497.741h-74.531a12.376,12.376,0,0,1-12.362-12.362v-2.672a12.376,12.376,0,0,1,12.362-12.362h74.531a12.376,12.376,0,0,1,12.362,12.362v2.672a12.376,12.376,0,0,1-12.362,12.362m-74.531-26.82a11.8,11.8,0,0,0-11.787,11.787v2.672a11.8,11.8,0,0,0,11.787,11.787h74.531a11.8,11.8,0,0,0,11.787-11.787v-2.672a11.8,11.8,0,0,0-11.787-11.787Z" transform="translate(-1142.082 -407.548)" fill="#b4daef"/>
          <path id="Trazado_204778" data-name="Trazado 204778" d="M1396.136,525.748l1.117,3.439h3.616a.992.992,0,0,1,.583,1.794l-2.925,2.125,1.117,3.439a.992.992,0,0,1-1.526,1.109l-2.925-2.125-2.925,2.125a.992.992,0,0,1-1.526-1.109l1.117-3.439-2.925-2.125a.992.992,0,0,1,.583-1.794h3.616l1.117-3.439a.992.992,0,0,1,1.886,0" transform="translate(-1203.138 -454.96)" fill="#b4daef"/>
          <path id="Trazado_204779" data-name="Trazado 204779" d="M1532.867,525.748l1.117,3.439h3.616a.992.992,0,0,1,.583,1.794l-2.925,2.125,1.117,3.439a.992.992,0,0,1-1.526,1.109l-2.925-2.125L1529,537.653a.992.992,0,0,1-1.526-1.109l1.117-3.439-2.925-2.125a.992.992,0,0,1,.583-1.794h3.615l1.117-3.439a.992.992,0,0,1,1.886,0" transform="translate(-1321.614 -454.96)" fill="#b4daef"/>
          <path id="Trazado_204780" data-name="Trazado 204780" d="M1649.2,525.748l1.117,3.439h3.616a.992.992,0,0,1,.583,1.794l-2.925,2.125,1.117,3.439a.992.992,0,0,1-1.526,1.109l-2.925-2.125-2.925,2.125a.992.992,0,0,1-1.526-1.109l1.117-3.439L1642,530.981a.992.992,0,0,1,.583-1.794h3.616l1.117-3.439a.992.992,0,0,1,1.886,0" transform="translate(-1422.416 -454.96)" fill="#b4daef"/>
          <path id="Trazado_204781" data-name="Trazado 204781" d="M1773.671,525.748l1.117,3.439h3.616a.992.992,0,0,1,.583,1.794l-2.925,2.125,1.117,3.439a.992.992,0,0,1-1.526,1.109l-2.925-2.125-2.925,2.125a.992.992,0,0,1-1.526-1.109l1.117-3.439-2.925-2.125a.992.992,0,0,1,.583-1.794h3.616l1.117-3.439a.992.992,0,0,1,1.886,0" transform="translate(-1530.268 -454.96)" fill="#b4daef"/>
          <path id="Trazado_204782" data-name="Trazado 204782" d="M1900.865,525.748l1.117,3.439h3.615a.992.992,0,0,1,.583,1.794l-2.925,2.125,1.117,3.439a.992.992,0,0,1-1.526,1.109l-2.925-2.125L1897,537.653a.992.992,0,0,1-1.526-1.109l1.117-3.439-2.925-2.125a.992.992,0,0,1,.583-1.794h3.616l1.117-3.439a.992.992,0,0,1,1.886,0" transform="translate(-1640.48 -454.96)" fill="#b4daef"/>
          <path id="Trazado_204783" data-name="Trazado 204783" d="M164.553,486.222a8.078,8.078,0,1,1-8.078-8.078,8.078,8.078,0,0,1,8.078,8.078" transform="translate(-128.584 -414.305)" fill="#f9c6b7"/>
          <path id="Trazado_204784" data-name="Trazado 204784" d="M175.294,499.548a.287.287,0,0,1-.287-.287,5.494,5.494,0,0,0-10.988,0,.287.287,0,1,1-.575,0,6.069,6.069,0,0,1,12.137,0,.287.287,0,0,1-.287.287" transform="translate(-141.622 -427.344)" fill="#231f20"/>
          <path id="Trazado_204785" data-name="Trazado 204785" d="M1545.226,523.571a3.653,3.653,0,0,1,2.836-2.874l17.7-6.768c1.119-.428,2.476-.828,3.431-.1,1.562,1.183.283,3.668-1.165,4.988a30.611,30.611,0,0,1-8.837,5.625,4.861,4.861,0,0,0-2.069,1.27,4.791,4.791,0,0,0-.72,2.6c-.486,5.354-2.2,10.751-5.77,14.767-2.27,2.551-13.239,9.6-12.594,2.041.29-3.4,2.294-7.168,3.39-10.388Z" transform="translate(-1332.67 -444.876)" fill="#f9c6b7"/>
          <path id="Trazado_204786" data-name="Trazado 204786" d="M1630.682,541.494a.287.287,0,0,1-.215-.479c4.025-4.522,5.32-10.436,5.7-14.6l.007-.08a4.908,4.908,0,0,1,.773-2.669,4.8,4.8,0,0,1,2.072-1.31l.113-.047a30.171,30.171,0,0,0,8.754-5.572,5.069,5.069,0,0,0,1.784-3.389,1.474,1.474,0,0,0-.6-1.158c-.82-.621-2.051-.278-3.149.141l-8.249,3.615a.287.287,0,0,1-.231-.527l8.255-3.618.013-.005c1.247-.477,2.662-.857,3.708-.065a2.051,2.051,0,0,1,.826,1.59,5.572,5.572,0,0,1-1.971,3.84,30.739,30.739,0,0,1-8.921,5.678l-.114.047a3.154,3.154,0,0,0-2.492,3.5l-.007.08c-.386,4.251-1.713,10.293-5.842,14.932a.286.286,0,0,1-.215.1" transform="translate(-1412.717 -443.011)" fill="#231f20"/>
          <path id="Trazado_204787" data-name="Trazado 204787" d="M540.6,1074.049l13.185-19.1a20.89,20.89,0,0,1,5.021-5.656c2.255-1.547,5.01-2.14,7.687-2.7,2.827-.593,19.9-5.653,19.8-1.775-.067,2.669-5.007,3.611-6.789,4.023-3.62.837-7.3,1.686-10.489,3.684a120.372,120.372,0,0,1,16.194-4.022,6.542,6.542,0,0,1,2.689-.07,2.051,2.051,0,0,1,.8,3.81,6.8,6.8,0,0,1-2.144.942l-15.053,4.627c4.85-1.39,9.267-2.25,14.2-3.308a7.179,7.179,0,0,1,4.385,0,1.844,1.844,0,0,1,1.115,1.14,2.1,2.1,0,0,1-1.068,2.01,13.188,13.188,0,0,1-4.344,1.787l-12.475,3.459a89.418,89.418,0,0,1,14.743-2.458c1.209-.081,2.8.183,2.992,1.38.178,1.141-1.128,1.892-2.216,2.28a152.064,152.064,0,0,1-17.595,5.1c-5.825,9.164-10.882,15.688-20.54,20.65Z" transform="translate(-468.424 -904.064)" fill="#f9c6b7"/>
          <path id="Trazado_204788" data-name="Trazado 204788" d="M1000.205,231.839a.287.287,0,0,1-.218-.475,39.792,39.792,0,0,1,9.523-8.049c2.18-1.321,4.937-1.85,6.182-.057a4.7,4.7,0,0,1,.647,1.983,6.436,6.436,0,0,0,.309,1.3c.6,1.532,2.855,2.706,5.436,1.93a15.107,15.107,0,0,0,4.283-2.42c.464-.333.943-.676,1.426-1,4.277-2.83,10.552-3.424,13.23.551a11.968,11.968,0,0,1,.7,1.232,7.35,7.35,0,0,0,1.052,1.671c1.2,1.306,3.747,2.242,9.058-.718l9.75-5.432a13.2,13.2,0,0,1,5.223-1.989c1.848-.147,4.1.7,4.82,2.607a6.8,6.8,0,0,1,.311,1.332,4.425,4.425,0,0,0,.457,1.581c.779,1.306,2.742,1.4,4.28.81a17,17,0,0,0,1.771-.839,10.85,10.85,0,0,1,2.985-1.2.288.288,0,0,1,.1.566,10.252,10.252,0,0,0-2.824,1.14,17.529,17.529,0,0,1-1.832.867c-1.762.672-4.038.526-4.979-1.053a4.914,4.914,0,0,1-.531-1.783,6.268,6.268,0,0,0-.281-1.221c-.621-1.64-2.6-2.367-4.237-2.238a12.766,12.766,0,0,0-4.988,1.918l-9.751,5.433c-3.112,1.734-7.332,3.246-9.761.6a7.892,7.892,0,0,1-1.14-1.8,11.5,11.5,0,0,0-.661-1.173c-2.481-3.683-8.387-3.071-12.436-.393-.474.313-.949.654-1.408.983a15.535,15.535,0,0,1-4.453,2.5c-2.253.677-5.239,0-6.136-2.269a6.956,6.956,0,0,1-.342-1.419,4.216,4.216,0,0,0-.552-1.75c-1.18-1.7-3.957-.661-5.412.221a39.224,39.224,0,0,0-9.385,7.933.287.287,0,0,1-.218.1" transform="translate(-866.417 -190.935)" fill="#b4daef"/>
          <path id="Trazado_204789" data-name="Trazado 204789" d="M1153.879,1394.312h-73.267a12.863,12.863,0,0,1-12.864-12.864h0a12.864,12.864,0,0,1,12.864-12.864h73.267a12.864,12.864,0,0,1,12.864,12.864h0a12.863,12.863,0,0,1-12.864,12.864" transform="translate(-925.19 -1185.861)" fill="#6f6ff7"/>
          <path id="Trazado_204790" data-name="Trazado 204790" d="M1151.739,1446.44a4.772,4.772,0,0,1-3.479-1.321,7.962,7.962,0,0,1-1.058-1.441,8.819,8.819,0,0,0-.817-1.168,5.865,5.865,0,0,0-6.609-1.056c-2.3.936-4.144,2.835-5.772,4.51a.287.287,0,0,1-.412-.4c1.668-1.716,3.559-3.661,5.968-4.642,2.2-.9,5.412-.9,7.259,1.209a9.375,9.375,0,0,1,.872,1.242,7.421,7.421,0,0,0,.979,1.341c1.168,1.177,3.6,1.732,6.409.32a22.594,22.594,0,0,0,3.074-2,24.481,24.481,0,0,1,2.964-1.947,8.455,8.455,0,0,1,3.645-.994,4.865,4.865,0,0,1,3.459,1.165,8.7,8.7,0,0,1,1.379,1.768,4.74,4.74,0,0,0,2.081,2.121c1.425.53,2.983-.443,4.358-1.3l.1-.065a27.454,27.454,0,0,1,7.279-3.187,3.239,3.239,0,0,1,1.748-.122,3.362,3.362,0,0,1,1.8,1.768,7.946,7.946,0,0,0,.595.891c1.309,1.608,3.845,1.579,5.647.871a18.61,18.61,0,0,0,3.339-1.883c.712-.469,1.449-.953,2.216-1.365a3.28,3.28,0,0,1,2.539-.46,3.413,3.413,0,0,1,1.74,1.987,4.267,4.267,0,0,0,1.092,1.581c1.018.766,2.512.308,3.839-.241l8.456-3.5a.288.288,0,0,1,.22.531l-8.456,3.5c-1.477.611-3.155,1.109-4.4.169a4.738,4.738,0,0,1-1.261-1.785c-.374-.751-.726-1.46-1.415-1.7a2.781,2.781,0,0,0-2.078.424c-.744.4-1.47.877-2.171,1.338a19.066,19.066,0,0,1-3.445,1.938c-1.991.781-4.813.789-6.3-1.043a8.389,8.389,0,0,1-.641-.957c-.413-.682-.8-1.325-1.466-1.513a2.774,2.774,0,0,0-1.44.124,26.876,26.876,0,0,0-7.126,3.12l-.1.065c-1.487.929-3.173,1.982-4.863,1.353a5.228,5.228,0,0,1-2.363-2.346,8.3,8.3,0,0,0-1.282-1.655c-1.684-1.521-4.454-1.141-6.451-.09a24.042,24.042,0,0,0-2.893,1.9,23.055,23.055,0,0,1-3.155,2.045,8.2,8.2,0,0,1-3.6.892" transform="translate(-982.173 -1247.824)" fill="#231f20"/>
          <path id="Trazado_204791" data-name="Trazado 204791" d="M385.724,646.2l-16.393.813,19.726,4.727Z" transform="translate(-320.021 -559.923)" fill="#f4a592"/>
          <path id="Trazado_204792" data-name="Trazado 204792" d="M218.861,503.027a.287.287,0,0,1-.271-.191l-2.977-8.352a.288.288,0,0,1,.542-.193l2.977,8.352a.287.287,0,0,1-.271.384" transform="translate(-186.812 -428.131)" fill="#231f20"/>
          <path id="Trazado_204793" data-name="Trazado 204793" d="M293.388,1161.738a.282.282,0,0,1-.075-.01.287.287,0,0,1-.2-.353l4.582-16.89a.287.287,0,0,1,.555.151l-4.582,16.889a.288.288,0,0,1-.277.212" transform="translate(-253.968 -991.498)" fill="#231f20"/>
          <path id="Trazado_204794" data-name="Trazado 204794" d="M161.846,1385.162a.287.287,0,0,1-.132-.543l12.764-6.591a.287.287,0,1,1,.264.511l-12.764,6.591a.285.285,0,0,1-.132.032" transform="translate(-139.988 -1194.016)" fill="#231f20"/>
          <path id="Trazado_204795" data-name="Trazado 204795" d="M1543.735,879.44h-88.168a1.208,1.208,0,0,1-1.208-1.208v-60a1.208,1.208,0,0,1,1.208-1.208h88.168a1.208,1.208,0,0,1,1.208,1.208v60a1.208,1.208,0,0,1-1.208,1.208" transform="translate(-1260.184 -707.94)" fill="#97b2ff"/>
          <path id="Trazado_204796" data-name="Trazado 204796" d="M1478.852,850.428a.288.288,0,0,1-.288-.287l0-1.587a.287.287,0,0,1,.286-.288l1.313,0h0a.287.287,0,0,1,.288.286l0,1.587a.288.288,0,0,1-.287.288l-1.313,0Zm.283-1.588,0,1.012.738,0,0-1.012Z" transform="translate(-1281.154 -735.008)" fill="#b4daef"/>
          <path id="Trazado_204797" data-name="Trazado 204797" d="M1497.755,850.338a.287.287,0,0,1-.287-.287l0-1.587a.287.287,0,0,1,.286-.288l2.946-.009a.288.288,0,0,1,.288.286l0,1.587a.288.288,0,0,1-.287.288l-2.946.009Zm.284-1.588,0,1.012,2.371-.007,0-1.012Z" transform="translate(-1297.533 -734.926)" fill="#b4daef"/>
          <path id="Trazado_204798" data-name="Trazado 204798" d="M1531.126,850.209a.287.287,0,0,1-.287-.287l0-1.587a.288.288,0,0,1,.287-.288l4.339-.013h0a.287.287,0,0,1,.287.286l0,1.587a.287.287,0,0,1-.286.288l-4.339.013Zm.284-1.588,0,1.012,3.763-.011,0-1.012Z" transform="translate(-1326.449 -734.811)" fill="#b4daef"/>
          <path id="Trazado_204799" data-name="Trazado 204799" d="M1707.236,849.666a.288.288,0,0,1-.288-.287l0-1.587a.287.287,0,0,1,.286-.288l4.693-.014h0a.288.288,0,0,1,.288.286l0,1.587a.287.287,0,0,1-.287.288l-4.693.014Zm.283-1.588,0,1.012,4.118-.013,0-1.012Z" transform="translate(-1479.046 -734.339)" fill="#b4daef"/>
          <path id="Trazado_204800" data-name="Trazado 204800" d="M1598.78,849.921a.287.287,0,0,1-.287-.287l0-1.587a.288.288,0,0,1,.286-.288l8.513-.026a.3.3,0,0,1,.2.084.286.286,0,0,1,.085.2l.005,1.587a.287.287,0,0,1-.287.288l-8.513.026Zm.284-1.588,0,1.012,7.938-.024,0-1.012Z" transform="translate(-1385.07 -734.55)" fill="#b4daef"/>
          <path id="Trazado_204801" data-name="Trazado 204801" d="M1569.265,850.12a.287.287,0,0,1-.287-.287l0-1.587a.288.288,0,0,1,.286-.288l2.986-.009h0a.287.287,0,0,1,.287.286l0,1.587a.288.288,0,0,1-.287.288l-2.986.009Zm.284-1.588,0,1.012,2.411-.007,0-1.012Z" transform="translate(-1359.496 -734.737)" fill="#b4daef"/>
          <path id="Trazado_204802" data-name="Trazado 204802" d="M1674.163,849.8a.288.288,0,0,1-.288-.287l0-1.587a.287.287,0,0,1,.286-.288l2.986-.009a.278.278,0,0,1,.2.084.287.287,0,0,1,.085.2l0,1.587a.288.288,0,0,1-.287.288l-2.986.009Zm.283-1.588,0,1.012,2.411-.007,0-1.012Z" transform="translate(-1450.389 -734.458)" fill="#b4daef"/>
          <path id="Trazado_204803" data-name="Trazado 204803" d="M1914.317,849.088a.287.287,0,0,1-.287-.287l0-1.587a.287.287,0,0,1,.287-.288l2-.006h0a.288.288,0,0,1,.287.287l0,1.587a.288.288,0,0,1-.287.288l-2,.006Zm.284-1.588,0,1.012,1.427,0,0-1.012Z" transform="translate(-1658.479 -733.845)" fill="#b4daef"/>
          <path id="Trazado_204804" data-name="Trazado 204804" d="M1939.048,848.78a.287.287,0,0,1-.288-.287l0-1.587a.287.287,0,0,1,.286-.288l13.8-.042h0a.287.287,0,0,1,.287.287l0,1.587a.287.287,0,0,1-.287.288l-13.8.042Zm.283-1.588,0,1.012,13.229-.04,0-1.012Z" transform="translate(-1679.908 -733.547)" fill="#b4daef"/>
          <path id="Trazado_204805" data-name="Trazado 204805" d="M1847.276,849.18a.288.288,0,0,1-.288-.287l0-1.587a.287.287,0,0,1,.287-.288l7.638-.023h0a.288.288,0,0,1,.288.287l0,1.587a.288.288,0,0,1-.287.288l-7.638.023Zm.283-1.588,0,1.012,7.063-.021,0-1.012Z" transform="translate(-1600.389 -733.91)" fill="#b4daef"/>
          <path id="Trazado_204806" data-name="Trazado 204806" d="M1755.376,849.417a.287.287,0,0,1-.287-.287l0-1.587a.287.287,0,0,1,.286-.288l9.843-.03h0a.288.288,0,0,1,.288.286l0,1.587a.288.288,0,0,1-.287.288l-9.843.03Zm.284-1.588,0,1.012,9.268-.028,0-1.012Z" transform="translate(-1520.759 -734.109)" fill="#b4daef"/>
          <path id="Trazado_204807" data-name="Trazado 204807" d="M1478.945,881.026a.288.288,0,0,1-.288-.287l0-1.587a.287.287,0,0,1,.286-.288l1.313,0h0a.288.288,0,0,1,.288.286l0,1.587a.288.288,0,0,1-.287.288l-1.313,0Zm.283-1.588,0,1.012.738,0,0-1.012Z" transform="translate(-1281.235 -761.521)" fill="#b4daef"/>
          <path id="Trazado_204808" data-name="Trazado 204808" d="M1497.848,880.842a.287.287,0,0,1-.287-.287l0-1.587a.288.288,0,0,1,.287-.288l7.64-.023h0a.287.287,0,0,1,.287.287l0,1.587a.287.287,0,0,1-.287.288l-7.64.023Zm.284-1.588,0,1.012,7.065-.021,0-1.012Z" transform="translate(-1297.614 -761.345)" fill="#b4daef"/>
          <path id="Trazado_204809" data-name="Trazado 204809" d="M1617.031,880.3a.287.287,0,0,1-.287-.287l0-1.587a.287.287,0,0,1,.286-.288l16.749-.051h0a.287.287,0,0,1,.287.287l.005,1.587a.288.288,0,0,1-.287.288l-16.749.051Zm.284-1.588,0,1.012,16.174-.049,0-1.012Z" transform="translate(-1400.884 -760.851)" fill="#b4daef"/>
          <path id="Trazado_204810" data-name="Trazado 204810" d="M1569.358,880.682a.287.287,0,0,1-.287-.287l0-1.587a.288.288,0,0,1,.287-.288l4.776-.015h0a.288.288,0,0,1,.288.286l0,1.587a.288.288,0,0,1-.287.288l-4.776.015Zm.284-1.588,0,1.012,4.2-.013,0-1.012Z" transform="translate(-1359.576 -761.213)" fill="#b4daef"/>
          <path id="Trazado_204811" data-name="Trazado 204811" d="M1755.47,879.63a.287.287,0,0,1-.287-.287l0-1.587a.287.287,0,0,1,.286-.288l29.3-.089h0a.288.288,0,0,1,.287.287l0,1.587a.287.287,0,0,1-.286.289l-29.3.089Zm.284-1.588,0,1.012,28.721-.087,0-1.012Z" transform="translate(-1520.84 -760.238)" fill="#b4daef"/>
          <path id="Trazado_204812" data-name="Trazado 204812" d="M1479.039,911.928a.288.288,0,0,1-.288-.287l0-1.587a.287.287,0,0,1,.286-.288l1.313,0h0a.287.287,0,0,1,.288.286l0,1.587a.288.288,0,0,1-.287.288l-1.313,0Zm.283-1.588,0,1.012.738,0,0-1.012Z" transform="translate(-1281.316 -788.297)" fill="#b4daef"/>
          <path id="Trazado_204813" data-name="Trazado 204813" d="M1497.942,911.821a.287.287,0,0,1-.287-.287l0-1.587a.288.288,0,0,1,.287-.288l3.82-.012h0a.287.287,0,0,1,.287.287l0,1.587a.287.287,0,0,1-.287.289l-3.82.012Zm.284-1.588,0,1.012,3.245-.01,0-1.012Z" transform="translate(-1297.695 -788.197)" fill="#b4daef"/>
          <path id="Trazado_204814" data-name="Trazado 204814" d="M1645.738,911.252a.287.287,0,0,1-.287-.287l0-1.587a.287.287,0,0,1,.286-.288l9.827-.03h0a.288.288,0,0,1,.287.286l0,1.587a.288.288,0,0,1-.287.288l-9.827.03Zm.284-1.588,0,1.012,9.252-.028,0-1.012Z" transform="translate(-1425.759 -787.689)" fill="#b4daef"/>
          <path id="Trazado_204815" data-name="Trazado 204815" d="M1617.125,911.484a.287.287,0,0,1-.287-.287l0-1.587a.287.287,0,0,1,.286-.288l2.548-.008a.289.289,0,0,1,.288.286l0,1.587a.288.288,0,0,1-.287.288l-2.548.008Zm.284-1.588,0,1.012,1.973-.006,0-1.012Z" transform="translate(-1400.966 -787.909)" fill="#b4daef"/>
          <path id="Trazado_204816" data-name="Trazado 204816" d="M1536.694,911.6a.287.287,0,0,1-.287-.287l0-1.587a.288.288,0,0,1,.286-.288l9.15-.028h0a.288.288,0,0,1,.287.287l0,1.587a.288.288,0,0,1-.287.289l-9.15.028Zm.284-1.588,0,1.012,8.575-.026,0-1.012Z" transform="translate(-1331.273 -787.989)" fill="#b4daef"/>
          <path id="Trazado_204817" data-name="Trazado 204817" d="M1810.815,910.746a.288.288,0,0,1-.287-.287l0-1.587a.287.287,0,0,1,.286-.288l9.985-.03h0a.287.287,0,0,1,.288.287l0,1.587a.287.287,0,0,1-.287.288l-9.985.031Zm.284-1.588,0,1.012,9.41-.029,0-1.012Z" transform="translate(-1568.796 -787.25)" fill="#b4daef"/>
          <path id="Trazado_204818" data-name="Trazado 204818" d="M1728.281,911.114a.287.287,0,0,1-.287-.287l0-1.587a.287.287,0,0,1,.286-.288l4.1-.013h0a.288.288,0,0,1,.288.287l0,1.587a.287.287,0,0,1-.287.288l-4.1.012Zm.284-1.588,0,1.012,3.523-.01,0-1.012Z" transform="translate(-1497.281 -787.584)" fill="#b4daef"/>
          <path id="Trazado_204819" data-name="Trazado 204819" d="M1769.877,910.987a.287.287,0,0,1-.287-.287l0-1.587a.288.288,0,0,1,.286-.288l4.1-.012h0a.288.288,0,0,1,.287.287l0,1.587a.287.287,0,0,1-.287.288l-4.1.013Zm.284-1.588,0,1.012,3.523-.011,0-1.012Z" transform="translate(-1533.323 -787.474)" fill="#b4daef"/>
          <path id="Trazado_204820" data-name="Trazado 204820" d="M1479.236,976.5a.287.287,0,0,1-.287-.287l0-1.587a.288.288,0,0,1,.286-.288l1.313,0h0a.288.288,0,0,1,.287.286l0,1.587a.287.287,0,0,1-.286.288l-1.313,0Zm.284-1.588,0,1.012.738,0,0-1.012Z" transform="translate(-1281.487 -844.25)" fill="#b4daef"/>
          <path id="Trazado_204821" data-name="Trazado 204821" d="M1498.139,976.319a.288.288,0,0,1-.287-.287l0-1.587a.287.287,0,0,1,.286-.288l7.64-.023h0a.288.288,0,0,1,.288.287l0,1.587a.287.287,0,0,1-.287.288l-7.64.023Zm.284-1.588,0,1.012,7.065-.021,0-1.012Z" transform="translate(-1297.866 -844.075)" fill="#b4daef"/>
          <path id="Trazado_204822" data-name="Trazado 204822" d="M1685.546,975.749a.287.287,0,0,1-.287-.287l0-1.587a.287.287,0,0,1,.286-.288l7.64-.023h0a.288.288,0,0,1,.288.287l0,1.587a.287.287,0,0,1-.287.288l-7.64.023Zm.284-1.588,0,1.012,7.065-.021,0-1.012Z" transform="translate(-1460.252 -843.581)" fill="#b4daef"/>
          <path id="Trazado_204823" data-name="Trazado 204823" d="M1617.322,975.957a.288.288,0,0,1-.287-.287l0-1.587a.287.287,0,0,1,.286-.288l7.64-.023h0a.288.288,0,0,1,.288.287l0,1.587a.288.288,0,0,1-.287.288l-7.64.023Zm.284-1.588,0,1.012,7.065-.021,0-1.012Z" transform="translate(-1401.137 -843.761)" fill="#b4daef"/>
          <path id="Trazado_204824" data-name="Trazado 204824" d="M1569.648,976.16a.287.287,0,0,1-.287-.287l0-1.587a.287.287,0,0,1,.286-.288l4.776-.015h0a.287.287,0,0,1,.287.286l0,1.587a.288.288,0,0,1-.287.288l-4.776.015Zm.283-1.588,0,1.012,4.2-.013,0-1.012Z" transform="translate(-1359.828 -843.944)" fill="#b4daef"/>
          <path id="Trazado_204825" data-name="Trazado 204825" d="M1532.206,1156.342a.288.288,0,0,1-.288-.287l0-1.587a.287.287,0,0,1,.287-.288l1.313,0h0a.288.288,0,0,1,.288.286l0,1.587a.288.288,0,0,1-.287.288l-1.313,0Zm.283-1.588,0,1.012.738,0,0-1.012Z" transform="translate(-1327.385 -1000.079)" fill="#b4daef"/>
          <path id="Trazado_204826" data-name="Trazado 204826" d="M1551.109,1156.158a.287.287,0,0,1-.287-.287l0-1.587a.287.287,0,0,1,.286-.288l7.64-.023h0a.287.287,0,0,1,.288.287l0,1.587a.288.288,0,0,1-.287.289l-7.641.023Zm.284-1.588,0,1.012,7.065-.021,0-1.012Z" transform="translate(-1343.764 -999.903)" fill="#b4daef"/>
          <path id="Trazado_204827" data-name="Trazado 204827" d="M1738.516,1155.588a.287.287,0,0,1-.287-.287l0-1.587a.288.288,0,0,1,.286-.288l7.641-.023h0a.288.288,0,0,1,.287.287l0,1.587a.288.288,0,0,1-.287.288l-7.64.023Zm.284-1.588,0,1.012,7.065-.021,0-1.012Z" transform="translate(-1506.15 -999.408)" fill="#b4daef"/>
          <path id="Trazado_204828" data-name="Trazado 204828" d="M1670.292,1155.8a.287.287,0,0,1-.287-.287l0-1.587a.288.288,0,0,1,.286-.288l7.641-.023h0a.288.288,0,0,1,.288.287l0,1.587a.287.287,0,0,1-.287.288l-7.641.023Zm.284-1.588,0,1.012,7.065-.021,0-1.012Z" transform="translate(-1447.034 -999.588)" fill="#b4daef"/>
          <path id="Trazado_204829" data-name="Trazado 204829" d="M1622.619,1156a.287.287,0,0,1-.287-.287l0-1.587a.287.287,0,0,1,.286-.288l4.776-.015h0a.287.287,0,0,1,.288.286l0,1.587a.287.287,0,0,1-.287.288l-4.776.015Zm.284-1.588,0,1.012,4.2-.013,0-1.012Z" transform="translate(-1405.726 -999.772)" fill="#b4daef"/>
          <path id="Trazado_204830" data-name="Trazado 204830" d="M2000.905,1154.689a.287.287,0,0,1-.288-.287l0-1.587a.287.287,0,0,1,.286-.288l12.669-.039h0a.287.287,0,0,1,.287.287l0,1.587a.287.287,0,0,1-.287.288l-12.669.039Zm.283-1.588,0,1.012,12.094-.037,0-1.012Z" transform="translate(-1733.507 -998.616)" fill="#b4daef"/>
          <path id="Trazado_204831" data-name="Trazado 204831" d="M1887.78,1155.034a.287.287,0,0,1-.288-.287l0-1.587a.288.288,0,0,1,.287-.288l12.669-.038a.288.288,0,0,1,.289.287l0,1.587a.287.287,0,0,1-.287.288l-12.668.039Zm.283-1.588,0,1.012,12.094-.037,0-1.012Z" transform="translate(-1635.484 -998.915)" fill="#b4daef"/>
          <path id="Trazado_204832" data-name="Trazado 204832" d="M1808.73,1155.369a.288.288,0,0,1-.287-.287l0-1.587a.287.287,0,0,1,.286-.288l7.919-.024h0a.288.288,0,0,1,.288.287l0,1.587a.287.287,0,0,1-.287.288l-7.919.024Zm.284-1.588,0,1.012,7.344-.022,0-1.012Z" transform="translate(-1566.989 -999.218)" fill="#b4daef"/>
          <path id="Trazado_204833" data-name="Trazado 204833" d="M1479.329,1007.1a.287.287,0,0,1-.287-.287l0-1.587a.287.287,0,0,1,.286-.288l1.313,0h0a.287.287,0,0,1,.287.286l0,1.587a.287.287,0,0,1-.286.288l-1.313,0Zm.284-1.588,0,1.012.738,0,0-1.012Z" transform="translate(-1281.568 -870.763)" fill="#b4daef"/>
          <path id="Trazado_204834" data-name="Trazado 204834" d="M1498.232,1007.031a.287.287,0,0,1-.287-.287l0-1.587a.287.287,0,0,1,.286-.288l1.91-.006h0a.287.287,0,0,1,.288.287l0,1.587a.288.288,0,0,1-.287.289l-1.91.006Zm.284-1.588,0,1.012,1.335,0,0-1.012Z" transform="translate(-1297.947 -870.701)" fill="#b4daef"/>
          <path id="Trazado_204835" data-name="Trazado 204835" d="M1660.61,1006.423a.287.287,0,0,1-.287-.287l0-1.587a.287.287,0,0,1,.286-.288l7.641-.023h0a.288.288,0,0,1,.288.287l0,1.587a.288.288,0,0,1-.287.288l-7.64.023Zm.284-1.588,0,1.012,7.065-.021,0-1.012Z" transform="translate(-1438.645 -870.159)" fill="#b4daef"/>
          <path id="Trazado_204836" data-name="Trazado 204836" d="M1570.645,1006.635a.288.288,0,0,1-.288-.287l0-1.587a.288.288,0,0,1,.286-.288l10.782-.033h0a.288.288,0,0,1,.287.287l0,1.587a.287.287,0,0,1-.287.288l-10.782.033Zm.284-1.588,0,1.012,10.207-.031,0-1.012Z" transform="translate(-1360.691 -870.334)" fill="#b4daef"/>
          <path id="Trazado_204837" data-name="Trazado 204837" d="M1522.872,1006.9a.287.287,0,0,1-.287-.287l0-1.587a.287.287,0,0,1,.286-.288l4.776-.015h0a.287.287,0,0,1,.288.286l0,1.587a.288.288,0,0,1-.287.288l-4.776.015Zm.283-1.588,0,1.012,4.2-.013,0-1.012Z" transform="translate(-1319.297 -870.58)" fill="#b4daef"/>
          <path id="Trazado_204838" data-name="Trazado 204838" d="M1479.423,1038a.287.287,0,0,1-.287-.287l0-1.587a.287.287,0,0,1,.286-.288l1.313,0h0a.288.288,0,0,1,.287.286l0,1.587a.287.287,0,0,1-.286.288l-1.313,0Zm.284-1.588,0,1.012.738,0,0-1.012Z" transform="translate(-1281.649 -897.539)" fill="#b4daef"/>
          <path id="Trazado_204839" data-name="Trazado 204839" d="M1498.326,1037.82a.288.288,0,0,1-.287-.287l0-1.587a.287.287,0,0,1,.286-.288l7.64-.023h0a.288.288,0,0,1,.288.287l0,1.587a.288.288,0,0,1-.287.288l-7.64.023Zm.284-1.588,0,1.012,7.065-.021,0-1.012Z" transform="translate(-1298.028 -897.365)" fill="#b4daef"/>
          <path id="Trazado_204840" data-name="Trazado 204840" d="M1678.906,1037.3a.287.287,0,0,1-.287-.287l0-1.587a.287.287,0,0,1,.286-.288l6.4-.02h0a.288.288,0,0,1,.287.286l0,1.587a.287.287,0,0,1-.286.288l-6.4.02Zm.284-1.588,0,1.012,5.83-.018,0-1.012Z" transform="translate(-1454.498 -896.913)" fill="#b4daef"/>
          <path id="Trazado_204841" data-name="Trazado 204841" d="M1599.442,1037.581a.288.288,0,0,1-.287-.287l0-1.587a.287.287,0,0,1,.286-.288l4.2-.013h0a.287.287,0,0,1,.287.286l0,1.587a.288.288,0,0,1-.287.288l-4.2.013Zm.284-1.588,0,1.012,3.63-.011,0-1.012Z" transform="translate(-1385.644 -897.166)" fill="#b4daef"/>
          <path id="Trazado_204842" data-name="Trazado 204842" d="M1639.107,1037.46a.287.287,0,0,1-.287-.287l0-1.587a.287.287,0,0,1,.287-.288l4.2-.013h0a.287.287,0,0,1,.287.287l0,1.587a.288.288,0,0,1-.286.288l-4.2.013Zm.284-1.588,0,1.012,3.63-.011,0-1.012Z" transform="translate(-1420.013 -897.061)" fill="#b4daef"/>
          <path id="Trazado_204843" data-name="Trazado 204843" d="M1569.836,1037.709a.287.287,0,0,1-.287-.287l0-1.587a.287.287,0,0,1,.286-.288l2.25-.007h0a.287.287,0,0,1,.287.287l.005,1.587a.288.288,0,0,1-.287.288l-2.249.007Zm.284-1.588,0,1.012,1.674-.005,0-1.012Z" transform="translate(-1359.991 -897.282)" fill="#b4daef"/>
          <path id="Trazado_204844" data-name="Trazado 204844" d="M2028.41,1036.191a.287.287,0,0,1-.287-.287l0-1.587a.288.288,0,0,1,.287-.288l8.4-.025h0a.287.287,0,0,1,.287.286l0,1.587a.288.288,0,0,1-.287.288l-8.4.026Zm.283-1.588,0,1.012,7.825-.024,0-1.012Z" transform="translate(-1757.339 -895.95)" fill="#b4daef"/>
          <path id="Trazado_204845" data-name="Trazado 204845" d="M1479.516,1068.6a.288.288,0,0,1-.288-.287l0-1.587a.288.288,0,0,1,.286-.289l1.313,0h0a.288.288,0,0,1,.288.287l0,1.587a.288.288,0,0,1-.287.289l-1.313,0Zm.284-1.588,0,1.012.738,0,0-1.012Z" transform="translate(-1281.729 -924.052)" fill="#b4daef"/>
          <path id="Trazado_204846" data-name="Trazado 204846" d="M1498.419,1068.418a.287.287,0,0,1-.287-.287l0-1.587a.287.287,0,0,1,.286-.288l7.641-.023h0a.287.287,0,0,1,.287.287l0,1.587a.288.288,0,0,1-.287.288l-7.641.023Zm.284-1.588,0,1.012,7.065-.022,0-1.012Z" transform="translate(-1298.109 -923.877)" fill="#b4daef"/>
          <path id="Trazado_204847" data-name="Trazado 204847" d="M1617.6,1067.856a.287.287,0,0,1-.288-.287l0-1.587a.287.287,0,0,1,.286-.288l17.745-.054h0a.287.287,0,0,1,.287.286l.005,1.587a.288.288,0,0,1-.287.288l-17.745.054Zm.284-1.588,0,1.012,17.17-.052,0-1.012Z" transform="translate(-1401.379 -923.363)" fill="#b4daef"/>
          <path id="Trazado_204848" data-name="Trazado 204848" d="M1569.929,1068.257a.288.288,0,0,1-.287-.287l0-1.587a.288.288,0,0,1,.287-.288l4.776-.015h0a.287.287,0,0,1,.288.286l0,1.587a.288.288,0,0,1-.287.288l-4.776.015Zm.284-1.588,0,1.012,4.2-.013,0-1.012Z" transform="translate(-1360.071 -923.745)" fill="#b4daef"/>
          <path id="Trazado_204849" data-name="Trazado 204849" d="M1533.166,1130.949a.287.287,0,0,1-.288-.286l0-1.587a.287.287,0,0,1,.286-.288l1.313,0h0a.288.288,0,0,1,.287.286l0,1.587a.287.287,0,0,1-.287.288l-1.313,0Zm.284-1.588,0,1.012.738,0,0-1.012Z" transform="translate(-1328.216 -978.076)" fill="#b4daef"/>
          <path id="Trazado_204850" data-name="Trazado 204850" d="M1552.068,1130.765a.287.287,0,0,1-.287-.287l0-1.587a.287.287,0,0,1,.286-.288l7.64-.023h0a.288.288,0,0,1,.288.287l0,1.587a.287.287,0,0,1-.287.288l-7.64.023Zm.284-1.588,0,1.012,7.065-.021,0-1.012Z" transform="translate(-1344.595 -977.9)" fill="#b4daef"/>
          <path id="Trazado_204851" data-name="Trazado 204851" d="M1739.475,1130.27a.288.288,0,0,1-.288-.287l0-1.587a.288.288,0,0,1,.287-.288l3.82-.012h0a.288.288,0,0,1,.288.287l0,1.587a.287.287,0,0,1-.287.288l-3.82.011Zm.283-1.588,0,1.012,3.245-.01,0-1.012Z" transform="translate(-1506.98 -977.481)" fill="#b4daef"/>
          <path id="Trazado_204852" data-name="Trazado 204852" d="M1671.251,1130.4a.287.287,0,0,1-.287-.287l0-1.587a.288.288,0,0,1,.287-.289l7.64-.023h0a.288.288,0,0,1,.287.287l0,1.587a.287.287,0,0,1-.287.288l-7.64.023Zm.284-1.588,0,1.012,7.065-.021,0-1.012Z" transform="translate(-1447.865 -977.586)" fill="#b4daef"/>
          <path id="Trazado_204853" data-name="Trazado 204853" d="M1623.578,1130.6a.287.287,0,0,1-.287-.287l0-1.587a.287.287,0,0,1,.287-.288l4.776-.014h0a.287.287,0,0,1,.287.286l0,1.587a.287.287,0,0,1-.287.288l-4.776.015Zm.284-1.588,0,1.012,4.2-.013,0-1.012Z" transform="translate(-1406.557 -977.768)" fill="#b4daef"/>
          <path id="Trazado_204854" data-name="Trazado 204854" d="M1902.335,1129.627a.287.287,0,0,1-.288-.287l0-1.587a.288.288,0,0,1,.287-.288l11.185-.034h0a.287.287,0,0,1,.288.287l0,1.587a.288.288,0,0,1-.287.288l-11.185.034Zm.283-1.588,0,1.012,10.61-.032,0-1.012Z" transform="translate(-1648.097 -976.905)" fill="#b4daef"/>
          <path id="Trazado_204855" data-name="Trazado 204855" d="M1824.515,1129.909a.287.287,0,0,1-.287-.287l0-1.587a.287.287,0,0,1,.287-.288l9.018-.027h0a.287.287,0,0,1,.287.287l0,1.587a.288.288,0,0,1-.287.289l-9.018.027Zm.284-1.588,0,1.012,8.443-.026,0-1.012Z" transform="translate(-1580.667 -977.154)" fill="#b4daef"/>
          <path id="Trazado_204856" data-name="Trazado 204856" d="M1776.02,1130.136a.288.288,0,0,1-.287-.287l0-1.587a.287.287,0,0,1,.287-.288l4.95-.015h0a.288.288,0,0,1,.287.287l0,1.587a.287.287,0,0,1-.286.289l-4.95.015Zm.284-1.588,0,1.012,4.375-.013,0-1.012Z" transform="translate(-1538.646 -977.362)" fill="#b4daef"/>
          <path id="Trazado_204857" data-name="Trazado 204857" d="M1518.261,944.1a.287.287,0,0,1-.287-.287l0-1.587a.287.287,0,0,1,.287-.288l1.313,0h0a.288.288,0,0,1,.288.286l0,1.587a.287.287,0,0,1-.287.288l-1.313,0Zm.283-1.588,0,1.012.738,0,0-1.012Z" transform="translate(-1315.301 -816.171)" fill="#b4daef"/>
          <path id="Trazado_204858" data-name="Trazado 204858" d="M1537.164,943.952a.287.287,0,0,1-.287-.287l0-1.587a.287.287,0,0,1,.286-.288l5.678-.017h0a.288.288,0,0,1,.288.287l0,1.587a.287.287,0,0,1-.287.289l-5.678.017Zm.284-1.588,0,1.012,5.1-.015,0-1.012Z" transform="translate(-1331.681 -816.034)" fill="#b4daef"/>
          <path id="Trazado_204859" data-name="Trazado 204859" d="M1635.159,943.616a.287.287,0,0,1-.287-.287l0-1.587a.287.287,0,0,1,.286-.289l7.64-.023h0a.287.287,0,0,1,.288.287l0,1.587a.288.288,0,0,1-.287.288l-7.64.023Zm.284-1.588,0,1.012,7.065-.021,0-1.012Z" transform="translate(-1416.592 -815.737)" fill="#b4daef"/>
          <path id="Trazado_204860" data-name="Trazado 204860" d="M1588.1,943.807a.288.288,0,0,1-.287-.287l0-1.587a.288.288,0,0,1,.287-.288l5.22-.016h0a.287.287,0,0,1,.287.287l.005,1.587a.288.288,0,0,1-.287.288l-5.22.016Zm.284-1.588,0,1.012,4.645-.014,0-1.012Z" transform="translate(-1375.82 -815.909)" fill="#b4daef"/>
          <path id="Trazado_204861" data-name="Trazado 204861" d="M1479.871,1185.129a.288.288,0,0,1-.288-.287l0-1.587a.287.287,0,0,1,.287-.288l1.313,0h0a.288.288,0,0,1,.288.286l0,1.587a.287.287,0,0,1-.287.288l-1.313,0Zm.284-1.588,0,1.012.738,0,0-1.012Z" transform="translate(-1282.037 -1025.022)" fill="#b4daef"/>
          <path id="Trazado_204862" data-name="Trazado 204862" d="M1498.774,1185.021a.287.287,0,0,1-.287-.287l0-1.587a.287.287,0,0,1,.286-.288l3.82-.012h0a.287.287,0,0,1,.288.287l0,1.587a.288.288,0,0,1-.287.289l-3.82.012Zm.284-1.588,0,1.012,3.245-.01,0-1.012Z" transform="translate(-1298.416 -1024.922)" fill="#b4daef"/>
          <path id="Trazado_204863" data-name="Trazado 204863" d="M1646.57,1184.453a.287.287,0,0,1-.287-.287l0-1.587a.287.287,0,0,1,.286-.288l9.827-.03h0a.287.287,0,0,1,.288.287l0,1.587a.287.287,0,0,1-.287.288l-9.827.03Zm.284-1.588,0,1.012,9.252-.028,0-1.012Z" transform="translate(-1426.479 -1024.414)" fill="#b4daef"/>
          <path id="Trazado_204864" data-name="Trazado 204864" d="M1617.957,1184.683a.287.287,0,0,1-.287-.287l0-1.587a.287.287,0,0,1,.287-.288l2.548-.008a.271.271,0,0,1,.2.084.286.286,0,0,1,.085.2l0,1.587a.287.287,0,0,1-.286.288l-2.549.008Zm.284-1.588,0,1.012,1.973-.006,0-1.012Z" transform="translate(-1401.687 -1024.632)" fill="#b4daef"/>
          <path id="Trazado_204865" data-name="Trazado 204865" d="M1537.526,1184.8a.287.287,0,0,1-.287-.287l0-1.587a.287.287,0,0,1,.287-.288l9.15-.028h0a.287.287,0,0,1,.287.287l.005,1.587a.288.288,0,0,1-.287.288l-9.15.028Zm.284-1.588,0,1.012,8.575-.026,0-1.012Z" transform="translate(-1331.994 -1024.715)" fill="#b4daef"/>
          <path id="Trazado_204866" data-name="Trazado 204866" d="M1811.647,1183.946a.287.287,0,0,1-.287-.287l0-1.587a.288.288,0,0,1,.287-.288l9.985-.03h0a.287.287,0,0,1,.287.286l0,1.587a.288.288,0,0,1-.287.288l-9.985.03Zm.284-1.588,0,1.012,9.41-.029,0-1.012Z" transform="translate(-1569.517 -1023.975)" fill="#b4daef"/>
          <path id="Trazado_204867" data-name="Trazado 204867" d="M1729.113,1184.314a.287.287,0,0,1-.287-.287l-.005-1.587a.288.288,0,0,1,.287-.288l4.1-.013h0a.288.288,0,0,1,.288.287l0,1.587a.288.288,0,0,1-.287.288l-4.1.012Zm.284-1.588,0,1.012,3.522-.011,0-1.012Z" transform="translate(-1498.002 -1024.308)" fill="#b4daef"/>
          <path id="Trazado_204868" data-name="Trazado 204868" d="M1770.709,1184.187a.287.287,0,0,1-.287-.287l0-1.587a.288.288,0,0,1,.287-.288l4.1-.013h0a.288.288,0,0,1,.288.287l0,1.587a.287.287,0,0,1-.287.288l-4.1.013Zm.284-1.588,0,1.012,3.523-.01,0-1.012Z" transform="translate(-1534.045 -1024.198)" fill="#b4daef"/>
          <path id="Trazado_204869" data-name="Trazado 204869" d="M1480.035,1238.808a.288.288,0,0,1-.288-.287l0-1.587a.287.287,0,0,1,.286-.288l1.313,0h0a.287.287,0,0,1,.288.286l0,1.587a.287.287,0,0,1-.287.288l-1.313,0Zm.283-1.588,0,1.012.738,0,0-1.012Z" transform="translate(-1282.179 -1071.534)" fill="#b4daef"/>
          <path id="Trazado_204870" data-name="Trazado 204870" d="M1498.938,1238.625a.287.287,0,0,1-.287-.287l0-1.587a.287.287,0,0,1,.286-.288l7.641-.023h0a.288.288,0,0,1,.287.287l0,1.587a.287.287,0,0,1-.287.288l-7.64.023Zm.284-1.588,0,1.012,7.065-.021,0-1.012Z" transform="translate(-1298.558 -1071.359)" fill="#b4daef"/>
          <path id="Trazado_204871" data-name="Trazado 204871" d="M1686.345,1238.054a.287.287,0,0,1-.287-.287l0-1.587a.287.287,0,0,1,.286-.288l7.64-.023h0a.287.287,0,0,1,.287.287l0,1.587a.288.288,0,0,1-.286.288l-7.641.023Zm.284-1.588,0,1.012,7.065-.021,0-1.012Z" transform="translate(-1460.944 -1070.865)" fill="#b4daef"/>
          <path id="Trazado_204872" data-name="Trazado 204872" d="M1618.121,1238.262a.287.287,0,0,1-.287-.287l0-1.587a.287.287,0,0,1,.287-.288l7.64-.023h0a.287.287,0,0,1,.288.287l0,1.587a.287.287,0,0,1-.287.288l-7.641.023Zm.284-1.588,0,1.012,7.065-.021,0-1.012Z" transform="translate(-1401.829 -1071.045)" fill="#b4daef"/>
          <path id="Trazado_204873" data-name="Trazado 204873" d="M1570.448,1238.464a.287.287,0,0,1-.287-.287l0-1.587a.287.287,0,0,1,.286-.288l4.776-.015a.321.321,0,0,1,.2.084.287.287,0,0,1,.085.2l0,1.587a.287.287,0,0,1-.287.288l-4.776.015Zm.284-1.588,0,1.012,4.2-.013,0-1.012Z" transform="translate(-1360.521 -1071.227)" fill="#b4daef"/>
          <path id="Trazado_204874" data-name="Trazado 204874" d="M2056.163,1236.985a.287.287,0,0,1-.288-.287l0-1.587a.287.287,0,0,1,.286-.288l4.776-.015h0a.288.288,0,0,1,.288.287l0,1.587a.288.288,0,0,1-.287.288l-4.776.015Zm.283-1.588,0,1.012,4.2-.013,0-1.012Z" transform="translate(-1781.387 -1069.945)" fill="#b4daef"/>
          <path id="Trazado_204875" data-name="Trazado 204875" d="M1948.734,1237.156a.288.288,0,0,1-.288-.287l0-1.587a.287.287,0,0,1,.286-.288l12.669-.039h0a.287.287,0,0,1,.287.287l0,1.587a.287.287,0,0,1-.287.288l-12.669.039Zm.283-1.588,0,1.012,12.094-.037,0-1.012Z" transform="translate(-1688.301 -1070.073)" fill="#b4daef"/>
          <path id="Trazado_204876" data-name="Trazado 204876" d="M1835.609,1237.5a.287.287,0,0,1-.288-.287l0-1.587a.288.288,0,0,1,.287-.288l12.669-.039h0a.288.288,0,0,1,.288.287l0,1.587a.287.287,0,0,1-.287.288l-12.668.039Zm.283-1.588,0,1.012,12.094-.037,0-1.012Z" transform="translate(-1590.279 -1070.372)" fill="#b4daef"/>
          <path id="Trazado_204877" data-name="Trazado 204877" d="M1756.559,1237.835a.288.288,0,0,1-.288-.287l0-1.587a.288.288,0,0,1,.286-.288l7.919-.024h0a.288.288,0,0,1,.288.286l0,1.587a.287.287,0,0,1-.287.288l-7.919.024Zm.284-1.588,0,1.012,7.345-.022,0-1.012Z" transform="translate(-1521.784 -1070.674)" fill="#b4daef"/>
          <path id="Trazado_204878" data-name="Trazado 204878" d="M1479.955,1212.654a.287.287,0,0,1-.288-.287l0-1.587a.288.288,0,0,1,.286-.288l1.313,0h0a.287.287,0,0,1,.287.286l.005,1.587a.288.288,0,0,1-.287.288l-1.313,0Zm.284-1.588,0,1.012.738,0,0-1.012Z" transform="translate(-1282.11 -1048.872)" fill="#b4daef"/>
          <path id="Trazado_204879" data-name="Trazado 204879" d="M1498.858,1212.511a.288.288,0,0,1-.287-.287l0-1.587a.287.287,0,0,1,.287-.288l5.678-.017h0a.287.287,0,0,1,.287.287l.005,1.587a.288.288,0,0,1-.287.288l-5.678.017Zm.284-1.588,0,1.012,5.1-.016,0-1.012Z" transform="translate(-1298.489 -1048.736)" fill="#b4daef"/>
          <path id="Trazado_204880" data-name="Trazado 204880" d="M1596.853,1212.173a.288.288,0,0,1-.287-.287l0-1.587a.287.287,0,0,1,.287-.288l7.64-.023h0a.288.288,0,0,1,.288.287l0,1.587a.287.287,0,0,1-.287.288l-7.64.023Zm.284-1.588,0,1.012,7.065-.021,0-1.012Z" transform="translate(-1383.401 -1048.439)" fill="#b4daef"/>
          <path id="Trazado_204881" data-name="Trazado 204881" d="M1549.8,1212.365a.287.287,0,0,1-.287-.287l0-1.587a.288.288,0,0,1,.287-.288l5.22-.016h0a.287.287,0,0,1,.287.287l0,1.587a.287.287,0,0,1-.287.288l-5.22.016Zm.284-1.588,0,1.012,4.645-.014,0-1.012Z" transform="translate(-1342.628 -1048.612)" fill="#b4daef"/>
          <path id="Trazado_204882" data-name="Trazado 204882" d="M1479.6,1096.665a.288.288,0,0,1-.287-.287l0-1.587a.287.287,0,0,1,.287-.288l1.313,0h0a.287.287,0,0,1,.288.286l0,1.587a.287.287,0,0,1-.286.288l-1.313,0Zm.284-1.588,0,1.012.738,0,0-1.012Z" transform="translate(-1281.804 -948.369)" fill="#b4daef"/>
          <path id="Trazado_204883" data-name="Trazado 204883" d="M1498.505,1096.483a.287.287,0,0,1-.287-.287l0-1.587a.287.287,0,0,1,.286-.288l7.64-.023h0a.287.287,0,0,1,.288.287l0,1.587a.288.288,0,0,1-.287.289l-7.64.023Zm.284-1.588,0,1.012,7.065-.021,0-1.012Z" transform="translate(-1298.183 -948.195)" fill="#b4daef"/>
          <path id="Trazado_204884" data-name="Trazado 204884" d="M1617.688,1096.119a.287.287,0,0,1-.287-.287l0-1.587a.287.287,0,0,1,.286-.288l7.64-.023h0a.288.288,0,0,1,.288.287l0,1.587a.287.287,0,0,1-.287.288l-7.64.023Zm.284-1.588,0,1.012,7.065-.021,0-1.012Z" transform="translate(-1401.454 -947.88)" fill="#b4daef"/>
          <path id="Trazado_204885" data-name="Trazado 204885" d="M1570.015,1096.322a.287.287,0,0,1-.287-.287l0-1.587a.287.287,0,0,1,.286-.288l4.776-.015h0a.288.288,0,0,1,.288.286l0,1.587a.287.287,0,0,1-.287.288l-4.776.015Zm.284-1.588,0,1.012,4.2-.013,0-1.012Z" transform="translate(-1360.146 -948.063)" fill="#b4daef"/>
        </g>
      </g>
    </g>
  </g>
</svg>
