<svg xmlns="http://www.w3.org/2000/svg" width="1328" height="931" viewBox="0 0 1328 931">
  <g id="Grupo_982953" data-name="Grupo 982953" transform="translate(-136 -5533)">
    <g id="Grupo_982952" data-name="Grupo 982952">
      <g id="Grupo_982951" data-name="Grupo 982951">
        <g id="Grupo_982950" data-name="Grupo 982950">
          <g id="Grupo_982949" data-name="Grupo 982949">
            <rect id="Rectángulo_338278" data-name="Rectángulo 338278" width="1328" height="931" transform="translate(136 5533)" fill="#ff9fa3"/>
            <g id="Grupo_982480" data-name="Grupo 982480" transform="translate(136 5533)">
              <path id="Trazado_178656" data-name="Trazado 178656" d="M1149.346,2375.269c53.343-52.185,97.071-119.908,154.4-164.82,78.745-61.688,174.922-74.218,267.442-79.556s187.438-5.564,274.053-47.065c69.222-33.166,133.021-100.014,159.037-185.2h-177.7c-39.6,77.974-99.4,139.789-169.109,168.661-139.17,57.637-301.014-8.056-432.128,74.458C1132.464,2200.2,1069.7,2325.563,970.26,2362.94c-71.947,27.041-151.118,1.474-215.532-47.262-28.139-21.291-53.977-46.642-78.448-74.2v182.942C824.046,2520.883,1016.976,2504.772,1149.346,2375.269Z" transform="translate(-676.28 -1898.632)" fill="#ffbfc1"/>
              <path id="Trazado_178657" data-name="Trazado 178657" d="M1046.174,2400.9c99.44-37.378,162.2-162.738,255.083-221.189,131.113-82.513,292.957-16.822,432.128-74.458,69.712-28.872,129.512-90.687,169.109-168.66H752.194v342.844c24.471,27.56,50.309,52.91,78.448,74.2C895.056,2402.375,974.227,2427.942,1046.174,2400.9Z" transform="translate(-752.193 -1936.592)" fill="#ffbfc1" opacity="0.614"/>
            </g>
          </g>
        </g>
      </g>
    </g>
    <g id="Grupo_982481" data-name="Grupo 982481" transform="translate(136 5876.142)">
      <path id="Trazado_178656-2" data-name="Trazado 178656" d="M1531.214,2009.713c-53.343,52.185-97.071,119.908-154.4,164.82-78.745,61.688-174.922,74.218-267.442,79.556s-187.438,5.564-274.053,47.065C766.094,2334.32,702.3,2401.168,676.28,2486.349h177.7c39.6-77.974,99.4-139.789,169.109-168.661,139.17-57.637,301.014,8.056,432.128-74.458,92.879-58.451,155.643-183.812,255.083-221.189,71.947-27.041,151.118-1.474,215.532,47.262,28.139,21.291,53.977,46.642,78.448,74.2V1960.563C1856.514,1864.1,1663.584,1880.209,1531.214,2009.713Z" transform="translate(-676.28 -1898.632)" fill="#ffbfc1"/>
      <path id="Trazado_178657-2" data-name="Trazado 178657" d="M1608.514,1947.58c-99.44,37.378-162.2,162.738-255.083,221.189-131.113,82.513-292.957,16.822-432.128,74.458-69.712,28.872-129.512,90.687-169.109,168.66h1150.3V2069.044c-24.471-27.56-50.309-52.91-78.448-74.2C1759.631,1946.106,1680.461,1920.54,1608.514,1947.58Z" transform="translate(-574.494 -1824.172)" fill="#ffbfc1" opacity="0.614"/>
    </g>
  </g>
</svg>
