<svg xmlns="http://www.w3.org/2000/svg" xmlns:xlink="http://www.w3.org/1999/xlink" width="505" height="242" viewBox="0 0 505 242">
  <defs>
    <clipPath id="clip-path">
      <rect id="Rectángulo_338243" data-name="Rectángulo 338243" width="505" height="242" rx="16" transform="translate(180 404)" fill="#c4d1ff"/>
    </clipPath>
    <clipPath id="clip-path-2">
      <rect id="Rectángulo_45319" data-name="Rectángulo 45319" width="505" height="242" rx="16" transform="translate(338 3178)" fill="#c4d1ff"/>
    </clipPath>
    <clipPath id="clip-path-3">
      <rect id="Rectángulo_37565" data-name="Rectángulo 37565" width="433.914" height="310.108" fill="none"/>
    </clipPath>
    <clipPath id="clip-path-5">
      <rect id="Rectángulo_37562" data-name="Rectángulo 37562" width="7.778" height="5.042" fill="none"/>
    </clipPath>
    <clipPath id="clip-path-6">
      <rect id="Rectángulo_37563" data-name="Rectángulo 37563" width="7.208" height="4.768" fill="none"/>
    </clipPath>
  </defs>
  <g id="Enmascarar_grupo_417" data-name="Enmascarar grupo 417" transform="translate(-180 -404)" clip-path="url(#clip-path)">
    <g id="Grupo_175095" data-name="Grupo 175095" transform="translate(-158 -2774)">
      <rect id="Rectángulo_45198" data-name="Rectángulo 45198" width="505" height="209" rx="16" transform="translate(338 3211)" fill="#c4d1ff"/>
      <g id="Enmascarar_grupo_303" data-name="Enmascarar grupo 303" clip-path="url(#clip-path-2)">
        <g id="Grupo_175096" data-name="Grupo 175096" transform="translate(54.338 52.505)">
          <circle id="Elipse_4876" data-name="Elipse 4876" cx="104.5" cy="104.5" r="104.5" transform="translate(258.662 3225.995)" fill="#6984dd"/>
          <circle id="Elipse_4878" data-name="Elipse 4878" cx="104.5" cy="104.5" r="104.5" transform="translate(656.662 3193.995)" fill="#6984dd"/>
          <circle id="Elipse_4877" data-name="Elipse 4877" cx="133.5" cy="133.5" r="133.5" transform="translate(428.662 3201.995)" fill="#6984dd"/>
        </g>
      </g>
      <g id="Grupo_175094" data-name="Grupo 175094" transform="translate(8591.231 7422)">
        <g id="Grupo_158028" data-name="Grupo 158028" transform="translate(-8218 -4244)">
          <g id="Grupo_158027" data-name="Grupo 158027" clip-path="url(#clip-path-3)">
            <g id="Grupo_158026" data-name="Grupo 158026">
              <g id="Grupo_158025" data-name="Grupo 158025" clip-path="url(#clip-path-3)">
                <path id="Trazado_131493" data-name="Trazado 131493" d="M178.247,214.212h89.9a4.069,4.069,0,0,0,1.006-1.5c8.253-23.608,1.348-48.539,1.348-48.539-37.661,13.077-70.039,11.729-99.229,2.221,0,0-1.887,32.045,2.916,44.286.508,1.3,1.932,2.474,4.061,3.536" transform="translate(96.89 95.896)" fill="#19251f"/>
                <path id="Trazado_131494" data-name="Trazado 131494" d="M210.222,167.07c.033.588.069,1.187.1,1.8.7,12.423,1.631,30.015,1.476,34.208a2.468,2.468,0,0,1-1.015,2.1,7.372,7.372,0,0,1-4.538.77,22.158,22.158,0,0,1-2.208-.277,25.074,25.074,0,0,1-3.132-.752,1.086,1.086,0,0,0-1.368.713,1.1,1.1,0,0,0,.707,1.383,27.563,27.563,0,0,0,3.983.925,21.32,21.32,0,0,0,2.208.231,14.893,14.893,0,0,0,2.078-.038,7.229,7.229,0,0,0,3.522-1.155,4.688,4.688,0,0,0,1.94-3.823c.161-4.326-.765-21.945-1.476-34.4-.036-.657-.072-1.294-.108-1.923Z" transform="translate(113.097 97.456)" fill="#5b413c"/>
                <path id="Trazado_131495" data-name="Trazado 131495" d="M241.365,189.226s8.261.436,10.682-3.42,2.86-13.79-9.535-14.088-1.147,17.508-1.147,17.508" transform="translate(134.186 100.304)" fill="#32251d"/>
                <path id="Trazado_131496" data-name="Trazado 131496" d="M204.753,86.086a63.816,63.816,0,0,1-24.64,5.744c-13.787.3-11.147,8.461-11.147,8.461s16.282,74.72,17.792,94.446-6.94,34.289-6.059,34.789,100.909-3.057,107.949,2.577.08,11.781-7.919,12.375c0,0,12.907,1.839,14.08-6.75s-8.767-15-14.934-29.943-22.614-88.672-22.614-88.672S248.168,78.782,239.954,77s-24.054,11.94-35.2,9.083" transform="translate(95.677 44.886)" fill="#cb4a00"/>
                <path id="Trazado_131497" data-name="Trazado 131497" d="M182.419,91.4a8.921,8.921,0,0,0,10.434,10.5c4.052-.714,7.987-3.056,11.576-4.979a123.516,123.516,0,0,0,11.857-7.266c.693-.478.038-1.627-.661-1.144a121.586,121.586,0,0,1-17.537,10.118c-3.186,1.492-7.2,3.217-10.588,1.312a7.822,7.822,0,0,1-3.819-8.187c.16-.833-1.1-1.19-1.263-.352" transform="translate(103.322 51.636)" fill="#861900"/>
                <path id="Trazado_131498" data-name="Trazado 131498" d="M176.617,169.873c19.9-12.633,44.308-.04,65.813-3.542.83-.136.478-1.413-.348-1.278-21.718,3.539-45.975-9.118-66.126,3.677-.713.451-.056,1.6.661,1.144" transform="translate(99.58 95.133)" fill="#861900"/>
                <path id="Trazado_131499" data-name="Trazado 131499" d="M220.789,109.389c11.3,26.24,7.548,56.354,19.344,82.459a59.842,59.842,0,0,0,11.758,17.467c.6.605,1.523-.331.928-.936-19.764-20.074-19.265-50.518-24.14-76.5a109.113,109.113,0,0,0-6.758-23.157c-.335-.779-1.465-.106-1.131.668" transform="translate(125.137 63.305)" fill="#861900"/>
                <path id="Trazado_131500" data-name="Trazado 131500" d="M186.006,36.768s-6.681,7.008-7.748,12.874a24.143,24.143,0,0,0,1.1,11.518s13.339-15.867,6.65-24.392" transform="translate(100.892 21.477)" fill="#32251d"/>
                <path id="Trazado_131501" data-name="Trazado 131501" d="M184.335,48.223s-6.893-4.507-6.341-14.465,19.588.295,19.588.295-2.629-8.537,7.448-8.263,28.495,10.9,30.649,16.153c0,0,5.748-.059,7.993,1.793s-4.767,3.876-4.767,3.876,5.473.936,5.929,4.047-5.215.531-5.215.531,3.92,5.7,1.984,14.718-7.974,18.61-7.974,18.61,3.8,6.647-3.414,9.277-12.687-3.4-12.687-3.4,5.773-34.892-1.836-41.417-31.356-1.758-31.356-1.758" transform="translate(100.892 15.061)" fill="#32251d"/>
                <path id="Trazado_131502" data-name="Trazado 131502" d="M218.458,93.561c-36.539,30.249-32.75,7.118-32.75,7.118a53.564,53.564,0,0,0,1.778-13.017c.219-5.369.056-10.7-.1-13.95-.092-1.948-.18-3.145-.18-3.145L214.625,61.7l1.029,8.576.111.9Z" transform="translate(105.219 36.038)" fill="#ff8763"/>
                <path id="Trazado_131503" data-name="Trazado 131503" d="M210.916,65.949a12.471,12.471,0,0,1,1.393,2.595c.807,3.042-11.268,13.625-21.063,16.459a19.185,19.185,0,0,1-4.409.775c.219-5.37.058-10.7-.1-13.951l23.422-6.9Z" transform="translate(105.868 37.923)" fill="#32251d"/>
                <path id="Trazado_131504" data-name="Trazado 131504" d="M227.638,82.953c-4.665,6.4-18.662,14.121-28.607,15.178s-16.559.941-20.857-10.416a30.235,30.235,0,0,1-1-14.488c.306-1.491.638-3.005,1-4.526,1.36-5.792,3.026-11.678,4.486-16.516,6.559-21.7,33.618-29.18,49.734-13.384a28.008,28.008,0,0,1,3.761,4.529c10.014,15.132-3.852,33.229-8.516,39.624" transform="translate(100.184 17.738)" fill="#ff8763"/>
                <path id="Trazado_131505" data-name="Trazado 131505" d="M186.808,52.715l-2.064,2.134a9.455,9.455,0,0,0-1.736,1.895c-.787,1.519,1.843,2.807,2.756,3.517.649.5,1.283-.613.641-1.11-.516-.4-1.1-.775-1.576-1.225a1.529,1.529,0,0,1-.58-.724c.111-.117.224-.233.337-.35a4.329,4.329,0,0,1,.7-.722q1.213-1.252,2.422-2.5c.572-.592-.326-1.5-.9-.909" transform="translate(103.67 30.68)" fill="#32251d"/>
                <path id="Trazado_131506" data-name="Trazado 131506" d="M192.654,54.868c-.37,1.076-1.316,1.72-2.114,1.442a1.87,1.87,0,0,1-.777-2.455c.37-1.077,1.316-1.722,2.114-1.442a1.87,1.87,0,0,1,.777,2.455" transform="translate(107.498 30.577)" fill="#32251d"/>
                <path id="Trazado_131507" data-name="Trazado 131507" d="M184.255,52.373c-.37,1.076-1.316,1.72-2.114,1.442a1.87,1.87,0,0,1-.777-2.455c.37-1.076,1.316-1.722,2.115-1.442a1.871,1.871,0,0,1,.776,2.455" transform="translate(102.736 29.12)" fill="#32251d"/>
                <path id="Trazado_131508" data-name="Trazado 131508" d="M180.207,59.118s4.846,2.723,14.848,3.507c0,0-3.706,8.355-10.611,5.885-5.857-2.094-4.237-9.392-4.237-9.392" transform="translate(102.048 34.533)" fill="#fff"/>
                <path id="Trazado_131509" data-name="Trazado 131509" d="M181,67.563a4.729,4.729,0,0,0,4.978.84c.881-.423.19-1.782-.689-1.361-1.239.6-2.437,0-3.46-.756-.787-.581-1.611.7-.829,1.277" transform="translate(102.437 38.633)" fill="#ca582f"/>
                <path id="Trazado_131510" data-name="Trazado 131510" d="M198.913,60.885c-.387,1.217-2.571,1.594-4.881.843s-3.866-2.346-3.479-3.563,2.573-1.592,4.881-.841,3.866,2.345,3.479,3.561" transform="translate(107.997 33.259)" fill="#ca582f"/>
                <path id="Trazado_131511" data-name="Trazado 131511" d="M182.115,57.139c-.384,1.217-2.568,1.59-4.879.841.306-1.489.638-3,1-4.526.138.04.271.078.4.12,2.311.756,3.867,2.348,3.479,3.564" transform="translate(100.48 31.224)" fill="#ca582f"/>
                <path id="Trazado_131512" data-name="Trazado 131512" d="M192.58,50.631c1.833-.1,3.919.892,4.04,2.973.113,1.942,3.135,2.1,3.021.128a6.512,6.512,0,0,0-6.932-6.156c-1.924.1-2.076,3.16-.128,3.054" transform="translate(108.391 27.785)" fill="#32251d"/>
                <path id="Trazado_131513" data-name="Trazado 131513" d="M181.863,48.822c1.529-.732,3.555-1.877,5.091-.6,1.377,1.145,3.2-.965,1.822-2.112-2.446-2.036-5.249-1.169-7.83.067-1.6.765-.7,3.417.917,2.644" transform="translate(102.108 26.224)" fill="#32251d"/>
                <path id="Trazado_131514" data-name="Trazado 131514" d="M182.689,45.324a10.026,10.026,0,0,0,12.322,4.722c8.662-2.726,9.3-1.128,15,1.416s-3.4,1.522,2.6,7.686-1.863,2.237-3.471,8.518,2.233,5.156,7.618,5.755,6.335,7.265,3.09,13.242-1.377,2.454-1.377,2.454a34.443,34.443,0,0,0,18.452-23.124c2.33-10,2.053-22.083-8.577-30.122-21.047-15.917-43.291.459-45.657,9.452" transform="translate(103.571 17.053)" fill="#32251d"/>
                <path id="Trazado_131515" data-name="Trazado 131515" d="M201.785,64.789a10.375,10.375,0,0,1,2.828-8.532c2.788-2.956,7.748-7.38,11.509-6.127,5.527,1.841,5.279,7.064,3.784,12.152s-6.1,11.265-12.976,8.863a7.45,7.45,0,0,1-5.146-6.356" transform="translate(114.342 29.155)" fill="#ff8763"/>
                <path id="Trazado_131516" data-name="Trazado 131516" d="M207.1,63.542a13.262,13.262,0,0,1,1.379-6.348c.987-1.717,3.425-4.044,5.624-2.9.736.382,1.453-.713.71-1.1-2.117-1.1-4.453-.109-6.058,1.5-2.314,2.321-2.864,5.636-2.952,8.8a.649.649,0,0,0,1.3.054" transform="translate(116.677 30.8)" fill="#32251d"/>
                <path id="Trazado_131517" data-name="Trazado 131517" d="M227.559,86.936s3.631,17.905,9.35,18.349,6.931-11.787,5.94-18.349Z" transform="translate(129.01 50.782)" fill="#32251d"/>
                <path id="Trazado_131518" data-name="Trazado 131518" d="M220.676,107.886s24.768-13.342,33.935-24.1L280.34,20.968l10.56,1.483s-5.279,65.922-23.173,87.029c-12.634,14.9-39.695,25.085-39.695,25.085Z" transform="translate(125.107 12.248)" fill="#ff8763"/>
                <path id="Trazado_131519" data-name="Trazado 131519" d="M242.432,61.868a39.43,39.43,0,0,1,6.641,5.16c.458.442,1.153-.26.7-.7a40.655,40.655,0,0,0-6.84-5.315c-.542-.336-1.036.523-.5.857" transform="translate(137.31 35.594)" fill="#ca582f"/>
                <path id="Trazado_131520" data-name="Trazado 131520" d="M287.467,24.659c.364,4.325-3.349,5.042-8.624,9.267-3.466,2.774-8.074,9.429-12.4,6.981a36.309,36.309,0,0,1-7.09-5.2,10.671,10.671,0,0,1-2.321-9.4s1.65-8.006,3.609-9.167,4.737,1.125,4.737,1.125c1.885-.778,10.492-17.49,13.2-18.222,0,0,3.09-.691,1.918,3.444s-5.777,12.006-5.777,12.006,9.53-12.58,12.449-12.486c.837.027,1.413.855,1.15,2.105-.381,1.807-2.242,3.6-3.344,5.077a88.712,88.712,0,0,0-5.337,7.9s2.469-.784,4.218.325.237,3.525.237,3.525,3.156.055,3.38,2.725" transform="translate(145.536 0)" fill="#ff8763"/>
                <path id="Trazado_131521" data-name="Trazado 131521" d="M258.244,23.08a13.577,13.577,0,0,0,6.949,5.448c.6.209.856-.751.262-.958a12.491,12.491,0,0,1-6.363-4.99c-.346-.532-1.2-.035-.848.5" transform="translate(146.359 13.056)" fill="#ca582f"/>
                <path id="Trazado_131522" data-name="Trazado 131522" d="M266.052,20.952a6.594,6.594,0,0,0,.871.152,2.606,2.606,0,0,0,1.985-.474,2.029,2.029,0,0,0,.685-1.464,4.585,4.585,0,0,0-.384-2.088,6.279,6.279,0,0,0-.42-.873,16.029,16.029,0,0,0-3.742-4.2.413.413,0,0,0-.575.079.418.418,0,0,0,.078.583,15.424,15.424,0,0,1,3.521,3.946,5.392,5.392,0,0,1,.373.77,3.812,3.812,0,0,1,.329,1.72,1.232,1.232,0,0,1-.392.887,1.827,1.827,0,0,1-1.376.285,5.77,5.77,0,0,1-.76-.133c-2.252-.588-5.014-2.63-7.028-5.2a.408.408,0,0,0-.578-.068.417.417,0,0,0-.066.583c2.15,2.744,5.014,4.846,7.476,5.489h0" transform="translate(146.542 6.965)" fill="#ca582f"/>
                <path id="Trazado_131523" data-name="Trazado 131523" d="M272.176,25.4c1.551.369,3.632-.719,3.911-.871a.418.418,0,0,0,.169-.562.411.411,0,0,0-.558-.17c-.787.426-3.021,1.347-3.9.5-1.247-1.2,1.415-4.692,2.448-5.82a.42.42,0,0,0,.008-.554.406.406,0,0,0-.544-.07c-1,.7-3.877,2.3-5.089,1.25a.832.832,0,0,1-.293-.675c0-1.781,3.369-5.106,4.669-6.237a.419.419,0,0,0,.042-.586.408.408,0,0,0-.58-.043c-.508.442-4.959,4.385-4.955,6.867a1.674,1.674,0,0,0,.581,1.305c1.1.95,2.858.475,4.2-.136-1.155,1.628-2.4,4-1.058,5.3a2.008,2.008,0,0,0,.943.5" transform="translate(151.657 6.695)" fill="#ca582f"/>
                <path id="Trazado_131524" data-name="Trazado 131524" d="M270.226,12.693a.4.4,0,0,0,.279-.033.417.417,0,0,0,.182-.558,7.093,7.093,0,0,0-3.839-3.124.406.406,0,0,0-.528.246.416.416,0,0,0,.244.534,6.4,6.4,0,0,1,3.389,2.718.407.407,0,0,0,.273.217" transform="translate(150.969 5.228)" fill="#ca582f"/>
                <path id="Trazado_131525" data-name="Trazado 131525" d="M269.009,11.926a19.494,19.494,0,0,0-4.176,4.524,5.8,5.8,0,0,1,.4.829,19.62,19.62,0,0,1,4.259-4.659.44.44,0,0,0,.1-.589.43.43,0,0,0-.584-.1" transform="translate(150.141 6.925)" fill="#ca582f"/>
                <path id="Trazado_131526" data-name="Trazado 131526" d="M262.258,25.935a.41.41,0,0,0,.313.4l.1.022a.425.425,0,0,0,.4-.417,21.3,21.3,0,0,1,1.755-8.429,6.448,6.448,0,0,1-.812-.143,22.322,22.322,0,0,0-1.753,8.567" transform="translate(148.681 10.145)" fill="#ca582f"/>
                <path id="Trazado_131527" data-name="Trazado 131527" d="M208.464,81.786l28.482-10.031S239.083,108.147,247,112.6s7.261-15.317,7.261-15.317,2.665,12.413-4.278,17.758-15.3,12.239-15.3,12.239-31.757,9.332-26.219-45.49" transform="translate(117.816 41.914)" fill="#cb4a00"/>
                <path id="Trazado_131528" data-name="Trazado 131528" d="M232.812,106.024a86.121,86.121,0,0,1-20.249,9.38c-.809.255-.464,1.543.351,1.288a87.541,87.541,0,0,0,20.564-9.516c.719-.453.058-1.608-.666-1.152" transform="translate(120.247 61.87)" fill="#861900"/>
                <path id="Trazado_131529" data-name="Trazado 131529" d="M116.951,66.491s-15.492-5.11-25.251,1.861S78.185,94.12,78.185,94.12L108.5,93.53Z" transform="translate(44.325 37.784)" fill="#5b413c"/>
                <path id="Trazado_131530" data-name="Trazado 131530" d="M100.585,99.178S75.532,80.072,69.1,103.02c-6.932,24.724,6.511,39.572,6.511,39.572l16.528-16.374Z" transform="translate(38.049 53.576)" fill="#5b413c"/>
                <path id="Trazado_131531" data-name="Trazado 131531" d="M150.214,65.054s-36.42-19.722-65.454,28.2-11.5,105.459,14.1,119.979,54.921-3.77,54.921-3.77Z" transform="translate(39.519 35.652)" fill="#36251f"/>
                <path id="Trazado_131532" data-name="Trazado 131532" d="M136.557,214.465c-.249-3.81-.453-7.384-.614-10.611l54.5-40.118s3.073,23.051,5.185,50.729Z" transform="translate(77.07 95.643)" fill="#36251f"/>
                <path id="Trazado_131533" data-name="Trazado 131533" d="M102.442,209.107c.437-20.519,1.114-36.2,1.114-36.2l60.089,25.523c-.132,3.368-.3,6.951-.52,10.676Z" transform="translate(58.077 101.001)" fill="#36251f"/>
                <path id="Trazado_131534" data-name="Trazado 131534" d="M150.114,93.643c.027.086.049.168.075.25l.064.209,1.321,4.2,1.316,4.252,2.584,8.535q2.56,8.545,4.981,17.107.921,3.279,1.824,6.557,1.022,3.738,2.012,7.471.4,1.537.8,3.076c1.47,5.689,2.861,11.371,4.074,16.966.6,2.786,1.17,5.573,1.631,8.255.13.681.221,1.328.332,1.991l.155.977.124.9.127.9c.039.3.066.615.1.92.061.615.143,1.22.182,1.853a100.273,100.273,0,0,1-.042,15.711,155.356,155.356,0,0,1-2.133,16.38c-.5,2.741-1.064,5.481-1.681,8.2-.315,1.358-.636,2.712-.978,4.046l-.52,1.979-.5,1.771-.146.529a14.235,14.235,0,0,0,9.716,17.541,14.059,14.059,0,0,0,17.2-9.34l.425-1.342.371-1.209.7-2.373c.448-1.571.868-3.135,1.274-4.7q1.215-4.7,2.217-9.446a186.247,186.247,0,0,0,3.065-19.374c.335-3.3.577-6.645.689-10.043s.1-6.843-.1-10.363c-.036-.874-.118-1.765-.185-2.649-.036-.447-.066-.887-.111-1.334l-.146-1.345-.15-1.343c-.052-.437-.113-.835-.172-1.256-.116-.825-.224-1.673-.357-2.474-.49-3.266-1.069-6.4-1.67-9.511-1.21-6.213-2.559-12.263-3.975-18.268q-.508-2.143-1.025-4.276c-.335-1.37-.669-2.741-1.014-4.108q-1.18-4.757-2.41-9.486-2.306-8.877-4.746-17.688l-2.466-8.808-1.261-4.4L180.4,84.625a15.76,15.76,0,0,0-19.605-10.8,15.984,15.984,0,0,0-10.683,19.817" transform="translate(84.737 42.741)" fill="#ff9568"/>
                <path id="Trazado_131535" data-name="Trazado 131535" d="M157.643,114q1.025,3.738,2.012,7.471l29.3-8.657c-.335-1.37-.671-2.741-1.015-4.108Z" transform="translate(89.372 63.496)" fill="#e0693e"/>
                <path id="Trazado_131536" data-name="Trazado 131536" d="M149.542,96.126l10.137,43.264,37.627-8.483S188.866,85.3,177.52,76.74c-6.282-4.74-11.855-5.769-18.366-2.351a19.492,19.492,0,0,0-9.612,21.737" transform="translate(84.48 42.276)" fill="#236676"/>
                <path id="Trazado_131537" data-name="Trazado 131537" d="M193.687,216.567H108.935c-9.425-23.07-5.287-47.7-5.287-47.7,41.1,9.575,75.065,4.542,104.78-8.732,0,0,5.484,33.55,1.761,46.982-.935,3.377-7.344,6.645-16.5,9.449" transform="translate(58.248 93.54)" fill="#36251f"/>
                <path id="Trazado_131538" data-name="Trazado 131538" d="M139.215,213.428q-.031-2.512-.069-5.031c-.013-.787-.025-1.575-.042-2.364-.27-14.629-.794-29-1.222-39.155-.02-.464-.039-.919-.058-1.367h2.31q.023.558.047,1.133c.422,10.064.946,24.312,1.219,38.852.019.8.031,1.609.049,2.411q.045,2.764.075,5.521Z" transform="translate(78.136 96.68)" fill="#5b413c"/>
                <path id="Trazado_131539" data-name="Trazado 131539" d="M134.1,165.511c.028.623.058,1.258.086,1.912.616,13.167,1.558,31.8,2.18,36.2a2.606,2.606,0,0,0,1.3,2.1c1.192.668,3.027.63,4.865.3a22.932,22.932,0,0,0,2.3-.537,26.869,26.869,0,0,0,3.217-1.142,1.148,1.148,0,0,1,1.518.6,1.17,1.17,0,0,1-.592,1.535,29.233,29.233,0,0,1-4.1,1.419,22.786,22.786,0,0,1-2.3.489,15.768,15.768,0,0,1-2.194.192,7.666,7.666,0,0,1-3.837-.822,4.956,4.956,0,0,1-2.46-3.813c-.641-4.539-1.589-23.2-2.2-36.4-.034-.7-.066-1.372-.1-2.039Z" transform="translate(74.713 96.68)" fill="#5b413c"/>
                <path id="Trazado_131540" data-name="Trazado 131540" d="M100.434,145.227c.235,2,.436,4.474.62,7.328q.094,1.471.188,3.062c.517,8.884.965,20.568,1.8,32.689.074,1.085.155,2.181.241,3.273,1.934,26.091-5.686,35.177,5.229,37.686,66.3,15.25,93.376-.041,101.444-6.425,8.911-7.049,2.9-35.294-.379-68.6-.108-1.126-.212-2.234-.321-3.319-.877-9.063-1.532-16.5-1.55-20.847-.069-20.2-2.686-41.739-5.675-50.969s-36.3-16.557-36.3-16.557L128.8,64.134s-11.623,6.907-24.84,20.814-6.006,39.068-3.527,60.279" transform="translate(54.558 36.538)" fill="#236676"/>
                <path id="Trazado_131541" data-name="Trazado 131541" d="M152.27,96.269l15.6,27.751-14.315,1.014,12.131,20.2L129.2,116.926l18-3-17.351-15.9Z" transform="translate(73.244 56.234)" fill="#104151"/>
                <path id="Trazado_131542" data-name="Trazado 131542" d="M145.807,64.115s6.449,41.377,10.315,59.359a121.73,121.73,0,0,0,17.279,41.17,127.541,127.541,0,0,0,10.874,13.744c.943.1,3.5-10.938-2.949-26.182-11.882-28.09-21.075-78.362-24.784-84.691s-10.735-3.4-10.735-3.4" transform="translate(82.662 37.057)" fill="#36251f"/>
                <path id="Trazado_131543" data-name="Trazado 131543" d="M163.336,85.527a35.184,35.184,0,0,0-11.895-.195,3.68,3.68,0,0,0-2.943,4.184c.758,5.026,2.369,14.72,4.32,20.793a3.64,3.64,0,0,0,4.121,2.481l9.948-1.836a3.684,3.684,0,0,0,2.841-4.67c-1.268-4.317-3.1-11.428-3.378-17.324a3.659,3.659,0,0,0-3.015-3.433" transform="translate(84.165 49.596)" fill="#5b413c"/>
                <path id="Trazado_131544" data-name="Trazado 131544" d="M124.813,87.707a46.361,46.361,0,0,0,25.293-7.577,48.582,48.582,0,0,0,12.438-11.349,1.116,1.116,0,0,0-.252-1.546,1.088,1.088,0,0,0-1.529.253c-.163.231-16.754,23.03-45.612,16.977a1.1,1.1,0,0,0-1.3.86,1.107,1.107,0,0,0,.849,1.31,49.171,49.171,0,0,0,10.108,1.071" transform="translate(64.535 39.152)" fill="#104151"/>
                <path id="Trazado_131545" data-name="Trazado 131545" d="M108.965,73a54.109,54.109,0,0,1,21.882,34.5c4.312,23.532-11.785,55.926-30.16,65.147a24.1,24.1,0,0,0,.807,17.132s39.665-12.212,43.294-63.093-24.632-59.015-24.632-59.015c-3.569-1.041-9.149,2.352-11.191,5.327" transform="translate(56.414 39.418)" fill="#36251f"/>
                <path id="Trazado_131546" data-name="Trazado 131546" d="M120.406,89.116a33.269,33.269,0,0,1,10.856-2.9,3.45,3.45,0,0,1,3.634,3.159c.431,4.779,1.128,14.031.7,20.042a3.456,3.456,0,0,1-3.218,3.217l-9.529.6A3.459,3.459,0,0,1,119.2,109.6c.194-4.245.276-11.181-.787-16.648a3.475,3.475,0,0,1,1.993-3.837" transform="translate(67.095 50.356)" fill="#5b413c"/>
                <path id="Trazado_131547" data-name="Trazado 131547" d="M169.588,128.692h.034a.766.766,0,0,0,.725-.8c-.012-.271-1.221-27.317-4.334-43.318a.76.76,0,1,0-1.49.3c3.092,15.889,4.293,42.819,4.306,43.088a.763.763,0,0,0,.758.735" transform="translate(93.265 49.039)" fill="#104151"/>
                <path id="Trazado_131548" data-name="Trazado 131548" d="M166.364,93.67a.76.76,0,0,0,.722-.529L169,87.251a.771.771,0,0,0-.486-.969.757.757,0,0,0-.959.491l-1.913,5.89a.764.764,0,0,0,.722,1.008" transform="translate(93.885 50.377)" fill="#104151"/>
                <path id="Trazado_131549" data-name="Trazado 131549" d="M126.272,179.558c14.4.912,29.37-4.741,43.9-16.7a124.292,124.292,0,0,0,22.6-24.727,1.068,1.068,0,0,0-.3-1.472,1.044,1.044,0,0,0-1.457.3,122.249,122.249,0,0,1-22.214,24.28c-12.434,10.218-31.774,20.964-53.312,14.138a1.053,1.053,0,0,0-1.318.7,1.066,1.066,0,0,0,.689,1.334,47.664,47.664,0,0,0,11.4,2.145" transform="translate(64.703 79.726)" fill="#104151"/>
                <path id="Trazado_131550" data-name="Trazado 131550" d="M131,164.474a1.04,1.04,0,0,0,.232-.011c17.623-2.842,32.7-24.44,33.329-25.359a1.07,1.07,0,0,0-.262-1.48,1.044,1.044,0,0,0-1.463.265c-.15.217-15.2,21.775-31.934,24.475a1.064,1.064,0,0,0,.1,2.11" transform="translate(73.709 80.279)" fill="#104151"/>
                <path id="Trazado_131551" data-name="Trazado 131551" d="M167.8,40.115s-1.974-10.162.6-18.595c2.535-8.3,2.535-13.258.954-14.728-4.977-4.637-9.657,6.641-9.657,6.641S161.008,2.951,156.7,2.656s-7.318,9.863-7.318,9.863.8-14.878-4.836-11.632-7.716,13.172-7.716,13.172-19.361,3.26-26.483,16.391c0,0-5.827-6.276-9.621-2.574s4.087,9.828,4.087,9.828S98.762,41.73,99.7,47.514s8.126,1.82,8.126,1.82-1.211,30.949,24.792,39.454S167.8,40.115,167.8,40.115" transform="translate(56.466 0.247)" fill="#d65900"/>
                <path id="Trazado_131552" data-name="Trazado 131552" d="M152.053,64.467l1.247,9.369a27.657,27.657,0,0,1-2.766,2.741c-13.78,11.819-31.657,1.939-31.657,1.939l-4.322-32.479L147.581,62.27Z" transform="translate(64.945 26.891)" fill="#ff9568"/>
                <path id="Trazado_131553" data-name="Trazado 131553" d="M148.026,59.474l1.247,9.369a27.661,27.661,0,0,1-2.766,2.741c-13.568-3.737-24.848-17-24.848-17l21.895,2.691Z" transform="translate(68.972 31.885)" fill="#36251f"/>
                <path id="Trazado_131554" data-name="Trazado 131554" d="M141.986,36s4.148-6.561,7.72-1.049,3.013,17.726-4.752,16.8Z" transform="translate(80.496 19.126)" fill="#e0693e"/>
                <path id="Trazado_131555" data-name="Trazado 131555" d="M167.128,62.505s2.02,18.352-16.661,20.85a48.937,48.937,0,0,1-32.84-7.3l-.022-.014-.71-3.788-3.69-19.657-1.973-10.506s-4.906-18.734,12.545-24.646c12.75-4.32,25.315-3.791,32.428,2.27.23.195.454.4.667.607a16.469,16.469,0,0,1,4.705,8.4l3.109,18.93.762,4.64Z" transform="translate(62.701 8.537)" fill="#ff9568"/>
                <path id="Trazado_131556" data-name="Trazado 131556" d="M129.082,42.262s2.692,7.878,9.173,8.955c7.376,1.226,8.721-8.1,8.721-8.1Z" transform="translate(73.18 24.686)" fill="#f4ece1"/>
                <path id="Trazado_131557" data-name="Trazado 131557" d="M138.439,50.348a3.886,3.886,0,0,0,.431-.158.61.61,0,0,0,.3-.8.6.6,0,0,0-.793-.3,3.807,3.807,0,0,1-3.786-.485.6.6,0,0,0-.843.1.61.61,0,0,0,.094.852,4.906,4.906,0,0,0,4.6.8" transform="translate(75.751 28.311)" fill="#e0693e"/>
                <path id="Trazado_131558" data-name="Trazado 131558" d="M130.346,35.47c.241,1.815-.378,3.4-1.382,3.534s-2.013-1.225-2.256-3.04.378-3.4,1.382-3.534,2.015,1.225,2.256,3.04" transform="translate(71.805 18.938)" fill="#36251f"/>
                <path id="Trazado_131559" data-name="Trazado 131559" d="M141.682,33.945c.241,1.815-.378,3.4-1.382,3.534s-2.014-1.225-2.256-3.04.378-3.4,1.382-3.533,2.015,1.223,2.256,3.038" transform="translate(78.231 18.048)" fill="#36251f"/>
                <path id="Trazado_131560" data-name="Trazado 131560" d="M136.665,45.725a6.388,6.388,0,0,0,5.487-4.027.762.762,0,0,0-.091-.64c-3.834-5.845-7.73-11.859-7.767-11.919a.742.742,0,0,0-1.033-.217.757.757,0,0,0-.215,1.042c.038.06,3.789,5.849,7.553,11.589a5.114,5.114,0,0,1-4.134,2.677.754.754,0,0,0,.2,1.494" transform="translate(75.359 16.823)" fill="#36251f"/>
                <path id="Trazado_131561" data-name="Trazado 131561" d="M132.1,24.711a4.406,4.406,0,0,0-3.67,4.146c-.041,1.475-.719,3.312-2.971,5.228-5.254,4.469-3.551,9.4-1.678,13.426s-5.417,12.93-11.9,3.17-4.716-32.422,10.462-35.554,36.1-.857,38.722,5.918a35.674,35.674,0,0,1,2.375,12.917,8.359,8.359,0,0,1-3.151-6.227c-.389-4.428-3.635-5.752-8.792-5.752-3.518,0-13.443,1.668-19.4,2.729" transform="translate(61.415 8.027)" fill="#d65900"/>
                <g id="Grupo_158021" data-name="Grupo 158021" transform="translate(220.373 56.184)" opacity="0.8">
                  <g id="Grupo_158020" data-name="Grupo 158020">
                    <g id="Grupo_158019" data-name="Grupo 158019" clip-path="url(#clip-path-5)">
                      <path id="Trazado_131562" data-name="Trazado 131562" d="M148.418,40.107c-.458.109-.942.2-1.44.268-3.317.451-6.153-.255-6.329-1.576s2.374-2.761,5.693-3.213q.674-.09,1.315-.119Z" transform="translate(-140.64 -35.467)" fill="#e0693e"/>
                    </g>
                  </g>
                </g>
                <path id="Trazado_131563" data-name="Trazado 131563" d="M134.126,39.663c.176,1.321-2.374,2.76-5.7,3.211s-6.155-.253-6.332-1.575,2.374-2.76,5.7-3.211,6.156.253,6.332,1.575" transform="translate(69.216 22.169)" fill="#e0693e"/>
                <path id="Trazado_131564" data-name="Trazado 131564" d="M121.949,31.551h0a4.234,4.234,0,0,0,5.8,1.418,23.729,23.729,0,0,1,4.043-1.979,3.972,3.972,0,0,0,2.288-5.266s-8.8.377-12.134,5.826" transform="translate(69.136 15.027)" fill="#d65900"/>
                <path id="Trazado_131565" data-name="Trazado 131565" d="M148.3,27.547h0a4.254,4.254,0,0,1-5.229,2.918,23.531,23.531,0,0,0-4.414-.828,3.947,3.947,0,0,1-3.582-4.467s8.587-1.988,13.225,2.378" transform="translate(76.558 14.438)" fill="#d65900"/>
                <path id="Trazado_131566" data-name="Trazado 131566" d="M120.215,48.249c-.058.212-1.684,6.075-4.867,8.16l-.02-.016-.71-3.788a13.006,13.006,0,0,0,5.6-4.356" transform="translate(64.98 28.184)" fill="#36251f"/>
                <path id="Trazado_131567" data-name="Trazado 131567" d="M119.874,42.055s-8.476-8.773-12.716-.4c-3.494,6.9,6.888,22.238,14.717,15.436Z" transform="translate(60.356 22.218)" fill="#ff9568"/>
                <path id="Trazado_131568" data-name="Trazado 131568" d="M119,52.4c.027,0,.053-.009.081-.014a.756.756,0,0,0,.544-.914,14.012,14.012,0,0,0-9.593-10.18.745.745,0,0,0-.9.548.756.756,0,0,0,.541.914,12.5,12.5,0,0,1,8.51,9.08A.745.745,0,0,0,119,52.4" transform="translate(61.856 24.108)" fill="#36251f"/>
                <path id="Trazado_131569" data-name="Trazado 131569" d="M110.945,47.419a.735.735,0,0,0,.443-.23c.572-.615,2.347-2.172,3.665-2.015a.754.754,0,0,0,.174-1.5c-2.294-.272-4.663,2.2-4.925,2.479a.758.758,0,0,0,.033,1.065.734.734,0,0,0,.61.2" transform="translate(62.419 25.501)" fill="#36251f"/>
                <path id="Trazado_131570" data-name="Trazado 131570" d="M83.456,175.205l.016.707c.014.947.063,1.88.118,2.81.118,1.86.315,3.685.569,5.478a84.7,84.7,0,0,0,5.53,19.966,113.321,113.321,0,0,0,8.921,17.265c1.675,2.7,3.479,5.3,5.342,7.848q1.415,1.9,2.907,3.765c.5.626,1.014,1.24,1.537,1.865l.807.943.929,1.065a11.77,11.77,0,0,0,16.658,1.983,12.077,12.077,0,0,0,1.96-16.841c.016.006-.017-.046-.045-.1l-.1-.17-.218-.375-.451-.792-.92-1.657c-.617-1.114-1.219-2.254-1.805-3.4-1.189-2.291-2.281-4.634-3.322-6.973a100.773,100.773,0,0,1-5.071-14.1,66.051,66.051,0,0,1-1.529-6.9q-.268-1.7-.458-3.349c-.118-1.1-.2-2.181-.233-3.24s-.045-2.1,0-3.113c.025-.507.052-1.006.1-1.5l.136-1.743c.2-2.459.478-5.019.838-7.64s.765-5.272,1.213-7.954c.432-2.676.917-5.38,1.421-8.085q.785-4.132,1.622-8.288.508-2.535,1.044-5.079c.205-.985.414-1.975.627-2.964l1.789-8.2,1.858-8.207,1.9-8.2,1.918-8.082.061-.257a17.527,17.527,0,0,0-12.8-21.123A17.321,17.321,0,0,0,95.429,93.516l0,.017L94.392,97.9c-.334,1.437-.647,2.869-.965,4.3-.633,2.866-1.225,5.735-1.81,8.608s-1.145,5.75-1.681,8.64-1.073,5.777-1.554,8.686q-.277,1.632-.545,3.274-.562,3.426-1.08,6.878-.552,3.7-1.037,7.425c-.381,2.964-.747,5.939-1.062,8.952s-.577,6.055-.787,9.15-.356,6.254-.4,9.529l-.013,1.236Z" transform="translate(47.314 46.777)" fill="#ff9568"/>
                <path id="Trazado_131571" data-name="Trazado 131571" d="M85.562,119.364l33.172,4.385q.508-2.535,1.044-5.079l-33.136-6.184q-.562,3.426-1.08,6.878" transform="translate(48.507 65.706)" fill="#e0693e"/>
                <path id="Trazado_131572" data-name="Trazado 131572" d="M131.594,100.317,121.136,143.5l-37.561-8.768s8.776-45.542,20.187-54.017c6.315-4.691,11.9-5.677,18.382-2.21a19.491,19.491,0,0,1,9.45,21.81" transform="translate(47.381 44.648)" fill="#236676"/>
                <path id="Trazado_131573" data-name="Trazado 131573" d="M107.545,130.135a.759.759,0,0,0,.738-.591l7.7-32.79a.768.768,0,0,0-.563-.925.755.755,0,0,0-.915.569l-7.7,32.791a.769.769,0,0,0,.564.925.737.737,0,0,0,.176.021" transform="translate(60.539 55.964)" fill="#104151"/>
                <path id="Trazado_131574" data-name="Trazado 131574" d="M111.26,103.6a.748.748,0,0,0,.429-.135l4.709-3.26a.774.774,0,0,0,.2-1.068.757.757,0,0,0-1.056-.2l-4.709,3.26a.772.772,0,0,0-.2,1.068.755.755,0,0,0,.627.334" transform="translate(62.645 57.716)" fill="#104151"/>
                <path id="Trazado_131575" data-name="Trazado 131575" d="M109.057,209.482c6.255-5.359,12.716-10.7,18.427-16.706-.023-.049-.038-.076-.038-.076l.07.041a84.285,84.285,0,0,0,6.075-7.11c-.526-1.006-1-1.874-1.379-2.541a34.955,34.955,0,0,0-9.165-9.532c-2.457-1.659-4.713-4.857-6.948-5-7.075-.447-16.164,5.582-16.152,9.342.02,5.537,2.88,16.614,3.6,20.787.291,1.686,1.739,6.962,3.507,12.516q1-.863,2-1.722" transform="translate(56.663 98.447)" fill="#ff9568"/>
                <path id="Trazado_131576" data-name="Trazado 131576" d="M107.87,205.9h-4.3l28.723-27.112a1.435,1.435,0,0,1,1.973-.008l.022.019a1.481,1.481,0,0,1,.008,2.154Z" transform="translate(58.717 104.205)" fill="#5b413c"/>
                <path id="Trazado_131577" data-name="Trazado 131577" d="M165.551,167.72s4.029,26.643,9.085,33.137c0,0,12.13-12.752,6.388-33.051-3.852-13.62-15.473-.086-15.473-.086" transform="translate(93.855 94.471)" fill="#ff9568"/>
                <path id="Trazado_131578" data-name="Trazado 131578" d="M148.577,164.3a15.359,15.359,0,0,1-8.04-1.453c-13.074-6.245-27.7-18.279-43.459-35.768a301.818,301.818,0,0,1-19.4-23.809A15.876,15.876,0,0,1,81.161,81.26a15.484,15.484,0,0,1,21.771,3.517c7.67,10.683,31.771,40.417,50.928,49.569a15.837,15.837,0,0,1,7.437,20.988,15.59,15.59,0,0,1-12.72,8.971" transform="translate(42.357 45.716)" fill="#b5591d"/>
                <path id="Trazado_131579" data-name="Trazado 131579" d="M94.065,78.658l26.29,31.429-15.629,35.991-17.326-20s-2.5-39.923,6.664-47.416" transform="translate(49.373 45.946)" fill="#7f7134"/>
                <path id="Trazado_131580" data-name="Trazado 131580" d="M148.792,77.281a12.1,12.1,0,0,0-14.875,8.592l-.063.233-1.363,5.052-1.434,5.114q-1.46,5.109-3.009,10.186c-2.065,6.761-4.245,13.462-6.59,20-1.174,3.265-2.391,6.487-3.662,9.624s-2.6,6.188-3.989,9.025c-.694,1.415-1.4,2.775-2.114,4.016l-.027.043c.932,1.535,1.935,3.034,2.969,4.512H141.21c1-2.647,1.909-5.258,2.763-7.857,1.2-3.658,2.294-7.289,3.327-10.91,2.056-7.243,3.869-14.449,5.548-21.663q1.26-5.408,2.415-10.826l1.134-5.43.548-2.729.545-2.791a12.3,12.3,0,0,0-8.7-14.186" transform="translate(63.307 44.888)" fill="#b5591d"/>
                <path id="Trazado_131581" data-name="Trazado 131581" d="M126.268,83s2.966,13.982,22.178,13.745a13.737,13.737,0,0,1-1.346,6.272s-15.691,0-22.476-13.251c0,0-.951-2.748,1.644-6.766" transform="translate(70.557 48.482)" fill="#36251f"/>
                <path id="Trazado_131582" data-name="Trazado 131582" d="M119.915,110a.886.886,0,0,1-.143.227c-2.379,2.723-4.036,8.66-4.052,8.719a.846.846,0,0,1-1.044.6.859.859,0,0,1-.588-1.055c.072-.26,1.782-6.378,4.414-9.392a.841.841,0,0,1,1.194-.074.862.862,0,0,1,.218.981" transform="translate(64.663 63.559)" fill="#8f2d00"/>
                <path id="Trazado_131583" data-name="Trazado 131583" d="M120.414,110.356a.84.84,0,0,1-.218.155c-3.22,1.609-6.976,6.471-7.014,6.52a.84.84,0,0,1-1.188.152.862.862,0,0,1-.15-1.2c.165-.212,4.036-5.223,7.6-7.005a.841.841,0,0,1,1.133.388.864.864,0,0,1-.166.99" transform="translate(63.307 63.605)" fill="#8f2d00"/>
                <path id="Trazado_131584" data-name="Trazado 131584" d="M140.091,105.614s13.19-.513,18.189-7.084c5.608-7.371-4.575-24.378-9.149-27.7-5.722-4.162-13.322,4.347-13.322,4.347s-5.715-12.031-8.789-10.4c-4.007,2.118,3.088,11.17-1.4,21.528-1.008,2.318-.5,5.041.3,7.439,1.507,4.535,5.221,11.125,14.167,11.878" transform="translate(70.902 37.745)" fill="#b5591d"/>
                <path id="Trazado_131585" data-name="Trazado 131585" d="M137.555,86.388a.8.8,0,0,1,.213-.73c.2-.2,4.962-4.9,9.452-6.074a.777.777,0,0,1,.946.564.793.793,0,0,1-.559.958c-4.087,1.066-8.7,5.625-8.748,5.671a.771.771,0,0,1-1.1-.008.78.78,0,0,1-.205-.382" transform="translate(77.973 46.473)" fill="#8f2d00"/>
                <path id="Trazado_131586" data-name="Trazado 131586" d="M134.672,82.908a.787.787,0,0,1,.174-.686A21.574,21.574,0,0,1,145.493,76a.777.777,0,0,1,.931.591V76.6a.785.785,0,0,1-.586.935,20.366,20.366,0,0,0-9.821,5.727.771.771,0,0,1-1.1.073.779.779,0,0,1-.248-.421" transform="translate(76.339 44.381)" fill="#8f2d00"/>
                <path id="Trazado_131587" data-name="Trazado 131587" d="M132.935,78.329a.791.791,0,0,1,.168-.68,19.224,19.224,0,0,1,9.69-5.594.785.785,0,0,1,.353,1.53,17.994,17.994,0,0,0-8.861,5.085.773.773,0,0,1-1.1.086.794.794,0,0,1-.252-.428" transform="translate(75.354 42.078)" fill="#8f2d00"/>
                <path id="Trazado_131588" data-name="Trazado 131588" d="M130.1,88.472a.792.792,0,0,1,.367-.847c4.635-2.739,5.365-8.469,5.373-8.526a.777.777,0,1,1,1.543.184c-.03.266-.815,6.557-6.131,9.7a.775.775,0,0,1-1.064-.282.8.8,0,0,1-.088-.228" transform="translate(73.749 45.799)" fill="#8f2d00"/>
                <path id="Trazado_131589" data-name="Trazado 131589" d="M133.2,79.387a21.494,21.494,0,0,1-.431-6.473.777.777,0,1,1,1.548.138c-1.059,12.275,10.212,21.53,10.326,21.623a.791.791,0,0,1,.122,1.1.771.771,0,0,1-1.092.124c-.406-.328-8.364-6.851-10.473-16.516" transform="translate(75.227 42.172)" fill="#8f2d00"/>
                <path id="Trazado_131590" data-name="Trazado 131590" d="M61.3,67.408s-13.935-8.543-25.007-4-18.965,21.98-18.965,21.98l29.656,6.406Z" transform="translate(9.824 36.26)" fill="#5b413c"/>
                <path id="Trazado_131591" data-name="Trazado 131591" d="M38.012,96.357S17.921,71.985,6.487,92.848c-12.318,22.479-2.574,40.031-2.574,40.031L23.7,120.742Z" transform="translate(0.144 49.304)" fill="#5b413c"/>
                <path id="Trazado_131592" data-name="Trazado 131592" d="M99.636,70.8S68.616,43.214,29.551,83.195-5.4,183.234,16.252,203.269s54.327,8.973,54.327,8.973Z" transform="translate(0 35.94)" fill="#36251f"/>
                <path id="Trazado_131593" data-name="Trazado 131593" d="M108.905,207.414l-2-31.607L53.862,182.3s1.417,10.574,3.231,25.113Z" transform="translate(30.536 102.694)" fill="#632627"/>
                <path id="Trazado_131594" data-name="Trazado 131594" d="M63.025,199.528c-.675-5.541-1.106-9.063-1.125-9.213a1.138,1.138,0,1,0-2.258.282c.019.149.434,3.553,1.091,8.931Z" transform="translate(33.808 110.579)" fill="#915054"/>
                <path id="Trazado_131595" data-name="Trazado 131595" d="M25.384,161.157s-4.865,26.5-1.072,42.77c0,0,74.352,6.777,101.17-3.575,0,0-.345-26.447-3.27-39.288Z" transform="translate(12.963 94.082)" fill="#632627"/>
                <path id="Trazado_131596" data-name="Trazado 131596" d="M72.762,203.3C73.534,194.507,74,189.048,74,189.048l-50.5-6.2L22.877,203.3Z" transform="translate(12.97 106.809)" fill="#632627"/>
                <path id="Trazado_131597" data-name="Trazado 131597" d="M55.03,159.164c-.013.285-.023.573-.036.868-.323,7.7-.725,18.61-.934,29.74-.014.613-.023,1.231-.038,1.846-.056,3.55-.1,7.108-.108,10.574a.89.89,0,0,0,.874.9h.006a.888.888,0,0,0,.885-.89c.009-3.349.049-6.779.1-10.2.009-.6.019-1.206.031-1.809.207-11.2.61-22.2.937-29.973.014-.355.03-.7.044-1.046Z" transform="translate(30.565 92.972)" fill="#915054"/>
                <path id="Trazado_131598" data-name="Trazado 131598" d="M63.555,159.164c-.022.477-.044.963-.066,1.464-.47,10.078-1.192,24.345-1.669,27.713a2,2,0,0,1-.993,1.611,5.973,5.973,0,0,1-3.725.231,17.819,17.819,0,0,1-1.758-.41,20.4,20.4,0,0,1-2.462-.876.88.88,0,0,0-1.163.459.9.9,0,0,0,.454,1.175,22.269,22.269,0,0,0,3.134,1.087,17.387,17.387,0,0,0,1.761.374,12.028,12.028,0,0,0,1.68.147,5.856,5.856,0,0,0,2.936-.63,3.786,3.786,0,0,0,1.883-2.918c.492-3.474,1.218-17.763,1.684-27.866.027-.532.05-1.05.074-1.56Z" transform="translate(29.279 92.972)" fill="#915054"/>
                <path id="Trazado_131599" data-name="Trazado 131599" d="M51.25,199.841c.374-5.969.6-9.689.613-9.849a1.138,1.138,0,1,0-2.272-.143c-.009.162-.241,3.938-.621,9.991Z" transform="translate(27.762 110.266)" fill="#915054"/>
                <path id="Trazado_131600" data-name="Trazado 131600" d="M128.913,145.7c-.373,1.79-.752,4.008-1.145,6.574q-.2,1.321-.415,2.753c-1.177,7.989-2.513,18.515-4.234,29.4-.155.976-.315,1.96-.479,2.939-3.831,23.429,3.53,23.879,2.012,31.469-5.846,29.21-91.886,19.505-100.252,8.763-3.925-5.039-.5-52.818,5.13-82.657.188-1.008.37-2,.555-2.973,1.518-8.122,2.7-14.791,3.065-18.72,1.675-18.257,5.76-37.512,9.2-45.612S76.485,65.631,76.485,65.631l32.05,5.418s15.755,6.805,26.594,20.456-2.281,35.222-6.216,54.195" transform="translate(12.876 38.337)" fill="#7f7134"/>
                <path id="Trazado_131601" data-name="Trazado 131601" d="M117.634,72.853s3.651,22.726-10.932,43.122-58.219,31.347-78.5,23.9a22.5,22.5,0,0,0-2.493,15.054s40.684,14.376,76.665-14.3c36.95-29.455,26.262-58.86,26.262-58.86-1.807-3.5-7.286-9.5-11.006-8.912" transform="translate(14.362 42.532)" fill="#36251f"/>
                <path id="Trazado_131602" data-name="Trazado 131602" d="M86.555,96.868a35.922,35.922,0,0,1,9.583,5.811,4.251,4.251,0,0,1,.367,5.953c-3.383,3.9-9.547,10.767-14.206,14.655a3.584,3.584,0,0,1-4.757-.143l-7.365-6.9a3.684,3.684,0,0,1,.083-5.441c3.336-2.931,8.617-7.9,11.96-12.686a3.582,3.582,0,0,1,4.334-1.251" transform="translate(39.128 56.418)" fill="#5b413c"/>
                <path id="Trazado_131603" data-name="Trazado 131603" d="M50.4,141.514a1.142,1.142,0,0,0,.237.038c18.306.87,37.929-17.66,38.755-18.449a1.1,1.1,0,0,0,.044-1.545,1.073,1.073,0,0,0-1.526-.044c-.2.187-19.787,18.682-37.172,17.856a1.093,1.093,0,0,0-.337,2.143" transform="translate(28.126 70.807)" fill="#594e1e"/>
                <path id="Trazado_131604" data-name="Trazado 131604" d="M78.377,87.915C65.331,86.738,54.455,70.251,54,69.549a1.06,1.06,0,0,1,.3-1.459,1.034,1.034,0,0,1,1.442.3c.107.165,10.787,16.342,22.825,17.429l.014,0c8.535.762,12.665-7.9,12.838-8.264a1.037,1.037,0,0,1,1.385-.507,1.058,1.058,0,0,1,.5,1.4c-.2.423-4.906,10.363-14.908,9.47l-.016,0" transform="translate(30.515 39.672)" fill="#594e1e"/>
                <path id="Trazado_131605" data-name="Trazado 131605" d="M88.72,134.291a.817.817,0,0,1-.161-.027.865.865,0,0,1-.6-1.058C90.679,122.925,98.2,99.334,98.273,99.1a.852.852,0,0,1,1.075-.558.865.865,0,0,1,.552,1.087c-.075.238-7.582,23.787-10.3,34.026a.853.853,0,0,1-.884.638" transform="translate(49.847 57.536)" fill="#594e1e"/>
                <path id="Trazado_131606" data-name="Trazado 131606" d="M108.986,61.3s12.68,3.392,12.952-8.253a9.91,9.91,0,0,0,6.1-11.11c-1-6.053-7.241-5.009-7.241-5.009s5.805-11.078-3.182-14.213c0,0,4.088-8.857-1.949-12.3S102.9,13.99,102.9,13.99s.066-7.7-6.921-7.476-9.036,8.626-9.036,8.626-4.785-7.331-10.675-4.578S70.344,21.9,70.344,21.9,61.79,19.359,55.7,25.966s.371,11.96.371,11.96-7.936,1.519-9.259,6.593,7.839,7.317,7.839,7.317-4.087,7.9,2.2,11.1,13.262.187,13.262.187Z" transform="translate(26.467 3.803)" fill="#36251f"/>
                <path id="Trazado_131607" data-name="Trazado 131607" d="M90.3,70.467,89.114,79.3A25.711,25.711,0,0,1,85.921,81.1c-15.464,7.263-29.28-6.251-29.28-6.251l1.976-19.821L86.778,67.335Z" transform="translate(32.111 32.142)" fill="#b5591d"/>
                <path id="Trazado_131608" data-name="Trazado 131608" d="M86.363,68.875l-1.188,8.838a25.71,25.71,0,0,1-3.193,1.793C70.564,72.672,63.588,57.751,63.588,57.751l19.251,7.992Z" transform="translate(36.05 33.734)" fill="#36251f"/>
                <path id="Trazado_131609" data-name="Trazado 131609" d="M87.47,45.546s5.4-4.919,7.283,1S93.1,63.437,86.27,60.624Z" transform="translate(48.909 25.485)" fill="#8f2d00"/>
                <path id="Trazado_131610" data-name="Trazado 131610" d="M106.3,74.351S103.589,91.558,85.975,89.1A46.454,46.454,0,0,1,57.908,74.144l-.017-.019.293-3.626L59.7,51.683,60.5,41.623s.179-18.286,17.518-19.244c12.67-.7,23.971,2.961,28.94,10.276.16.236.315.477.458.721a15.645,15.645,0,0,1,2.2,8.83l-1.862,18.01L107.3,64.63Z" transform="translate(32.82 13.023)" fill="#b5591d"/>
                <path id="Trazado_131611" data-name="Trazado 131611" d="M73.427,48.4s.5,7.849,6.127,10.47c6.406,2.983,9.941-5.158,9.941-5.158Z" transform="translate(41.628 28.271)" fill="#f4ece1"/>
                <path id="Trazado_131612" data-name="Trazado 131612" d="M79.981,58.063a4.127,4.127,0,0,0,.432-.035.573.573,0,0,0,.47-.656.564.564,0,0,0-.646-.475,3.6,3.6,0,0,1-3.325-1.4.563.563,0,0,0-.791-.128.578.578,0,0,0-.125.8,4.653,4.653,0,0,0,3.985,1.893" transform="translate(43.023 32.28)" fill="#8f2d00"/>
                <path id="Trazado_131613" data-name="Trazado 131613" d="M76.6,42.414c-.23,1.712-1.185,3-2.133,2.864s-1.529-1.624-1.3-3.336,1.185-2.994,2.133-2.864,1.529,1.624,1.3,3.336" transform="translate(41.455 22.821)" fill="#36251f"/>
                <path id="Trazado_131614" data-name="Trazado 131614" d="M87.3,43.866c-.23,1.712-1.185,3-2.133,2.866s-1.529-1.624-1.3-3.336,1.185-3,2.131-2.866,1.531,1.624,1.3,3.336" transform="translate(47.518 23.669)" fill="#36251f"/>
                <path id="Trazado_131615" data-name="Trazado 131615" d="M80.01,53.4A5.984,5.984,0,0,0,86,51.126a.721.721,0,0,0,.077-.607c-2.039-6.287-4.094-12.744-4.115-12.809a.7.7,0,0,0-.885-.459.714.714,0,0,0-.453.9c.02.063,2,6.279,4,12.456A4.8,4.8,0,0,1,80.2,51.991a.711.711,0,0,0-.19,1.408" transform="translate(45.014 21.739)" fill="#36251f"/>
                <path id="Trazado_131616" data-name="Trazado 131616" d="M83.05,31.492a4.126,4.126,0,0,0-4.365,2.842c-.4,1.331-1.474,2.831-4,4-5.887,2.736-5.558,7.651-4.853,11.791S61.7,60.518,58.225,50s3.74-30.691,18.325-29.7,33.051,8.359,33.763,15.189a33.7,33.7,0,0,1-1.039,12.353,7.929,7.929,0,0,1-1.324-6.463c.743-4.127-1.883-6.153-6.575-7.46-3.2-.89-12.642-1.885-18.325-2.428" transform="translate(32.52 11.838)" fill="#36251f"/>
                <g id="Grupo_158024" data-name="Grupo 158024" transform="translate(133.372 72.884)" opacity="0.8">
                  <g id="Grupo_158023" data-name="Grupo 158023">
                    <g id="Grupo_158022" data-name="Grupo 158022" clip-path="url(#clip-path-6)">
                      <path id="Trazado_131617" data-name="Trazado 131617" d="M91.868,50.778a13.665,13.665,0,0,1-1.376-.122c-3.131-.429-5.534-1.79-5.367-3.037s2.842-1.909,5.973-1.48c.425.059.834.135,1.225.225Z" transform="translate(-85.116 -46.009)" fill="#8f2d00"/>
                    </g>
                  </g>
                </g>
                <path id="Trazado_131618" data-name="Trazado 131618" d="M78.971,46.8c-.168,1.247-2.844,1.909-5.976,1.48s-5.538-1.79-5.371-3.037,2.844-1.909,5.978-1.48,5.538,1.79,5.37,3.037" transform="translate(38.333 25.488)" fill="#8f2d00"/>
                <path id="Trazado_131619" data-name="Trazado 131619" d="M70.158,35.895h0a4.015,4.015,0,0,0,4.93,2.76,22.184,22.184,0,0,1,4.168-.776,3.726,3.726,0,0,0,3.385-4.212s-8.1-1.885-12.482,2.229" transform="translate(39.775 19.413)" fill="#36251f"/>
                <path id="Trazado_131620" data-name="Trazado 131620" d="M94.739,39.708h0a4,4,0,0,1-5.48,1.331,22.256,22.256,0,0,0-3.812-1.871,3.749,3.749,0,0,1-2.15-4.973s8.3.366,11.442,5.513" transform="translate(47.056 19.974)" fill="#36251f"/>
                <path id="Trazado_131621" data-name="Trazado 131621" d="M64.357,51.117c-.1.179-3.037,5.1-6.449,6.192l-.014-.021.291-3.626a12.19,12.19,0,0,0,6.172-2.546" transform="translate(32.821 29.859)" fill="#36251f"/>
                <path id="Trazado_131622" data-name="Trazado 131622" d="M65.861,45.474s-5.538-10.127-11.47-3.58c-4.889,5.394.757,21.975,9.565,17.768Z" transform="translate(29.811 23.184)" fill="#b5591d"/>
                <path id="Trazado_131623" data-name="Trazado 131623" d="M61.823,55.067c.025,0,.052,0,.077.006a.706.706,0,0,0,.721-.692,13.322,13.322,0,0,0-6.2-11.691.7.7,0,0,0-.959.269.714.714,0,0,0,.266.968,11.9,11.9,0,0,1,5.491,10.417.709.709,0,0,0,.608.722" transform="translate(31.389 24.883)" fill="#36251f"/>
                <path id="Trazado_131624" data-name="Trazado 131624" d="M55.923,48.15a.7.7,0,0,0,.461-.1c.672-.412,2.673-1.38,3.833-.9a.7.7,0,0,0,.917-.391.715.715,0,0,0-.387-.927c-2.02-.828-4.787.819-5.1,1.009a.716.716,0,0,0-.233.977.7.7,0,0,0,.506.334" transform="translate(31.359 26.635)" fill="#36251f"/>
                <path id="Trazado_131625" data-name="Trazado 131625" d="M17.07,222.5H52.5l46.025-15.014a1.623,1.623,0,0,0,1.034-2.04L82.207,151.1a1.6,1.6,0,0,0-2.018-1.044L3.6,175.037a1.623,1.623,0,0,0-1.033,2.04Z" transform="translate(1.413 87.604)" fill="#ff9918"/>
                <path id="Trazado_131626" data-name="Trazado 131626" d="M50.339,191.685l-8.769-27.47a1.272,1.272,0,0,1,.807-1.6l6.545-2.135a1.25,1.25,0,0,1,1.578.817l8.769,27.47a1.269,1.269,0,0,1-.809,1.6L51.917,192.5a1.25,1.25,0,0,1-1.578-.817" transform="translate(23.533 93.707)" fill="#f4ece1"/>
                <path id="Trazado_131627" data-name="Trazado 131627" d="M44.232,204.439l46.027-15.014a1.624,1.624,0,0,0,1.033-2.04l-2.07-6.484L17.068,204.439Z" transform="translate(9.676 105.669)" fill="#dd6a18"/>
                <path id="Trazado_131628" data-name="Trazado 131628" d="M57.933,109.788l-.075.22-2.4,6.935-1.612,4.741-.783,2.3-.877,2.622-1.479,4.424-2.292,7.049c-1.518,4.7-2.952,9.4-4.336,14.064-.68,2.333-1.346,4.667-1.957,6.98-.635,2.318-1.23,4.615-1.769,6.886s-1.017,4.5-1.407,6.645l-.277,1.514c-.085.428-.149.868-.215,1.309-.133.884-.218,1.8-.279,2.734s-.085,1.9-.078,2.872.049,1.972.108,2.985a57.04,57.04,0,0,0,.738,6.205,88.629,88.629,0,0,0,3.214,12.854c.713,2.15,1.467,4.309,2.308,6.428.417,1.066.846,2.124,1.288,3.159l.663,1.538.329.737.155.349.072.16c.024.051.045.1.033.094A10.668,10.668,0,0,1,43.8,230.221a10.408,10.408,0,0,1-14.472-3.241l-.722-1.022-.627-.9c-.407-.6-.807-1.18-1.191-1.776-.766-1.186-1.5-2.371-2.223-3.572-1.413-2.413-2.769-4.857-4.005-7.382a100.328,100.328,0,0,1-6.323-15.985,74.826,74.826,0,0,1-3.1-18.053c-.066-1.6-.081-3.221-.017-4.868.033-.821.072-1.646.139-2.481l.05-.621.058-.55.121-1.08c.327-2.88.724-5.651,1.189-8.345s.953-5.358,1.495-7.973,1.125-5.2,1.724-7.776c1.192-5.137,2.51-10.2,3.888-15.217.68-2.514,1.406-5,2.129-7.5l.273-.927c.641-2.18,1.291-4.352,1.968-6.517.042-.135.081-.266.122-.4.729-2.341,1.457-4.678,2.228-7.005.406-1.232.805-2.465,1.225-3.7l1.294-3.753.006-.013a15.27,15.27,0,0,1,19.508-9.5,15.525,15.525,0,0,1,9.4,19.722" transform="translate(6.277 52.101)" fill="#b5591d"/>
                <path id="Trazado_131629" data-name="Trazado 131629" d="M49.828,112.524l-.783,2.3-.877,2.623c-4.879.673-14.157.328-30.007-5.651.641-2.178,1.291-4.352,1.968-6.517.042-.135.081-.266.122-.4Z" transform="translate(10.295 61.261)" fill="#8f2d00"/>
                <path id="Trazado_131630" data-name="Trazado 131630" d="M33.626,140.965c-.356-.187-5.564-2.905-11.846-5.369a.852.852,0,0,0-1.156.846.861.861,0,0,0,.542.754c6.319,2.482,11.6,5.236,11.685,5.282a.838.838,0,0,0,1.136-.364.856.856,0,0,0-.36-1.148" transform="translate(11.691 79.172)" fill="#8f2d00"/>
                <path id="Trazado_131631" data-name="Trazado 131631" d="M29.193,142.28a.878.878,0,0,1-.139-.228c-1.38-3.336-5.925-7.415-5.97-7.457a.857.857,0,0,1-.074-1.2.837.837,0,0,1,1.189-.076c.2.177,4.881,4.383,6.409,8.078a.855.855,0,0,1-.451,1.115.838.838,0,0,1-.964-.23" transform="translate(12.925 77.75)" fill="#8f2d00"/>
                <path id="Trazado_131632" data-name="Trazado 131632" d="M38.816,166.512c.517.867,2.438,5.6,2.665,5.9,3.931,5.194,11.608,4.173,14.131,7.533,0,0,19.232,16.385,14.491,18.3-2.612,1.053-6.468-1.12-9.4-3.281.1.28.207.535.31.778,2.159,5.072,10.033,10.867,7.065,14.268s-7.687-1.841-7.687-1.841-1.935,4.063-8.046,1.375a5.313,5.313,0,0,1-6.387,1.426s-3.667,3.336-7.319.61c-3.1-2.319-8.978-13.242-16.1-31.679,3.378-6.053,7.609-10.234,16.277-13.388" transform="translate(12.778 97.265)" fill="#b5591d"/>
                <path id="Trazado_131633" data-name="Trazado 131633" d="M48.727,71.432S29.49,79.817,18,124.678c0,0,15.021,11.385,34.3,10.847,0,0,12.206-25.489,15.234-40.278S64.5,65.02,48.727,71.432" transform="translate(10.205 40.854)" fill="#7f7134"/>
                <path id="Trazado_131634" data-name="Trazado 131634" d="M42.291,122.7a.975.975,0,0,1-.161-.033.866.866,0,0,1-.563-1.08C44.682,111.417,53.1,88.136,53.183,87.9a.852.852,0,0,1,1.1-.515.866.866,0,0,1,.509,1.107c-.085.234-8.486,23.474-11.587,33.6a.855.855,0,0,1-.909.6" transform="translate(23.544 51.015)" fill="#594e1e"/>
              </g>
            </g>
          </g>
        </g>
      </g>
    </g>
  </g>
</svg>
