<svg id="Grupo_982385" data-name="Grupo 982385" xmlns="http://www.w3.org/2000/svg" xmlns:xlink="http://www.w3.org/1999/xlink" width="628" height="245.254" viewBox="0 0 628 245.254">
  <defs>
    <clipPath id="clip-path">
      <rect id="Rectángulo_45343" data-name="Rectángulo 45343" width="327.634" height="244.188" fill="none"/>
    </clipPath>
    <clipPath id="clip-path-2">
      <path id="Trazado_184371" data-name="Trazado 184371" d="M109.873,33.831c-11.779,6.059-20.708-8.3-20.708-8.3a18.076,18.076,0,0,1,6.856-1.466c9.718,0,13.852,9.766,13.852,9.766" transform="translate(-89.165 -24.065)" fill="none"/>
    </clipPath>
    <clipPath id="clip-path-3">
      <rect id="Rectángulo_45339" data-name="Rectángulo 45339" width="276.496" height="239.117" fill="none"/>
    </clipPath>
    <clipPath id="clip-path-4">
      <path id="Trazado_184324" data-name="Trazado 184324" d="M110.587,34.529c3.774.4-2.952,7.671-8.338,7.092-4.57-.489-4.06-2.933-3.14-3.754a13.52,13.52,0,0,1,9.4-3.453,19.674,19.674,0,0,1,2.081.115" transform="translate(-98.493 -34.414)" fill="none"/>
    </clipPath>
    <clipPath id="clip-path-5">
      <path id="Trazado_184326" data-name="Trazado 184326" d="M113.309,26.234S103.392,38,92.4,27.413c0,0,4.954-5.1,11.51-5.1a13.85,13.85,0,0,1,9.4,3.924" transform="translate(-92.4 -22.31)" fill="none"/>
    </clipPath>
  </defs>
  <path id="Rectángulo_338258" data-name="Rectángulo 338258" d="M61,0H567a61,61,0,0,1,61,61v61a0,0,0,0,1,0,0H0a0,0,0,0,1,0,0V61A61,61,0,0,1,61,0Z" transform="translate(0 123)" fill="#3c3fa7"/>
  <g id="Grupo_175166" data-name="Grupo 175166" transform="translate(8.799)">
    <g id="Grupo_175161" data-name="Grupo 175161" transform="translate(0 1.066)">
      <g id="Grupo_175160" data-name="Grupo 175160" clip-path="url(#clip-path)">
        <path id="Trazado_184345" data-name="Trazado 184345" d="M111.628,42.913A37.82,37.82,0,0,0,131.783,69.05a81.776,81.776,0,0,1-38.262,4.633c-3.056-.364-14.494-4.411-15.26-7.39s2.729-4.659,3.1-7.713,6.757-6.47,5.754-9.378a3.769,3.769,0,0,1,3.228-4.765c7.333-.35,14.668-.7,21.28-1.525" transform="translate(85.191 17.85)" fill="#5774cd"/>
        <path id="Trazado_184346" data-name="Trazado 184346" d="M109.633,58.109s18.325,3.88,33.07,13.865c23.479,15.9,27.5,25.606,27.5,25.606s-3.851-26.653-15.441-39.027c-20.633-22.031-52.3-22.021-45.124-.445" transform="translate(3.669 17.461)" fill="#fc5f65"/>
        <path id="Trazado_184347" data-name="Trazado 184347" d="M141.481,51.585,127.922,75.909,105.978,63.592l11.8-23.911Z" transform="translate(36.093 16.505)" fill="#ffa992"/>
        <path id="Trazado_184348" data-name="Trazado 184348" d="M105.977,45.139h0l2.693-5.459,23.7,11.9-7.524,13.5Z" transform="translate(45.2 16.505)"/>
        <path id="Trazado_184349" data-name="Trazado 184349" d="M119.823,3.861c-18.519,0-32.08,15.314-33.533,34.079-.735,9.488,15.11,32.185,33.533,34.079,25.528,2.624,32.4-12.984,32.4-31.807,0-25.659-13.876-36.352-32.4-36.352" transform="translate(53.266 1.606)" fill="#ffa992"/>
        <path id="Trazado_184350" data-name="Trazado 184350" d="M18.774,142.777s17.514-4.493,33.83,1.306c12.312,4.375,15.224,11.726,15.913,15.071a1.986,1.986,0,0,1-1.3,2.274,3.531,3.531,0,0,1-3.88-1.113A28.352,28.352,0,0,0,57.54,155.1c-5.433-3.776-16.873,3.073-26.485,4.027C15.726,160.65,8,153.774,8,153.774Z" transform="translate(247.748 58.699)" fill="#ffa992"/>
        <path id="Trazado_184351" data-name="Trazado 184351" d="M4.619,141.309s18.216-3.221,34.534,2.577c11.482,4.081,14.788,10.75,15.74,14.344a2.678,2.678,0,0,1-1.729,3.207,2.623,2.623,0,0,1-2.934-.879,27.571,27.571,0,0,0-6.141-5.653c-5.434-3.776-17-4.76-17-4.76l-19.394-.093Z" transform="translate(266.114 58.407)" fill="#ffa992"/>
        <path id="Trazado_184352" data-name="Trazado 184352" d="M0,145.529s18.934-8.448,37.952-4.878c14.868,2.791,19.581,12.07,20.931,15.988a2.358,2.358,0,0,1-.91,2.719,3.613,3.613,0,0,1-4.549-.408,32.354,32.354,0,0,0-7.522-5.337c-6.771-3.557-19.51-2.077-19.51-2.077L5.4,156.012Z" transform="translate(268.622 58.139)" fill="#ffa992"/>
        <path id="Trazado_184353" data-name="Trazado 184353" d="M1.077,151.041c2.754-9.553,28.81-16.7,47.827-13.125,14.917,2.8,19.612,12.131,20.945,16.026a2.308,2.308,0,0,1-.891,2.658,3.666,3.666,0,0,1-4.612-.415,32.428,32.428,0,0,0-7.493-5.307c-6.77-3.557-19.509-2.077-19.509-2.077l-33.8,8.836s-3.309-3.672-2.467-6.6" transform="translate(256.332 56.978)" fill="#ffa992"/>
        <path id="Trazado_184354" data-name="Trazado 184354" d="M20.366,150.995a2.768,2.768,0,0,0-.136-.624.489.489,0,0,0-.926.316,1.823,1.823,0,0,1-.7,2.1,3.194,3.194,0,0,1-4-.361A32.986,32.986,0,0,0,7,147.032,20.146,20.146,0,0,0,1.169,145.2a.489.489,0,0,0-.17.963,19.2,19.2,0,0,1,5.546,1.74,32.021,32.021,0,0,1,7.38,5.225,4.176,4.176,0,0,0,5.226.469,2.81,2.81,0,0,0,1.215-2.6" transform="translate(306.412 60.392)"/>
        <path id="Trazado_184355" data-name="Trazado 184355" d="M19.578,156.357a.487.487,0,0,0-.146-.3c-.241-.235-.5-.5-.78-.783a26.131,26.131,0,0,0-6.622-5.221A26.34,26.34,0,0,0,4.321,147.3a.492.492,0,0,0-.551.421.486.486,0,0,0,.421.549,25.953,25.953,0,0,1,7.384,2.646,25.325,25.325,0,0,1,6.38,5.042c.286.29.549.558.8.8a.489.489,0,0,0,.827-.4" transform="translate(302.722 61.269)"/>
        <path id="Trazado_184356" data-name="Trazado 184356" d="M21.551,158.189a.5.5,0,0,0-.075-.215,30.847,30.847,0,0,0-5.02-5.862c-2.877-2.5-8.143-3.42-8.365-3.458a.489.489,0,0,0-.164.964c.052.01,5.219.909,7.887,3.231a30.242,30.242,0,0,1,4.838,5.652.49.49,0,0,0,.9-.313" transform="translate(295.432 61.831)"/>
        <path id="Trazado_184357" data-name="Trazado 184357" d="M49.851,148.217c-.011-.2-.028-.408-.05-.61-.483-4.6-7.414-5.025-12.984-5.369q-.559-.034-1.09-.069c-5.054-.333-6.71-.993-6.726-1a.489.489,0,0,0-.378.9c.069.03,1.767.724,7.04,1.072.354.024.721.047,1.093.069,4.928.3,11.676.722,12.072,4.5a3.735,3.735,0,0,1-.6,3.01c-1.075,1.26-3.717,1.988-8.079,2.224-8.884.481-25.746,3.507-25.915,3.538a.489.489,0,0,0,.173.963c.168-.031,16.972-3.046,25.8-3.524,4.708-.256,7.495-1.072,8.769-2.567a4.22,4.22,0,0,0,.875-3.136" transform="translate(258.18 58.705)"/>
        <path id="Trazado_184358" data-name="Trazado 184358" d="M25.213,62.69s30.545,39.08,28.524,82.427L156.3,158.509l-5.453,41.612-113.642-2.87Z" transform="translate(135.631 26.076)" fill="#fc5f65"/>
        <path id="Trazado_184359" data-name="Trazado 184359" d="M242.249,54.35s-8.743-12.01-39.886,5.2S104.825,134.579,99.722,160.838s11.2,47.328,39.3,43.123c12.251-1.834,24.931-9.433,24.931-9.433s-1.572.94,0,12.373c0,0,90.2,2.224,121.91,0,0,0,4.074-36.216-7.813-44.041,0,0,16.373-40.474.224-80.407Z" transform="translate(-98.791 20.911)" fill="#fc5f65"/>
        <path id="Trazado_184360" data-name="Trazado 184360" d="M161.355,178.771a.829.829,0,0,0,.344-.075c23.274-10.627,80.3-45.066,80.878-45.414a.832.832,0,0,0,.362-.96L228.628,86.953a.835.835,0,0,0-1.143-.505L127.092,132.939a.832.832,0,0,0,.7,1.511l99.537-46.1,13.83,43.844c-5.992,3.611-58.2,34.964-80.147,44.986a.831.831,0,0,0,.345,1.587" transform="translate(-94.617 35.927)"/>
        <path id="Trazado_184361" data-name="Trazado 184361" d="M114.072,136.093a.812.812,0,0,0,.313-.062c.215-.086,21.683-8.719,36.813-5.793a.832.832,0,0,0,.314-1.634c-15.622-3.016-36.857,5.524-37.754,5.889a.831.831,0,0,0,.313,1.6" transform="translate(15.103 53.226)"/>
        <path id="Trazado_184362" data-name="Trazado 184362" d="M109.873,33.832s-6.049-14.29-20.708-8.3c0,0,8.93,14.359,20.708,8.3" transform="translate(91.507 10.01)" fill="#fff"/>
        <path id="Trazado_184363" data-name="Trazado 184363" d="M104.43,45.3a1.022,1.022,0,0,0,.266-2.008A26.979,26.979,0,0,1,94.875,38.1a1.023,1.023,0,0,0-1.366,1.524,28.653,28.653,0,0,0,10.652,5.643,1.041,1.041,0,0,0,.269.035" transform="translate(90.257 15.738)"/>
        <path id="Trazado_184364" data-name="Trazado 184364" d="M103.157,19.958a1.022,1.022,0,0,0,.463-1.934c-5.073-2.57-11.111-.544-11.366-.456a1.022,1.022,0,1,0,.664,1.933c.055-.016,5.488-1.828,9.777.347a1.024,1.024,0,0,0,.462.11" transform="translate(93.803 6.958)"/>
        <path id="Trazado_184365" data-name="Trazado 184365" d="M79.867,31.637l11.8.31-12.007,8.9Z" transform="translate(123.171 13.16)" fill="#ffa992"/>
        <path id="Trazado_184366" data-name="Trazado 184366" d="M115.736,38.867a28.121,28.121,0,0,0,20.744-7.915,28.114,28.114,0,0,0,8.3-20.591c9.712,5.361,17.9,13.443,27.226,22.626C170.43,15.176,153.845,0,135.966,0s-34.46,15.185-36.035,32.995C98.9,44.656,92.942,55.8,84.353,62.369c14.9,8.382,27.7,23.707,39.286,34.184,2.924-14.062,1.112-35.354-7.51-46.841-.067-3.776-.135-7.553-.392-10.845" transform="translate(36.185 0)" fill="#5774cd"/>
        <path id="Trazado_184367" data-name="Trazado 184367" d="M133.288,26.891c-3.49-4-9.049-4.609-12.411-1.361s-3.26,9.124.232,13.125,9.048,4.609,12.411,1.359,3.26-9.123-.232-13.123" transform="translate(23.978 9.751)" fill="#ffa992"/>
        <path id="Trazado_184368" data-name="Trazado 184368" d="M130.537,33.071a1.023,1.023,0,0,0,.413-1.958l-8.079-3.557a1.023,1.023,0,0,0-.823,1.873l8.078,3.555a1.033,1.033,0,0,0,.411.086" transform="translate(24.125 11.427)"/>
        <path id="Trazado_184369" data-name="Trazado 184369" d="M124.367,35.508a1.022,1.022,0,0,0,.922-.578l1.878-3.878a1.022,1.022,0,1,0-1.841-.891l-1.878,3.88a1.021,1.021,0,0,0,.919,1.467" transform="translate(25.715 12.305)"/>
      </g>
    </g>
    <g id="Grupo_175163" data-name="Grupo 175163" transform="translate(180.672 35.142)">
      <g id="Grupo_175162" data-name="Grupo 175162" transform="translate(0 0)" clip-path="url(#clip-path-2)">
        <path id="Trazado_184370" data-name="Trazado 184370" d="M87.432,31.387c.8,4.6,4.85,7.625,9.054,6.753s6.964-5.31,6.168-9.912S97.8,20.6,93.6,21.475s-6.965,5.31-6.168,9.912" transform="translate(-79.433 -25.205)"/>
      </g>
    </g>
    <g id="Grupo_982379" data-name="Grupo 982379" transform="translate(334.677 0)">
      <g id="Grupo_175150" data-name="Grupo 175150" transform="translate(0)" clip-path="url(#clip-path-3)">
        <path id="Trazado_184291" data-name="Trazado 184291" d="M1,207.185l.1-96.874A38.75,38.75,0,0,1,39.849,71.6H89.507a38.749,38.749,0,0,1,38.749,38.75v96.833Z" transform="translate(146.805 31.157)" fill="#ff9fa3"/>
        <path id="Trazado_184292" data-name="Trazado 184292" d="M127.256,207.62V110.786A37.357,37.357,0,0,0,89.94,73.47H40.284A37.367,37.367,0,0,0,2.969,110.748l-.1,96.872H0l.1-96.875A40.241,40.241,0,0,1,40.284,70.6H89.94a40.232,40.232,0,0,1,40.185,40.185V207.62Z" transform="translate(146.37 30.721)" fill="#ffb6c8"/>
        <path id="Trazado_184293" data-name="Trazado 184293" d="M91.788,50.17c24.855-15.055,64.884,16.744,64.884,16.744s35.853.214,51.016,3.4,41.936,34.446,59.391,85.552c10.886,31.875,7.883,61.744-24.594,61.744-16.962,0-140.232-12.035-140.232-12.035S8.59,219.59,8.59,174.181c0-40.962,49.05-103.33,83.2-124.011m1.755,102.564-2.016-27.216L72.241,151.231Z" transform="translate(-8.59 20.07)" fill="#fff0f1"/>
        <path id="Trazado_184294" data-name="Trazado 184294" d="M68.878,48.708c16.569,5.977,30.553,17.081,30.553,17.081s14.826.09,29.443,1l.121.307L83.209,92.214Z" transform="translate(48.652 21.195)" fill="#5774cd"/>
        <path id="Trazado_184295" data-name="Trazado 184295" d="M101.365,194.686a.717.717,0,0,0,.716-.693L106,78.352a.717.717,0,1,0-1.434-.047l-3.924,115.64a.718.718,0,0,0,.692.742Z" transform="translate(26.049 33.772)"/>
        <path id="Trazado_184296" data-name="Trazado 184296" d="M116.429,134.7s-7,2.585,26.57,7.015c16.048,2.118,19.262,12.767,20.136,16.539a2.3,2.3,0,0,1-1.645,2.626,4.71,4.71,0,0,1-4.9-1.127,33.475,33.475,0,0,0-7.332-5.71c-6.873-4.094-21.285,4.658-33.472,5.5-3.724.257-22.461-6.352-27.17-9.958-9.653-7.394-5.136-15.019-5.136-15.019Z" transform="translate(-4.979 58.554)" fill="#ed8974"/>
        <path id="Trazado_184297" data-name="Trazado 184297" d="M78.206,138.3s23.023-4.294,43.656,1.711c14.519,4.225,18.71,11.675,19.918,15.718a3.082,3.082,0,0,1-2.181,3.7,3.488,3.488,0,0,1-3.708-.9,32.383,32.383,0,0,0-7.773-6.2c-6.873-4.094-21.494-4.8-21.494-4.8l-24.518.575Z" transform="translate(22.368 59.533)" fill="#ed8974"/>
        <path id="Trazado_184298" data-name="Trazado 184298" d="M72.446,143.314s23.922-10.25,47.965-6.867c18.8,2.643,24.771,13.005,26.483,17.4a2.591,2.591,0,0,1-1.147,3.117,4.944,4.944,0,0,1-5.752-.3,39.631,39.631,0,0,0-9.516-5.788c-8.563-3.8-24.664-1.672-24.664-1.672l-26.532,5.815Z" transform="translate(25.468 59.076)" fill="#ed8974"/>
        <path id="Trazado_184299" data-name="Trazado 184299" d="M73.623,140.267s23.922-10.248,47.965-6.867c18.859,2.652,24.809,13.074,26.5,17.444a2.535,2.535,0,0,1-1.121,3.047,5.018,5.018,0,0,1-5.831-.307,39.7,39.7,0,0,0-9.479-5.758c-8.564-3.8-24.664-1.672-24.664-1.672L80.46,151.969Z" transform="translate(22.592 57.75)" fill="#ed8974"/>
        <path id="Trazado_184300" data-name="Trazado 184300" d="M113.342,156.818a.39.39,0,0,0,.172-.009.479.479,0,0,0,.316-.575c-.7-3-2.81-12.123-19.455-16.345-4.574-1.164-11.507-.939-11.8-.929a.475.475,0,0,0,.026.947c.072,0,7.113-.224,11.574.9,16.128,4.092,18.146,12.794,18.809,15.653a.45.45,0,0,0,.356.353" transform="translate(44.749 60.457)"/>
        <path id="Trazado_184301" data-name="Trazado 184301" d="M111.344,155.43a.39.39,0,0,0,.172-.009.479.479,0,0,0,.316-.576c-.841-3.627-2.408-10.376-17.668-16.4-5.363-2.118-15.3-1.563-15.723-1.537a.461.461,0,0,0-.41.5.444.444,0,0,0,.459.448c.1-.006,10.178-.571,15.379,1.481,14.825,5.848,16.262,12.037,17.12,15.735a.45.45,0,0,0,.356.353" transform="translate(52.667 59.54)"/>
        <path id="Trazado_184302" data-name="Trazado 184302" d="M110.806,152.255a.39.39,0,0,0,.172-.009.479.479,0,0,0,.316-.575c-.764-3.288-4.425-11.51-21.9-16.818-5.548-1.689-15.227-.921-15.634-.888a.461.461,0,0,0-.4.508.444.444,0,0,0,.466.436c.1-.009,9.931-.779,15.336.857,17.514,5.321,20.723,13.7,21.29,16.137a.45.45,0,0,0,.356.353" transform="translate(59.913 58.206)"/>
        <path id="Trazado_184303" data-name="Trazado 184303" d="M134.894,120.615l47.33,2.052-3.888,45.61-68.075-1.072Z" transform="translate(-63.968 52.485)" fill="#fff0f1"/>
        <path id="Trazado_184304" data-name="Trazado 184304" d="M136.658,111.741h.037a.717.717,0,0,0,.68-.752l-1.57-30.873a.718.718,0,1,0-1.434.073l1.57,30.871a.717.717,0,0,0,.716.682" transform="translate(-53.723 34.565)"/>
        <path id="Trazado_184305" data-name="Trazado 184305" d="M186.874,176.528a.718.718,0,0,0,.713-.646l5.233-51.8a.718.718,0,0,0-.663-.788l-81.628-5.755a.718.718,0,0,0-.1,1.432l80.89,5.7-5.158,51.067a.715.715,0,0,0,.641.785.623.623,0,0,0,.073,0" transform="translate(-73.849 51.144)"/>
        <path id="Trazado_184306" data-name="Trazado 184306" d="M167.581,121a.717.717,0,0,0,.435-1.289L152.841,108.2a.718.718,0,1,0-.867,1.144l15.174,11.51a.714.714,0,0,0,.433.146" transform="translate(-109.499 47.02)"/>
        <path id="Trazado_184307" data-name="Trazado 184307" d="M75.872,192.974a.717.717,0,0,0,.181-1.411c-7.658-2-52.325-42.938-57.1-47.334l21.6-39.9,64.494,41.961a.717.717,0,1,0,.782-1.2L40.681,102.7a.716.716,0,0,0-1.022.258L17.42,144.037a.72.72,0,0,0,.145.87c2.026,1.871,49.729,45.847,58.125,48.043a.671.671,0,0,0,.182.024" transform="translate(145.466 44.64)"/>
        <path id="Trazado_184308" data-name="Trazado 184308" d="M20.238,126.659a.6.6,0,0,0,.072,0l13.081-1.309a.717.717,0,1,0-.144-1.427l-13.08,1.309a.717.717,0,0,0,.07,1.431" transform="translate(214.442 53.921)"/>
        <path id="Trazado_184309" data-name="Trazado 184309" d="M52.325,103.363a.718.718,0,0,0,.695-.54l8.371-32.7A.717.717,0,1,0,60,69.765l-8.373,32.7a.717.717,0,0,0,.518.873.688.688,0,0,0,.178.023" transform="translate(141.019 30.123)"/>
        <path id="Trazado_184310" data-name="Trazado 184310" d="M50.941,147.739a.714.714,0,0,0,.6-.329l21.694-33.47a.717.717,0,1,0-1.2-.779L50.34,146.632a.718.718,0,0,0,.211.992.725.725,0,0,0,.39.115" transform="translate(131.064 49.099)"/>
        <path id="Trazado_184311" data-name="Trazado 184311" d="M123.93,164.491a.718.718,0,0,0,.715-.646l4.028-40.289a.716.716,0,0,0-.643-.785.708.708,0,0,0-.785.642L123.217,163.7a.717.717,0,0,0,.643.785.594.594,0,0,0,.07,0" transform="translate(-29.01 53.421)"/>
        <path id="Trazado_184312" data-name="Trazado 184312" d="M105.957,17.444a5.3,5.3,0,0,1-7.1,1.239,6.637,6.637,0,0,1-2.511-7.064A8.955,8.955,0,0,1,101.5,5.865a13.931,13.931,0,0,1,7.85-.765,6.623,6.623,0,0,1,4.968,8.291c-1.175,3.469-5.752,5.283-8.367,4.053" transform="translate(23.902 2.117)" fill="#ffb6c8"/>
        <path id="Trazado_184313" data-name="Trazado 184313" d="M108.454,47.143l1.671,20.5L80.136,69.976,77.521,43.23Z" transform="translate(55.118 18.811)" fill="#e5826e"/>
        <path id="Trazado_184314" data-name="Trazado 184314" d="M112.228,66.261,75.617,87.055l.56-39.8A161.733,161.733,0,0,1,97.71,64.424s6,.682,14.518,1.837" transform="translate(55.747 20.562)" fill="#e5826e"/>
        <path id="Trazado_184315" data-name="Trazado 184315" d="M84,61.15,82.267,43.38l23.782,3.008C101.4,50.993,93.382,57.838,84,61.15" transform="translate(52.383 18.877)"/>
        <path id="Trazado_184316" data-name="Trazado 184316" d="M103.381,7.508C85.9,5.632,70.889,16.615,68.912,35.073s-.455,32.229,17.029,34.1c21.257,2.28,41.916-8.1,43.9-26.553s-8.97-33.239-26.457-35.115" transform="translate(48.489 3.177)" fill="#e5826e"/>
        <path id="Trazado_184317" data-name="Trazado 184317" d="M108.695,26.488l10.22,2.766-1.691,11.085Z" transform="translate(1.589 11.526)" fill="#e5826e"/>
        <path id="Trazado_184318" data-name="Trazado 184318" d="M92.4,27.414s10.337-10.652,20.907-1.18c0,0-9.915,11.764-20.907,1.18" transform="translate(30.582 9.708)" fill="#fff"/>
        <path id="Trazado_184319" data-name="Trazado 184319" d="M107.366,20.595a.91.91,0,0,0,.679-1.6c-7.191-5.956-13.279-2.235-13.538-2.072a.909.909,0,0,0,.967,1.538c.214-.131,5.268-3.15,11.409,1.935a.911.911,0,0,0,.482.2" transform="translate(33.098 6.798)"/>
        <path id="Trazado_184320" data-name="Trazado 184320" d="M120.412,46.721c-3.6-1.7-7.237-3.434-10.271-6.008s-5.442-6.131-5.775-10.095,1.818-8.252,5.557-9.613c-5.478,5.4-15.772,4.469-20.2-1.818a2.786,2.786,0,0,1,3.929-3.848A25.287,25.287,0,0,1,74.549,7.582C72.727,5.66,73.7,2.16,75.985.819s5.256-.9,7.592.344a32.77,32.77,0,0,1,6.175,4.96C91.718,7.9,93.92,9.577,96.514,10.1a30.838,30.838,0,0,1,19.775,13.687,31.661,31.661,0,0,1,4.123,22.932" transform="translate(49.804 0)" fill="#ffb6c8"/>
        <path id="Trazado_184321" data-name="Trazado 184321" d="M83.906,32.764c4.437,10.574,3.324,22.061-.143,32.991,10.013-1.284,20.474-10.234,22.225-18.479,1.681-7.925-.136-18.72-5.7-27.009C86.619-.117,62.986,6.161,62.986,6.161s16.483,16.029,20.92,26.6" transform="translate(79.512 2.284)" fill="#fd521b"/>
        <path id="Trazado_184322" data-name="Trazado 184322" d="M99.11,37.867c2.193-1.955,5.708-3.957,11.477-3.338,3.774.4-2.951,7.671-8.338,7.092-4.569-.489-4.06-2.933-3.139-3.754" transform="translate(23.458 14.975)"/>
      </g>
      <g id="Grupo_175152" data-name="Grupo 175152" transform="translate(121.951 49.389)" clip-path="url(#clip-path-4)">
        <path id="Trazado_184323" data-name="Trazado 184323" d="M122.7,37.831s-9.278-4.439-22.589.161,15.236,10.1,15.236,10.1Z" transform="translate(-106.75 -33.765)" fill="#fd521b"/>
      </g>
      <g id="Grupo_175154" data-name="Grupo 175154" transform="translate(122.98 32.018)" clip-path="url(#clip-path-5)">
        <path id="Trazado_184325" data-name="Trazado 184325" d="M97.5,26.758a7.42,7.42,0,1,0,8.17-6.587,7.42,7.42,0,0,0-8.17,6.587" transform="translate(-98.653 -23.259)"/>
      </g>
      <g id="Grupo_175156" data-name="Grupo 175156" transform="translate(0)" clip-path="url(#clip-path-3)">
        <path id="Trazado_184327" data-name="Trazado 184327" d="M72.913,34.164c3.723-3.441,9.062-3.454,11.923-.027S87,43.131,83.279,46.572s-9.062,3.456-11.923.029-2.166-9,1.557-12.437" transform="translate(90.022 13.74)" fill="#e5826e"/>
        <path id="Trazado_184328" data-name="Trazado 184328" d="M72.476,40.037a.912.912,0,0,0,.37-.037l8.032-2.552a.91.91,0,0,0-.55-1.735L72.3,38.266a.909.909,0,0,0,.179,1.771" transform="translate(92.138 15.523)"/>
        <path id="Trazado_184329" data-name="Trazado 184329" d="M76.665,42.957a.908.908,0,0,0,.951-1.21l-1.388-3.876a.909.909,0,1,0-1.712.613l1.389,3.876a.907.907,0,0,0,.759.6" transform="translate(91.96 16.217)"/>
        <path id="Trazado_184330" data-name="Trazado 184330" d="M99.086,71.638a.88.88,0,0,0,.2,0,.907.907,0,0,0,.8-1.007L97.82,51.3a.909.909,0,0,0-1.805.211l2.266,19.33a.911.911,0,0,0,.805.8" transform="translate(38.617 21.972)"/>
        <path id="Trazado_184333" data-name="Trazado 184333" d="M73.036,146.036l29.771,3.612,8.127-49.319L76.94,96.2Z" transform="translate(60.744 41.863)" fill="#fd521b"/>
        <rect id="Rectángulo_45340" data-name="Rectángulo 45340" width="39.651" height="4.805" transform="matrix(-0.993, -0.12, 0.12, -0.993, 174.363, 142.517)"/>
        <path id="Trazado_184334" data-name="Trazado 184334" d="M110.343,103.136a.714.714,0,0,0,.443-.154.722.722,0,0,0,.27-.478l.578-4.77a.719.719,0,0,0-.626-.8L71.645,92.159a.7.7,0,0,0-.528.148.722.722,0,0,0-.27.478l-.58,4.77a.719.719,0,0,0,.627.8l39.362,4.776a.578.578,0,0,0,.086.006m-.22-4.862-.406,3.345-37.937-4.6.4-3.345Z" transform="translate(64.02 40.1)"/>
        <rect id="Rectángulo_45341" data-name="Rectángulo 45341" width="29.768" height="4.806" transform="translate(170.036 137.152) rotate(-173.08)"/>
        <path id="Trazado_184335" data-name="Trazado 184335" d="M103.545,99.036a.714.714,0,0,0,.443-.154.722.722,0,0,0,.27-.478l.578-4.77a.718.718,0,0,0-.626-.8L74.66,89.248a.7.7,0,0,0-.53.148.722.722,0,0,0-.27.478l-.578,4.77a.718.718,0,0,0,.627.8l29.55,3.586a.576.576,0,0,0,.086.006m-.22-4.862-.406,3.345L74.794,94.1l.406-3.345Z" transform="translate(66.491 38.833)"/>
        <path id="Trazado_184336" data-name="Trazado 184336" d="M74.314,124.718l1.62-20.682,33.041,4.01L105.6,128.515Z" transform="translate(60.87 45.271)" fill="#fff"/>
        <path id="Trazado_184337" data-name="Trazado 184337" d="M68.991,100.819l18.742,3.908a5.6,5.6,0,0,1,4.178,6.992,6.006,6.006,0,0,1-7.341,4.393L66.2,110.853a4.964,4.964,0,0,1-3.23-6.442,5.3,5.3,0,0,1,6.018-3.592" transform="translate(94.416 43.825)" fill="#e5826e"/>
        <path id="Trazado_184338" data-name="Trazado 184338" d="M67.059,118.161,89.12,124.14a5.534,5.534,0,0,0,6.236-2.847l.254-.474a5.268,5.268,0,0,0-3.124-7.754L70.169,107.56a5.6,5.6,0,0,0-6.485,3.688,5.215,5.215,0,0,0,3.375,6.913" transform="translate(89.276 46.74)" fill="#e5826e"/>
        <path id="Trazado_184339" data-name="Trazado 184339" d="M67.882,118.7h0a4.826,4.826,0,0,1,5.578-2.945L88.3,119.182a4.823,4.823,0,0,1,3.7,5.28l-.148,1.223a4.824,4.824,0,0,1-6.244,4.02L70.92,125.059a4.825,4.825,0,0,1-3.038-6.356" transform="translate(87.518 50.317)" fill="#e5826e"/>
        <path id="Trazado_184340" data-name="Trazado 184340" d="M70.958,124.828h0a4.178,4.178,0,0,1,4.5-2.064l12.183,3.067a3.6,3.6,0,0,1,2.4,4.727l-.416,1.336a4.216,4.216,0,0,1-5.291,2.9l-11.768-4.4a3.755,3.755,0,0,1-1.607-5.563" transform="translate(85.312 53.374)" fill="#e5826e"/>
        <path id="Trazado_184341" data-name="Trazado 184341" d="M96.328,113.364l0-.026a.466.466,0,0,0-.557-.346,8.331,8.331,0,0,1-3.292-.188L72.967,107.46c-.156-.034-3.289-.695-5.571.865a5.211,5.211,0,0,0-2.156,3.667c-.954,6.043,7.494,7.85,8.022,7.958l11.577,3.367c.871.253,5.669,1.4,6.92,1.615a.464.464,0,0,0,.154-.914c-1.23-.207-5.957-1.342-6.816-1.59l-11.6-3.374a.4.4,0,0,0-.044-.01c-.082-.016-8.143-1.587-7.3-6.906a4.313,4.313,0,0,1,1.764-3.045c1.955-1.338,4.8-.738,4.826-.732L92.224,113.7a9.133,9.133,0,0,0,3.753.2.463.463,0,0,0,.352-.531" transform="translate(86.64 46.688)"/>
        <path id="Trazado_184342" data-name="Trazado 184342" d="M91.759,130.184a.464.464,0,0,0-.38-.377c-1.214-.2-8.305-2.321-9.475-2.722-1.094-.377-4.716-1.47-4.869-1.516-.066-.02-6.78-2.133-5.472-6.5a3.55,3.55,0,0,1,3.482-2.536,8.985,8.985,0,0,1,2.824.264.464.464,0,0,0,.255-.891c-2.1-.6-6.349-.772-7.45,2.9-1.257,4.2,3.434,6.838,6.092,7.648.039.012,3.759,1.134,4.836,1.505,1.1.379,8.3,2.539,9.623,2.76a.462.462,0,0,0,.534-.38.44.44,0,0,0,0-.156" transform="translate(83.604 50.292)"/>
        <path id="Trazado_184343" data-name="Trazado 184343" d="M92.187,104.776a.464.464,0,0,0-.352-.372c-.119-.027-11.978-2.791-16.814-3.871-5.1-1.137-8.664.36-9.786,4.106-1.345,4.482,2.935,6.76,2.979,6.783a.464.464,0,0,0,.426-.824c-.149-.079-3.638-1.952-2.517-5.692.979-3.269,4.067-4.5,8.7-3.467,4.832,1.078,16.685,3.84,16.8,3.868a.462.462,0,0,0,.557-.346.449.449,0,0,0,.006-.185" transform="translate(91.057 43.585)"/>
      </g>
    </g>
    <g id="Grupo_175165" data-name="Grupo 175165" transform="translate(31.992 75.803)">
      <g id="Grupo_982380" data-name="Grupo 982380">
        <path id="Trazado_184372" data-name="Trazado 184372" d="M106.838,198.521a.831.831,0,0,0,.826-.739c.166-1.475,3.874-35.74-7.636-44.44,1.957-5.277,15-43.3-.01-80.411a.831.831,0,1,0-1.541.624c15.83,39.147-.062,79.381-.225,79.782a.833.833,0,0,0,.313,1.007c11.328,7.454,7.488,42.9,7.447,43.253a.831.831,0,0,0,.733.918.694.694,0,0,0,.093.006" transform="translate(48.247 -44.616)"/>
        <path id="Trazado_184373" data-name="Trazado 184373" d="M168.95,85.74a.833.833,0,0,0,.8-1.052l-4.559-16.5a.831.831,0,1,0-1.6.442l4.044,14.638L110.318,52.881a.831.831,0,0,0-.782,1.467l59.026,31.294a.826.826,0,0,0,.388.1" transform="translate(-28.617 -52.782)"/>
        <path id="Trazado_184374" data-name="Trazado 184374" d="M114.5,116.352a.608.608,0,0,0,.609-.609V79.557a.609.609,0,1,0-1.218,0v36.186a.609.609,0,0,0,.609.609" transform="translate(19.271 -41.898)"/>
        <path id="Trazado_184375" data-name="Trazado 184375" d="M211.009,119.1a.831.831,0,0,0,.323-1.6l-8.71-3.667a.831.831,0,1,0-.644,1.532l8.708,3.667a.838.838,0,0,0,.323.065" transform="translate(-201.468 -27.414)"/>
        <path id="Trazado_184376" data-name="Trazado 184376" d="M113.9,127.3h25.432l1.8-42.351h-29.04Z" transform="translate(-4.208 -39.401)" fill="#ffb6c8"/>
        <rect id="Rectángulo_45344" data-name="Rectángulo 45344" width="33.626" height="4.077" transform="translate(105.591 41.472)" fill="#d7e5ff"/>
        <path id="Trazado_184377" data-name="Trazado 184377" d="M110.653,86.935h33.626a.608.608,0,0,0,.607-.609V82.251a.608.608,0,0,0-.607-.609H110.653a.608.608,0,0,0-.609.609v4.075a.608.608,0,0,0,.609.609m33.017-1.218H111.262V82.858H143.67Z" transform="translate(-5.062 -40.777)" fill="#d7e5ff"/>
        <rect id="Rectángulo_45345" data-name="Rectángulo 45345" width="25.244" height="4.077" transform="translate(109.782 37.397)" fill="#d7e5ff"/>
        <path id="Trazado_184378" data-name="Trazado 184378" d="M113.612,84.055h25.244a.608.608,0,0,0,.609-.607V79.371a.608.608,0,0,0-.609-.607H113.612a.608.608,0,0,0-.609.607v4.077a.608.608,0,0,0,.609.607m24.635-1.216H114.219V79.98h24.027Z" transform="translate(-3.83 -41.974)" fill="#d7e5ff"/>
        <path id="Trazado_184379" data-name="Trazado 184379" d="M113.128,109.274,112.379,91.7h28.227l-.749,17.578Z" transform="translate(-4.088 -36.595)" fill="#fff"/>
        <path id="Trazado_184380" data-name="Trazado 184380" d="M140.753,87.524l-14.877.988a4.36,4.36,0,0,0-3.979,4.942,4.678,4.678,0,0,0,5.187,4.181l14.734-2.07a3.869,3.869,0,0,0,3.189-4.62,4.13,4.13,0,0,0-4.254-3.421" transform="translate(-21.992 -38.334)" fill="#ffa992"/>
        <path id="Trazado_184381" data-name="Trazado 184381" d="M142.776,101.6l-17.663,2.226a4.309,4.309,0,0,1-4.5-2.87l-.144-.392a4.1,4.1,0,0,1,3.248-5.644l17.807-1.832a4.355,4.355,0,0,1,4.6,3.546,4.061,4.061,0,0,1-3.35,4.967" transform="translate(-20.749 -36.024)" fill="#ffa992"/>
        <path id="Trazado_184382" data-name="Trazado 184382" d="M141.591,102.261h0a3.757,3.757,0,0,0-3.984-2.874l-11.812,1.036a3.758,3.758,0,0,0-3.428,3.673l-.018.959a3.757,3.757,0,0,0,4.381,3.775l11.832-2a3.757,3.757,0,0,0,3.03-4.574" transform="translate(-19.29 -33.402)" fill="#ffa992"/>
        <path id="Trazado_184383" data-name="Trazado 184383" d="M138.788,106.962h0a3.254,3.254,0,0,0-3.251-2.079l-9.729,1.048a2.806,2.806,0,0,0-2.359,3.387l.177,1.076a3.285,3.285,0,0,0,3.768,2.809l9.553-2.124a2.926,2.926,0,0,0,1.841-4.118" transform="translate(-18.15 -31.116)" fill="#ffa992"/>
        <path id="Trazado_184384" data-name="Trazado 184384" d="M119.729,95.02l.007-.017a.36.36,0,0,1,.466-.21,6.494,6.494,0,0,0,2.56.212l15.624-2.013a6.179,6.179,0,0,1,4.2,1.269,4.061,4.061,0,0,1,1.266,3.063c.084,4.763-6.63,5.243-7.049,5.27l-9.293,1.345c-.7.1-4.524.47-5.512.5a.36.36,0,1,1-.018-.721c.97-.028,4.738-.392,5.427-.491l9.309-1.348a.3.3,0,0,1,.035,0c.065,0,6.453-.344,6.379-4.537a3.36,3.36,0,0,0-1.031-2.54,5.517,5.517,0,0,0-3.643-1.085l-15.6,2.011a7.135,7.135,0,0,1-2.915-.253.361.361,0,0,1-.214-.447" transform="translate(-17.72 -36.061)"/>
        <path id="Trazado_184385" data-name="Trazado 184385" d="M121.8,108.948a.36.36,0,0,1,.334-.249c.959-.027,6.656-.892,7.6-1.076.885-.173,3.8-.624,3.919-.643.054-.008,5.46-.912,4.923-4.418a2.764,2.764,0,0,0-2.411-2.333,7.01,7.01,0,0,0-2.206-.1.361.361,0,0,1-.1-.715c1.682-.239,4.981.089,5.433,3.04.515,3.373-3.388,4.9-5.525,5.24-.031,0-3.022.467-3.894.637-.889.174-6.675,1.062-7.721,1.09a.362.362,0,0,1-.37-.353.344.344,0,0,1,.017-.12" transform="translate(-16.135 -33.412)"/>
        <path id="Trazado_184386" data-name="Trazado 184386" d="M121.293,88.461a.365.365,0,0,1,.312-.249c.095-.008,9.539-.858,13.386-1.167,4.055-.326,6.644,1.213,7.105,4.225.552,3.6-2.995,4.895-3.032,4.908a.361.361,0,1,1-.241-.68,3.839,3.839,0,0,0,2.559-4.119c-.4-2.627-2.652-3.911-6.334-3.615-3.843.309-13.285,1.158-13.379,1.167a.359.359,0,0,1-.392-.327.346.346,0,0,1,.016-.143" transform="translate(-18.234 -38.548)"/>
        <path id="Trazado_184387" data-name="Trazado 184387" d="M31.226,173.018H583c4.4,0,7.972-1.614,7.972-3.606V158.78c0-1.992-3.568-3.606-7.972-3.606H31.226c-4.4,0-7.972,1.614-7.972,3.606v10.631c0,1.992,3.568,3.606,7.972,3.606" transform="translate(-17.382 -10.191)" fill="#8284d2"/>
        <path id="Trazado_184388" data-name="Trazado 184388" d="M28.107,174.851H583.671a5.193,5.193,0,0,0,5.338-5.022V159.2a5.193,5.193,0,0,0-5.338-5.022H28.107a5.2,5.2,0,0,0-5.338,5.022v10.631a5.2,5.2,0,0,0,5.338,5.022m555.564-17.844A2.266,2.266,0,0,1,586,159.2v10.631a2.267,2.267,0,0,1-2.329,2.19H28.107a2.265,2.265,0,0,1-2.326-2.19V159.2a2.264,2.264,0,0,1,2.326-2.19Z" transform="translate(-17.583 -10.607)" fill="#5774cd"/>
      </g>
    </g>
  </g>
</svg>
