<svg id="Grupo_161960" data-name="Grupo 161960" xmlns="http://www.w3.org/2000/svg" width="82.674" height="80.25" viewBox="0 0 82.674 80.25">
  <path id="Trazado_117335" data-name="Trazado 117335" d="M198.656,929.123a.247.247,0,0,1-.125-.036c-.019-.022-.242-.179-.263-.2q-4.941-5.018-9.9-10.01a4.106,4.106,0,0,0-3-1.266,10.682,10.682,0,0,0-3.637.907,19.335,19.335,0,0,1-2.326.756c-1.234.287-2.5.607-3.785.933-4.46,1.13-9.072,2.3-13.447,2.3h0q-.412,0-.821-.014c-11.99-.421-14.2-8.924-17-19.687l-.242-.928c-.5-1.915-1.189-4.069-1.919-6.35-2.85-8.905-6.4-19.988-2.03-27.132,2.175-3.558,7.076-5.3,11.1-6.427,3.279-.915,6.54-1.893,9.8-2.87,3.474-1.041,7.067-2.118,10.617-3.1,1.042-.286,2.187-.62,3.411-.978,5.791-1.689,13.721-4,20.522-4,4.219,0,7.575.9,9.976,2.675,6.055,4.478,7.821,13.008,9.378,20.535.29,1.4.573,2.768.875,4.073.183.79.374,1.591.567,2.4,2.018,8.448,4.105,17.183-.667,24.5-2.06,3.16-6.029,5.672-11.8,7.466a8.182,8.182,0,0,1-1.87.362c-1.895.174-1.967,1.044-2.158,3.366l-.033.4c-.308,3.68-.547,7.525-.731,11.75-.014.046-.024.09-.033.135a.365.365,0,0,1-.156.29A.559.559,0,0,1,198.656,929.123Z" transform="translate(-137.037 -849.948)" fill="#fff"/>
  <path id="Trazado_117336" data-name="Trazado 117336" d="M213.921,875.087c-1.964-8.489-3.124-19.656-10.661-25.23-8.77-6.486-25.751-.366-34.832,2.134-6.839,1.882-13.591,4.061-20.423,5.967-4.136,1.154-9.347,3-11.73,6.9-5.786,9.464,1.376,24.92,3.826,34.313,2.945,11.286,5.091,20.956,18.243,21.418,6.043.212,12.525-1.9,18.334-3.245,3.074-.713,5.793-2.863,7.961-.686q4.966,4.987,9.9,10.006a1.319,1.319,0,0,0,.522.394,1.372,1.372,0,0,0,1.517-.153,1.406,1.406,0,0,0,.631-.99,1.334,1.334,0,0,0,.038-.157c0-.013.008-.022.009-.035.171-3.943.4-7.875.733-11.807.323-3.859.064-2.186,3.31-3.194,4.55-1.415,9.675-3.757,12.378-7.905C219.179,894.374,216.017,884.145,213.921,875.087Zm-.885,22.336c-1.918,7.366-10.272,9.726-16.631,11.613a1.57,1.57,0,0,0-1.113,1.462c-.426,3.791-.69,7.6-.889,11.407-3.687-4.492-7.853-10.137-13.32-8.752-8.412,2.13-24.193,8.322-31.8,1.622-4.067-3.583-4.947-11.486-6.261-16.409-1.584-5.935-3.035-11.909-4.49-17.876-1.029-4.221-2.151-8.813-.331-12.974,2.452-5.607,10.863-6.674,16.041-8.195,9.938-2.919,19.817-6.1,30.025-7.965,4.994-.914,10.469-1.368,15.393.086,4.841,1.429,6.858,6.993,8.078,11.348,2.054,7.338,3.786,14.817,5.269,22.29A27.2,27.2,0,0,1,213.036,897.424Zm-21.722-33.541a10.07,10.07,0,0,1,2.107-3.037,11.338,11.338,0,0,1,2.944-2.81.275.275,0,0,1,.4.308,6.608,6.608,0,0,1-2.1,3.189,16.527,16.527,0,0,1-2.954,2.658A.275.275,0,0,1,191.314,863.883Zm5.308-.5c-.062.8-.615,1.138-1.241,1.55a4.709,4.709,0,0,1-1.831.82.3.3,0,0,1-.334-.435,4.914,4.914,0,0,1,1.545-1.622,1.932,1.932,0,0,1,1.634-.61A.3.3,0,0,1,196.622,863.387ZM161.4,901.129a10.407,10.407,0,0,1-1.722,3.573c-.576.823-1.1,1.976-2.2,2.086a.2.2,0,0,1-.194-.148c-.161-1.1.824-1.872,1.448-2.671.793-1.016,1.59-2,2.435-2.977C161.259,900.878,161.431,901,161.4,901.129Zm-3.876.442a3.258,3.258,0,0,1,1.952-1.724.312.312,0,0,1,.379.379,3.5,3.5,0,0,1-1.54,2.135A.582.582,0,0,1,157.522,901.571Zm6.366.183a2.352,2.352,0,0,1,.117,1.679,5.555,5.555,0,0,1-.506,1.825c-.228.372-.945.374-1.02-.133a4.206,4.206,0,0,1,.349-2.016,2.927,2.927,0,0,1,.762-1.393A.193.193,0,0,1,163.888,901.754Zm36.471-6.28a.474.474,0,0,1-.446.585c-1.022.121-1.91-1.054-2.572-1.695a28.87,28.87,0,0,1-2.257-2.275.131.131,0,0,1,.092-.222,5.16,5.16,0,0,1,3.036,1.367C198.941,893.792,200.217,894.5,200.359,895.474Zm-3.75-4.85c-.144-.062-.08-.261.039-.3,1-.35,2.676-.041,3.069,1.057a.19.19,0,0,1-.132.233,1.993,1.993,0,0,1-1.326-.305C197.713,891.069,197.156,890.86,196.609,890.624Zm-1.331,5.045a.542.542,0,0,1-.083.647c-.036.029-.071.057-.108.084a.541.541,0,0,1-.647-.084,4.814,4.814,0,0,1-1.328-2.187.178.178,0,0,1,.218-.218A3.545,3.545,0,0,1,195.278,895.669Zm-40.017-24.486a3.568,3.568,0,0,1,.523,1.052.214.214,0,0,1-.206.27,2.483,2.483,0,0,1-1.366-.382,13.907,13.907,0,0,1-1.224-.959c-.754-.641-1.648-1.172-1.875-2.2a.31.31,0,0,1,.215-.379c1.106-.228,1.865.536,2.612,1.236A13.325,13.325,0,0,1,155.261,871.183Zm2.089-.151a1.774,1.774,0,0,1-.806-.373,3.245,3.245,0,0,1-.69-.928,3.826,3.826,0,0,1-.716-1.983.753.753,0,0,1,1.119-.642,3.771,3.771,0,0,1,1.354,1.878,4.8,4.8,0,0,1,.369,1.068,1.733,1.733,0,0,1-.046.534A.466.466,0,0,1,157.349,871.032Zm-5.365,14.261c-1.08.635-3.052.872-3.972-.13a.255.255,0,0,1,0-.352,3.629,3.629,0,0,1,3.972-.5A.576.576,0,0,1,151.984,885.293Zm20.593-23.09a4.273,4.273,0,0,1,.207-2.358.264.264,0,0,1,.357-.093c1.48.668,1.578,3.4.571,4.527a.188.188,0,0,1-.229.03A2.858,2.858,0,0,1,172.577,862.2Zm30.367,13.2c-.441,1.284-2.815,1.6-3.919,1.093a.262.262,0,0,1-.053-.409,5.149,5.149,0,0,1,1.685-.954,2.829,2.829,0,0,1,1.873-.458A.6.6,0,0,1,202.943,875.4Zm-16.815,29.426a.277.277,0,0,1-.373.1c-.749-.377-.841-1.016-1.191-1.721a8.286,8.286,0,0,1-.731-1.827.37.37,0,0,1,.539-.415C185.528,901.56,186.866,903.565,186.128,904.829Zm4.777-34.8c-6.164-6.359-14.872-.232-17.85,6.572-2.491-2.807-5.616-4.807-9.634-4.208-4.112.614-6.072,4.968-6.534,8.591-1.442,11.3,12.218,18.674,21.5,19.74a.976.976,0,0,0,.989-.437C186.864,894.3,200.533,879.962,190.9,870.033ZM159.5,885.054c-.457-.862-.787-2.679.374-3.149.136-.056.26.06.306.174a4.292,4.292,0,0,1,.177,1.392c.021.447.1.878.093,1.326A.513.513,0,0,1,159.5,885.054ZM174.9,896.829c-3.23.131-6.107-1.819-8.594-3.685-2.143-1.608-4.607-3.824-5.5-6.433a.072.072,0,0,1,.1-.081c2.483,1.676,4.343,4.179,6.863,5.862,2.311,1.543,4.857,2.465,7.267,3.806A.287.287,0,0,1,174.9,896.829Zm10.183-25.781a.1.1,0,0,1,.023-.173c3.5-1.1,8.8,4.99,6.289,8.06a.287.287,0,0,1-.447-.058c-.9-1.46-.874-3.23-1.934-4.65A14.893,14.893,0,0,0,185.087,871.048Zm6.224,11.859a.229.229,0,0,1-.307-.081c-.292-.433-.115-.809-.009-1.283.093-.415.085-.789.431-1.065a.22.22,0,0,1,.3,0A1.829,1.829,0,0,1,191.311,882.907Z" transform="translate(-134.072 -846.971)"/>
</svg>
