<svg id="Grupo_161959" data-name="Grupo 161959" xmlns="http://www.w3.org/2000/svg" width="77.29" height="120.958" viewBox="0 0 77.29 120.958">
  <path id="Trazado_117337" data-name="Trazado 117337" d="M1400.245,1070.183c-1.433,0-2.819-1.733-4.575-3.928l-.516-.643a.5.5,0,0,1-.082-.154.448.448,0,0,1-.007-.418c5.032-10.313,10.646-20.692,15.514-29.612a.89.89,0,0,0-.781-1.316.826.826,0,0,0-.135.011c-1.624.249-3.2.454-4.694.608h0c-.393,0-1.051-.95-1.368-1.407-.161-.232-.309-.443-.441-.607-1.15-1.425-2.157-2.74-3.079-4.023-.087-.122-.066-.154-.044-.19a.8.8,0,0,0,.086-.174,1.047,1.047,0,0,0,.155-.2c4.61-8.175,9.7-16.157,14.521-23.564a.889.889,0,0,0-.745-1.375.822.822,0,0,0-.134.011l-2.818.425c-.222.033-.482.091-.757.153a6.862,6.862,0,0,1-1.337.213.992.992,0,0,1-.27-.028c-.48-.131-1.185-1.147-1.606-1.754-.193-.28-.372-.536-.531-.733l-.175-.22c-.853-1.064-1.734-2.164-2.5-3.3-.1-.149-.063-.2-.018-.256,6.913-11.81,12.961-24.259,18.809-36.3q2.287-4.7,4.58-9.386a.417.417,0,0,1,.29-.125c12.633-.067,25.467-.485,37.879-.888l.172-.006a.217.217,0,0,1,.227.113,1.257,1.257,0,0,0,.143.186,63.666,63.666,0,0,0,4.38,5.554.409.409,0,0,1-.015.615c-5.83,6.946-11.321,14.381-16.63,21.572q-1.946,2.638-3.9,5.267a.889.889,0,0,0,.713,1.42.9.9,0,0,0,.091,0l7.833-.806a.914.914,0,0,0,.2-.043.543.543,0,0,0,.1.017c.055.064.195.18.228.219,1.68,1.979,3.178,3.884,4.58,5.824a.5.5,0,0,1-.15.419c-7.07,8.239-14.447,16.459-21.579,24.407l-.163.181a.889.889,0,0,0,.662,1.484c.029,0,8.084-.775,8.084-.775a.717.717,0,0,0,.134-.023.658.658,0,0,0,.115.025c.044.032.105.073.111.08l.029.028a73.451,73.451,0,0,1,4.646,5.912.425.425,0,0,1-.068.341c-8.5,7.639-17.287,15.246-25.789,22.6q-4.98,4.309-9.952,8.627l-16.777,14.595a4.366,4.366,0,0,1-2.65,1.341Z" transform="translate(-1394.124 -950.115)" fill="#fff"/>
  <path id="Trazado_117338" data-name="Trazado 117338" d="M1467.889,954.882a1.289,1.289,0,0,0,0-1.774,63.789,63.789,0,0,1-4.364-5.534c-.019-.026-.04-.044-.059-.069a1.094,1.094,0,0,0-1.024-.552c-12.67.411-25.348.825-38.025.893a1.242,1.242,0,0,0-1.083.622c-7.5,15.251-14.709,30.845-23.29,45.527a1.051,1.051,0,0,0-.021,1.3c.836,1.24,1.782,2.408,2.716,3.575.617.77,1.554,2.5,2.594,2.788a7.746,7.746,0,0,0,2.735-.317q1.408-.215,2.816-.425c-5.043,7.755-10.015,15.571-14.55,23.612a.933.933,0,0,0-.217.332,1.008,1.008,0,0,0,.072,1.186c1,1.386,2.037,2.734,3.11,4.063.58.717,1.467,2.456,2.592,2.339,1.581-.164,3.162-.373,4.737-.614-5.346,9.8-10.644,19.628-15.533,29.647a1.277,1.277,0,0,0-.036,1.089,1.359,1.359,0,0,0,.232.432c3.237,4.018,5.067,6.787,9.019,3.343q8.385-7.3,16.776-14.6c11.936-10.385,23.986-20.658,35.752-31.236a1.242,1.242,0,0,0,.2-1.521,72.4,72.4,0,0,0-4.657-5.922c-.026-.037-.055-.068-.083-.1-.006-.006-.01-.012-.016-.018s-.008-.005-.014-.01a1.086,1.086,0,0,0-.33-.245,1.062,1.062,0,0,0-.159-.078l-.009,0a1,1,0,0,0-.576-.014q-4,.383-8,.77c7.312-8.147,14.625-16.294,21.754-24.6a1.261,1.261,0,0,0,.2-1.52c-1.463-2.025-3.006-3.975-4.623-5.878a1.382,1.382,0,0,0-.61-.5l-.014,0a.981.981,0,0,0-.668,0q-3.916.4-7.832.806C1454.1,972.669,1460.675,963.479,1467.889,954.882Zm-28.183,25.163c.151.278.335.543.5.8.309.48.616.967.943,1.438-1.107.1-2.214.208-3.321.306Q1438.768,981.315,1439.707,980.046Zm2.521,2.134c-.426-.687-.952-1.324-1.431-1.976a6.276,6.276,0,0,0-.635-.776q.751-1.021,1.5-2.045c.362.672.839,1.318,1.185,1.941a18.417,18.417,0,0,0,1.264,2.605c-.022.028-.044.056-.064.084C1443.441,982.071,1442.834,982.121,1442.228,982.179Zm14.36-24.755c.3.845.759,1.68,1.046,2.426.331.86.478,2.058.9,2.973-.468.613-.933,1.229-1.4,1.843-.255-.539-.583-1.054-.761-1.407-.449-.889-.806-2.6-1.535-3.571C1455.421,958.933,1456,958.176,1456.588,957.425Zm-2.477,3.211a22.507,22.507,0,0,0,1.095,2.62c.3.722.68,1.408.979,2.133.053.129.09.249.126.363q-.768,1.01-1.535,2.021c-.182-.5-.419-.99-.614-1.437a24.072,24.072,0,0,0-1.7-3.54C1453.007,962.073,1453.56,961.355,1454.11,960.636Zm-2.341,3.079c.211.642.547,1.269.8,1.848.376.854.8,1.674,1.118,2.556a7.256,7.256,0,0,1,.216.8c-.53.7-1.064,1.4-1.592,2.095a16.38,16.38,0,0,0-.857-1.8c-.455-.933-.918-2.094-1.5-3.086C1450.56,965.32,1451.166,964.518,1451.77,963.715Zm-2.556,3.412c.251.621.581,1.223.84,1.762a21.787,21.787,0,0,1,1.075,2.538c.114.336.165.588.258.811q-.913,1.213-1.825,2.43c-.422-.957-.848-1.912-1.324-2.843a21.5,21.5,0,0,0-1.062-1.943Q1448.194,968.5,1449.214,967.127Zm-2.679,3.623c.387.848.842,1.683,1.208,2.477a10.339,10.339,0,0,0,1.073,2.435q-.881,1.172-1.76,2.344a14.1,14.1,0,0,0-1.4-2.908,12.393,12.393,0,0,0-1.08-1.68Q1445.551,972.085,1446.534,970.75Zm-2.587,3.521c.274.463.58.913.817,1.347.6,1.1.974,2.293,1.526,3.407l-1.47,1.959a15.177,15.177,0,0,0-.966-1.771,11.428,11.428,0,0,0-1.657-2.557Q1443.071,975.464,1443.947,974.271Zm15.582-12.755c-.267-.885-.718-1.779-.982-2.447a12.313,12.313,0,0,0-1.215-2.585q.991-1.259,1.99-2.509c.222.682.554,1.349.823,1.961a22.833,22.833,0,0,1,.9,2.393c.1.324.145.624.223.91l-1.411,1.841C1459.748,961.225,1459.639,961.372,1459.529,961.517Zm2.13-10.4a17.92,17.92,0,0,0,.747,2.641,10.792,10.792,0,0,0,1.048,2.667c-.42.536-.846,1.068-1.261,1.608-.195-.6-.489-1.2-.685-1.672a18.322,18.322,0,0,0-1.527-3.209C1460.534,952.473,1461.1,951.8,1461.659,951.121Zm3.778,2.873a.508.508,0,0,0-.17.14c-.423.519-.831,1.051-1.247,1.576-.192-.75-.583-1.506-.818-2.169-.356-1-.639-2.027-1.073-2.992.086-.1.169-.2.254-.306.685.924,1.384,1.838,2.109,2.738A7.016,7.016,0,0,0,1465.437,953.994Zm-41.927-.228q.988-1.991,1.968-3.986c-.127.26,12.554.362,14.069.327q10.091-.231,20.177-.567c-9,10.916-17.194,22.586-25.645,33.912a1.261,1.261,0,0,0,1.083,1.888c5.78-.469,11.55-1.073,17.318-1.672-9.22,10.668-18.678,21.137-28.125,31.6-.648.717-.291,2.293.887,2.142,6.134-.781,12.3-1.375,18.455-1.961-15.684,14.039-31.655,27.771-47.552,41.57,4.454-8.81,9.147-17.508,13.883-26.174l0-.006q2.032-3.719,4.062-7.436a1.268,1.268,0,0,0-1.417-1.843c-4.339.67-8.665,1.411-12.987,2.167,6.039-10.486,12.763-20.615,19.364-30.745a1.262,1.262,0,0,0-1.083-1.889c-4.846.506-9.673,1.179-14.486,1.933C1410.755,980.291,1417.01,966.894,1423.51,953.766Zm31.01,33.331c.476,1.2.905,2.45,1.4,3.642-.446.512-.9,1.022-1.343,1.534a14.285,14.285,0,0,0-2.119-4.765q.787-.906,1.573-1.813A10.739,10.739,0,0,0,1454.52,987.1Zm-3.57,6.54a21.358,21.358,0,0,0-1.229-2.972c.764-.874,1.521-1.755,2.283-2.63.363,1.778,1.434,3.419,1.69,5.249-.658.75-1.312,1.5-1.973,2.25C1451.511,994.859,1451.178,994.193,1450.95,993.636Zm-3.582,2.625a10.924,10.924,0,0,0,.954,3.1c-.469.53-.943,1.057-1.415,1.586a16.819,16.819,0,0,0-.719-2c-.379-.9-.768-1.941-1.265-2.854q.984-1.111,1.967-2.221A15.8,15.8,0,0,0,1447.368,996.261Zm-5.933,10.826c-.346-.895-.711-1.782-1.025-2.691-.255-.739-.429-1.615-.765-2.367.6-.672,1.207-1.342,1.807-2.015a17.935,17.935,0,0,0,.743,2.253,8.643,8.643,0,0,0,1.2,2.628Q1442.412,1005.991,1441.435,1007.088Zm-10.911,5.087c.152.4.356.8.479,1.126a6.357,6.357,0,0,0,.352.882c-.985.108-1.968.228-2.952.343Zm.612-.676q1.228-1.362,2.456-2.723c.235.913.736,1.876.986,2.662.22.7.361,1.569.628,2.339q-1.47.151-2.94.31A7.074,7.074,0,0,0,1431.135,1011.5Zm4.347-.795a8.016,8.016,0,0,0-1.238-2.654q1.011-1.125,2.02-2.251a15.536,15.536,0,0,0,.624,1.613c.446,1.095.819,2.249,1.276,3.345-.65.725-1.293,1.454-1.943,2.178C1436.025,1012.137,1435.695,1011.333,1435.483,1010.7Zm2.823-2.842a29.719,29.719,0,0,0-1.195-3.007q.857-.954,1.711-1.908c.131.608.351,1.212.521,1.744a23.988,23.988,0,0,0,1.287,3.3c-.535.6-1.068,1.2-1.6,1.8A15.331,15.331,0,0,0,1438.306,1007.862Zm4.9-5.518c-.415-.956-.755-1.977-1.238-2.909.735-.822,1.461-1.651,2.193-2.475.151.482.352.955.533,1.411a20.371,20.371,0,0,1,1.246,3.668q-1.005,1.131-2.014,2.259A8.561,8.561,0,0,0,1443.2,1002.345Zm2.11,21.467c-.61-1.595-1.246-3.183-1.892-4.761.767-.685,1.541-1.365,2.306-2.052a14.852,14.852,0,0,0,.69,2.6,25.615,25.615,0,0,0,.766,2.573Q1446.25,1022.993,1445.314,1023.812Zm-5.66,4.954a28.721,28.721,0,0,1-1.207-2.739c-.211-.611-.4-1.311-.678-1.948.716-.634,1.427-1.271,2.141-1.9.28.876.678,1.762.956,2.549a12.344,12.344,0,0,0,.884,2.215Q1440.7,1027.853,1439.654,1028.765Zm-2.768,2.413a25.124,25.124,0,0,1-1.357-2.817c-.215-.546-.39-1.16-.637-1.725.712-.628,1.414-1.263,2.126-1.891.151.677.382,1.348.581,1.951a11.056,11.056,0,0,0,1.222,2.794Q1437.854,1030.336,1436.886,1031.178Zm-2.867,2.5c-.352-.944-.7-1.89-1.085-2.82a11.265,11.265,0,0,0-.841-1.773c.7-.618,1.413-1.23,2.117-1.848.17.724.436,1.449.643,2.094a8.158,8.158,0,0,0,1.252,2.527Zm-5.488,4.786c-.281-.651-.608-1.288-.889-1.932a16.035,16.035,0,0,0-1.215-2.494l1.9-1.662c.173.56.423,1.109.6,1.574a13.459,13.459,0,0,0,1.341,3Zm-27.988,24.364a21.289,21.289,0,0,0-.971-2.155c-.384-.751-.667-1.619-1.076-2.378q1.086-.943,2.174-1.884a16.857,16.857,0,0,0,.808,1.774c.4.822.713,1.913,1.223,2.765Q1401.621,1061.888,1400.543,1062.828Zm-3.15.156a11.7,11.7,0,0,0-1.354-2.557l1.765-1.532a11.037,11.037,0,0,0,.569,1.459c.463,1.052.994,2.071,1.4,3.144l-1.525,1.326C1398.014,1064.163,1397.628,1063.5,1397.393,1062.985Zm5.321-4.5a29.6,29.6,0,0,0-1.343-2.679q1.1-.956,2.206-1.913a17.788,17.788,0,0,0,.89,2.054,26.051,26.051,0,0,0,1.1,2.514l-1.974,1.718C1403.348,1059.579,1402.983,1059,1402.713,1058.481Zm2.83-2.638a18.186,18.186,0,0,0-1.24-2.584q1.013-.879,2.025-1.756a19.728,19.728,0,0,0,.776,1.982,24.527,24.527,0,0,0,1.116,2.663l-1.767,1.537C1406.185,1057.052,1405.833,1056.438,1405.544,1055.843Zm2.657-1.92c-.439-.941-.821-1.965-1.333-2.889l2.148-1.861a17.063,17.063,0,0,0,.8,1.775c.362.773.711,1.549,1,2.354.063.174.1.326.139.468l-2,1.739C1408.738,1054.965,1408.443,1054.441,1408.2,1053.922Zm3.005-2.225a25.509,25.509,0,0,0-1.456-3.162l2.117-1.835a168.519,168.519,0,0,0,2.151,4.4q-1.1.955-2.194,1.908C1411.644,1052.54,1411.372,1052.07,1411.206,1051.7Zm2.442-3.079c-.406-.749-.759-1.636-1.221-2.4q1.1-.956,2.207-1.913c.183.456.411.9.6,1.313a19.667,19.667,0,0,0,1.485,3.137l-2.095,1.821A9.219,9.219,0,0,0,1413.647,1048.618Zm2.682-2.548c-.381-.727-.677-1.561-1.031-2.344l1.886-1.635a12.948,12.948,0,0,0,.618,1.558,24,24,0,0,0,1.337,3l-1.748,1.521A13.251,13.251,0,0,0,1416.33,1046.07Zm2.608-2.031c-.386-.805-.692-1.7-1.1-2.51l1.924-1.668c.139.439.338.869.517,1.289.458,1.077.862,2.243,1.4,3.29l-1.782,1.55C1419.635,1045.313,1419.231,1044.654,1418.937,1044.039Zm2.508-2.522c-.317-.7-.6-1.529-1.01-2.244.7-.61,1.4-1.226,2.105-1.837.225.769.616,1.525.9,2.223.325.814.578,1.658.874,2.484q-.956.832-1.911,1.667A17.583,17.583,0,0,0,1421.445,1041.517Zm2.985-2.132a13.455,13.455,0,0,0-1.141-2.6q1.325-1.155,2.647-2.314a17.314,17.314,0,0,0,.7,2.01,28.6,28.6,0,0,0,1.1,2.68q-1.289,1.123-2.576,2.246C1424.944,1040.722,1424.683,1040.049,1424.431,1039.385Zm5.371-5.674c-.234-.588-.422-1.339-.707-2,.754-.66,1.512-1.319,2.264-1.979.2.647.511,1.288.736,1.864.369.943.708,1.9,1.043,2.854l-2.13,1.858C1430.682,1035.42,1430.131,1034.534,1429.8,1033.71Zm12.558-7.788c-.358-.722-.609-1.5-.9-2.247a13.027,13.027,0,0,0-.9-2.081q1.05-.93,2.1-1.863a41.423,41.423,0,0,0,1.861,4.779c-.661.578-1.319,1.16-1.98,1.738C1442.477,1026.141,1442.417,1026.035,1442.36,1025.922Zm-33.109,1.113a14.78,14.78,0,0,0-.746-1.553c-.1-.2-.2-.43-.316-.661q1.246-.206,2.494-.406Zm-5.407.873a18.053,18.053,0,0,0-1.375-2.124c.616-.106,1.231-.215,1.848-.321a11.012,11.012,0,0,0,.991,2.082,14.455,14.455,0,0,0,.927,1.835c-.48.074-.962.146-1.444.21A9.955,9.955,0,0,0,1403.844,1027.907Zm9.443-31.983c-.13-.544-.226-1.148-.372-1.726.849-.107,1.7-.208,2.552-.307q-.959,1.471-1.92,2.941C1413.459,996.506,1413.35,996.191,1413.286,995.924Zm-9.993-.342c.858-.136,1.716-.272,2.576-.4a17.264,17.264,0,0,0,.667,2.271c.156.466.239,1.028.38,1.551l-.753.114C1405.171,997.978,1404.2,996.8,1403.293,995.582Zm4.624,3.268a12.529,12.529,0,0,0-.436-1.26,17.322,17.322,0,0,0-1.114-2.484q1.213-.183,2.43-.355c.116.767.27,1.53.431,2.289a10.549,10.549,0,0,0,.352,1.556Zm2.8-.424c-.114-.569-.421-1.181-.539-1.645a10.6,10.6,0,0,0-.695-2.129c.821-.115,1.645-.22,2.467-.327a13.264,13.264,0,0,0,.228,1.542,5.909,5.909,0,0,0,.615,2.127c-.029.043-.056.087-.086.13C1412.039,998.223,1411.376,998.328,1410.713,998.427Zm-9.112,30.554c-.729-.875-1.428-1.774-2.115-2.681q.89-.156,1.78-.309c.392.756.98,1.461,1.414,2.151.254.4.489,1.054.793,1.613-.271.033-.539.072-.809.1C1401.542,1029.987,1402.372,1029.906,1401.6,1028.981Zm5.671.223a9.866,9.866,0,0,0-1.047-2.2,10.667,10.667,0,0,0-.95-1.712c.62-.1,1.241-.2,1.862-.3.1.322.254.641.354.917a9.188,9.188,0,0,0,.989,2.089.557.557,0,0,0,.161.152q-.246.454-.494.906C1407.857,1029.111,1407.564,1029.154,1407.272,1029.2Zm-13.435,33.133,1.507-1.307c.291.717.79,1.454,1.049,2.032.337.751.677,1.5.973,2.266.02.051.04.1.059.146C1396,1066.243,1394.989,1064.147,1393.837,1062.337Zm56.369-42.831q-.632.563-1.268,1.125c-.263.233-.529.464-.794.7-.179-.511-.418-1.015-.576-1.479a33.466,33.466,0,0,0-1.164-3.451c.291-.261.584-.517.875-.778.679.781,1.337,1.58,1.948,2.417A17.145,17.145,0,0,1,1450.206,1019.506Zm-1.02-21.11c-.149-.646-.439-1.289-.625-1.9a29.346,29.346,0,0,0-1.07-3.3c.542-.615,1.088-1.227,1.629-1.843a12.886,12.886,0,0,0,.729,2.091c.278.734.548,1.467.777,2.218.092.3.14.6.206.883-.069.077-.136.155-.2.233C1450.15,997.321,1449.666,997.856,1449.187,998.4Zm8.177-9.3c-.255.294-.515.585-.77.878a15.5,15.5,0,0,0-.769-2c-.325-.765-.625-1.537-.935-2.307a6.777,6.777,0,0,1-.222-.7c.272-.315.547-.626.818-.941.863,1.024,1.7,2.066,2.5,3.145C1459.022,988.536,1458.558,987.718,1457.363,989.1Zm-49,.243a315.805,315.805,0,0,1,15.987-32.466c.037-.066.153-.02.125.053a279.26,279.26,0,0,1-15.825,32.532C1408.561,989.614,1408.29,989.509,1408.359,989.342Zm16.344-33.581a2.135,2.135,0,0,1,.311-1.226,1.333,1.333,0,0,1,.655-.8.139.139,0,0,1,.207.118c.013.607-.364,1.858-1.053,1.977A.1.1,0,0,1,1424.7,955.761Zm5.187,50.75c3.787-6.08,8.843-11.528,13.891-16.576.1-.1.242.047.152.152-4.678,5.479-9.243,11.04-13.889,16.542C1429.97,1006.715,1429.83,1006.6,1429.889,1006.511Zm14.559-17.316c.195-.663.679-1.471,1.411-1.591a.14.14,0,0,1,.169.169c-.112.688-.855,1.194-1.407,1.554A.119.119,0,0,1,1444.448,989.195Zm-36.214,54.452a149.446,149.446,0,0,1,18.036-15.914c.175-.13.368.145.226.292-5.527,5.745-12.024,10.634-18.08,15.8C1408.292,1043.934,1408.12,1043.767,1408.235,1043.647Zm19.307-16.567a.132.132,0,0,1-.127-.128c-.062-.674.927-1.283,1.5-1.4.1-.02.226.068.181.182C1428.887,1026.268,1428.183,1027.151,1427.542,1027.08Z" transform="translate(-1390.953 -946.953)"/>
</svg>
