<svg xmlns="http://www.w3.org/2000/svg" xmlns:xlink="http://www.w3.org/1999/xlink" width="293.001" height="248" viewBox="0 0 293.001 248">
  <defs>
    <clipPath id="clip-path">
      <rect id="Rect치ngulo_338256" data-name="Rect치ngulo 338256" width="293" height="248" rx="11" transform="translate(0.001)" fill="#c4d1ff"/>
    </clipPath>
    <clipPath id="clip-path-2">
      <rect id="Rect치ngulo_338255" data-name="Rect치ngulo 338255" width="277.756" height="614.813" transform="translate(0 0)" fill="none"/>
    </clipPath>
  </defs>
  <g id="Grupo_982333" data-name="Grupo 982333" transform="translate(0)">
    <path id="Trazado_204386" data-name="Trazado 204386" d="M11,0H282a11,11,0,0,1,11,11V237a11,11,0,0,1-11,11H11A11,11,0,0,1,0,237V11A11,11,0,0,1,11,0Z" transform="translate(0)" fill="#ffe891"/>
    <g id="Enmascarar_grupo_418" data-name="Enmascarar grupo 418" clip-path="url(#clip-path)">
      <g id="Grupo_982373" data-name="Grupo 982373" transform="translate(7.622 8)">
        <g id="Grupo_982373-2" data-name="Grupo 982373" transform="translate(0 0)" clip-path="url(#clip-path-2)">
          <path id="Trazado_204254" data-name="Trazado 204254" d="M102.249,322.242c-1.661-4.009-4.509-10.825-26.277-33.053-16.329-16.674-49.506-44.8-58.017-43.759s-24.14,27.463-5.481,53.537,62.145,46.153,69.142,46.681,26.853-8.392,20.633-23.4" transform="translate(172.775 -143.301)" fill="#543139"/>
          <path id="Trazado_204255" data-name="Trazado 204255" d="M97.988,367.081a41.747,41.747,0,0,0-5.542.491,12.015,12.015,0,0,0-5.093,1.788c-.7.507-1.372-.657-.678-1.16a12.857,12.857,0,0,1,5.414-1.924,44.47,44.47,0,0,1,5.9-.539c.865-.03.863,1.313,0,1.343" transform="translate(143.18 -213.57)" fill="#381b21"/>
          <path id="Trazado_204256" data-name="Trazado 204256" d="M133.133,1201.816c-.59,3.859,33.89,18.06,67.135,13.5,34.276-4.7,52.35-3.214,74.507-6.449s50.54-1.088,43.6-12.77-183.366-6.543-185.243,5.722" transform="translate(-97.074 -694.614)" fill="#e85f62"/>
          <path id="Trazado_204257" data-name="Trazado 204257" d="M325.535,1345.954c-1.618,1.6-.586,18.271-.419,22.346.087,2.327-.472,5.222,4.259,6.253,1.95.428,3.839,1.1,3.839-.9l1.067,1.356a51.447,51.447,0,0,1,3.962,5.808c2.5,4.329,8.738,13.408,18.543,16.688,9.245,3.087,18.638.708,22.46-.367a2.588,2.588,0,0,0,1.889-2.414l-.717-5.694c-.262-1.058-9.271-8.125-17.894-18.944-12.227-15.323-26.37-34.609-36.988-24.13" transform="translate(-238.447 -784.216)" fill="#290d14"/>
          <path id="Trazado_204258" data-name="Trazado 204258" d="M83.815,1258.606c-.859,6.1-1.262,12.269,1.467,14.42,5.138,4.052,7.906-.509,7.906-.509s1.011-3.619,1.908-.616a30.614,30.614,0,0,0,3.466,7.442c4.31,5.222,10.315,11.965,14.633,14.573.121.068.243.144.357.205s.235.129.349.19c7.343,3.8,23.254,6.134,30.6,3.094.092-.038.183-.076.274-.121.175-.076.35-.16.5-.243,2.288-1.232,2.554-2.957,2.607-4.918.114-4.151-5.253-7.974-8.7-10.482-9.791-7.093-16.473-14.694-19.514-26.1s-4.783-67.36-4.783-67.36l-6.86-5.884c-14.82-2.08-22.448,9.691-25.237,11.212s1.663,46.571,2.491,51.892a23.009,23.009,0,0,1-.35,5.831c-.243,1.71-.555,3.611-.851,5.557,0,.022-.008.045-.008.068-.083.593-.175,1.178-.258,1.748" transform="translate(95.795 -690.25)" fill="#543139"/>
          <path id="Trazado_204259" data-name="Trazado 204259" d="M84.616,1381.307c9.46,2.534,11.656-.558,11.656-.558s-3.177-6.861-2.28-3.858a30.62,30.62,0,0,0,3.466,7.442,47.64,47.64,0,0,0,14.633,14.572c.121.069.243.144.357.206s.236.129.35.19c7.343,3.8,23.254,6.135,30.6,3.094.092-.038.183-.076.274-.121.175-.076.342-.159.5-.243.186-.1.353-.2.513-.31a4.1,4.1,0,0,0,2.095-4.608A24.557,24.557,0,0,1,132,1399.8c-19.2-2.022-27.115-11.243-30.658-17.225-4.69-7.921-7.6-13.432-9.259-16.45-1.034-1.893-9.115-2.721-9.115-4.28-.083.593-.175,1.178-.258,1.748-1.033,6.652-2.481,16.537,1.906,17.712" transform="translate(96.9 -795.239)" fill="#381b21"/>
          <path id="Trazado_204260" data-name="Trazado 204260" d="M223.778,1288.321a50.334,50.334,0,0,1,.332,8.055,17.525,17.525,0,0,1-2.377,7.371.672.672,0,0,1-1.16-.678,16.043,16.043,0,0,0,2.223-7.11,55.413,55.413,0,0,0-.362-7.638c-.068-.862,1.275-.857,1.343,0" transform="translate(-38.158 -751.928)" fill="#381b21"/>
          <path id="Trazado_204261" data-name="Trazado 204261" d="M142.379,1394.658a14.186,14.186,0,0,0-9.1,2.463c-.714.49-1.386-.673-.678-1.16a15.371,15.371,0,0,1,9.776-2.646c.857.063.864,1.407,0,1.343" transform="translate(79.687 -813.591)" fill="#381b21"/>
          <path id="Trazado_204262" data-name="Trazado 204262" d="M362.368,1201.2c-3.51,23.856-4.228,62.23-2.187,66.312s6.5,17.152,17.964,28.377c4.275,4.184,8.469,12.439,2.624,14.206-7.677,2.322-25.606,2.352-35.456-12.457a279.413,279.413,0,0,1-15.908-26.572,17.327,17.327,0,0,1-1.806-9.262,14.734,14.734,0,0,0-.007-2.649c-.314-2.915-2.936-46.842-1.14-50.625s36.925-14.19,35.915-7.329" transform="translate(-241.453 -700.097)" fill="#543139"/>
          <path id="Trazado_204263" data-name="Trazado 204263" d="M320.84,714.235c1.356,3.507,7.491,124.986,2.025,126.735s-55.6-11.078-92.925,4.082-82.156,9.487-93.148-3.033c-17.965-20.464,5.362-33.409,13.395-69.706s38.949-200.221,56.434-200.181,80.087-4.539,88.727,13.493S316.7,703.532,320.84,714.235" transform="translate(-101.491 -333.805)" fill="#e85f62"/>
          <path id="Trazado_204264" data-name="Trazado 204264" d="M295.977,1209.318a141.415,141.415,0,0,0-25.273,3.915c-7.224,1.666-14.414,3.482-21.615,5.242l-11.453,2.8c-.84.205-1.2-1.09-.357-1.3l19.778-4.833c8.18-2,16.352-4.106,24.655-5.545a114.17,114.17,0,0,1,14.266-1.625c.864-.04.862,1.3,0,1.343" transform="translate(-117.391 -705.386)" fill="#c23e41"/>
          <path id="Trazado_204265" data-name="Trazado 204265" d="M245.8,829.161a64.3,64.3,0,0,0,1.069,6.739c.69,3.662,1.448,7.311,2.22,10.956,1.777,8.384,3.651,16.747,5.537,25.107,1.551,6.875,3.328,13.755,4.274,20.745,1.752,12.939.8,25.931-.615,38.85-1.43,13.071-3.041,26.151-2.433,39.327q.124,2.671.361,5.334c.076.861-1.268.855-1.343,0-1.18-13.375.066-26.7,1.553-39.995,1.437-12.846,2.829-25.754,1.678-38.684-.69-7.755-2.525-15.279-4.235-22.851-1.866-8.262-3.725-16.526-5.5-24.808-1.387-6.462-2.926-12.965-3.777-19.527-.052-.4-.1-.794-.13-1.193-.069-.862,1.275-.857,1.343,0" transform="translate(-83.803 -483.806)" fill="#c23e41"/>
          <path id="Trazado_204266" data-name="Trazado 204266" d="M228.06,615.584a331.879,331.879,0,0,1,8.365,48.889c1.38,13.688,2.064,27.433,3.417,41.122a195.04,195.04,0,0,0,2.877,20.039c.173.843-1.121,1.2-1.3.357-2.5-12.193-3.383-24.661-4.309-37.051-1.111-14.869-2.273-29.737-4.55-44.483q-2.222-14.387-5.8-28.517a.672.672,0,0,1,1.3-.357" transform="translate(-59.316 -359.187)" fill="#c23e41"/>
          <path id="Trazado_204267" data-name="Trazado 204267" d="M387.731,1168.943c1.227-11.625,8.4-21.379,10.964-32.626a28.632,28.632,0,0,0,.629-9.513c-.094-.858,1.249-.851,1.343,0,1.279,11.675-5.585,22.036-9.3,32.615a42.185,42.185,0,0,0-2.289,9.524c-.09.851-1.434.86-1.343,0" transform="translate(-284.385 -657.613)" fill="#c23e41"/>
          <path id="Trazado_204268" data-name="Trazado 204268" d="M295.652,627.37a65.771,65.771,0,0,0-1.053,10.1c-.226,4.582-.278,9.172-.283,13.76-.011,9.719.246,19.435.32,29.152.03,3.959.071,7.933-.168,11.886-.052.859-1.4.865-1.343,0,.486-8.047.127-16.168.006-24.22-.147-9.758-.342-19.535.067-29.289a73.031,73.031,0,0,1,1.16-11.746c.176-.846,1.47-.488,1.3.357" transform="translate(-139.799 -365.857)" fill="#c23e41"/>
          <path id="Trazado_204269" data-name="Trazado 204269" d="M146.619,1128.924a154.622,154.622,0,0,0-4.738-25.318.672.672,0,0,1,1.295-.357,156.754,156.754,0,0,1,4.786,25.675c.087.859-1.257.853-1.343,0" transform="translate(70.77 -643.956)" fill="#c23e41"/>
          <path id="Trazado_204270" data-name="Trazado 204270" d="M515.973,1118.872q-4.365,16.565-8.732,33.129l-2.513,9.535a.672.672,0,0,1-1.3-.357q4.366-16.564,8.732-33.129l2.513-9.535a.672.672,0,0,1,1.295.357" transform="translate(-447.69 -652.87)" fill="#c23e41"/>
          <path id="Trazado_204271" data-name="Trazado 204271" d="M470.537,555.391l3.3,3.467,3.527-6.425-3.564-2.275a1.573,1.573,0,0,0-2.28.678l-1.276,2.821a1.574,1.574,0,0,0,.294,1.733" transform="translate(-395.198 -321.117)" fill="#543139"/>
          <path id="Trazado_204272" data-name="Trazado 204272" d="M335.813,211.747c.026-2.916-1.514-10.93-22.185-14.623-15.614-2.79-30.961-6.322-37.569,8.7-2.918,6.634,5.993,28.322,20.408,30.366,14.37,2.038,39.163-4.245,39.346-24.443" transform="translate(-172.685 -113.662)" fill="#543139"/>
          <path id="Trazado_204273" data-name="Trazado 204273" d="M271.089,227.436c1.881,1.427,34.8,35.1,33.633,54.26s-2.672,91.926-4.226,94.38-55.307,7.383-66.919-1.946-22.557-43.416-21.38-58.15,16.517-86.542,17.739-88.544c6.65-10.893,35.583-4.227,41.154,0" transform="translate(-115.246 -129.351)" fill="#fce0d9"/>
          <path id="Trazado_204274" data-name="Trazado 204274" d="M244.97,570.619a38.148,38.148,0,0,1-13.255-8.625,59.651,59.651,0,0,1-9.493-12.823.672.672,0,0,1,1.16-.678c5.144,8.987,12.049,17.04,21.946,20.831.8.306.452,1.605-.357,1.3" transform="translate(-60.441 -320.098)" fill="#edb1a6"/>
          <path id="Trazado_204275" data-name="Trazado 204275" d="M335.925,447.963a163.707,163.707,0,0,1-7.117,27.976c-.284.81-1.582.461-1.295-.357a163.794,163.794,0,0,0,7.118-27.976c.138-.851,1.432-.49,1.295.357" transform="translate(-194.427 -261.093)" fill="#edb1a6"/>
          <path id="Trazado_204276" data-name="Trazado 204276" d="M378.427,213.546s6.126,6.449,11.62,32.445,7.469,212.192,13.284,245.622,21.431,90.567,4.622,92.083c-15.036,1.356-95.025,12.6-112.555-2.289-8.6-7.307,26.028-173.369,31.793-190.473s8.51-56.46,12.785-77.309-16.219-69.9-11.555-80.911,60.533-30.764,50.005-19.168" transform="translate(-260.097 -122.638)" fill="#543139"/>
          <path id="Trazado_204277" data-name="Trazado 204277" d="M500.945,621.268c-.848,15.328-5.271,30.108-8.92,44.929a76.761,76.761,0,0,0-1.905,11.326c-.343,3.694-.511,7.408-1.006,11.086a58.881,58.881,0,0,1-4.33,15.256c-1.085,2.557-2.221,5.091-3.2,7.693a77.667,77.667,0,0,0-3.061,10.382c-.188.843-1.483.486-1.295-.357a91.068,91.068,0,0,1,5.5-16.3,64.885,64.885,0,0,0,4.692-14.434c1.284-7.246,1.041-14.673,2.575-21.888,1.584-7.453,3.767-14.783,5.517-22.2a146.5,146.5,0,0,0,4.093-25.489c.048-.86,1.391-.865,1.343,0" transform="translate(-421.738 -362.407)" fill="#381b21"/>
          <path id="Trazado_204278" data-name="Trazado 204278" d="M383.265,335.943c-1.443-11.376-4.706-22.417-8.33-33.265-1.824-5.461-3.744-10.889-5.59-16.342-.914-2.7-1.81-5.407-2.667-8.126-.7-2.227-1.3-4.487-2.169-6.654-1.132-2.808-3.682-8.244.216-10.068,2.6-1.217,5.856-1.314,8.139-3.184,1.111-.91,1.043-2,.238-3.121a27.287,27.287,0,0,0-5.117-5.055c-3.825-3.085-8.148-5.475-12.31-8.06-2.053-1.276-4.079-2.6-6-4.07a9.653,9.653,0,0,1-2.411-2.271,6.144,6.144,0,0,1-.9-2.916c-.353-5.075,3.635-8.314,6.743-11.688.3-.323.594-.647.881-.979.565-.656,1.512.3.949.949-2.62,3.04-6.354,5.623-7.119,9.8a6.514,6.514,0,0,0,.142,3.2,5.456,5.456,0,0,0,2.11,2.533,68.664,68.664,0,0,0,6.056,4.148c4.037,2.518,8.208,4.847,11.982,7.761a36.355,36.355,0,0,1,5.3,4.924c.972,1.121,2.02,2.511,1.581,4.088-.735,2.645-4.567,3.528-6.823,4.195-1.323.391-3.524.7-4.017,2.166-.58,1.725.335,3.9.94,5.5.711,1.88,1.425,3.707,2.009,5.633.812,2.677,1.669,5.339,2.55,7.994,1.8,5.415,3.7,10.8,5.536,16.2,3.638,10.694,7.051,21.526,8.848,32.7q.321,2,.573,4.013c.109.855-1.236.847-1.343,0" transform="translate(-250.959 -128.422)" fill="#381b21"/>
          <path id="Trazado_204279" data-name="Trazado 204279" d="M381.455,202.988c0,.8,0,1.592,0,2.388a9.994,9.994,0,0,0,.165,2.231,15.362,15.362,0,0,0,.729,1.983,4.187,4.187,0,0,1,.27,2.123.676.676,0,0,1-.826.469.69.69,0,0,1-.469-.826,3.642,3.642,0,0,0-.431-1.809,8.816,8.816,0,0,1-.654-2.041,29.6,29.6,0,0,1-.122-4.518.672.672,0,0,1,1.343,0" transform="translate(-263.037 -118.155)" fill="#381b21"/>
          <path id="Trazado_204280" data-name="Trazado 204280" d="M451.815,549.933c.709.325,1.282.669,1.445,1.482a11.492,11.492,0,0,1-.111,3.15,50.975,50.975,0,0,1-1.064,6.551c-.5,2.208-1.119,4.387-1.792,6.547a5.117,5.117,0,0,1-1.023,2.351c-.7.616-1.805.457-2.661.476-1.524.035-3.729.439-5.006-.652a3.014,3.014,0,0,1-.871-2.163c-.105-.954-.159-1.915-.175-2.875a39.986,39.986,0,0,1,1.581-11.708c.3-1.028.641-2.043,1.038-3.037.323-.81.565-1.7,1.574-1.776a12.179,12.179,0,0,1,3.47.425,19.93,19.93,0,0,1,3.6,1.229c.789.348.107,1.505-.678,1.16a16.861,16.861,0,0,0-5.187-1.408c-.218-.02-.977-.184-1.148-.063-.214.151-.385.921-.475,1.155q-.408,1.061-.739,2.149a38.976,38.976,0,0,0-1.644,9.419,34.388,34.388,0,0,0,.057,4.565c.057.694-.01,1.685.7,2.049a4.349,4.349,0,0,0,2.05.232c.876-.018,1.752-.04,2.629-.061.39-.009.858.066,1.1-.287a5.382,5.382,0,0,0,.465-1.385c.535-1.709,1.036-3.428,1.473-5.165a54.966,54.966,0,0,0,1.177-5.935q.208-1.521.3-3.055a6.634,6.634,0,0,0,.056-1.5c-.082-.45-.433-.53-.822-.708-.785-.359-.1-1.517.678-1.16" transform="translate(-358.881 -320.153)" fill="#381b21"/>
          <path id="Trazado_204281" data-name="Trazado 204281" d="M473.9,551.351c-2.635-1.718-5.378-3.268-8.013-4.986-.721-.47-.049-1.633.678-1.16,2.635,1.718,5.378,3.268,8.013,4.986.721.47.049,1.633-.678,1.16" transform="translate(-390.84 -318.304)" fill="#381b21"/>
          <path id="Trazado_204282" data-name="Trazado 204282" d="M477.08,567.686a17.161,17.161,0,0,1-4.678-2.734,22.042,22.042,0,0,1-2.275-1.947,7.527,7.527,0,0,1-1.49-1.92c-.379-.773.779-1.455,1.16-.678a6.227,6.227,0,0,0,1.28,1.648,19.768,19.768,0,0,0,2.09,1.8,16.617,16.617,0,0,0,4.27,2.532c.814.277.465,1.574-.357,1.3" transform="translate(-395.094 -327.046)" fill="#381b21"/>
          <path id="Trazado_204283" data-name="Trazado 204283" d="M402.988,682.3q1,17.88,1.991,35.761l.493,8.857c.154,2.775.473,5.6.431,8.376-.032,2.128-.778,4.107-2.99,4.739a25.955,25.955,0,0,1-3.611.577q-1.9.259-3.809.484c-10.16,1.186-20.694,1.527-30.646-1.214a46.782,46.782,0,0,1-7.161-2.61c-2.078-.958-4.284-1.984-5.2-4.229s-.5-4.845-.325-7.191l.662-8.842q1.33-17.767,2.659-35.535l.337-4.5a.681.681,0,0,1,.85-.647,142.982,142.982,0,0,0,34.435,5.208q4.989.137,9.978-.075c.865-.036.863,1.307,0,1.343a144.518,144.518,0,0,1-35.072-2.83q-4.889-1.005-9.7-2.351l.85-.648q-1.273,17.017-2.547,34.034c-.423,5.646-.874,11.29-1.267,16.938-.155,2.224-.234,4.781,1.667,6.321a15.245,15.245,0,0,0,3.219,1.788q1.681.782,3.427,1.41c9.35,3.384,19.5,3.594,29.3,2.753,2.486-.213,4.966-.5,7.439-.825,1.252-.166,2.534-.287,3.769-.557a2.643,2.643,0,0,0,2.233-2.067,11.4,11.4,0,0,0,.09-3.329q-.116-2.089-.233-4.178-.237-4.261-.475-8.523-.949-17.044-1.9-34.089l-.242-4.345c-.048-.864,1.3-.861,1.343,0" transform="translate(-274.567 -394.916)" fill="#381b21"/>
          <path id="Trazado_204284" data-name="Trazado 204284" d="M406.276,723.9a99.071,99.071,0,0,1-19.137.784,135.859,135.859,0,0,1-18.723-2.575c-3.572-.712-7.126-1.51-10.676-2.324-.842-.193-.486-1.488.357-1.3,12.2,2.8,24.489,5.3,37.065,4.981a97.235,97.235,0,0,0,10.756-.867c.845-.116,1.211,1.178.357,1.3" transform="translate(-277.648 -419.548)" fill="#381b21"/>
          <path id="Trazado_204285" data-name="Trazado 204285" d="M394.157,575.963a102.852,102.852,0,0,1,20.409,73.7c-1.249,10.769-4.211,21.271-5.767,32a124.046,124.046,0,0,0,1.284,42.825l-6.719,4.668c-1.495-22.641-2.975-45.558,1.109-67.878,1.5-8.2,3.753-16.331,3.923-24.666a99.637,99.637,0,0,0-1.207-14.99c-1.82-13.842-4.233-28.877-14.493-38.346Z" transform="translate(-300.848 -336.329)" fill="#543139"/>
          <path id="Trazado_204286" data-name="Trazado 204286" d="M393.155,574.386c7.141,5.359,11.9,13.175,15.111,21.39a99.782,99.782,0,0,1,6.139,29.31,129.166,129.166,0,0,1-1.77,31.958c-1.2,6.671-2.758,13.273-3.914,19.952a68.039,68.039,0,0,0-1.127,10.109,59.641,59.641,0,0,0,.573,9.435c.856,6.228,2.49,12.314,3.9,18.43a11.3,11.3,0,0,1,.608,4.229,4.756,4.756,0,0,1-1.952,3.021c-2.045,1.6-4.057,3.233-6.1,4.826-.744.579-1.489,1.158-2.261,1.7a.678.678,0,0,1-1.011-.58c-.792-11.992-1.578-24-1.539-36.023a181.708,181.708,0,0,1,3.343-35.5,156.515,156.515,0,0,0,3.026-17.347c.522-5.984-.122-11.921-.9-17.853-1.238-9.454-2.55-19.234-6.685-27.934a38.709,38.709,0,0,0-3.483-5.955,31.531,31.531,0,0,0-2.178-2.708q-.552-.613-1.134-1.2c-.338-.339-1.031-.778-1.107-1.272a2.853,2.853,0,0,1,.136-.888l.366-1.831q.409-2.048.818-4.1l.154-.773c.169-.847,1.464-.488,1.3.357q-.731,3.659-1.462,7.318l-.173-.653c6.117,5.692,9.559,13.466,11.617,21.437a117.427,117.427,0,0,1,2.377,12.326c.705,4.807,1.4,9.644,1.745,14.493a65.3,65.3,0,0,1-.825,15.275c-.852,5.178-2.09,10.282-3.022,15.446a180.263,180.263,0,0,0-2.566,31.681c-.023,11.916.755,23.812,1.539,35.7l-1.011-.58c1.859-1.3,3.611-2.763,5.385-4.175.959-.763,1.924-1.517,2.885-2.278a3.4,3.4,0,0,0,1.313-3.641c-1.286-6.06-2.981-12.027-4.016-18.141a60.535,60.535,0,0,1-.541-18.121c.876-6.588,2.38-13.079,3.683-19.59a147.03,147.03,0,0,0,2.621-17.776,129.23,129.23,0,0,0,.273-14.618,106.279,106.279,0,0,0-4.911-29.2c-2.751-8.357-6.945-16.588-13.551-22.559q-1.13-1.02-2.347-1.937c-.683-.513-.015-1.679.678-1.16" transform="translate(-299.507 -335.332)" fill="#381b21"/>
          <path id="Trazado_204287" data-name="Trazado 204287" d="M441.986,458.293a102.065,102.065,0,0,1-5.08,16.523,24.223,24.223,0,0,1-3.45,6.688c-1.345,1.6-3.757,2.627-4.325,4.771a.672.672,0,0,1-1.3-.357c.55-2.078,2.395-3.16,3.876-4.534,1.962-1.82,2.919-4.5,3.9-6.926a102.064,102.064,0,0,0,5.08-16.523c.184-.844,1.479-.487,1.3.357" transform="translate(-342.243 -267.127)" fill="#381b21"/>
          <path id="Trazado_204288" data-name="Trazado 204288" d="M146.615,625.792c0,1.73-5.974,4.961-5.974,4.961s-2.716-25.834-1.841-40.775-6.506-35.138-14.04-42.677-.634-17.182-.634-17.182,8.921,12.267,17.774,27.135,4.715,49.276,4.715,68.538" transform="translate(79.733 -309.559)" fill="#543139"/>
          <path id="Trazado_204289" data-name="Trazado 204289" d="M120.563,310.9c-1.924,29.746,19.775,139.073,17.834,169.545-1.3,20.51-.831,41.2-.289,61.731.2,7.7.752,15.384,1.155,23.072.341,6.542-.175,15.446,5.676,19.88,3.647,2.764,9.017,2.816,13.382,3.026,6.166.306,12.227.473,18.515.455a9.786,9.786,0,0,0,7.557-4.277c7.775-13.609-16.128-170.1-18.848-192.293s-8.938-30.2-10.11-44.265c-1.041-12.595-11.353-63.471-2.327-99.978,1.688-6.848-3.157-16.111-9.052-18.489-9.166-3.691-27.682-9.114-37.775-11.44a.372.372,0,0,0-.1-.017L104.3,226.9c6.026,5.851,20.492,18.726,16.268,84" transform="translate(48.422 -127.211)" fill="#543139"/>
          <path id="Trazado_204290" data-name="Trazado 204290" d="M221.668,222.873c2.895,2.079,5.669,4.316,8.485,6.5,1.385,1.075,2.8,2.109,4.207,3.151a4.459,4.459,0,0,1,2.192,3.2.681.681,0,0,1-.493.647,34.471,34.471,0,0,0-6.194,2.654,9.92,9.92,0,0,0-3.984,3.484c-2.2,3.891,2.476,6.89,5.356,8.474,3.5,1.923,7.3,3.325,10.495,5.755a9.557,9.557,0,0,1,3.384,3.962c.71,1.846.392,3.956.111,5.857a72.167,72.167,0,0,1-3.6,12.806,80.594,80.594,0,0,0-3.243,11.889c-1.343,7.45-1.393,15.064-2.395,22.56-.5,3.738-1.257,7.433-1.868,11.154a43.72,43.72,0,0,0-.886,11.013c.08.86-1.263.855-1.343,0a40.79,40.79,0,0,1,.695-9.864c.511-3.343,1.181-6.659,1.72-10,1.227-7.592,1.289-15.306,2.4-22.909a71.034,71.034,0,0,1,2.922-12.146,115.03,115.03,0,0,0,3.921-12.739c.435-2.084,1.033-4.645.443-6.749-.556-1.985-2.434-3.392-4.07-4.483-3.335-2.225-7.152-3.574-10.574-5.646-3.284-1.988-6.982-5.5-4.63-9.616a11.028,11.028,0,0,1,4.251-3.846,35.563,35.563,0,0,1,6.73-2.91l-.493.647c-.1-1.419-1.923-2.318-2.93-3.063-1.2-.89-2.388-1.8-3.569-2.724-2.556-1.99-5.087-4.016-7.719-5.906-.7-.5-.026-1.665.678-1.16" transform="translate(-59.612 -130.073)" fill="#381b21"/>
          <path id="Trazado_204291" data-name="Trazado 204291" d="M195.253,302.938c.879,8.255,1.138,16.594,1.4,24.888.028.864-1.315.863-1.343,0-.267-8.294-.525-16.632-1.4-24.888-.092-.858,1.252-.852,1.343,0" transform="translate(0.421 -176.524)" fill="#381b21"/>
          <path id="Trazado_204292" data-name="Trazado 204292" d="M165.557,559.621c-.949-4.253-2.707-8.19-4.029-12.327-.62-1.938-1.542-3.8-2.044-5.773a14.622,14.622,0,0,1,.132-6.242c.154-.849,1.448-.489,1.3.357a12.6,12.6,0,0,0,0,6.015c.61,1.994,1.469,3.908,2.1,5.9.607,1.917,1.331,3.78,2.055,5.654a42.273,42.273,0,0,1,1.782,6.059c.188.842-1.107,1.2-1.3.357" transform="translate(44.65 -312.289)" fill="#381b21"/>
          <path id="Trazado_204293" data-name="Trazado 204293" d="M198.288,496.1c.571-2.274-1.138-4.611-2.055-6.585q-1.4-3.016-2.546-6.143a77.77,77.77,0,0,1-3.52-13.089c-.151-.845,1.143-1.208,1.3-.357a77.918,77.918,0,0,0,3.734,13.668q1.269,3.385,2.86,6.635c.959,1.959,2.091,3.982,1.527,6.228a.672.672,0,0,1-1.3-.357" transform="translate(-1.093 -274.125)" fill="#381b21"/>
          <path id="Trazado_204294" data-name="Trazado 204294" d="M162.519,681.32c-4.208-.256-8.413.194-12.622.169-.951-.005-1.693-.305-1.988.716a7.615,7.615,0,0,0-.084,2.752A41.907,41.907,0,0,0,149,691.045c.144.588.241,1.832.734,2.122a4.2,4.2,0,0,0,2.1.114c1.041-.054,2.084-.055,3.126-.087,3.569-.11,7.126.219,10.69.126a.672.672,0,0,1,0,1.343c-3.564.092-7.121-.236-10.69-.126-1.041.032-2.085.033-3.126.087a6.5,6.5,0,0,1-2.45-.155c-1.2-.413-1.29-1.465-1.544-2.527a54.583,54.583,0,0,1-1.309-6.578c-.169-1.512-.482-4.454,1.384-5.124a8.179,8.179,0,0,1,2.626-.094c1.278-.006,2.555-.051,3.832-.1,2.717-.105,5.436-.234,8.154-.069.859.052.865,1.4,0,1.343" transform="translate(50.559 -397.021)" fill="#381b21"/>
          <path id="Trazado_204295" data-name="Trazado 204295" d="M137.692,712.835a119.723,119.723,0,0,1,4.984,23.176,113.943,113.943,0,0,1,.708,11.779q.023,2.948-.106,5.9c-.072,1.645-.519,3.72.779,5.015a7.561,7.561,0,0,0,4.207,1.685,31.777,31.777,0,0,0,5.33.275.672.672,0,0,1,0,1.343c-2.984.035-6.359.047-9.081-1.351a4.652,4.652,0,0,1-2.58-3.223,25.9,25.9,0,0,1,.065-5.5A113.772,113.772,0,0,0,139.951,727a120.869,120.869,0,0,0-3.554-13.807c-.264-.825,1.032-1.178,1.3-.357" transform="translate(66.779 -415.982)" fill="#381b21"/>
          <path id="Trazado_204296" data-name="Trazado 204296" d="M137.371,717.555c.5,2.86.633,5.813.863,8.7.3,3.766.548,7.536.808,11.3.06.863-1.284.859-1.343,0-.255-3.7-.5-7.407-.793-11.108-.224-2.835-.338-5.739-.831-8.544-.148-.845,1.146-1.208,1.3-.357" transform="translate(82.1 -418.727)" fill="#381b21"/>
          <path id="Trazado_204297" data-name="Trazado 204297" d="M324.6,231.788s-.025-6.923-1.4-8.95c-2.867-4.221-33.979-12.809-36.492-3.88,0,0,2.757,7.871,5.928,9.906,8.705,5.587,28.382,6.711,31.966,2.924" transform="translate(-166.132 -125.577)" fill="#fce0d9"/>
          <path id="Trazado_204298" data-name="Trazado 204298" d="M315.176,257.85a14.467,14.467,0,0,1-1.472,7.007,10.13,10.13,0,0,1-4.1,3.862c-4.546,2.491-9.747,2.768-14.816,2.26a41.09,41.09,0,0,1-8.991-1.855c-.815-.274-.466-1.572.357-1.3a38.9,38.9,0,0,0,15.139,1.926,18.685,18.685,0,0,0,6.566-1.658,10.451,10.451,0,0,0,4.178-3.118c1.49-2.047,1.782-4.669,1.795-7.129a.672.672,0,0,1,1.343,0" transform="translate(-156.137 -150.191)" fill="#edb1a6"/>
          <path id="Trazado_204299" data-name="Trazado 204299" d="M307.377,263.457v5.831a.672.672,0,0,1-1.343,0v-5.831a.672.672,0,0,1,1.343,0" transform="translate(-156.949 -153.465)" fill="#edb1a6"/>
          <path id="Trazado_204300" data-name="Trazado 204300" d="M323.728,268.217v5.016a.672.672,0,0,1-1.343,0v-5.016a.672.672,0,0,1,1.343,0" transform="translate(-180.103 -156.245)" fill="#edb1a6"/>
          <path id="Trazado_204301" data-name="Trazado 204301" d="M338.952,268.368c-.016.111.022-.2.007-.045,0,.042-.01.084-.014.127q-.014.129-.025.259c-.021.237-.038.474-.056.712-.043.607-.079,1.214-.116,1.82-.064,1.027-.095,2.067-.244,3.087a.676.676,0,0,1-.827.469.688.688,0,0,1-.468-.826c.016-.111-.021.2-.007.045,0-.042.01-.084.014-.127q.014-.129.025-.259c.021-.237.039-.474.055-.712.043-.607.079-1.214.117-1.821.063-1.027.1-2.067.244-3.086a.676.676,0,0,1,.826-.469.688.688,0,0,1,.468.826" transform="translate(-201.501 -156.217)" fill="#edb1a6"/>
          <path id="Trazado_204302" data-name="Trazado 204302" d="M298.5,251.311v5.442a.672.672,0,0,1-1.343,0v-5.442a.672.672,0,0,1,1.343,0" transform="translate(-144.382 -146.373)" fill="#edb1a6"/>
          <path id="Trazado_204303" data-name="Trazado 204303" d="M354.857,261.79v4.859a.672.672,0,0,1-1.343,0V261.79a.672.672,0,0,1,1.343,0" transform="translate(-224.184 -152.478)" fill="#edb1a6"/>
          <path id="Trazado_204304" data-name="Trazado 204304" d="M319.69,119.253l-7.962,38.173c-.428,1.754.556,2.605-4.283,4.489-4.367,1.7-11.469,1.461-22.046-3.409,0,0-3.415-2.421-3.8-5.142S292.868,110.992,295.2,100.5s24.489,18.756,24.489,18.756" transform="translate(-159.09 -57.358)" fill="#ff978c"/>
          <path id="Trazado_204305" data-name="Trazado 204305" d="M293.209,61.791s1.145,53.172-15.16,54.81-25.267-10.5-27.211-20.991-4.276-27.6,2.721-37.317,39.849-8.171,39.65,3.5" transform="translate(-119.004 -30.313)" fill="#ff978c"/>
          <path id="Trazado_204306" data-name="Trazado 204306" d="M274.916,138.65a22.549,22.549,0,0,0,.564,5.785c.274,1.322.833,2.956.185,4.252-.6,1.2-2.144,1.543-3.358,1.67a4.566,4.566,0,0,1-3.961-1.306c-.58-.639.367-1.591.95-.95a3.444,3.444,0,0,0,3.192.89c.977-.139,2.087-.431,2.114-1.586a20.115,20.115,0,0,0-.6-3.643,23.286,23.286,0,0,1-.431-5.113c.049-.859,1.392-.865,1.343,0" transform="translate(-109.782 -80.587)" fill="#e25c59"/>
          <path id="Trazado_204307" data-name="Trazado 204307" d="M286.135,155.063c-.032.023-.064.046-.1.07l.136-.1a2.456,2.456,0,0,0-.406.407l.105-.136a2.61,2.61,0,0,0-.333.567l.067-.16a2.66,2.66,0,0,0-.157.519.678.678,0,0,1-.308.4.673.673,0,0,1-.919-.241.75.75,0,0,1-.067-.518,3.061,3.061,0,0,1,.424-1.058,3.212,3.212,0,0,1,.876-.907.672.672,0,0,1,.986.758.759.759,0,0,1-.309.4" transform="translate(-126.932 -89.819)" fill="#e25c59"/>
          <path id="Trazado_204308" data-name="Trazado 204308" d="M278.951,173.389a35.455,35.455,0,0,1-10.8-1.217.672.672,0,0,1,.357-1.3,34.184,34.184,0,0,0,10.443,1.169c.864-.037.862,1.306,0,1.343" transform="translate(-113.211 -99.768)" fill="#e25c59"/>
          <path id="Trazado_204309" data-name="Trazado 204309" d="M279.069,183.024a11.615,11.615,0,0,1-2.314-.134.671.671,0,0,1-.4-.309.686.686,0,0,1-.068-.518.678.678,0,0,1,.309-.4.778.778,0,0,1,.517-.068l.208.03-.178-.024a10.7,10.7,0,0,0,1.928.081.676.676,0,0,1,.672.672.686.686,0,0,1-.672.672" transform="translate(-116.926 -106.033)" fill="#e25c59"/>
          <path id="Trazado_204310" data-name="Trazado 204310" d="M313.135,193.561a26.937,26.937,0,0,1-8.511-1.86,17.048,17.048,0,0,1-4.318-3.286,17.223,17.223,0,0,1-3.592-4.515c-.409-.761.75-1.44,1.16-.678a16.111,16.111,0,0,0,3.382,4.243,15.78,15.78,0,0,0,4.047,3.077,25.135,25.135,0,0,0,7.833,1.677c.851.087.86,1.431,0,1.343" transform="translate(-159.435 -106.797)" fill="#e25c59"/>
          <path id="Trazado_204311" data-name="Trazado 204311" d="M252.2,118.7s-4.377.009-5.6-1.2c-.443-.436-.765-2.55.06-2.727,1.747-.373,5.541-.3,6.062,1.073s.293,2.694-.521,2.85" transform="translate(-77.656 -66.911)" fill="#543139"/>
          <path id="Trazado_204312" data-name="Trazado 204312" d="M298.594,108.482s.694,2.6-.68,3.066c-1.3.44-11.49.411-12.52.411-1.158,0-1.142-2.329-.34-2.617s13.374-2.834,13.541-.859" transform="translate(-139.375 -62.913)" fill="#543139"/>
          <path id="Trazado_204313" data-name="Trazado 204313" d="M296.818,125.282a1.676,1.676,0,1,0,1.548-2.145,1.9,1.9,0,0,0-1.548,2.145" transform="translate(-145.805 -71.905)" fill="#381b21"/>
          <path id="Trazado_204314" data-name="Trazado 204314" d="M299.025,123.641a2.662,2.662,0,0,0-.143-.25c-.024-.037-.052-.072-.075-.11-.079-.129.1.106-.007-.011a4.587,4.587,0,0,0-.451-.465c-.04-.034-.081-.067-.121-.1.127.1-.03-.019-.058-.038-.1-.067-.2-.129-.3-.186-.048-.027-.1-.051-.147-.077l-.1-.047c.067.027.077.032.032.014a3.233,3.233,0,0,0-.348-.113c-.055-.014-.111-.027-.166-.038s-.169-.02-.049-.01a2.937,2.937,0,0,0-.41-.011c-.016,0-.213.02-.062,0-.061.008-.122.02-.183.034a2.511,2.511,0,0,0-.433.135c.1-.043-.081.043-.09.047-.064.033-.127.069-.189.106a2.472,2.472,0,0,0-.369.264,4.9,4.9,0,0,0-.772.844.692.692,0,0,1-.919.241.677.677,0,0,1-.241-.919,5.163,5.163,0,0,1,2-1.784,3.409,3.409,0,0,1,2.13-.23,4.038,4.038,0,0,1,2.634,2.028.688.688,0,0,1-.241.919.678.678,0,0,1-.919-.241" transform="translate(-144.552 -70.575)" fill="#381b21"/>
          <path id="Trazado_204315" data-name="Trazado 204315" d="M255.2,131.437a1.676,1.676,0,1,0,1.752-1.982,1.9,1.9,0,0,0-1.752,1.982" transform="translate(-86.862 -75.593)" fill="#381b21"/>
          <path id="Trazado_204316" data-name="Trazado 204316" d="M256.9,130.872a4.076,4.076,0,0,0-.292-.466c.1.14,0,0-.017-.02s-.065-.077-.1-.114q-.1-.115-.217-.222c-.038-.036-.077-.071-.117-.106s-.154-.123-.03-.029c-.079-.059-.16-.116-.243-.168s-.188-.107-.285-.157l-.074-.035c.069.028.08.033.035.015s-.1-.038-.156-.055c-.1-.031-.2-.051-.3-.074-.152-.036.1,0-.045-.007-.057,0-.114-.008-.172-.009s-.117,0-.175,0c-.019,0-.208.027-.06,0a2.629,2.629,0,0,0-.367.088c-.063.02-.127.042-.188.067.1-.043-.086.045-.093.048a3.508,3.508,0,0,0-.387.233,4.431,4.431,0,0,0-.722.668.672.672,0,0,1-.95-.95,3.741,3.741,0,0,1,3.757-1.382,4.027,4.027,0,0,1,2.351,1.989.686.686,0,0,1-.241.919.679.679,0,0,1-.919-.241" transform="translate(-85.13 -74.795)" fill="#381b21"/>
          <path id="Trazado_204317" data-name="Trazado 204317" d="M297.566,118.831a8.611,8.611,0,0,0-3.163-.62q-1.94-.146-3.877-.34c-2.332-.233-4.673-.485-6.987-.859a4.278,4.278,0,0,0-1.2-.136c-.669.087-.816.617-1.014,1.181a7.6,7.6,0,0,0-.4,2.234,21.3,21.3,0,0,0,.286,4.373,3.012,3.012,0,0,0,1.128,2.088,8.191,8.191,0,0,0,3.412,1.419,14,14,0,0,0,8.582-.747,5.645,5.645,0,0,0,3.169-3.564,11.24,11.24,0,0,0,.54-2.956c.017-.4,0-.794,0-1.192,0-.529.015-.61-.474-.883a.672.672,0,0,1,.678-1.16,1.913,1.913,0,0,1,1.144,1.864,18.167,18.167,0,0,1-.145,2.744,8.222,8.222,0,0,1-2.432,5.156c-2.586,2.2-6.5,2.655-9.755,2.295-2.479-.275-6.2-1.157-6.994-3.947a17.851,17.851,0,0,1-.495-4.529,12.451,12.451,0,0,1,.218-2.726,4.408,4.408,0,0,1,1.249-2.555c.942-.728,2.17-.355,3.236-.2,1.6.234,3.2.427,4.805.6q2.5.273,5,.467a11.277,11.277,0,0,1,4.164.828c.778.376.1,1.534-.678,1.16" transform="translate(-137.948 -67.469)" fill="#fce0d9"/>
          <path id="Trazado_204318" data-name="Trazado 204318" d="M233.608,123.465a7.933,7.933,0,0,1,3.234-.136q1.908.176,3.822.288,1.789.1,3.581.152a6.634,6.634,0,0,1,2.689.248c1.454.714,1.259,3.062,1.077,4.406a21.81,21.81,0,0,1-1.039,4.265c-.816,2.33-3.259,3.055-5.538,3.1a10.756,10.756,0,0,1-7.817-2.84,6.987,6.987,0,0,1-1.66-5.072,17.155,17.155,0,0,1,.327-2.822,1.836,1.836,0,0,1,1.325-1.586c.8-.319,1.152.979.357,1.3-.468.186-.412.783-.5,1.228a10.706,10.706,0,0,0-.164,2.315,5.325,5.325,0,0,0,1.262,3.692,9.281,9.281,0,0,0,6.4,2.446,7.517,7.517,0,0,0,3.112-.488,3.462,3.462,0,0,0,.95-.582,2.643,2.643,0,0,0,.4-.463.716.716,0,0,0,.155-.307,19.984,19.984,0,0,0,.9-3.162,13.108,13.108,0,0,0,.284-1.9,4.773,4.773,0,0,0-.162-1.979c-.309-.707-1.723-.428-2.355-.445q-1.792-.047-3.581-.152-1.7-.1-3.4-.25a8.246,8.246,0,0,0-3.3.049c-.824.267-1.177-1.03-.357-1.3" transform="translate(-66.888 -71.96)" fill="#fce0d9"/>
          <path id="Trazado_204319" data-name="Trazado 204319" d="M272.618,127.848a4.488,4.488,0,0,0-.488-.318q-.127-.071-.259-.133c-.044-.02-.088-.042-.133-.06.063.026-.026-.008-.042-.014a5.544,5.544,0,0,0-.558-.169c-.095-.022-.191-.04-.286-.058-.025,0-.11-.017-.038-.007-.06-.008-.121-.014-.181-.019a4.632,4.632,0,0,0-.584-.012c-.1,0-.194.012-.291.021-.12.012.081-.014-.038,0-.048.007-.1.015-.144.024a4.4,4.4,0,0,0-.564.144,2.47,2.47,0,0,0-.478.2.688.688,0,0,1-.919-.241.679.679,0,0,1,.241-.919,5.254,5.254,0,0,1,5.44.4.692.692,0,0,1,.241.919.676.676,0,0,1-.919.241" transform="translate(-107.178 -73.412)" fill="#fce0d9"/>
          <path id="Trazado_204320" data-name="Trazado 204320" d="M324.909,111.4a19.621,19.621,0,0,0,3.63,2.119c1.282.638,2.587,1.226,3.881,1.84a.677.677,0,0,1,.241.919.686.686,0,0,1-.919.241c-1.327-.629-2.666-1.232-3.98-1.889a19.8,19.8,0,0,1-3.8-2.279.677.677,0,0,1,0-.95.687.687,0,0,1,.95,0" transform="translate(-189.697 -64.941)" fill="#fce0d9"/>
          <path id="Trazado_204321" data-name="Trazado 204321" d="M298.876,42.559c-2.932,1.779-5.96-1.056-21.457-14.385a.783.783,0,0,0-1.011-.016C273.371,30.7,257.627,44.317,255.776,54.8c-1.828,10.361-.068,21.911-8.891,21.962-12.828.075-3.739-9.112-13.022-15.743-1.361-.972-19.436-11.467-11.467-27.21,1.965-3.883,7.623-7.551,6.705-12.214-1.652-8.389,7.745-15.1,13.9-16.357C252.521,3.3,262.76,9.531,262.76,6.991c0-5.247,11.336-10.106,18.138-4.47s13.673,3.264,18.27,5.442c7.385,3.5,17.492,19.047,1.943,33.318-1.988,1.825-2.235,1.278-2.235,1.278" transform="translate(-123.214 -0.002)" fill="#3e3147"/>
          <path id="Trazado_204322" data-name="Trazado 204322" d="M309.267,36.314a10.681,10.681,0,0,0-2.067-4.421,47.819,47.819,0,0,0-3.018-4.036c-2.1-2.537-4.4-4.9-6.686-7.266-.6-.621.347-1.571.949-.95,2.493,2.57,4.991,5.147,7.236,7.94a48.4,48.4,0,0,1,2.995,4.119,10.967,10.967,0,0,1,1.933,4.614c.1.856-1.241.849-1.343,0" transform="translate(-156.557 -11.352)" fill="#180b23"/>
          <path id="Trazado_204323" data-name="Trazado 204323" d="M418.48,63.58c-1.731,3.1-.58,6.855-.758,10.207a9.8,9.8,0,0,1-1.4,4.684,10.446,10.446,0,0,0-1.815,5.918.672.672,0,0,1-1.343,0,10.692,10.692,0,0,1,1.439-5.682,13.023,13.023,0,0,0,1.418-2.745,10.059,10.059,0,0,0,.374-2.688c.073-3.484-.875-7.156.923-10.373.421-.755,1.582-.078,1.16.678" transform="translate(-312.715 -36.54)" fill="#180b23"/>
          <path id="Trazado_204324" data-name="Trazado 204324" d="M362.047,43.6A18.99,18.99,0,0,0,339.2,46.8a20.121,20.121,0,0,0-5.582,10.627c-.8,4.724,1.678,8.766,3.6,12.871,1.843,3.93,3.221,8.9.637,12.833-.473.719-1.636.047-1.16-.678,2.59-3.941.656-8.858-1.207-12.661a41.927,41.927,0,0,1-2.787-6.429,13.872,13.872,0,0,1-.26-6.924,21.325,21.325,0,0,1,16.423-16.309,20.181,20.181,0,0,1,13.856,2.31.672.672,0,0,1-.678,1.16" transform="translate(-223.478 -23.228)" fill="#180b23"/>
          <path id="Trazado_204325" data-name="Trazado 204325" d="M342.852,58.6a48.5,48.5,0,0,1-13.291,13.242c-2.483,1.708-5.086,3.43-6.923,5.868a12.752,12.752,0,0,0-2.355,9.978c.7,3.355,3.249,6.037,3.354,9.559.026.865-1.318.864-1.343,0-.1-3.192-2.432-5.737-3.2-8.753a14,14,0,0,1,1.348-9.835A19.944,19.944,0,0,1,326.7,72.2a87.2,87.2,0,0,0,7.623-5.713,44.325,44.325,0,0,0,7.367-8.566c.474-.719,1.637-.047,1.159.678" transform="translate(-197.815 -33.643)" fill="#180b23"/>
          <path id="Trazado_204326" data-name="Trazado 204326" d="M260.863,51.812c-3.965-.072-6.852-3.653-9.023-6.558a50.683,50.683,0,0,0-3.114-4.164,10.71,10.71,0,0,0-6.811-3.371c-3.41-.313-6.889,1.157-10.108,2.1a.672.672,0,0,1-.357-1.295c2.886-.842,5.861-2,8.886-2.171a11.962,11.962,0,0,1,7.2,1.984c3.333,2.214,5.036,6.139,7.745,8.992,1.475,1.554,3.331,3.1,5.58,3.142a.672.672,0,0,1,0,1.343" transform="translate(-79.856 -21.217)" fill="#180b23"/>
          <path id="Trazado_204327" data-name="Trazado 204327" d="M248.31,32.9a13.115,13.115,0,0,0-4.968-10.884,24.881,24.881,0,0,0-4.927-3.009,9.991,9.991,0,0,1-4.048-3.219c-.478-.723.684-1.4,1.16-.678,1.091,1.647,2.986,2.438,4.686,3.3A20.1,20.1,0,0,1,245.1,21.8a14.157,14.157,0,0,1,4.55,11.1c-.063.857-1.407.864-1.343,0" transform="translate(-69.395 -8.646)" fill="#180b23"/>
          <path id="Trazado_204328" data-name="Trazado 204328" d="M297.381,19.623c-.876-1.146-2.643-1.331-3.953-1.616a23.8,23.8,0,0,0-5.351-.679A11.624,11.624,0,0,0,280.33,20c-.652.56-1.606-.385-.949-.95a13.186,13.186,0,0,1,8.995-3.063,28.391,28.391,0,0,1,6.038.867c1.579.351,3.1.755,4.128,2.094.525.686-.641,1.356-1.16.678" transform="translate(-137.064 -9.334)" fill="#180b23"/>
          <path id="Trazado_204329" data-name="Trazado 204329" d="M261.952,70.381c-3.851-.034-7.048-1.884-9.941-4.29a38.428,38.428,0,0,1-8.672-9.551.672.672,0,0,1,1.16-.678,36.838,36.838,0,0,0,7.989,8.88c2.741,2.339,5.756,4.263,9.463,4.3a.672.672,0,0,1,0,1.343" transform="translate(-86.047 -32.434)" fill="#180b23"/>
          <path id="Trazado_204330" data-name="Trazado 204330" d="M345.409,122.367s-5.2-1.532-6.148-6.683c-1.124-6.082,1.837-15.093,8.3-10.447s-.377,17.822-2.148,17.13" transform="translate(-213.577 -60.703)" fill="#ff978c"/>
          <path id="Trazado_204331" data-name="Trazado 204331" d="M347.747,110.794a14.125,14.125,0,0,1,1.438,9.832c-.188.843-1.484.486-1.295-.357a12.676,12.676,0,0,0-1.3-8.8c-.409-.761.75-1.44,1.16-.678" transform="translate(-215.924 -64.503)" fill="#e25c59"/>
          <path id="Trazado_204332" data-name="Trazado 204332" d="M350.243,121.018c-.076-.121-.155-.24-.24-.354l-.039-.052.038.05c-.006-.028-.052-.065-.069-.086-.047-.057-.094-.114-.143-.169a6.718,6.718,0,0,0-.669-.66c-.06-.052-.121-.1-.182-.152-.016-.013-.124-.1-.045-.037s-.03-.022-.047-.035q-.2-.147-.4-.282a9.278,9.278,0,0,0-.926-.531.676.676,0,0,1-.241-.919.688.688,0,0,1,.919-.241,7.911,7.911,0,0,1,3.2,2.791.677.677,0,0,1-.241.919.685.685,0,0,1-.919-.241" transform="translate(-218.189 -68.594)" fill="#e25c59"/>
          <path id="Trazado_204333" data-name="Trazado 204333" d="M346.736,145.4a7.565,7.565,0,0,1-1.638.357,2.662,2.662,0,0,1-.962-.049.672.672,0,1,1,.357-1.3,1.08,1.08,0,0,0,.135.027l-.178-.024a3.144,3.144,0,0,0,.817-.022l-.178.024a7.293,7.293,0,0,0,1.291-.313.676.676,0,0,1,.826.469.687.687,0,0,1-.469.826" transform="translate(-212.443 -84.136)" fill="#e25c59"/>
          <path id="Trazado_204334" data-name="Trazado 204334" d="M354.542,140.882a29.429,29.429,0,0,1,.443,5.254,10.018,10.018,0,0,1-.9,4.417c-.655,1.3-1.973,2.476-3.435,1.493-1.3-.872-1.525-2.82-1.564-4.254a10.361,10.361,0,0,1,1.25-5.168c.409-.762,1.569-.084,1.16.678a8.981,8.981,0,0,0-1.06,4.669,6.511,6.511,0,0,0,.445,2.288c.3.683.959,1.111,1.52.449a6.782,6.782,0,0,0,1.227-4.142,26.282,26.282,0,0,0-.385-5.328c-.143-.845,1.151-1.209,1.3-.357" transform="translate(-222.471 -81.984)" fill="#ffc44d"/>
          <path id="Trazado_204335" data-name="Trazado 204335" d="M59.788,382.058c-1.166-1.178-18.022-10.546-55-16.164,0,0-8.915,21.074-2.405,34.968,2.057,4.39,1.8,3.188,6.25,5.123,17.612,7.667,65.591,37.3,65.583.231,0-19.692-14.424-24.158-14.424-24.158" transform="translate(203.544 -213.661)" fill="#543139"/>
          <path id="Trazado_204336" data-name="Trazado 204336" d="M102.422,377.24c-11.323-3.28-22.357-7.8-34.094-9.441a110.292,110.292,0,0,0-11.687-.934c-.862-.028-.866-1.371,0-1.343a101.1,101.1,0,0,1,19.153,2.283c5.422,1.231,10.7,3.006,15.977,4.725,3.654,1.189,7.317,2.345,11.008,3.414a.672.672,0,0,1-.357,1.3" transform="translate(151.209 -213.444)" fill="#381b21"/>
          <path id="Trazado_204337" data-name="Trazado 204337" d="M153.577,432.038a29.782,29.782,0,0,1-.249,4.079,11.713,11.713,0,0,1-.9,3.825,6.164,6.164,0,0,1-5.079,3.075,4.441,4.441,0,0,1-2.435-.341c-.765-.4-.087-1.563.678-1.16.059.031.12.05.018.014.052.019.1.038.159.053.107.029.311.074.357.081a5.709,5.709,0,0,0,.953.028,5.812,5.812,0,0,0,2.223-.554,4.188,4.188,0,0,0,1.913-1.771,9.313,9.313,0,0,0,.76-3.174,29.535,29.535,0,0,0,.259-4.156.672.672,0,0,1,1.343,0" transform="translate(64.023 -251.907)" fill="#381b21"/>
          <path id="Trazado_204338" data-name="Trazado 204338" d="M162.281,371.164a15.62,15.62,0,0,1,1.528-3.307,5.32,5.32,0,0,1,1.6-1.688,2.593,2.593,0,0,1,3.067.258,4.044,4.044,0,0,1,.942,1.12.672.672,0,0,1-1.16.678c-.042-.072-.085-.142-.131-.211-.025-.037-.052-.074-.078-.112-.08-.115-.033-.03,0,0-.137-.116-.242-.281-.378-.4-.032-.028-.065-.055-.1-.083-.12-.107.1.061.01.007s-.157-.108-.24-.155c-.037-.021-.074-.039-.112-.059-.131-.07-.04-.008,0,0a2.8,2.8,0,0,1-.273-.083c-.026-.007-.19-.037-.052-.013s-.036,0-.072,0-.087,0-.131,0c-.1,0-.19.064-.022,0-.084.034-.189.038-.276.066-.047.015-.094.035-.141.051.2-.069,0,0-.055.034-.109.059-.208.129-.31.2-.075.05.1-.079.025-.02l-.074.062c-.064.055-.127.112-.187.171a4.58,4.58,0,0,0-.323.349,3.233,3.233,0,0,0-.279.375,13.557,13.557,0,0,0-1.489,3.132.689.689,0,0,1-.826.469.677.677,0,0,1-.469-.826" transform="translate(40.735 -213.596)" fill="#381b21"/>
          <path id="Trazado_204339" data-name="Trazado 204339" d="M108.374,438.817a35.078,35.078,0,0,0,1.106-15.709,36.1,36.1,0,0,0-2.026-7.492,33.462,33.462,0,0,0-1.74-3.741,14.913,14.913,0,0,0-2.177-3.344,7.084,7.084,0,0,0-4.414-1.718,12.229,12.229,0,0,0-5.023.57l.469-.826c1.382,4.91,2.979,9.812,4.051,14.8.929,4.322,1.23,8.937-.944,12.948-.412.76-1.572.083-1.16-.678,2.136-3.94,1.6-8.555.62-12.751-1.1-4.7-2.556-9.322-3.863-13.963a.685.685,0,0,1,.469-.826,12.791,12.791,0,0,1,8.863.22c2.613,1.134,4,4.184,5.145,6.624a36.946,36.946,0,0,1,3.484,16.641,36.087,36.087,0,0,1-1.566,9.6c-.253.824-1.549.473-1.3-.357" transform="translate(127.711 -236.733)" fill="#381b21"/>
          <path id="Trazado_204340" data-name="Trazado 204340" d="M175.39,371.876c-.05.194-.37,20.167,1.118,20.554s3.4-7.483,2.915-13.022-2.867-12.1-4.033-7.531" transform="translate(25.31 -216.258)" fill="#fce0d9"/>
          <path id="Trazado_204341" data-name="Trazado 204341" d="M205.665,368.239,201,365.122l-2.12-.313s-.007.139-.016.392c-.1,2.647-.484,17.78,3.375,17.177,4.227-.662,4.981-7.44,4.75-9.336a27.136,27.136,0,0,0-1.324-4.8" transform="translate(-11.987 -213.028)" fill="#180b23"/>
          <path id="Trazado_204342" data-name="Trazado 204342" d="M210.978,368.433s-17.39-3.69-31.91-5.23c-3.181-.337-6.225-.572-8.917-.642-14.983-.389-15.372-.1-21.421,9.84-2.633,4.327,2.122,8.3,3.644,10.5,1.705,2.462,3.512,5.025,4.883,6.122,1.509,1.209,3.544.81,3.287-.7,0,0,1.507.486.985-2.4a30.437,30.437,0,0,0-1.188-3.549c-.62-1.661,1.71,3.005,3.491,0,.794-1.338-3.977-7.056-3.661-7.056,8.25,0,7.132,4.06,25.172,4.42,1.4.028,5.624-.232,6.887.371,5.514,2.633,20.592,9.737,24.064,10.369,0,0-2.818-19.363-5.316-22.043" transform="translate(-0.094 -211.657)" fill="#ff978c"/>
          <path id="Trazado_204343" data-name="Trazado 204343" d="M282.008,393.436c-.052,0-.255.041-.069,0-.057.014-.115.033-.172.044-.1.02.118-.078-.023.019-.1.067.119-.11-.015.015s.077-.053-.014.015c-.04.03-.087.22-.022.018-.032.1-.055.193-.079.293.046-.193,0,.006,0,.057,0,.067,0,.135,0,.2s.005.142.011.213c0,.031.034.269.009.1a6.544,6.544,0,0,0,.216.93,9.042,9.042,0,0,0,.746,1.788c.144.271.3.537.466.793.075.114.154.224.235.334-.111-.151.011.011.036.04s.071.081.107.121c.589.631-.358,1.583-.949.949a9.215,9.215,0,0,1-1.7-2.98,4.5,4.5,0,0,1-.3-3.412,1.647,1.647,0,0,1,1.517-.876.672.672,0,0,1,0,1.343" transform="translate(-122.47 -228.96)" fill="#e25c59"/>
          <path id="Trazado_204344" data-name="Trazado 204344" d="M287.5,404.886a24.571,24.571,0,0,0-2.873-4.51c-.533-.717-1.065-1.437-1.547-2.191a8.072,8.072,0,0,1-1.18-2.229c-.209-.907.7-1.834,1.324-2.352a6.6,6.6,0,0,1,4.151-1.512.672.672,0,0,1,0,1.343,5.157,5.157,0,0,0-3.346,1.242,3.087,3.087,0,0,0-.755.9c-.022.045-.042.254-.061.139-.035-.225.066.079.091.132.1.2.2.4.3.6,1.475,2.727,3.775,4.92,5.052,7.767.351.782-.806,1.466-1.16.678" transform="translate(-128.241 -228.96)" fill="#e25c59"/>
          <path id="Trazado_204345" data-name="Trazado 204345" d="M285.249,372.662a16.035,16.035,0,0,0-6.181.671,21.028,21.028,0,0,0-4.64,1.774c-.756.42-1.435-.74-.678-1.16a22.568,22.568,0,0,1,4.961-1.909,17.074,17.074,0,0,1,6.538-.719c.846.105.857,1.45,0,1.343" transform="translate(-121.89 -216.78)" fill="#e25c59"/>
          <path id="Trazado_204346" data-name="Trazado 204346" d="M284.272,365.543a13.514,13.514,0,0,0-5.69.711,28.708,28.708,0,0,0-2.748,1.254c-.778.366-1.46-.792-.678-1.16a31.932,31.932,0,0,1,3.069-1.39,14.48,14.48,0,0,1,6.047-.759c.854.077.862,1.421,0,1.343" transform="translate(-121.496 -212.639)" fill="#e25c59"/>
          <path id="Trazado_204347" data-name="Trazado 204347" d="M192.557,364.815c.546.018,1.4.967,1.4.967,9.741,6.894,1.925,16.6,1.925,16.6l4.754,1.083s2.444-2.623,2.632-9.231-4.682-8.452-4.682-8.452c-.018,0-.027-.009-.045-.009a41.877,41.877,0,0,0-4.45-.833,14.02,14.02,0,0,0-1.531-.125" transform="translate(-5.63 -213.031)" fill="#3e3147"/>
          <path id="Trazado_204348" data-name="Trazado 204348" d="M198.227,365.116a26.589,26.589,0,0,1,3.7,3.492c.716,1.03,2.829.708,3.107.269.233-.376-1.719-2.319-2.354-2.928a41.879,41.879,0,0,0-4.45-.833" transform="translate(-9.769 -213.207)" fill="#fff"/>
          <path id="Trazado_204349" data-name="Trazado 204349" d="M147.154,370.852s6.493,10.44,1.692,21.477c-.171.392,14.7,3.07,14.7,3.07a37.243,37.243,0,0,0-.787-8.767,73.346,73.346,0,0,0-5.171-15.442s-10.283-2.05-10.432-.337" transform="translate(52.972 -216.158)" fill="#fce0d9"/>
          <path id="Trazado_204350" data-name="Trazado 204350" d="M156.239,415.628a17.253,17.253,0,0,1-6.954-1.891c-.769-.4-.09-1.555.678-1.16a15.627,15.627,0,0,0,6.276,1.707c.86.048.865,1.391,0,1.343" transform="translate(58.9 -240.874)" fill="#edb1a6"/>
          <path id="Trazado_204351" data-name="Trazado 204351" d="M163.554,396.644l-3.887-1.555a.689.689,0,0,1-.469-.826.678.678,0,0,1,.826-.469l3.887,1.555a.689.689,0,0,1,.469.826.678.678,0,0,1-.826.469" transform="translate(47.123 -229.932)" fill="#edb1a6"/>
          <path id="Trazado_204352" data-name="Trazado 204352" d="M167.782,376.864l-1.555-.389a.672.672,0,0,1,.357-1.3l1.555.389a.672.672,0,0,1-.357,1.295" transform="translate(40.168 -219.071)" fill="#edb1a6"/>
          <path id="Trazado_204353" data-name="Trazado 204353" d="M535.213,749.547s4.284,5.274,2,18.663c-.994,5.835-4.434,11.225-7.835,9.55s6.371-5.363-.958-14.974c-2.734-3.585,6.791-13.239,6.791-13.239" transform="translate(-479.778 -437.692)" fill="#ff978c"/>
          <path id="Trazado_204354" data-name="Trazado 204354" d="M642.849,824.9s-5.965-1.289-6.557,1.686-9.066,41.459-.81,41.3c15.682-.308,11.737-39.1,7.366-42.983" transform="translate(-631.889 -481.534)" fill="#bd6868"/>
          <path id="Trazado_204355" data-name="Trazado 204355" d="M533.2,840.014c3.849,15.288,9.365,82.416,4.752,85.969s-11.3,1.891-11.961,1.794-74-23.271-74.49-29.412,1.355-73.036,3.3-76.179,7.516-3.908,10.188-3.665,66.252,13.7,68.213,21.492" transform="translate(-449.772 -477.945)" fill="#bd6868"/>
          <path id="Trazado_204356" data-name="Trazado 204356" d="M547.749,872.114c-4.019-1.484-7.787,1.26-10.511,3.956a7.247,7.247,0,0,0-1.935,2.56,15.371,15.371,0,0,0-.525,3.533c-.771,7.4-.567,14.828-.644,22.261-.019,1.851-.055,3.7-.142,5.552-.036.768-.081,1.537-.14,2.3a7.338,7.338,0,0,1-.382,2.484c-.805,1.721-3.422,1.053-4.9.919-2.178-.2-4.346-.515-6.494-.926-9.074-1.737-17.717-5.143-26.275-8.533Q481.25,900.458,466.9,894.2c-.79-.345-.107-1.5.678-1.16q12.848,5.6,25.866,10.8c8.489,3.391,17.023,6.882,25.948,8.967,2.265.529,4.555.966,6.862,1.269q1.545.2,3.1.324c.622.048,1.247.1,1.87.115.6.016,1-.027,1.141-.691a30.481,30.481,0,0,0,.335-4.942c.067-1.84.093-3.682.106-5.523.027-3.945-.014-7.891.06-11.836.064-3.434.321-6.823.663-10.238a7.784,7.784,0,0,1,3.257-6.65c2.95-2.838,7.121-5.374,11.325-3.822.8.3.456,1.6-.357,1.3" transform="translate(-464.917 -508.232)" fill="#8f4242"/>
          <path id="Trazado_204357" data-name="Trazado 204357" d="M489.3,964.73a300.925,300.925,0,0,1-4.653-38.078c-.344-5.99-.415-11.99-.7-17.981-.212-4.414-.551-8.82-.714-13.236-.081-2.19-.137-4.388-.023-6.577a10.608,10.608,0,0,1,.782-4.238c.394-.77,1.553-.091,1.16.678a8.94,8.94,0,0,0-.594,3.475c-.1,1.883-.072,3.774-.015,5.658.131,4.35.452,8.692.686,13.037.3,5.627.362,11.264.642,16.893q.469,9.417,1.533,18.792,1.21,10.664,3.2,21.221c.158.845-1.136,1.207-1.3.357" transform="translate(-413.873 -516.369)" fill="#8f4242"/>
          <path id="Trazado_204358" data-name="Trazado 204358" d="M592.468,938.6c.043,1.1-.139,10.011-.365,11.468-.4,2.59-9.136-1.359-9.3-3.058-.278-2.924.432-9.815.483-11.081.081-2.024,9.054-.567,9.181,2.671" transform="translate(-557.173 -545.988)" fill="#fce0d9"/>
          <path id="Trazado_204359" data-name="Trazado 204359" d="M590.281,939.777a3.667,3.667,0,0,1,2.794,3.5,46.229,46.229,0,0,1-.187,5.549c-.072,1.276.027,3.482-1.844,3.3a7.874,7.874,0,0,1-2.244-.738c-1.023-.435-2.039-.885-3.028-1.393-.769-.4-.09-1.555.678-1.16a26.966,26.966,0,0,0,4.165,1.827,3.994,3.994,0,0,0,.546.132c.04.005.251-.013.126.007.056-.009.04-.017.046-.009s.123-.138.005.005c-.077.094-.035.02,0-.005-.13.1.022.075.007-.031.011.076-.045.146-.015.025.011-.043.027-.086.037-.129.027-.122.051-.243.069-.367,0,.017,0,0,.012-.109.009-.088.018-.176.026-.264.021-.231.037-.464.052-.7.1-1.531.158-3.065.211-4.6a5.862,5.862,0,0,0-.169-2.226,2.305,2.305,0,0,0-1.64-1.324.672.672,0,0,1,.357-1.295" transform="translate(-558.931 -548.759)" fill="#edb1a6"/>
          <path id="Trazado_204360" data-name="Trazado 204360" d="M459.233,982.577a67.825,67.825,0,0,0,3.479,26.279c.86,2.526,2.163,5.318,1.047,7.973-.33.785-1.63.44-1.3-.357,1.137-2.7-.565-5.732-1.393-8.3a68.25,68.25,0,0,1-2.123-8.369,69.736,69.736,0,0,1-1.058-17.224c.054-.858,1.4-.865,1.343,0" transform="translate(-376.887 -573.391)" fill="#8f4242"/>
          <path id="Trazado_204361" data-name="Trazado 204361" d="M558.677,850.8c-3.408-1.449-7.1-1.992-10.618-3.109-3.4-1.079-6.637-2.579-9.923-3.945-6.084-2.53-12.443-4.479-18.732-6.432-3.043-.945-6.1-1.86-9.146-2.783a.672.672,0,0,1,.357-1.295c5.614,1.7,11.23,3.388,16.8,5.238,3.378,1.122,6.777,2.229,10.078,3.564,3.348,1.355,6.622,2.9,10.045,4.067,3.9,1.329,8.014,1.918,11.819,3.535.793.337.109,1.494-.678,1.16" transform="translate(-494.053 -486.543)" fill="#8f4242"/>
          <path id="Trazado_204362" data-name="Trazado 204362" d="M523.146,846.987a2.816,2.816,0,0,0-1.243-1.412,5.929,5.929,0,0,0-2.117-.734,1.926,1.926,0,0,0-.557-.044c-.006,0-.142.054-.065.019q-.1.067-.038.017a1.051,1.051,0,0,0-.1.1,1.86,1.86,0,0,0-.211.779,7.443,7.443,0,0,0,.384,2.942l-1.319.178a.434.434,0,0,0-.1-.322.672.672,0,0,1,1.16-.678,1.682,1.682,0,0,1,.282,1,.675.675,0,0,1-1.319.179,8.6,8.6,0,0,1-.45-2.884,2.968,2.968,0,0,1,.776-2.291,2.808,2.808,0,0,1,2.535-.161,6.388,6.388,0,0,1,2.074.907,4.167,4.167,0,0,1,1.6,2.045.672.672,0,0,1-1.3.357" transform="translate(-462.006 -492.529)" fill="#edb1a6"/>
          <path id="Trazado_204363" data-name="Trazado 204363" d="M603.052,824.865c-.089.115.025-.043.046-.078.032-.053.058-.107.086-.162-.054.1-.028.067-.005-.012.055-.19-.011.069.006-.02,0-.022,0-.045,0-.068.01-.107-.042.124.011.08a.5.5,0,0,0-.037-.126c-.02,0,.108.164,0,.028-.082-.1.111.1-.01-.013-.035-.033-.072-.066-.105-.1-.068-.072.129.078-.017-.011-.1-.057-.189-.113-.289-.163l-.079-.037c.015.007.147.056.037.016-.05-.018-.1-.038-.151-.056-.127-.045-.255-.083-.386-.116s-.236-.057-.355-.08c-.064-.012-.127-.024-.191-.034-.043-.007-.28-.033-.083-.014-.238-.022-.475-.048-.715-.052-.1,0-.193,0-.29,0l-.138.009c-.016,0-.032,0-.048,0-.12,0,.168-.037.06-.009a1.731,1.731,0,0,0-.878.365,1.068,1.068,0,0,0-.222.359,4.071,4.071,0,0,0-.134.54c-.02.134-.038.411-.049.6-.012.22-.021.44-.039.66a.688.688,0,0,1-.672.672.677.677,0,0,1-.672-.672,5.385,5.385,0,0,1,.6-2.812,2.835,2.835,0,0,1,2.326-1.063,7.13,7.13,0,0,1,1.838.223,3.218,3.218,0,0,1,1.629.844,1.514,1.514,0,0,1,.407,1.022,2.033,2.033,0,0,1-.526,1.221.675.675,0,0,1-.95,0,.688.688,0,0,1,0-.949" transform="translate(-575.464 -480.295)" fill="#edb1a6"/>
          <path id="Trazado_204364" data-name="Trazado 204364" d="M559.494,817.157s-1.215-12.2-7.367-17.7-15.591-6.476-21.657-2.682-8.664,11.03-7.045,12.663,2.6-1.018,2.6-1.018.156-6.523,6.031-8.153c5.834-1.619,15.056-1.053,18.294,2.671s5.267,11.77,6.033,14.206,2.334,3.659,3.115.013" transform="translate(-499.317 -463.939)" fill="#bd6868"/>
          <path id="Trazado_204365" data-name="Trazado 204365" d="M537.242,712.384,538,716.1c0,1.864.209,4.543-.662,6.192-2.726,5.157-6.137,17.628-6.637,22.962-.648,6.911-1.113,14.132,4.85,13.184,0,0,1.745,5.388,7.036,2.811,0,0,1.367,2.991,7.429,2.591,5.447-2.389,5.351-4.668,4.111-6.56-.734-1.119-2.225,1.054-2.875.515-.417-.346-.365-2.539-.26-3.874.34-4.32,1.8-11.459,3.094-9.794,7.023,9.064,4.126-14.589,1.718-19.8-.01.557.226-10.484.442-11.945.19-1.286-19,0-19,0" transform="translate(-501.391 -415.657)" fill="#ff978c"/>
          <path id="Trazado_204366" data-name="Trazado 204366" d="M552.75,798.792a21.774,21.774,0,0,0,.8,7.92,11.145,11.145,0,0,0,3.722,6.2c.679.516.01,1.683-.678,1.16a12.252,12.252,0,0,1-4.216-6.564,22.962,22.962,0,0,1-.971-8.715c.089-.851,1.434-.86,1.343,0" transform="translate(-509.177 -466.073)" fill="#e25c59"/>
          <path id="Trazado_204367" data-name="Trazado 204367" d="M570.347,797.906a29.942,29.942,0,0,0,.506,7.341,7.464,7.464,0,0,0,1.213,2.811c.567.736,1.258,1.374,1.846,2.094.542.664-.4,1.62-.949.95-.625-.766-1.348-1.448-1.952-2.229a8.4,8.4,0,0,1-1.391-3.033,30.311,30.311,0,0,1-.615-7.934.672.672,0,0,1,1.343,0" transform="translate(-533.055 -465.552)" fill="#e25c59"/>
          <path id="Trazado_204368" data-name="Trazado 204368" d="M585.964,795.674c-.216,2.567-.347,5.546.672,7.923a6.388,6.388,0,0,0,.5.932,3.873,3.873,0,0,0,.405.551,11.383,11.383,0,0,1,.824.973c.481.721-.682,1.394-1.16.678-.127-.191.078.073-.059-.079-.063-.07-.125-.141-.188-.211-.156-.172-.312-.343-.459-.523a7.426,7.426,0,0,1-1.1-1.831c-1.1-2.61-1.008-5.651-.775-8.414.072-.855,1.416-.862,1.343,0" transform="translate(-553.896 -464.252)" fill="#e25c59"/>
          <path id="Trazado_204369" data-name="Trazado 204369" d="M541.524,778.928a8.793,8.793,0,0,1-1.509,5.511.689.689,0,0,1-.919.241.677.677,0,0,1-.241-.919,7.589,7.589,0,0,0,1.326-4.833.672.672,0,0,1,1.343,0" transform="translate(-487.943 -454.457)" fill="#e25c59"/>
          <path id="Trazado_204370" data-name="Trazado 204370" d="M550.279,709.985c.175,1.472.376,3.563.517,5.11a2.376,2.376,0,0,1-1.891,2.549c-4.935,1.019-18.638,2.1-23.6-2.942-1.027-1.044-2.211-7.3-.973-9.359a2.357,2.357,0,0,1,2.421-1.085l21.559,3.663a2.377,2.377,0,0,1,1.968,2.063" transform="translate(-490.983 -411.226)" fill="#fce0d9"/>
          <path id="Trazado_204371" data-name="Trazado 204371" d="M496.2,306.848c-.479,1.543-20.531,51.633-28.967,64.961-6.088,9.618-39.323,16.334-35.825-7.767s28.972-110.355,42.044-110.271c24.662.159,28.42,34.817,22.748,53.078" transform="translate(-400.14 -148.188)" fill="#543139"/>
          <path id="Trazado_204372" data-name="Trazado 204372" d="M456.275,358.622c-3.182,12.793-7.306,25.365-11.445,37.873q-2.182,6.593-4.426,13.165c-.277.814-1.575.464-1.3-.357,4.759-13.96,9.441-27.968,13.484-42.155.84-2.949,1.647-5.907,2.387-8.882a.672.672,0,0,1,1.3.357" transform="translate(-361.22 -208.927)" fill="#381b21"/>
          <path id="Trazado_204373" data-name="Trazado 204373" d="M451.467,311.073c1.1,4.85,1.976,9.754,2.715,14.671a122.744,122.744,0,0,1,1.6,16.619,28.9,28.9,0,0,1-.548,6.877c-.2.841-1.49.485-1.295-.357a26.041,26.041,0,0,0,.5-5.94c-.006-2.57-.18-5.138-.42-7.7-.518-5.529-1.358-11.028-2.362-16.488-.451-2.451-.937-4.9-1.487-7.328-.191-.842,1.1-1.2,1.3-.357" transform="translate(-365.319 -181.368)" fill="#381b21"/>
          <path id="Trazado_204374" data-name="Trazado 204374" d="M542.42,512.5s.14,72.591-5.325,75.317-27.3,3.518-32.775-6.559c-2.862-5.266-1.936-51.356.785-77.71,1.624-15.734,39.258-15.743,37.314,8.953" transform="translate(-473.836 -287.695)" fill="#543139"/>
          <path id="Trazado_204375" data-name="Trazado 204375" d="M521.5,529a52.026,52.026,0,0,1-16.954-1.334.672.672,0,0,1,.357-1.295,50.865,50.865,0,0,0,16.6,1.286c.861-.074.856,1.269,0,1.343" transform="translate(-454.104 -307.359)" fill="#381b21"/>
          <path id="Trazado_204376" data-name="Trazado 204376" d="M516.849,521.205a87.986,87.986,0,0,0-10.505-2.678c-.848-.161-.489-1.456.357-1.295a87.969,87.969,0,0,1,10.505,2.677c.82.264.469,1.561-.357,1.3" transform="translate(-450.384 -302.026)" fill="#381b21"/>
          <path id="Trazado_204377" data-name="Trazado 204377" d="M560.865,648.084a66.434,66.434,0,0,0,12.209-1.323.681.681,0,0,1,.85.647q.034,3.309.07,6.618c.011,1.034.093,2.1.015,3.128a2.322,2.322,0,0,1-1.241,2.05,13.174,13.174,0,0,1-2.818.855q-1.539.369-3.106.6a37.075,37.075,0,0,1-6.366.387.672.672,0,0,1,0-1.343,34.013,34.013,0,0,0,11.207-1.51c.375-.12.755-.253.906-.652a3.456,3.456,0,0,0,.084-1.223q-.014-1.464-.031-2.927-.031-2.991-.063-5.981l.85.647a68.387,68.387,0,0,1-12.566,1.371.672.672,0,0,1,0-1.343" transform="translate(-529.209 -377.662)" fill="#381b21"/>
          <path id="Trazado_204378" data-name="Trazado 204378" d="M511.536,641.66a.962.962,0,0,0-.072.2c-.035.123-.06.248-.085.373a13.1,13.1,0,0,0-.172,1.323c-.12,1.283-.171,2.573-.2,3.861-.081,3.227-.028,6.464.18,9.686.153,2.372.369,4.736.4,7.114.028,2.273.1,4.94-.867,7.054a5.2,5.2,0,0,1-2.691,2.609,15.157,15.157,0,0,1-1.714.467,7.136,7.136,0,0,0-2.238,1.067c-.714.492-1.386-.672-.678-1.16a10.433,10.433,0,0,1,3.524-1.434,3.873,3.873,0,0,0,2.553-2.049,8.47,8.47,0,0,0,.657-2.98,35.939,35.939,0,0,0,.107-3.9c-.043-2.354-.264-4.692-.409-7.04-.194-3.14-.243-6.293-.164-9.438.035-1.395.088-2.794.235-4.182a5.913,5.913,0,0,1,.481-2.256.672.672,0,0,1,1.16.678" transform="translate(-443.189 -374.105)" fill="#381b21"/>
          <path id="Trazado_204379" data-name="Trazado 204379" d="M518.916,596.315a81.99,81.99,0,0,1-2.079-15.906c-.027-.864,1.316-.863,1.343,0a80.08,80.08,0,0,0,2.031,15.549c.195.841-1.1,1.2-1.3.357" transform="translate(-457.51 -338.548)" fill="#381b21"/>
          <path id="Trazado_204380" data-name="Trazado 204380" d="M312.775,584.485a130.191,130.191,0,0,0-15.561-.665.672.672,0,0,1,0-1.343,130.165,130.165,0,0,1,15.561.665c.851.088.86,1.432,0,1.343" transform="translate(-159.049 -340.122)" fill="#edb1a6"/>
          <path id="Trazado_204381" data-name="Trazado 204381" d="M525.487,847.466a5.923,5.923,0,0,1-2,.774.721.721,0,0,1-.517-.068.672.672,0,0,1-.241-.919.662.662,0,0,1,.4-.309,5.47,5.47,0,0,0,1.119-.334l-.16.068a5.555,5.555,0,0,0,.721-.372.672.672,0,0,1,.678,1.16" transform="translate(-465.506 -494.142)" fill="#8f4242"/>
          <path id="Trazado_204382" data-name="Trazado 204382" d="M605.789,827.595a4.03,4.03,0,0,1-2.448,1.067.674.674,0,0,1-.475-.2.671.671,0,0,1,.475-1.146c.065-.005.129-.012.193-.02l-.179.024a3.367,3.367,0,0,0,.808-.221l-.161.067a3.364,3.364,0,0,0,.726-.419l-.136.1c.085-.066.167-.136.246-.209a.672.672,0,1,1,.95.949" transform="translate(-578.972 -482.6)" fill="#8f4242"/>
          <path id="Trazado_204383" data-name="Trazado 204383" d="M363.644,1419.54l-5.477-.032c-.815-.005-1.633-.032-2.447,0a2.858,2.858,0,0,0-1.924.591c-.631.589-1.583-.358-.949-.949,1.268-1.185,3.108-.993,4.712-.984l6.085.036a.672.672,0,0,1,0,1.343" transform="translate(-233.255 -828.114)" fill="#381b21"/>
          <path id="Trazado_204384" data-name="Trazado 204384" d="M393.654,1302.761c-.43-7.942-4.508-16.129-.878-23.887.366-.782,1.524-.1,1.16.678-3.457,7.388.651,15.631,1.061,23.209.047.864-1.3.861-1.343,0" transform="translate(-280.04 -746.586)" fill="#381b21"/>
          <path id="Trazado_204385" data-name="Trazado 204385" d="M202.976,1385.16c-.939-2.2-1.913-4.392-2.986-6.533-.558-1.114-1.141-2.22-1.8-3.279a7.623,7.623,0,0,0-1.564-2.008c-.693-.5-.023-1.668.678-1.16a7.745,7.745,0,0,1,1.836,2.157,36.978,36.978,0,0,1,1.865,3.328c1.131,2.23,2.149,4.518,3.129,6.817.335.786-.821,1.471-1.16.678" transform="translate(-8.128 -801.199)" fill="#381b21"/>
        </g>
      </g>
    </g>
  </g>
</svg>
