<svg xmlns="http://www.w3.org/2000/svg" xmlns:xlink="http://www.w3.org/1999/xlink" width="1328" height="763.063" viewBox="0 0 1328 763.063">
  <defs>
    <clipPath id="clip-path">
      <rect id="Rectángulo_338242" data-name="Rectángulo 338242" width="1328" height="763" transform="translate(0 0.198)" fill="#ff9fa3"/>
    </clipPath>
  </defs>
  <g id="Grupo_982354" data-name="Grupo 982354" transform="translate(-136 -1953)">
    <path id="Trazado_204204" data-name="Trazado 204204" d="M0,0H1328V763.063H0Z" transform="translate(136 1953)" fill="#fff7da"/>
    <g id="Enmascarar_grupo_416" data-name="Enmascarar grupo 416" transform="translate(136 1952.864)" clip-path="url(#clip-path)">
      <g id="Grupo_982353" data-name="Grupo 982353" transform="translate(-251.573 -141.359)" opacity="0.232">
        <g id="Grupo_82660" data-name="Grupo 82660" transform="translate(0 0)">
          <g id="Grupo_82659" data-name="Grupo 82659">
            <g id="Grupo_82658" data-name="Grupo 82658">
              <path id="Trazado_115699" data-name="Trazado 115699" d="M1491.593,912.773c-97.116,98.609-197.478,193.6-299.775,286.885,44.225-99.188,91.916-196.837,133.9-297.066,47.591-113.65,102.9-268.563,42.915-387.774C1231.89,243.095,886.217,509.7,759.006,646.49c-13.566,14.561-26.486,29.783-39.588,44.844,45.434-110.45,86.353-223.94,75.569-343.27C780.131,183.99,628.55,144.626,498.054,220.853,357.9,302.72,245.365,444.352,151.373,572.984,71.552,682.233,254.215,786.242,333.411,678.553A1425.4,1425.4,0,0,1,475.68,513.379q-11.339,20.612-22.9,41.163C401.723,645.05,351.29,735.918,309.687,831.166c-79.681,182.416-197.478,434.918-97.257,626.794,50.513,96.689,168.936,106.51,258.131,67.166,119.874-52.885,202.9-169.635,282.944-268.443,83.551-103.169,157.124-212.719,234.467-320.368,32.332-44.984,64.623-90.608,101.611-131.991.847-.94,1.754-1.82,2.6-2.78l-.927,2.92c-20.54,63.365-46.966,124.171-73.694,185.136-49.768,113.41-113.927,232.8-132.149,356.231-16.126,109.13,28.422,231.44,160.692,223.519,124.328-7.441,223.984-126.291,307.112-205.658,100.684-96.128,199.554-194.177,298.445-292.106C1754.9,969.358,1593.587,809.224,1491.593,912.773Z" transform="translate(-111.248 -163.42)" fill="#fed947"/>
              <path id="Trazado_115700" data-name="Trazado 115700" d="M1053.61,1608.742c-48.8,0-90.2-16.981-120.337-49.544-41.886-45.264-59.987-118.99-48.437-197.237C899.873,1259.991,944.7,1162.3,988.06,1067.834c10.361-22.622,20.641-45,30.377-67.166,9.211-21.022,18.907-43.1,28.522-65.946-5.886,8.121-11.711,16.242-17.476,24.282l-5.725,7.961c-20.1,27.963-39.931,56.065-59.766,84.127-55.633,78.827-113.181,160.334-175.426,237.161q-13.636,16.861-27.454,34.283c-71.376,89.548-152.266,191.057-263.009,239.921-98.749,43.5-228.036,31.3-284.194-76.247-100.926-193.177,8.043-441.778,87.6-623.314l9.05-20.622c23.4-53.625,49.647-105.97,77.463-158.074q-9.645,12.51-18.988,25.182C320.1,775.969,234.349,774.969,179.7,735.526c-45.192-32.623-70.55-93.268-25.277-155.234,100.322-137.312,212.5-275.684,352.748-357.631,77.867-45.444,163.05-52.824,228-19.722,57.165,29.143,92.4,86.788,99.253,162.374,8.023,88.648-11.268,173.515-39.245,254.443C898.7,519.426,1090.115,377.114,1243.691,398.676c70.55,9.94,125.175,52.424,162.324,126.251,61.1,121.411,12.88,272.544-42.33,404.4-26.285,62.745-55.19,125.371-83.148,185.916l-9.9,21.422c83.188-77.387,157.607-149.493,225.9-218.819h0c33.763-34.3,76.657-46.884,120.66-35.543,48.316,12.481,89.618,53.145,102.74,101.229,12.074,44.1-.242,87.167-34.69,121.27L1674,1115.939c-93.629,92.728-190.443,188.6-287.439,281.2-11.953,11.421-24.229,23.642-36.907,36.243-75.286,74.907-169,168.155-282.984,174.975C1062.258,1608.622,1057.924,1608.742,1053.61,1608.742Zm57.83-807.291a19.113,19.113,0,0,1,9.756,2.6c8.124,4.76,12.437,13.8,9.535,22.7l-.948,2.92c-21.527,66.426-49.606,130.472-74.379,186.957-9.817,22.362-20.2,44.964-30.659,67.786-42.188,91.928-85.808,186.976-100.039,283.345-9.655,65.446,5,128.431,38.258,164.374,24.632,26.622,58.677,38.7,101.268,36.3,98.689-5.921,182.744-89.528,256.881-163.314,12.86-12.8,25.357-25.222,37.492-36.8,96.734-92.348,193.427-188.1,286.935-280.7l11.228-11.141c30.457-30.143,30.014-61.486,24.269-82.487-9.333-34.123-39.75-64.146-74-72.966-20.842-5.4-51.9-5.441-81.656,24.782h0c-88.227,89.547-186.533,183.636-300.561,287.645a20.257,20.257,0,0,1-25.378,1.52,19.868,19.868,0,0,1-6.692-24.342c16.71-37.5,33.924-74.767,51.118-112.05,27.817-60.225,56.561-122.511,82.583-184.616,51.723-123.49,97.358-264.163,43.5-371.173-31.324-62.225-74.48-96.408-131.927-104.509-143.175-20.1-344.544,132.952-444.866,240.821-10.683,11.5-20.983,23.422-31.3,35.323l-7.821,9.04a20.191,20.191,0,0,1-25.781,3.98,19.934,19.934,0,0,1-8.143-24.622c43.3-105.189,84.679-217.659,74.158-333.93-5.644-62.325-32.453-107.409-77.524-130.391-52.59-26.782-123.26-19.8-189.113,18.642C393.73,335.351,284.822,469.962,187.06,603.774c-30.9,42.284-11.812,79.067,16.347,99.389,38.137,27.522,97.721,30.763,133.077-17.342A1447.923,1447.923,0,0,1,480.768,518.327a20.236,20.236,0,0,1,26.325-1.92,19.886,19.886,0,0,1,5.644,25.6q-11.4,20.731-23.019,41.343C438.015,675,388.248,764.988,347.53,858.176l-9.05,20.682c-76.335,174.155-180.869,412.676-88.792,588.932,44.728,85.647,150.593,94.008,232.047,58.105,101.652-44.824,175.931-138.052,247.75-228.18q13.939-17.492,27.655-34.523C818.56,1187.385,875.7,1106.438,931,1028.151c19.875-28.162,39.77-56.345,59.927-84.407l5.725-7.941c30.336-42.263,61.7-85.967,97.217-125.691l1.814-1.94A22.064,22.064,0,0,1,1111.441,801.452Zm399.512,130.371h0Z" transform="translate(-130.608 -182.47)" fill="#fed947"/>
            </g>
            <path id="Trazado_115701" data-name="Trazado 115701" d="M219.559,230.57C145.28,378.664,103.394,552.258,168.622,711.453c9.655,23.522,48.659,13.241,38.883-10.641-61.257-149.473-23-310.767,46.865-450.059C265.879,227.77,231.129,207.489,219.559,230.57Z" transform="translate(-21.766 538.164)" fill="#fed947"/>
            <path id="Trazado_115702" data-name="Trazado 115702" d="M202.306,344.912c-.342-.04-.665-.14-.987-.2-.564-1.1-1.089-2.26-1.27-2.58l-.081-.12c-.04-.16.02-.06-.04-.3-2.6-8.921-4.475-17.982-6.43-27.063Q186.635,283,179.811,251.344C177.594,241.1,164.955,234.182,155,237.383c-10.864,3.48-16.448,13.621-14.07,24.6q7.741,35.793,15.481,71.586c4.314,19.882,11.187,45.944,35.174,49.924,10.361,1.7,22.213-2.7,24.793-13.981C218.594,359.853,213.413,346.752,202.306,344.912Z" transform="translate(56.703 846)" fill="#fed947"/>
            <path id="Trazado_115703" data-name="Trazado 115703" d="M243.7,201.766c-22.878-12.121-43.277,22.4-20.339,34.543,31.647,16.761,41.282,50.884,42.551,84.387,1.452,38.063-2.862,77.207-9.091,114.69a756.9,756.9,0,0,1-69.965,214.859c-11.53,22.982,23.241,43.264,34.811,20.182,39.911-79.707,66.619-164.755,78.25-253.042C309.416,345.278,320.784,242.57,243.7,201.766Z" transform="translate(902.759 135.911)" fill="#fed947"/>
          </g>
        </g>
      </g>
    </g>
  </g>
</svg>
