<svg xmlns="http://www.w3.org/2000/svg" xmlns:xlink="http://www.w3.org/1999/xlink" width="113.353" height="119.247" viewBox="0 0 113.353 119.247">
  <defs>
    <clipPath id="clip-path">
      <rect id="Rectángulo_338412" data-name="Rectángulo 338412" width="87.705" height="96.887" fill="none"/>
    </clipPath>
    <clipPath id="clip-path-3">
      <rect id="Rectángulo_338404" data-name="Rectángulo 338404" width="3.42" height="4.508" fill="none"/>
    </clipPath>
    <clipPath id="clip-path-4">
      <rect id="Rectángulo_338405" data-name="Rectángulo 338405" width="0.04" height="0.01" fill="none"/>
    </clipPath>
    <clipPath id="clip-path-5">
      <rect id="Rectángulo_338406" data-name="Rectángulo 338406" width="56.174" height="63.703" fill="none"/>
    </clipPath>
    <clipPath id="clip-path-6">
      <rect id="Rectángulo_338407" data-name="Rectángulo 338407" width="62.516" height="30.821" fill="none"/>
    </clipPath>
    <clipPath id="clip-path-7">
      <rect id="Rectángulo_338408" data-name="Rectángulo 338408" width="15.891" height="3.385" fill="none"/>
    </clipPath>
    <clipPath id="clip-path-8">
      <rect id="Rectángulo_338409" data-name="Rectángulo 338409" width="29.137" height="21.353" fill="none"/>
    </clipPath>
    <clipPath id="clip-path-9">
      <rect id="Rectángulo_338410" data-name="Rectángulo 338410" width="29.134" height="21.702" fill="none"/>
    </clipPath>
  </defs>
  <g id="Grupo_982776" data-name="Grupo 982776" transform="matrix(0.951, 0.309, -0.309, 0.951, 29.939, 0)">
    <g id="Grupo_982753" data-name="Grupo 982753" clip-path="url(#clip-path)">
      <g id="Grupo_982752" data-name="Grupo 982752" transform="translate(0 0)">
        <g id="Grupo_982751" data-name="Grupo 982751" clip-path="url(#clip-path)">
          <path id="Trazado_205639" data-name="Trazado 205639" d="M75.249,29.452q-1.823-1.3-3.648-2.588Q62.631,20.479,53.656,14.1q-2.978-2.108-5.967-4.2C50.995,1.248,63.156-2.779,73,4.17c7.2,5.087,10.747,18.272,2.252,25.282" transform="translate(6.939 0.092)" fill="#fff"/>
          <path id="Trazado_205640" data-name="Trazado 205640" d="M75.32,30.084a.555.555,0,0,1-.325-.1l-1.606-1.137q-1.022-.725-2.044-1.45l-5.112-3.642Q59.822,19.184,53.4,14.63q-2.466-1.746-4.939-3.48l-1.026-.721a.561.561,0,0,1-.2-.66A15.045,15.045,0,0,1,57.143.9a18.442,18.442,0,0,1,23.682,17.17,14.318,14.318,0,0,1-5.149,11.881.562.562,0,0,1-.356.128M48.447,9.766l.662.465q2.474,1.739,4.943,3.482,6.426,4.548,12.832,9.123L72,26.478q1.019.725,2.041,1.448l1.25.887a13.241,13.241,0,0,0,4.415-10.7A17.892,17.892,0,0,0,72.743,4.7,17.55,17.55,0,0,0,57.47,1.978a14,14,0,0,0-9.023,7.788" transform="translate(6.868 0.02)"/>
          <path id="Trazado_205641" data-name="Trazado 205641" d="M5.446,29.452q1.823-1.3,3.648-2.588Q18.065,20.479,27.038,14.1q2.978-2.108,5.967-4.2C29.7,1.248,17.539-2.779,7.7,4.17.493,9.257-3.05,22.442,5.446,29.452" transform="translate(0.071 0.092)" fill="#fff"/>
          <path id="Trazado_205642" data-name="Trazado 205642" d="M5.517,30.084a.557.557,0,0,1-.357-.128A14.319,14.319,0,0,1,.012,18.075,18.8,18.8,0,0,1,7.446,3.783,18.657,18.657,0,0,1,23.694.9,15.046,15.046,0,0,1,33.6,9.77a.561.561,0,0,1-.2.66l-1.026.722Q29.9,12.887,27.434,14.63q-6.425,4.548-12.83,9.121L9.491,27.393q-1.021.727-2.042,1.45L5.842,29.981a.565.565,0,0,1-.325.1M18.563,1.267A18.178,18.178,0,0,0,8.093,4.7,17.9,17.9,0,0,0,1.134,18.117a13.241,13.241,0,0,0,4.415,10.7l1.25-.887Q7.819,27.2,8.84,26.478l5.112-3.642q6.413-4.569,12.832-9.123,2.467-1.747,4.943-3.482l.663-.465a14,14,0,0,0-9.023-7.787,16.463,16.463,0,0,0-4.8-.713" transform="translate(0 0.02)"/>
          <path id="Trazado_205643" data-name="Trazado 205643" d="M17.932,68.971a88.835,88.835,0,0,0-3.22,14.078c-.188,1.3.033,3.122,1.345,3.235.876.076,1.536-.747,2.016-1.483q3.791-5.808,7.17-11.869a.805.805,0,0,0-.362-1.337,16.906,16.906,0,0,0-6.949-2.624" transform="translate(2.132 10.036)" fill="#fff"/>
          <path id="Trazado_205644" data-name="Trazado 205644" d="M16.24,86.923c-.053,0-.107,0-.16-.007a1.8,1.8,0,0,1-1.28-.694,4.554,4.554,0,0,1-.573-3.181,89.711,89.711,0,0,1,3.241-14.168.558.558,0,0,1,.612-.386,17.433,17.433,0,0,1,7.156,2.7,1.338,1.338,0,0,1,.569,2.094c-2.248,4.03-4.667,8.035-7.19,11.9-.317.486-1.137,1.743-2.375,1.743M18.4,69.669A88.441,88.441,0,0,0,15.339,83.2a3.364,3.364,0,0,0,.34,2.323.67.67,0,0,0,.5.273c.6.039,1.136-.678,1.5-1.23,2.51-3.847,4.915-7.828,7.15-11.835.131-.235.151-.322.147-.353a.928.928,0,0,0-.3-.227A16.473,16.473,0,0,0,18.4,69.669" transform="translate(2.061 9.965)"/>
          <path id="Trazado_205645" data-name="Trazado 205645" d="M57.978,68.971A88.836,88.836,0,0,1,61.2,83.049c.188,1.3-.033,3.122-1.345,3.235-.875.076-1.536-.747-2.016-1.483q-3.791-5.808-7.17-11.869a.8.8,0,0,1,.363-1.337,16.893,16.893,0,0,1,6.948-2.624" transform="translate(7.341 10.036)" fill="#fff"/>
          <path id="Trazado_205646" data-name="Trazado 205646" d="M59.813,86.923c-1.237,0-2.057-1.258-2.375-1.742-2.524-3.868-4.943-7.873-7.19-11.9a1.34,1.34,0,0,1,.569-2.094,17.433,17.433,0,0,1,7.157-2.7.557.557,0,0,1,.611.386,89.609,89.609,0,0,1,3.24,14.168,4.546,4.546,0,0,1-.572,3.181,1.8,1.8,0,0,1-1.281.694c-.054,0-.107.007-.159.007M57.657,69.669a16.473,16.473,0,0,0-6.272,2.482.907.907,0,0,0-.3.228c0,.03.016.117.147.352,2.235,4.007,4.64,7.989,7.15,11.835.361.552.9,1.269,1.5,1.23a.67.67,0,0,0,.5-.273,3.364,3.364,0,0,0,.34-2.323,88.471,88.471,0,0,0-3.056-13.532" transform="translate(7.27 9.965)"/>
          <path id="Trazado_205647" data-name="Trazado 205647" d="M5.024,49.6c0-20.451,16.848-37.03,37.631-37.03S80.288,29.15,80.288,49.6,63.44,86.631,42.655,86.631,5.024,70.052,5.024,49.6" transform="translate(0.731 1.829)" fill="#fff"/>
          <path id="Trazado_205648" data-name="Trazado 205648" d="M42.727,87.262c-21.06,0-38.194-16.863-38.194-37.591s17.133-37.59,38.194-37.59,38.193,16.863,38.193,37.59S63.787,87.262,42.727,87.262m0-74.059c-20.441,0-37.07,16.359-37.07,36.467S22.286,86.14,42.727,86.14,79.8,69.779,79.8,49.671,63.167,13.2,42.727,13.2" transform="translate(0.66 1.758)"/>
          <path id="Trazado_205649" data-name="Trazado 205649" d="M9.421,48.971c0-17.714,14.594-32.073,32.6-32.073s32.6,14.359,32.6,32.073-14.594,32.073-32.6,32.073-32.6-14.359-32.6-32.073" transform="translate(1.371 2.458)" fill="#fff"/>
          <path id="Trazado_205650" data-name="Trazado 205650" d="M42.087,81.677C23.8,81.677,8.93,67.037,8.93,49.043S23.8,16.408,42.087,16.408s33.157,14.64,33.157,32.635S60.369,81.677,42.087,81.677m0-64.147c-17.664,0-32.034,14.137-32.034,31.512s14.37,31.512,32.034,31.512S74.121,66.419,74.121,49.043,59.751,17.531,42.087,17.531" transform="translate(1.299 2.387)"/>
          <path id="Trazado_205651" data-name="Trazado 205651" d="M37.891,53.921,52.453,40.645l5.118-8.6-9.011,5.069L34.919,51.072Z" transform="translate(5.081 4.663)"/>
          <path id="Trazado_205652" data-name="Trazado 205652" d="M37.962,54.553a.564.564,0,0,1-.388-.156L34.6,51.547a.56.56,0,0,1-.013-.8L48.23,36.794a.608.608,0,0,1,.126-.1l9.011-5.068a.561.561,0,0,1,.757.777L53.006,41a.528.528,0,0,1-.1.127L38.341,54.407a.563.563,0,0,1-.379.147m-2.174-3.424,2.184,2.094L52.084,40.357l4-6.717-7.106,4Z" transform="translate(5.01 4.592)"/>
          <g id="Grupo_982732" data-name="Grupo 982732" transform="translate(44.937 49.711)" opacity="0.129">
            <g id="Grupo_982731" data-name="Grupo 982731">
              <g id="Grupo_982730" data-name="Grupo 982730" clip-path="url(#clip-path-3)">
                <path id="Trazado_205653" data-name="Trazado 205653" d="M39.229,44.426a1.077,1.077,0,0,0,.7,1.015c.014.023.029.045.041.068.4.6.289,1,.763,1.957a1.057,1.057,0,0,0,1.877-.869,6.436,6.436,0,0,0-1.234-2.722c-.732-.753-2.056-.648-2.149.552" transform="translate(-39.228 -43.396)"/>
              </g>
            </g>
          </g>
          <path id="Trazado_205654" data-name="Trazado 205654" d="M40.333,51.173A.558.558,0,0,1,39.925,51l-20.1-21.2a.562.562,0,0,1,.816-.773l20.1,21.2a.561.561,0,0,1-.407.947" transform="translate(2.862 4.198)"/>
          <path id="Trazado_205655" data-name="Trazado 205655" d="M37.775,44.416a3.977,3.977,0,0,0-3.41,2.958,3.85,3.85,0,1,0,7.59,1.006,4.05,4.05,0,0,0-4.18-3.963" transform="translate(4.987 6.461)" fill="#fff"/>
          <path id="Trazado_205656" data-name="Trazado 205656" d="M38.116,52.755a4.05,4.05,0,0,1-.513-.033,4.584,4.584,0,0,1-3.713-5.408,4.545,4.545,0,0,1,3.9-3.387,4.347,4.347,0,0,1,3.313,1.221,4.452,4.452,0,0,1,1.48,3.315A4.366,4.366,0,0,1,41,51.644a4.473,4.473,0,0,1-2.884,1.111M37.9,45.046a3.391,3.391,0,0,0-2.915,2.528,3.228,3.228,0,0,0,5.289,3.217,3.244,3.244,0,0,0,1.194-2.354,3.378,3.378,0,0,0-1.124-2.467A3.207,3.207,0,0,0,37.9,45.046Z" transform="translate(4.916 6.389)"/>
          <g id="Grupo_982735" data-name="Grupo 982735" transform="translate(43.892 88.868)" opacity="0.129">
            <g id="Grupo_982734" data-name="Grupo 982734">
              <g id="Grupo_982733" data-name="Grupo 982733" clip-path="url(#clip-path-4)">
                <path id="Trazado_205657" data-name="Trazado 205657" d="M38.329,77.58h-.014c.041.009.06.015.014,0" transform="translate(-38.316 -77.579)"/>
              </g>
            </g>
          </g>
          <g id="Grupo_982738" data-name="Grupo 982738" transform="translate(24.845 25.266)" opacity="0.129">
            <g id="Grupo_982737" data-name="Grupo 982737">
              <g id="Grupo_982736" data-name="Grupo 982736" clip-path="url(#clip-path-5)">
                <path id="Trazado_205658" data-name="Trazado 205658" d="M21.929,80.827Q23.2,81.459,24.522,82a45.029,45.029,0,0,0,5.44,1.832.537.537,0,0,1,.417.558c.608.135,1.222.246,1.844.326a33.624,33.624,0,0,0,7.153.576.928.928,0,0,0,.513.249c.107.017.694.1.847.113l-.08-.017c.341.049.688.063,1.032.088a13.372,13.372,0,0,0,2.077-.021,30.6,30.6,0,0,0,5.077-1,51.964,51.964,0,0,0,7.636-2.6c1.229-.493,5.161-2.149,7.132-3.943a32.236,32.236,0,0,0,5.183-5.642.848.848,0,0,0,.633.077c.631-.3.383-.292.869-.876.521-.751.983-1.541,1.441-2.332a19.173,19.173,0,0,0,1.613-3,1.307,1.307,0,0,0,.175-.81,17.941,17.941,0,0,0,1.152-2.12c2.125-4.182,3.376-10.65,3.162-16.341a56.555,56.555,0,0,0-1-7.2c-.822-3.561-1.428-4.418-2.648-7.486a.936.936,0,0,0-.685-.462c-.6-1.416-1.381-3.385-2.265-5.073a14.011,14.011,0,0,0-2.777-3.888,5.939,5.939,0,0,0-1.023-.887.817.817,0,0,0-1.032.339c-.416.715.384,1.225.811,1.687a7.757,7.757,0,0,1,.751.9,19.116,19.116,0,0,1,1.75,3.028c.631,1.181,1.247,2.372,1.785,3.6.331.851.951,2.142,1.613,3.5A50.324,50.324,0,0,1,74.8,42.11a33.159,33.159,0,0,1-1.588,18.335l0,.007a46.965,46.965,0,0,1-5.86,8.895A65.779,65.779,0,0,1,61.26,75.06a28.4,28.4,0,0,1-6.331,4.477,50.907,50.907,0,0,1-5.843,2.227,58.2,58.2,0,0,1-11.767,1.4c-1.741-.158-3.186-.454-5.263-.787a45.808,45.808,0,0,1-9.344-2.365.753.753,0,0,0-1.024.69c.08.041.16.086.241.126" transform="translate(-21.689 -22.057)"/>
              </g>
            </g>
          </g>
          <path id="Trazado_205659" data-name="Trazado 205659" d="M38.332,24.506a.561.561,0,0,1-.561-.561V19.371a.561.561,0,1,1,1.123,0v4.573a.561.561,0,0,1-.561.561" transform="translate(5.496 2.737)"/>
          <path id="Trazado_205660" data-name="Trazado 205660" d="M38.332,70.792a.561.561,0,0,1-.561-.561V65.656a.561.561,0,1,1,1.123,0V70.23a.561.561,0,0,1-.561.561" transform="translate(5.496 9.472)"/>
          <path id="Trazado_205661" data-name="Trazado 205661" d="M64.052,45.072H59.478a.561.561,0,1,1,0-1.123h4.574a.561.561,0,1,1,0,1.123" transform="translate(8.573 6.395)"/>
          <path id="Trazado_205662" data-name="Trazado 205662" d="M17.766,45.072H13.192a.561.561,0,1,1,0-1.123h4.574a.561.561,0,1,1,0,1.123" transform="translate(1.838 6.395)"/>
          <path id="Trazado_205663" data-name="Trazado 205663" d="M36.2.53A7.311,7.311,0,0,0,32.36,1.688a3.119,3.119,0,0,0-1.212,3.563c.587,1.347,2.241,1.831,3.7,1.971,2.283.222,6.512.617,8.763.176,2.206-.432,3.612-2.183,3.081-4.344a3.144,3.144,0,0,0-1.724-1.912C44.184.739,38.386.359,36.2.53" transform="translate(4.505 0.071)" fill="#fff"/>
          <path id="Trazado_205664" data-name="Trazado 205664" d="M40.95,8.231c-2.187,0-4.653-.239-6.082-.378-2.158-.21-3.6-1.007-4.164-2.306A3.7,3.7,0,0,1,32.1,1.308,7.925,7.925,0,0,1,36.226.041c2.057-.162,8.092.17,9.074.672a3.656,3.656,0,0,1,2.014,2.277,3.87,3.87,0,0,1-.463,3.076,4.588,4.588,0,0,1-3.056,1.954,15.633,15.633,0,0,1-2.844.21M36.314,1.16h0a6.931,6.931,0,0,0-3.548,1.048A2.594,2.594,0,0,0,31.734,5.1c.5,1.141,2.038,1.52,3.242,1.637,2.071.2,6.381.619,8.6.184A3.475,3.475,0,0,0,45.9,5.463a2.774,2.774,0,0,0,.32-2.2,2.666,2.666,0,0,0-1.435-1.546,39.885,39.885,0,0,0-8.473-.552" transform="translate(4.433 0)"/>
          <path id="Trazado_205665" data-name="Trazado 205665" d="M37.8,14.183h-.007a.562.562,0,0,1-.554-.568L37.311,6.7a.562.562,0,0,1,.561-.556h.007a.562.562,0,0,1,.554.568l-.074,6.914a.562.562,0,0,1-.561.556" transform="translate(5.419 0.894)"/>
          <g id="Grupo_982741" data-name="Grupo 982741" transform="translate(11.025 52.3)" opacity="0.129">
            <g id="Grupo_982740" data-name="Grupo 982740">
              <g id="Grupo_982739" data-name="Grupo 982739" clip-path="url(#clip-path-6)">
                <path id="Trazado_205666" data-name="Trazado 205666" d="M70.15,60.078a41.39,41.39,0,0,1-3.612,3.459c-1.076.837-2.108,1.574-3.158,2.273a1.82,1.82,0,0,0-.551.189c-5.359,3.382-9.388,4.616-16.166,5.7a29.848,29.848,0,0,1-11.991-.131c-3.549-.721-5.264-1.567-8.971-3.745a45.393,45.393,0,0,1-7.466-6.172v0a21.8,21.8,0,0,1-1.562-2.105,41.731,41.731,0,0,1-5.692-11.1,19.821,19.821,0,0,1-1.168-2.8,38.918,38.918,0,0,0-.1,6.463C10.4,53.763,11.1,55.392,11.859,57l.166.348c.1.186.2.375.3.559a52.468,52.468,0,0,0,7.663,10.342c2.616,2.774,5.886,4.525,9.181,6.21.822.323,1.663.612,2.526.856a40.816,40.816,0,0,0,5.843.884l.033.006a25.434,25.434,0,0,0,6.464.136,31.641,31.641,0,0,0,4.941-.935,48.507,48.507,0,0,0,9.329-2.825c.745-.462,1.47-.963,2.18-1.494A43.745,43.745,0,0,0,70.81,59.842c.474-.761.922-1.535,1.33-2.33-.755.776-1.231,1.786-1.991,2.566" transform="translate(-9.624 -45.657)"/>
              </g>
            </g>
          </g>
          <path id="Trazado_205667" data-name="Trazado 205667" d="M6.622,24.837H6.6a.188.188,0,0,1-.166-.207L8.608,5.1a.192.192,0,0,1,.207-.166.187.187,0,0,1,.165.207L6.807,24.671a.187.187,0,0,1-.186.166" transform="translate(0.936 0.717)"/>
          <path id="Trazado_205668" data-name="Trazado 205668" d="M3.807,23.781l-.027,0a.187.187,0,0,1-.158-.213L5.981,7.747a.188.188,0,0,1,.371.056L3.991,23.622a.186.186,0,0,1-.184.159" transform="translate(0.527 1.104)"/>
          <path id="Trazado_205669" data-name="Trazado 205669" d="M2.188,18.142H2.164A.187.187,0,0,1,2,17.93l.683-5.169a.187.187,0,0,1,.371.049l-.683,5.169a.188.188,0,0,1-.186.163" transform="translate(0.291 1.833)"/>
          <path id="Trazado_205670" data-name="Trazado 205670" d="M9.649,23.043H9.63a.187.187,0,0,1-.168-.2l1.9-19.7a.19.19,0,0,1,.2-.168.187.187,0,0,1,.168.2l-1.9,19.7a.187.187,0,0,1-.186.17" transform="translate(1.377 0.432)"/>
          <path id="Trazado_205671" data-name="Trazado 205671" d="M12.47,20.661h-.024a.186.186,0,0,1-.162-.21c.73-5.8,1.346-11.688,1.834-17.5a.191.191,0,0,1,.2-.171.186.186,0,0,1,.171.2C14,8.8,13.385,14.694,12.655,20.5a.187.187,0,0,1-.186.164" transform="translate(1.787 0.403)"/>
          <path id="Trazado_205672" data-name="Trazado 205672" d="M15.337,18.615h-.024a.187.187,0,0,1-.162-.211c.684-5.179,1.32-10.437,1.891-15.625a.187.187,0,0,1,.372.041c-.572,5.191-1.209,10.451-1.892,15.633a.188.188,0,0,1-.186.163" transform="translate(2.204 0.38)"/>
          <path id="Trazado_205673" data-name="Trazado 205673" d="M18.478,15.686H18.46a.188.188,0,0,1-.168-.205c.408-4.077.947-8.2,1.6-12.242a.186.186,0,0,1,.215-.155.189.189,0,0,1,.155.215c-.654,4.038-1.191,8.148-1.6,12.219a.186.186,0,0,1-.186.168" transform="translate(2.662 0.448)"/>
          <path id="Trazado_205674" data-name="Trazado 205674" d="M21.347,13.242h-.023a.187.187,0,0,1-.163-.208c.352-2.927.8-5.883,1.336-8.786a.189.189,0,0,1,.218-.15.186.186,0,0,1,.15.218c-.533,2.895-.982,5.843-1.332,8.763a.187.187,0,0,1-.186.165" transform="translate(3.079 0.595)"/>
          <path id="Trazado_205675" data-name="Trazado 205675" d="M24.551,10.435h-.023a.187.187,0,0,1-.163-.21c.168-1.363.394-2.74.671-4.089a.187.187,0,1,1,.367.074c-.275,1.34-.5,2.707-.667,4.062a.188.188,0,0,1-.186.164" transform="translate(3.545 0.87)"/>
          <path id="Trazado_205676" data-name="Trazado 205676" d="M50.609,9.921l-.031,0a.187.187,0,0,1-.154-.217l.7-4.143a.188.188,0,0,1,.37.062l-.7,4.144a.188.188,0,0,1-.184.156" transform="translate(7.337 0.786)"/>
          <path id="Trazado_205677" data-name="Trazado 205677" d="M53.269,12.135l-.027,0a.187.187,0,0,1-.158-.212c.415-2.834.9-5.7,1.458-8.516a.187.187,0,0,1,.368.073c-.552,2.809-1.042,5.668-1.456,8.5a.185.185,0,0,1-.184.16" transform="translate(7.724 0.473)"/>
          <path id="Trazado_205678" data-name="Trazado 205678" d="M56.2,14.485H56.18a.187.187,0,0,1-.168-.2c.378-3.942.92-7.919,1.611-11.818a.184.184,0,0,1,.217-.152.187.187,0,0,1,.151.218c-.688,3.89-1.229,7.856-1.6,11.789a.188.188,0,0,1-.187.17" transform="translate(8.151 0.335)"/>
          <path id="Trazado_205679" data-name="Trazado 205679" d="M58.819,16.959H58.8a.188.188,0,0,1-.167-.206c.511-4.838,1.062-9.735,1.642-14.556a.184.184,0,0,1,.207-.163.186.186,0,0,1,.164.207C60.066,7.06,59.514,11.956,59,16.792a.185.185,0,0,1-.186.167" transform="translate(8.532 0.295)"/>
          <path id="Trazado_205680" data-name="Trazado 205680" d="M61.547,18.975l-.025,0a.187.187,0,0,1-.16-.211C62.113,13.317,62.7,7.779,63.121,2.3a.187.187,0,0,1,.373.029c-.417,5.486-1.01,11.032-1.762,16.485a.188.188,0,0,1-.186.162" transform="translate(8.929 0.309)"/>
          <path id="Trazado_205681" data-name="Trazado 205681" d="M64.17,20.846h-.021a.188.188,0,0,1-.166-.206L65.83,3.454a.184.184,0,0,1,.206-.166.188.188,0,0,1,.166.206L64.355,20.678a.187.187,0,0,1-.186.167" transform="translate(9.31 0.478)"/>
          <path id="Trazado_205682" data-name="Trazado 205682" d="M66.883,22.462H66.87a.187.187,0,0,1-.174-.2c.373-5.752.875-11.574,1.489-17.308a.183.183,0,0,1,.206-.166A.186.186,0,0,1,68.558,5c-.614,5.728-1.115,11.546-1.488,17.292a.188.188,0,0,1-.187.175" transform="translate(9.705 0.696)"/>
          <path id="Trazado_205683" data-name="Trazado 205683" d="M69.9,25.471H69.9a.188.188,0,0,1-.179-.195c.245-6.233.567-12.551.954-18.781a.178.178,0,0,1,.2-.175.187.187,0,0,1,.175.2c-.387,6.226-.708,12.542-.954,18.773a.187.187,0,0,1-.186.18" transform="translate(10.145 0.919)"/>
          <path id="Trazado_205684" data-name="Trazado 205684" d="M73.061,23.707a.186.186,0,0,1-.187-.186c-.042-4.355.085-8.768.378-13.112a.183.183,0,0,1,.2-.175.187.187,0,0,1,.174.2c-.292,4.336-.419,8.738-.378,13.084a.187.187,0,0,1-.184.189Z" transform="translate(10.603 1.489)"/>
          <g id="Grupo_982744" data-name="Grupo 982744" transform="translate(35.195 3.935)" opacity="0.129">
            <g id="Grupo_982743" data-name="Grupo 982743">
              <g id="Grupo_982742" data-name="Grupo 982742" clip-path="url(#clip-path-7)">
                <path id="Trazado_205685" data-name="Trazado 205685" d="M44.823,3.986c-.092.061-.186.118-.283.171-.142.049-.286.092-.431.126a18.883,18.883,0,0,1-3.8.213c-1.756-.013-4.895-.494-5.558-.551a29.544,29.544,0,0,0-3-.509,1.2,1.2,0,0,0-.159,2.33,39.092,39.092,0,0,0,11.428.927,13.776,13.776,0,0,0,2.409-.424,1.442,1.442,0,0,0,1.144-.943,1.2,1.2,0,0,0-1.743-1.34" transform="translate(-30.724 -3.436)"/>
              </g>
            </g>
          </g>
          <g id="Grupo_982747" data-name="Grupo 982747" transform="translate(3.712 7.93)" opacity="0.129">
            <g id="Grupo_982746" data-name="Grupo 982746">
              <g id="Grupo_982745" data-name="Grupo 982745" clip-path="url(#clip-path-8)">
                <path id="Trazado_205686" data-name="Trazado 205686" d="M30.74,6.975c-2.706,1.4-5.18,3.212-7.793,4.777a66.265,66.265,0,0,0-8.639,5.729A129.28,129.28,0,0,0,4.058,25.8c-.388.34-.841.71-.817,1.277a1.212,1.212,0,0,0,2.053.85c.219-.195.427-.378.637-.562a1.1,1.1,0,0,0,.932-.109c1.863-1.385,2.669-2.236,4.19-3.269,2.282-1.593,4.686-3.007,6.961-4.613,1.971-1.449,2.953-2.5,4.458-3.575l-.263.2c1.962-1.471,4.029-2.8,5.993-4.268,1.209-.859,2.519-1.569,3.685-2.487A1.3,1.3,0,0,0,30.74,6.975" transform="translate(-3.24 -6.923)"/>
              </g>
            </g>
          </g>
          <g id="Grupo_982750" data-name="Grupo 982750" transform="translate(55.001 7.889)" opacity="0.129">
            <g id="Grupo_982749" data-name="Grupo 982749">
              <g id="Grupo_982748" data-name="Grupo 982748" clip-path="url(#clip-path-9)">
                <path id="Trazado_205687" data-name="Trazado 205687" d="M76.167,25.707a11.692,11.692,0,0,1-1.27-.844l-.085-.062c-.131-.1-.262-.205-.393-.309C69.173,20.281,60.449,14.5,54.068,9.543a31.176,31.176,0,0,0-2.93-1.8,1.619,1.619,0,0,0-1.457-.856,1.688,1.688,0,0,0,0,3.376A2.189,2.189,0,0,0,50,10.226c1.037.655,2.079,1.308,3.068,2.036,2.691,2.063,5.834,4.534,9.338,6.982,3.047,2.2,7.235,4.933,9.237,6.6,1,.794,1.959,1.646,3.022,2.353.009.006.017.014.026.019a1.461,1.461,0,0,0,1.881.06,1.491,1.491,0,0,0-.409-2.568" transform="translate(-48.014 -6.888)"/>
              </g>
            </g>
          </g>
        </g>
      </g>
    </g>
  </g>
</svg>
