<svg xmlns="http://www.w3.org/2000/svg" xmlns:xlink="http://www.w3.org/1999/xlink" width="131.751" height="122.215" viewBox="0 0 131.751 122.215">
  <defs>
    <clipPath id="clip-path">
      <rect id="Rectángulo_338395" data-name="Rectángulo 338395" width="131.751" height="122.214" fill="none"/>
    </clipPath>
  </defs>
  <g id="Grupo_982777" data-name="Grupo 982777" transform="translate(0 -0.001)">
    <g id="Grupo_982727" data-name="Grupo 982727" transform="translate(0 0)" clip-path="url(#clip-path)">
      <path id="Trazado_205621" data-name="Trazado 205621" d="M57.708,9.354c-7.2-4.939-11.485-3.725-13.99,3.922-2.592-1.487-5.1-3.27-8.36-2.113-3.129,1.11-4.3,3.644-5.192,6.885-2.116-1.744-4.059-3.414-6.715-3.279-3.292.167-4.3,2.457-5.748,5.076-.712,1.288-4.963-1.8-6.974,1.368a6,6,0,0,0-.93,3.764c.213,3.2-2,5.419-3,8.053C5.452,36.6-.282,38.894,2.986,44.044c.573.9-.337,1.409-1.03,1.79-2.5,1.375-2.36,3.136-.945,5.267,13.769,20.73,26.441,42.189,41.44,62.1,7.59,10.076,7.51,10.079,19.925,7.738,18.77-3.539,37.091-8.8,55.356-14.282,2.3-.691,4.715-1.3,4.8-4.445a1.16,1.16,0,0,1,.727-.807c3.8-.92,6.824-2.187,3.431-6.748,3.718-1.127.585-5.582,3.722-7.355,2.4-1.356,1.059-3.838-.073-5.606-4.142-6.467-8.38-12.872-12.632-19.267C105.974,44.786,93.98,27.323,81.269,10.36c-1.491-1.99-2.992-3.427-5.592-2.51-2.292.809-3.292-.067-4.017-2.256A7.535,7.535,0,0,0,65.444.112c-4.875-.758-7.553,2.354-7.736,9.242" transform="translate(0 0)"/>
      <path id="Trazado_205622" data-name="Trazado 205622" d="M58.848,11.635c-1.278.351-2.538.775-3.832,1.045-3.317.69-5.791,1.7-2.9,5.627a2.411,2.411,0,0,1-.451,3.257,2.346,2.346,0,0,1-2.935.346c-1.446-.734-1.624-1.959-1.073-3.372,1.452-3.73-.345-3.808-3.139-2.812-.747.267-1.525.443-2.287.667-5.2,1.528-5.223,1.536-3.307,6.729.573,1.551.451,2.918-.946,3.871a2.974,2.974,0,0,1-4-.32,2.256,2.256,0,0,1,.01-3.505,2.387,2.387,0,0,0,.514-3.21c-.893-1.525-2.13-.4-3.174-.194a30.982,30.982,0,0,0-3.4,1.09c-4.578,1.472-4.595,1.48-1.9,5.677a2.318,2.318,0,0,1,.084,2.92,2.816,2.816,0,0,1-3.207.984,2.412,2.412,0,0,1-1.978-2.618c.192-1.511,1.369-3.776-.582-4.068-2-.3-4.288.927-6.379,1.68-1.112.4-.515,1.37-.077,1.953.544.724,1.472,1.191,1.916,1.954a2.935,2.935,0,0,1-.407,3.67,3.007,3.007,0,0,1-3.272.847,2.413,2.413,0,0,1-1.792-3.1c1.648-5.153-1.079-3.65-3.934-2.935-3.475.87-4.029,2.019-2.07,5.235q20.45,33.588,42.692,66.007c1.441,2.108,2.919,2.664,5.278,2.055,20.633-5.321,41.64-9.1,62.126-15.024,5.357-1.55,5.483-1.674,2.361-6.4C101.826,57.06,86.858,34.427,70.542,12.725a11.651,11.651,0,0,1-.952-1.268c-1.2-2.159-3.161-2-4.794-1.082-1.718.964-1.192,2.819-.286,4.12,1.049,1.507,1.579,2.8-.052,4.114a2.9,2.9,0,0,1-4-.122c-1.513-1.317-1.213-2.721-.009-4.154a1.927,1.927,0,0,0,.247-2.54c-.488-.625-1.22-.206-1.852-.158" transform="translate(9.389 0.862)" fill="#fff"/>
      <path id="Trazado_205623" data-name="Trazado 205623" d="M123.478,91.59c-11.131,2.877-21.628,5.654-32.158,8.292-10.272,2.574-20.6,4.951-30.864,7.542-2.717.687-4.341-.072-6.022-2.314C38.855,84.327,24.548,62.69,10.879,40.619q-.627-1.014-1.266-2.02c-.532-.841-.837-2.206-2.287-1.192-1.172.82-.263,1.644.163,2.37,2.283,3.879,4.5,7.8,6.931,11.587C26.6,70.3,39.259,88.907,52.155,107.36c1.813,2.594,3.457,3.447,6.808,2.74,21.64-4.567,43.277-9.121,64.656-14.813.811-.217,2.841.223,2.26-1.8-.392-1.363-1.325-2.339-2.4-1.9" transform="translate(-1.577 3.279)" fill="#fff"/>
      <path id="Trazado_205624" data-name="Trazado 205624" d="M124.738,102.191c-15.051,3.234-30.182,6.14-45.112,9.858-6.182,1.539-9.379-.107-12.847-5.248C53.231,86.717,39.289,66.9,26.574,46.26a6.341,6.341,0,0,0-.43-.667c-.582-.716-.691-2.358-2.2-1.421-1.587.986-.07,1.856.383,2.568Q35.192,63.83,46.165,80.851c6.843,10.558,14.144,20.8,21.627,30.916,2.327,3.147,4.554,4.165,8.562,3.443a439.187,439.187,0,0,0,49.994-12.24c.056-1.486-.8-1.089-1.611-.778" transform="translate(-19.895 3.885)" fill="#fff"/>
      <path id="Trazado_205625" data-name="Trazado 205625" d="M118.8,95.285c-9.94,2.242-19.922,4.321-29.8,6.812-3.664.923-5.828.152-8.006-2.956C66.175,77.982,52.479,56.1,38.828,34.189c-.623-1-.663-3.391-2.88-2.191-2.246,1.214-.3,2.579.3,3.563C50.233,58.682,65.13,81.2,81.275,102.881c1.377,1.85,2.776,2.465,5.021,1.962,11.5-2.586,22.9-5.521,34.249-8.684.06-1.57-.9-1.108-1.742-.873" transform="translate(-26.779 2.803)" fill="#fff"/>
      <path id="Trazado_205626" data-name="Trazado 205626" d="M57.162,7.58c.454,1.06-.174,3.569,2.169,3.051s5.644.058,6.693-2.813c.7-1.921-2.9-5.211-5.069-5.182-2.147.028-3.8,2.07-3.793,4.944" transform="translate(3.415 0.233)" fill="#fff"/>
      <path id="Trazado_205627" data-name="Trazado 205627" d="M5.579,90.8l1.742.873,31.911-7.806-.369-1.485L5.579,90.8" transform="translate(86.446 7.292)" fill="#fff"/>
      <path id="Trazado_205628" data-name="Trazado 205628" d="M78.692,11.869c-1.337-2.329-3.109-3.753-5.806-3.243-1.9.36-2.839,1.825-3.036,3.723-.155,1.5-.1,2.819,2.033,1.965,2.178-.873,4.627-1,6.809-2.445" transform="translate(-22.916 0.754)" fill="#fff"/>
      <path id="Trazado_205629" data-name="Trazado 205629" d="M91.145,15.892c-1.281-2.364-2.941-3.514-5.3-3.156a4.156,4.156,0,0,0-3.4,3.448c-.419,1.634-.145,2.654,1.914,1.943,2.213-.765,4.448-1.469,6.783-2.236" transform="translate(-48.96 1.122)" fill="#fff"/>
      <path id="Trazado_205630" data-name="Trazado 205630" d="M102.483,19.907c-1.225-2.1-2.5-3.359-4.472-3.6a2.465,2.465,0,0,0-2.837,1.584,3.812,3.812,0,0,0,.268,3.406c.748,1.316,1.837.389,2.753.109,1.355-.414,2.681-.929,4.288-1.495" transform="translate(-74.022 1.44)" fill="#fff"/>
      <path id="Trazado_205631" data-name="Trazado 205631" d="M12.687,97.735l1.611.778a34.089,34.089,0,0,0,11.487-4.287l-13.1,3.508" transform="translate(92.155 8.341)" fill="#fff"/>
      <path id="Trazado_205632" data-name="Trazado 205632" d="M109.993,23.047c-1.695-1.3-2.485-3.256-4.415-2.013a1.844,1.844,0,0,0-.311,2.817c1.484,1.332,2.778-.163,4.726-.8" transform="translate(-92.263 1.827)" fill="#fff"/>
      <path id="Trazado_205633" data-name="Trazado 205633" d="M43.942,51.158A291.172,291.172,0,0,0,89.7,37.043C74.35,41.418,59.159,46.31,43.942,51.158" transform="translate(-5.776 3.279)"/>
      <path id="Trazado_205634" data-name="Trazado 205634" d="M93.973,30.125C79.487,36.2,63.915,38.492,48.954,42.917c15.381-2.962,31-5.1,45.019-12.792" transform="translate(-15.509 2.667)"/>
      <path id="Trazado_205635" data-name="Trazado 205635" d="M83.717,46.531c-13.1,3.747-26.024,8.015-38.865,12.527q.191.591.383,1.182L84.774,47.3c-.152-.532-.662-.571-1.057-.77" transform="translate(-1.846 4.119)"/>
      <path id="Trazado_205636" data-name="Trazado 205636" d="M54.641,85.525l14.5-4.52Q69,80.5,68.864,80a51.285,51.285,0,0,0-14.509,4.452q.144.539.286,1.078" transform="translate(3.439 7.081)"/>
      <path id="Trazado_205637" data-name="Trazado 205637" d="M56.052,80.75l14.525-3.567c-2.71-1.235-10,.254-14.525,3.567" transform="translate(0.16 6.794)"/>
      <path id="Trazado_205638" data-name="Trazado 205638" d="M38.785,46.671l1.057.77a12.758,12.758,0,0,0,6.6-2.447c-3.161-.315-5.351.961-7.661,1.677" transform="translate(43.087 3.978)"/>
    </g>
  </g>
</svg>
