<svg xmlns="http://www.w3.org/2000/svg" xmlns:xlink="http://www.w3.org/1999/xlink" width="1320" height="574.931" viewBox="0 0 1320 574.931">
  <defs>
    <clipPath id="clip-path">
      <path id="Rectangle_652" data-name="Rectangle 652" d="M1299.213,0H20.787A21.043,21.043,0,0,0,0,21.289V553.526a21.043,21.043,0,0,0,20.787,21.289H1299.213A21.043,21.043,0,0,0,1320,553.526V21.289A21.043,21.043,0,0,0,1299.213,0Z" transform="translate(0 0)" fill="#ffd947"/>
    </clipPath>
  </defs>
  <g id="Grupo_165665" data-name="Grupo 165665" transform="translate(-510 -3607.885)">
    <path id="Rectangle_652-2" data-name="Rectangle 652" d="M1299.213,0H20.787A21.043,21.043,0,0,0,0,21.289V553.526a21.043,21.043,0,0,0,20.787,21.289H1299.213A21.043,21.043,0,0,0,1320,553.526V21.289A21.043,21.043,0,0,0,1299.213,0Z" transform="translate(510 3607.885)" fill="#4a6ee3"/>
    <g id="Enmascarar_grupo_108" data-name="Enmascarar grupo 108" transform="translate(510 3608)" clip-path="url(#clip-path)">
      <g id="Grupo_165646" data-name="Grupo 165646" transform="translate(-235.704 -280.928)">
        <path id="Trazado_150526" data-name="Trazado 150526" d="M73.524,1728.59c19.295-9.458,33.449-31.228,35.713-54.929,1.952-20.438-4.153-42.329,3.366-61.034,8.961-22.3,33.661-30.35,55.251-29.442s43.044,8.094,64.5,5.268c28.9-3.806,55.118-27.227,65.148-58.206,6.547-20.219,6-43.042-.7-63.163H43.6v266.48A53.472,53.472,0,0,0,73.524,1728.59Z" transform="translate(189.098 -1186.156)" fill="#3c3fa7" opacity="0.787"/>
        <path id="Trazado_150527" data-name="Trazado 150527" d="M97.583,1761.735c22.746-19.194,35.872-52.148,33.534-84.193-1.251-17.151-6.39-35.562.753-50.747,5.848-12.431,18.692-18.854,31.076-19.983s24.706,2.092,36.977,4.3c28.9,5.2,59.019,4.709,86.813-5.668s53.109-31.279,67.251-60.333c11.456-23.537,14.768-52.527,7.925-78.027h-65.1c6.693,20.12,7.243,42.944.7,63.163-10.03,30.979-36.244,54.4-65.148,58.206-21.46,2.826-42.914-4.359-64.5-5.268s-46.29,7.146-55.251,29.442c-7.519,18.705-1.414,40.6-3.366,61.034-2.264,23.7-16.418,45.472-35.713,54.929a53.472,53.472,0,0,1-29.919,4.974v46.678A78.477,78.477,0,0,0,97.583,1761.735Z" transform="translate(189.098 -1186.156)" fill="#7291f4"/>
        <path id="Trazado_150528" data-name="Trazado 150528" d="M1041.51,1941.171c-22.788,19.984-41.469,45.92-65.961,63.119-33.64,23.624-74.727,28.422-114.252,30.467s-80.074,2.131-117.076,18.024c-29.572,12.7-56.827,38.3-67.941,70.921h75.914c16.916-29.861,42.463-53.533,72.244-64.59,59.454-22.072,128.594,3.085,184.606-28.514,39.678-22.384,66.491-70.392,108.972-84.706,30.736-10.356,64.558-.565,92.076,18.1a226.763,226.763,0,0,1,33.513,28.416v-70.059C1180.479,1885.407,1098.059,1891.577,1041.51,1941.171Z" transform="translate(313.09 -1264.369)" fill="#7291f4"/>
        <path id="Trazado_150529" data-name="Trazado 150529" d="M1118.016,1940.8c-42.481,14.314-69.294,62.322-108.972,84.706-56.012,31.6-125.152,6.442-184.606,28.514-29.781,11.057-55.328,34.729-72.244,64.59H1243.6V1987.316a226.763,226.763,0,0,0-33.513-28.416C1182.574,1940.236,1148.752,1930.445,1118.016,1940.8Z" transform="translate(313.09 -1259.277)" fill="#3c3fa7" opacity="0.614"/>
        <g id="Grupo_165640" data-name="Grupo 165640" transform="translate(0 373.885) rotate(-60)">
          <g id="Grupo_165636" data-name="Grupo 165636" transform="translate(0 0)" style="mix-blend-mode: overlay;isolation: isolate">
            <path id="Trazado_150530" data-name="Trazado 150530" d="M331.843,155.327c-25.71,24.727-52.187,48.635-79.123,72.17,12.433-24.168,25.711-48.006,37.6-72.392,13.472-27.645,29.439-65.2,15.959-92.742-30.717-62.776-121.1,5.182-154.881,39.379-3.6,3.645-7.051,7.435-10.543,11.184,12.892-26.856,24.686-54.375,23.566-82.6-1.54-38.8-39.087-46.151-72.883-26.3C55.244,25.344,25.081,60.5-.241,92.323-21.749,119.35,22.737,141.652,44.067,115A404.666,404.666,0,0,1,82.013,73.861q-3.123,5.05-6.306,10.084C61.673,106.135,47.792,128.4,36.07,151.6c-22.445,44.411-55.411,106-32.8,150.273,11.4,22.313,41.015,23.078,63.938,12.544,30.816-14.16,53.229-43.012,74.654-67.559,22.364-25.631,42.312-52.646,63.176-79.259,8.717-11.121,17.437-22.394,27.285-32.716.225-.239.46-.46.685-.7l-.272.7c-6.006,15.334-13.45,30.138-20.983,44.984-14.01,27.622-31.725,56.851-37.951,86.428-5.5,26.153,4.047,54.636,37.376,51,31.332-3.417,57.951-32.988,79.891-52.956,26.568-24.184,52.711-48.8,78.858-73.384C397.229,165.287,358.85,129.362,331.843,155.327Z" transform="translate(4.853 4.497)" fill="#3c384f"/>
            <path id="Trazado_150531" data-name="Trazado 150531" d="M212.787,326.794c-12.257.647-22.435-2.845-29.569-10.186-9.916-10.2-13.478-27.489-9.532-46.236,5.144-24.442,17.709-48.257,29.856-71.282,2.91-5.515,5.791-10.976,8.527-16.373,2.595-5.119,5.325-10.5,8.045-16.053q-2.381,3.02-4.714,6l-1.544,1.973q-8.132,10.369-16.13,20.789c-15.031,19.47-30.575,39.607-47.235,58.7-2.433,2.788-4.88,5.633-7.353,8.508-19.124,22.236-40.8,47.437-69.266,60.515C48.493,334.8,16.177,333.619,3.508,308.8c-22.769-44.585,7.921-105.122,30.334-149.323l2.544-5.026c6.594-13.057,13.885-25.847,21.573-38.6q-2.6,3.1-5.106,6.242c-13.187,16.472-34.711,17.37-47.91,8.719C-5.971,123.655-11.53,109.575.669,94.246,27.7,60.278,57.724,25.9,94.051,4.566c20.16-11.839,41.66-14.722,57.525-7.714,13.969,6.169,22.054,19.409,22.761,37.285.831,20.965-5.148,41.389-13.251,61,27.338-25.225,77.322-61.59,115.608-58.5,17.587,1.428,30.735,10.8,39.08,27.859,13.729,28.049-.4,64.617-16.034,96.686-7.44,15.268-15.537,30.532-23.368,45.3L273.6,211.7c21.929-19.5,41.584-37.628,59.663-55.012v0c8.939-8.6,19.881-12.165,30.781-10.053,11.969,2.326,21.8,11.445,24.459,22.7,2.439,10.324-1.23,20.728-10.338,29.291l-2.974,2.793c-24.756,23.282-50.354,47.358-75.953,70.652-3.155,2.873-6.4,5.941-9.749,9.1-19.916,18.8-44.7,42.211-73.42,45.343C214.961,326.651,213.866,326.737,212.787,326.794ZM238.1,134.135a4.68,4.68,0,0,1,2.416.484,4.1,4.1,0,0,1,2.087,5.27l-.277.707c-6.295,16.079-14.2,31.671-21.179,45.425-2.765,5.45-5.674,10.96-8.606,16.519-11.82,22.41-24.045,45.581-28.907,68.681-3.3,15.684-.46,30.462,7.409,38.56,5.836,6.006,14.221,8.422,24.951,7.287,24.867-2.715,47.1-23.7,66.708-42.225,3.4-3.209,6.7-6.326,9.9-9.245,25.53-23.233,51.1-47.274,75.82-70.527l2.969-2.792c8.058-7.574,8.36-15.018,7.2-19.929-1.888-7.992-9.132-14.72-17.611-16.368-5.168-1.007-12.97-.6-20.846,6.973v0c-23.356,22.455-49.305,46.123-79.335,72.352a5.424,5.424,0,0,1-6.395.7,4.276,4.276,0,0,1-1.356-5.7c4.7-9.136,9.52-18.222,14.341-27.307,7.786-14.689,15.843-29.875,23.2-44.982,14.646-30.04,27.982-64.082,15.883-88.8-7.031-14.381-17.414-21.934-31.741-23.093-35.693-2.885-88.311,36.164-114.95,63.139-2.842,2.871-5.588,5.841-8.34,8.812l-2.08,2.248a5.527,5.527,0,0,1-6.534,1.288,4.251,4.251,0,0,1-1.712-5.74C153.4,90.3,165.294,63.019,164.2,35.516c-.585-14.735-6.717-25.1-17.731-29.962C133.628-.12,115.779,2.476,98.725,12.487,64.052,32.856,34.894,66.293,8.552,99.4c-8.321,10.46-4.023,18.956,2.778,23.413a25.308,25.308,0,0,0,33.657-5.891A412.575,412.575,0,0,1,83.465,75.191a5.436,5.436,0,0,1,6.643-.806A4.335,4.335,0,0,1,91.183,80.4q-3.14,5.072-6.339,10.128c-14.206,22.47-27.913,44.52-39.38,67.21l-2.55,5.036c-21.5,42.409-50.947,100.49-30.174,141.171,10.091,19.761,36.57,20.345,57.508,10.731,26.131-12,46.033-35.142,65.276-57.522,2.489-2.89,4.958-5.76,7.412-8.568,16.434-18.838,31.869-38.836,46.8-58.178q8.052-10.436,16.179-20.853l1.544-1.968c8.184-10.448,16.646-21.247,26.1-31.165l.476-.485A6.373,6.373,0,0,1,238.1,134.135ZM336.7,159.824l.046,0Z" fill="#3c384f"/>
            <path id="Trazado_150532" data-name="Trazado 150532" d="M20.776,1.314C.147,37.5-12.7,79.324,1.564,116.295c2.106,5.468,12.04,2.5,9.9-3.044C-1.917,78.537,9.847,39.686,29.25,5.65,32.453.039,23.991-4.326,20.776,1.314Z" transform="translate(18.636 178.791)" fill="#3c384f"/>
            <path id="Trazado_150533" data-name="Trazado 150533" d="M14.106,24.926c-.086,0-.165-.024-.245-.034-.127-.249-.238-.523-.279-.6l-.024-.027c-.008-.037.006-.01-.006-.066-.534-2.091-.879-4.215-1.253-6.352Q11,10.416,9.705,2.983C9.285.578,6.2-.9,3.665-.007A5.443,5.443,0,0,0-.2,6.028q1.466,8.405,2.937,16.815c.813,4.664,2.191,10.768,8.163,11.4,2.579.271,5.615-.936,6.414-3.652C18,28.262,16.876,25.216,14.106,24.926Z" transform="translate(35.043 254.719)" fill="#3c384f"/>
            <path id="Trazado_150534" data-name="Trazado 150534" d="M14.822-.18C9.238-2.758,3.658,5.718,9.252,8.3c7.725,3.565,9.694,11.548,9.56,19.5A133.851,133.851,0,0,1,15,55.178a192.162,192.162,0,0,1-20.443,52c-3.2,5.615,5.26,9.976,8.474,4.336A201.012,201.012,0,0,0,26.063,50.327C29.41,33.067,33.638,8.5,14.822-.18Z" transform="translate(268.628 65.249)" fill="#3c384f"/>
          </g>
          <g id="Grupo_165639" data-name="Grupo 165639" transform="translate(18.427 2.591)">
            <g id="Grupo_165638" data-name="Grupo 165638">
              <g id="Grupo_165637" data-name="Grupo 165637">
                <path id="Trazado_150535" data-name="Trazado 150535" d="M331.848,155.329c-25.71,24.726-52.187,48.635-79.128,72.166,12.433-24.163,25.716-48.006,37.6-72.387,13.472-27.645,29.434-65.2,15.959-92.743C275.563-.411,185.178,67.542,151.4,101.743c-3.6,3.641-7.051,7.43-10.543,11.184,12.887-26.856,24.681-54.375,23.566-82.6-1.54-38.8-39.087-46.151-72.883-26.3C55.244,25.346,25.085,60.5-.241,92.325c-21.508,27.027,22.982,49.328,44.313,22.681a405.174,405.174,0,0,1,37.94-41.148q-3.123,5.05-6.3,10.088C61.678,106.137,47.8,128.4,36.074,151.6c-22.45,44.416-55.411,106-32.8,150.278,11.4,22.313,41.01,23.078,63.938,12.544,30.815-14.16,53.229-43.012,74.654-67.559,22.364-25.631,42.307-52.646,63.171-79.259,8.722-11.121,17.442-22.394,27.285-32.721.225-.235.465-.456.69-.7l-.272.706c-6.006,15.334-13.455,30.138-20.983,44.984-14.015,27.617-31.725,56.847-37.951,86.428-5.508,26.154,4.047,54.636,37.376,51,31.327-3.417,57.946-32.988,79.886-52.955,26.573-24.184,52.716-48.8,78.863-73.389C397.229,165.289,358.849,129.363,331.848,155.329Z" transform="translate(4.849 4.496)" fill="#fcf2ca"/>
                <path id="Trazado_150536" data-name="Trazado 150536" d="M212.782,326.79c-12.257.647-22.43-2.841-29.564-10.182-9.916-10.2-13.478-27.489-9.532-46.241,5.139-24.437,17.7-48.252,29.856-71.282,2.9-5.515,5.786-10.971,8.527-16.368,2.595-5.119,5.325-10.5,8.045-16.053-1.587,2.008-3.158,4.016-4.714,6l-1.544,1.968c-5.421,6.913-10.779,13.856-16.135,20.789-15.027,19.475-30.57,39.611-47.23,58.7q-3.65,4.189-7.354,8.513c-19.124,22.232-40.8,47.432-69.266,60.515C48.488,334.8,16.177,333.615,3.508,308.795c-22.77-44.58,7.921-105.117,30.329-149.323l2.549-5.022c6.594-13.057,13.885-25.847,21.568-38.6q-2.59,3.1-5.106,6.238c-13.182,16.476-34.706,17.375-47.9,8.723C-5.971,123.655-11.53,109.576.668,94.246,27.7,60.278,57.724,25.9,94.046,4.562c20.165-11.834,41.659-14.718,57.53-7.71,13.969,6.17,22.049,19.4,22.761,37.281.831,20.965-5.148,41.394-13.256,61,27.343-25.22,77.322-61.585,115.608-58.5,17.587,1.428,30.74,10.8,39.085,27.858,13.724,28.049-.405,64.613-16.034,96.686-7.44,15.263-15.537,30.532-23.368,45.294L273.6,211.7c21.928-19.5,41.584-37.623,59.663-55.007h0c8.939-8.6,19.881-12.16,30.781-10.048,11.969,2.326,21.8,11.445,24.454,22.7,2.444,10.323-1.225,20.723-10.333,29.286l-2.974,2.8c-24.756,23.282-50.353,47.353-75.953,70.652-3.155,2.873-6.4,5.941-9.754,9.1-19.911,18.8-44.694,42.21-73.415,45.342C214.956,326.647,213.866,326.733,212.782,326.79Zm25.309-192.659a4.669,4.669,0,0,1,2.416.489,4.092,4.092,0,0,1,2.091,5.27l-.277.707c-6.294,16.075-14.2,31.671-21.179,45.425-2.764,5.446-5.674,10.956-8.606,16.519-11.825,22.41-24.05,45.582-28.912,68.677-3.3,15.684-.46,30.462,7.414,38.565,5.831,6,14.221,8.422,24.951,7.287,24.867-2.715,47.1-23.7,66.7-42.224,3.4-3.213,6.706-6.331,9.909-9.245,25.53-23.233,51.1-47.274,75.82-70.526l2.969-2.8c8.053-7.569,8.36-15.013,7.2-19.929-1.888-7.987-9.127-14.721-17.611-16.363-5.163-1.007-12.964-.605-20.841,6.973h0c-23.356,22.455-49.3,46.123-79.335,72.357a5.424,5.424,0,0,1-6.394.7,4.271,4.271,0,0,1-1.356-5.7c4.7-9.136,9.52-18.222,14.336-27.312,7.791-14.684,15.843-29.87,23.209-44.978,14.641-30.039,27.982-64.082,15.884-88.8-7.037-14.376-17.42-21.929-31.741-23.093-35.693-2.88-88.316,36.169-114.955,63.14-2.837,2.875-5.583,5.845-8.334,8.811l-2.085,2.253a5.519,5.519,0,0,1-6.529,1.288,4.257,4.257,0,0,1-1.716-5.745C153.4,90.3,165.294,63.014,164.2,35.516c-.585-14.74-6.716-25.1-17.73-29.966-12.851-5.669-30.7-3.073-47.749,6.938C64.047,32.852,34.894,66.293,8.552,99.4.226,109.856,4.529,118.346,11.33,122.8a25.3,25.3,0,0,0,33.657-5.886A411.555,411.555,0,0,1,83.465,75.192a5.429,5.429,0,0,1,6.638-.805A4.326,4.326,0,0,1,91.178,80.4q-3.14,5.079-6.334,10.132C70.633,113,56.931,135.05,45.459,157.74l-2.549,5.036c-21.5,42.408-50.942,100.49-30.169,141.166,10.091,19.766,36.569,20.35,57.508,10.736,26.131-12,46.033-35.147,65.276-57.522q3.735-4.342,7.407-8.573c16.439-18.833,31.874-38.832,46.807-58.173q8.052-10.436,16.18-20.858l1.544-1.963c8.184-10.448,16.646-21.252,26.1-31.165l.482-.485A6.367,6.367,0,0,1,238.091,134.131ZM336.7,159.825l.051,0Z"/>
              </g>
              <path id="Trazado_150537" data-name="Trazado 150537" d="M20.779,1.315C.144,37.5-12.7,79.32,1.562,116.3c2.111,5.463,12.045,2.5,9.908-3.045C-1.919,78.533,9.844,39.687,29.253,5.651,32.451.036,23.993-4.325,20.779,1.315Z" transform="translate(18.633 178.791)"/>
              <path id="Trazado_150538" data-name="Trazado 150538" d="M14.106,24.926c-.086,0-.165-.024-.245-.034-.127-.254-.243-.523-.285-.6l-.019-.027c-.008-.038.006-.015-.006-.071-.534-2.086-.884-4.215-1.254-6.348Q11,10.417,9.706,2.983C9.285.579,6.2-.9,3.66-.006A5.441,5.441,0,0,0-.2,6.028L2.729,22.839c.818,4.669,2.2,10.773,8.168,11.4,2.58.267,5.615-.936,6.414-3.652C18,28.262,16.871,25.217,14.106,24.926Z" transform="translate(35.043 254.72)"/>
              <path id="Trazado_150539" data-name="Trazado 150539" d="M14.824-.18C9.239-2.758,3.655,5.718,9.254,8.3c7.725,3.565,9.689,11.548,9.561,19.495A133.9,133.9,0,0,1,15,55.177a192.163,192.163,0,0,1-20.443,52c-3.2,5.616,5.26,9.976,8.474,4.336A201.219,201.219,0,0,0,26.064,50.327C29.412,33.062,33.64,8.5,14.824-.18Z" transform="translate(268.627 65.25)"/>
            </g>
          </g>
        </g>
        <g id="Grupo_165645" data-name="Grupo 165645" transform="matrix(0.988, 0.156, -0.156, 0.988, 215.896, 772.599)">
          <g id="Grupo_165641" data-name="Grupo 165641" transform="translate(4.591 5.163)" style="mix-blend-mode: overlay;isolation: isolate">
            <path id="Trazado_150540" data-name="Trazado 150540" d="M129.42,80.608c-8.947,10.353-18.206,20.312-27.649,30.089,3.968-10.52,8.263-20.864,12.018-31.5,4.256-12.057,9.16-28.51,3.279-41.371-13.4-29.314-45.412-1.483-57.117,12.891-1.246,1.532-2.434,3.135-3.638,4.717,4.062-11.719,7.69-23.772,6.44-36.55C61.034,1.315,46.691-3.187,34.558,4.71,21.53,13.187,11.215,28.11,2.622,41.678c-7.3,11.524,10.095,23,17.337,11.64A140.474,140.474,0,0,1,33.028,35.939Q32,38.12,30.951,40.292c-4.628,9.576-9.2,19.192-12.925,29.3C10.886,88.933.292,115.7,10.1,136.4c4.943,10.435,16.11,11.715,24.425,7.682,11.178-5.421,18.764-17.74,26.1-28.148C68.29,105.072,75,93.5,82.07,82.146a157.386,157.386,0,0,1,9.3-13.911c.078-.1.16-.193.237-.292l-.082.308c-1.809,6.734-4.175,13.183-6.573,19.649-4.46,12.029-10.266,24.668-11.739,37.826-1.3,11.635,3.128,24.8,15.561,24.208,11.688-.554,20.835-13.066,28.5-21.389,9.286-10.081,18.4-20.368,27.514-30.645C154.314,87.169,138.818,69.737,129.42,80.608Z" transform="translate(1.958 2.184)" fill="#3c384f"/>
            <path id="Trazado_150541" data-name="Trazado 150541" d="M89.664,154.271a14.713,14.713,0,0,1-11.424-5.533c-4.031-4.92-5.879-12.837-4.945-21.177,1.217-10.874,5.245-21.23,9.139-31.243.933-2.4,1.856-4.773,2.727-7.123.826-2.229,1.7-4.571,2.555-6.994q-.807,1.288-1.6,2.562L85.6,85.6q-2.755,4.425-5.458,8.877C75.054,102.8,69.8,111.4,64.09,119.494c-.834,1.182-1.671,2.389-2.517,3.61-6.542,9.436-13.956,20.131-24.283,25.137-9.207,4.459-21.4,2.905-26.9-8.7-9.877-20.85-.109-47.214,7.025-66.464l.809-2.189c2.1-5.687,4.465-11.232,6.983-16.748q-.886,1.319-1.738,2.657C19,63.816,10.924,63.542,5.7,59.219,1.387,55.644-1.118,49.111,3.021,42.575c9.173-14.484,19.459-29.059,32.5-37.544C42.758.322,50.763-.3,56.938,3.363c5.437,3.227,8.868,9.46,9.659,17.553.929,9.492-.721,18.525-3.193,27.125,9.545-10.526,27.282-25.368,41.778-22.764,6.659,1.2,11.882,5.848,15.522,13.812,5.99,13.1,1.748,29.163-3.192,43.149-2.351,6.659-4.949,13.3-7.461,19.716l-.89,2.271c7.678-8.113,14.54-15.677,20.832-22.956v0c3.11-3.6,7.123-4.865,11.286-3.567,4.572,1.428,8.538,5.856,9.87,11.022a13.728,13.728,0,0,1-3.029,12.9l-1.037,1.167c-8.63,9.731-17.554,19.794-26.5,29.5-1.1,1.2-2.234,2.48-3.4,3.8-6.941,7.861-15.577,17.648-26.292,18.155C90.477,154.275,90.068,154.279,89.664,154.271Zm3.861-86.19a1.691,1.691,0,0,1,.923.295,2.27,2.27,0,0,1,.94,2.445l-.083.31c-1.9,7.061-4.413,13.851-6.634,19.842-.88,2.374-1.813,4.77-2.753,7.187-3.789,9.745-7.708,19.822-8.858,30.1-.78,6.978.722,13.74,3.921,17.644a11.119,11.119,0,0,0,9.6,4.078c9.276-.441,17.023-9.216,23.858-16.959,1.185-1.341,2.335-2.645,3.454-3.862,8.923-9.684,17.836-19.732,26.455-29.451l1.035-1.167a9.242,9.242,0,0,0,2.124-8.771,11.529,11.529,0,0,0-7.107-7.946c-1.974-.618-4.9-.683-7.638,2.491v0c-8.128,9.4-17.2,19.269-27.724,30.164a1.724,1.724,0,0,1-2.385.113,2.361,2.361,0,0,1-.678-2.615c1.5-3.977,3.046-7.927,4.593-11.877,2.5-6.386,5.083-12.989,7.409-19.578,4.628-13.1,8.645-28.051,3.367-39.593-3.068-6.715-7.2-10.453-12.621-11.429-13.514-2.429-32.164,13.541-41.395,24.88-.985,1.207-1.931,2.461-2.879,3.715l-.717.949a1.721,1.721,0,0,1-2.42.375,2.348,2.348,0,0,1-.813-2.646c3.867-11.163,7.541-23.1,6.323-35.556-.653-6.672-3.265-11.543-7.552-14.088-5-2.968-11.639-2.359-17.762,1.623-12.447,8.1-22.435,22.279-31.374,36.394-2.823,4.46-.957,8.432,1.733,10.659,3.643,3.014,9.257,3.476,12.49-1.6A143.238,143.238,0,0,1,33.613,36.585a1.729,1.729,0,0,1,2.476-.154,2.367,2.367,0,0,1,.581,2.75q-1.032,2.191-2.087,4.373c-4.685,9.7-9.194,19.22-12.842,29.1l-.811,2.193c-6.845,18.469-16.216,43.765-7.2,62.789,4.377,9.241,14.357,10.34,21.953,6.661,9.479-4.594,16.287-14.414,22.87-23.912.852-1.226,1.7-2.444,2.537-3.635,5.63-7.987,10.849-16.529,15.9-24.791q2.723-4.458,5.475-8.9l.523-.84A150.1,150.1,0,0,1,91.888,68.97l.165-.2A1.885,1.885,0,0,1,93.525,68.08ZM131.38,82.792h0Z" fill="#3c384f"/>
            <path id="Trazado_150542" data-name="Trazado 150542" d="M7.856,1.249c-6.7,15.687-10.3,34.166-3.85,51.309.953,2.535,4.6,1.51,3.637-1.062C1.586,35.4,4.871,18.23,11.171,3.474,12.212,1.042,8.9-1.2,7.856,1.249Z" transform="translate(12.265 81.316)" fill="#3c384f"/>
            <path id="Trazado_150543" data-name="Trazado 150543" d="M6.04,11.7c-.032,0-.063-.016-.093-.023-.055-.117-.1-.244-.123-.278l-.01-.013c0-.017,0,0,0-.03-.262-.961-.454-1.931-.658-2.908q-.705-3.4-1.412-6.794A1.975,1.975,0,0,0,1.379.113,2.149,2.149,0,0,0,.1,2.715Q.9,6.557,1.7,10.4c.443,2.132,1.141,4.931,3.406,5.4a1.848,1.848,0,0,0,2.306-1.447C7.6,13.329,7.091,11.918,6.04,11.7Z" transform="translate(20.67 116.117)" fill="#3c384f"/>
            <path id="Trazado_150544" data-name="Trazado 150544" d="M5.572.387C3.395-.954,1.544,2.7,3.725,4.04,6.736,5.893,7.712,9.56,7.9,13.146a69.031,69.031,0,0,1-.631,12.241A86.212,86.212,0,0,1,1.1,48.22c-1.038,2.434,2.272,4.67,3.316,2.225a91.032,91.032,0,0,0,6.869-26.9C12.037,15.859,12.906,4.9,5.572.387Z" transform="translate(102.988 37.941)" fill="#3c384f"/>
          </g>
          <g id="Grupo_165644" data-name="Grupo 165644" transform="translate(0 0)">
            <g id="Grupo_165643" data-name="Grupo 165643">
              <g id="Grupo_165642" data-name="Grupo 165642">
                <path id="Trazado_150545" data-name="Trazado 150545" d="M129.422,80.609c-8.947,10.353-18.206,20.312-27.651,30.086,3.968-10.518,8.265-20.864,12.02-31.5,4.256-12.057,9.158-28.51,3.279-41.371-13.4-29.314-45.412-1.485-57.117,12.891-1.248,1.53-2.434,3.132-3.638,4.717,4.06-11.719,7.688-23.772,6.44-36.55C61.035,1.316,46.692-3.187,34.56,4.708c-13.03,8.479-23.344,23.4-31.938,36.97-7.3,11.524,10.1,23,17.339,11.64A140.663,140.663,0,0,1,33.027,35.937Q32,38.119,30.953,40.293c-4.628,9.576-9.2,19.193-12.925,29.294C10.886,88.933.294,115.7,10.1,136.4c4.943,10.435,16.108,11.715,24.425,7.682,11.178-5.421,18.763-17.74,26.1-28.148C68.292,105.073,75,93.5,82.07,82.147a158.611,158.611,0,0,1,9.3-13.913c.078-.1.161-.191.239-.292l-.082.31c-1.809,6.734-4.177,13.183-6.573,19.649C80.5,99.928,74.693,112.566,73.22,125.726c-1.3,11.635,3.128,24.8,15.561,24.208,11.686-.554,20.833-13.066,28.5-21.389,9.288-10.081,18.4-20.37,27.516-30.647C154.314,87.17,138.818,69.737,129.422,80.609Z" transform="translate(1.956 2.183)" fill="#6b8dfc"/>
                <path id="Trazado_150546" data-name="Trazado 150546" d="M89.662,154.269a14.707,14.707,0,0,1-11.423-5.53c-4.031-4.92-5.879-12.837-4.945-21.18,1.215-10.872,5.243-21.228,9.139-31.242.931-2.4,1.854-4.771,2.727-7.121.826-2.229,1.695-4.571,2.555-6.994-.538.857-1.07,1.714-1.6,2.562l-.523.84c-1.837,2.95-3.648,5.916-5.46,8.877C75.054,102.8,69.8,111.4,64.09,119.492c-.834,1.184-1.67,2.392-2.517,3.612-6.542,9.434-13.956,20.129-24.283,25.137-9.209,4.459-21.4,2.9-26.9-8.7-9.877-20.848-.109-47.212,7.024-66.465l.811-2.187c2.1-5.687,4.465-11.232,6.981-16.748q-.883,1.319-1.738,2.655C19,63.816,10.924,63.542,5.7,59.219,1.387,55.644-1.118,49.111,3.021,42.575c9.173-14.484,19.459-29.059,32.5-37.546C42.758.322,50.761-.3,56.938,3.363,62.375,6.59,65.8,12.821,66.6,20.915c.929,9.492-.721,18.528-3.2,27.125,9.547-10.524,27.282-25.366,41.778-22.762,6.659,1.2,11.883,5.848,15.524,13.812,5.988,13.1,1.746,29.161-3.192,43.149-2.351,6.657-4.949,13.3-7.461,19.714l-.889,2.271c7.678-8.111,14.54-15.675,20.832-22.953h0c3.11-3.6,7.123-4.863,11.286-3.565,4.572,1.428,8.538,5.856,9.868,11.022a13.718,13.718,0,0,1-3.027,12.9l-1.037,1.169c-8.63,9.731-17.554,19.791-26.5,29.5-1.1,1.2-2.234,2.48-3.4,3.8-6.939,7.861-15.576,17.648-26.29,18.155C90.475,154.273,90.068,154.277,89.662,154.269Zm3.861-86.19a1.69,1.69,0,0,1,.923.3,2.267,2.267,0,0,1,.942,2.445l-.083.31c-1.9,7.059-4.413,13.851-6.634,19.842-.88,2.372-1.813,4.768-2.753,7.187-3.79,9.745-7.709,19.822-8.86,30.1-.78,6.978.722,13.739,3.923,17.647a11.122,11.122,0,0,0,9.6,4.078c9.276-.441,17.023-9.216,23.856-16.96,1.185-1.344,2.337-2.647,3.456-3.862,8.923-9.684,17.836-19.732,26.455-29.451l1.035-1.169a9.239,9.239,0,0,0,2.122-8.771,11.521,11.521,0,0,0-7.107-7.944c-1.972-.618-4.9-.682-7.636,2.491h0c-8.128,9.4-17.2,19.269-27.724,30.166a1.724,1.724,0,0,1-2.385.113,2.358,2.358,0,0,1-.678-2.615c1.5-3.977,3.046-7.927,4.591-11.879,2.5-6.384,5.083-12.987,7.411-19.576,4.626-13.1,8.645-28.051,3.367-39.6-3.07-6.713-7.2-10.451-12.621-11.429-13.514-2.427-32.166,13.543-41.4,24.88-.983,1.209-1.929,2.463-2.877,3.715l-.718.951a1.718,1.718,0,0,1-2.419.375,2.351,2.351,0,0,1-.815-2.648c3.869-11.161,7.543-23.1,6.325-35.554-.653-6.674-3.265-11.546-7.552-14.09-5-2.965-11.639-2.356-17.762,1.625-12.449,8.1-22.435,22.279-31.374,36.394-2.825,4.46-.957,8.43,1.733,10.657,3.643,3.016,9.257,3.479,12.49-1.6A142.88,142.88,0,0,1,33.613,36.585a1.727,1.727,0,0,1,2.474-.154,2.361,2.361,0,0,1,.581,2.748q-1.032,2.194-2.085,4.375c-4.686,9.7-9.194,19.22-12.843,29.1l-.811,2.193c-6.843,18.469-16.214,43.765-7.2,62.787C18.1,146.88,28.082,147.98,35.678,144.3c9.479-4.594,16.287-14.416,22.87-23.912.852-1.229,1.7-2.444,2.535-3.637,5.632-7.985,10.851-16.527,15.9-24.789q2.723-4.458,5.475-8.907l.523-.838a150.179,150.179,0,0,1,8.9-13.248l.167-.2A1.883,1.883,0,0,1,93.523,68.078Zm37.855,14.714h0Z"/>
              </g>
              <path id="Trazado_150547" data-name="Trazado 150547" d="M7.857,1.25C1.156,16.937-2.446,35.414,4,52.559c.955,2.533,4.605,1.51,3.639-1.062C1.586,35.4,4.87,18.23,11.172,3.475,12.211,1.04,8.9-1.2,7.857,1.25Z" transform="translate(12.264 81.316)" fill="#3c3fa7"/>
              <path id="Trazado_150548" data-name="Trazado 150548" d="M6.04,11.7c-.032,0-.063-.016-.093-.023-.055-.119-.107-.244-.125-.278l-.008-.013c0-.017,0-.006,0-.032-.262-.959-.456-1.931-.658-2.906q-.708-3.4-1.412-6.794A1.977,1.977,0,0,0,1.377.113,2.149,2.149,0,0,0,.1,2.715L1.7,10.4c.445,2.134,1.143,4.933,3.408,5.405a1.85,1.85,0,0,0,2.306-1.446C7.6,13.329,7.089,11.918,6.04,11.7Z" transform="translate(20.67 116.117)" fill="#3c3fa7"/>
              <path id="Trazado_150549" data-name="Trazado 150549" d="M5.572.387C3.4-.954,1.543,2.7,3.726,4.04c3.011,1.853,3.985,5.52,4.17,9.1a69.051,69.051,0,0,1-.631,12.243A86.211,86.211,0,0,1,1.1,48.22c-1.04,2.434,2.272,4.67,3.316,2.225a91.131,91.131,0,0,0,6.869-26.9C12.038,15.856,12.907,4.9,5.572.387Z" transform="translate(102.988 37.941)"/>
            </g>
          </g>
        </g>
      </g>
    </g>
  </g>
</svg>
