<svg xmlns="http://www.w3.org/2000/svg" xmlns:xlink="http://www.w3.org/1999/xlink" width="400" height="292" viewBox="0 0 400 292">
  <defs>
    <clipPath id="clip-path">
      <rect id="Rect치ngulo_41382" data-name="Rect치ngulo 41382" width="400" height="257.911" fill="none"/>
    </clipPath>
  </defs>
  <g id="Grupo_982398" data-name="Grupo 982398" transform="translate(-1020 -404)">
    <rect id="Rect치ngulo_338265" data-name="Rect치ngulo 338265" width="299" height="292" rx="14" transform="translate(1061 404)" fill="#8284d2"/>
    <g id="Grupo_171445" data-name="Grupo 171445" transform="translate(1020 416.572)">
      <g id="Grupo_166334" data-name="Grupo 166334" transform="translate(0 0)" clip-path="url(#clip-path)">
        <path id="Trazado_155501" data-name="Trazado 155501" d="M32.335,245.282H394.29a5.709,5.709,0,0,0,5.67-6.373L373.332,11.583a5.709,5.709,0,0,0-5.67-5.045H5.709a5.709,5.709,0,0,0-5.67,6.373L26.665,240.236a5.709,5.709,0,0,0,5.67,5.045" transform="translate(0.002 12.63)" fill="#ffc37a"/>
        <path id="Trazado_155502" data-name="Trazado 155502" d="M124.522,19.4a8.8,8.8,0,1,0,8.8-8.8,8.794,8.794,0,0,0-8.8,8.8" transform="translate(-107.169 20.491)" fill="#fff"/>
        <path id="Trazado_155503" data-name="Trazado 155503" d="M114.522,19.4a8.8,8.8,0,1,0,8.8-8.8,8.794,8.794,0,0,0-8.8,8.8" transform="translate(-67.853 20.491)" fill="#fff"/>
        <path id="Trazado_155504" data-name="Trazado 155504" d="M50.99,68.354A56.186,56.186,0,0,1,64.481,43.3a20.287,20.287,0,0,1,4.834-12.128c3.735-4.553,8.816-7.256,13.6-10.513A21.312,21.312,0,0,0,89.18,14.2a45.781,45.781,0,0,1,4.626-6.9A20.136,20.136,0,0,1,105.97,1.166a22.7,22.7,0,0,1,14.8,2.867,9.708,9.708,0,0,1,1.527.988c5.084-3.937,9.56-5.213,16.183-5,6.224.2,10.853,3.691,14.641,8.1a35.966,35.966,0,0,1,10.463,6.151A24.668,24.668,0,0,1,172.12,30.26a9.34,9.34,0,0,0,2.779,5.682c1.2,1.275,2.451,2.51,3.662,3.779a89.908,89.908,0,0,1,6.936,8.068c3.978,5.333,7.045,11.694,6.652,18.5-.252,4.356-1.753,8.584-3.116,12.694-.346,1.041-.709,2.079-1.1,3.1a46.885,46.885,0,0,1,3.688,15.646c.68,7.968-.613,16.711-8.839,20.167a21.223,21.223,0,0,1-11.187,1.187c-2.281-.322-4.726-.988-6.954-.059a9.737,9.737,0,0,0-3.665,3.1c-2.07,2.612-3.55,5.655-5.884,8.068a11.653,11.653,0,0,1-9.387,3.638c-9.713-.768-14.38-9.663-17.769-17.663a43.859,43.859,0,0,1-16.282-6.816c-4.928,7.669-11.052,15.775-20.967,16.221-4.641.208-8.4-1.824-11.536-5.092a29.408,29.408,0,0,0-4.77-4.568c-2.237-1.466-4.875-1.393-7.394-1.991-8.5-2.02-13.571-10.454-15.787-18.323a54.272,54.272,0,0,1-.208-27.25" transform="translate(63.123 0.001)" fill="#2b244a"/>
        <path id="Trazado_155505" data-name="Trazado 155505" d="M27.514,173.762H287.43c-4.31-21.636-2.038-34.52-4.236-42.172-2.908-10.349,8.215-18.461,3.495-28.469A97.387,97.387,0,0,0,272.123,80.5C251.866,57.181,226.017,49.046,200.857,45.8c-21.058-2.7-41.348-2.5-60.873-1.765-20.721.8-40.695,3.336-58.065,9.636-17.37,6.388-31.471,16.863-40.281,32.149-9.123,15.951-14.793,76.405-14.125,87.938" transform="translate(31.624 84.149)" fill="#ffeae0"/>
        <path id="Trazado_155506" data-name="Trazado 155506" d="M102.669,76.5q-2.515,17.863-5.034,35.728c-.261,1.862-3.087,1.07-2.826-.777q2.515-17.867,5.034-35.731c.261-1.859,3.087-1.067,2.826.78" transform="translate(19.415 144.216)" fill="#2b244a"/>
        <path id="Trazado_155507" data-name="Trazado 155507" d="M74.139,95.094l-7.382,54.541H14.523L36.215,56.053Z" transform="translate(283.283 108.275)" fill="#ffeae0"/>
        <path id="Trazado_155508" data-name="Trazado 155508" d="M53.888,66.87q-7.309,23.373-14.617,46.748-2.691,8.606-5.385,17.212c-.56,1.8-3.392,1.029-2.826-.777Q38.368,106.676,45.676,83.3q2.7-8.606,5.385-17.215c.56-1.794,3.392-1.029,2.826.78" transform="translate(255.201 125.691)" fill="#2b244a"/>
        <path id="Trazado_155509" data-name="Trazado 155509" d="M74.181,52.97q.9,40.3,1.791,80.6l.51,22.978c.041,1.885-2.891,1.885-2.932,0q-.9-40.3-1.791-80.6-.255-11.486-.51-22.976c-.041-1.888,2.891-1.888,2.932,0" transform="translate(114.639 99.586)" fill="#2b244a"/>
        <path id="Trazado_155510" data-name="Trazado 155510" d="M83.95,44.077q4.292,8.953,7.842,18.238c1.129,2.943,2.287,5.9,3.251,8.9.8,2.48,1.011,5.356-.5,7.622-3.137,4.711-9.355,3.292-13.673,1.472C74.563,77.65,68.289,74.895,62,72.186c-1.724-.745-.232-3.269,1.483-2.53L79.2,76.422c2.507,1.079,5.145,2.5,7.913,2.724,2.114.173,4.7-.589,5.424-2.82.8-2.474-.616-5.233-1.442-7.52q-1.376-3.821-2.864-7.6-3.127-7.942-6.8-15.646c-.812-1.695,1.715-3.184,2.53-1.48" transform="translate(124.829 83.689)" fill="#2b244a"/>
        <path id="Trazado_155511" data-name="Trazado 155511" d="M86.189,45.556Q82.574,53.1,79.508,60.888q-1.552,3.936-2.984,7.916c-.815,2.254-2.281,5.081-1.442,7.523,1.885,5.5,9.7,1.659,13.014.235l16.036-6.907c1.715-.739,3.213,1.785,1.48,2.53-6.288,2.709-12.559,5.465-18.871,8.127-4.318,1.821-10.542,3.237-13.676-1.475-1.51-2.272-1.293-5.136-.5-7.619.956-3,2.125-5.96,3.257-8.9q3.562-9.27,7.836-18.241c.812-1.7,3.342-.214,2.53,1.48" transform="translate(82.693 83.688)" fill="#2b244a"/>
        <path id="Trazado_155512" data-name="Trazado 155512" d="M65.44,71.012s10.5,29.976,20.894,29.976c8.5,0,20.894-30.431,20.894-30.431l-2.7-40.832-37.5.844Z" transform="translate(100.923 57.419)" fill="#e0785e"/>
        <path id="Trazado_155513" data-name="Trazado 155513" d="M71.8,16.937C79.739,6.524,91.981,1.223,104.828,4.9c24.737,7.068,31.955,41.175,27.259,63.644a86.584,86.584,0,0,1-19.463,38.977,20.723,20.723,0,0,1-31.908,0A86.584,86.584,0,0,1,61.251,68.54c-1.727-8.264-4.236-32.222,10.545-51.6" transform="translate(90.885 7.212)" fill="#e0785e"/>
        <path id="Trazado_155514" data-name="Trazado 155514" d="M57.505,30.587A14.613,14.613,0,1,0,75.582,20.576,14.609,14.609,0,0,0,57.505,30.587" transform="translate(146.923 38.642)" fill="#e0785e"/>
        <path id="Trazado_155515" data-name="Trazado 155515" d="M59.8,56.906a4.435,4.435,0,0,1,2.9-.6c1.592-2.682,1.24-7.989,3.146-10.422,2.331-2.976-.129-6.81,1.3-10.425,1.442-3.638,2.911-8.018,4.559-11.563,1.343-2.891,3.679-7.57,5.7-9.935C81.529,9.137,92.72,4.048,98.692,2.884c7.537-1.469,17.558,3.407,24.606,6.259,4.178,1.695,5.676,5,9.8,6.843,1.859.827,3.876,5.016,5.541,6.256a2.9,2.9,0,0,1,1.7-1.249c2.055-.352,3.492,34.2,1.422,33.814C129.6,52.529,123.945,46.176,121.8,44.475a32.666,32.666,0,0,1-3.225-2.894c-1-1.035-2.125-3.02-3.451-3.524-1.2-.454-2.891-.252-4.148-.443a31.153,31.153,0,0,1-3.946-.856,33.219,33.219,0,0,1-7.564-3.307,33.537,33.537,0,0,1-5.385-4.066,13.5,13.5,0,0,1-4.336,6.945,21.54,21.54,0,0,1-7.376,3.556,17.259,17.259,0,0,0-3.72,1.252c-.815.5-.654.308-.375,1.181.211.68.463,1.337.648,2.029,2.685,10.032-1.258,21.348-9.15,27.074C68.012,72.7,58.053,58.172,59.8,56.906" transform="translate(82.524 5.05)" fill="#2b244a"/>
        <path id="Trazado_155516" data-name="Trazado 155516" d="M92.526,22.487c-.361,4.685-5.1,2.4-9.93,4.969-4.439,2.363-7.775,2.677-8.449.173-.818-3.023,2.826-7.649,9.645-9.244,6.388-1.492,9,.686,8.733,4.1" transform="translate(90.413 34.593)" fill="#2b244a"/>
        <path id="Trazado_155517" data-name="Trazado 155517" d="M63.522,22.487c.361,4.685,5.1,2.4,9.93,4.969,4.439,2.363,7.775,2.677,8.449.173.818-3.023-2.826-7.649-9.645-9.244-6.388-1.492-9,.686-8.733,4.1" transform="translate(131.812 34.593)" fill="#2b244a"/>
        <path id="Trazado_155518" data-name="Trazado 155518" d="M76.685,24.047A3.418,3.418,0,0,1,79.5,22.376a3.224,3.224,0,0,1,2.788,2.293,11.181,11.181,0,0,1,.536,3.961,7.137,7.137,0,0,1-1.284,4.45c-1.718,1.991-4.184.941-5.122-1.1a9.9,9.9,0,0,1,.264-7.933" transform="translate(95.187 43.223)" fill="#2b244a"/>
        <path id="Trazado_155519" data-name="Trazado 155519" d="M67.081,24.047A3.418,3.418,0,0,1,69.9,22.376a3.224,3.224,0,0,1,2.788,2.293,11.182,11.182,0,0,1,.537,3.961,7.137,7.137,0,0,1-1.284,4.45c-1.718,1.991-4.184.941-5.122-1.1a9.9,9.9,0,0,1,.264-7.933" transform="translate(132.946 43.223)" fill="#2b244a"/>
        <path id="Trazado_155520" data-name="Trazado 155520" d="M67.984,24.588a66.11,66.11,0,0,1-5.8,25.743c-.771,1.721-3.3.232-2.53-1.48a62.506,62.506,0,0,0,5.4-24.263c.038-1.885,2.97-1.891,2.932,0" transform="translate(157.555 44.761)" fill="#2b244a"/>
        <path id="Trazado_155521" data-name="Trazado 155521" d="M76.623,24.956q.629,3.21,1.255,6.423c.408,2.081.953,4.186,1.167,6.3.188,1.815-.366,3.714-2.172,4.436a8.047,8.047,0,0,1-5.166-.2c-1.8-.542-1.035-3.374.78-2.826a8.672,8.672,0,0,0,2.131.425,3.422,3.422,0,0,0,1.264-.15c.12-.062.114-.129.059-.026.117-.217.012.041.05-.073a2.681,2.681,0,0,0,.164-.844,10.893,10.893,0,0,0-.3-2.172Q74.823,30.989,73.8,25.735a1.5,1.5,0,0,1,1.023-1.8,1.479,1.479,0,0,1,1.8,1.023" transform="translate(113.713 46.138)" fill="#2b244a"/>
        <path id="Trazado_155522" data-name="Trazado 155522" d="M85.265,31.556a1.02,1.02,0,0,1,.894,1.539c-1.472,2.512-3.351,4.9-6.11,5.509-5.834,1.287-9.059-2.706-10.621-5.33a1.027,1.027,0,0,1,.909-1.539c5.441.018,10.328-.088,14.928-.179" transform="translate(110.579 60.956)" fill="#2b244a"/>
        <path id="Trazado_155523" data-name="Trazado 155523" d="M95.33,50.351c-9.135.765-17.241-4.365-23.453-10.575A1.468,1.468,0,0,1,73.952,37.7c5.7,5.7,12.981,10.419,21.378,9.716,1.879-.158,1.87,2.776,0,2.932" transform="translate(93.807 71.997)" fill="#2b244a"/>
        <path id="Trazado_155524" data-name="Trazado 155524" d="M124.83,27.894c-4.635,7.209-12.043,14.485-21.425,12.539-1.363-.281-2.627-1.017-3.87-.056-.745.578-1.29,1.407-2.023,2.011a8.858,8.858,0,0,1-4.576,1.906,9.566,9.566,0,0,1-8.956-3.811C82.854,38.967,85.4,37.5,86.513,39a6.7,6.7,0,0,0,8.068,1.815c1.472-.718,2.266-2.167,3.58-3.087,1.548-1.088,3.069-.926,4.817-.437,8.47,2.375,15.142-4.377,19.323-10.879,1.014-1.58,3.553-.114,2.53,1.481" transform="translate(29.555 49.711)" fill="#8c75b5"/>
        <path id="Trazado_155525" data-name="Trazado 155525" d="M83.835,1.66a12.173,12.173,0,0,1-.05,15.3,39.526,39.526,0,0,1-6.209,5.685c-1.2,1-2.316,2.084-2.328,3.755-.012,1.78,1.023,3.5,1.87,4.993a1.467,1.467,0,0,1-2.53,1.48c-1.442-2.539-2.943-5.582-1.944-8.552.9-2.665,3.471-4.183,5.52-5.9,2.09-1.747,4.227-3.758,5.078-6.429a9.135,9.135,0,0,0-1.48-8.264C80.61,2.264,82.671.177,83.835,1.66" transform="translate(101.464 2.224)" fill="#8c75b5"/>
        <path id="Trazado_155526" data-name="Trazado 155526" d="M90.227,12.483c.431,4.207.61,8.766-2.21,12.243-2.885,3.556-7.426,3.492-11.351,1.815-2.108-.9-4.1-2.378-6.324-2.993-1.214-.337-1.554.56-2.284,1.434a17.156,17.156,0,0,1-2.231,2.29c-2.741,2.266-7.156,3.169-9.721.106-1.2-1.437.859-3.521,2.073-2.073,2.559,3.058,6.233-.484,7.962-2.586,1.017-1.237,2-2.357,3.735-2.26,1.756.1,3.588,1.217,5.116,2.005,3.075,1.586,7.391,3.873,10.366.859,2.788-2.826,2.307-7.241,1.938-10.838-.193-1.876,2.741-1.862,2.932,0" transform="translate(146.116 21.405)" fill="#8c75b5"/>
        <path id="Trazado_155527" data-name="Trazado 155527" d="M115.973,20.888c-2.322,2.917-4.937,5.822-8.42,7.344a11.3,11.3,0,0,1-10.2-.507,10.921,10.921,0,0,1-3.606-3.407c-.2-.3-.4-.841-.718-1.014-.449-.24-1.24-.012-1.712,0a10.309,10.309,0,0,1-2.419-.258,10.178,10.178,0,0,1-7.312-6.526c-.639-1.777,2.193-2.545,2.826-.777a7.246,7.246,0,0,0,6.9,4.629c1.607-.035,2.894-.138,4.055,1.158.95,1.061,1.486,2.284,2.671,3.157,6.115,4.512,12.143-1.211,15.854-5.869,1.176-1.475,3.237.61,2.073,2.073" transform="translate(44.758 28.47)" fill="#8c75b5"/>
        <path id="Trazado_155528" data-name="Trazado 155528" d="M3.095,61.577c.484-2.474,1.762-4.864,4.4-4.694,2.049.132,3.882,1.832,4.981,3.459,2.665,3.931,7.98,18.745,7.836,19.135,3.58-9.6,7.411-18.616,10.994-28.211,2.169-5.816,4.333-12.084,7.628-17.778.982-1.695,2.568-3.278,4.524-3.433a4.83,4.83,0,0,1,4.377,2.759A12.032,12.032,0,0,1,48.9,38.135c.2,6.816-.944,13.594-2.084,20.319A190.145,190.145,0,0,1,62.393,36.388c1.794-2.14,4.494-4.441,7.042-3.292,2.064.932,2.867,3.624,2.583,5.872-1.466,11.645-7.663,23.433-12.035,33.9,4.641-6.312,15.236-17.778,17.13-18.522a5.421,5.421,0,0,1,5.717.812A6.324,6.324,0,0,1,84.152,61.4C79.726,75.27,76.829,83.552,69.793,95.429c-4.418,7.461-11.428,19.507-16.8,26.318-5.512,6.995-12.134,8.9-21.524,7.98C14.364,128.052,9.386,110.395,6.648,96.185,5.273,89.058,4.03,81.9,3.159,74.693c-.519-4.3-.918-8.748-.064-13.116" transform="translate(307.923 58.036)" fill="#e0785e"/>
        <path id="Trazado_155529" data-name="Trazado 155529" d="M66.648,72.648,62.541,97.019S36.69,96.585,13.122,84.3L21.26,55.055Z" transform="translate(294.882 106.349)" fill="#e0785e"/>
        <path id="Trazado_155530" data-name="Trazado 155530" d="M26.9,40.588q-4.186,12.894-9.4,25.421c-.712,1.718-3.55.965-2.826-.78q5.207-12.515,9.4-25.421c.58-1.785,3.41-1.023,2.826.78" transform="translate(330.361 74.935)" fill="#37374c"/>
        <path id="Trazado_155531" data-name="Trazado 155531" d="M21.267,45.09q-4.345,8.733-8.692,17.467c-.838,1.689-3.368.205-2.53-1.481q4.345-8.733,8.692-17.467c.838-1.689,3.368-.205,2.53,1.48" transform="translate(349.61 82.802)" fill="#37374c"/>
        <path id="Trazado_155532" data-name="Trazado 155532" d="M34.459,62.6A42.478,42.478,0,0,0,13.688,50.343c-1.829-.457-1.055-3.283.78-2.826A45.3,45.3,0,0,1,36.532,60.528c1.284,1.378-.783,3.456-2.073,2.073" transform="translate(325.996 91.691)" fill="#37374c"/>
        <path id="Trazado_155533" data-name="Trazado 155533" d="M26.761,71.138a41.269,41.269,0,0,0-6.875-21.557C18.843,48,21.382,46.532,22.42,48.1a44.174,44.174,0,0,1,7.273,23.037c.056,1.888-2.876,1.885-2.932,0" transform="translate(312.729 91.62)" fill="#37374c"/>
        <path id="Trazado_155534" data-name="Trazado 155534" d="M69.227,87.155C51.28,89.4,31.8,85.7,16.279,76.314a1.466,1.466,0,0,1,1.478-2.53c15.127,9.147,34,12.63,51.471,10.44,1.867-.235,1.85,2.7,0,2.932" transform="translate(283.702 142.099)" fill="#2b244a"/>
      </g>
    </g>
  </g>
</svg>
