<svg xmlns="http://www.w3.org/2000/svg" width="291.659" height="261.405" viewBox="0 0 291.659 261.405">
  <g id="Grupo_982374" data-name="Grupo 982374" transform="translate(-3636 8541.802)">
    <rect id="Rectángulo_338239" data-name="Rectángulo 338239" width="240.467" height="217.225" rx="16" transform="translate(3664.624 -8533.834)" fill="#dddeff"/>
    <path id="Trazado_204387" data-name="Trazado 204387" d="M90.563,234.683c-6.845-3.143-13.1-8.441-20.092-10.982-2.3-.835-3.25,3.379-.934,4.221,6.993,2.542,13.245,7.841,20.092,10.982,2.277,1.046,3.209-3.177.934-4.221" transform="translate(3584.174 -8758.967)" fill="#12263f"/>
    <path id="Trazado_204388" data-name="Trazado 204388" d="M22.68,536.216C15.908,538.23,8.76,538.3,1.666,538.06c-2.225-.076-2.219,3.587,0,3.662,7.368.246,14.865.176,21.9-1.914,2.1-.625,1.218-4.219-.89-3.592" transform="translate(3636 -8996.468)" fill="#12263f"/>
    <path id="Trazado_204389" data-name="Trazado 204389" d="M95.331,688.268c-5.3,2.354-10.831,4.164-15.994,6.825-1.956,1.008-.265,4.3,1.692,3.292,5.163-2.662,10.7-4.47,15.995-6.827,2.011-.893.31-4.183-1.693-3.291" transform="translate(3576.373 -9111.95)" fill="#12263f"/>
    <path id="Trazado_204390" data-name="Trazado 204390" d="M1115.326,197.346c-4.974,4.6-9.976,9.306-16.251,12.318-2.258,1.082,0,4.362,2.236,3.291,6.557-3.145,11.834-8.123,17.028-12.928,1.807-1.67-1.223-4.337-3.012-2.68" transform="translate(2801.543 -8738.626)" fill="#12263f"/>
    <path id="Trazado_204391" data-name="Trazado 204391" d="M1103.588,704.637c-6.85-.688-13.582-2.315-20.391-3.343-2.585-.389-2.776,3.392-.2,3.779,6.808,1.025,13.539,2.654,20.389,3.341,2.6.261,2.8-3.516.2-3.776" transform="translate(2814.447 -9121.942)" fill="#12263f"/>
    <path id="Trazado_204392" data-name="Trazado 204392" d="M100.928,405.486c-3.921-1.641-7.983-2.936-11.907-4.577-2.4-1.006-3.508,2.587-1.138,3.578,3.921,1.641,7.986,2.936,11.906,4.578,2.4,1,3.507-2.587,1.139-3.578" transform="translate(3570.219 -8893.573)" fill="#12263f"/>
    <path id="Trazado_204394" data-name="Trazado 204394" d="M1141.916,559.02a65.791,65.791,0,0,0-17.908,1.367c-3.9.834-2.809,4.524,1.084,3.692a54.582,54.582,0,0,1,14.721-1.192c3.786.246,5.91-3.622,2.1-3.868" transform="translate(2783.738 -9013.755)" fill="#12263f"/>
    <path id="Trazado_204397" data-name="Trazado 204397" d="M1073.873,886.81c-6.5-2.337-13.107-4.65-18.851-8.851-2.064-1.514-3.839,1.958-1.794,3.454,6,4.391,12.981,6.827,19.77,9.267,2.361.85,3.215-3.029.875-3.869" transform="translate(2836.36 -9255.924)" fill="#12263f"/>
    <path id="Trazado_204398" data-name="Trazado 204398" d="M994.61,1011.444a2.179,2.179,0,0,0-2.861-.2,1.8,1.8,0,0,0-.194,2.656l3.841,3.61a2.176,2.176,0,0,0,2.862.2,1.8,1.8,0,0,0,.192-2.659Z" transform="translate(2882.917 -9357.15)" fill="#12263f"/>
    <path id="Trazado_204400" data-name="Trazado 204400" d="M1126.825,392l-4.8,2.171a2.178,2.178,0,0,0-1.279,2.569,1.8,1.8,0,0,0,2.384,1.192l4.8-2.17a2.18,2.18,0,0,0,1.275-2.57,1.8,1.8,0,0,0-2.382-1.193" transform="translate(2784.431 -8886.827)" fill="#12263f"/>
    <path id="Trazado_204404" data-name="Trazado 204404" d="M844.069,570c0-.018,0-.033.006-.049l-.017.044Z" transform="translate(2994.616 -9022.157)" fill="#1e2635" fill-rule="evenodd"/>
    <path id="Trazado_204405" data-name="Trazado 204405" d="M847.248,795.659a1.117,1.117,0,0,0-1.113,1.113,1.081,1.081,0,0,0,.718,1.022c-.007,0,0,0,.011,0l.006,0,.013,0,0,0-.011,0,.02.016c.024.031.054.071.078.106a.078.078,0,0,1,0,.008v0a1.11,1.11,0,0,0,2.219-.054,2.278,2.278,0,0,0-1.948-2.226" transform="translate(2993.037 -9193.668)" fill="#f9daab"/>
    <path id="Trazado_204406" data-name="Trazado 204406" d="M849.411,804.656h0l0-.006h0l0,.005" transform="translate(2990.549 -9200.502)" fill="#f9daab"/>
    <path id="Trazado_204407" data-name="Trazado 204407" d="M849.126,804.557l.022.01-.006-.005-.016-.005" transform="translate(2990.765 -9200.432)" fill="#f9daab"/>
    <path id="Trazado_204408" data-name="Trazado 204408" d="M822.919,351.369a45.964,45.964,0,0,0-3.671,4.039c-2.453,3.063-4.127,9.28-8.662,10-4.819.758-6.052-8.094-6.423-11.439-.874-7.875,6.841-12.407,13.205-15.292,7.019-3.181,12.864-1.371,15.392,5.936-3.309,1.119-6.891,3.869-9.842,6.758" transform="translate(3024.982 -8845.271)" fill="#c25e55"/>
    <path id="Trazado_204409" data-name="Trazado 204409" d="M862.174,351.158c-.426-2.373-1.9-4.88-3.289-5.451-5.758-2.372-10.1,7.891-1.483,9.882,4.313.994,5.276-1.624,4.772-4.431" transform="translate(2988.167 -8851.491)" fill="#ae514f"/>
    <path id="Trazado_204410" data-name="Trazado 204410" d="M844.178,684.232a11.321,11.321,0,0,1,5.388,2.983c.786.75-19.441,28.119-26.1,21.075-8.451-8.947,11.53-26.1,20.711-24.059" transform="translate(3011.811 -9108.872)" fill="#c25e55"/>
    <path id="Trazado_204411" data-name="Trazado 204411" d="M857.751,710.439c.33-3.518,1.47-7.235,2.542-8.082,4.449-3.516,7.8,11.7,1.146,14.65-3.333,1.473-4.078-2.408-3.688-6.568" transform="translate(2984.282 -9122.373)" fill="#ae514f"/>
    <path id="Trazado_204412" data-name="Trazado 204412" d="M277.32,620.929a25.543,25.543,0,0,1-1.961-11.952c-8.559-1.926-17.032-4.25-25.418-6.793-1.475,10.915-6.194,21.37-12.338,30.513a14.116,14.116,0,0,0-.646,4.78c.016.323.037.649.06.976.967,13.522,1.436,27.366,3.013,40.858,1.008,8.624,1.7,18.683-3.581,26.088,3.687-5.167,8.992-8.493,14.378-11.491,7.145-3.976,13.148-6.2,18.425-12.888,9.292-11.773,14.056-23.848,13-39.249-.557-8.121-2-13.29-4.934-20.842" transform="translate(3456.326 -9046.651)" fill="#b55044"/>
    <path id="Trazado_204413" data-name="Trazado 204413" d="M307.671,588.976c-6.759-2.916-16.467-3.1-22.12-7.876-16.769-14.163-32.845-29.133-46.823-45.52-4.132,5.6-8.322,11.246-11.82,15.9-2.158,2.869-5.233,5.649-6.98,8.763-1.186,2.115-1.288,4.942-3.133,6.709-7.219,6.911-9.931-9.341-13.27,1.713-2.335,7.729-3.717,15.864-7.534,23.064-1.6,3.021-4.558,4.99-6.151,8.053-2.525,4.856-2.043,10.641-4.488,15.58-4.006,8.093-7.411,15.927-14.973,21.556-5.567,4.144-9.543,10.348-13.945,15.638-6.169,7.413-15.6,14.748-8.01,22.755a183.6,183.6,0,0,0,41.747,32.1c10.417,5.765,22.124,7.607,29.332-3.2,6.142-9.208,7.91-19.758,17.388-26.74,8.527-6.28,19.9-6.873,28.318-12.826,12-8.485,22.4-21.432,31.272-33.055,7.884-10.335,17.454-21.857,18.447-35.418.27-3.688-4.1-5.831-7.258-7.194" transform="translate(3525.362 -8996.041)" fill="#b55044"/>
    <path id="Trazado_204414" data-name="Trazado 204414" d="M269.772,947.908c-4.22-2.955-32.422-25.568-19.95-29.742,6.621-2.212,17.114,9.163,21.363,12.88,10.094,8.831,21.95,14.327,32.245,22.721,3.169,2.584,10.225,7.674,10.109,12.339-.194,7.839-10.9,5.194-14.87,2.131-9.463-7.3-19.082-13.458-28.9-20.329" transform="translate(3448.565 -9286.546)" fill="#ac4a44"/>
    <path id="Trazado_204415" data-name="Trazado 204415" d="M446.4,829.794c-8.124.351-23.234,4.7-25.08-7.506-1.311-8.669,5.988-24.575-1.84-31.966-9.522,14.089-6.692,31.783-1.349,46.707,4.862,13.572,26.519,10.508,37.6,10.878,6.735.225,40.415-8.126,24.689-17.771-9.143-5.607-24.066-.773-34.016-.343" transform="translate(3322.005 -9189.613)" fill="#ac4a44"/>
    <path id="Trazado_204416" data-name="Trazado 204416" d="M597.38,495.563c-2.347,1.374-9.574,5.128-12.215,3.192-3.627-2.658,8.215-9.617,10.4-11.262,3.568-2.692,7.6-5.091,11-8.028,2.152-1.863,4.831-4.7,3.315-7.784-1.588-3.232-5.3-.989-7.665.086-11.654,5.286-22.613,12.158-33.584,18.716-5.86,3.5-11.958,6.858-17.9,10.167-4.109,2.288-8.336,6.045-12.909,4.33-3.351-1.257-6.9-6.075-10.008-1.5-1.794,2.642-2.884,6.121-3.8,9.652-.819,3.14-1.5,6.319-2.435,8.992-1.542,4.427-1.526,9.069-1.468,13.7.064,5.144-4.766,20.733-4.766,20.733,1.285,7.587.09,14.185,8.5,16.088a35.677,35.677,0,0,0,22.366-2.788c3.853-1.889,4.823-4.659,9.293-3.19,3.648,1.2,6.713,4.53,10.792,4.324,3.338-.169,6.233-4.924,8.307-7.233a130.864,130.864,0,0,0,13.588-17.14c2.443-3.847,5.11-7.378,6.679-11.7,1.416-3.9,3.8-7.831,4.615-12.013.9-4.626-2.295-8.425-1.588-12.763.749-4.6,5.657-7.106,6.318-12.063.208-1.561.24-3.61-1.334-4.556-2.048-1.231-3.7,1-5.493,2.045" transform="translate(3244.408 -8946.211)" fill="#b55044"/>
    <path id="Trazado_204417" data-name="Trazado 204417" d="M862.874,558.859c-.025.033-2.392,3.29-2.392,3.29-.031.8.7,10.507,1.342,10.331,5.389-1.473,11.566-7.331,10.108-13.247-.651-2.638-4.6-9.413-8.1-6.383-1.736,1.5.192,4.408-.955,6.009" transform="translate(2982.136 -9008.583)" fill="#b55044"/>
    <path id="Trazado_204418" data-name="Trazado 204418" d="M523.626,215.115c-5.51-4.215-12.124-4.013-19.713-4-7.758.015-41.156-.511-48.65-.464-6.669.043-31.667-2.176-32.185,21-.273,12.212-.139,24.359-.013,36.507.153,14.971-.108,28.851-.3,43.825-.143,11.137-.143,25.823.259,36.956.339,9.428-.309,16.466.116,25.891.307,6.806-1.408,15.459,5.053,20.628,4.042,3.234,10.509,4.4,15.439,4.812,7.817.651,15.667-.007,23.5.177,9.132.216,18.229-.21,27.341-.8,8-.52,17.8,1.348,25.337-1.419,8.555-3.14,10.976-11.59,11.245-21.117,1.022-36.246-.927-72.776.53-108.789.4-9.933-.555-20.332-1.039-30.435-.4-8.433.732-16.926-6.914-22.774" transform="translate(3314.815 -8749.103)" fill="#446e90"/>
    <path id="Trazado_204419" data-name="Trazado 204419" d="M517.176,232.842c-15.638.007-57.6-1.67-70.028-.366-18.692,1.961-15.914,20.754-16.128,26.483-.078,2.083-.052,57.105-.026,97.02.015,22.484.03,40.173.026,40.906-.072,17.036,8.433,19.873,19.56,19.867l59.862-.03c25.026-.012,24.943-7.019,24.936-22.322,0-4.929.159-31.428.321-59.584.163-28.328.326-58.332.321-69.729,0-1.527.056-3.078.113-4.623.4-10.84.551-27.632-18.958-27.623" transform="translate(3308.515 -8765.34)" fill="#20375a"/>
    <path id="Trazado_204420" data-name="Trazado 204420" d="M606.287,252.566c-3.592.054-5.376.264-8.054.177-2.6-.085-9.829-.011-15.378.038-1.28.011-14.109-1.038-9.828,2.948,1.229,1.145,4.252.648,5.78.727,3.823.2,9.057.072,13.69.088,5.1.018,7.9.011,13.954,0,5.111-.012,3.92-4.033-.163-3.973" transform="translate(3201.229 -8780.982)" fill="#192635"/>
    <path id="Trazado_204421" data-name="Trazado 204421" d="M543.556,430.1c.02-7.094.335-13.694.353-20.79.033-12.141-.011-106.368.016-115.837.031-11.325-6.175-14.319-12.885-14.436-8-.14-65.052.08-70.49-.007-4.76-.076-14.068,2.3-14.428,13.46-.206,6.366-.242,53.307-.284,59.676-.043,6.742-.138,20.221-.138,20.221-.082,12.174.212,42.706.2,44.75-.024,3.964.048,5.435,0,10.45-.037,4.218-1.676,14.422,15.27,14.717,6.764.118,63.231-.192,68.823-.051,13.23.331,13.558-9.771,13.565-12.153" transform="translate(3297.333 -8801.059)" fill="#88bac7"/>
    <path id="Trazado_204422" data-name="Trazado 204422" d="M815.275,428.67a12.442,12.442,0,0,1,.868-6.626c6.935,1.486,28.494,7.793,20.837,18.745-6.395,9.148-20.744-4.913-21.7-12.119" transform="translate(3016.577 -8909.766)" fill="#c25e55"/>
    <path id="Trazado_204423" data-name="Trazado 204423" d="M827.544,435.092c-3.115,4.377-7.562-2.162-9.118-4.807a.943.943,0,0,0-1.628.951,19.024,19.024,0,0,0,5.426,6.273,5.163,5.163,0,0,0,3.614.943,5.224,5.224,0,0,0,3.335-2.409c.706-.993-.93-1.933-1.628-.952" transform="translate(3015.434 -8915.684)" fill="#933c31"/>
    <path id="Trazado_204424" data-name="Trazado 204424" d="M162.807,966.685c-1.361-3.222-71.413-61.757-80.958-63.443-6.343-1.12-13.848,8.1-17.143,11.208-6.946,6.557-18.524,15.826-22.582,24.315-8.029,16.793,9.268,31.276,20.9,40.922,14.17,11.753,36.428,13.309,54.023,15.1,13.781,1.4,55.094-5.991,45.761-28.1" transform="translate(3605.552 -9275.348)" fill="#3c8cbf"/>
    <path id="Trazado_204425" data-name="Trazado 204425" d="M75.831,1050.678c-1.23,1.261-2.2,2.745-3.432,4-1.933,1.979,1.1,5.016,3.033,3.034,1.23-1.26,2.2-2.745,3.432-4,1.933-1.979-1.1-5.015-3.033-3.034" transform="translate(3581.456 -9386.964)" fill="#66acd4"/>
    <path id="Trazado_204426" data-name="Trazado 204426" d="M136.664,993.59a13.477,13.477,0,0,0-2.624,3.294,2.18,2.18,0,0,0,.77,2.935,2.156,2.156,0,0,0,2.935-.77c.123-.241.254-.474.4-.7.055-.085.11-.168.168-.25l.018-.027.012-.014c.415-.508.895-.966,1.358-1.43a2.145,2.145,0,1,0-3.033-3.034" transform="translate(3534.351 -9343.604)" fill="#66acd4"/>
    <path id="Trazado_204427" data-name="Trazado 204427" d="M182.316,945.647a6.148,6.148,0,0,0-1.753,1.432c-.217.252-.418.518-.619.783.107-.145-.245.3-.351.409a2.145,2.145,0,0,0,3.033,3.034c.138-.144.264-.3.388-.454.138-.177.274-.355.411-.533l-.061.08q.075-.1.152-.19a6.656,6.656,0,0,1,.517-.562c.025-.024.068-.061.11-.1.109-.071.221-.137.337-.2a2.146,2.146,0,0,0-2.165-3.7" transform="translate(3500 -9307.434)" fill="#66acd4"/>
    <path id="Trazado_204428" data-name="Trazado 204428" d="M92.468,1127.887a2.158,2.158,0,0,0-2.9.886,7.116,7.116,0,0,1-.421.759l-.035.046c-.117.152-.247.3-.375.439-.087.094-.176.186-.269.276-.022.022-.183.16-.255.224a6.024,6.024,0,0,1-.651.427,2.146,2.146,0,0,0,2.311,3.616,8.828,8.828,0,0,0,3.482-3.772,2.178,2.178,0,0,0-.886-2.9" transform="translate(3570.209 -9445.939)" fill="#66acd4"/>
    <path id="Trazado_204429" data-name="Trazado 204429" d="M130.979,1065.99a2.181,2.181,0,0,0-2.935.769c-1.072,1.579-2.358,3-3.432,4.576a2.155,2.155,0,0,0,.769,2.935,2.182,2.182,0,0,0,2.935-.769c1.073-1.578,2.358-3,3.432-4.576a2.155,2.155,0,0,0-.769-2.934" transform="translate(3541.542 -9398.868)" fill="#66acd4"/>
    <path id="Trazado_204430" data-name="Trazado 204430" d="M170.907,1031.047a2.08,2.08,0,0,0-1.936,1.292c-.061.056-.126.11-.19.163a10.8,10.8,0,0,0-1.106.889,2.145,2.145,0,0,0,3.033,3.033c.09-.087.185-.168.281-.247a12.569,12.569,0,0,0,1.075-.855,3.1,3.1,0,0,0,.988-2.129,2.153,2.153,0,0,0-2.145-2.146" transform="translate(3509.059 -9372.537)" fill="#66acd4"/>
    <path id="Trazado_204431" data-name="Trazado 204431" d="M216.144,990.546a4.035,4.035,0,0,0-1.56.4c-.14.059-.277.127-.415.194-.042.013-.086.021-.13.031l-.056.011-.031.007h.014a2.132,2.132,0,0,0-1.684,2.075,2.155,2.155,0,0,0,2.145,2.145,4.039,4.039,0,0,0,1.559-.4c.14-.059.278-.127.414-.193.043-.013.087-.021.13-.031l.056-.012.031-.007-.014,0a2.132,2.132,0,0,0,1.683-2.075,2.155,2.155,0,0,0-2.145-2.145" transform="translate(3474.69 -9341.758)" fill="#66acd4"/>
    <path id="Trazado_204432" data-name="Trazado 204432" d="M117.558,1179.393c-.053.052-.109.1-.165.152l0,0c-.2.142-.4.274-.6.409a10.883,10.883,0,0,0-1.516,1.151,2.145,2.145,0,0,0,3.033,3.034c.053-.053.109-.1.165-.153l0,0c.2-.141.4-.274.6-.408a10.9,10.9,0,0,0,1.517-1.153,2.145,2.145,0,0,0-3.033-3.032" transform="translate(3548.881 -9484.793)" fill="#66acd4"/>
    <path id="Trazado_204433" data-name="Trazado 204433" d="M172.722,1126.329a2.133,2.133,0,0,0-2.076,1.687l0-.017-.017.068c-.183.208-.373.41-.57.606a2.145,2.145,0,0,0,3.033,3.034,4.945,4.945,0,0,0,1.772-3.233,2.155,2.155,0,0,0-2.145-2.144" transform="translate(3507.244 -9444.939)" fill="#66acd4"/>
    <path id="Trazado_204434" data-name="Trazado 204434" d="M232.69,1050.427a2.158,2.158,0,0,0-2.935.769,6.966,6.966,0,0,1-.451.742l-.037.045c-.123.149-.257.286-.392.424-.091.091-.184.18-.28.265-.022.021-.189.153-.262.213a6.335,6.335,0,0,1-.668.4,2.145,2.145,0,1,0,2.165,3.7,8.827,8.827,0,0,0,3.629-3.63,2.177,2.177,0,0,0-.769-2.934" transform="translate(3463.802 -9387.049)" fill="#66acd4"/>
    <path id="Trazado_204435" data-name="Trazado 204435" d="M184.3,1186.533a13.452,13.452,0,0,0-2.623,3.294,2.179,2.179,0,0,0,.77,2.934,2.156,2.156,0,0,0,2.934-.77c.123-.24.254-.475.4-.705.054-.084.11-.168.168-.25l.018-.026.012-.014a19.572,19.572,0,0,1,1.359-1.43,2.145,2.145,0,0,0-3.033-3.034" transform="translate(3498.151 -9490.217)" fill="#66acd4"/>
    <path id="Trazado_204436" data-name="Trazado 204436" d="M231.327,1129.365l-1.716,1.716a2.145,2.145,0,0,0,3.033,3.033l1.716-1.716a2.145,2.145,0,0,0-3.033-3.034" transform="translate(3461.994 -9446.776)" fill="#66acd4"/>
    <path id="Trazado_204437" data-name="Trazado 204437" d="M269.44,1081.725l-1.716,1.716a2.145,2.145,0,1,0,3.033,3.034l1.716-1.716a2.145,2.145,0,1,0-3.033-3.034" transform="translate(3433.032 -9410.576)" fill="#66acd4"/>
    <path id="Trazado_204438" data-name="Trazado 204438" d="M319.807,1031.047a2.167,2.167,0,0,0-2.116,1.818,2.08,2.08,0,0,0-.6,1.47,2.158,2.158,0,0,0,2.144,2.145,2.637,2.637,0,0,0,2.327-1.351,4.251,4.251,0,0,0,.391-1.937,2.166,2.166,0,0,0-2.145-2.146" transform="translate(3395.049 -9372.537)" fill="#66acd4"/>
    <path id="Trazado_204439" data-name="Trazado 204439" d="M278.964,1007.228c-2.766,0-2.766,4.289,0,4.289s2.766-4.289,0-4.289" transform="translate(3425.596 -9354.438)" fill="#66acd4"/>
    <path id="Trazado_204440" data-name="Trazado 204440" d="M280.364,1173.87c-.054.054-.109.1-.165.153l0,0c-.2.142-.4.274-.6.409a10.946,10.946,0,0,0-1.517,1.151,2.145,2.145,0,0,0,3.033,3.033c.053-.053.109-.1.165-.152l0,0c.2-.142.4-.274.6-.409a11.025,11.025,0,0,0,1.517-1.152,2.145,2.145,0,1,0-3.033-3.034" transform="translate(3425.167 -9480.597)" fill="#66acd4"/>
    <path id="Trazado_204441" data-name="Trazado 204441" d="M336.952,1126.646a2.16,2.16,0,0,0-2.935.77,3.342,3.342,0,0,1-.169.3l-.037.063-.03.036c-.214.252-.455.482-.688.715a7.613,7.613,0,0,0-1.362,1.747,2.145,2.145,0,0,0,3.7,2.165q.077-.153.169-.3l.037-.063.03-.036c.214-.251.455-.481.689-.715a7.6,7.6,0,0,0,1.362-1.746,2.176,2.176,0,0,0-.769-2.936" transform="translate(3384.134 -9444.966)" fill="#66acd4"/>
    <path id="Trazado_204442" data-name="Trazado 204442" d="M373.354,1085.826a4.039,4.039,0,0,0-1.559.4c-.141.06-.278.127-.415.194-.043.011-.086.021-.13.03l-.056.012-.03.006.014,0a2.134,2.134,0,0,0-1.684,2.076,2.156,2.156,0,0,0,2.145,2.145,4.042,4.042,0,0,0,1.559-.4c.141-.059.278-.127.415-.193.042-.013.087-.022.13-.031l.056-.011.031-.007-.014,0a2.133,2.133,0,0,0,1.684-2.075,2.156,2.156,0,0,0-2.145-2.144" transform="translate(3355.228 -9414.16)" fill="#66acd4"/>
    <path id="Trazado_204443" data-name="Trazado 204443" d="M233.522,1221.345c-.054.053-.109.1-.166.152l0,0c-.2.142-.4.275-.6.409a10.945,10.945,0,0,0-1.517,1.152,2.145,2.145,0,1,0,3.033,3.033c.053-.053.109-.1.165-.152l0,0c.2-.142.4-.274.6-.409a10.947,10.947,0,0,0,1.517-1.152,2.145,2.145,0,1,0-3.033-3.034" transform="translate(3460.762 -9516.672)" fill="#66acd4"/>
    <path id="Trazado_204444" data-name="Trazado 204444" d="M525.659,361.9c-.256-2.546-1.392-4.68-2.063-7.116-1.1-4.007-1.523-7.558-4.29-10.809-10.263-12.056-16.6-30.593-35.823-26.279-6.347,1.425-10.953,4.355-15.459,9.047-4.27,4.446-7.026,7.855-6.559,14,.522,6.865-2.525,7.859-7.723,12.245-6.5,5.488-8.276,15.459-6.238,23.2,1.253,4.76,2.611,8.718.953,13.5-1.213,3.5-3.591,6.454-3.905,10.266-.731,8.884,1.223,18.04-.007,26.681,2.637,5.785,10.793,1.334,15.452,1.556,2.429.116,4.44,2.217,6.607,3.157a26.947,26.947,0,0,0,8.034,1.9c8.036.822,16.623.093,23.891-3.665,3.009-1.556,6.872-3.393,8.794-6.246,1.834-2.724,1.928-6.494,2.213-9.63.456-4.994-1.417-13.961,2.485-18.045.98-1.026,2.492-1.387,3.691-2.2a28.574,28.574,0,0,0,10.615-17.983c.45-4.258-.241-9.337-.668-13.58" transform="translate(3298.321 -8829.987)" fill="#2f363a"/>
    <path id="Trazado_204445" data-name="Trazado 204445" d="M539.046,510.718a1.86,1.86,0,0,0-.4-.3c-1.434-.8-2.6.973-2.857,2.373a13.359,13.359,0,0,0,.536,7.027c.337.745,2.095,3.575,2.955,3.4,1.586-.321.958-5.107.946-6.381-.012-1.551.114-4.833-1.184-6.118" transform="translate(3229.034 -8976.765)" fill="#d56254"/>
    <path id="Trazado_204446" data-name="Trazado 204446" d="M539.707,530.369l1.369.305c-.068-1.328-.1-2.686-.231-3.994-1.989-.422-1.579,2.144-1.139,3.689" transform="translate(3226.162 -8989.242)" fill="#c2523b"/>
    <path id="Trazado_204447" data-name="Trazado 204447" d="M690.732,404.356c-1.534-3.514-4.341-6.251-5.2-9.881a28.613,28.613,0,0,1-.8-8.09c.542-5.044,3.558-8.121,2.137-13.576-1.686-6.471-6.052-9.136-9.8-13.911-3.77-4.806-1.739-12.894-3.271-18.584-2.1-7.8-10.356-16.778-18.15-18.993-4.452-1.265-11.183-1.331-14.861,1.7-5.831,4.8-1.765,10.3,2.09,14.829,4.684,5.507,11.6,9.321,14.993,15.679,1.647,3.089,3.537,6.341,4.284,9.731a33.716,33.716,0,0,1,.792,7.032c.034,5.709-2.649,9.625-4.084,14.983-1.792,6.691-2.927,12.9-2.4,19.82.3,3.941-.239,7.79,1.419,11.5,2.716,6.071,9.759,9.617,15.707,11.938,3.616,1.412,5.783.962,9.012-.9,1.82-1.048,4.29-1.563,5.961-2.671a6.986,6.986,0,0,0,1.072-.883c-.016-6.566-.251-13.265,1.1-19.723" transform="translate(3151.298 -8832.605)" fill="#343e46"/>
    <path id="Trazado_204448" data-name="Trazado 204448" d="M400.434,1042.1l0-.02Z" transform="translate(3331.718 -9380.92)" fill="#3e8ebe"/>
    <path id="Trazado_204449" data-name="Trazado 204449" d="M567.83,596.389c-12.347-5.92-10.438-18.069-10.076-28.627.075-2.148.922-6.606-.544-8.406-2.033-2.5-10.566.838-13.888,1.414-5.734.995-13.3-3.536-18.463-1.707-4.643,1.644-2.109,5.611-1.942,8.668.321,5.9,1.087,15.443-1.247,21.065-2.036,4.9-6.716,6.965-11.435,9.8a9.753,9.753,0,0,0-4.7,7.417c-.451,3.007-.063,6.265.048,9.1a31.241,31.241,0,0,0,6.309,18c6.857,8.777,19.289,11.378,30.21,8.532,9.925-2.588,16.507-11.31,21.682-18.448,3.15-4.346,15.376-14.427,13.236-19.459-.9-2.109-6.9-6.241-9.187-7.338" transform="translate(3252.017 -9013.411)" fill="#d56254"/>
    <path id="Trazado_204450" data-name="Trazado 204450" d="M542.848,717.482a4.913,4.913,0,0,1-1.024-.193c-7.26-2.191-14.718-3.991-21.531-7.358a5.361,5.361,0,0,1-.7,2.859,22.029,22.029,0,0,1-13.673,10.3c-5,1.314-10.319,1.425-15.466,1.357-9.333-.123-21.473-3.432-24.81-13.112-3.61,1.2-7.179,2.687-10.51,3.926-.808.3-10.6,3.394-10.589,4.149,0,.045-.188,23.779-.21,26.937-.043,5.983-1.616,14.957,2.4,19.93,4.494,5.562,28.15,4.216,34.083,4.367,7.725.2,31.776-.8,37.841-.807,6.923-.005,17.05,1.586,21.261-6.543,3.538-6.831,2.931-16.726,2.622-24.15-.078-1.887.049-15.9.308-21.665" transform="translate(3298.618 -9128.527)" fill="#feb229"/>
    <path id="Trazado_204451" data-name="Trazado 204451" d="M579.188,707.342c-.154.415-4.758,12.549-24.944,13.39-21.113.88-25.308-12.624-25.419-12.943-1.049.488-2.118.93-3.187,1.331-.875.328-1.782.632-2.707.878,1.242,8.771,10.177,14.409,17.1,16.923,7.829,2.84,18.209,2.631,26.249.2a25.343,25.343,0,0,0,11.331-7.06c2.388-2.681,4.823-7.654,6.332-10.805-.531-.272-4.828-1.733-4.761-1.916" transform="translate(3238.633 -9126.56)" fill="#ed9500"/>
    <path id="Trazado_204452" data-name="Trazado 204452" d="M567.286,745.963a1.693,1.693,0,0,0-2.208.9,6.921,6.921,0,0,0-.524,2.965,1.685,1.685,0,1,0,3.341-.438c0-.03,0-.054-.007-.073s0-.034.005-.057a2.928,2.928,0,0,1,.059-.354c-.026.134.068-.249.076-.278.05-.153.1-.306.156-.458a1.714,1.714,0,0,0-.9-2.207" transform="translate(3207.02 -9155.812)" fill="#fff"/>
    <path id="Trazado_204453" data-name="Trazado 204453" d="M607.323,765.21a1.7,1.7,0,0,0-2.362.308,8.741,8.741,0,0,0-.861,1.306,3.127,3.127,0,0,0-.259,1.741,1.684,1.684,0,0,0,3.346-.387h0c.031-.048.062-.095.1-.141.112-.158.233-.311.35-.464a1.7,1.7,0,0,0-.308-2.362" transform="translate(3177.17 -9170.271)" fill="#fff"/>
    <path id="Trazado_204454" data-name="Trazado 204454" d="M658.658,769.042c-.018-.045-.031-.076-.041-.1s-.015-.079-.031-.154c-.1-.449-.154-.909-.213-1.365a1.685,1.685,0,0,0-3.341.438,8.322,8.322,0,0,0,1.022,3.442,1.688,1.688,0,0,0,2.364.3,1.722,1.722,0,0,0,.3-2.365c.19.306-.046-.161-.059-.2" transform="translate(3138.264 -9171.099)" fill="#fff"/>
    <path id="Trazado_204455" data-name="Trazado 204455" d="M696.448,764.7a1.681,1.681,0,0,0-2.234,2.5s0,.009,0,.014a1.685,1.685,0,0,0,3.341-.438,3.056,3.056,0,0,0-1.11-2.076" transform="translate(3108.838 -9169.885)" fill="#fff"/>
    <path id="Trazado_204456" data-name="Trazado 204456" d="M732.833,741.351a3.4,3.4,0,0,0-.669-.71,1.683,1.683,0,0,0-2.117,2.617c.068.084.132.171.193.261a3.384,3.384,0,0,0,.67.709,1.683,1.683,0,0,0,2.115-2.616c-.066-.084-.13-.171-.192-.261" transform="translate(3081.698 -9151.599)" fill="#fff"/>
    <path id="Trazado_204457" data-name="Trazado 204457" d="M979.416,807.235l-.023.006Z" transform="translate(2891.777 -9202.467)" fill="#3e8ebe"/>
    <path id="Trazado_204458" data-name="Trazado 204458" d="M616.146,574.755c-4.929-2.677-9.088,5.088-13.68,4.628-4.753-.477-11.4-12.591-16.164-5.725-3.982,5.734,4.689,15.94,8.842,19.279,3.609,2.9,13.142.548,13.679-4.52,3.016-1.546,13.95-10.063,7.323-13.663" transform="translate(3191.255 -9023.378)" fill="#c6534c"/>
    <path id="Trazado_204459" data-name="Trazado 204459" d="M576.759,520.423l1.717.381c-.027-1.323-.007-2.675-.113-3.982-2.495-.535-2.091,2.039-1.6,3.6" transform="translate(3198.008 -8981.732)" fill="#cc7961"/>
    <path id="Trazado_204460" data-name="Trazado 204460" d="M631.426,522.3h.008l-.008-.009Z" transform="translate(3156.19 -8985.939)" fill="#aab995"/>
    <path id="Trazado_204461" data-name="Trazado 204461" d="M631.426,522.3h.008l-.008-.009Z" transform="translate(3156.19 -8985.939)" fill="#aab995"/>
    <path id="Trazado_204462" data-name="Trazado 204462" d="M587.259,427.762c-7.213.726-17.974,1.958-21.783,9.154h.278c-.783,4.672,6.022-.975,8.6-.509,1.095,2.317,10.617-.424,12.6-1.094,5.277-1.782,11.055,1.65,16.493,2.7,3.018-6.573-12.088-10.663-16.194-10.25" transform="translate(3206.305 -8914.09)" fill="#e59171"/>
    <path id="Trazado_204463" data-name="Trazado 204463" d="M737.709,512.2a1.71,1.71,0,0,0-.393.27c-1.315,1.181-1.46,4.486-1.595,6.041-.124,1.436-1.294,5.106.325,5.942,1.338.692,2.552-1.6,3.089-2.628a14.357,14.357,0,0,0,1.06-7.006c-.128-1.425-1.078-3.309-2.485-2.618" transform="translate(3077.337 -8978.162)" fill="#d56254"/>
    <path id="Trazado_204464" data-name="Trazado 204464" d="M595.348,410.514a18,18,0,0,0-3.607-7.2c-11.509-13.66-34.377-8.537-40.447,6.165-1.677,4.063-.256,7.307-.567,11.364-.014.175-.031.351-.05.529a11.683,11.683,0,0,1-1.27,3.27c-1.987,4.841,1.868,12.02,4.529,16.226a23.55,23.55,0,0,0,13.281,10.067c9.207,2.812,17.293-1.733,21.956-8.076a32.576,32.576,0,0,0,5.9-12.065,13.519,13.519,0,0,0,.269-5.773c-.453-2.356-.952-4.74-.428-7.138.621-2.837,1.19-4.4.431-7.371" transform="translate(3218.932 -8889.482)" fill="#ed8361"/>
    <path id="Trazado_204465" data-name="Trazado 204465" d="M580.307,450.445c-1.527.419-4.805.886-4.68,3.3,0-.073.369-.145.954-.214,1.784-.2,5.495-.356,5.873-.41,2.358-.341,2.452-2.495,2.013-4.688a20.111,20.111,0,0,1-4.159,2.012" transform="translate(3198.594 -8929.819)" fill="#293b37"/>
    <path id="Trazado_204466" data-name="Trazado 204466" d="M685.791,472.657c-.455-.083-5.642-.881-5.593-1.223-.269,1.674-.289,2.952,1.007,3.566a4.887,4.887,0,0,0,1.793.386c.446.025,6.275-.34,6.182.051.548-2.336-1.07-2.343-3.389-2.78" transform="translate(3119.242 -8947.297)" fill="#293b37"/>
    <path id="Trazado_204467" data-name="Trazado 204467" d="M623.687,606.115c-3.775-.221-6.977,1.443-7.15,3.715s2.747,4.293,6.523,4.513,6.977-1.442,7.151-3.714-2.748-4.294-6.524-4.514" transform="translate(3167.51 -9049.623)" fill="#ed8361"/>
    <path id="Trazado_204468" data-name="Trazado 204468" d="M636.576,509.925c-.1-.649.069-2.606-1.128-2.534a1.542,1.542,0,0,0-.4.084c-.984.334-.9,1.747-1.068,2.458a28.842,28.842,0,0,1-.916,3.457,11.4,11.4,0,0,0-.9,2.474c-.316,2.734,3.564,3.327,5.724,1.892,1.322-.878.614-2.688.113-3.723a14.581,14.581,0,0,1-1.427-4.108" transform="translate(3155.642 -8974.618)" fill="#c65c50"/>
    <path id="Trazado_204469" data-name="Trazado 204469" d="M574.478,542.656c-.049.124-.133.336-.038.068-1.647,3.3,5.179,5.087,6.232,2.028,1.323-3.84-5.262-4.314-6.194-2.1" transform="translate(3199.687 -9000.41)" fill="#e45552"/>
    <path id="Trazado_204470" data-name="Trazado 204470" d="M692.779,542.78c-.016.141-.041.379-.018.079-.721,3.828,6.306,3.83,6.517.4.267-4.3-6.186-3.014-6.5-.484" transform="translate(3109.623 -8999.743)" fill="#e45552"/>
    <path id="Trazado_204471" data-name="Trazado 204471" d="M607.662,574.007c-.435.013-.907,2.188-.826,2.2a.513.513,0,0,0,.231-.023c.508-.176,1.3-2.2.6-2.179" transform="translate(3174.883 -9025.239)" fill="#e28b6e"/>
    <path id="Trazado_204472" data-name="Trazado 204472" d="M688.073,577.058a.506.506,0,0,0-.1.168c-.15.432.666,1.977,1.008,1.488.209-.3-.862-1.706-.909-1.655" transform="translate(3113.235 -9027.558)" fill="#e28b6e"/>
    <path id="Trazado_204473" data-name="Trazado 204473" d="M682.7,593.322c.015.019.033.041.046.059a.105.105,0,0,0-.046-.059" transform="translate(3117.232 -9039.917)" fill="#ee7963"/>
    <path id="Trazado_204474" data-name="Trazado 204474" d="M745.437,526.861c-.247,1.276-.41,2.62-.6,3.927l1.317-.093c.56-1.465,1.193-3.948-.717-3.834" transform="translate(3070.012 -8989.413)" fill="#c2523b"/>
    <path id="Trazado_204475" data-name="Trazado 204475" d="M590.358,386.511a14.165,14.165,0,0,1-1.429-.928,87.048,87.048,0,0,1-7.256-6.666c-5.147-4.8-11.029-7.434-16.661-.171-2.8,3.613-6.385,6.814-8.637,10.828-2.537,4.522-2.476,9.5-1.279,14.466a23.132,23.132,0,0,1,1.258-5.879c.994-1.982,3.012-2.347,4.5-3.907,1.262-1.323,1.976-3.095,3.306-4.467,2.636-2.718,6.255-6.39,10.02-7.388,2.727-.722,4.843,2.479,6.853,4.479A100.319,100.319,0,0,0,596.1,398.6c4.509,2.957,3.454-2.521,2.648-5.2-1.508-5.013-4.7-4.784-8.393-6.886" transform="translate(3214.8 -8873.446)" fill="#dc6d52"/>
    <path id="Trazado_204476" data-name="Trazado 204476" d="M550.458,362.439c-.625.276-1.169.534-1.585.74-5.457,2.715-9.383,7.268-12.267,12.551-2.436,4.464-3.99,12.23-.044,16.6a16.45,16.45,0,0,1,4.375-6.938c4.128-4.3,7.743-8.949,12-13.147,2.169-2.14,4.464-4.646,5.583-7.5,2.256-5.759-5.417-3.47-8.061-2.3" transform="translate(3230.106 -8863.374)" fill="#2f363a"/>
    <path id="Trazado_204477" data-name="Trazado 204477" d="M656.462,343.574c-3.66-2.238-21.214-14.906-22.553-4.44-.989,7.738,5.129,13.131,10.641,17.444,2.977,2.329,5.911,4.669,8.827,7.071,2.606,2.146,4.654,5.553,7.151,7.39,1.433-2.916,2.082-6.224,2.859-9.355.6-2.4,2.935-4.975,2.475-7.534-.77-4.279-5.908-8.441-9.4-10.577" transform="translate(3154.384 -8843.658)" fill="#343e46"/>
    <path id="Trazado_204478" data-name="Trazado 204478" d="M589.793,507.485a1.754,1.754,0,0,0-1.712,1.745l0,.285a1.72,1.72,0,0,0,1.761,1.667,1.755,1.755,0,0,0,1.711-1.745l0-.286a1.719,1.719,0,0,0-1.76-1.666" transform="translate(3189.128 -8974.691)" fill="#1a1715"/>
    <path id="Trazado_204479" data-name="Trazado 204479" d="M581.8,505.436c-2.986-1.393-8.074-1.676-10.888.121a.507.507,0,0,0-.143.771.718.718,0,0,0,.9.109c2.376-1.52,6.912-1.235,9.494-.031a.774.774,0,0,0,.353.067.692.692,0,0,0,.526-.29.5.5,0,0,0-.245-.747" transform="translate(3202.372 -8972.271)" fill="#343e46"/>
    <path id="Trazado_204480" data-name="Trazado 204480" d="M691.845,507.564a1.757,1.757,0,0,0-1.714,1.747l0,.286a1.724,1.724,0,0,0,1.764,1.67,1.757,1.757,0,0,0,1.713-1.748l0-.287a1.721,1.721,0,0,0-1.763-1.668" transform="translate(3111.583 -8974.751)" fill="#1a1715"/>
    <path id="Trazado_204481" data-name="Trazado 204481" d="M685.926,506.647c-2.941-1.5-8.024-1.953-10.9-.251a.507.507,0,0,0-.17.767.719.719,0,0,0,.9.141c2.431-1.441,6.961-1,9.505.294a.78.78,0,0,0,.351.078.693.693,0,0,0,.536-.273.5.5,0,0,0-.22-.757" transform="translate(3123.275 -8973.037)" fill="#343e46"/>
    <path id="Trazado_204482" data-name="Trazado 204482" d="M626.472,568.668a54.4,54.4,0,0,1-6.3.038c-1.822-.042-3.652-.223-5.474-.323-1.283-.07-2.246-.05-2.241,1.585a5.426,5.426,0,0,0,2.071,3.818,8.6,8.6,0,0,0,5.964,2.12,9.917,9.917,0,0,0,5.091-1.536,5.267,5.267,0,0,0,2.338-5.9c-.474.086-.958.151-1.45.2" transform="translate(3170.605 -9020.952)" fill="#fff"/>
    <path id="Trazado_204483" data-name="Trazado 204483" d="M621.891,564.061c-.443-.029-.466.181-.942.4-1.861.852-3.25-.39-3.561-.317a29.075,29.075,0,0,1-5.424.77c.2.714,1.715.753,2.309.848a23.9,23.9,0,0,0,6,.208c1.651-.151,7.416.026,7.731-.956-.62-.242-4.49-.669-5.888-.921a2.09,2.09,0,0,0-.229-.03" transform="translate(3170.979 -9017.681)" fill="#d33138"/>
    <path id="Trazado_204484" data-name="Trazado 204484" d="M627.284,568.942A4.613,4.613,0,0,1,625.348,571a7.941,7.941,0,0,1-4.336,1.161,11.875,11.875,0,0,1-5.373-1.281c-.83-.447-2.2-1.023-2.7-1.831s-.1-1.221-.794-1.965a6.732,6.732,0,0,0,.438,3.971,6.515,6.515,0,0,0,2.632,3.281,9.106,9.106,0,0,0,9.115.56,6.592,6.592,0,0,0,2.919-3.282,11.325,11.325,0,0,0,.669-4.006c-.248.509-.438.943-.636,1.33" transform="translate(3170.917 -9019.982)" fill="#d33138"/>
    <path id="Trazado_204485" data-name="Trazado 204485" d="M618.695,578.089c4.23,1.6,9.006.761,10.981-3.282-.949.892-3.685,1.4-6.328,1.427a26.18,26.18,0,0,1-8.068-1.07c.208.035,1.327,2.135,3.416,2.926" transform="translate(3168.46 -9025.848)" fill="#af2f3d"/>
    <path id="Trazado_204486" data-name="Trazado 204486" d="M629.479,583.221c-1.286.009-3.635.148-4.059.56-.324.315,1.28,1.285,4.4,1.436a8.836,8.836,0,0,0,4.808-1.122c-.844-1.092-3.82-.884-5.148-.874" transform="translate(3160.785 -9032.225)" fill="#c3424f"/>
    <path id="Trazado_204487" data-name="Trazado 204487" d="M812.92,532.311a12.439,12.439,0,0,1,.867-6.626c6.936,1.486,28.494,7.794,20.838,18.745-6.4,9.148-20.745-4.913-21.7-12.119" transform="translate(3018.367 -8988.521)" fill="#c25e55"/>
    <path id="Trazado_204488" data-name="Trazado 204488" d="M829.375,543.475c-2.4,2.258-6.182-1.664-7.569-3.485-.727-.953-2.365-.016-1.628.952,2.2,2.89,6.968,7.212,10.529,3.867.888-.834-.448-2.165-1.332-1.333" transform="translate(3012.903 -8999.089)" fill="#933c31"/>
    <path id="Trazado_204489" data-name="Trazado 204489" d="M321.388,482.192c2.747-4.812,6.592-8.842,7.051-15.253.488-6.836-1.124-19.142-9.359-21.264-2.186,7.613-7.444,13.732-12.651,19.589-3.947,4.442-10.4,8.578-13.45,13.773-2.492,4.251,1.493,11.336,4.743,14.274,5.742,5.19,19.625,4.1,21.128-4.468a20.318,20.318,0,0,1,2.538-6.65" transform="translate(3413.964 -8927.724)" fill="#b55044"/>
    <path id="Trazado_204490" data-name="Trazado 204490" d="M386.352,486.307a6.256,6.256,0,0,1-3.887,4.721,5.235,5.235,0,0,1-5.546-1.435c-.768-.8-2.1.308-1.324,1.119a7.029,7.029,0,0,0,7.217,2.013,7.959,7.959,0,0,0,5.267-6.252c.227-1.1-1.5-1.248-1.726-.167" transform="translate(3350.771 -8958.039)" fill="#933c31"/>
    <path id="Trazado_204491" data-name="Trazado 204491" d="M646.778,357.749c-1.2-1.745-2.219-4.028-1.608-6.168a.721.721,0,0,0-1.389-.383c-.715,2.508.33,5.213,1.753,7.278.524.76,1.773.04,1.244-.727" transform="translate(3146.979 -8855.544)" fill="#2b3236"/>
    <path id="Trazado_204492" data-name="Trazado 204492" d="M700.259,414.723a16.279,16.279,0,0,1-6.646-3.9c-.666-.647-1.686.371-1.019,1.019a17.8,17.8,0,0,0,7.281,4.267.721.721,0,0,0,.383-1.389" transform="translate(3109.876 -8901.085)" fill="#2b3236"/>
    <path id="Trazado_204493" data-name="Trazado 204493" d="M762.128,528.415c-.078-.918-1.52-.926-1.441,0a30.309,30.309,0,0,1-.214,7.733c-.156.908,1.233,1.3,1.389.383a31.77,31.77,0,0,0,.266-8.115" transform="translate(3058.14 -8990.071)" fill="#2b3236"/>
    <path id="Trazado_204494" data-name="Trazado 204494" d="M754.681,636.983c-.913-1.953-2.484-3.647-2.809-5.831-.137-.917-1.524-.526-1.389.383.345,2.318,1.987,4.107,2.954,6.175.393.841,1.635.109,1.244-.727" transform="translate(3065.729 -9068.268)" fill="#2b3236"/>
    <path id="Trazado_204495" data-name="Trazado 204495" d="M813.7,654.587c-1.02-2.783-2.14-5.529-2.881-8.4a.721.721,0,0,0-1.389.383c.742,2.875,1.862,5.621,2.881,8.4.317.865,1.709.491,1.389-.383" transform="translate(3020.95 -9079.696)" fill="#2b3236"/>
    <path id="Trazado_204496" data-name="Trazado 204496" d="M740.385,377.379c-.568-2.755-2.241-5.016-3.674-7.376a.721.721,0,0,0-1.244.727c1.369,2.254,2.987,4.4,3.529,7.031.188.91,1.576.524,1.389-.383" transform="translate(3077.215 -8869.962)" fill="#2b3236"/>
    <path id="Trazado_204497" data-name="Trazado 204497" d="M788.962,492.589c-.025-.07-.055-.139-.083-.207-.015-.036-.027-.073-.04-.11a.1.1,0,0,0-.006-.017.717.717,0,0,0-1.431.069,1.477,1.477,0,0,0,.12.519c.031.074.059.148.083.224.01.03.015.06.022.091,0,.013.013.1.014.127a.72.72,0,0,0,1.441,0,2.234,2.234,0,0,0-.12-.7" transform="translate(3037.668 -8962.623)" fill="#2b3236"/>
    <path id="Trazado_204498" data-name="Trazado 204498" d="M681.993,371.176c-1.33-1.322-3.066-2.754-3.151-4.773-.039-.925-1.48-.929-1.441,0,.1,2.472,1.927,4.157,3.573,5.792a.721.721,0,0,0,1.018-1.019" transform="translate(3121.255 -8866.957)" fill="#4c5c66"/>
    <path id="Trazado_204499" data-name="Trazado 204499" d="M764.134,448.037c-.5-2.052-1.638-3.814-2.4-5.763-.335-.855-1.729-.483-1.389.383.762,1.945,1.9,3.719,2.4,5.763.221.9,1.61.52,1.389-.383" transform="translate(3058.268 -8924.771)" fill="#4c5c66"/>
    <path id="Trazado_204500" data-name="Trazado 204500" d="M792.056,579.836a20.457,20.457,0,0,1-.026-6.292c.18-.907-1.208-1.294-1.389-.383a21.6,21.6,0,0,0-.026,6.674c.1.913,1.543.923,1.441,0" transform="translate(3035.415 -9024.202)" fill="#4c5c66"/>
    <path id="Trazado_204501" data-name="Trazado 204501" d="M800.7,677.336a9.556,9.556,0,0,1-1.976-3.044c-.348-.847-1.742-.476-1.389.383a11.386,11.386,0,0,0,2.346,3.679c.649.667,1.666-.353,1.019-1.019" transform="translate(3030.166 -9101.08)" fill="#4c5c66"/>
    <path id="Trazado_204502" data-name="Trazado 204502" d="M564.618,369a29.4,29.4,0,0,0-5.486,3.979c-.686.623.217,1.747.9,1.122a27.852,27.852,0,0,1,5.171-3.787c.806-.449.222-1.766-.591-1.314" transform="translate(3211.311 -8869.387)" fill="#4c5c66"/>
    <path id="Trazado_204503" data-name="Trazado 204503" d="M500.624,522.191c-.938,3.433-.985,6.989-1.226,10.517-.064.928,1.378.922,1.441,0,.233-3.4.27-6.823,1.175-10.134a.721.721,0,0,0-1.389-.383" transform="translate(3256.518 -8985.478)" fill="#4c5c66"/>
    <path id="Trazado_204504" data-name="Trazado 204504" d="M479.335,680.968c-1.166,2.088-2.426,4.257-4.544,5.5a.721.721,0,0,0,.727,1.244c2.337-1.376,3.772-3.711,5.061-6.021.453-.812-.791-1.538-1.244-.727" transform="translate(3275.479 -9106.249)" fill="#4c5c66"/>
    <path id="Trazado_204505" data-name="Trazado 204505" d="M529.414,616.4a63.534,63.534,0,0,1-.935,9.173c-.14.908,1.249,1.3,1.389.383a66.259,66.259,0,0,0,.986-9.556.721.721,0,0,0-1.441,0" transform="translate(3234.425 -9056.924)" fill="#4c5c66"/>
    <path id="Trazado_204506" data-name="Trazado 204506" d="M690.916,334.145a3.461,3.461,0,0,1-1.182-1.182.732.732,0,0,0-.985-.258.723.723,0,0,0-.258.985,4.934,4.934,0,0,0,1.7,1.7.72.72,0,1,0,.727-1.244" transform="translate(3112.907 -8841.805)" fill="#2b3236"/>
    <path id="Trazado_204507" data-name="Trazado 204507" d="M527.363,435.724a26.029,26.029,0,0,0-4.027,7.281c-.348.862,1.047,1.233,1.389.383a23.9,23.9,0,0,1,3.657-6.646c.6-.7-.417-1.729-1.019-1.019" transform="translate(3238.368 -8919.98)" fill="#2b3236"/>
    <path id="Trazado_204508" data-name="Trazado 204508" d="M478.173,496.017c-1.543,2.47-1.536,5.479-1.779,8.287-.08.926,1.361.918,1.441,0,.221-2.552.18-5.316,1.582-7.56.494-.791-.753-1.513-1.244-.727" transform="translate(3274 -8965.72)" fill="#2b3236"/>
    <path id="Trazado_204509" data-name="Trazado 204509" d="M482.234,603.406c-.291,4.966-2.428,9.467-4.7,13.8-.431.822.812,1.55,1.244.727,2.4-4.573,4.594-9.3,4.9-14.53.054-.929-1.387-.923-1.441,0" transform="translate(3273.201 -9047.053)" fill="#2b3236"/>
    <path id="Trazado_204510" data-name="Trazado 204510" d="M580.111,344.842a.72.72,0,0,0-1.019-1.019,1.9,1.9,0,0,0-.691,1.23.716.716,0,0,0,1.425.108l.033-.053c.079-.093.166-.18.251-.266" transform="translate(3196.484 -8850.17)" fill="#2b3236"/>
    <path id="Trazado_204511" data-name="Trazado 204511" d="M477.878,771.4a18.681,18.681,0,0,1-.455,4.851.721.721,0,0,0,1.389.383,20.208,20.208,0,0,0,.506-5.234.721.721,0,0,0-1.441,0" transform="translate(3273.235 -9174.705)" fill="#f7d9af"/>
    <path id="Trazado_204512" data-name="Trazado 204512" d="M496.4,859.4v4.322a.721.721,0,0,0,1.441,0V859.4a.721.721,0,0,0-1.441,0" transform="translate(3258.792 -9241.575)" fill="#f7d9af"/>
    <path id="Trazado_204513" data-name="Trazado 204513" d="M580.83,848.422c-.094-.915-1.536-.924-1.441,0a63.049,63.049,0,0,1,.24,6.483.721.721,0,0,0,1.441,0,63.066,63.066,0,0,0-.24-6.483" transform="translate(3195.736 -9233.239)" fill="#f7d9af"/>
    <path id="Trazado_204514" data-name="Trazado 204514" d="M638.4,907.4v5.523a.721.721,0,0,0,1.441,0V907.4a.721.721,0,0,0-1.441,0" transform="translate(3150.888 -9278.051)" fill="#f7d9af"/>
    <path id="Trazado_204515" data-name="Trazado 204515" d="M667.822,829.437c-.12-.907-1.562-.919-1.44,0a38.467,38.467,0,0,1,.24,5.043.721.721,0,0,0,1.441,0,38.457,38.457,0,0,0-.24-5.043" transform="translate(3129.635 -9218.817)" fill="#f7d9af"/>
    <path id="Trazado_204516" data-name="Trazado 204516" d="M730.121,903.428a39.847,39.847,0,0,1-.695,5.571.721.721,0,0,0,1.389.383,42.613,42.613,0,0,0,.746-5.954c.107-.922-1.335-.912-1.441,0" transform="translate(3081.743 -9275.039)" fill="#f7d9af"/>
    <path id="Trazado_204517" data-name="Trazado 204517" d="M739.91,822.154a29.783,29.783,0,0,0-.506,4.514.721.721,0,0,0,1.441,0,27.2,27.2,0,0,1,.454-4.131c.151-.909-1.237-1.3-1.389-.383" transform="translate(3074.141 -9213.406)" fill="#f7d9af"/>
    <path id="Trazado_204518" data-name="Trazado 204518" d="M806.844,868.4a.721.721,0,0,0-1.44,0c.023,2.816.445,5.648.026,8.453-.136.909,1.252,1.3,1.389.383.441-2.948.05-5.876.026-8.836" transform="translate(3023.988 -9248.414)" fill="#f7d9af"/>
    <path id="Trazado_204519" data-name="Trazado 204519" d="M804.4,764.4v3.122a.721.721,0,0,0,1.441,0V764.4a.721.721,0,0,0-1.441,0" transform="translate(3024.748 -9169.388)" fill="#f7d9af"/>
    <path id="Trazado_204520" data-name="Trazado 204520" d="M383.113,1137.959a31.158,31.158,0,0,1,5.276,6.445c3.834,6.138-1.96,7.429-6.163,10.285-6.264,4.256-11.5,9.018-19.308,10.6-4.2.852-15.524,3.12-15.946-3.245-.345-5.214,7.127-9.588,10.3-12.589,4.944-4.67,9.467-9.861,15.185-13.632,3.681-2.428,7.508-.7,10.653,2.132" transform="translate(3372.351 -9451.281)" fill="#307da7"/>
    <path id="Trazado_204521" data-name="Trazado 204521" d="M313.321,1248.173a10.952,10.952,0,0,0-2.722,2.051,2.145,2.145,0,0,0,3.033,3.034c.227-.227.46-.448.7-.659.076-.054.344-.261.425-.313a8.267,8.267,0,0,1,.728-.408,2.158,2.158,0,0,0,.77-2.935,2.18,2.18,0,0,0-2.935-.769" transform="translate(3400.452 -9537.32)" fill="#66acd4"/>
    <path id="Trazado_204522" data-name="Trazado 204522" d="M352.861,1193.671a13.272,13.272,0,0,0-2.051,3.295,2.181,2.181,0,0,0,.769,2.934,2.156,2.156,0,0,0,2.935-.769c.261-.523.524-1.045.807-1.556.126-.227.262-.448.4-.665.021-.031.038-.054.053-.074.038-.044.075-.089.116-.13a2.145,2.145,0,0,0-3.033-3.034" transform="translate(3369.629 -9495.64)" fill="#66acd4"/>
    <path id="Trazado_204523" data-name="Trazado 204523" d="M401.238,1124.272a2.155,2.155,0,0,0-2.934.769,14.9,14.9,0,0,1-.833,1.507c-.02.027-.036.049-.049.069-.08.091-.164.18-.25.266-.035.03-.06.053-.08.071-.1.063-.2.122-.306.177a2.145,2.145,0,0,0,2.165,3.7,7.728,7.728,0,0,0,3.058-3.629,2.182,2.182,0,0,0-.77-2.935" transform="translate(3335.291 -9443.163)" fill="#66acd4"/>
    <path id="Trazado_204524" data-name="Trazado 204524" d="M383,1245.8a7.722,7.722,0,0,0-3.629,3.057,2.145,2.145,0,0,0,3.7,2.165,3.2,3.2,0,0,1,.17-.3l.008-.015c.018-.018.041-.04.071-.073.077-.08.156-.156.239-.229l.02-.019.076-.052a12.091,12.091,0,0,1,1.506-.833,2.155,2.155,0,0,0,.77-2.934,2.182,2.182,0,0,0-2.934-.77" transform="translate(3347.934 -9535.521)" fill="#66acd4"/>
    <path id="Trazado_204525" data-name="Trazado 204525" d="M419.478,1198.443c-.2.2-.4.387-.606.569l-.068.018.016,0a2.132,2.132,0,0,0-1.686,2.076,2.156,2.156,0,0,0,2.145,2.145,4.946,4.946,0,0,0,3.233-1.773,2.145,2.145,0,0,0-3.033-3.033" transform="translate(3319.027 -9499.268)" fill="#66acd4"/>
    <path id="Trazado_204526" data-name="Trazado 204526" d="M454.662,1157.949l-1.144,1.144a2.145,2.145,0,0,0,3.033,3.033l1.144-1.145a2.145,2.145,0,0,0-3.033-3.033" transform="translate(3291.851 -9468.496)" fill="#66acd4"/>
    <path id="Trazado_204527" data-name="Trazado 204527" d="M456.179,1235.9a2.133,2.133,0,0,0-2.076,1.687l0-.015-.017.067q-.274.312-.57.606a2.145,2.145,0,0,0,3.033,3.033,4.942,4.942,0,0,0,1.772-3.232,2.155,2.155,0,0,0-2.145-2.145" transform="translate(3291.851 -9528.2)" fill="#66acd4"/>
    <path id="Trazado_204528" data-name="Trazado 204528" d="M485.056,1191.3l-.572.572a2.145,2.145,0,0,0,3.033,3.034l.572-.571a2.145,2.145,0,0,0-3.033-3.034" transform="translate(3268.32 -9493.836)" fill="#66acd4"/>
    <path id="Trazado_204529" data-name="Trazado 204529" d="M540.931,357.847c0,22.922,0,43.747-.011,49.066-.009,3.55-.094,7.036-.176,10.407s-.167,6.838-.177,10.383c-.013,4.319-1.634,11.564-12.336,11.563-.2,0-.407,0-.614-.008-1.005-.025-3.67-.037-8.147-.037-6.943,0-17.318.03-27.351.059-9.72.028-19.77.057-26.285.057-3.685,0-5.989-.009-7.045-.028-5.78-.1-9.894-1.4-12.228-3.85-2.687-2.826-2.561-6.7-2.477-9.258.012-.362.023-.7.025-1,.026-2.81.016-4.511.005-6.155-.008-1.313-.016-2.554-.006-4.3,0-.6-.018-3.62-.049-7.806-.078-10.584-.208-28.3-.15-36.944,0,0,.1-13.48.139-20.221.012-1.748.023-6.59.037-12.72.036-15.832.1-42.329.247-46.941.4-12.52,12.258-12.881,13.608-12.881l.211,0c.891.014,3.214.021,7.1.021,5.457,0,13.347-.013,21.7-.028,9.684-.017,19.7-.034,27.717-.034,7.563,0,12.133.016,13.972.048,8.3.145,12.319,4.67,12.295,13.834-.007,2.537-.009,11.154-.009,22.648a5.925,5.925,0,0,1,1.2-.1c0-11.445,0-20.02.009-22.549.026-9.822-4.507-14.881-13.475-15.038-1.846-.032-6.424-.048-13.993-.048-8.021,0-18.035.017-27.719.034-8.353.014-16.244.028-21.7.028-3.879,0-6.2-.007-7.08-.021l-.23,0a16.666,16.666,0,0,0-9.118,2.713c-3.562,2.441-5.529,6.359-5.69,11.33-.134,4.154-.2,25.1-.235,41.544a5.245,5.245,0,0,1,.088.949c0,.951-.028,1.891-.1,2.818q0,.845,0,1.666c-.014,6.128-.025,10.969-.037,12.715-.043,6.742-.139,20.221-.139,20.221-.058,8.655.072,26.374.15,36.961.031,4.181.053,7.2.049,7.79-.01,1.75,0,2.995.006,4.312.01,1.64.021,3.335-.005,6.136,0,.3-.013.624-.025.976-.09,2.761-.226,6.934,2.807,10.124,2.564,2.7,6.963,4.116,13.077,4.223,1.063.018,3.374.028,7.066.028,6.517,0,16.568-.029,26.288-.057,10.033-.029,20.407-.059,27.348-.059,4.467,0,7.122.012,8.117.037.217.005.433.008.644.008h0c12.179,0,13.522-8.923,13.535-12.76.01-3.532.094-7,.176-10.357.082-3.377.167-6.87.177-10.432.014-5.259.014-25.672.012-48.282q-.607-.384-1.2-.787" transform="translate(3299.604 -8798.785)" fill="#fff"/>
    <path id="Trazado_204530" data-name="Trazado 204530" d="M853,502.779q-.605-.475-1.2-.96c0,2.753,0,5.568,0,8.418a5.327,5.327,0,0,1,1.2.439c0-2.668,0-5.31,0-7.9" transform="translate(2988.735 -8970.387)" fill="#fff"/>
  </g>
</svg>
