<svg xmlns="http://www.w3.org/2000/svg" xmlns:xlink="http://www.w3.org/1999/xlink" width="78" height="78" viewBox="0 0 78 78">
  <defs>
    <clipPath id="clip-path">
      <rect id="Rectángulo_338356" data-name="Rectángulo 338356" width="48.012" height="48.115" fill="none"/>
    </clipPath>
  </defs>
  <g id="Grupo_982641" data-name="Grupo 982641" transform="translate(4836 9584)">
    <circle id="Elipse_4890" data-name="Elipse 4890" cx="39" cy="39" r="39" transform="translate(-4836 -9584)" fill="#6b8dfc"/>
    <g id="Grupo_982640" data-name="Grupo 982640" transform="translate(-4821.029 -9569.032)">
      <g id="Grupo_982639" data-name="Grupo 982639" transform="translate(0 0)" clip-path="url(#clip-path)">
        <path id="Trazado_205161" data-name="Trazado 205161" d="M77.392,33.04s-7.114-5.588-22.634-.284V59.84l22.608,1.221Z" transform="translate(-30.374 -16.902)" fill="#fefefe"/>
        <path id="Trazado_205162" data-name="Trazado 205162" d="M26.361,47.714a47.8,47.8,0,0,1,4.823-1.189,26.907,26.907,0,0,1,15.31,1.685c.146.062.3.114.492.187V47.88q0-12.637.009-25.274a.653.653,0,0,0-.46-.724c-.794-.334-1.589-.665-2.408-.934-.368-.121-.585-.327-.449-.717.129-.372.429-.383.765-.27A28.487,28.487,0,0,1,47.6,21.251a.637.637,0,0,1,.41.654c-.007.146,0,.293,0,.44v30.7c0,.13,0,.261,0,.391-.02.592-.231.752-.816.594-1.414-.379-2.837-.716-4.28-.971A41.56,41.56,0,0,0,30.6,52.682,42.722,42.722,0,0,0,24.4,53.947a1.578,1.578,0,0,1-.9,0,38.757,38.757,0,0,0-12.887-1.521A45.409,45.409,0,0,0,.894,54.007c-.657.177-.887.008-.888-.666Q0,37.673,0,22.005a.784.784,0,0,1,.5-.8,24.18,24.18,0,0,1,4.053-1.532c.367-.1.51-.233.506-.648-.026-2.509-.014-5.019-.012-7.528,0-.58.18-.777.712-.724a27.988,27.988,0,0,1,10.37,2.874,20.94,20.94,0,0,1,7.718,7.03.539.539,0,0,0,.814.236,19.7,19.7,0,0,1,2.522-.9c.342-.1.632-.07.75.3s-.117.574-.444.687a5.862,5.862,0,0,0-1.141.406,1.646,1.646,0,0,1-.766.409c-.928.361-.93.358-.93,1.37V47.334c0,.146,0,.293,0,.44,0,.293.128.364.4.273a2.617,2.617,0,0,1,1.3-.332" transform="translate(0 -5.972)"/>
        <path id="Trazado_205163" data-name="Trazado 205163" d="M66.016,32.277a13.473,13.473,0,0,1-5.234-1.168A2.927,2.927,0,0,1,59.1,28.073c.5-3.761,1.009-7.518,1.514-11.278.26-1.936.5-3.874.785-5.807.055-.375-.157-.363-.371-.391a23.421,23.421,0,0,1-4.141-.908,12.1,12.1,0,0,1-1.147-.41,1.5,1.5,0,0,1-.979-1.444A1.475,1.475,0,0,1,55.7,6.373a24.307,24.307,0,0,1,3.4-1.19.744.744,0,0,0,.578-.556,6.686,6.686,0,0,1,12.708-.04.834.834,0,0,0,.652.607,27.551,27.551,0,0,1,3.178,1.1,1.593,1.593,0,0,1,0,3.047,22,22,0,0,1-4.96,1.23c-.61.081-.6.073-.517.684Q71.471,16.625,72.184,22c.269,2.017.543,4.033.8,6.052a2.945,2.945,0,0,1-1.871,3.15,13.836,13.836,0,0,1-5.1,1.077" transform="translate(-30.374 -0.001)"/>
        <path id="Trazado_205164" data-name="Trazado 205164" d="M56.822,60.97c-.546.206-1.094.407-1.637.622-.2.079-.269.025-.261-.177,0-.1,0-.2,0-.293q0-12.6-.011-25.2c0-.424.1-.657.517-.782a11.992,11.992,0,0,1,1.376-.478c.005.147.016.293.016.439q0,12.934,0,25.868" transform="translate(-30.461 -19.228)" fill="#b9c6e4"/>
        <path id="Trazado_205165" data-name="Trazado 205165" d="M30.991,48.6a23.574,23.574,0,0,0-3.915-4.049A22.949,22.949,0,0,0,16.41,39.912a21.017,21.017,0,0,0-2.423-.294c-.25-.013-.359-.1-.33-.352a2.034,2.034,0,0,0,0-.244q0-12.638-.01-25.276c0-.467.108-.544.565-.489A24.872,24.872,0,0,1,23.987,16.4a19.684,19.684,0,0,1,6.774,6.5A1.289,1.289,0,0,1,31,23.62q-.011,12.37-.006,24.739V48.6" transform="translate(-7.571 -7.345)" fill="#fefefe"/>
        <path id="Trazado_205166" data-name="Trazado 205166" d="M23.87,60.473c-7.274-2.662-14.416-2.864-21.543.3-.012-.217-.028-.369-.028-.521q0-12.661-.01-25.321a.628.628,0,0,1,.44-.688q1.506-.641,3.057-1.151c.423-.139.539-.088.537.391Q6.3,42.034,6.312,50.588c0,.837.068.9.894.992A26.857,26.857,0,0,1,17.22,54.467a21.394,21.394,0,0,1,6.48,5.709c.037.048.062.107.17.3" transform="translate(-1.27 -18.316)" fill="#b9c6e4"/>
        <path id="Trazado_205167" data-name="Trazado 205167" d="M77.4,101.409a28.845,28.845,0,0,0-3.357-.8,46.388,46.388,0,0,0-4.689-.555,46.984,46.984,0,0,0-4.783-.077,35.416,35.416,0,0,0-9.237,1.284c-.329.1-.373.016-.4-.29a.7.7,0,0,1,.585-.867,38.788,38.788,0,0,1,8.327-1.72,28.116,28.116,0,0,1,12.381,1.456c.153.056.305.113.456.174.881.358.88.358.717,1.4" transform="translate(-30.471 -54.493)" fill="#7987b6"/>
        <path id="Trazado_205168" data-name="Trazado 205168" d="M2.285,100.84c-.105-.418.118-.572.467-.711a26.257,26.257,0,0,1,7.269-1.739,34.3,34.3,0,0,1,14.2,1.775.849.849,0,0,1,.427,1.083c-.094.152-.227.079-.347.046a39.161,39.161,0,0,0-4.471-.969,38.033,38.033,0,0,0-8.36-.375,50.07,50.07,0,0,0-8.788,1.4c-.615.151-.342-.291-.4-.508" transform="translate(-1.253 -54.5)" fill="#7987b6"/>
        <path id="Trazado_205169" data-name="Trazado 205169" d="M77.456,95.994c-1.068-.406-2.094-.753-3.14-1.041A29.64,29.64,0,0,0,64.6,94.06a35.83,35.83,0,0,0-9.147,1.8c-.395.131-.512.095-.525-.363a.776.776,0,0,1,.6-.878A32.8,32.8,0,0,1,63.6,92.647a26.262,26.262,0,0,1,9.756.7,25.51,25.51,0,0,1,3.576,1.278c.395.171.614.374.529.826a3.259,3.259,0,0,0,0,.539" transform="translate(-30.469 -51.296)" fill="#7887b6"/>
        <path id="Trazado_205170" data-name="Trazado 205170" d="M13.1,92.446a29.7,29.7,0,0,1,11.064,2.206.865.865,0,0,1,.51,1.168c-.086.248-.243.081-.35.048-1.522-.468-3.053-.893-4.615-1.212a33.8,33.8,0,0,0-8.879-.613,26.433,26.433,0,0,0-8.192,1.816c-.284.113-.337.057-.362-.243a.9.9,0,0,1,.639-1.058,24.792,24.792,0,0,1,7.168-1.928,24.582,24.582,0,0,1,3.017-.184" transform="translate(-1.257 -51.279)" fill="#7887b6"/>
        <path id="Trazado_205171" data-name="Trazado 205171" d="M72.7,44.642a12.56,12.56,0,0,1-4.292-.806,3.273,3.273,0,0,1-1.175-.77,1.611,1.611,0,0,1-.451-1.384q.743-5.513,1.474-11.026c.27-2.031.547-4.062.794-6.1.042-.347.181-.381.47-.354a34.5,34.5,0,0,0,6.34,0c.32-.029.471.031.515.373q.536,4.138,1.094,8.272c.376,2.821.742,5.644,1.134,8.463a1.9,1.9,0,0,1-1.045,2.244,8.82,8.82,0,0,1-3.253.96,10.136,10.136,0,0,1-1.606.125" transform="translate(-37.034 -13.423)" fill="#febd71"/>
        <path id="Trazado_205172" data-name="Trazado 205172" d="M67.26,17.441A33.847,33.847,0,0,1,59,16.456a5.035,5.035,0,0,1-1.583-.62c-.519-.347-.5-.777.079-1.018A31.88,31.88,0,0,1,60.9,13.635a.8.8,0,0,1,.563.083,15.564,15.564,0,0,0,7.8,1,12.545,12.545,0,0,0,3.993-1.04.717.717,0,0,1,.521-.024A32.389,32.389,0,0,1,77.1,14.8c.232.094.449.205.467.5s-.189.442-.4.563a9.677,9.677,0,0,1-3.155.969,35.874,35.874,0,0,1-6.749.608" transform="translate(-31.64 -7.55)" fill="#7aa7e9"/>
        <path id="Trazado_205173" data-name="Trazado 205173" d="M73.363,7.5a14.964,14.964,0,0,1-5.114-.884c-.208-.078-.37-.125-.274-.436a5.687,5.687,0,0,1,8.591-2.961A6.271,6.271,0,0,1,78.73,6.1c.131.324.022.415-.252.517a15.108,15.108,0,0,1-5.116.879" transform="translate(-37.69 -1.238)" fill="#dbe4fe"/>
        <path id="Trazado_205174" data-name="Trazado 205174" d="M27.724,52.2c0,.619.012,1.238,0,1.857s-.4.828-.913.5a12.7,12.7,0,0,0-3.024-1.449.576.576,0,0,1-.446-.614c.006-1.287,0-2.574.006-3.862,0-.484.273-.678.742-.527A12.511,12.511,0,0,1,27.366,49.7a.766.766,0,0,1,.361.7c-.009.6,0,1.205,0,1.808" transform="translate(-12.945 -26.658)"/>
        <path id="Trazado_205175" data-name="Trazado 205175" d="M33.857,37.749a.5.5,0,0,1-.258.5.511.511,0,0,1-.59-.09c-.257-.224-.5-.471-.754-.694a20.271,20.271,0,0,0-8.37-4.614c-.368-.092-.613-.27-.505-.677.113-.428.457-.4.792-.319a20.266,20.266,0,0,1,7.205,3.555,21.492,21.492,0,0,1,2.193,1.864c.152.149.315.291.288.48" transform="translate(-12.954 -17.64)"/>
        <path id="Trazado_205176" data-name="Trazado 205176" d="M23.349,40.863c.006-.4.287-.577.773-.463a15.9,15.9,0,0,1,2.586.857,22.9,22.9,0,0,1,6.9,4.607c.249.238.4.518.136.806s-.586.2-.854-.06c-.047-.045-.092-.092-.14-.136a22.62,22.62,0,0,0-6.032-4.086,15.419,15.419,0,0,0-2.849-.989c-.3-.07-.521-.187-.519-.535" transform="translate(-12.952 -22.391)"/>
        <path id="Trazado_205177" data-name="Trazado 205177" d="M37.834,31.342c-.189.015-.329-.122-.469-.261a18.935,18.935,0,0,0-5.457-3.866c-.318-.147-.528-.362-.367-.725.171-.383.472-.372.817-.211a20.163,20.163,0,0,1,5.768,4.1c.191.192.352.4.217.688a.5.5,0,0,1-.509.276" transform="translate(-17.465 -14.519)"/>
        <path id="Trazado_205178" data-name="Trazado 205178" d="M41.19,58.112a.48.48,0,0,1-.72.433,1.75,1.75,0,0,1-.411-.336,15.729,15.729,0,0,0-3.128-2.467c-.3-.172-.5-.4-.293-.753s.5-.326.829-.132a17.214,17.214,0,0,1,3.522,2.828.6.6,0,0,1,.2.427" transform="translate(-20.277 -30.347)"/>
        <path id="Trazado_205179" data-name="Trazado 205179" d="M41.186,66.576a.5.5,0,0,1-.663.544A1.088,1.088,0,0,1,40.1,66.8a15.913,15.913,0,0,0-3.117-2.481c-.326-.192-.579-.415-.33-.814.229-.367.528-.269.842-.083a17.2,17.2,0,0,1,3.483,2.8.611.611,0,0,1,.208.354" transform="translate(-20.277 -35.089)"/>
        <path id="Trazado_205180" data-name="Trazado 205180" d="M24.845,23.912a.455.455,0,0,1-.495.483c-.6.014-1-.239-.995-.622,0-.338.191-.489.523-.5.558-.011.953.225.966.635" transform="translate(-12.956 -12.911)"/>
        <path id="Trazado_205181" data-name="Trazado 205181" d="M74.371,63.287a10.389,10.389,0,0,1-4.051-.693c-.1-.047-.207-.1-.305-.152-.334-.19-.665-.42-.673-.832s.326-.646.655-.842a6.1,6.1,0,0,1,2.31-.711,12.034,12.034,0,0,1,4.54.177,4.533,4.533,0,0,1,1.615.651.786.786,0,0,1,.013,1.421,5.678,5.678,0,0,1-2.609.846,7.576,7.576,0,0,1-1.494.134" transform="translate(-38.464 -33.239)" fill="#e77b31"/>
        <path id="Trazado_205182" data-name="Trazado 205182" d="M64,16.577c.026-.332.182-.533.513-.54A.533.533,0,1,1,64.56,17.1.519.519,0,0,1,64,16.577" transform="translate(-35.499 -8.895)" fill="#fcfdfe"/>
        <path id="Trazado_205183" data-name="Trazado 205183" d="M79.46,18.91c-.342-.024-.529-.187-.523-.522a.5.5,0,0,1,.543-.548.535.535,0,0,1-.02,1.07" transform="translate(-43.786 -9.896)" fill="#fcfcfe"/>
        <path id="Trazado_205184" data-name="Trazado 205184" d="M94.4,16.014a.536.536,0,1,1-.028,1.071.5.5,0,0,1-.512-.576c.011-.345.231-.468.54-.5" transform="translate(-52.064 -8.883)" fill="#fbfcfe"/>
        <path id="Trazado_205185" data-name="Trazado 205185" d="M72.473,7.142c-.631-.016-.884-.473-.605-.948a3.518,3.518,0,0,1,2.945-1.781.777.777,0,0,1,.83.39c.161.324-.056.538-.231.777a4.31,4.31,0,0,1-2.939,1.563" transform="translate(-39.803 -2.445)" fill="#fefefe"/>
        <path id="Trazado_205186" data-name="Trazado 205186" d="M27.944,54.883a17.715,17.715,0,0,0-2.169-.985c-.185-.063-.163-.22-.164-.366,0-.749.006-1.5,0-2.247,0-.265.049-.352.332-.235a12.677,12.677,0,0,1,1.817.938.334.334,0,0,1,.19.31c-.005.842,0,1.683,0,2.585" transform="translate(-14.205 -28.29)" fill="#b9c6e4"/>
      </g>
    </g>
  </g>
</svg>
