<svg xmlns="http://www.w3.org/2000/svg" xmlns:xlink="http://www.w3.org/1999/xlink" width="505" height="578.201" viewBox="0 0 505 578.201">
  <defs>
    <clipPath id="clip-path">
      <rect id="Rectángulo_338293" data-name="Rectángulo 338293" width="505" height="578.201" transform="translate(180 3659.618)" fill="#fff" stroke="#707070" stroke-width="1"/>
    </clipPath>
    <clipPath id="clip-path-2">
      <rect id="Rectángulo_45065" data-name="Rectángulo 45065" width="285.853" height="576.829" fill="none"/>
    </clipPath>
  </defs>
  <g id="Enmascarar_grupo_422" data-name="Enmascarar grupo 422" transform="translate(-180 -3659.618)" clip-path="url(#clip-path)">
    <g id="Grupo_174271" data-name="Grupo 174271" transform="translate(-212.303 1551.618)">
      <g id="Grupo_174265" data-name="Grupo 174265" transform="translate(367.303 2112.628)">
        <g id="Grupo_174262" data-name="Grupo 174262" transform="translate(0 39.742)">
          <g id="Grupo_174244" data-name="Grupo 174244" transform="translate(0 0)">
            <g id="Grupo_174231" data-name="Grupo 174231" transform="translate(0 247.769)">
              <rect id="Rectángulo_44947" data-name="Rectángulo 44947" width="407.607" height="297.448" transform="translate(0)" fill="#c4d1ff"/>
              <path id="Rectángulo_44948" data-name="Rectángulo 44948" d="M0,0H389.739a139,139,0,0,1,139,139v31.932a0,0,0,0,1,0,0H0a0,0,0,0,1,0,0V0A0,0,0,0,1,0,0Z" transform="translate(0 126.517)" fill="#a6bbff"/>
            </g>
            <g id="Grupo_174535" data-name="Grupo 174535" transform="translate(129.077)">
              <g id="Grupo_174535-2" data-name="Grupo 174535" clip-path="url(#clip-path-2)">
                <path id="Trazado_180713" data-name="Trazado 180713" d="M205.56,97.061s-34.538,14.088-49.906,76.458c-11.862,48.135-19.468,103.993-.169,124.057,23.822,24.767,81.863,9.349,80.839,2.177S205.56,97.061,205.56,97.061" transform="translate(-143.708 33.443)" fill="#361524"/>
                <path id="Trazado_180714" data-name="Trazado 180714" d="M46.138,93.536s30.738,8.453,45.594,46.362,33.81,103.481,27.151,128.07S92.757,302.292,72.266,297.68,2.734,260.8.1,250.038s46.035-156.5,46.035-156.5" transform="translate(165.598 32.228)" fill="#361524"/>
                <path id="Trazado_180715" data-name="Trazado 180715" d="M34.758,428.929,6.58,100.726l7.429-11.952s34.578,6.147,44.824,32.273C67.05,142,89.434,348.119,97.976,428.929Z" transform="translate(179.029 30.588)" fill="#361524"/>
                <path id="Trazado_180716" data-name="Trazado 180716" d="M33.623,325.636s31.506-53.79,33.81-53.79l157.527,41.88V483.163H143.508l-12.67-89.137L112.77,483.163H30.549Z" transform="translate(19.818 93.666)" fill="#942f51"/>
                <path id="Trazado_180717" data-name="Trazado 180717" d="M90.271,368.893a10.242,10.242,0,0,0,6.393-2.439c4.654-3.766,7.344-11.214,8-22.137a440.972,440.972,0,0,0,0-48.892.769.769,0,0,0-1.534.1,439.049,439.049,0,0,1,0,48.7c-.779,13.048-4.469,18.64-7.429,21.036a8.274,8.274,0,0,1-5.905,2.072.768.768,0,0,0-.23,1.519,5.091,5.091,0,0,0,.709.042" transform="translate(60.969 101.543)" fill="#361524"/>
                <path id="Trazado_180718" data-name="Trazado 180718" d="M100.755,382.23a.769.769,0,0,0,.769-.769V304.62a.769.769,0,0,0-1.538,0v76.841a.769.769,0,0,0,.769.769" transform="translate(49.892 104.694)" fill="#361524"/>
                <path id="Trazado_180719" data-name="Trazado 180719" d="M76.594,19.887c5.287-8.074,16.595-10.439,25.881-9.479C104.309,4.408,111.688.7,117.834.1a21.284,21.284,0,0,1,17.318,6.458,11.568,11.568,0,0,1,4.053-.733c6,0,10.872,4.522,10.872,10.1a9.646,9.646,0,0,1-2.669,6.614c-.078.461,3.767,7.95-3.742,15.526-6.907,5.566-15.712,1.315-21.645-3.451a.648.648,0,0,1-.218-.808c-7.052-3.5-15.415-4.448-22.771-1.276C90.8,36.077,87.988,45.2,81.174,50.468q.978,3.32,1.978,6.631c.308,1.018-2.5,7.025-2.8,6.012-2.174-7.193-5.1-18.891-5.866-26.371-.674-6.6-1.062-12.006,2.112-16.853" transform="translate(36.256 0)" fill="#942f51"/>
                <path id="Trazado_180720" data-name="Trazado 180720" d="M95.481,102.769,114.21,115.7l22.423-12.218-1.121-12.4-1.054-11.755-.363-3.991L103.56,45.326l-.379,2.688L101.3,61.4l-.1.742Z" transform="translate(20.84 15.617)" fill="#ffa6a6"/>
                <path id="Trazado_180721" data-name="Trazado 180721" d="M87.458,71.822a4.658,4.658,0,0,0,.182.511,41.775,41.775,0,0,0,4.352,8.82c6.613,9.927,18.071,12.944,28.623,8.59.676-.28,1.351-.577,2.011-.922,9.2-4.683,13.553-13.405,15.417-23.381,1.565-8.325,1.878-23.28.527-31.986-.016-.182-.05-.363-.082-.545-1.4-8.325-16.373-20-27.519-17.477C99.808,17.94,87.953,26.5,85.2,28.821c-2.291,1.929-4.023,25.342,2.259,43" transform="translate(34.683 5.197)" fill="#ffa6a6"/>
                <path id="Trazado_180722" data-name="Trazado 180722" d="M96.315,66.319c.247.511,4.386,8.672,14.97,13.735a51.013,51.013,0,0,0,10.3,3.792L120.536,72.09a35.655,35.655,0,0,1-14.609-1.451c-6.908-2.341-9.365-4.139-9.612-4.32" transform="translate(34.762 22.851)" fill="#361524"/>
                <path id="Trazado_180723" data-name="Trazado 180723" d="M91.19,40.966a1.685,1.685,0,0,1,.508-.446,1.179,1.179,0,0,1,1.088-.026,1.886,1.886,0,0,1,.873,1.4,5.628,5.628,0,0,1-.74,3.9,1.416,1.416,0,0,1-2.689-.323,3.853,3.853,0,0,1-.093-1.562,7.262,7.262,0,0,1,.628-2.229,3.637,3.637,0,0,1,.425-.717" transform="translate(70.973 13.911)" fill="#361524"/>
                <path id="Trazado_180724" data-name="Trazado 180724" d="M105.078,40.683a1.662,1.662,0,0,1,.516-.437,1.174,1.174,0,0,1,1.088-.007,1.884,1.884,0,0,1,.847,1.416,5.623,5.623,0,0,1-.807,3.888,1.416,1.416,0,0,1-2.682-.37,3.839,3.839,0,0,1-.066-1.564,7.246,7.246,0,0,1,.667-2.217,3.6,3.6,0,0,1,.437-.71" transform="translate(38.529 13.82)" fill="#361524"/>
                <path id="Trazado_180725" data-name="Trazado 180725" d="M97.807,54.5a.76.76,0,0,0,.526-.208,7.789,7.789,0,0,0,2.188-3.41c.28-1.506-1.468-5.653-2.01-6.888a.768.768,0,1,0-1.406.617c1.019,2.325,2.038,5.276,1.905,5.991a6.466,6.466,0,0,1-1.728,2.569.768.768,0,0,0,.526,1.328" transform="translate(54.829 15.001)" fill="#361524"/>
                <path id="Trazado_180726" data-name="Trazado 180726" d="M102.128,36a2.337,2.337,0,0,1,.09-.234,3.353,3.353,0,0,1,1.265-1.366,9.153,9.153,0,0,1,4.358-1.263,11.847,11.847,0,0,1,3.926.255c1.525.4,5.187,2.393,3.214,4.358a4.15,4.15,0,0,1-2.361.938,21.686,21.686,0,0,1-8.7-.262,2.723,2.723,0,0,1-1.589-.865,1.781,1.781,0,0,1-.2-1.562" transform="translate(33.107 11.399)" fill="#942f51"/>
                <path id="Trazado_180727" data-name="Trazado 180727" d="M98.83,37.751a2.715,2.715,0,0,1-1.591.865,21.7,21.7,0,0,1-8.7.264,4.159,4.159,0,0,1-2.361-.939c-1.974-1.964,1.689-3.958,3.213-4.359a11.847,11.847,0,0,1,3.926-.255,9.167,9.167,0,0,1,4.359,1.263,3.349,3.349,0,0,1,1.264,1.366,1.915,1.915,0,0,1-.113,1.8" transform="translate(71.621 11.464)" fill="#942f51"/>
                <path id="Trazado_180728" data-name="Trazado 180728" d="M108.122,58.121c3.415,0,4.7-1.14,4.871-1.3a.768.768,0,0,0-1.062-1.111c-.055.047-1.732,1.419-6.678.627a13.975,13.975,0,0,1-8.141-4.46.768.768,0,0,0-1.2.956,15.377,15.377,0,0,0,9.1,5.021,19.6,19.6,0,0,0,3.113.269" transform="translate(43.898 17.774)" fill="#361524"/>
                <path id="Trazado_180729" data-name="Trazado 180729" d="M87.772,27.094c2.073-2.947,15.333-11.121,26.5-13.627,11.146-2.522,26.755,8.986,28.156,17.313.034.18-.6,5.178-.584,5.359a39.61,39.61,0,0,1-11.086-1.031,29.349,29.349,0,0,1-12.811-7.5,17.267,17.267,0,0,1-8.655.281c-5.078-.957-11.064-2.326-14.048,3.2-2.424,4.485-4.781,42.094-4.881,42.16,0,0-14.42-29.321-2.588-46.149" transform="translate(31.681 4.518)" fill="#942f51"/>
                <path id="Trazado_180730" data-name="Trazado 180730" d="M25.783,95.978s.124,2.044.354,5.686c.032.492.063,1,.093,1.537.062.984.124,2.06.2,3.212.031.492.062,1.015.108,1.537.461,7.408,1.092,17.72,1.814,29.553.046.508.077,1.015.108,1.537.4,6.67.844,13.786,1.291,21.1.046.507.077,1.03.108,1.537.139,2.29.276,4.58.415,6.9.028.507.061,1.014.091,1.537.6,9.882,1.2,19.933,1.768,29.553.046.523.075,1.03.091,1.537.368,6.04.722,11.9,1.045,17.413.016.522.047,1.029.078,1.537.215,3.7.414,7.254.6,10.6.032.523.063,1.03.093,1.537.816,14.524,1.354,25,1.354,27.541,0,.477,0,1.154.015,2.014,0,.461.016.968.016,1.537.03,3.165.108,7.914.215,13.724.015.507.015,1.014.03,1.537.078,4.3.155,9.128.262,14.293,0,.507.015,1.03.031,1.537.153,9.236.354,19.441.553,29.553,0,.523.016,1.03.016,1.537.061,3.365.137,6.731.2,10.021.017.507.017,1.029.032,1.537.122,6.332.246,12.417.354,18,.015.523.015,1.03.031,1.537.323,15.891.553,27.28.553,27.28H194.713l-3.78-27.28-.216-1.537-2.487-18-.217-1.537-1.384-10.021-.214-1.537-4.1-29.553-.215-1.537-1.983-14.293-.214-1.537-1.905-13.724-.216-1.537L173.69,232.3l-.214-1.537L172,220.155l-.216-1.537-2.412-17.413-.124-.875s-.061-.231-.2-.662c-.847-2.859-4.382-14.692-8.839-29.553-.153-.507-.307-1.014-.46-1.537q-.992-3.366-2.059-6.9c-.155-.507-.309-1.015-.461-1.537-2.045-6.869-4.2-14.063-6.3-21.1-.155-.507-.308-1.029-.46-1.537-3.275-10.911-6.41-21.362-8.869-29.553-.153-.522-.308-1.03-.446-1.537-.337-1.121-.659-2.2-.968-3.212-.169-.522-.321-1.03-.461-1.537-1.905-6.317-3.1-10.251-3.166-10.373-.766-1.537-38.483-6.271-38.483-6.271S88.6,90.2,78.9,89.431s-17.81-7.976-17.81-7.976Z" transform="translate(56.473 28.066)" fill="#fff"/>
                <path id="Trazado_180731" data-name="Trazado 180731" d="M65.286,100.017c.032.492.063,1.014.108,1.537H180.457c-.153-.523-.307-1.03-.445-1.537Z" transform="translate(17.615 34.461)" fill="#ffc29e"/>
                <path id="Trazado_180732" data-name="Trazado 180732" d="M58.347,123.14c.046.507.077,1.014.108,1.537H180.926c-.155-.507-.308-1.03-.461-1.537Z" transform="translate(26.476 42.429)" fill="#ffc29e"/>
                <path id="Trazado_180733" data-name="Trazado 180733" d="M51.443,146.252c.031.507.062,1.014.091,1.537H181.384c-.155-.507-.308-1.014-.461-1.537Z" transform="translate(35.301 50.392)" fill="#ffc29e"/>
                <path id="Trazado_180734" data-name="Trazado 180734" d="M44.631,169.375c.046.523.077,1.03.093,1.537H181.871l-.122-.875s-.062-.231-.2-.662Z" transform="translate(43.973 58.359)" fill="#ffc29e"/>
                <path id="Trazado_180735" data-name="Trazado 180735" d="M41.419,192.5c.031.523.062,1.03.093,1.537H181.164l-.215-1.537Z" transform="translate(48.998 66.326)" fill="#ffc29e"/>
                <path id="Trazado_180736" data-name="Trazado 180736" d="M38.218,215.622c0,.461.015.968.015,1.537H180.807l-.215-1.537Z" transform="translate(53.66 74.294)" fill="#ffc29e"/>
                <path id="Trazado_180737" data-name="Trazado 180737" d="M35.007,238.745c0,.507.015,1.03.031,1.537H181.392l-.215-1.537Z" transform="translate(57.392 82.261)" fill="#ffc29e"/>
                <path id="Trazado_180738" data-name="Trazado 180738" d="M31.794,261.868c0,.523.015,1.03.015,1.537H181.914l-.215-1.537Z" transform="translate(61.19 90.228)" fill="#ffc29e"/>
                <path id="Trazado_180739" data-name="Trazado 180739" d="M28.6,284.991c.015.523.015,1.03.032,1.537h153.79l-.215-1.537Z" transform="translate(64.988 98.195)" fill="#ffc29e"/>
                <path id="Trazado_180740" data-name="Trazado 180740" d="M127.9,430.338c4.8-82.51,17.479-295.793,21.192-311.468,4.61-19.466,63.791-34.184,63.791-34.184s.245,56.724,4.855,129.981c3.376,53.644,1.807,161.668.726,215.671Z" transform="translate(-105.891 29.179)" fill="#361524"/>
                <path id="Trazado_180741" data-name="Trazado 180741" d="M178.957,154.254,178.6,154l.122-.091c.079.117.159.233.237.35m-.12-10.037-.688.2q-.077-1.065-.152-2.128.42.964.84,1.925m-.9-2.071h0l.046-.116q-.476-1.406-.951-2.811l5.2-.975c.091.354.183.706.273,1.06l-4.522,2.81c0,.059.009.118.013.178Zm-.3-10.943h0l-.168.207c.035-.044.078-.1.168-.207m-7.671,43.518a1.984,1.984,0,0,1-.065.37,5.723,5.723,0,0,1-.692-.071,1.9,1.9,0,0,1,.066-.366,5.7,5.7,0,0,1,.691.067m8.114-17.6c-.1.6-.284,1.183-.445,1.771l-.776-.194q.212-.934.421-1.865a4.471,4.471,0,0,1,.8.288m-.444-25.914h0c-.038.346-.062.555,0,0m-7.75,18.969a4.632,4.632,0,0,1,.516.565c.031.044-.161.336-.215.325a3.8,3.8,0,0,1-.676-.249c.125-.215.25-.428.375-.641m18.052-6.962,3.129,2.3q-2.822,5.131-5.63,10.232l-2.466-4.91c6.309,1.069,4.531-4.02,4.967-7.625m-5.264,7.5H179.8l.758-1.671,2.114,1.671m.3.121c-.061-.009-.11-.011-.173-.023l-.124-.1h.237l.061.121m11.53-5.249c.89,3.874,3.113,2.684,6.5,1.042-4.169,3.669-5.343,3.482-7.223.407-.45-.738-1.63-1.029-2.536-1.487,1.1-2.311,2.864-1.67,3.255.038m-3.255-.038c-.012.026-.027.04-.04.067l-.139-.1.022-.039c.048.027.106.048.157.074M174.5,136.07q-.123.649-.247,1.3l-.024.031-.526.269c-.016-.1-.031-.208-.047-.312l.579.012c.089-.432.176-.863.265-1.3m.323-1.572.108-.026-.13.14q-.149.73-.3,1.458.137-.714.273-1.429Zm-3.239,29.719-.867-1.428.746-.284.121,1.712m.331.164-.182.082h0l-.129,0c-.005-.082-.011-.163-.017-.243.044.071.087.143.13.215Zm2.123-24.019c-.036-.093.065-.239.1-.36.136,0,.27,0,.4,0-.065.2-.129.4-.195.6-.109-.078-.272-.137-.313-.242m.855,20.147-.844.5q-.173-.345-.346-.691c.215-.133.46-.4.639-.362.214.046.37.354.551.549m3.853-33.579a13.82,13.82,0,0,1-1.055,3.941q-.474-1.263-.947-2.525l-1.748-.081c.686-1.566,1.373-3.136,2.134-4.871.69,1.421,1.6,2.473,1.616,3.536m-3.886,1.328h0l.136.007c-.013.03-.027.059-.039.089l-.273.177c.059-.09.117-.182.176-.273m-1.069.855c.3-.194.6-.389.893-.582q-.282.44-.567.879c-.108-.1-.217-.2-.325-.3m3.841,2.089c.009-.078.017-.159.028-.243.008-.03.02-.059.03-.089.023.059.044.12.067.179l-.125.153m-3.056,44.786c.038.122.075.245.114.366l-.526.051c.019-.126,0-.288.069-.37.055-.066.223-.035.343-.047m2.833-10.689c.052.325.094.594.137.862a2.155,2.155,0,0,1-.545.042.484.484,0,0,1-.061-.386,3.217,3.217,0,0,1,.468-.518m36.526-65.04-3.2,2.892,0,.118c-2.216-4.753,1.509-2.719,3.2-3.01m2.625-2.4.085.083-2.135,2.024a.919.919,0,0,1-.574.29l.446-.4,2.178-1.994m-10.345,11.995.4-.017-.284.315-.113-.3m10.438-12.074-.008.163-.085-.083.093-.079M206.556,125.5l.14-.028a.157.157,0,0,0-.008.027l-.37.046Zm1.665-13.372q-.718-1.148-1.435-2.3l-.176.008.109-.121,2.841.2.183.216-.28-.143-1.242,2.141m1.521,12.744-3.045.6q.25-.774.5-1.549l2.547.949m2.431-3.348-.4-.666,1.831-.631-1.428,1.3m4.589-29.1.164-.128.122-.028,2.982-3.5c.807,2.124,1.272,3.355,1.751,4.615l-5.129,4.4q.137-2.721.272-5.441l-.161.087m-1.2,21.478c-.674.5-1.4.916-2.12,1.351-.221-.316-.442-.631-.663-.947l2.184-1.459a9.286,9.286,0,0,1,.6,1.054m-.925,5.127-.571.706.194-.8c.126.031.251.063.378.1m-3.716,27.9c-.067.269-.16.531-.249.795l-.5-.234c.137-.231.273-.463.415-.69a2.788,2.788,0,0,1,.337.129m3.145-27.194-.086.358-.383.132.277-.251.192-.238m-25.185,52.619-.489.036-.129-1.324.555-.04c.022.442.043.886.063,1.328m-7.14-4.461.848-1,.13-.035-.05.126q-.413.5-.828,1l-1.382,1.214-.479.558c.129-.21.258-.421.386-.631Zm8.144-4.643q-.5-.5-1.006-1.01l.085-.083,1.01.988,1.276,1.191-.032.052-.055.016q-.639-.577-1.277-1.155m-.859-6.3a3.657,3.657,0,0,1-.644.239c-.038.008-.219-.292-.179-.372a3.409,3.409,0,0,1,.463-.608c.122.247.241.495.36.741M185,176.356l-.332-.1.278-.175Zm8.941-12.772c-1.518,1.885-2.306,2.864-3.094,3.844l-1.021-.744q.694-1.146,1.39-2.291c.531-.157,1.1-.325,2.724-.809m-10.5,3.08-.721.2.27-.7.45.5m23.04-4.288c-.327.48-1.031.7-1.574,1.035l-.538-.559,1.979-3.223c.114,1.7.372,2.395.133,2.747M200.4,133.5l2.521.608-.344-.005.235.075c.1.121.239.229.274.366a.692.692,0,0,1-.066.436c-.941.071-1.885.112-2.829.159q.1-.819.208-1.638m-3.234,27.483-.173-.389h.358Zm-.783,13.018-.266.012.128-.268Zm-1-15.825c-.074.052-.253.176-.43.3l-.222.194c.051-.074.1-.148.152-.221l.5-.272m-.854-4.672-.013-.269.286.129Zm-39.593-34.613-.1.067,1.386.89,1.392-.612-1.49.731q-.7-.472-1.4-.947Zm-5.471,19.738-.112.023.063-.1.048-.007Zm3.48-4.9-.182.048-.109-.043,0,0Zm-3.528,4.828-4.725.586-.226-.684,7.019-3.152q-1.035,1.626-2.068,3.25m4.96-4.828h-1.432l1.369-.368Zm-10.1,31.117-.257.031.1-.269Zm7.367-29.781c.017.048.034.1.051.147l-.214.1.108-.168.055-.074m1.007-1.331q-.5.666-1.007,1.331-.355-1.01-.707-2.021l1.714.69m-3.763,23.824a4.3,4.3,0,0,1-.523.488c-.078-.113-.155-.227-.234-.343l.549-.488c.074.118.237.307.208.343m-1.878-7.961a1.168,1.168,0,0,1,.791.828c.028.249-.475.769-.764.785-.307.016-.639-.418-1.092-.753.45-.389.769-.874,1.065-.861m8.18-3.39a.594.594,0,0,1,.129-.281c.035.168.069.337.1.507-.082-.075-.23-.149-.231-.226m-.078-5.65h.028l.21,5.319c-.008.016-.02.032-.031.05-.005-.027-.011-.052-.015-.079-.98-1.4-1.96-2.8-2.908-4.151q-.992,1.442-2,2.9l-.933-.3v-5.669a28.766,28.766,0,0,1,3.983-.71c2.056-.1,3,.663,1.667,2.637m-9.8,35.159c.215-.061.506.149.764.242l-.43.657c-.265-.091-.527-.184-.791-.277.149-.219.262-.567.457-.623m-12.594-7.911,0,0V167.8q-.175-1.142-.352-2.282c.215,0,.432-.007.647-.008q-.145,1.146-.292,2.292v0m5.882-20.186.161.042-.163-.013-.022.516-.008-.518Zm-.438,18.138-.089-.289.16.18c-.483,1.959-.964,3.918-1.79,7.278l-3.724-5.12,5.443-2.049m.335-15.69.081-1.9q.012.988.027,1.975l.187.126-.187-.121-.108-.077h0Zm-5.566,23.078c-.026.109-.159.191-.243.286l-.21-.541.356-.1c.036.12.121.251.1.356m83.286-64.367-.376.177c.066-.184.132-.368.2-.553l.18.375m-66.393,64.695c-.078-.1-.218-.2-.219-.3s.122-.221.219-.374Zm-8.461-.444-.194.1.043-.321Zm.565,4.947c-.133.024-.3.1-.389.054s-.117-.233-.171-.356c.1-.09.2-.182.293-.273l.266.575m1.749-30.711c.23.026.428.346.636.534-.19.186-.422.557-.547.523-.261-.069-.463-.354-.688-.549.2-.183.421-.528.6-.508m-.364,8.081.028-.032.764-.274-.768.319q-.075.954-.148,1.909l.325.069-.329-.011-.04-.067q.071-.94.14-1.878l.028-.034m-3.131-7.328-1.418-.358,1.459.114-.04.243m.332,11.774c-.047.371-.093.741-.141,1.112l-.081.035-.231-.261.247.177.206-1.064m17.243-2.56c-.108.243-.159.605-.346.7-.163.082-.477-.139-.725-.225l.484-.977.586.5m6.27-3.039c-.032.117-.186.2-.285.3-.086-.159-.171-.317-.257-.475l.379-.155c.059.112.187.243.163.332m1.951-23.4.4.237a.509.509,0,0,1-.157-.008c-.1-.028-.167-.149-.247-.229m4.374-7.981,2.3,2.939c-1.237,1.381-2.253,2.513-3.265,3.642v-6.389l.967-.192m-3.969,8.218c.081-.005.164-.016.245-.021-.015.038-.028.074-.042.112-.02,0-.038-.009-.058-.007l-.145-.083m-.637,18.734,1.015,1.5-1.642-.438q.313-.53.627-1.059m-6.41-22.7h4.846c-2.376,3.9-3.558,2.606-4.846,0m7.745,4.108.008.005,2.3-1.573-.089-.113c.028-.032.059-.066.089-.1v.161l4.588,3.267-9.057,2.732c.51-1.351,1.089-2.892,1.67-4.434a.956.956,0,0,1,.495.052m1.295.866c.069-.164.136-.329.2-.495l-1.263-.214,1.06.709m3.48,15.872-3.853-4.432c3.434-.182,3.786,2.015,3.853,4.432m.879,1.107-.869-.824c0-.094-.008-.187-.011-.282.046.052.091.106.137.157l.742.949m-7.2-10.371,3.286-1.125.592,1.353c-1.185.215-2.368.442-3.558.612a4.067,4.067,0,0,1-.32-.839m2.041,18.763a2.866,2.866,0,0,1-.234.3,6.814,6.814,0,0,1-.588-.415,2.334,2.334,0,0,1,.237-.3,6.641,6.641,0,0,1,.585.411m-.8-6.146h0l.017.043q.075.883.151,1.769l-.282-.009.113-1.79-.011-.016.012,0M153.938,156.3l-.347.13.067-.308Zm.43,21.275c.036.079-.063.222-.1.337-.116-.044-.286-.061-.329-.143s.067-.22.109-.335c.113.044.286.061.324.14m-2.755-17.85-.7.074-.121-.4a3.915,3.915,0,0,1,.7-.054c.05,0,.079.247.12.381m7.246-41.04-1.253.551q.579-.286,1.159-.57Zm1.308,40.046c-.07.165-.139.331-.208.5-.1-.065-.254-.116-.272-.2s.086-.211.137-.319l.343.022m-4.53-7.829.2.1-.278-.1-.055-.005.012-.011Zm-.136-.012c-2.814,2.461-3.021,2.435-4.562-.371l4.562.371m1.671,22.567-.289-.122.277-.136Zm-.227-41.006c.167.173.487.371.463.508-.039.223-.305.4-.475.605-.175-.171-.511-.371-.487-.506.039-.221.313-.4.5-.608m3.8,16.141-.266,1.133-2.3-.826q.111-.381.219-.762l2.35.454m-3.878-3.879.347.106-.3.187Zm13.216,15.128c-.038.288.02.739-.133.828a4.246,4.246,0,0,1-1.23.3c.065-.476.031-.963.153-1.007a4.586,4.586,0,0,1,1.21-.117m12.9-62.172,3.017,3.7c-3.738-.838-3.738-.838-3.017-3.7m-17.534,25.637.355-.606q.758.417,1.518.834l-.4.7-1.468-.922m17.755-.539-.1.005c.012-.03.026-.058.038-.086l.1-.012-.032.093m-10.474-1.845-4.3-3.232,2.459-3.582c.606,2.244,1.105,4.094,1.841,6.814m47.99,26.837-1.872,1.453c-.151-.145-.3-.29-.45-.434q.823-.73,1.647-1.458l.675.438M168.29,117.593l.113.129-.34.164c.075-.1.151-.195.227-.293m-6.217,17.99c.257-.1.581-.342.752-.259.192.091.246.473.36.729-.249.1-.58.346-.727.264-.2-.113-.262-.476-.385-.733m4.339-16.9,1.651-.8q-.551.714-1.1,1.429c-.184-.21-.367-.419-.551-.628m-6.549,25.583c-.233-2.331-.434-4.347-.7-7.048l4.62,3.542-3.915,3.507m-11.345-11.036-2.846,1.683q-.46-.817-.921-1.635l3.154-1.268Zm5.415-5.277.061.091,0,.168-.036-.144h0c-.009-.038-.017-.077-.026-.117m-1.268,1.088q.645-.486,1.293-.969.188.887.378,1.776l-.141-.052-1.53-.754m1.53.754.141.052c.027.035.052.071.078.106-.074-.052-.147-.106-.219-.159m14.228-12.106-.019.03-.113-.129.132.1m20.488-7.821c-.269.052-.64-.424-1.09-.756.371-.418.754-1.027.9-.975a4.688,4.688,0,0,1,1.181.889c-.324.3-.616.77-.986.842m-5.95-5.38.262-.834,4.835,1.526-.446,1.366-4.651-2.059m4.145-6.961c.086-.082.164-.219.258-.23s.211.1.319.151l-.258.246-.319-.167m1.671,22.123c.079.122.253.321.225.355a4.424,4.424,0,0,1-.542.495l-.262-.332.579-.518M173.445,122.1l.389,0-.226.335Zm11.9-8.2-1,.307q-.992-2.59-1.986-5.179l1.253-.575q.869,2.725,1.737,5.448m-5.577,8.412,3.692-2.586.686.691q-.5,1.135-1.01,2.271l-3.075.4c-.1-.259-.195-.518-.293-.777m-2.342-2.43a.568.568,0,0,1,.112-.124c-.019.129-.038.26-.058.389-.02-.09-.085-.2-.054-.265m2.022-4.055c.075-.195.444-.276.686-.406q.151.387.305.777l-.715.362c-.1-.249-.346-.551-.276-.733m-1.911,3.931c.012-.086.026-.173.039-.26l.145-.039-.039.137c-.05.052-.094.109-.145.161m1.786-.725-1.6.426q.26-.906.522-1.81l1.08,1.384m-1.1-15.62q.052-.53.1-1.061l2.052.468c-.031.2-.063.4-.094.593Zm-14.359,16.843a40.045,40.045,0,0,1-4.694,3.231c1.136-2.065,1.85-3.563,2.775-4.918.278-.409,1.146-.418,1.741-.609.082.789.527,1.975.178,2.3M220.536,133.8c.032.519.063,1.037.1,1.556l-.588.07q-.147-.783-.3-1.565l.788-.061m-70.989-8.092,1.116.952L148.5,128.2l1.043-2.491m14.411-11.273c.1-3.621,1.107-4.044,6.994-2.416l-6.994,2.416m-15.684,14.024c-.008-.027-.016-.051-.026-.078l.255-.182c-.044.1-.087.208-.132.313-.032-.019-.066-.036-.1-.054m15.614-14-1.985.567h.1l-5.064.964c1.837-2.007,3.618-3.773,5.314-5.333l-.145.586-.122.016q.958,1.6,1.919,3.192l.048-.017,0,.091Zm13.018-.311c.056.793-1.4,1.694-2.3,2.688-1.05-3.3-1.855-5.823-2.657-8.34,3.308.4,4.742,2.666,4.953,5.653m-23.34,9.868A3.69,3.69,0,0,0,152,121.853c.2-.264.409-.518.613-.773.766.8,1.544,1.607,2.393,2.491-.652.2-1.429.475-1.44.448m-19.54,30.1c.28-.715.565-1.413.85-2.11.7.691.735,1.847.1,3.464q-.476-.678-.953-1.354m1.038,1.663-.129-.179c.019-.047.027-.085.044-.13l.022.031Zm4.406-13.9.031.012-.077.077c.015-.03.03-.059.046-.089m6.649-11.718q.7-1.081,1.392-2.116l.764.41.367,1.154-2.522.553m-4.175,7.015a11.038,11.038,0,0,1,.11,7.5c-.649-1.28-1.323-2.606-2.006-3.95.627-1.221,1.258-2.4,1.9-3.554M171.953,108.5c-.046-.007-.083-.02-.13-.024l.048-.077.047-.008c.012.036.024.073.035.109M222.7,126.014v.005l-3.333-.272.052-.063-.052.063-.065-.156.182.015,3.216.407m.077,2.539-.575.3c.194-.644.364-1.217.531-1.771.015.487.03.982.044,1.475m-1.424-25.443-.524-.879,1.018-.706c.07.151.191.325.273.481,0,.129,0,.247.007.378a4.442,4.442,0,0,1-.773.726m-3.344,22.341.887-.832c.134.324.27.649.406.973l-1.371-.112-.216.083.161-.087Zm3.579-9.271-.235-.254.339-.062Zm-46.3-14.672c.07-.1.124-.264.214-.289s.241.066.363.108c-.005.121-.012.242-.018.364l-.559-.183M203.972,89.19c.5-.168.995-.332,1.484-.493.171.078.342.156.514.233l-.274.738-1.724-.477m-4.217,1.452c.465-.165.928-.329,1.386-.488q-.256.585-.514,1.172-.436-.343-.873-.684m-9.5,8.542q-.262-.567-.526-1.135c.831-1.487,1.662-2.977,2.583-4.627q1.722-.68,3.426-1.318l5.221.963q.123,1.031.243,2.061c-5.648-3.638-7.985.99-10.947,4.055m21.136-10.822q.292.248.584.5l-.912.46q.165-.48.328-.957M171.871,108.4l-5.19.823,1.413-3.415c.241-.18.465-.34.7-.508l1.791-.292q-.224-.333-.445-.667c1.285-.885,2.411-1.591,3.361-2.146l3.95,4.14-.436,1.362c-2.716-2.907-3.95-1.167-5.143.7m39.039-19-2.452,1.976V87.728l1-.313,1.478,1.97.129-.066c-.017.054-.036.109-.055.164Zm9.025,22.168-.009.071c-.043.13-.086.259-.128.39-.035.109-.067.218-.1.327l.226-.746-.005-.042h.018m-18.149-6.15,1.176,1.15-1.794-.09.617-1.06m-7.289,6.5.184.8a3.727,3.727,0,0,1-.633.046.5.5,0,0,1-.058-.381,2.91,2.91,0,0,1,.507-.461m5.872-11.885c-.028-.026-.055-.051-.082-.078l.242-.241c-.04.117-.079.235-.118.352l-.042-.034m3.071,6.75c.272.206.2.152,0,0m.828,8.849,3.519,2.077-6.092,1.786c1.245-1.87,1.931-2.9,2.574-3.863m-.886-8.893Zm-5.946,2.4c-1.156-1.232-2.106-2.243-3.054-3.254l4.749-.744-4.258-6,2.58-1.4,2.915,2.286c.713.68,1.408,1.343,1.589,1.518-1.691,2.84-3.067,5.151-4.522,7.591m-3.076,6.723c-.007.062-.175.1-.272.157-.058-.1-.114-.2-.172-.3l.3-.159c.055.1.156.207.145.3m-3.1-9.651c-.019-.1.11-.231.176-.348.036.21.071.419.106.629-.1-.093-.261-.173-.282-.281m3.562-7.134c.015.022.031.044.047.066l-.109.059Zm-4.035,12.923,3.585-6.112v-.008l.007.007h0c.972,3.25-1.037,4.831-3.587,6.112m10.611-14.9,1.038.709-1.912,1.9q.436-1.307.874-2.612m1.56,9.47.214.011.206.156-.309-.058-.11-.109M214.1,129.072l-.182-.231c-.017-.036-.036-.073-.054-.108h.085c.05.113.1.226.151.339m2.778-10.45.539-.008q.1.783.208,1.566l-.859-.031q.057-.762.112-1.527m2.738-9.866c.156,1.472.229,2.151.3,2.806l-1.564-.043,1.267-2.763m-3.552,24.755q-.98-2.218-1.963-4.438l3.019,3.849-1.055.589m-5.369-4.775c-.028.034-.056.066-.083.1l.428,1.963-.051.063.051-.063q.089.4.175.8l-.278-.67q-.192-1.1-.381-2.189Zm3.17,0-3.17,0,1.987-2.357q.591,1.178,1.183,2.354M205.45,131l-.126-.093-.083-.106.21.2m1.125-33.024c-.031-.328.366-.7.769-1.37a5.938,5.938,0,0,1,.518,1.437c.009.238-.3.488-.463.734-.293-.266-.8-.511-.824-.8M205.24,130.8l.083.106-.321-.168Zm14.91-43.47c-.09.017-.2-.093-.368-.177l.623-.066c-.083.086-.157.226-.254.243M208.015,107.8c-.082-.113-.253-.3-.233-.327a5.047,5.047,0,0,1,.534-.48c.082.113.164.226.247.339-.182.157-.364.312-.549.468m6.18-17.637.254-.015-.113.254Zm-29.863,51.7,1.214.777-.421.549c-.182-.3-.362-.606-.793-1.326m11.513-21.042c-1.431,2.868-3.646,2.537-6.02,1.569,1.663-1.816,3.355-3.529,6.02-1.569m-6.02,1.569-.034.036-.164.008c.017-.032.036-.066.054-.1.048.02.1.036.144.055m-8.1,7.226c.1.243.2.485.3.73l-.73.343c-.1-.249-.331-.547-.259-.729s.446-.234.687-.344m1.107,4.757c.083-.046.241.044.366.075l-.153.367c-.12-.032-.241-.065-.362-.1.047-.122.062-.3.149-.347m5.216-2.482-2.408.323-3.936-5.117c.5-1.459.995-2.891,1.487-4.321l6.432-.34c-1.588,2.978-3.55,5.9-1.576,9.456m7.248,5.464a6.826,6.826,0,0,1,.4-1.2l1,.432c-.186.383-.371.769-.555,1.152-.368-.164-.862-.319-.85-.389m-12.443,7.212.241.221c-.027.065-.052.125-.078.184.011-.044.022-.086.034-.133l-.265.194.069-.465m7.187-6.856c.382-1.382.7-2.526,1.015-3.663l.956.008c.143,1.558,1.783,3.94-1.971,3.655m-1.807-5.845h0c.005.031.012.063.017.1l-.152.04c-.023-.038-.03-.074-.051-.112Zm2.142-2.123q.323.676.644,1.353l-1.443-.636.8-.717m.644,1.353.176.078-.1.085q.428.867.856,1.733l.067-.024h0c0,.363.007.726.009,1.089h-.019l0-.026c-.017-.333-.034-.667-.051-1l-.9.9-2.409.5-.052-.009.094-.077q-.22-1.192-.438-2.383l2.821-.754-.052-.112m.036,2.953h-.112l.113-.113.032-.007c-.011.04-.023.082-.034.122m-8.039,10.923-.087.206.087-.206c-.069.276-.117.467,0,0m17.423-19.073c.015.227-.249.471-.391.707l-.774-.789.651-.522c.19.208.5.4.515.6m-.995,4.031.222.781h-1.724l1.5-.781m-1.933,1.111.2-.329h.235l-.222.116Zm-.824-14.716.422-.7c.175.172.527.4.493.508a4.165,4.165,0,0,1-.545.916c-.122-.239-.245-.479-.371-.723m2.959,25.417q-.4-.74-.792-1.479c.258-.1.692-.355.746-.289a11.64,11.64,0,0,1,.867,1.339q-.411.214-.822.429m.511-21.233-1.331.059c-.012-.157-.024-.315-.035-.472h1.343c.008.138.015.276.023.413M187.23,138.551c.078.184-.475.9-.619.862a8.369,8.369,0,0,1-1.738-.929c.752-.46,1.14-.881,1.392-.811a1.676,1.676,0,0,1,.965.878M190.614,140c-.038.184-.077.368-.114.553l-.348-.167c.019-.121,0-.3.067-.348.1-.065.261-.03.4-.038m2.618-12.093c-.219-.157-.645-.371-.621-.46a4.984,4.984,0,0,1,.531-1.023l.787.507q-.349.488-.7.976m-5.156,6.419.524.089c-.132.106-.262.214-.393.32-.043-.136-.087-.272-.132-.409m10.844-22.761.011.319-.344-.149Z" transform="translate(-114.886 30.005)" fill="#612e45"/>
                <path id="Trazado_180742" data-name="Trazado 180742" d="M127.09,74.8a.769.769,0,0,0,.453-1.39l-19.807-13a.768.768,0,1,0-.9,1.242l19.807,13a.773.773,0,0,0,.452.147" transform="translate(14.779 20.762)" fill="#361524"/>
                <path id="Trazado_180743" data-name="Trazado 180743" d="M7.063,252.509h.05a65.767,65.767,0,0,0,26.995-8.951c12.923-8.012,15.356-17.2,15.452-17.583a.768.768,0,0,0-.557-.932.779.779,0,0,0-.933.555c-.023.09-2.419,9-14.773,16.654a64.115,64.115,0,0,1-26.283,8.722.769.769,0,0,0,.05,1.535" transform="translate(227.807 77.533)" fill="#361524"/>
                <path id="Trazado_180744" data-name="Trazado 180744" d="M85.671,74.578c3.418,3.981,13.809,12.4,13.809,12.4s-1.074,1.845-2.336,4.6c-.156.344-.312.709-.479,1.084a52.475,52.475,0,0,0-2.387,6.691c-.114.449-.23.886-.333,1.334-.75,3.262-1.011,6.587-.136,9.316,2.742,8.588,20.936,17.29,20.936,17.29l21.759-20.76s-.792-7.95-2.385-15.246c-1.053-4.762-2.319-8.611-2.548-15.548-.211-6.384-.545-12.623-2.475-13.573-2.28-1.123-4.82-1.237-6.123,7.435-.53,3.533-1.339,11.9-3.09,14.048s-10.473-2.6-15.349-4.835S89.089,66.793,86.38,67.263s-4.126,3.345-.709,7.316" transform="translate(36.857 21.233)" fill="#ffa6a6"/>
                <path id="Trazado_180745" data-name="Trazado 180745" d="M121.114,83.29a.521.521,0,0,0,.339-.917l-9.778-8.39a.521.521,0,1,0-.679.791l9.779,8.391a.521.521,0,0,0,.339.125" transform="translate(15.221 25.448)" fill="#361524"/>
                <path id="Trazado_180746" data-name="Trazado 180746" d="M109.324,84.985l4.4,5.9a.527.527,0,0,0,.417.208.5.5,0,0,0,.312-.1.516.516,0,0,0,.1-.729L109.8,83.9c-.157.344-.313.709-.48,1.084" transform="translate(24.198 28.909)" fill="#361524"/>
                <path id="Trazado_180747" data-name="Trazado 180747" d="M111.911,91.017l3.637,5.076a.547.547,0,0,0,.428.218.488.488,0,0,0,.3-.1.517.517,0,0,0,.114-.719l-4.148-5.8c-.114.448-.23.886-.333,1.334" transform="translate(18.891 30.901)" fill="#361524"/>
                <path id="Trazado_180748" data-name="Trazado 180748" d="M8.618,116.74l20.6-24.5s2.584,3.773,6.66,9.8c1.709,2.532,3.688,5.46,5.846,8.67,14.86,22.135,80.517,124.209,85.78,135.818,4.156,9.16,4.777,18.591,2.344,25.763.012.019.023.035.035.055a2.126,2.126,0,0,1,1.144,2.857,12.082,12.082,0,0,1-1.358,8.373c-3.672,7.07-13.334,10.474-20.515,11.513s-39.837.3-39.837.3l-.269-24.616a17.8,17.8,0,0,1,7.913-8.331c-1.237-2.526-11.526-20.962-27.308-51.037C28.977,172.006,8.618,116.74,8.618,116.74" transform="translate(142.985 31.782)" fill="#ffa6a6"/>
                <path id="Trazado_180749" data-name="Trazado 180749" d="M75.223,115.136c.73,2.042,1.981,5.585,3.554,9.983L108.071,108.2c-2.157-3.209-4.137-6.138-5.846-8.67Z" transform="translate(76.641 34.292)" fill="#e95a73"/>
                <path id="Trazado_180750" data-name="Trazado 180750" d="M82.716,110.6a6.947,6.947,0,1,1,6.947,6.947,6.947,6.947,0,0,1-6.947-6.947" transform="translate(78.026 35.714)" fill="#fff"/>
                <path id="Trazado_180751" data-name="Trazado 180751" d="M237.83,229.586s-136.49-16.7-147-17.6-34.433.492-39.991,15.082c-4.828,12.676-2.919,32.306,41.814,30.915,58.728-1.823,145.465-3.582,145.465-3.582s8.865-11.355,7.474-12.744-7.765-12.069-7.765-12.069" transform="translate(-25.794 72.967)" fill="#ffa6a6"/>
                <path id="Trazado_180752" data-name="Trazado 180752" d="M39.134,239.659c4.469,0,8.137-1.183,10.919-3.525.647-.545,1.263-1.086,1.855-1.608,3.131-2.752,5.393-4.744,7.949-3.723a.522.522,0,0,0,.386-.969c-3.153-1.253-5.872,1.14-9.023,3.91-.588.518-1.2,1.054-1.838,1.593-2.9,2.438-6.863,3.52-11.78,3.235-2.861-.169-9.745-1.058-11.868-5.647l-.071-.152c-.721-1.544-.947-2.463-.675-2.732a4.686,4.686,0,0,1,2.419-.93c.305-.061.605-.12.887-.19,1.506-.379,2.846-.739,4.1-1.1l.467-.13c4.61-1.289,10.88-3.339,12.1-6.266a2.556,2.556,0,0,0-.149-2.33c-1.73-3.121-7-2.781-9.536-2.617a37.652,37.652,0,0,1-8.058-.239,26.556,26.556,0,0,1-5.236-1.464,19.5,19.5,0,0,0-12.4-.986.521.521,0,0,0,.206,1.022,18.623,18.623,0,0,1,11.843.944,27.428,27.428,0,0,0,5.431,1.514,38.773,38.773,0,0,0,8.284.25c2.138-.136,7.148-.461,8.558,2.08a1.546,1.546,0,0,1,.1,1.424c-.776,1.858-4.62,3.763-11.423,5.663l-.475.133c-1.24.359-2.568.717-4.062,1.093-.265.066-.547.121-.834.176a5.51,5.51,0,0,0-2.953,1.213c-.93.922-.056,2.8.465,3.914l.069.148c2.275,4.916,8.967,6.026,12.753,6.249.542.034,1.073.048,1.593.048" transform="translate(212.961 73.468)" fill="#361524"/>
                <path id="Trazado_180753" data-name="Trazado 180753" d="M92.119,54.3a8.874,8.874,0,1,0-9.139-8.869A9.017,9.017,0,0,0,92.119,54.3m0-16.2a7.338,7.338,0,1,1-7.6,7.335,7.48,7.48,0,0,1,7.6-7.335" transform="translate(73.024 12.598)" fill="#fff"/>
                <path id="Trazado_180754" data-name="Trazado 180754" d="M109.532,54.3a8.874,8.874,0,1,0-9.139-8.869,9.017,9.017,0,0,0,9.139,8.869m0-16.2a7.338,7.338,0,1,1-7.6,7.335,7.48,7.48,0,0,1,7.6-7.335" transform="translate(32.198 12.598)" fill="#fff"/>
                <rect id="Rectángulo_45063" data-name="Rectángulo 45063" width="6.672" height="1.537" transform="translate(150.1 57.263)" fill="#fff"/>
                <rect id="Rectángulo_45064" data-name="Rectángulo 45064" width="13.323" height="1.537" transform="matrix(-0.835, -0.55, 0.55, -0.835, 133.314, 56.257)" fill="#fff"/>
                <path id="Trazado_180755" data-name="Trazado 180755" d="M115.838,45.039c0,5.612,3.352,10.161,7.486,10.161s7.485-4.549,7.485-10.161-3.352-10.161-7.485-10.161-7.486,4.549-7.486,10.161" transform="translate(-0.708 12.017)" fill="#ffa6a6"/>
              </g>
            </g>
          </g>
        </g>
        <g id="Grupo_174263" data-name="Grupo 174263" transform="translate(97.146 0)">
          <g id="Grupo_174251" data-name="Grupo 174251" transform="translate(0 0)">
            <g id="Grupo_174250" data-name="Grupo 174250">
              <path id="Trazado_179216" data-name="Trazado 179216" d="M31.575,150.06l16.083-.986,25.666,30.333-11.588-31.2,12.783-.784c10.437-.64,18.64-8.1,19.011-17.294L95.188,89a154.81,154.81,0,0,0-1.55-28.943L87.645,19.6C85.841,7.424,73.262-1.235,59.379.145l-29.16,2.9C15.3,4.525,3.689,15.109,2.538,28.264L.913,46.835a239.826,239.826,0,0,0,3.4,66.137l4.026,21c1.883,9.821,11.938,16.782,23.24,16.089" transform="translate(3.958 0)" fill="#c4d1ff"/>
              <path id="Trazado_179217" data-name="Trazado 179217" d="M40.033,160.564l16.3-.942L82.334,188.6,70.593,158.8l12.952-.749c10.575-.612,18.886-7.74,19.262-16.52l1.681-39.294a139.546,139.546,0,0,0-1.57-27.648L96.845,35.945C95.017,24.31,82.272,16.038,68.206,17.356L38.66,20.124C23.549,21.54,11.779,31.65,10.613,44.218L8.966,61.957a216.229,216.229,0,0,0,3.441,63.178l4.079,20.059C18.394,154.577,28.582,161.226,40.033,160.564Z" transform="translate(-8.042 -11.44)" fill="none" stroke="#483644" stroke-miterlimit="10" stroke-width="1"/>
            </g>
          </g>
          <path id="Trazado_179218" data-name="Trazado 179218" d="M-9.939.428a6.993,6.993,0,0,1,.273-1.982,4.738,4.738,0,0,1,.818-1.618A3.674,3.674,0,0,1-7.466-4.245a4.6,4.6,0,0,1,1.928-.382,5.347,5.347,0,0,1,1.509.218A3.474,3.474,0,0,1-2.7-3.681a3.8,3.8,0,0,1,.946,1.309,4.836,4.836,0,0,1,.364,2,5.561,5.561,0,0,1-.4,2.182A4.319,4.319,0,0,1-2.883,3.374,4.617,4.617,0,0,1-4.465,4.3,5.565,5.565,0,0,1-6.3,4.611a3.715,3.715,0,0,1-1.837-.4,3.178,3.178,0,0,1-1.109-1,3.663,3.663,0,0,1-.546-1.346A7.5,7.5,0,0,1-9.939.428Zm12.256,0A6.993,6.993,0,0,1,2.59-1.554a4.738,4.738,0,0,1,.818-1.618A3.674,3.674,0,0,1,4.791-4.245a4.6,4.6,0,0,1,1.928-.382,5.347,5.347,0,0,1,1.509.218,3.474,3.474,0,0,1,1.327.727A3.8,3.8,0,0,1,10.5-2.372a4.836,4.836,0,0,1,.364,2,5.561,5.561,0,0,1-.4,2.182A4.319,4.319,0,0,1,9.373,3.374,4.617,4.617,0,0,1,7.791,4.3a5.565,5.565,0,0,1-1.837.309,3.715,3.715,0,0,1-1.837-.4,3.178,3.178,0,0,1-1.109-1,3.663,3.663,0,0,1-.546-1.346A7.5,7.5,0,0,1,2.317.428Zm12.256,0a6.993,6.993,0,0,1,.273-1.982,4.738,4.738,0,0,1,.818-1.618,3.674,3.674,0,0,1,1.382-1.073,4.6,4.6,0,0,1,1.928-.382,5.347,5.347,0,0,1,1.509.218,3.474,3.474,0,0,1,1.327.727,3.8,3.8,0,0,1,.946,1.309,4.836,4.836,0,0,1,.364,2,5.561,5.561,0,0,1-.4,2.182A4.319,4.319,0,0,1,21.63,3.374a4.617,4.617,0,0,1-1.582.927,5.565,5.565,0,0,1-1.837.309,3.715,3.715,0,0,1-1.837-.4,3.178,3.178,0,0,1-1.109-1,3.664,3.664,0,0,1-.546-1.346A7.5,7.5,0,0,1,14.574.428Z" transform="translate(35.91 88.944)" fill="#12263f"/>
        </g>
      </g>
      <rect id="Rectángulo_44964" data-name="Rectángulo 44964" width="12.101" height="590.261" transform="translate(391.505 2108)" fill="#6b8dfc"/>
    </g>
  </g>
</svg>
