<svg xmlns="http://www.w3.org/2000/svg" xmlns:xlink="http://www.w3.org/1999/xlink" width="78" height="78" viewBox="0 0 78 78">
  <defs>
    <clipPath id="clip-path">
      <rect id="Rectángulo_338357" data-name="Rectángulo 338357" width="44.046" height="44.034" fill="none"/>
    </clipPath>
  </defs>
  <g id="Grupo_982644" data-name="Grupo 982644" transform="translate(4521 9611)">
    <circle id="Elipse_4891" data-name="Elipse 4891" cx="39" cy="39" r="39" transform="translate(-4521 -9611)" fill="#6b8dfc"/>
    <g id="Grupo_982643" data-name="Grupo 982643" transform="translate(-4504 -9594)">
      <g id="Grupo_982642" data-name="Grupo 982642" transform="translate(0 0)" clip-path="url(#clip-path)">
        <path id="Trazado_205187" data-name="Trazado 205187" d="M43.855,4.29a3.559,3.559,0,0,0-4.94-1.614,6.951,6.951,0,0,0-1.342,1.193c-.237.236-.417.241-.642,0-.262-.284-.543-.55-.818-.822-.65-.643-1.014-.649-1.67-.006-.706.691-1.4,1.4-2.1,2.092a7.063,7.063,0,0,1-.574.55c0-.3,0-.523,0-.751,0-1.3.006-2.6,0-3.907,0-.648-.137-.848-.626-1.022H.437A.976.976,0,0,0,0,.9Q.012,18.228,0,35.554a1.149,1.149,0,0,0,.361.877Q3.988,40.04,7.6,43.665a1.186,1.186,0,0,0,.918.369c1.448-.013,2.9-.005,4.343-.005H30.707c.665,0,.928-.205.93-.784q.011-4.858,0-9.716a.7.7,0,0,0-.582-.783c-.559.074-.708.248-.709.858,0,2.892-.009,5.784.009,8.676,0,.378-.088.468-.467.467q-10.268-.021-20.537,0c-.4,0-.486-.11-.483-.492.018-2.09,0-4.181.01-6.271a.733.733,0,0,0-.531-.82c-2.235,0-4.471-.006-6.706.006-.289,0-.351-.085-.351-.36q.01-16.591,0-33.183c0-.363.171-.334.414-.334q11.264,0,22.529,0c1.906,0,3.812.007,5.718-.007.309,0,.415.055.411.392-.019,1.762-.008,3.525-.011,5.287,0,.123.049.259-.056.368q-1.508,1.528-3.015,3.055c-.475.48-.553.821-.254,1.141s.7.246,1.173-.23c.689-.688,1.377-1.376,2.175-2.05,0,.63,0,1.26,0,1.89,0,.124-.127.184-.206.263q-4.179,4.182-8.357,8.365a.769.769,0,0,1-.61.226c-1.906-.006-3.813,0-5.719,0-.668,0-.975.2-.988.632s.31.657,1,.658h4.687c-.014.2-.158.259-.25.353q-2.184,2.194-4.378,4.377a2.06,2.06,0,0,0-.485.747c-.5,1.308-1.01,2.61-1.5,3.922a.448.448,0,0,1-.527.354c-.428-.029-.86-.016-1.289,0a.654.654,0,0,0-.711.642.671.671,0,0,0,.68.64c.384.022.771.005,1.191.005-.053.157-.094.275-.132.393a.66.66,0,0,0,.912.876q1.341-.511,2.68-1.029c1.079-.416,2.156-.839,3.239-1.246a2.149,2.149,0,0,0,.781-.509q4.769-4.777,9.543-9.55a3.173,3.173,0,0,0,.288-.394.54.54,0,0,1,.122.484q.006,4.385,0,8.77c0,.612.145.78.71.861.492-.115.585-.476.585-.914,0-3.368,0-6.735-.009-10.1a.9.9,0,0,1,.3-.707q4.875-4.854,9.735-9.722a7.468,7.468,0,0,0,2.381-3.163V5.246a6.306,6.306,0,0,0-.191-.955M2.614,36.455c1.531,0,3.063,0,4.593-.01.29,0,.387.057.384.368-.017,1.63-.008,3.261-.008,4.921L2.329,36.482c.058-.088.184-.027.285-.027M31.847,7.646c1.07-1.073,2.148-2.139,3.209-3.22.189-.192.293-.192.462.007.238.281.689.524.71.808s-.449.538-.708.8c-1.168,1.177-2.345,2.345-3.514,3.522a2.03,2.03,0,0,0-.229.35l-.135-.091c0-.622,0-1.244,0-1.866,0-.152.118-.222.206-.31M14.469,31.9l.661-1.636.86-2.339,1.481,1.392.972,1.049L14.469,31.9M31.53,17.823Q25.766,23.6,20,29.37c-.24.242-.384.307-.617.009a9.992,9.992,0,0,0-.7-.746c-.611-.6-1.221-1.2-1.836-1.8-.1-.1-.136-.169-.014-.271.077-.064.141-.141.212-.213q6.031-6.03,12.055-12.066c.286-.287.434-.267.689.011.531.579,1.1,1.129,1.646,1.69a.339.339,0,0,1,.071.044c.288.3.771.572.809.9.04.346-.49.608-.779.9m10.8-10.838a4.344,4.344,0,0,1-.4.445q-4.142,4.145-8.281,8.293c-.248.249-.391.291-.62,0-.213-.267-.471-.5-.709-.744-.581-.572-1.154-1.153-1.748-1.711-.2-.184-.182-.28,0-.464,1.336-1.318,2.658-2.648,3.985-3.975q2.249-2.248,4.5-4.494a2.107,2.107,0,0,1,3.272,2.646" transform="translate(0 0)"/>
        <path id="Trazado_205188" data-name="Trazado 205188" d="M102.672,28.25s.006-.008.009-.013l-.021.006.012.006" transform="translate(-65.61 -18.046)"/>
        <path id="Trazado_205189" data-name="Trazado 205189" d="M35.145,32.963a2.74,2.74,0,0,1-.023-.558q0-4.128,0-8.255c0-.143.007-.286-.008-.449-.162.042-.235.173-.329.267q-4.594,4.588-9.182,9.183a3.547,3.547,0,0,1-1.279.841c-1.837.694-3.666,1.408-5.5,2.109a1.764,1.764,0,0,1-.5.126c-.571.042-.862-.249-.825-.823.029-.453.029-.454-.431-.458a2.084,2.084,0,0,1-.721-.088.743.743,0,0,1-.536-.743.727.727,0,0,1,.676-.668,7.356,7.356,0,0,1,1.2-.013.628.628,0,0,0,.7-.481c.446-1.195.911-2.383,1.369-3.573a2.975,2.975,0,0,1,.707-1.062q2.032-2.012,4.045-4.042c.106-.106.257-.186.278-.365a.738.738,0,0,0-.461-.056c-1.319,0-2.637,0-3.957,0-.143,0-.287.006-.429-.007a.71.71,0,0,1-.672-.614.74.74,0,0,1,.481-.78,2.256,2.256,0,0,1,.846-.116c1.763,0,3.527-.009,5.29.008a1.27,1.27,0,0,0,.985-.414q3.9-3.918,7.816-7.813a1.263,1.263,0,0,0,.437-1.061c-.027-.337,0-.677-.015-1.11-.635.63-1.2,1.2-1.764,1.761a2.567,2.567,0,0,1-.594.49.781.781,0,0,1-.95-.125.726.726,0,0,1-.027-.948,3.079,3.079,0,0,1,.424-.484q1.247-1.247,2.493-2.493a1.352,1.352,0,0,0,.385-.51,1.1,1.1,0,0,0,.035-.385q0-2.385,0-4.77c0-.5-.073-.57-.575-.57q-13.36,0-26.719,0c-.154.065-.2.206-.2.479q.017,16.33,0,32.659c0,.278.048.422.187.489,1.806.019,3.612-.012,5.419.019.517.2.646.392.649,1.022.007,1.892,0,3.784,0,5.675,0,.906-.044.842.841.842q9.805,0,19.61,0c.773,0,.774,0,.774-.781q0-3.977,0-7.954a2.543,2.543,0,0,1,.048-.684.57.57,0,0,1,.778-.436,3.866,3.866,0,0,1,0-1.772.614.614,0,0,1-.777-.51M19.76,28.635a.567.567,0,0,1-.556.636,11.438,11.438,0,0,1-2.05,0,.575.575,0,0,1-.548-.647.587.587,0,0,1,.6-.6c.341-.014.685,0,1.027,0v0c.3,0,.6-.014.9,0a.592.592,0,0,1,.626.618m5.215-10.4a2.406,2.406,0,0,1-.513.03q-3.459,0-6.918,0-3.415,0-6.832,0a2.768,2.768,0,0,1-.514-.028.627.627,0,0,1-.109-1.19,1.339,1.339,0,0,1,.549-.077q6.94,0,13.88,0a1.387,1.387,0,0,1,.549.072.588.588,0,0,1,.378.652.568.568,0,0,1-.47.539m-9.6-5.145a.727.727,0,0,1,.612-.252c2.22,0,4.44-.006,6.661,0,.476,0,.745.263.741.655s-.27.629-.753.631c-1.117.006-2.235,0-3.351,0s-2.235,0-3.352,0a.646.646,0,0,1-.653-.4.6.6,0,0,1,.1-.643m14.3,3.89a.634.634,0,0,1,.695.654c-.005.379-.262.616-.715.628s-.886,0-1.328,0-.915.01-1.372,0a.641.641,0,1,1-.023-1.279c.914-.022,1.829-.021,2.743,0m-15-8.015a.789.789,0,0,1,.691-.264c.945,0,1.889,0,2.833,0q3.844,0,7.686,0a1.848,1.848,0,0,1,.467.04.63.63,0,0,1-.11,1.239c-.314.022-.63.011-.944.011H20.659q-2.683,0-5.367,0a.68.68,0,0,1-.7-.387.6.6,0,0,1,.083-.644m-4.316,3.882c.915-.021,1.83-.023,2.745,0a.617.617,0,0,1,.632.669.631.631,0,0,1-.689.608c-.443.012-.887,0-1.33,0s-.887.01-1.33,0a.64.64,0,1,1-.029-1.277m.236,9.644c1.175,0,2.35,0,3.526,0q1.74,0,3.482,0a2.23,2.23,0,0,1,.469.039.624.624,0,0,1-.008,1.218,2.075,2.075,0,0,1-.427.031q-3.5,0-7.008,0h-.043c-.573-.007-.888-.237-.884-.647s.318-.641.893-.642m-.082,6.81c-.5,0-.8-.253-.811-.64s.3-.647.835-.651c.745-.006,1.489,0,2.234,0s1.489-.005,2.234,0c.524.005.8.228.8.632s-.268.654-.781.658q-2.255.014-4.51,0m9.356,8.272q-2.62.011-5.241,0c-.492,0-.8-.274-.791-.661s.308-.625.814-.628c.874,0,1.747,0,2.62,0s1.718,0,2.578,0c.505,0,.786.244.78.65-.006.387-.281.636-.76.638m6.238,0q-1.975.018-3.95,0a.66.66,0,0,1-.732-.669.651.651,0,0,1,.732-.616c.658-.009,1.317,0,1.974,0s1.317-.006,1.975,0c.452.006.711.237.723.616a.64.64,0,0,1-.723.669" transform="translate(-4.865 -2.5)" fill="#f2f0f0"/>
        <path id="Trazado_205190" data-name="Trazado 205190" d="M35.477,91.116a2.529,2.529,0,0,0-.048.684q0,3.977,0,7.954c0,.781,0,.781-.774.781H15.044c-.885,0-.84.064-.841-.842,0-1.892,0-3.784,0-5.675,0-.63-.132-.82-.649-1.022-1.806-.031-3.612,0-5.418-.019a.828.828,0,0,0,.364.051c1.533-.026,3.066-.012,4.6-.008.152,0,.318-.052.451.076a.733.733,0,0,1,.531.82c-.007,2.091.008,4.181-.01,6.271,0,.381.082.493.483.492q10.268-.019,20.537,0c.379,0,.47-.088.467-.467-.017-2.892-.011-5.784-.009-8.677,0-.61.15-.784.709-.858a.569.569,0,0,0-.778.436" transform="translate(-5.198 -57.936)" fill="#f2f0f0"/>
        <path id="Trazado_205191" data-name="Trazado 205191" d="M35.576,32.531q0-4.385,0-8.77a.539.539,0,0,0-.122-.484,3.173,3.173,0,0,1-.288.394q-4.77,4.777-9.544,9.549a2.149,2.149,0,0,1-.781.509c-1.083.407-2.16.83-3.239,1.246q-1.34.516-2.68,1.029a.66.66,0,0,1-.912-.876c.038-.119.079-.236.132-.393-.42,0-.807.017-1.191,0a.671.671,0,0,1-.68-.64.653.653,0,0,1,.711-.642c.43-.012.861-.025,1.29,0a.448.448,0,0,0,.527-.354c.486-1.312,1-2.614,1.5-3.922a2.065,2.065,0,0,1,.485-.747q2.2-2.182,4.379-4.377c.092-.093.237-.157.25-.353H20.718c-.69,0-1.013-.213-1-.658s.32-.632.988-.633c1.906,0,3.813,0,5.719,0a.769.769,0,0,0,.61-.226q4.171-4.189,8.356-8.365c.079-.079.2-.139.206-.263.007-.63,0-1.26,0-1.89-.8.674-1.487,1.362-2.175,2.05-.476.475-.872.553-1.173.23s-.222-.661.253-1.141q1.509-1.527,3.015-3.056c-.005-1.819-.021-3.638-.006-5.457,0-.385-.09-.507-.5-.506q-13.26.018-26.52,0a.825.825,0,0,0-.319.047q13.36,0,26.72,0c.5,0,.574.072.575.57q0,2.385,0,4.77a1.1,1.1,0,0,1-.034.384,1.352,1.352,0,0,1-.385.51q-1.246,1.248-2.493,2.493a3.131,3.131,0,0,0-.424.484.727.727,0,0,0,.027.948.78.78,0,0,0,.95.125,2.56,2.56,0,0,0,.595-.49c.566-.565,1.129-1.131,1.764-1.761.018.432-.012.773.015,1.11a1.262,1.262,0,0,1-.437,1.061q-3.921,3.893-7.816,7.813a1.272,1.272,0,0,1-.985.414c-1.763-.016-3.527-.006-5.29-.008a2.258,2.258,0,0,0-.847.117.739.739,0,0,0-.481.78.71.71,0,0,0,.672.614c.143.014.286.008.429.008,1.319,0,2.638,0,3.957,0a.743.743,0,0,1,.461.056c-.021.18-.172.259-.278.365q-2.018,2.026-4.046,4.043a2.968,2.968,0,0,0-.707,1.062c-.458,1.191-.923,2.378-1.369,3.573a.629.629,0,0,1-.7.481,7.315,7.315,0,0,0-1.2.013.728.728,0,0,0-.677.668.744.744,0,0,0,.536.743,2.1,2.1,0,0,0,.721.088c.46,0,.46,0,.431.458-.037.575.254.864.825.823a1.754,1.754,0,0,0,.5-.126c1.834-.7,3.663-1.415,5.5-2.109a3.546,3.546,0,0,0,1.279-.841q4.584-4.6,9.182-9.184c.095-.095.167-.226.329-.267a4.434,4.434,0,0,1,.009.449q0,4.128,0,8.256a2.691,2.691,0,0,0,.024.558.613.613,0,0,0,.777.509c-.564-.081-.709-.249-.709-.861" transform="translate(-5.228 -2.42)" fill="#f2f0f0"/>
        <path id="Trazado_205192" data-name="Trazado 205192" d="M5.166,37.171c0-.143,0-.287,0-.43V4.77c0-.514,0-.742.16-.844-.3,0-.61.019-.916.014-.283,0-.428.115-.422.407,0,.143,0,.287,0,.429v31.93c0,.832,0,.82.813.836.165,0,.33,0,.5.005a.474.474,0,0,1-.123-.377" transform="translate(-2.544 -2.509)" fill="#e5e2e1"/>
        <path id="Trazado_205193" data-name="Trazado 205193" d="M10.162,37.4c-1.59,0-3.181-.014-4.771.008a.524.524,0,0,1-.365-.1c-.165,0-.331,0-.5-.005-.812-.016-.813,0-.813-.836q0-15.965,0-31.93c0-.143.006-.287,0-.429-.006-.293.139-.412.422-.407.305,0,.611-.009.916-.014a1.694,1.694,0,0,1,.773-.083H32.094c.573,0,.511-.056.511.5q0,2.535,0,5.071a1.019,1.019,0,0,1-.032.425c.105-.109.056-.245.056-.368,0-1.762-.008-3.525.012-5.287,0-.337-.1-.394-.411-.392-1.906.014-3.812.007-5.718.007q-11.264,0-22.529,0c-.243,0-.414-.029-.414.333q.017,16.592,0,33.183c0,.275.062.362.351.36,2.235-.012,4.471-.007,6.707-.006a1.21,1.21,0,0,0-.468-.031" transform="translate(-2.281 -2.271)" fill="#e5e2e1"/>
        <path id="Trazado_205194" data-name="Trazado 205194" d="M7.414,3.92c-.158.1-.16.331-.16.844V36.736c0,.143,0,.287,0,.429a.474.474,0,0,0,.123.377l.19,0c-.139-.067-.188-.211-.187-.489q.021-16.33,0-32.659c0-.273.049-.414.2-.479H7.572c-.053,0-.105,0-.158,0" transform="translate(-4.636 -2.503)" fill="#e5e2e1"/>
        <path id="Trazado_205195" data-name="Trazado 205195" d="M12.76,97.133c-1.533,0-3.066-.018-4.6.008A.826.826,0,0,1,7.8,97.09l-.19,0a.523.523,0,0,0,.365.1c1.59-.021,3.181-.01,4.771-.007a1.21,1.21,0,0,1,.468.031c-.132-.128-.3-.075-.451-.076" transform="translate(-4.862 -62.049)" fill="#e5e2e1"/>
        <path id="Trazado_205196" data-name="Trazado 205196" d="M35.243,9.266q0-2.535,0-5.071c0-.555.062-.5-.511-.5H8.469a1.687,1.687,0,0,0-.773.083c.053,0,.105,0,.158,0h.017a.827.827,0,0,1,.319-.047q13.26.018,26.52,0c.405,0,.5.121.5.506-.015,1.819,0,3.638.006,5.457a1.013,1.013,0,0,0,.032-.425" transform="translate(-4.919 -2.361)" fill="#e5e2e1"/>
        <path id="Trazado_205197" data-name="Trazado 205197" d="M60.671,41.273a1.431,1.431,0,0,1,.419-.363c-.551-.562-1.115-1.11-1.646-1.69-.255-.278-.4-.3-.689-.011Q52.74,45.254,46.7,51.275c-.071.071-.136.148-.212.213-.121.1-.084.175.014.271.615.6,1.225,1.2,1.837,1.8.127-.114.261-.223.381-.343Q54.7,47.246,60.671,41.273" transform="translate(-29.662 -24.927)" fill="#fec34f"/>
        <path id="Trazado_205198" data-name="Trazado 205198" d="M88.9,18.762c.048-.047.055-.1-.007-.14a.677.677,0,0,1-.784-.371.7.7,0,0,1,.247-.834c.1-.1.2-.207.3-.3.4-.358.74-.315,1.116.138.149.119.051.3.132.512a8.074,8.074,0,0,0,1.047-1.142l-.011-.007a.635.635,0,0,1-.843-.243.686.686,0,0,1,.214-.913c.073-.068.144-.139.212-.212a.707.707,0,0,1,.873-.258.675.675,0,0,1,.345.8,3.374,3.374,0,0,0,1.055-.962c.031-.032-.074-.055-.121-.076a.685.685,0,0,1-.69-.464.728.728,0,0,1,.287-.786c.081-.08.16-.162.241-.241a.68.68,0,0,1,.8-.234.665.665,0,0,1,.4.766c.038.057.087.074.137.023.469-.474.965-.924,1.4-1.431a2.454,2.454,0,0,0,.542-1.908,2.078,2.078,0,0,0-2.834.28q-2.257,2.239-4.5,4.494c-1.327,1.326-2.649,2.657-3.985,3.975-.186.183-.2.279,0,.464.594.559,1.167,1.139,1.748,1.711.947-.828,1.788-1.765,2.69-2.639" transform="translate(-53.886 -6.419)" fill="#fe7882"/>
        <path id="Trazado_205199" data-name="Trazado 205199" d="M64.574,44.331a.333.333,0,0,0-.072-.044.986.986,0,0,1-.314.4q-5.961,5.962-11.926,11.919c-.143.142-.248.366-.511.332a10.069,10.069,0,0,1,.7.746c.232.3.376.232.617-.009Q58.83,51.893,64.6,46.127c.289-.289.819-.552.779-.9-.038-.326-.521-.6-.809-.9" transform="translate(-33.074 -28.304)" fill="#feb257"/>
        <path id="Trazado_205200" data-name="Trazado 205200" d="M52.262,56.606q5.967-5.955,11.926-11.919a.989.989,0,0,0,.315-.4,1.421,1.421,0,0,0-.419.363q-5.976,5.971-11.951,11.944c-.121.121-.254.229-.382.344.263.034.369-.191.511-.333" transform="translate(-33.074 -28.305)" fill="#feb257"/>
        <path id="Trazado_205201" data-name="Trazado 205201" d="M99.125,11.244a1.488,1.488,0,0,1-.076,1.312,6.637,6.637,0,0,1-1.76,2.055.167.167,0,0,1-.263.013c0-.007-.005-.015-.008-.022a2.59,2.59,0,0,1-.906.862.147.147,0,0,1,.054.254,4.845,4.845,0,0,1-.933.915.125.125,0,0,1-.186-.031,5.8,5.8,0,0,1-.745.776s-.006.008-.009.013.013.006.019.011c.063.231-.135.324-.249.458s-.24.245-.362.365c-.377.372-.469.435-.586.138-.075.462-.5.7-.839.992.131.094.058.208-.022.291q-1.21,1.258-2.469,2.469a.214.214,0,0,1-.235.056c.238.246.5.477.709.744.229.288.372.246.62,0q4.129-4.158,8.281-8.293a4.346,4.346,0,0,0,.4-.445,2.073,2.073,0,0,0-.438-2.927" transform="translate(-57.232 -7.186)" fill="#da5e6f"/>
        <path id="Trazado_205202" data-name="Trazado 205202" d="M89.786,36.473Q91.047,35.265,92.256,34c.08-.084.153-.2.022-.291-.014.012-.029.023-.043.036.062.044.055.093.006.14-.9.874-1.743,1.811-2.69,2.639a.213.213,0,0,0,.235-.056" transform="translate(-57.232 -21.547)" fill="#da5e6f"/>
        <path id="Trazado_205203" data-name="Trazado 205203" d="M99.557,29.415c-.08-.215.017-.393-.132-.512a.972.972,0,0,1,0,.34c.117.3.209.235.586-.137.122-.121.25-.236.362-.366s.312-.226.249-.457c-.006-.005-.013-.006-.018-.011a8.078,8.078,0,0,1-1.048,1.142" transform="translate(-63.543 -18.069)" fill="#da5e6f"/>
        <path id="Trazado_205204" data-name="Trazado 205204" d="M105.871,23.068a3.374,3.374,0,0,1-1.055.962c-.011.016-.024.029-.036.045a.125.125,0,0,0,.186.031,4.845,4.845,0,0,0,.933-.915.147.147,0,0,0-.054-.253c-.032.017-.06.039-.095.054.047.02.152.044.121.076" transform="translate(-66.966 -14.66)" fill="#da5e6f"/>
        <path id="Trazado_205205" data-name="Trazado 205205" d="M111.805,13.152c-.43.507-.927.957-1.4,1.431-.05.051-.1.034-.137-.023-.01.015-.021.028-.031.043a.232.232,0,0,0,.008.022.167.167,0,0,0,.262-.013,6.642,6.642,0,0,0,1.76-2.056,1.488,1.488,0,0,0,.076-1.312,2.452,2.452,0,0,1-.542,1.908" transform="translate(-70.455 -7.186)" fill="#da5e6f"/>
        <path id="Trazado_205206" data-name="Trazado 205206" d="M11.716,101.334c0-.312-.093-.371-.383-.368-1.531.014-3.063.005-4.594.01-.1,0-.226-.061-.285.027l5.255,5.252c0-1.66-.009-3.291.008-4.921" transform="translate(-4.125 -64.52)" fill="#d9d4d3"/>
        <path id="Trazado_205207" data-name="Trazado 205207" d="M42.273,81.645a8.11,8.11,0,0,1-1.52.538l-.661,1.636,3.975-1.533-.973-1.05c-.208.266-.536.3-.82.409" transform="translate(-25.622 -51.918)" fill="#fed690"/>
        <path id="Trazado_205208" data-name="Trazado 205208" d="M42.783,77.379c-.282.768-.571,1.553-.86,2.339a16.532,16.532,0,0,1,2.341-.947l-1.481-1.392" transform="translate(-26.793 -49.453)" fill="#fddda6"/>
        <path id="Trazado_205209" data-name="Trazado 205209" d="M44.264,81.236a16.58,16.58,0,0,0-2.341.947,8.14,8.14,0,0,0,1.521-.538c.284-.108.612-.143.82-.409" transform="translate(-26.793 -51.918)" fill="#fddda6"/>
        <path id="Trazado_205210" data-name="Trazado 205210" d="M28.771,40.16a1.388,1.388,0,0,0-.55-.072q-6.94,0-13.879,0a1.329,1.329,0,0,0-.548.077.594.594,0,0,0-.381.614.588.588,0,0,0,.49.575,2.73,2.73,0,0,0,.513.029q3.416,0,6.832,0,3.459,0,6.918,0a2.428,2.428,0,0,0,.513-.03.568.568,0,0,0,.47-.539.588.588,0,0,0-.378-.652" transform="translate(-8.57 -25.62)"/>
        <path id="Trazado_205211" data-name="Trazado 205211" d="M27.543,18.47q2.684-.005,5.368,0h4.637c.315,0,.631.011.944-.011a.63.63,0,0,0,.11-1.239,1.865,1.865,0,0,0-.467-.04q-3.843,0-7.686,0-1.417,0-2.834,0a.788.788,0,0,0-.691.264.6.6,0,0,0-.083.644.678.678,0,0,0,.7.387" transform="translate(-17.116 -10.977)"/>
        <path id="Trazado_205212" data-name="Trazado 205212" d="M14.281,56.672h.043q3.5,0,7.008,0a2.105,2.105,0,0,0,.427-.031.624.624,0,0,0,.008-1.218,2.262,2.262,0,0,0-.469-.039q-1.741,0-3.482,0c-1.175,0-2.35,0-3.525,0-.575,0-.889.233-.893.642s.311.64.884.647" transform="translate(-8.562 -35.394)" fill="#010101"/>
        <path id="Trazado_205213" data-name="Trazado 205213" d="M29.4,29.922q1.676,0,3.352,0c1.117,0,2.235,0,3.352,0,.483,0,.748-.236.753-.631s-.264-.654-.741-.655c-2.22-.008-4.44,0-6.661,0a.727.727,0,0,0-.612.252.6.6,0,0,0-.1.643.646.646,0,0,0,.653.4" transform="translate(-18.335 -18.297)"/>
        <path id="Trazado_205214" data-name="Trazado 205214" d="M30.869,93.6c-.859-.005-1.718,0-2.578,0s-1.747,0-2.62,0c-.506,0-.806.24-.814.628s.3.659.791.661q2.621.01,5.241,0c.479,0,.754-.251.76-.638.006-.405-.274-.646-.78-.65" transform="translate(-15.886 -59.82)"/>
        <path id="Trazado_205215" data-name="Trazado 205215" d="M19.5,71.305c-.005-.4-.276-.627-.8-.632-.745-.007-1.489,0-2.234,0s-1.489,0-2.234,0c-.532,0-.843.253-.835.651s.306.637.811.639q2.255.011,4.51,0c.513,0,.786-.251.781-.658" transform="translate(-8.562 -45.165)" fill="#010101"/>
        <path id="Trazado_205216" data-name="Trazado 205216" d="M50.563,93.6c-.658-.009-1.316,0-1.974,0s-1.317-.006-1.974,0a.651.651,0,0,0-.732.616.66.66,0,0,0,.732.669q1.974.017,3.949,0a.64.64,0,0,0,.723-.669c-.012-.379-.271-.61-.723-.616" transform="translate(-29.323 -59.818)"/>
        <path id="Trazado_205217" data-name="Trazado 205217" d="M59.281,40.766a.623.623,0,0,0,.691.6c.457.014.915,0,1.371,0s.886.01,1.329,0,.709-.249.715-.628a.634.634,0,0,0-.695-.654c-.914-.019-1.829-.021-2.743,0a.623.623,0,0,0-.669.676" transform="translate(-37.886 -25.611)" fill="#010101"/>
        <path id="Trazado_205218" data-name="Trazado 205218" d="M14.082,29.911c.443.013.886,0,1.33,0s.887.009,1.33,0a.631.631,0,0,0,.689-.608.616.616,0,0,0-.632-.669c-.914-.025-1.83-.022-2.745,0a.64.64,0,1,0,.029,1.277" transform="translate(-8.562 -18.289)" fill="#010101"/>
        <path id="Trazado_205219" data-name="Trazado 205219" d="M34.158,70.686v0c-.342,0-.685-.011-1.027,0a.586.586,0,0,0-.6.6.575.575,0,0,0,.548.647,11.471,11.471,0,0,0,2.05,0,.567.567,0,0,0,.557-.636.592.592,0,0,0-.625-.618c-.3-.018-.6,0-.9,0" transform="translate(-20.788 -45.172)" fill="#010101"/>
        <path id="Trazado_205220" data-name="Trazado 205220" d="M106.936,18.54c-.411-.089-.627.208-.854.456-.473.516-.342.908.355,1.093.012,0,.02.01.031.014a7.193,7.193,0,0,1,.931-.863c-.1-.271-.078-.617-.463-.7" transform="translate(-67.619 -11.839)" fill="#010101"/>
        <path id="Trazado_205221" data-name="Trazado 205221" d="M106.219,19.852c-.7-.185-.828-.576-.355-1.093.227-.248.443-.545.854-.456.385.083.368.429.463.7.012-.009.023-.019.036-.028a.664.664,0,0,0-.4-.766.68.68,0,0,0-.8.233c-.082.079-.16.161-.241.241a.727.727,0,0,0-.287.786.685.685,0,0,0,.69.464l.065-.067c-.011,0-.018-.01-.03-.014" transform="translate(-67.4 -11.602)" fill="#010101"/>
        <path id="Trazado_205222" data-name="Trazado 205222" d="M107.647,21.372l.03.013a2.592,2.592,0,0,0,.906-.862l0-.014a7.17,7.17,0,0,0-.931.863" transform="translate(-68.798 -13.107)" fill="#010101"/>
        <path id="Trazado_205223" data-name="Trazado 205223" d="M110.227,20.459l0,.014.032-.043c-.013.009-.024.019-.036.028" transform="translate(-70.446 -13.058)" fill="#010101"/>
        <path id="Trazado_205224" data-name="Trazado 205224" d="M107.467,22.968c.034-.015.062-.037.095-.054l-.03-.013-.065.067" transform="translate(-68.683 -14.636)" fill="#010101"/>
        <path id="Trazado_205225" data-name="Trazado 205225" d="M102,24.7a.162.162,0,0,1-.012-.017c-.053-.119-.035-.255-.079-.376a.506.506,0,0,0-.764-.288,2,2,0,0,0-.418.368.674.674,0,0,0-.248.727c.1.286.353.3.6.325a.367.367,0,0,1,.167.06l.02-.006A1.709,1.709,0,0,1,102,24.7" transform="translate(-64.196 -15.296)" fill="#010000"/>
        <path id="Trazado_205226" data-name="Trazado 205226" d="M100.229,24.87a.674.674,0,0,1,.248-.727,2,2,0,0,1,.418-.368.506.506,0,0,1,.763.288c.044.122.025.257.079.376,0,.007.009.011.012.017.016-.009.03-.021.047-.029a.676.676,0,0,0-.345-.8.708.708,0,0,0-.873.258c-.068.073-.139.144-.213.212a.686.686,0,0,0-.214.912.635.635,0,0,0,.843.244.362.362,0,0,0-.167-.06c-.245-.025-.5-.039-.6-.325" transform="translate(-63.945 -15.058)" fill="#010000"/>
        <path id="Trazado_205227" data-name="Trazado 205227" d="M102.717,26.835h0a5.759,5.759,0,0,0,.745-.776.168.168,0,0,1-.011-.016,1.708,1.708,0,0,0-.734.792" transform="translate(-65.647 -16.644)" fill="#010000"/>
        <path id="Trazado_205228" data-name="Trazado 205228" d="M104.751,25.992l.011.016c.012-.016.024-.029.035-.045-.017.008-.03.02-.047.029" transform="translate(-66.947 -16.593)" fill="#010000"/>
        <path id="Trazado_205229" data-name="Trazado 205229" d="M95.539,29.559a1.667,1.667,0,0,0-.157.146c-.2.215-.471.4-.376.761s.417.385.708.447a.162.162,0,0,1,.049-.093,2.387,2.387,0,0,0,.775-1.019c-.014-.043-.028-.085-.044-.138a.6.6,0,0,0-.956-.105" transform="translate(-60.706 -18.769)" fill="#010000"/>
        <path id="Trazado_205230" data-name="Trazado 205230" d="M95.494,30.663c-.292-.062-.612-.087-.708-.447s.171-.546.376-.761a1.622,1.622,0,0,1,.157-.146.6.6,0,0,1,.956.106c.016.052.03.094.044.137a1.491,1.491,0,0,0,.049-.2c-.375-.453-.718-.5-1.115-.138-.106.095-.2.2-.3.3a.7.7,0,0,0-.246.835.676.676,0,0,0,.784.371.189.189,0,0,1,.006-.059" transform="translate(-60.486 -18.519)" fill="#010000"/>
        <path id="Trazado_205231" data-name="Trazado 205231" d="M97.054,31.588a.163.163,0,0,0-.049.092h0a.362.362,0,0,1,.032.022c.338-.293.764-.531.839-.993-.016-.04-.033-.087-.051-.142a2.388,2.388,0,0,1-.775,1.019" transform="translate(-61.996 -19.537)" fill="#010000"/>
        <path id="Trazado_205232" data-name="Trazado 205232" d="M99.337,30.019a1.426,1.426,0,0,1-.049.2c.018.054.035.1.051.142a.973.973,0,0,0,0-.341" transform="translate(-63.455 -19.185)" fill="#010000"/>
        <path id="Trazado_205233" data-name="Trazado 205233" d="M96.992,33.65a.189.189,0,0,0-.006.059l.043-.036A.3.3,0,0,0,97,33.651h0" transform="translate(-61.983 -21.506)" fill="#010000"/>
      </g>
    </g>
  </g>
</svg>
