<svg xmlns="http://www.w3.org/2000/svg" xmlns:xlink="http://www.w3.org/1999/xlink" width="78" height="78" viewBox="0 0 78 78">
  <defs>
    <clipPath id="clip-path">
      <rect id="Rectángulo_338359" data-name="Rectángulo 338359" width="50.013" height="50.012" fill="none"/>
    </clipPath>
  </defs>
  <g id="Grupo_982650" data-name="Grupo 982650" transform="translate(3901 9556)">
    <circle id="Elipse_4893" data-name="Elipse 4893" cx="39" cy="39" r="39" transform="translate(-3901 -9556)" fill="#6b8dfc"/>
    <g id="Grupo_982649" data-name="Grupo 982649" transform="translate(-3887 -9542)">
      <g id="Grupo_982648" data-name="Grupo 982648" transform="translate(0 0)" clip-path="url(#clip-path)">
        <path id="Trazado_205267" data-name="Trazado 205267" d="M5.9,0H34.5a1.694,1.694,0,0,1,1.511,1.975q0,7.633,0,15.268c0,.146,0,.293,0,.439.01.522.022.544.564.521A12.492,12.492,0,0,1,45.5,20.92c.549.459.617.755.357,1.3-.518.5-.838.526-1.4.077a10.755,10.755,0,0,0-14.305.714,10.667,10.667,0,0,0-.638,14.618,10.491,10.491,0,0,0,5.873,3.512,10.919,10.919,0,0,0,4.356.033,9.959,9.959,0,0,0,4.635-2.142,10.756,10.756,0,0,0,2.317-14.2c-.088-.137-.187-.266-.261-.411a.987.987,0,0,1,.13-1.253.887.887,0,0,1,1.3.319,12.617,12.617,0,0,1,1.89,4.026c.163.579.133,1.182.256,1.764v2.732a9.966,9.966,0,0,1-.954,3.748,12.26,12.26,0,0,1-10.8,7.336c-.57.039-1.137-.005-1.7-.01-.52,0-.536.007-.544.547,0,.325,0,.65,0,.975a1.889,1.889,0,0,1-1.863,1.977c-.664.055-1.332.01-2,.02-.572.009-.614.05-.624.606-.007.358.015.716-.013,1.073a1.732,1.732,0,0,1-1.848,1.729q-13.949.006-27.9,0C.59,50.008,0,49.386,0,48.168Q0,36.292,0,24.416q0-6.291,0-12.583C0,11.16.111,11,.662,10.8a.9.9,0,0,1,.991.9,7.393,7.393,0,0,1,.017.828q0,17.335,0,34.671c0,1.136,0,1.137,1.122,1.137H28.784c.973,0,.973,0,.968-.971,0-.742-.019-.762-.766-.763-3.089,0-6.177,0-9.265,0-.8,0-1.063-.177-1.317-.827.007-.569.187-.769.831-.921,4.434-.017,8.868,0,13.3-.007.39,0,.78-.023,1.169-.021.357,0,.55-.154.537-.527,0-.065,0,.016,0-.049.077-1.511.077-1.511-1.358-2.073a11.087,11.087,0,0,1-1.691-.868,2.41,2.41,0,0,0-1.383-.375q-9.759.013-19.518.005a4.493,4.493,0,0,1-.876-.041.9.9,0,0,1-.805-.943c.025-.467.333-.739.889-.78.227-.017.455-.009.683-.009q8.807,0,17.614,0a1.155,1.155,0,0,0,.643-.087c-.433-.5-.785-1.04-1.228-1.506-.192-.2-.49-.143-.747-.143q-3.074-.005-6.148,0H10.074a3.268,3.268,0,0,1-.729-.041.9.9,0,0,1-.732-.907.872.872,0,0,1,.784-.8,4.925,4.925,0,0,1,.731-.022H25.205c.13,0,.26,0,.391,0,.55-.012.579-.052.4-.551-.433-1.189-.433-1.189-1.685-1.189H10.158a4.009,4.009,0,0,1-.779-.035.877.877,0,0,1-.776-.864.888.888,0,0,1,.839-.857,5.745,5.745,0,0,1,.682-.016h14.15q.268,0,.537,0c.3,0,.46-.119.4-.449a4.33,4.33,0,0,1-.042-.681c-.013-.563-.048-.6-.624-.6q-3.513-.007-7.026,0H10a3.264,3.264,0,0,1-.681-.035.877.877,0,0,1-.717-.814.844.844,0,0,1,.609-.846,2.592,2.592,0,0,1,.871-.076H24.528c.776,0,.776,0,.963-.757.243-.983.243-.983-.764-.983H10.088a4.133,4.133,0,0,1-.731-.028.866.866,0,0,1-.743-.787.891.891,0,0,1,.63-.888,2.751,2.751,0,0,1,.872-.069c5.156,0,10.312-.01,15.468.012a1.177,1.177,0,0,0,1.273-.731,5.1,5.1,0,0,1,.463-.745c.114-.175.07-.269-.144-.275-.13,0-.26,0-.39,0H10.1a4.655,4.655,0,0,1-.78-.029.768.768,0,0,1-.7-.7.858.858,0,0,1,.514-.909,2.238,2.238,0,0,1,.959-.13c5.969,0,11.938-.009,17.907.011a2.472,2.472,0,0,0,1.806-.65,10.152,10.152,0,0,1,3.169-1.888A5.606,5.606,0,0,1,33.7,18.8a.677.677,0,0,0,.549-.783c-.015-1.382-.006-2.764-.006-4.146q0-5.658,0-11.315c0-.179,0-.358-.01-.536a.362.362,0,0,0-.395-.394c-.308-.01-.617-.017-.926-.012-1.838.017-3.676.007-5.514.007q-9.929,0-19.859,0H7.055c-.848,0-.888.044-.894.87,0,.081,0,.163,0,.244V43.722c0,1.105,0,1.106,1.1,1.106q4.416,0,8.831,0c.49,0,.96.039,1.143.613.059.76-.248,1.127-1.018,1.154-.943.033-1.886.01-2.829.01q-3.292,0-6.585,0a2.122,2.122,0,0,1-2.415-2.434q0-19.024,0-38.048c0-.99,0-.991-.978-.991-.374,0-.748-.011-1.122.005-.508.022-.6.1-.607.611-.019.943.007,1.886-.012,2.829-.014.7-.225.953-.856,1.1-.633-.118-.8-.308-.8-.943C0,7.6,0,6.464,0,5.326A1.786,1.786,0,0,1,1.848,3.381c.649-.037,1.3,0,1.951-.013.545-.007.586-.049.595-.58.005-.309-.008-.618.006-.927A1.777,1.777,0,0,1,5.9,0" transform="translate(0 0)"/>
        <path id="Trazado_205268" data-name="Trazado 205268" d="M24.917,47.359a.893.893,0,0,0-.957-.506c-3.171.01-6.342.006-9.513.005-.621,0-.659-.038-.659-.668q0-21.1,0-42.2c0-.385.031-.652.536-.651q13.124.015,26.246.008a1.365,1.365,0,0,1,.145.015c.286.156.248.436.251.69.01.926,0,1.852,0,2.778q0,6.678,0,13.355a1.338,1.338,0,0,1-.159.892,12.558,12.558,0,0,0-3.746,2.413.849.849,0,0,1-.674.185q-9.367,0-18.735,0a2.808,2.808,0,0,0-.582.035.716.716,0,0,0,.066,1.411,4.382,4.382,0,0,0,.535.015H35.538a19.167,19.167,0,0,0-1.165,1.921c-.107.211-.322.109-.484.109q-6.9.009-13.807,0c-.943,0-1.887-.011-2.83.006a.708.708,0,0,0-.753.724c0,.44.286.711.79.732.13.006.26,0,.39,0H28.022c1.756,0,3.513.009,5.269-.007.367,0,.446.072.314.428a3.875,3.875,0,0,0-.272,1.131c-.022.463-.248.49-.62.49q-7.537-.015-15.075-.007a3.7,3.7,0,0,0-.487.01.707.707,0,0,0-.647.773.684.684,0,0,0,.694.676c.145.013.293,0,.439,0,4.993,0,9.985.006,14.978-.01.411,0,.528.1.5.5a4.852,4.852,0,0,0,.065,1.068c.053.356,0,.5-.422.494-3.692-.019-7.383-.011-11.075-.011q-2.122,0-4.245,0c-.619,0-.94.256-.937.734s.327.728.949.729q7.782,0,15.563-.009c.373,0,.535.088.63.462.133.527.354,1.032.552,1.588H17.621a3.947,3.947,0,0,0-.487.008.663.663,0,0,0-.629.632.683.683,0,0,0,.472.763,1.605,1.605,0,0,0,.626.059q8.489,0,16.978-.005a.707.707,0,0,1,.705.37,12.987,12.987,0,0,0,1.331,1.665H17.683a4.77,4.77,0,0,0-.536.014.659.659,0,0,0-.644.668.674.674,0,0,0,.6.757,2.76,2.76,0,0,0,.535.023q10.1,0,20.2,0a1.525,1.525,0,0,1,.952.275,14.491,14.491,0,0,0,1.921,1.041.61.61,0,0,1,.251.6c.01.569.016,1.137,0,1.705-.017.518-.076.565-.61.565q-6.433,0-12.865,0a1.76,1.76,0,0,0-.532.028c-.339.127-.674.257-.676.7-.582.278-1.141.2-1.359-.2" transform="translate(-7.774 -1.884)" fill="#f9f6f7"/>
        <path id="Trazado_205269" data-name="Trazado 205269" d="M74.418,66.849a8.442,8.442,0,0,1-3.379.166,10.872,10.872,0,0,1-.3-21.553,9.419,9.419,0,0,1,3.674.113,9.952,9.952,0,0,1,4.569,3.514,11.212,11.212,0,0,1,2.367,6.051,11.558,11.558,0,0,1-2.477,8.351A11.738,11.738,0,0,1,75.7,66.278a7.664,7.664,0,0,1-1.285.571" transform="translate(-34.651 -25.57)" fill="#6ce699"/>
        <path id="Trazado_205270" data-name="Trazado 205270" d="M17.962,51.922c.2.3.514.172.785.193.19.014.382,0,.574,0,.2.644.361.767,1.046.767,3.3,0,6.6.007,9.9-.009.379,0,.514.089.475.476a7.154,7.154,0,0,0,0,1.072c.019.369-.113.56-.5.524-.081-.007-.162,0-.244,0H3.067c-.733,0-.734,0-.734-.73V18.409c0-.783-.186-1-.879-1.045a3.755,3.755,0,0,0,.1-1.35c.632-.153.779-.333.78-.97,0-1.024.013-2.048-.006-3.072-.007-.406.153-.551.548-.542.731.017,1.463.013,2.194,0,.233,0,.328.067.3.3a3.748,3.748,0,0,0,0,.39V50.691c0,1.543.649,2.195,2.184,2.195q4.73,0,9.459,0c.727,0,.957-.239.95-.963" transform="translate(-0.82 -6.447)" fill="#e6e1e5"/>
        <path id="Trazado_205271" data-name="Trazado 205271" d="M91.2,67.158a17.7,17.7,0,0,0,2.652-1.7,11.3,11.3,0,0,0,3.971-6.673,11.415,11.415,0,0,0-2.188-9.359,10.978,10.978,0,0,0-3.767-3.167c-.228-.119-.45-.252-.674-.378a9.977,9.977,0,0,1,4.741,2.185.866.866,0,0,0,1.217.075l.9.978a.9.9,0,0,0,0,1.23,10.871,10.871,0,0,1-6.047,16.654,2.191,2.191,0,0,1-.806.152" transform="translate(-51.437 -25.88)" fill="#00d7a1"/>
        <path id="Trazado_205272" data-name="Trazado 205272" d="M75.641,21.088V3.938a.924.924,0,0,0-.1-.565c.357-.005.715-.007,1.072-.017.287-.008.421.127.413.411,0,.1,0,.2,0,.293q0,8.051.007,16.1c0,.337-.052.537-.433.6a6.532,6.532,0,0,0-.965.324" transform="translate(-42.609 -1.892)" fill="#efedef"/>
        <path id="Trazado_205273" data-name="Trazado 205273" d="M43.985,99.387c.172-.14.375-.076.564-.076q6.287-.006,12.575,0c.811,0,.732.084.71-.74a7.539,7.539,0,0,0-.089-2.077c.414.135.826.276,1.242.4a.3.3,0,0,1,.248.348q-.019.853,0,1.706c.007.343-.161.461-.48.451s-.65,0-.975,0l-13.793-.01" transform="translate(-24.808 -54.421)" fill="#efedef"/>
        <path id="Trazado_205274" data-name="Trazado 205274" d="M34.19,13.247q-3.779,0-7.558,0a1.728,1.728,0,0,1-1.916-1.933c0-.715-.005-1.43,0-2.146a1.7,1.7,0,0,1,1.766-1.789q7.679-.007,15.359,0a1.706,1.706,0,0,1,1.777,1.738q.039,1.194,0,2.389a1.71,1.71,0,0,1-1.822,1.74q-3.8.008-7.607,0" transform="translate(-13.939 -4.16)"/>
        <path id="Trazado_205275" data-name="Trazado 205275" d="M31.5,35.442q-5.194,0-10.388,0a2.25,2.25,0,0,1-.532-.037.672.672,0,0,1-.565-.786.664.664,0,0,1,.676-.636c.129-.01.26,0,.39,0H41.96a3.578,3.578,0,0,1,.438.01.671.671,0,0,1,.62.647.687.687,0,0,1-.452.733,1.5,1.5,0,0,1-.624.073H31.5" transform="translate(-11.288 -19.163)"/>
        <path id="Trazado_205276" data-name="Trazado 205276" d="M31.537,27.405H21.05a1.313,1.313,0,0,1-.622-.079.691.691,0,0,1-.412-.755.672.672,0,0,1,.594-.616,2.782,2.782,0,0,1,.487-.013H41.924c.748,0,1.1.234,1.1.725s-.365.739-1.1.739H31.537" transform="translate(-11.285 -14.629)"/>
        <path id="Trazado_205277" data-name="Trazado 205277" d="M31.488,41.981H41.973c.7,0,1.054.251,1.055.729s-.361.734-1.053.734q-10.461,0-20.922,0a1.972,1.972,0,0,1-.531-.048.657.657,0,0,1-.508-.732.646.646,0,0,1,.552-.648,2.94,2.94,0,0,1,.582-.034q5.17,0,10.339,0" transform="translate(-11.288 -23.677)" fill="#010101"/>
        <path id="Trazado_205278" data-name="Trazado 205278" d="M71.035,60.3a2.281,2.281,0,0,1,1.7.711c.5.492,1.006.973,1.478,1.488.255.276.4.286.678.006q2.566-2.607,5.17-5.177a2.343,2.343,0,0,1,3.916.9,2.175,2.175,0,0,1-.5,2.35q-3.65,3.7-7.347,7.346a2.266,2.266,0,0,1-3.144,0q-1.885-1.8-3.691-3.69a2.218,2.218,0,0,1-.421-2.536,2.3,2.3,0,0,1,2.16-1.4" transform="translate(-38.723 -31.93)"/>
        <path id="Trazado_205279" data-name="Trazado 205279" d="M42.874,13.647c-1.023.007-2.047.02-3.07.02-3.705,0-7.411-.007-11.116.011-.483,0-.675-.118-.639-.625a13.689,13.689,0,0,0,0-1.754c-.027-.453.133-.583.582-.582,4.063.015,8.126.008,12.189.01.666,0,1.332.01,2,.015a.468.468,0,0,1,.216.407c.026.72.027,1.441,0,2.16a.436.436,0,0,1-.16.337" transform="translate(-15.817 -6.045)" fill="#6ce699"/>
        <path id="Trazado_205280" data-name="Trazado 205280" d="M61.987,13.655a20.313,20.313,0,0,0-.055-2.9c1.443-.044,1.2-.119,1.223,1.136.007.422-.015.844.006,1.265.02.4-.142.57-.543.528-.209-.022-.421-.017-.631-.024" transform="translate(-34.931 -6.053)" fill="#00d6a0"/>
        <path id="Trazado_205281" data-name="Trazado 205281" d="M84.561,60.888a1.048,1.048,0,0,1-.323.688q-3.535,3.53-7.067,7.063a.886.886,0,0,1-1.408,0q-1.7-1.679-3.378-3.377a.9.9,0,0,1-.075-1.34.913.913,0,0,1,1.34.07c.73.717,1.447,1.448,2.174,2.168a.771.771,0,0,0,1.292-.011q2.847-2.84,5.689-5.684a2.1,2.1,0,0,1,.443-.374.894.894,0,0,1,1.312.8" transform="translate(-40.634 -33.831)" fill="#f9f6f7"/>
      </g>
    </g>
  </g>
</svg>
