<svg xmlns="http://www.w3.org/2000/svg" xmlns:xlink="http://www.w3.org/1999/xlink" width="78" height="78" viewBox="0 0 78 78">
  <defs>
    <clipPath id="clip-path">
      <rect id="Rectángulo_338360" data-name="Rectángulo 338360" width="52.831" height="52.828" fill="none"/>
    </clipPath>
  </defs>
  <g id="Grupo_982657" data-name="Grupo 982657" transform="translate(4836 9083)">
    <circle id="Elipse_4894" data-name="Elipse 4894" cx="39" cy="39" r="39" transform="translate(-4836 -9083)" fill="#6b8dfc"/>
    <g id="Grupo_982656" data-name="Grupo 982656" transform="translate(-4823 -9070)">
      <g id="Grupo_982655" data-name="Grupo 982655" clip-path="url(#clip-path)">
        <path id="Trazado_205282" data-name="Trazado 205282" d="M17.056,12.146c0-1.886,0-3.713,0-5.539a3.239,3.239,0,0,1,3.061-3.431c4.583-.505,9.168-.989,13.751-1.488Q41.458.863,49.045.025a3.289,3.289,0,0,1,3.782,3.491c-.117,2.73-.3,5.457-.457,8.185q-.3,5.182-.6,10.363c-.176,3.029-.338,6.059-.538,9.087A3.217,3.217,0,0,1,48,34.074q-4.819.021-9.637,0a.951.951,0,0,0-.806.375c-1.612,1.866-3.24,3.719-4.867,5.573a2.045,2.045,0,0,1-3.709-1.425c0-1.349-.013-2.7.008-4.047.005-.351-.053-.486-.448-.478-1.348.028-2.7.023-4.046,0-.354-.006-.481.1-.553.45a6.016,6.016,0,0,1-.75,1.863c-.138.231-.117.33.125.47a7.419,7.419,0,0,1,3.907,5.98c.134,1.426.053,2.872.047,4.31A11.679,11.679,0,0,1,27.2,49.32a4.224,4.224,0,0,1-4.159,3.5q-9.4.019-18.8,0a4.236,4.236,0,0,1-4.228-4.24C0,46.891-.016,45.2.023,43.519A7.544,7.544,0,0,1,3.93,36.876c.235-.141.338-.2.171-.5a7.868,7.868,0,0,1-.837-5.653A2.315,2.315,0,0,0,3.117,29.3a14.926,14.926,0,0,1-1.072-9.291,10.647,10.647,0,0,1,10.072-8.07,22.841,22.841,0,0,1,4.938.208" transform="translate(0 0)"/>
        <path id="Trazado_205283" data-name="Trazado 205283" d="M85.853,125.96a2.556,2.556,0,1,1-2.54-2.544,2.569,2.569,0,0,1,2.54,2.544" transform="translate(-51.758 -79.113)"/>
        <path id="Trazado_205284" data-name="Trazado 205284" d="M104.84,125.982a2.556,2.556,0,1,1-2.519-2.565,2.569,2.569,0,0,1,2.519,2.565" transform="translate(-63.929 -79.114)"/>
        <path id="Trazado_205285" data-name="Trazado 205285" d="M121.258,128.527a2.556,2.556,0,1,1,2.569-2.516,2.568,2.568,0,0,1-2.569,2.516" transform="translate(-76.101 -79.113)"/>
        <path id="Trazado_205286" data-name="Trazado 205286" d="M55.661,17.854a10.578,10.578,0,0,0-3.123-2.015.423.423,0,0,1-.289-.48c.008-1.935,0-3.869.007-5.8a1.522,1.522,0,0,1,1.433-1.618C56.544,7.612,59.4,7.306,62.256,7q5.21-.566,10.421-1.128l9.31-1c.247-.027.493-.061.739-.088a1.6,1.6,0,0,1,1.894,1.745c-.1,2.073-.227,4.146-.346,6.218q-.3,5.155-.6,10.31c-.2,3.543-.4,7.086-.614,10.629-.076,1.256-.636,1.749-1.913,1.749-3.337,0-6.674.008-10.01-.01a1.055,1.055,0,0,0-.9.416c-1.751,2.028-3.521,4.04-5.288,6.054-.144.164-.259.422-.551.309s-.22-.373-.22-.6c0-1.9-.015-3.8.01-5.7.005-.411-.113-.489-.5-.485-1.845.022-3.692,0-5.538.018-.365,0-.533-.081-.473-.462a.342.342,0,0,0-.005-.159,5.2,5.2,0,0,1,.47-3.721,12.612,12.612,0,0,0,.815-3.778c.023-.312.107-.439.44-.416.442.03.887,0,1.331.009a1.335,1.335,0,0,0,.908-.241,1,1,0,0,1,1.107-.13,9.173,9.173,0,0,0,3.367.364,3.607,3.607,0,0,1,3.827,2.353c.189.438.422.858.637,1.284a2.386,2.386,0,0,0,3.137,1.32,3.411,3.411,0,0,0,2.389-3.186c.01-.444.023-.889,0-1.331-.02-.334.061-.477.426-.445a3.017,3.017,0,0,0,1-.062,2.526,2.526,0,0,0,1.561-3.857c-.146-.229-.208-.365-.026-.635a2.38,2.38,0,0,0-.014-2.835.4.4,0,0,1,0-.543,2.411,2.411,0,0,0-.011-2.882.359.359,0,0,1-.007-.5,2.4,2.4,0,0,0,.146-2.706,2.5,2.5,0,0,0-2.334-1.311q-5.83,0-11.661,0a8.661,8.661,0,0,0-2.715.449.552.552,0,0,1-.623-.082,1.679,1.679,0,0,0-1.139-.369c-1.083.006-2.165-.005-3.248,0a1.645,1.645,0,0,0-1.8,1.82c0,1.45,0,2.9,0,4.46" transform="translate(-33.493 -3.054)" fill="#e5e8ec"/>
        <path id="Trazado_205287" data-name="Trazado 205287" d="M19.777,37.944a10.413,10.413,0,0,1,5.084.855,9.193,9.193,0,0,1,5.083,9.318,17.932,17.932,0,0,1-1.577,5.647c-.23.476,0,.946.084,1.4a6.763,6.763,0,0,1-.587,4.646c-.238.443-.462.6-.986.415-.867-.3-1.769-.505-2.661-.733a.571.571,0,0,1-.437-.447,1.914,1.914,0,0,1,.631-2.588,5.972,5.972,0,0,0,2.167-4.944c0-1.1.013-2.2-.006-3.3a.941.941,0,0,1,.345-.887c.22-.158.211-.308.03-.521-.886-1.04-.88-1.045-1.839-.086-.263.263-.52.535-.794.787a2.975,2.975,0,0,1-3.1.428,2.463,2.463,0,0,1-1.448-2.347A2.549,2.549,0,0,1,21.047,43.5c.9-.589.871-.583.307-1.5-.268-.433-.455-.459-.892-.182a4.633,4.633,0,0,0-2.354,3.243,1.953,1.953,0,0,0-.022.948c.264.7-.122,1.084-.574,1.49a2.913,2.913,0,0,1-3.95-.188,2.473,2.473,0,0,1,.4-3.623c.1-.076.213-.131.305-.212.257-.225.818-.331.747-.646a4.012,4.012,0,0,0-.754-1.2c-.076-.11-.182-.066-.281-.007A4.8,4.8,0,0,0,11.33,44.9a4.006,4.006,0,0,0,1.256,3.808,1.088,1.088,0,0,1,.37.872,15.538,15.538,0,0,0,.135,3.395,6.677,6.677,0,0,0,2.716,4.12c.281.2.287.371.259.7A1.95,1.95,0,0,1,14.1,59.84a5.884,5.884,0,0,0-1.535.41c-.452.17-.661,0-.869-.373a6.414,6.414,0,0,1-.624-4.635,3.234,3.234,0,0,0-.219-2.192,14.427,14.427,0,0,1-1.315-6.292,9.006,9.006,0,0,1,7.742-8.732c.835-.108,1.665-.048,2.494-.081" transform="translate(-6.116 -24.308)" fill="#656d78"/>
        <path id="Trazado_205288" data-name="Trazado 205288" d="M89.081,28.477q2.981,0,5.961,0c.582,0,.942.27,1.011.735a.856.856,0,0,1-.885.964q-1.064.024-2.129,0c-.288-.007-.39.057-.395.372-.02,1.339-.033,1.338,1.285,1.338.408,0,.816-.01,1.224,0a.85.85,0,1,1,.01,1.7q-1.091.022-2.182,0c-.248-.005-.324.062-.335.322-.06,1.387-.069,1.387,1.288,1.387.408,0,.816-.01,1.224,0a.85.85,0,1,1,0,1.7q-1.091.022-2.182,0c-.255-.006-.319.074-.33.327-.057,1.383-.065,1.382,1.293,1.382.408,0,.817-.01,1.224,0a.85.85,0,1,1-.009,1.7c-.71.013-1.42.019-2.129,0-.308-.01-.383.092-.378.387q.026,1.517,0,3.034a1.723,1.723,0,0,1-1.375,1.671.69.69,0,0,1-.871-.407q-.442-.936-.93-1.85a4.992,4.992,0,0,0-4.646-2.823,10.819,10.819,0,0,1-3.679-.4.528.528,0,0,1-.432-.589q.02-4.976,0-9.954a.514.514,0,0,1,.427-.593,7.884,7.884,0,0,1,2.347-.4q2.794,0,5.589,0" transform="translate(-51.743 -18.254)" fill="#efcfb3"/>
        <path id="Trazado_205289" data-name="Trazado 205289" d="M16.655,106.494c-.55,0-1.1,0-1.651,0a1.582,1.582,0,0,0-1.712,1.676q-.031,1.517,0,3.035c.008.335-.089.417-.414.409-.869-.023-1.74-.027-2.608,0-.347.011-.409-.109-.4-.421.02-.869,0-1.74.013-2.609.005-.286-.056-.391-.372-.4-1.338-.022-1.338-.034-1.338,1.287,0,.6-.012,1.207.006,1.81.008.261-.082.328-.332.325-.923-.013-1.846-.005-2.769-.005-.16,0-.324.027-.314-.227a16.75,16.75,0,0,1,.17-3.605,5.828,5.828,0,0,1,4.115-4.343c1.266-.4,2.559-.707,3.838-1.063a.967.967,0,0,1,.666.067,7.876,7.876,0,0,0,6.256.011,1.1,1.1,0,0,1,.768-.062c1.226.348,2.461.666,3.684,1.023a5.952,5.952,0,0,1,4.359,5.762c.006.674-.014,1.349.008,2.023.01.309-.048.435-.4.424-.869-.028-1.74-.024-2.609,0-.321.008-.426-.067-.416-.406.026-.887,0-1.775.015-2.662.005-.283-.086-.347-.359-.354-1.352-.033-1.352-.042-1.352,1.325,0,.568-.014,1.137.006,1.7.01.288-.055.4-.372.394-.887-.022-1.775-.019-2.662,0-.3.006-.393-.074-.387-.38.019-.958.011-1.917.006-2.875a1.632,1.632,0,0,0-1.849-1.863h-1.6" transform="translate(-3.047 -65.6)" fill="#fbd670"/>
        <path id="Trazado_205290" data-name="Trazado 205290" d="M34,68.034a17.144,17.144,0,0,1-.213,3.686A5.1,5.1,0,0,1,23.77,70.511c-.016-.532.014-1.065-.014-1.6-.018-.332.1-.347.39-.318a4.434,4.434,0,0,0,3.8-1.246c.094-.1.168-.282.368-.084,1.675,1.662,3.583,1.683,5.685.766" transform="translate(-15.227 -43.065)" fill="#efcfb3"/>
        <path id="Trazado_205291" data-name="Trazado 205291" d="M11.741,132.866q3.194,0,6.388,0a1.714,1.714,0,1,1,0,3.407q-5.4,0-10.807,0a2.672,2.672,0,0,1-2.631-3.2c.062-.34.294-.193.448-.194,2.2-.01,4.4-.007,6.6-.007" transform="translate(-2.977 -85.156)" fill="#efcfb3"/>
        <path id="Trazado_205292" data-name="Trazado 205292" d="M69.891,34.423c0,1.845-.01,3.691.008,5.536,0,.351-.092.464-.44.434-.4-.034-.9.115-1.2-.068s-.144-.715-.207-1.092a10.691,10.691,0,0,0-1.375-3.825,1.271,1.271,0,0,1-.2-.695c.008-1.934.016-3.869-.005-5.8,0-.381.1-.475.47-.461.833.031,1.668.037,2.5.007.394-.014.457.129.454.482-.017,1.828-.008,3.655-.008,5.483" transform="translate(-42.611 -18.237)" fill="#fbd670"/>
        <path id="Trazado_205293" data-name="Trazado 205293" d="M50.973,136.276a3.358,3.358,0,0,0-.007-3.379h2.44c1.487,0,2.975.008,4.462-.006.294,0,.381.071.387.377a2.644,2.644,0,0,1-2.953,3.038l-4.143,0a1.867,1.867,0,0,1-.186-.027" transform="translate(-32.671 -85.187)" fill="#efcfb3"/>
        <path id="Trazado_205294" data-name="Trazado 205294" d="M34.846,118.581c.546,0,1.279-.214,1.588.056.356.311.1,1.061.109,1.62s.2,1.278-.079,1.588c-.314.355-1.062.1-1.62.109s-1.278.2-1.588-.079c-.355-.314-.1-1.062-.109-1.62s-.2-1.277.079-1.589c.315-.359,1.063-.064,1.621-.085" transform="translate(-21.198 -75.954)" fill="#a9b1bc"/>
        <path id="Trazado_205295" data-name="Trazado 205295" d="M33.785,96.113a6.812,6.812,0,0,1-2.033-.35c-.116-.041-.34-.031-.3-.229.082-.433.2-.861.312-1.287.055-.2.2-.074.3-.048a6.89,6.89,0,0,0,3.469,0c.069-.018.178-.075.2-.051.321.361.271.848.42,1.269.093.261-.123.289-.282.345a6.984,6.984,0,0,1-2.086.351" transform="translate(-20.157 -60.345)" fill="#eecfb3"/>
        <path id="Trazado_205296" data-name="Trazado 205296" d="M86.34,129.866a.851.851,0,1,1,.851-.837.864.864,0,0,1-.851.837" transform="translate(-54.802 -82.157)" fill="#fb806c"/>
        <path id="Trazado_205297" data-name="Trazado 205297" d="M105.369,128.163a.852.852,0,1,1-.891.8.867.867,0,0,1,.891-.8" transform="translate(-66.972 -82.156)" fill="#fb806c"/>
        <path id="Trazado_205298" data-name="Trazado 205298" d="M124.33,129.866a.851.851,0,1,1,.837-.852.865.865,0,0,1-.837.852" transform="translate(-79.145 -82.157)" fill="#fb806c"/>
        <path id="Trazado_205299" data-name="Trazado 205299" d="M32.158,80.356a3.619,3.619,0,0,1-3.041-1.786c-.165-.267-.23-.467.154-.576a1.76,1.76,0,0,0,.284-.141,2.484,2.484,0,0,1,.762-.355c.321-.03.349.378.538.568a1.887,1.887,0,0,0,2.943-.279c.206-.317.361-.369.652-.168a3.1,3.1,0,0,0,.378.191c.813.409.818.413.26,1.127a3.625,3.625,0,0,1-2.931,1.419" transform="translate(-18.581 -49.678)"/>
      </g>
    </g>
  </g>
</svg>
