<svg xmlns="http://www.w3.org/2000/svg" xmlns:xlink="http://www.w3.org/1999/xlink" width="296.37" height="305.262" viewBox="0 0 296.37 305.262">
  <defs>
    <clipPath id="clip-path">
      <rect id="Rectángulo_47377" data-name="Rectángulo 47377" width="244.505" height="271.5" rx="10" fill="#a6bbff"/>
    </clipPath>
    <clipPath id="clip-path-2">
      <rect id="Rectángulo_47376" data-name="Rectángulo 47376" width="296.37" height="284.247" fill="none"/>
    </clipPath>
  </defs>
  <g id="Grupo_982476" data-name="Grupo 982476" transform="translate(-1020 -7373)">
    <path id="Trazado_204543" data-name="Trazado 204543" d="M10,0H234.505c5.523,0,10,3.982,10,8.894V262.606c0,4.912-4.477,8.894-10,8.894H10c-5.523,0-10-3.982-10-8.894V8.894C0,3.982,4.477,0,10,0Z" transform="translate(1045.932 7373)" fill="#ffbfc1"/>
    <g id="Enmascarar_grupo_334" data-name="Enmascarar grupo 334" transform="translate(1045.932 7373)" clip-path="url(#clip-path)">
      <path id="Unión_18" data-name="Unión 18" d="M162.324,170.3c-14.817,17.589-38.118,28.036-64.938,26.569C49.618,194.255,8.779,154.839,6.17,108.825s34-81.2,81.769-78.585c28.383,1.552,54.317,16.1,71.24,37.3,17.4-30.444,51.728-49.649,92.379-47.426,35.231,1.927,67.51,19.524,89.146,45.369,12.43-27.054,40.944-44.613,75.2-42.74,47.768,2.612,88.607,42.029,91.216,88.042s-34,81.2-81.769,78.585a98.218,98.218,0,0,1-60.357-25.7c-11.426,42.722-51.669,72.03-101.366,69.312C220.991,230.651,182.68,205.371,162.324,170.3Z" transform="matrix(0.809, -0.588, 0.588, 0.809, -135.12, 245.3)" fill="#fc5f65"/>
    </g>
    <g id="Grupo_176392" data-name="Grupo 176392" transform="translate(1020.001 7394.015)">
      <g id="Grupo_176393" data-name="Grupo 176393" transform="translate(0 0)">
        <g id="Grupo_176392-2" data-name="Grupo 176392" clip-path="url(#clip-path-2)">
          <path id="Trazado_189326" data-name="Trazado 189326" d="M365.18,520.234s3.536.115,5.313,1.5-5.333,4.235-5.333,4.235Z" transform="translate(-295.693 -421.268)" fill="#ef8e4d"/>
          <path id="Trazado_189327" data-name="Trazado 189327" d="M1056.422,1227.256l-6.071,6.765,1.327,4.6,4.972.9s3.317-2.782,3.373-5.126-3.6-7.139-3.6-7.139" transform="translate(-850.537 -993.79)" fill="#ef8e4d"/>
          <path id="Trazado_189328" data-name="Trazado 189328" d="M332.476,501.734s7.981-5.736,7.812-18.217c-.082-6.057,11.2-13.333,11.2-13.333l11.788-2.371,1.219,14.159L352.907,506.5l-4.242,6.784L335.7,519.234Z" transform="translate(-269.227 -378.819)" fill="#ef8e4d"/>
          <path id="Trazado_189329" data-name="Trazado 189329" d="M452.3,532.005l1.845,12.862-6.788-.87-.843-4.572-4.324,2.747-5.1-3.452,8.815-10.19Z" transform="translate(-353.941 -427.986)" fill="#ff1300"/>
          <path id="Trazado_189330" data-name="Trazado 189330" d="M575.188,366.582c4.961,1.67,7.174,7.082,4.943,12.087s-8.062,7.708-13.024,6.038-7.175-7.082-4.943-12.087,8.063-7.708,13.024-6.038" transform="translate(-454.516 -296.446)" fill="#ff1300"/>
          <path id="Trazado_189331" data-name="Trazado 189331" d="M514.66,438.267c4.615,2.146,10.481.634,13.1-3.377s1-9-3.613-11.148-10.481-.634-13.1,3.377-1,9,3.613,11.149" transform="translate(-412.812 -342.342)" fill="#ff1300"/>
          <path id="Trazado_189332" data-name="Trazado 189332" d="M478.647,515.205l9.476,3.929-.355.621c-.89,1.558-3.219,2.155-5.2,1.333l-2.3-.952c-1.983-.822-2.868-2.752-1.978-4.31Z" transform="translate(-387.023 -417.196)" fill="#ff1300"/>
          <path id="Trazado_189333" data-name="Trazado 189333" d="M484.116,488.947c4.1,1.9,8.975,1.062,10.9-1.882s.161-6.874-3.935-8.779-8.975-1.062-10.9,1.882-.161,6.874,3.935,8.779" transform="translate(-388.203 -386.476)" fill="#ff1300"/>
          <path id="Trazado_189334" data-name="Trazado 189334" d="M1098.34,384.267l15.346-4.484.5,6.842-5.412,1.778,4.368,3.672-3.054,5.721-14.535-6.533Z" transform="translate(-887.143 -307.536)" fill="#ff1300"/>
          <path id="Trazado_189335" data-name="Trazado 189335" d="M864.172,292.964c.9-5.216,7.025-8.513,13.679-7.363s11.317,6.31,10.416,11.526-7.026,8.513-13.68,7.363-11.317-6.31-10.416-11.526" transform="translate(-699.686 -231.085)" fill="#ff1300"/>
          <path id="Trazado_189336" data-name="Trazado 189336" d="M966.925,340.183c1.565-4.975-1.645-10.417-7.17-12.154s-11.271.888-12.836,5.863,1.646,10.417,7.17,12.154,11.271-.888,12.836-5.863" transform="translate(-766.461 -265.193)" fill="#ff1300"/>
          <path id="Trazado_189337" data-name="Trazado 189337" d="M1079.632,401.609l2.627-10.116a4.831,4.831,0,0,1,3.462,5.89l-.2.764a4.831,4.831,0,0,1-5.89,3.462Z" transform="translate(-874.247 -317.018)" fill="#3690d1"/>
          <path id="Trazado_189338" data-name="Trazado 189338" d="M1038.894,372.409c1.389-4.415-.773-9.028-4.827-10.3s-8.467,1.271-9.856,5.686.773,9.028,4.828,10.3,8.467-1.271,9.855-5.686" transform="translate(-829.029 -292.955)" fill="#ff1300"/>
          <path id="Trazado_189339" data-name="Trazado 189339" d="M644,997.428l-4.252-16.051L620.821,982.8l-62,5.916-3.364,12.819Z" transform="translate(-449.79 -794.685)"/>
          <path id="Trazado_189340" data-name="Trazado 189340" d="M716,467.008l-37.979,3.7.935,9.3,23.7-1.572,7.817-3.271Z" transform="translate(-549.036 -378.167)"/>
          <rect id="Rectángulo_47375" data-name="Rectángulo 47375" width="22.677" height="68.032" transform="translate(135.855 73.544)" fill="#ef8e4d"/>
          <path id="Trazado_189341" data-name="Trazado 189341" d="M474.889,476.755l18.685-2.384a55.237,55.237,0,0,1,46.352,16.041l55.633,56.507a42.263,42.263,0,0,1-5.063,63.719c-15.8,11.587-42.394,18.606-71.246,10.987l-7.978-22.714,32.359-25.887-18.746-13.166.893,14.505L392.326,585.3l-.223-31.672L384.5,514.69l13.029-23.022,43.744-11.488-.987-9.3,9.674,5.56-.856,27.921,8.3-27.328,20.875-9.812Z" transform="translate(-311.353 -378.34)" fill="#3c3fa7"/>
          <path id="Trazado_189342" data-name="Trazado 189342" d="M714.143,391.865v12.808c8.415,3.4,17.729-2.516,22.678-6.493v-9.069l-13.542.987Z" transform="translate(-578.288 -315.089)"/>
          <path id="Trazado_189343" data-name="Trazado 189343" d="M564.12,83.015c0-20.42,15.892-36.974,35.495-36.974S635.11,62.595,635.11,83.015s-15.891,36.974-35.495,36.974S564.12,103.435,564.12,83.015" transform="translate(-456.805 -37.283)" fill="#ef8e4d"/>
          <path id="Trazado_189344" data-name="Trazado 189344" d="M917.426,225.4s8.62-8.475,12.8-.261c4.934,9.7-9.276,18.293-13.656,9.686s.856-9.425.856-9.425" transform="translate(-740.791 -179.412)" fill="#ef8e4d"/>
          <path id="Trazado_189345" data-name="Trazado 189345" d="M734.5,254.777a.345.345,0,0,1-.269-.561l2.931-3.638a.345.345,0,0,1,.455-.074l4.9,3.133a.345.345,0,1,1-.372.582l-4.641-2.966-2.737,3.4a.345.345,0,0,1-.269.128" transform="translate(-594.491 -202.805)"/>
          <path id="Trazado_189346" data-name="Trazado 189346" d="M747.514,329.777a.345.345,0,0,1-.033-.689c7.275-.7,13-7.783,13.052-7.855a.345.345,0,0,1,.54.43,26.522,26.522,0,0,1-3.882,3.776,19.06,19.06,0,0,1-9.644,4.337l-.033,0" transform="translate(-605.031 -260.019)"/>
          <path id="Trazado_189347" data-name="Trazado 189347" d="M782.562,147.354a.345.345,0,0,1-.29-.532,9.778,9.778,0,0,1,2.919-2.613,18.815,18.815,0,0,1,10.14-2.561.345.345,0,1,1,0,.69,18.171,18.171,0,0,0-9.736,2.432,9.356,9.356,0,0,0-2.745,2.428.345.345,0,0,1-.29.157" transform="translate(-633.412 -114.702)"/>
          <path id="Trazado_189348" data-name="Trazado 189348" d="M933.05,250.422a.345.345,0,0,1-.3-.512,11.625,11.625,0,0,1,5.7-5.415,7.675,7.675,0,0,1,3.116-.639.345.345,0,0,1-.043.689,7.168,7.168,0,0,0-2.847.6,10.964,10.964,0,0,0-5.318,5.095.344.344,0,0,1-.3.179" transform="translate(-755.272 -197.464)"/>
          <path id="Trazado_189349" data-name="Trazado 189349" d="M943.557,270.763a.344.344,0,0,1-.288-.155l-3.428-5.183a.345.345,0,1,1,.576-.381l3.427,5.183a.345.345,0,0,1-.287.536" transform="translate(-761.003 -214.5)"/>
          <path id="Trazado_189350" data-name="Trazado 189350" d="M801.575,201.152s-.056-21.136,19.858-8.994c0,0-4.234,14.519-19.858,8.994" transform="translate(-649.087 -152.558)" fill="#fff"/>
          <path id="Trazado_189351" data-name="Trazado 189351" d="M802.793,198.486a8.39,8.39,0,0,0,14-9.1c-10.628-3.844-13.322,4.555-14,9.1" transform="translate(-650.073 -152.562)"/>
          <path id="Trazado_189352" data-name="Trazado 189352" d="M603,45.706c-17.035,0-31.267,12.5-34.7,29.176,28.75-.418,41.044-23.472,41.044-23.472,3.988,12.811,22.236,21.1,28.384,23.571-3.4-16.725-17.655-29.275-34.724-29.275" transform="translate(-460.186 -37.012)" fill="#ff1300"/>
          <path id="Trazado_189353" data-name="Trazado 189353" d="M461.968,123.677a23.9,23.9,0,1,1,9.205,32.524,23.9,23.9,0,0,1-9.205-32.524" transform="translate(-371.623 -90.233)" fill="#ce956e"/>
          <path id="Trazado_189354" data-name="Trazado 189354" d="M400.66,400.5l24.131-43.007a1.238,1.238,0,0,1,1.685-.477l4.6,2.572a1.238,1.238,0,0,1,.477,1.685l-24.131,43.007a1.238,1.238,0,0,1-1.685.477l-4.6-2.572a1.238,1.238,0,0,1-.477-1.685" transform="translate(-324.313 -288.973)" fill="#7dbcf5"/>
          <path id="Trazado_189355" data-name="Trazado 189355" d="M525.03,188.481s-10.406-36.591-38.822-5.692c0,0,14.539,23.013,38.822,5.692" transform="translate(-393.714 -137.977)" fill="#fff"/>
          <path id="Trazado_189356" data-name="Trazado 189356" d="M547.721,192.715a15.076,15.076,0,0,0,9.784-8.736c-3.44-7.529-12.275-20.729-28.755-8.792a15.107,15.107,0,0,0,18.971,17.529" transform="translate(-427.916 -137.978)"/>
          <path id="Trazado_189357" data-name="Trazado 189357" d="M472.269,151.189a26.445,26.445,0,1,1,7.22-1.008,26.489,26.489,0,0,1-7.22,1.008m-18.674-36.835h0a21.452,21.452,0,0,0,18.681,31.9,21.534,21.534,0,0,0,5.87-.82,21.436,21.436,0,1,0-24.551-31.083" transform="translate(-361.098 -79.708)" fill="#7dbcf5"/>
          <path id="Trazado_189358" data-name="Trazado 189358" d="M579.137,1160.247l-20.782-78.452-90.739,6.334-18.925,72.118Z" transform="translate(-363.334 -876)" fill="#3690d1"/>
          <path id="Trazado_189359" data-name="Trazado 189359" d="M349.767,508.546l7.046-7.9s7.738-.478,12.373-9.648c2.614-5.172,2.274-10.727,4.54-16.913.733-2,1.486-4.236,2.043-5.883a3.051,3.051,0,0,0-1.421-3.652,4.074,4.074,0,0,0-5.465,1.492c-2.167,3.648-5.867,10.915-6.326,14.423-.258,1.971-3.08,5.45-6.321,9.474-7.862,9.763-20.347,22.44-20.347,22.44Z" transform="translate(-271.99 -375.773)" fill="#ef8e4d"/>
          <path id="Trazado_189360" data-name="Trazado 189360" d="M690.246,1122.421a4.071,4.071,0,1,1,4.071-4.071,4.075,4.075,0,0,1-4.071,4.071m0-7.285a3.214,3.214,0,1,0,3.214,3.214,3.218,3.218,0,0,0-3.214-3.214" transform="translate(-555.64 -902.305)" fill="#fff"/>
          <path id="Trazado_189361" data-name="Trazado 189361" d="M1071.994,583.78a.265.265,0,0,1-.044,0,.3.3,0,0,1-.253-.341c1.8-12.1,7.545-22.819,17.075-31.854a.3.3,0,1,1,.413.435c-9.431,8.941-15.115,19.542-16.895,31.507a.3.3,0,0,1-.3.256" transform="translate(-867.82 -446.585)"/>
          <path id="Trazado_189362" data-name="Trazado 189362" d="M1087.675,868.514a.3.3,0,0,1-.255-.141,78.458,78.458,0,0,1-8.164-20.462.3.3,0,1,1,.582-.144,77.809,77.809,0,0,0,8.091,20.289.3.3,0,0,1-.1.413.3.3,0,0,1-.158.045" transform="translate(-873.936 -686.308)"/>
          <path id="Trazado_189363" data-name="Trazado 189363" d="M697.309,736.568a.3.3,0,0,1-.3-.3c0-15.388.438-38.181,2.526-59.383,1.249-12.688,2.517-18.865,2.53-18.926a.3.3,0,1,1,.587.122c-.012.061-1.275,6.218-2.521,18.88-1.15,11.687-2.521,31.463-2.521,59.307a.3.3,0,0,1-.3.3" transform="translate(-564.413 -532.599)"/>
          <path id="Trazado_189364" data-name="Trazado 189364" d="M435.233,414.307l-4.082-9.877a3.8,3.8,0,1,1,7.032-2.906l4.082,9.876a3.8,3.8,0,0,1-7.032,2.906" transform="translate(-348.897 -323.236)" fill="#ef8e4d"/>
          <path id="Trazado_189365" data-name="Trazado 189365" d="M626.632,1152.978a.426.426,0,0,0-.45-.406l-95.677,4.973-.228.87,95.95-4.987a.428.428,0,0,0,.406-.45" transform="translate(-429.399 -933.312)" fill="#fff"/>
          <path id="Trazado_189366" data-name="Trazado 189366" d="M404.791,456.605l-6.552-11.613a3.809,3.809,0,0,1,1.738-5.338l1.043-.475a3.809,3.809,0,0,1,5.045,1.887l5.509,12.089a3.809,3.809,0,0,1-6.783,3.451" transform="translate(-322.081 -355.354)" fill="#ef8e4d"/>
          <path id="Trazado_189367" data-name="Trazado 189367" d="M437.46,467.552a3.961,3.961,0,0,1-3.448-2.014.149.149,0,1,1,.26-.147,3.66,3.66,0,0,0,6.518-3.316l-5.509-12.089a.149.149,0,0,1,.272-.124l5.509,12.089a3.96,3.96,0,0,1-3.6,5.6" transform="translate(-351.432 -364.213)"/>
          <path id="Trazado_189368" data-name="Trazado 189368" d="M999.7,1141.85a22.166,22.166,0,0,0-1.152-3.895,7.017,7.017,0,0,0-9.262-3.875l-9.681,4.093a2.123,2.123,0,0,0-.974,3.08,3.841,3.841,0,0,0,4.549,1.6l6.7-2.275Z" transform="translate(-792.198 -917.888)" fill="#ef8e4d"/>
          <path id="Trazado_189369" data-name="Trazado 189369" d="M381.587,497.615l-4.784-8.032a3.8,3.8,0,0,1,6.537-3.894l4.784,8.032a3.8,3.8,0,1,1-6.537,3.894" transform="translate(-304.687 -391.79)" fill="#ef8e4d"/>
          <path id="Trazado_189370" data-name="Trazado 189370" d="M406.875,506.9a3.955,3.955,0,0,1-3.4-1.93.149.149,0,1,1,.256-.153,3.655,3.655,0,0,0,6.281-3.741l-4.784-8.032a.149.149,0,1,1,.257-.153l4.784,8.032a3.952,3.952,0,0,1-3.39,5.976" transform="translate(-326.7 -399.064)"/>
          <path id="Trazado_189371" data-name="Trazado 189371" d="M1006.318,1177.218l.842-4.089a4.024,4.024,0,0,0-.022-1.766,6.7,6.7,0,0,0-4.971-4.932l-1.9-.449a8.764,8.764,0,0,0-7.682,1.848l-6.393,5.419c-3.086,2.62.046,5.5,3.379,5.027a6.99,6.99,0,0,0,.993-.213c2.888-.85,7.992-5.16,7.992-5.16Z" transform="translate(-797.559 -943.983)" fill="#ef8e4d"/>
          <path id="Trazado_189372" data-name="Trazado 189372" d="M1024.707,1198.54s.013-5.752-1.416-7.389a6.392,6.392,0,0,0-9.2-.557l-6.993,6.568a2,2,0,0,0,.156,3,3.611,3.611,0,0,0,2.037.79,3.469,3.469,0,0,0,2.385-.782l5.019-4.056Z" transform="translate(-815.019 -962.728)" fill="#ef8e4d"/>
          <path id="Trazado_189373" data-name="Trazado 189373" d="M1041.4,1219.657c-1.606-3.187-5.192-4.021-7.538-2.065l-6.262,5.218a2.192,2.192,0,0,0-.1,2.943,3.2,3.2,0,0,0,1.618,1.1,2.387,2.387,0,0,0,2.025-.364l3.084-2.406c4.333-3.028,3.052-.737,5.616,4.516,0,0,3.62-4.852,1.557-8.946" transform="translate(-831.615 -985.115)" fill="#ef8e4d"/>
          <path id="Trazado_189374" data-name="Trazado 189374" d="M1217.816,946.013a.3.3,0,0,1-.219-.505,63.7,63.7,0,0,1,10.173-8.286,66.652,66.652,0,0,1,11.522-6.179,54,54,0,0,1,14.775-3.836.3.3,0,0,1,.064.6,53.422,53.422,0,0,0-14.6,3.791,66,66,0,0,0-11.413,6.118,64.173,64.173,0,0,0-10.083,8.206.3.3,0,0,1-.219.095" transform="translate(-985.901 -750.819)"/>
          <path id="Trazado_189375" data-name="Trazado 189375" d="M1220.845,952.667a.312.312,0,0,1-.085-.012.3.3,0,0,1-.2-.372l3.973-13.533a.3.3,0,1,1,.575.169l-3.973,13.533a.3.3,0,0,1-.288.215" transform="translate(-988.354 -759.992)"/>
          <path id="Trazado_189376" data-name="Trazado 189376" d="M63.843,637.371l-8.391,7.285s-11.155-6.43-35.157,15.88A116.453,116.453,0,0,0,5.762,677.661a30.822,30.822,0,0,0,5.633,41.871,26.743,26.743,0,0,0,28.046,3.526l48.395-22.3-2.562-52.323s-17.078,5.639-21.43-11.068" transform="translate(0 -516.121)" fill="#3c3fa7"/>
          <path id="Trazado_189377" data-name="Trazado 189377" d="M245.24,760.85a.3.3,0,0,1-.21-.514c.038-.036,3.808-3.727,8.333-8.686,4.172-4.572,9.856-11.186,13.246-16.737a30.639,30.639,0,0,0,4.012-10.219,28.565,28.565,0,0,0,.327-8.563,25.306,25.306,0,0,0-2.2-8.092.3.3,0,0,1,.032-.327l9.271-11.576a.3.3,0,1,1,.468.375l-9.151,11.427a26.156,26.156,0,0,1,2.177,8.1,29.154,29.154,0,0,1-.327,8.753,31.223,31.223,0,0,1-4.092,10.436c-3.415,5.592-9.126,12.24-13.317,16.832-4.536,4.971-8.317,8.671-8.355,8.708a.3.3,0,0,1-.21.086" transform="translate(-198.344 -563.616)"/>
          <path id="Trazado_189378" data-name="Trazado 189378" d="M690.7,653.3l-5.845,9.457a1.635,1.635,0,0,0,1.384,2.5l7.093.033a1.636,1.636,0,0,0,1.629-1.849l-1.248-9.49a1.635,1.635,0,0,0-3.013-.647" transform="translate(-554.374 -528.393)" fill="#7dbcf5"/>
          <path id="Trazado_189379" data-name="Trazado 189379" d="M743.187,10.549a.341.341,0,0,1-.062-.006A21.885,21.885,0,0,1,739.31,9.42c-2.7-1.077-4.405-2.45-5.062-4.08-.632-1.567-.261-3.314,1.1-5.193a.345.345,0,0,1,.559.4c-1.212,1.673-1.555,3.2-1.019,4.53,1.406,3.492,8.289,4.771,8.359,4.783a.345.345,0,0,1-.06.685" transform="translate(-594.326 -0.003)" fill="#ff1300"/>
          <path id="Trazado_189380" data-name="Trazado 189380" d="M641.733,1171.748h.038a.428.428,0,0,0,.426-.391l5.7-65.178-.865.06-5.692,65.044a.429.429,0,0,0,.39.464" transform="translate(-519.336 -895.746)" fill="#fff"/>
          <path id="Trazado_189381" data-name="Trazado 189381" d="M726.9,1145.653a.429.429,0,0,0,.464-.39l3.882-44.362-.866.061-3.87,44.226a.429.429,0,0,0,.39.464" transform="translate(-588.302 -891.472)" fill="#fff"/>
          <path id="Trazado_189382" data-name="Trazado 189382" d="M460.4,459.6c.68,1.646,2.244,2.562,3.494,2.046s1.71-2.269,1.03-3.915-2.244-2.562-3.494-2.045-1.71,2.269-1.03,3.915" transform="translate(-372.565 -368.885)"/>
          <path id="Trazado_189383" data-name="Trazado 189383" d="M438.951,510.073a2.864,2.864,0,1,0,1.394-4.066,3.051,3.051,0,0,0-1.394,4.066" transform="translate(-355.224 -409.592)"/>
          <path id="Trazado_189384" data-name="Trazado 189384" d="M412.73,532.947c.68,1.646,2.247,2.561,3.5,2.043s1.715-2.271,1.035-3.917-2.247-2.561-3.5-2.043-1.715,2.271-1.035,3.917" transform="translate(-333.961 -428.273)"/>
          <path id="Trazado_189385" data-name="Trazado 189385" d="M353.073,530.667l-4.758-5.055a3.21,3.21,0,1,1,4.675-4.4l4.758,5.055a3.21,3.21,0,0,1-4.675,4.4" transform="translate(-281.346 -421.241)" fill="#ef8e4d"/>
          <path id="Trazado_189386" data-name="Trazado 189386" d="M379.452,553.3c.965,1.218,2.5,1.609,3.425.875s.894-2.317-.071-3.534-2.5-1.609-3.425-.875-.894,2.317.071,3.534" transform="translate(-306.663 -444.881)"/>
          <path id="Trazado_189387" data-name="Trazado 189387" d="M378.39,535.488h-.1a3.336,3.336,0,0,1-2.344-1.055.149.149,0,1,1,.217-.2,3.06,3.06,0,1,0,4.457-4.2l-4.758-5.055a.149.149,0,1,1,.217-.2l4.758,5.055a3.359,3.359,0,0,1-2.443,5.661" transform="translate(-304.323 -424.904)"/>
          <path id="Trazado_189388" data-name="Trazado 189388" d="M978.048,1157.68c.34.958,1.8,1.315,3.261.8s2.368-1.716,2.028-2.674-1.8-1.315-3.261-.8-2.369,1.716-2.028,2.674" transform="translate(-791.931 -935.091)"/>
          <path id="Trazado_189389" data-name="Trazado 189389" d="M987.1,1203.2c.7,1.058,2.469,1.12,3.959.139s2.133-2.635,1.436-3.692-2.47-1.12-3.959-.139-2.132,2.635-1.436,3.693" transform="translate(-799.087 -970.754)"/>
          <path id="Trazado_189390" data-name="Trazado 189390" d="M1008.4,1228.193c.684.848,2.266.705,3.534-.318s1.742-2.54,1.057-3.388-2.266-.705-3.534.318-1.741,2.54-1.057,3.388" transform="translate(-816.312 -991.1)"/>
          <path id="Trazado_189391" data-name="Trazado 189391" d="M1028.43,1246.789c.639.792,2.117.66,3.3-.3s1.627-2.373.988-3.164-2.117-.659-3.3.3-1.627,2.372-.988,3.164" transform="translate(-832.549 -1006.386)"/>
          <path id="Trazado_189392" data-name="Trazado 189392" d="M1026.942,1225.318a.134.134,0,0,1-.1-.05,2.337,2.337,0,0,1,.118-3.131l6.261-5.218a4.63,4.63,0,0,1,3.927-.979,5.632,5.632,0,0,1,3.819,3.087.135.135,0,1,1-.241.122,5.363,5.363,0,0,0-3.632-2.944,4.307,4.307,0,0,0-3.7.922l-6.261,5.218a2.057,2.057,0,0,0-.082,2.754.135.135,0,0,1-.1.22" transform="translate(-831.058 -984.546)"/>
          <path id="Trazado_189393" data-name="Trazado 189393" d="M1009.106,1196.747a.135.135,0,0,1-.092-.234l6.993-6.568a6.868,6.868,0,0,1,6.356-1.481,5.833,5.833,0,0,1,4.038,4.575.135.135,0,1,1-.262.066,5.576,5.576,0,0,0-3.853-4.382,6.585,6.585,0,0,0-6.095,1.419l-6.993,6.568a.135.135,0,0,1-.092.037" transform="translate(-817.029 -962.178)"/>
          <path id="Trazado_189394" data-name="Trazado 189394" d="M1037.074,1167.448a.131.131,0,0,1-.062-.016,27.149,27.149,0,0,0-4.764-1.95,8.439,8.439,0,0,0-7.564,1.819.135.135,0,1,1-.175-.206,8.7,8.7,0,0,1,7.8-1.876,26.854,26.854,0,0,1,4.827,1.973.135.135,0,0,1-.063.255" transform="translate(-829.573 -943.351)"/>
        </g>
      </g>
    </g>
  </g>
</svg>
