<svg xmlns="http://www.w3.org/2000/svg" xmlns:xlink="http://www.w3.org/1999/xlink" width="78" height="78" viewBox="0 0 78 78">
  <defs>
    <clipPath id="clip-path">
      <rect id="Rectángulo_338361" data-name="Rectángulo 338361" width="57.827" height="46.994" transform="translate(0 0)" fill="none"/>
    </clipPath>
  </defs>
  <g id="Grupo_982660" data-name="Grupo 982660" transform="translate(4521 9062)">
    <circle id="Elipse_4895" data-name="Elipse 4895" cx="39" cy="39" r="39" transform="translate(-4521 -9062)" fill="#6b8dfc"/>
    <g id="Grupo_982659" data-name="Grupo 982659" transform="translate(-4511 -9046)">
      <g id="Grupo_982658" data-name="Grupo 982658" transform="translate(0 0)" clip-path="url(#clip-path)">
        <path id="Trazado_205300" data-name="Trazado 205300" d="M57.827,42.472a2.691,2.691,0,0,0-.291.885,5.307,5.307,0,0,1-4.954,3.621c-7.15.021-14.3.011-21.449.008a2.907,2.907,0,0,1-1.96-.742c-.2-.171-.309-.184-.51-.008a3.227,3.227,0,0,1-2.238.758Q16.01,46.983,5.6,46.989A5.364,5.364,0,0,1,0,41.373Q0,24.665,0,7.956A2.556,2.556,0,0,1,2.849,5.1c.434,0,.557-.1.552-.545A2.553,2.553,0,0,1,6.251,1.7c.357,0,.715.005,1.072,0C7.9,1.688,8.562,1.93,8.617.9,8.648.333,9.246.021,9.843.015q2.568-.026,5.136,0a1.382,1.382,0,0,1,1.393,1.4c.018.394.017.789.024,1.184a.962.962,0,0,1,.151.646q0,3.388,0,6.775a1.847,1.847,0,0,1-.273,1.022,1.511,1.511,0,0,1-2.118.5,8.324,8.324,0,0,1-1.1-.879c-.559-.491-.693-.493-1.243-.014-.3.26-.6.517-.914.755a1.486,1.486,0,0,1-1.636.239,1.588,1.588,0,0,1-.954-1.483C8.281,9.069,8.3,7.977,8.3,6.885c0-.9-.009-1.807,0-2.71.006-.418-.131-.632-.583-.612-.488.022-.979-.007-1.467.01-.721.025-.96.274-.991,1.01-.007.17,0,.339,0,.508V40.208c0,1.407.117,1.526,1.5,1.526H26.516c1.184,0,1.317-.124,1.418-1.3.018-.206.009-.414.015-.621a.513.513,0,0,0-.461-.587c-.624-.15-.877-.479-.869-1.007a.934.934,0,0,1,.847-.968.545.545,0,0,0,.485-.629q-.008-1.5,0-2.992a.546.546,0,0,0-.492-.623.932.932,0,0,1-.839-.974c0-.527.247-.85.877-1a.518.518,0,0,0,.454-.593q0-1.525,0-3.049a.52.52,0,0,0-.461-.588c-.625-.153-.877-.48-.87-1.007s.253-.816.9-.982a.493.493,0,0,0,.427-.555q0-1.552,0-3.105a.5.5,0,0,0-.432-.555c-.652-.174-.892-.465-.9-.986-.005-.538.233-.823.929-1.017a.473.473,0,0,0,.4-.52q.009-1.581,0-3.162c0-.318-.158-.453-.46-.533-.624-.166-.874-.485-.865-1.013a.933.933,0,0,1,.85-.966.545.545,0,0,0,.48-.632c0-.96-.007-1.92,0-2.88a.562.562,0,0,0-.485-.637.916.916,0,0,1-.738-.944.916.916,0,0,1,.758-.983.554.554,0,0,0,.465-.648A10.772,10.772,0,0,0,27.914,4.5c-.1-.69-.343-.918-1.042-.923-1.938-.015-3.877,0-5.815-.007a13.69,13.69,0,0,1-1.58-.026c-.607-.072-.882-.387-.859-.938.147-.7.371-.9,1.059-.9,2.482,0,4.965,0,7.447,0a2.459,2.459,0,0,1,1.487.433.42.42,0,0,0,.59.009A2.5,2.5,0,0,1,30.744,1.7q10.494.006,20.987,0a2.518,2.518,0,0,1,2.694,2.724c-.009.518.078.709.65.677a2.615,2.615,0,0,1,2.752,2.018V35.7a.868.868,0,0,1-.956.692,1.077,1.077,0,0,1-.908-1.123c-.019-.263-.01-.526-.01-.79q0-12.952,0-25.9a6.135,6.135,0,0,0-.031-.9.733.733,0,0,0-.6-.665c-.473-.11-.667.031-.7.517-.015.225-.006.452-.006.677q0,16.225.009,32.451a2.973,2.973,0,0,1-1.5,2.828,3.478,3.478,0,0,1-1.7.306q-10.277,0-20.553,0a1.441,1.441,0,0,0-.169,0c-.227.027-.535-.1-.638.2a.736.736,0,0,0,.281.753,1.325,1.325,0,0,0,.813.355,7.827,7.827,0,0,0,.9.024c6.512,0,13.024-.007,19.536,0a3.884,3.884,0,0,0,3.4-1.1,3.532,3.532,0,0,0,.973-2.39c.024-.713-.017-1.427.016-2.14.03-.661.3-.949.98-1.1a.865.865,0,0,1,.861.7Z" transform="translate(0 0)"/>
        <path id="Trazado_205301" data-name="Trazado 205301" d="M25.828,6.293a.971.971,0,0,0,1.113.8c2.409-.015,4.819-.008,7.228-.005.81,0,1.093.275,1.106,1.071.008.527-.008,1.054.005,1.581.007.26-.02.4-.35.41a.811.811,0,0,0-.886.817c-.009.493.3.818.91.852.3.017.327.135.326.376-.008,1.224-.013,2.447,0,3.671,0,.3-.086.374-.382.38-.633.011-.978.338-.971.849s.343.813.995.824c.327.006.357.14.355.4-.01,1.243-.015,2.485,0,3.727,0,.325-.1.4-.412.406a.83.83,0,0,0-.941.822.822.822,0,0,0,.911.851c.341,0,.45.076.444.435q-.036,1.835,0,3.67c.007.358-.1.436-.443.435a.838.838,0,1,0-.028,1.671c.363,0,.479.088.471.465-.025,1.2-.018,2.409,0,3.614,0,.311-.027.471-.413.464a.821.821,0,0,0-.939.821c-.007.512.337.839.97.851.294.005.386.079.382.379q-.024,1.892,0,3.783c0,.309-.1.368-.387.374-.632.013-.976.34-.965.855.01.494.347.815.943.821.317,0,.428.086.409.409-.026.45,0,.9-.009,1.355-.013.8-.292,1.073-1.1,1.073q-6.663,0-13.327,0-3.7,0-7.4,0c-.886,0-1.157-.263-1.157-1.127q0-18.126,0-36.253c0-.87.27-1.134,1.15-1.137.583,0,1.169.026,1.75-.009.389-.024.5.079.5.485-.023,2.033,0,4.066-.017,6.1a1.489,1.489,0,0,0,.826,1.533,1.439,1.439,0,0,0,1.7-.365c.358-.332.759-.622,1.1-.972.269-.277.445-.216.689.018.38.364.792.7,1.187,1.043a1.365,1.365,0,0,0,1.563.287,1.407,1.407,0,0,0,.851-1.4q0-3.754.018-7.509h2.222" transform="translate(-7.21 -3.691)" fill="#f1f1f1"/>
        <path id="Trazado_205302" data-name="Trazado 205302" d="M92.232,46.711c-.169.007-.338.02-.507.02q-9.289,0-18.577,0c-.927,0-1.179-.247-1.186-1.156,0-.263,0-.527,0-.791,0-.458-.151-.959.648-.951.392,0,.609-.415.573-.842a.747.747,0,0,0-.757-.761c-.416,0-.481-.154-.473-.525.024-1.185.017-2.372,0-3.557,0-.3.015-.476.406-.471a.776.776,0,0,0,.827-.815.8.8,0,0,0-.848-.853c-.276-.016-.39-.064-.386-.375q.027-1.891,0-3.783c0-.3.09-.368.38-.382a.835.835,0,1,0-.023-1.669c-.322-.013-.357-.139-.354-.406.011-1.242.016-2.485,0-3.727,0-.325.1-.4.409-.41a.834.834,0,1,0-.024-1.668c-.349-.01-.387-.145-.383-.437q.021-1.835,0-3.67c0-.287.026-.43.38-.44a.834.834,0,1,0-.026-1.667c-.325-.013-.355-.143-.353-.408.011-1.2.016-2.409,0-3.613-.005-.326.1-.4.41-.406.594-.007.933-.33.942-.822.01-.513-.335-.839-.967-.854-.282-.007-.4-.067-.384-.374.025-.6-.01-1.2.016-1.806a.816.816,0,0,1,.895-.873q9.683,0,19.366.015a.735.735,0,0,1,.285.588c.016.207.014.413.014.621q0,18.03,0,36.059c0,.419.107.881-.3,1.209" transform="translate(-42.201 -4.821)" fill="#fefefe"/>
        <path id="Trazado_205303" data-name="Trazado 205303" d="M4.1,34.355V17.585c0-1.021.434-1.38,1.452-1.24.205.028.25.109.243.284-.006.151,0,.3,0,.452V50.225c0,1.975.97,2.95,2.937,2.95H29.283a2.511,2.511,0,0,0,.729-.033c.421-.131.482.029.444.4a1.407,1.407,0,0,1-1.307,1.319c-.168.015-.339.007-.508.007H8.144A3.7,3.7,0,0,1,4.1,50.843q0-8.244,0-16.487" transform="translate(-2.404 -9.57)" fill="#cbac76"/>
        <path id="Trazado_205304" data-name="Trazado 205304" d="M121,46.705a2.636,2.636,0,0,0,.12-.83q-.006-18.409,0-36.817A2.574,2.574,0,0,0,121,8.229c.6-.007,1.2-.027,1.8-.015a.844.844,0,0,1,.908.921c0,.112,0,.225,0,.338V45.464c0,1.034-.226,1.264-1.248,1.261-.488,0-.977-.013-1.465-.02" transform="translate(-70.967 -4.815)" fill="#e7e7e7"/>
        <path id="Trazado_205305" data-name="Trazado 205305" d="M130.4,45.865q0,1.119,0,2.237c-.691.139-.891.37-.9,1.059s.007,1.389,0,2.083a3.673,3.673,0,0,1-3.613,3.642c-.262.006-.524-.007-.787-.012.02-.3.31-.392.47-.583a4.12,4.12,0,0,0,.858-1.347,2.879,2.879,0,0,0,1.393-2.7q-.03-16.563,0-33.125c0-.243-.286-.68.276-.745.8-.092,1.292.156,1.387.717a3.721,3.721,0,0,1,.017.619q0,13.487,0,26.974c0,.805.174,1.03.9,1.176" transform="translate(-73.375 -9.595)" fill="#b4874d"/>
        <path id="Trazado_205306" data-name="Trazado 205306" d="M95.283,104.841c.222.151.058.3-.018.43a4.684,4.684,0,0,1-1.31,1.5q-5.73.007-11.46.015-4.46,0-8.92,0a1.421,1.421,0,0,1-1.58-1.454c0-.2-.018-.368.3-.3a4.6,4.6,0,0,0,.953.064q10.247,0,20.495.007a3.971,3.971,0,0,0,1.543-.26" transform="translate(-42.226 -61.49)" fill="#cbac75"/>
        <path id="Trazado_205307" data-name="Trazado 205307" d="M29.09,12c-.478-.416-.855-.753-1.241-1.078a1.433,1.433,0,0,0-2.036,0c-.384.327-.762.662-1.135.987-.147-.057-.1-.165-.1-.247,0-2.369.006-4.738-.01-7.107,0-.366.091-.475.463-.467,1.221.024,2.444.009,3.666.009.2,0,.4-.047.4.291-.011,2.5-.006,4.995-.006,7.61" transform="translate(-14.407 -2.397)" fill="#f6a974"/>
        <path id="Trazado_205308" data-name="Trazado 205308" d="M24.116,34.886a2.623,2.623,0,0,1,1.793.715c.432.419.878.828,1.273,1.281.3.341.473.37.815.018,1.507-1.552,3.045-3.075,4.584-4.6A2.54,2.54,0,0,1,36.9,33.784a2.31,2.31,0,0,1-.659,2.02c-2.3,2.327-4.606,4.654-6.948,6.942a2.442,2.442,0,0,1-3.423-.026q-1.809-1.742-3.552-3.552a2.372,2.372,0,0,1-.466-2.768,2.487,2.487,0,0,1,2.264-1.513" transform="translate(-12.67 -18.5)"/>
        <path id="Trazado_205309" data-name="Trazado 205309" d="M31.016,67.206q2.681,0,5.361,0c.674,0,1.048.295,1.063.82.016.551-.369.872-1.068.872q-5.417,0-10.835,0c-.674,0-1.047-.3-1.063-.821-.016-.552.368-.87,1.068-.871q2.736,0,5.474,0" transform="translate(-14.354 -39.417)"/>
        <path id="Trazado_205310" data-name="Trazado 205310" d="M34.128,77.093c-1.053,0-2.106,0-3.159,0-.655,0-1.037-.322-1.037-.848s.383-.842,1.041-.843q3.187,0,6.375,0c.655,0,1.039.322,1.037.848s-.385.841-1.041.844c-1.072,0-2.144,0-3.216,0" transform="translate(-17.555 -44.222)"/>
        <path id="Trazado_205311" data-name="Trazado 205311" d="M88.6,31.658a2.475,2.475,0,0,1,1.781.728c.394.377.791.754,1.155,1.158.29.323.519.358.823.015.349-.393.729-.76,1.114-1.118A2.543,2.543,0,0,1,97,32.448a2.51,2.51,0,0,1,.127,3.511c-.385.437-.805.844-1.23,1.243-.27.254-.261.449,0,.7.386.358.757.733,1.118,1.116a2.526,2.526,0,0,1,.016,3.6,2.555,2.555,0,0,1-3.642-.04c-.338-.326-.685-.648-.993-1s-.541-.387-.863-.017a15.706,15.706,0,0,1-1.113,1.12,2.54,2.54,0,1,1-3.58-3.6c.378-.393.758-.786,1.158-1.155.291-.269.277-.479-.006-.744-.439-.411-.874-.83-1.27-1.282a2.4,2.4,0,0,1-.435-2.726A2.448,2.448,0,0,1,88.6,31.658" transform="translate(-50.467 -18.568)"/>
        <path id="Trazado_205312" data-name="Trazado 205312" d="M90.992,68.9q-2.681,0-5.361,0c-.7,0-1.082-.323-1.064-.875.017-.525.39-.817,1.065-.817q5.418,0,10.835,0c.675,0,1.049.293,1.065.818.017.552-.368.873-1.066.875q-2.737,0-5.474,0" transform="translate(-49.599 -39.417)"/>
        <path id="Trazado_205313" data-name="Trazado 205313" d="M94.206,77.093c-1.053,0-2.106,0-3.159,0-.654,0-1.03-.329-1.02-.863.01-.511.378-.827,1-.828q3.216-.007,6.432,0c.654,0,1.031.329,1.02.862-.01.51-.38.825-1,.829-1.091.006-2.182,0-3.272,0" transform="translate(-52.802 -44.221)"/>
        <path id="Trazado_205314" data-name="Trazado 205314" d="M30.03,44.128a.949.949,0,0,1-.694-.315c-1.087-1.093-2.183-2.177-3.266-3.274a.849.849,0,1,1,1.186-1.195c.514.5,1.011,1.008,1.518,1.512a1.482,1.482,0,0,0,2.469.013q2.395-2.39,4.783-4.787a.978.978,0,0,1,1.048-.366.837.837,0,0,1,.258,1.452c-.866.888-1.751,1.758-2.628,2.635q-1.953,1.955-3.905,3.91a1.035,1.035,0,0,1-.769.416" transform="translate(-15.092 -20.922)" fill="#8fd298"/>
        <path id="Trazado_205315" data-name="Trazado 205315" d="M98.5,36.622a1,1,0,0,1-.327.73c-.386.385-.778.764-1.154,1.159a1.954,1.954,0,0,0-.016,2.869c.348.369.718.718,1.073,1.08.505.515.556.982.156,1.37-.38.368-.877.3-1.378-.2-.361-.357-.711-.725-1.08-1.074a1.942,1.942,0,0,0-2.785-.014c-.427.4-.824.824-1.242,1.23-.466.453-.971.49-1.333.111s-.322-.834.12-1.291c.379-.392.773-.769,1.154-1.159a1.966,1.966,0,0,0,.015-2.951c-.38-.391-.775-.767-1.154-1.158-.465-.478-.5-.956-.111-1.332a.872.872,0,0,1,1.293.12c.405.392.791.8,1.2,1.193a1.962,1.962,0,0,0,2.91-.024c.405-.392.8-.8,1.2-1.192a.858.858,0,0,1,1.459.529" transform="translate(-52.888 -20.974)" fill="#f39494"/>
      </g>
    </g>
  </g>
</svg>
