<svg xmlns="http://www.w3.org/2000/svg" width="610" height="385" viewBox="0 0 610 385">
  <g id="Grupo_982949" data-name="Grupo 982949" transform="translate(-495 -5924)">
    <path id="Trazado_206955" data-name="Trazado 206955" d="M12,0H178a12,12,0,0,1,12,12V42a12,12,0,0,1-12,12H12A12,12,0,0,1,0,42V12A12,12,0,0,1,12,0Z" transform="translate(708 5924)" fill="#3c3fa7"/>
    <path id="Trazado_206956" data-name="Trazado 206956" d="M7.348,19H4.377V9.543L1.459,10.4V8.146L7.075,6.2h.272Zm5.739-2.874a1.686,1.686,0,0,1,1.169.417,1.457,1.457,0,0,1,0,2.136,1.844,1.844,0,0,1-2.342,0,1.456,1.456,0,0,1,0-2.127A1.672,1.672,0,0,1,13.087,16.126Zm18.7,1.292a4.96,4.96,0,0,1-2.083,1.274,8.984,8.984,0,0,1-3.006.483,5.36,5.36,0,0,1-4.017-1.538,6.226,6.226,0,0,1-1.608-4.28l-.009-1.107a7.637,7.637,0,0,1,.668-3.3,4.96,4.96,0,0,1,1.912-2.171,5.407,5.407,0,0,1,2.878-.76,5.669,5.669,0,0,1,3.713,1.094,4.637,4.637,0,0,1,1.542,3.265H28.811a2.426,2.426,0,0,0-.686-1.529,2.212,2.212,0,0,0-1.494-.457,2.013,2.013,0,0,0-1.793.984,5.256,5.256,0,0,0-.642,2.813v.773a5.145,5.145,0,0,0,.655,2.878,2.316,2.316,0,0,0,2.061.962,2.592,2.592,0,0,0,1.793-.536V14.28H26.561V12.162H31.79Zm6.258,1.758a4.889,4.889,0,0,1-3.542-1.305,4.507,4.507,0,0,1-1.354-3.4v-.246a5.84,5.84,0,0,1,.541-2.575,3.955,3.955,0,0,1,1.578-1.727,4.763,4.763,0,0,1,2.461-.611A4.117,4.117,0,0,1,40.9,10.558a4.887,4.887,0,0,1,1.16,3.467v1.151H36.167a2.135,2.135,0,0,0,.694,1.257,2.066,2.066,0,0,0,1.389.457,2.662,2.662,0,0,0,2.2-.984l1.354,1.6a3.784,3.784,0,0,1-1.569,1.217A5.3,5.3,0,0,1,38.048,19.176ZM37.714,11.6q-1.3,0-1.547,1.723h2.988v-.229a1.467,1.467,0,0,0-.36-1.1A1.434,1.434,0,0,0,37.714,11.6ZM45.967,9.49l.1,1.116a3.225,3.225,0,0,1,2.716-1.292A2.713,2.713,0,0,1,51,10.2a4.226,4.226,0,0,1,.76,2.672V19H48.788V13a1.6,1.6,0,0,0-.29-1.059,1.342,1.342,0,0,0-1.055-.338,1.413,1.413,0,0,0-1.292.686V19H43.189V9.49ZM58,19.176a4.889,4.889,0,0,1-3.542-1.305,4.507,4.507,0,0,1-1.354-3.4v-.246a5.84,5.84,0,0,1,.541-2.575,3.955,3.955,0,0,1,1.578-1.727,4.763,4.763,0,0,1,2.461-.611,4.117,4.117,0,0,1,3.164,1.244,4.887,4.887,0,0,1,1.16,3.467v1.151H56.118a2.135,2.135,0,0,0,.694,1.257,2.066,2.066,0,0,0,1.389.457,2.662,2.662,0,0,0,2.2-.984l1.354,1.6a3.784,3.784,0,0,1-1.569,1.217A5.3,5.3,0,0,1,58,19.176ZM57.665,11.6q-1.3,0-1.547,1.723h2.988v-.229a1.467,1.467,0,0,0-.36-1.1A1.434,1.434,0,0,0,57.665,11.6Zm11.285.571-.976-.07a1.752,1.752,0,0,0-1.793.879V19H63.22V9.49H66l.1,1.222a2.294,2.294,0,0,1,2.083-1.4A2.888,2.888,0,0,1,69,9.42ZM75.111,19a3.344,3.344,0,0,1-.281-.853,2.754,2.754,0,0,1-2.285,1.028,3.374,3.374,0,0,1-2.285-.813,2.588,2.588,0,0,1-.94-2.043,2.66,2.66,0,0,1,1.143-2.338,5.821,5.821,0,0,1,3.322-.791H74.7v-.5q0-1.316-1.134-1.316a.927.927,0,0,0-1.055,1.042H69.548a2.655,2.655,0,0,1,1.173-2.239,4.931,4.931,0,0,1,2.993-.86,4.323,4.323,0,0,1,2.874.888,3.086,3.086,0,0,1,1.081,2.435v4.21a4.311,4.311,0,0,0,.4,2V19Zm-1.854-1.934a1.652,1.652,0,0,0,.918-.237,1.487,1.487,0,0,0,.523-.536V14.772h-.861q-1.547,0-1.547,1.389a.848.848,0,0,0,.272.655A.986.986,0,0,0,73.257,17.066ZM82.433,19H79.462V5.5h2.971Zm12.059-6.829-.976-.07a1.752,1.752,0,0,0-1.793.879V19H88.761V9.49h2.777l.1,1.222a2.294,2.294,0,0,1,2.083-1.4,2.888,2.888,0,0,1,.826.105Zm6.732,5.8a3.054,3.054,0,0,1-2.54,1.2,3,3,0,0,1-2.369-.91,3.826,3.826,0,0,1-.8-2.615V9.49h2.962v6.179a1.065,1.065,0,0,0,1.187,1.222,1.548,1.548,0,0,0,1.45-.729V9.49h2.979V19h-2.777ZM108.835,19h-2.971V5.5h2.971Zm6.425.176a4.889,4.889,0,0,1-3.542-1.305,4.507,4.507,0,0,1-1.354-3.4v-.246a5.84,5.84,0,0,1,.541-2.575,3.955,3.955,0,0,1,1.578-1.727,4.763,4.763,0,0,1,2.461-.611,4.117,4.117,0,0,1,3.164,1.244,4.887,4.887,0,0,1,1.16,3.467v1.151h-5.889a2.135,2.135,0,0,0,.694,1.257,2.066,2.066,0,0,0,1.389.457,2.662,2.662,0,0,0,2.2-.984l1.354,1.6a3.784,3.784,0,0,1-1.569,1.217A5.3,5.3,0,0,1,115.26,19.176Zm-.334-7.576q-1.3,0-1.547,1.723h2.988v-.229a1.467,1.467,0,0,0-.36-1.1A1.434,1.434,0,0,0,114.926,11.6Z" transform="translate(719 5941)" fill="#fff"/>
    <path id="Trazado_206947" data-name="Trazado 206947" d="M12,0H178a12,12,0,0,1,12,12V59a12,12,0,0,1-12,12H12A12,12,0,0,1,0,59V12A12,12,0,0,1,12,0Z" transform="translate(915 6067)" fill="#3c3fa7"/>
    <path id="Trazado_206948" data-name="Trazado 206948" d="M9.712,19H.782V17.066L4.9,12.742A4.909,4.909,0,0,0,6.416,9.991a1.913,1.913,0,0,0-.36-1.257A1.287,1.287,0,0,0,5.01,8.3a1.3,1.3,0,0,0-1.1.576,2.366,2.366,0,0,0-.422,1.437H.519a4.2,4.2,0,0,1,.589-2.175,4.129,4.129,0,0,1,1.635-1.56A4.856,4.856,0,0,1,5.08,6.019a4.777,4.777,0,0,1,3.195.958A3.42,3.42,0,0,1,9.4,9.728,4,4,0,0,1,9.114,11.2a6.456,6.456,0,0,1-.875,1.5,22.029,22.029,0,0,1-1.912,2.1L4.676,16.715H9.712Zm3.375-2.874a1.686,1.686,0,0,1,1.169.417,1.457,1.457,0,0,1,0,2.136,1.844,1.844,0,0,1-2.342,0,1.456,1.456,0,0,1,0-2.127A1.672,1.672,0,0,1,13.087,16.126Zm13.192-.606L28.828,6.2h3.445L27.967,19H24.592L20.32,6.2h3.419ZM37.67,19.176a4.889,4.889,0,0,1-3.542-1.305,4.507,4.507,0,0,1-1.354-3.4v-.246a5.84,5.84,0,0,1,.541-2.575,3.955,3.955,0,0,1,1.578-1.727,4.763,4.763,0,0,1,2.461-.611,4.117,4.117,0,0,1,3.164,1.244,4.887,4.887,0,0,1,1.16,3.467v1.151H35.789a2.135,2.135,0,0,0,.694,1.257,2.066,2.066,0,0,0,1.389.457,2.662,2.662,0,0,0,2.2-.984l1.354,1.6a3.784,3.784,0,0,1-1.569,1.217A5.3,5.3,0,0,1,37.67,19.176ZM37.336,11.6q-1.3,0-1.547,1.723h2.988v-.229a1.467,1.467,0,0,0-.36-1.1A1.434,1.434,0,0,0,37.336,11.6Zm11.285.571-.976-.07a1.752,1.752,0,0,0-1.793.879V19H42.891V9.49h2.777l.1,1.222a2.294,2.294,0,0,1,2.083-1.4,2.888,2.888,0,0,1,.826.105Zm9.9,2.153a5.8,5.8,0,0,1-.967,3.595,3.238,3.238,0,0,1-2.725,1.257,2.81,2.81,0,0,1-2.338-1.151L52.365,19H49.711V5.5h2.962v4.755a2.711,2.711,0,0,1,2.136-.94,3.239,3.239,0,0,1,2.742,1.274,5.826,5.826,0,0,1,.967,3.586Zm-2.971-.189a3.866,3.866,0,0,0-.365-1.952,1.229,1.229,0,0,0-1.121-.584,1.418,1.418,0,0,0-1.389.763v3.773a1.426,1.426,0,0,0,1.406.755,1.258,1.258,0,0,0,1.327-1.018A7.309,7.309,0,0,0,55.547,14.135ZM64.8,16.328a.684.684,0,0,0-.4-.606,6.016,6.016,0,0,0-1.5-.475,6.853,6.853,0,0,1-1.828-.646,3.062,3.062,0,0,1-1.1-.971,2.319,2.319,0,0,1-.378-1.31,2.628,2.628,0,0,1,1.081-2.158,4.453,4.453,0,0,1,2.83-.848,4.934,4.934,0,0,1,3.023.853,2.666,2.666,0,0,1,1.143,2.241H64.705q0-1.143-1.2-1.143a1.194,1.194,0,0,0-.782.259.8.8,0,0,0-.316.646.737.737,0,0,0,.387.642,3.654,3.654,0,0,0,1.235.4,10.671,10.671,0,0,1,1.49.378,2.706,2.706,0,0,1,2.145,2.646A2.491,2.491,0,0,1,66.5,18.358a5.068,5.068,0,0,1-2.993.817,5.172,5.172,0,0,1-2.18-.439,3.645,3.645,0,0,1-1.494-1.2A2.707,2.707,0,0,1,59.3,15.95h2.769a1.145,1.145,0,0,0,.439.962,1.808,1.808,0,0,0,1.081.3,1.422,1.422,0,0,0,.91-.246A.787.787,0,0,0,64.8,16.328ZM5.432,44.176A4.889,4.889,0,0,1,1.89,42.871a4.507,4.507,0,0,1-1.354-3.4v-.246a5.84,5.84,0,0,1,.541-2.575,3.955,3.955,0,0,1,1.578-1.727,4.763,4.763,0,0,1,2.461-.611,4.117,4.117,0,0,1,3.164,1.244,4.887,4.887,0,0,1,1.16,3.467v1.151H3.551a2.135,2.135,0,0,0,.694,1.257,2.066,2.066,0,0,0,1.389.457,2.662,2.662,0,0,0,2.2-.984l1.354,1.6a3.784,3.784,0,0,1-1.569,1.217A5.3,5.3,0,0,1,5.432,44.176ZM5.1,36.6q-1.3,0-1.547,1.723H6.539v-.229a1.467,1.467,0,0,0-.36-1.1A1.434,1.434,0,0,0,5.1,36.6Zm8.253-2.109.1,1.116a3.225,3.225,0,0,1,2.716-1.292,2.713,2.713,0,0,1,2.219.888,4.226,4.226,0,0,1,.76,2.672V44H16.172V38a1.6,1.6,0,0,0-.29-1.059,1.342,1.342,0,0,0-1.055-.338,1.413,1.413,0,0,0-1.292.686V44H10.573V34.49Zm7.058,4.685a5.809,5.809,0,0,1,.976-3.56,3.211,3.211,0,0,1,2.725-1.3,2.731,2.731,0,0,1,2.145,1V30.5h2.971V44H26.561l-.149-1.02a2.8,2.8,0,0,1-2.32,1.2,3.205,3.205,0,0,1-2.689-1.3A5.993,5.993,0,0,1,20.408,39.175Zm2.962.185q0,2.531,1.477,2.531a1.458,1.458,0,0,0,1.406-.826V37.443a1.419,1.419,0,0,0-1.389-.844q-1.371,0-1.485,2.215Zm12.138,4.816a4.889,4.889,0,0,1-3.542-1.305,4.507,4.507,0,0,1-1.354-3.4v-.246a5.84,5.84,0,0,1,.541-2.575,3.955,3.955,0,0,1,1.578-1.727,4.763,4.763,0,0,1,2.461-.611,4.117,4.117,0,0,1,3.164,1.244,4.887,4.887,0,0,1,1.16,3.467v1.151H33.627a2.135,2.135,0,0,0,.694,1.257,2.066,2.066,0,0,0,1.389.457,2.662,2.662,0,0,0,2.2-.984l1.354,1.6a3.784,3.784,0,0,1-1.569,1.217A5.3,5.3,0,0,1,35.508,44.176ZM35.174,36.6q-1.3,0-1.547,1.723h2.988v-.229a1.467,1.467,0,0,0-.36-1.1A1.434,1.434,0,0,0,35.174,36.6Zm5.159,2.575a5.809,5.809,0,0,1,.976-3.56,3.211,3.211,0,0,1,2.725-1.3,2.731,2.731,0,0,1,2.145,1V30.5h2.971V44H46.485l-.149-1.02a2.8,2.8,0,0,1-2.32,1.2,3.205,3.205,0,0,1-2.689-1.3A5.993,5.993,0,0,1,40.333,39.175Zm2.962.185q0,2.531,1.477,2.531a1.458,1.458,0,0,0,1.406-.826V37.443a1.419,1.419,0,0,0-1.389-.844q-1.371,0-1.485,2.215ZM58.438,44H55.468V34.49h2.971ZM55.292,32.038A1.322,1.322,0,0,1,55.749,31a1.943,1.943,0,0,1,2.373,0,1.405,1.405,0,0,1,0,2.074,1.943,1.943,0,0,1-2.373,0A1.322,1.322,0,0,1,55.292,32.038Zm7.69,2.452.1,1.116a3.225,3.225,0,0,1,2.716-1.292,2.713,2.713,0,0,1,2.219.888,4.226,4.226,0,0,1,.76,2.672V44H65.8V38a1.6,1.6,0,0,0-.29-1.059,1.342,1.342,0,0,0-1.055-.338,1.413,1.413,0,0,0-1.292.686V44H60.205V34.49Zm13.7-4.342,1.3.7a5.325,5.325,0,0,0-.747,2.435v1.556H75.076v-1.45a3.92,3.92,0,0,1,.475-1.718A5.22,5.22,0,0,1,76.685,30.148Zm3.085,0,1.3.7a5.325,5.325,0,0,0-.747,2.435v1.556H78.161v-1.45a3.92,3.92,0,0,1,.475-1.718A5.22,5.22,0,0,1,79.77,30.148Zm10.89,8.42H85.808v3.059h5.73V44H82.723V31.2h8.833v2.382H85.808v2.7h4.852Zm3.173-3.357-1.3-.7a5.1,5.1,0,0,0,.747-2.479V30.5H95.44v1.433a3.875,3.875,0,0,1-.47,1.745A5.248,5.248,0,0,1,93.832,35.211Zm3.182,0-1.3-.7a5.1,5.1,0,0,0,.747-2.479V30.5h2.162v1.433a3.875,3.875,0,0,1-.47,1.745A5.248,5.248,0,0,1,97.014,35.211Z" transform="translate(933 6079)" fill="#fff"/>
    <path id="Trazado_206943" data-name="Trazado 206943" d="M12,0H178a12,12,0,0,1,12,12V62a12,12,0,0,1-12,12H12A12,12,0,0,1,0,62V12A12,12,0,0,1,12,0Z" transform="translate(708 6235)" fill="#3c3fa7"/>
    <path id="Trazado_206944" data-name="Trazado 206944" d="M3.489,11.362h1.4A1.453,1.453,0,0,0,6.548,9.736a1.406,1.406,0,0,0-.4-1.033,1.5,1.5,0,0,0-1.116-.4,1.606,1.606,0,0,0-1.024.343,1.046,1.046,0,0,0-.435.853H.615a3.032,3.032,0,0,1,.563-1.8,3.715,3.715,0,0,1,1.56-1.235,5.334,5.334,0,0,1,2.193-.444,5.241,5.241,0,0,1,3.357.976A3.243,3.243,0,0,1,9.51,9.675,2.7,2.7,0,0,1,9,11.235a3.6,3.6,0,0,1-1.472,1.191,3.441,3.441,0,0,1,1.6,1.121,2.951,2.951,0,0,1,.58,1.859,3.3,3.3,0,0,1-1.318,2.742,5.472,5.472,0,0,1-3.463,1.028A5.675,5.675,0,0,1,2.6,18.7,3.656,3.656,0,0,1,.967,17.37,3.45,3.45,0,0,1,.413,15.44H3.393a1.334,1.334,0,0,0,.475,1.02,1.676,1.676,0,0,0,1.169.431,1.755,1.755,0,0,0,1.248-.435,1.454,1.454,0,0,0,.466-1.112,1.7,1.7,0,0,0-.483-1.371,2.021,2.021,0,0,0-1.336-.4H3.489Zm9.6,4.764a1.686,1.686,0,0,1,1.169.417,1.457,1.457,0,0,1,0,2.136,1.844,1.844,0,0,1-2.342,0,1.456,1.456,0,0,1,0-2.127A1.672,1.672,0,0,1,13.087,16.126Zm13.192-.606L28.828,6.2h3.445L27.967,19H24.592L20.32,6.2h3.419ZM37.67,19.176a4.889,4.889,0,0,1-3.542-1.305,4.507,4.507,0,0,1-1.354-3.4v-.246a5.84,5.84,0,0,1,.541-2.575,3.955,3.955,0,0,1,1.578-1.727,4.763,4.763,0,0,1,2.461-.611,4.117,4.117,0,0,1,3.164,1.244,4.887,4.887,0,0,1,1.16,3.467v1.151H35.789a2.135,2.135,0,0,0,.694,1.257,2.066,2.066,0,0,0,1.389.457,2.662,2.662,0,0,0,2.2-.984l1.354,1.6a3.784,3.784,0,0,1-1.569,1.217A5.3,5.3,0,0,1,37.67,19.176ZM37.336,11.6q-1.3,0-1.547,1.723h2.988v-.229a1.467,1.467,0,0,0-.36-1.1A1.434,1.434,0,0,0,37.336,11.6Zm11.285.571-.976-.07a1.752,1.752,0,0,0-1.793.879V19H42.891V9.49h2.777l.1,1.222a2.294,2.294,0,0,1,2.083-1.4,2.888,2.888,0,0,1,.826.105Zm9.9,2.153a5.8,5.8,0,0,1-.967,3.595,3.238,3.238,0,0,1-2.725,1.257,2.81,2.81,0,0,1-2.338-1.151L52.365,19H49.711V5.5h2.962v4.755a2.711,2.711,0,0,1,2.136-.94,3.239,3.239,0,0,1,2.742,1.274,5.826,5.826,0,0,1,.967,3.586Zm-2.971-.189a3.866,3.866,0,0,0-.365-1.952,1.229,1.229,0,0,0-1.121-.584,1.418,1.418,0,0,0-1.389.763v3.773a1.426,1.426,0,0,0,1.406.755,1.258,1.258,0,0,0,1.327-1.018A7.309,7.309,0,0,0,55.547,14.135ZM64.8,16.328a.684.684,0,0,0-.4-.606,6.016,6.016,0,0,0-1.5-.475,6.853,6.853,0,0,1-1.828-.646,3.062,3.062,0,0,1-1.1-.971,2.319,2.319,0,0,1-.378-1.31,2.628,2.628,0,0,1,1.081-2.158,4.453,4.453,0,0,1,2.83-.848,4.934,4.934,0,0,1,3.023.853,2.666,2.666,0,0,1,1.143,2.241H64.705q0-1.143-1.2-1.143a1.194,1.194,0,0,0-.782.259.8.8,0,0,0-.316.646.737.737,0,0,0,.387.642,3.654,3.654,0,0,0,1.235.4,10.671,10.671,0,0,1,1.49.378,2.706,2.706,0,0,1,2.145,2.646A2.491,2.491,0,0,1,66.5,18.358a5.068,5.068,0,0,1-2.993.817,5.172,5.172,0,0,1-2.18-.439,3.645,3.645,0,0,1-1.494-1.2A2.707,2.707,0,0,1,59.3,15.95h2.769a1.145,1.145,0,0,0,.439.962,1.808,1.808,0,0,0,1.081.3,1.422,1.422,0,0,0,.91-.246A.787.787,0,0,0,64.8,16.328ZM5.432,44.176A4.889,4.889,0,0,1,1.89,42.871a4.507,4.507,0,0,1-1.354-3.4v-.246a5.84,5.84,0,0,1,.541-2.575,3.955,3.955,0,0,1,1.578-1.727,4.763,4.763,0,0,1,2.461-.611,4.117,4.117,0,0,1,3.164,1.244,4.887,4.887,0,0,1,1.16,3.467v1.151H3.551a2.135,2.135,0,0,0,.694,1.257,2.066,2.066,0,0,0,1.389.457,2.662,2.662,0,0,0,2.2-.984l1.354,1.6a3.784,3.784,0,0,1-1.569,1.217A5.3,5.3,0,0,1,5.432,44.176ZM5.1,36.6q-1.3,0-1.547,1.723H6.539v-.229a1.467,1.467,0,0,0-.36-1.1A1.434,1.434,0,0,0,5.1,36.6Zm8.253-2.109.1,1.116a3.225,3.225,0,0,1,2.716-1.292,2.713,2.713,0,0,1,2.219.888,4.226,4.226,0,0,1,.76,2.672V44H16.172V38a1.6,1.6,0,0,0-.29-1.059,1.342,1.342,0,0,0-1.055-.338,1.413,1.413,0,0,0-1.292.686V44H10.573V34.49Zm7.058,4.685a5.809,5.809,0,0,1,.976-3.56,3.211,3.211,0,0,1,2.725-1.3,2.731,2.731,0,0,1,2.145,1V30.5h2.971V44H26.561l-.149-1.02a2.8,2.8,0,0,1-2.32,1.2,3.205,3.205,0,0,1-2.689-1.3A5.993,5.993,0,0,1,20.408,39.175Zm2.962.185q0,2.531,1.477,2.531a1.458,1.458,0,0,0,1.406-.826V37.443a1.419,1.419,0,0,0-1.389-.844q-1.371,0-1.485,2.215Zm12.138,4.816a4.889,4.889,0,0,1-3.542-1.305,4.507,4.507,0,0,1-1.354-3.4v-.246a5.84,5.84,0,0,1,.541-2.575,3.955,3.955,0,0,1,1.578-1.727,4.763,4.763,0,0,1,2.461-.611,4.117,4.117,0,0,1,3.164,1.244,4.887,4.887,0,0,1,1.16,3.467v1.151H33.627a2.135,2.135,0,0,0,.694,1.257,2.066,2.066,0,0,0,1.389.457,2.662,2.662,0,0,0,2.2-.984l1.354,1.6a3.784,3.784,0,0,1-1.569,1.217A5.3,5.3,0,0,1,35.508,44.176ZM35.174,36.6q-1.3,0-1.547,1.723h2.988v-.229a1.467,1.467,0,0,0-.36-1.1A1.434,1.434,0,0,0,35.174,36.6Zm5.159,2.575a5.809,5.809,0,0,1,.976-3.56,3.211,3.211,0,0,1,2.725-1.3,2.731,2.731,0,0,1,2.145,1V30.5h2.971V44H46.485l-.149-1.02a2.8,2.8,0,0,1-2.32,1.2,3.205,3.205,0,0,1-2.689-1.3A5.993,5.993,0,0,1,40.333,39.175Zm2.962.185q0,2.531,1.477,2.531a1.458,1.458,0,0,0,1.406-.826V37.443a1.419,1.419,0,0,0-1.389-.844q-1.371,0-1.485,2.215ZM58.438,44H55.468V34.49h2.971ZM55.292,32.038A1.322,1.322,0,0,1,55.749,31a1.943,1.943,0,0,1,2.373,0,1.405,1.405,0,0,1,0,2.074,1.943,1.943,0,0,1-2.373,0A1.322,1.322,0,0,1,55.292,32.038Zm7.69,2.452.1,1.116a3.225,3.225,0,0,1,2.716-1.292,2.713,2.713,0,0,1,2.219.888,4.226,4.226,0,0,1,.76,2.672V44H65.8V38a1.6,1.6,0,0,0-.29-1.059,1.342,1.342,0,0,0-1.055-.338,1.413,1.413,0,0,0-1.292.686V44H60.205V34.49Zm13.7-4.342,1.3.7a5.325,5.325,0,0,0-.747,2.435v1.556H75.076v-1.45a3.92,3.92,0,0,1,.475-1.718A5.22,5.22,0,0,1,76.685,30.148Zm3.085,0,1.3.7a5.325,5.325,0,0,0-.747,2.435v1.556H78.161v-1.45a3.92,3.92,0,0,1,.475-1.718A5.22,5.22,0,0,1,79.77,30.148ZM86.01,44H82.934V31.2H86.01Zm10.081-5.432H91.239v3.059h5.73V44H88.154V31.2h8.833v2.382H91.239v2.7h4.852Zm3.173-3.357-1.3-.7a5.1,5.1,0,0,0,.747-2.479V30.5h2.162v1.433a3.875,3.875,0,0,1-.47,1.745A5.248,5.248,0,0,1,99.264,35.211Zm3.182,0-1.3-.7a5.1,5.1,0,0,0,.747-2.479V30.5h2.162v1.433a3.875,3.875,0,0,1-.47,1.745A5.248,5.248,0,0,1,102.445,35.211Z" transform="translate(726 6249)" fill="#fff"/>
    <path id="Trazado_206953" data-name="Trazado 206953" d="M12,0H178a12,12,0,0,1,12,12V67a12,12,0,0,1-12,12H12A12,12,0,0,1,0,67V12A12,12,0,0,1,12,0Z" transform="translate(495 6063)" fill="#3c3fa7"/>
    <path id="Trazado_206954" data-name="Trazado 206954" d="M8.6,14h1.3v2.285H8.6V19H5.643V16.284H.694L.519,14.474,5.643,6.229V6.2H8.6ZM3.34,14h2.3V10.062l-.185.3Zm9.747,2.127a1.686,1.686,0,0,1,1.169.417,1.457,1.457,0,0,1,0,2.136,1.844,1.844,0,0,1-2.342,0,1.456,1.456,0,0,1,0-2.127A1.672,1.672,0,0,1,13.087,16.126Zm18.58-1.459a4.673,4.673,0,0,1-.721,2.36,4.35,4.35,0,0,1-1.85,1.586,6.3,6.3,0,0,1-2.72.563A5.025,5.025,0,0,1,22.4,17.532a6.786,6.786,0,0,1-1.45-4.641v-.633a7.746,7.746,0,0,1,.655-3.292,4.961,4.961,0,0,1,1.885-2.18,5.26,5.26,0,0,1,2.848-.769,5.516,5.516,0,0,1,3.744,1.226,4.844,4.844,0,0,1,1.608,3.379H28.617a2.292,2.292,0,0,0-.589-1.679,2.422,2.422,0,0,0-1.687-.51,1.843,1.843,0,0,0-1.687.861,5.536,5.536,0,0,0-.562,2.751v.905A6.126,6.126,0,0,0,24.6,15.88a1.882,1.882,0,0,0,1.771.879,2.369,2.369,0,0,0,1.626-.5,2.126,2.126,0,0,0,.6-1.591Zm.949-.51a5.613,5.613,0,0,1,.554-2.536,3.96,3.96,0,0,1,1.591-1.709,4.791,4.791,0,0,1,2.435-.6,4.373,4.373,0,0,1,3.366,1.323,5.076,5.076,0,0,1,1.23,3.6v.105a4.925,4.925,0,0,1-1.235,3.529,4.384,4.384,0,0,1-3.344,1.305,4.434,4.434,0,0,1-3.261-1.217,4.761,4.761,0,0,1-1.327-3.3Zm2.962.185a3.538,3.538,0,0,0,.413,1.934,1.376,1.376,0,0,0,1.222.615q1.582,0,1.617-2.435v-.3q0-2.558-1.635-2.558-1.485,0-1.608,2.206ZM45.817,9.49l.1,1.116A3.225,3.225,0,0,1,48.63,9.314a2.713,2.713,0,0,1,2.219.888,4.226,4.226,0,0,1,.76,2.672V19H48.639V13a1.6,1.6,0,0,0-.29-1.059,1.342,1.342,0,0,0-1.055-.338A1.413,1.413,0,0,0,46,12.285V19H43.04V9.49Zm12.41,6.838a.684.684,0,0,0-.4-.606,6.016,6.016,0,0,0-1.5-.475A6.853,6.853,0,0,1,54.5,14.6a3.062,3.062,0,0,1-1.1-.971,2.319,2.319,0,0,1-.378-1.31,2.628,2.628,0,0,1,1.081-2.158,4.453,4.453,0,0,1,2.83-.848,4.934,4.934,0,0,1,3.023.853A2.666,2.666,0,0,1,61.1,12.408H58.131q0-1.143-1.2-1.143a1.194,1.194,0,0,0-.782.259.8.8,0,0,0-.316.646.737.737,0,0,0,.387.642,3.654,3.654,0,0,0,1.235.4,10.671,10.671,0,0,1,1.49.378,2.706,2.706,0,0,1,2.145,2.646,2.491,2.491,0,0,1-1.156,2.118,5.068,5.068,0,0,1-2.993.817,5.172,5.172,0,0,1-2.18-.439,3.645,3.645,0,0,1-1.494-1.2,2.707,2.707,0,0,1-.536-1.591h2.769a1.145,1.145,0,0,0,.439.962,1.808,1.808,0,0,0,1.081.3,1.422,1.422,0,0,0,.91-.246A.787.787,0,0,0,58.228,16.328Zm3.867-2.171a5.613,5.613,0,0,1,.554-2.536,3.96,3.96,0,0,1,1.591-1.709,4.791,4.791,0,0,1,2.435-.6,4.373,4.373,0,0,1,3.366,1.323,5.076,5.076,0,0,1,1.23,3.6v.105a4.925,4.925,0,0,1-1.235,3.529,4.384,4.384,0,0,1-3.344,1.305,4.434,4.434,0,0,1-3.261-1.217,4.761,4.761,0,0,1-1.327-3.3Zm2.962.185a3.538,3.538,0,0,0,.413,1.934,1.376,1.376,0,0,0,1.222.615q1.582,0,1.617-2.435v-.3q0-2.558-1.635-2.558-1.485,0-1.608,2.206ZM75.3,9.49l.1,1.116a3.225,3.225,0,0,1,2.716-1.292,2.713,2.713,0,0,1,2.219.888,4.226,4.226,0,0,1,.76,2.672V19H78.117V13a1.6,1.6,0,0,0-.29-1.059,1.342,1.342,0,0,0-1.055-.338,1.413,1.413,0,0,0-1.292.686V19H72.519V9.49ZM88.084,19a3.344,3.344,0,0,1-.281-.853,2.754,2.754,0,0,1-2.285,1.028,3.374,3.374,0,0,1-2.285-.813,2.588,2.588,0,0,1-.94-2.043,2.66,2.66,0,0,1,1.143-2.338,5.821,5.821,0,0,1,3.322-.791h.914v-.5q0-1.316-1.134-1.316a.927.927,0,0,0-1.055,1.042H82.521a2.655,2.655,0,0,1,1.173-2.239,4.931,4.931,0,0,1,2.993-.86,4.323,4.323,0,0,1,2.874.888,3.086,3.086,0,0,1,1.081,2.435v4.21a4.311,4.311,0,0,0,.4,2V19Zm-1.854-1.934a1.652,1.652,0,0,0,.918-.237,1.487,1.487,0,0,0,.523-.536V14.772H86.81q-1.547,0-1.547,1.389a.848.848,0,0,0,.272.655A.986.986,0,0,0,86.229,17.066ZM95,9.49l.1,1.116a3.225,3.225,0,0,1,2.716-1.292,2.713,2.713,0,0,1,2.219.888,4.226,4.226,0,0,1,.76,2.672V19H97.822V13a1.6,1.6,0,0,0-.29-1.059,1.342,1.342,0,0,0-1.055-.338,1.413,1.413,0,0,0-1.292.686V19H92.224V9.49Zm10.881-2.364V9.49h1.564v2.057h-1.564V15.9a1.111,1.111,0,0,0,.193.747,1.037,1.037,0,0,0,.765.211,4.345,4.345,0,0,0,.738-.053v2.118a5.466,5.466,0,0,1-1.67.255,3.1,3.1,0,0,1-2.259-.721,2.954,2.954,0,0,1-.729-2.188v-4.72h-1.213V9.49h1.213V7.126ZM.457,39.175a5.809,5.809,0,0,1,.976-3.56,3.211,3.211,0,0,1,2.725-1.3,2.731,2.731,0,0,1,2.145,1V30.5H9.272V44H6.609L6.46,42.98a2.8,2.8,0,0,1-2.32,1.2,3.205,3.205,0,0,1-2.689-1.3A5.993,5.993,0,0,1,.457,39.175Zm2.962.185q0,2.531,1.477,2.531A1.458,1.458,0,0,0,6.3,41.064V37.443A1.419,1.419,0,0,0,4.913,36.6q-1.371,0-1.485,2.215Zm7.163-.2a5.613,5.613,0,0,1,.554-2.536,3.96,3.96,0,0,1,1.591-1.709,4.791,4.791,0,0,1,2.435-.6,4.373,4.373,0,0,1,3.366,1.323,5.076,5.076,0,0,1,1.23,3.6v.105a4.925,4.925,0,0,1-1.235,3.529,4.384,4.384,0,0,1-3.344,1.305,4.434,4.434,0,0,1-3.261-1.217,4.761,4.761,0,0,1-1.327-3.3Zm2.962.185a3.538,3.538,0,0,0,.413,1.934,1.376,1.376,0,0,0,1.222.615q1.582,0,1.617-2.435v-.3q0-2.558-1.635-2.558-1.485,0-1.608,2.206Zm13.184,3.63a3.054,3.054,0,0,1-2.54,1.2,3,3,0,0,1-2.369-.91,3.826,3.826,0,0,1-.8-2.615V34.49h2.962v6.179a1.065,1.065,0,0,0,1.187,1.222,1.548,1.548,0,0,0,1.45-.729V34.49h2.979V44H26.815Zm13.315-3.647a5.8,5.8,0,0,1-.967,3.595,3.238,3.238,0,0,1-2.725,1.257,2.81,2.81,0,0,1-2.338-1.151L33.891,44H31.236V30.5H34.2v4.755a2.711,2.711,0,0,1,2.136-.94,3.239,3.239,0,0,1,2.742,1.274,5.826,5.826,0,0,1,.967,3.586Zm-2.971-.189a3.866,3.866,0,0,0-.365-1.952,1.229,1.229,0,0,0-1.121-.584,1.418,1.418,0,0,0-1.389.763v3.773a1.426,1.426,0,0,0,1.406.755,1.258,1.258,0,0,0,1.327-1.018A7.309,7.309,0,0,0,37.072,39.135ZM44.473,44H41.5V30.5h2.971Zm4.948,0H46.45V34.49h2.971ZM46.274,32.038A1.322,1.322,0,0,1,46.731,31,1.943,1.943,0,0,1,49.1,31a1.405,1.405,0,0,1,0,2.074,1.943,1.943,0,0,1-2.373,0A1.322,1.322,0,0,1,46.274,32.038Zm7.69,2.452.1,1.116a3.225,3.225,0,0,1,2.716-1.292A2.713,2.713,0,0,1,59,35.2a4.226,4.226,0,0,1,.76,2.672V44H56.786V38a1.6,1.6,0,0,0-.29-1.059,1.342,1.342,0,0,0-1.055-.338,1.413,1.413,0,0,0-1.292.686V44H51.188V34.49Zm7.084,4.685a6.421,6.421,0,0,1,.475-2.549,3.821,3.821,0,0,1,1.362-1.709,3.591,3.591,0,0,1,2.065-.6,2.855,2.855,0,0,1,2.32,1l.105-.826h2.689V43.64a4.009,4.009,0,0,1-.584,2.184,3.75,3.75,0,0,1-1.692,1.424,6.219,6.219,0,0,1-2.566.5,5.365,5.365,0,0,1-2.026-.4,3.657,3.657,0,0,1-1.5-1.028l1.239-1.74a2.716,2.716,0,0,0,2.18.976,1.764,1.764,0,0,0,1.969-2.021v-.3a2.781,2.781,0,0,1-2.153.94,3.437,3.437,0,0,1-2.812-1.332,5.517,5.517,0,0,1-1.072-3.564Zm2.971.185a3.383,3.383,0,0,0,.439,1.85,1.387,1.387,0,0,0,1.23.681,1.573,1.573,0,0,0,1.4-.642v-4a1.534,1.534,0,0,0-1.38-.65,1.4,1.4,0,0,0-1.239.708A3.858,3.858,0,0,0,64.02,39.359Z" transform="translate(554 6080)" fill="#fff"/>
    <g id="Trazado_206945" data-name="Trazado 206945" transform="translate(705 6005)" fill="#f0f4ff">
      <path d="M 97.5 193.5 C 90.98554992675781 193.5 84.47562408447266 192.8437957763672 78.15107727050781 191.5496063232422 C 71.98799896240234 190.2884521484375 65.92582702636719 188.4066467285156 60.1329231262207 185.9564514160156 C 54.44487380981445 183.5505981445312 48.95859909057617 180.57275390625 43.8265495300293 177.1056060791016 C 38.74285125732422 173.6711273193359 33.96232604980469 169.7268218994141 29.61775016784668 165.3822479248047 C 25.27317428588867 161.0376739501953 21.3288745880127 156.2571563720703 17.89439964294434 151.1734771728516 C 14.42724990844727 146.0413970947266 11.44939994812012 140.5551452636719 9.043549537658691 134.8670806884766 C 6.593349933624268 129.0741729736328 4.711550235748291 123.0120010375977 3.450400114059448 116.8489532470703 C 2.156199932098389 110.5243759155273 1.5 104.0144500732422 1.5 97.5 C 1.5 90.98554992675781 2.156199932098389 84.47562408447266 3.450400114059448 78.15107727050781 C 4.711550235748291 71.98799896240234 6.593349933624268 65.92582702636719 9.043549537658691 60.1329231262207 C 11.44939994812012 54.44487380981445 14.42724990844727 48.95859909057617 17.89439964294434 43.8265495300293 C 21.3288745880127 38.74285125732422 25.27317428588867 33.96232604980469 29.61775016784668 29.61775016784668 C 33.96232604980469 25.27317428588867 38.74285125732422 21.3288745880127 43.8265495300293 17.89439964294434 C 48.95859909057617 14.42724990844727 54.44487380981445 11.44939994812012 60.1329231262207 9.043549537658691 C 65.92582702636719 6.593349933624268 71.98799896240234 4.711550235748291 78.15107727050781 3.450400114059448 C 84.47562408447266 2.156199932098389 90.98554992675781 1.5 97.5 1.5 C 104.0144500732422 1.5 110.5243759155273 2.156199932098389 116.8489532470703 3.450400114059448 C 123.0120010375977 4.711550235748291 129.0741729736328 6.593349933624268 134.8670806884766 9.043549537658691 C 140.5551452636719 11.44939994812012 146.0413970947266 14.42724990844727 151.1734771728516 17.89439964294434 C 156.2571563720703 21.3288745880127 161.0376739501953 25.27317428588867 165.3822479248047 29.61775016784668 C 169.7268218994141 33.96232604980469 173.6711273193359 38.74285125732422 177.1056060791016 43.8265495300293 C 180.57275390625 48.95859909057617 183.5505981445312 54.44487380981445 185.9564514160156 60.1329231262207 C 188.4066467285156 65.92582702636719 190.2884521484375 71.98799896240234 191.5496063232422 78.15107727050781 C 192.8437957763672 84.47562408447266 193.5 90.98554992675781 193.5 97.5 C 193.5 104.0144500732422 192.8437957763672 110.5243759155273 191.5496063232422 116.8489532470703 C 190.2884521484375 123.0120010375977 188.4066467285156 129.0741729736328 185.9564514160156 134.8670806884766 C 183.5505981445312 140.5551452636719 180.57275390625 146.0413970947266 177.1056060791016 151.1734771728516 C 173.6711273193359 156.2571563720703 169.7268218994141 161.0376739501953 165.3822479248047 165.3822479248047 C 161.0376739501953 169.7268218994141 156.2571563720703 173.6711273193359 151.1734771728516 177.1056060791016 C 146.0413970947266 180.57275390625 140.5551452636719 183.5505981445312 134.8670806884766 185.9564514160156 C 129.0741729736328 188.4066467285156 123.0120010375977 190.2884521484375 116.8489532470703 191.5496063232422 C 110.5243759155273 192.8437957763672 104.0144500732422 193.5 97.5 193.5 Z" stroke="none"/>
      <path d="M 97.5 3 C 91.08633422851562 3 84.67758178710938 3.645965576171875 78.45177459716797 4.919937133789062 C 72.38571929931641 6.1612548828125 66.41897583007812 8.013412475585938 60.71725463867188 10.425048828125 C 55.11839294433594 12.79316711425781 49.71803283691406 15.72441101074219 44.66624450683594 19.1373291015625 C 39.66166687011719 22.51835632324219 34.95547485351562 26.40133666992188 30.67842102050781 30.67842102050781 C 26.40133666992188 34.95547485351562 22.51835632324219 39.66166687011719 19.1373291015625 44.66624450683594 C 15.72441101074219 49.71803283691406 12.79316711425781 55.11839294433594 10.425048828125 60.71725463867188 C 8.013412475585938 66.41897583007812 6.1612548828125 72.38571929931641 4.919937133789062 78.45177459716797 C 3.645965576171875 84.67758178710938 3 91.08633422851562 3 97.5 C 3 103.9136657714844 3.645965576171875 110.3224182128906 4.919937133789062 116.548225402832 C 6.1612548828125 122.6142807006836 8.013412475585938 128.5810241699219 10.425048828125 134.2827453613281 C 12.79316711425781 139.8816070556641 15.72441101074219 145.2819519042969 19.1373291015625 150.3337554931641 C 22.51835632324219 155.3383331298828 26.40133666992188 160.0445251464844 30.67842102050781 164.3215789794922 C 34.95547485351562 168.5986328125 39.66166687011719 172.4816436767578 44.66624450683594 175.8626708984375 C 49.71803283691406 179.2755889892578 55.11839294433594 182.2068328857422 60.71725463867188 184.574951171875 C 66.41897583007812 186.9865875244141 72.38571929931641 188.8387451171875 78.45177459716797 190.0800628662109 C 84.67758178710938 191.3540344238281 91.08633422851562 192 97.5 192 C 103.9136657714844 192 110.3224182128906 191.3540344238281 116.548225402832 190.0800628662109 C 122.6142807006836 188.8387451171875 128.5810241699219 186.9865875244141 134.2827453613281 184.574951171875 C 139.8816070556641 182.2068328857422 145.2819519042969 179.2755889892578 150.3337554931641 175.8626708984375 C 155.3383331298828 172.4816436767578 160.0445251464844 168.5986328125 164.3215789794922 164.3215789794922 C 168.5986328125 160.0445251464844 172.4816436767578 155.3383331298828 175.8626708984375 150.3337554931641 C 179.2755889892578 145.2819519042969 182.2068328857422 139.8816070556641 184.574951171875 134.2827453613281 C 186.9865875244141 128.5810241699219 188.8387451171875 122.6142807006836 190.0800628662109 116.548225402832 C 191.3540344238281 110.3224182128906 192 103.9136657714844 192 97.5 C 192 91.08633422851562 191.3540344238281 84.67758178710938 190.0800628662109 78.45177459716797 C 188.8387451171875 72.38571929931641 186.9865875244141 66.41897583007812 184.574951171875 60.71725463867188 C 182.2068328857422 55.11839294433594 179.2755889892578 49.71803283691406 175.8626708984375 44.66624450683594 C 172.4816436767578 39.66166687011719 168.5986328125 34.95547485351562 164.3215789794922 30.67842102050781 C 160.0445251464844 26.40133666992188 155.3383331298828 22.51835632324219 150.3337554931641 19.1373291015625 C 145.2819519042969 15.72441101074219 139.8816070556641 12.79316711425781 134.2827453613281 10.425048828125 C 128.5810241699219 8.013412475585938 122.6142807006836 6.1612548828125 116.548225402832 4.919937133789062 C 110.3224182128906 3.645965576171875 103.9136657714844 3 97.5 3 M 97.5 0 C 151.3477478027344 0 195 43.6522216796875 195 97.5 C 195 151.3477478027344 151.3477478027344 195 97.5 195 C 43.6522216796875 195 0 151.3477478027344 0 97.5 C 0 43.6522216796875 43.6522216796875 0 97.5 0 Z" stroke="none" fill="#3c3fa7"/>
    </g>
    <path id="Trazado_206946" data-name="Trazado 206946" d="M34.158,23H30.4V7.359h3.76Zm15.684,0H46.093L40.55,13.268V23H36.779V7.359H40.55l5.532,9.732V7.359h3.76Zm15.189-1.934a6.062,6.062,0,0,1-2.546,1.558,10.981,10.981,0,0,1-3.674.591,6.551,6.551,0,0,1-4.909-1.88A7.61,7.61,0,0,1,51.937,16.1l-.011-1.354a9.334,9.334,0,0,1,.816-4.034,6.062,6.062,0,0,1,2.336-2.653A6.609,6.609,0,0,1,58.6,7.134a6.929,6.929,0,0,1,4.539,1.337,5.667,5.667,0,0,1,1.885,3.991H61.39a2.965,2.965,0,0,0-.838-1.869,2.7,2.7,0,0,0-1.826-.559,2.46,2.46,0,0,0-2.191,1.2,6.424,6.424,0,0,0-.784,3.438v.945a6.289,6.289,0,0,0,.8,3.518,2.831,2.831,0,0,0,2.519,1.176,3.168,3.168,0,0,0,2.191-.655V17.231H58.64V14.643h6.392ZM28.1,36.77h-6.08V43H18.254V27.359H28.717v2.911H22.025v3.6H28.1ZM43.531,35.5a9.223,9.223,0,0,1-.849,4.05,6.272,6.272,0,0,1-2.412,2.712,6.715,6.715,0,0,1-3.561.951,6.81,6.81,0,0,1-3.545-.918,6.261,6.261,0,0,1-2.412-2.626,8.958,8.958,0,0,1-.908-3.921v-.881a9.264,9.264,0,0,1,.843-4.055A6.257,6.257,0,0,1,33.105,28.1a7.155,7.155,0,0,1,7.127-.011,6.369,6.369,0,0,1,2.422,2.691,9,9,0,0,1,.875,4ZM39.7,34.847a6.577,6.577,0,0,0-.779-3.54A2.5,2.5,0,0,0,36.688,30.1q-2.836,0-3,4.254L33.68,35.5a6.764,6.764,0,0,0,.763,3.534,2.494,2.494,0,0,0,2.267,1.235,2.464,2.464,0,0,0,2.2-1.214,6.58,6.58,0,0,0,.784-3.491Zm11.591,2.621H49.246V43H45.475V27.359H51.63a6.87,6.87,0,0,1,4.351,1.234,4.181,4.181,0,0,1,1.568,3.488,5.078,5.078,0,0,1-.661,2.7,4.689,4.689,0,0,1-2.068,1.738l3.266,6.315V43H54.047Zm-2.041-2.9H51.63A2.141,2.141,0,0,0,53.247,34a2.186,2.186,0,0,0,.542-1.578,2.211,2.211,0,0,0-.548-1.588,2.121,2.121,0,0,0-1.611-.576H49.246Zm15.533-7.208L68.27,38.241l3.48-10.882h4.963V43H72.932V39.348l.365-7.477L69.516,43H67.024L63.232,31.86l.365,7.487V43H59.827V27.359ZM21,57.468H18.963V63H15.193V47.359h6.155A6.87,6.87,0,0,1,25.7,48.593a4.181,4.181,0,0,1,1.568,3.488,5.078,5.078,0,0,1-.661,2.7,4.689,4.689,0,0,1-2.068,1.738L27.8,62.839V63H23.765Zm-2.041-2.9h2.385A2.141,2.141,0,0,0,22.965,54a2.186,2.186,0,0,0,.542-1.578,2.211,2.211,0,0,0-.548-1.588,2.121,2.121,0,0,0-1.611-.576H18.963Zm22.849-7.208V57.6a5.884,5.884,0,0,1-.741,3.013,4.8,4.8,0,0,1-2.127,1.939,7.493,7.493,0,0,1-3.276.666,6.473,6.473,0,0,1-4.5-1.482,5.287,5.287,0,0,1-1.676-4.061V47.359h3.792V57.747q.064,2.567,2.385,2.567a2.308,2.308,0,0,0,1.772-.645,3.013,3.013,0,0,0,.6-2.095V47.359ZM47.935,60.1H54.5V63H44.165V47.359h3.771Zm17.854-3.738h-5.93V60.1h7V63H56.088V47.359h10.8v2.911H59.859v3.3h5.93Zm10.678,2.481a1.549,1.549,0,0,0-.585-1.289,7.277,7.277,0,0,0-2.057-.956,19.736,19.736,0,0,1-2.406-.956q-3.04-1.493-3.04-4.1a3.68,3.68,0,0,1,.757-2.293A4.9,4.9,0,0,1,71.278,47.7a8.34,8.34,0,0,1,3.115-.553,7.3,7.3,0,0,1,3.024.6A4.788,4.788,0,0,1,79.5,49.459,4.474,4.474,0,0,1,80.237,52h-3.76a1.891,1.891,0,0,0-.585-1.482,2.282,2.282,0,0,0-1.584-.526,2.573,2.573,0,0,0-1.6.446,1.313,1.313,0,0,0,.059,2.224,8.128,8.128,0,0,0,2.267,1.01A13.885,13.885,0,0,1,77.7,54.793a4.477,4.477,0,0,1,2.535,4.028,3.819,3.819,0,0,1-1.547,3.223,6.88,6.88,0,0,1-4.243,1.171A8.418,8.418,0,0,1,71,62.533a5.191,5.191,0,0,1-2.32-1.869A4.87,4.87,0,0,1,67.9,57.93h3.781a2.4,2.4,0,0,0,.65,1.853,3.072,3.072,0,0,0,2.111.6,2.427,2.427,0,0,0,1.477-.4A1.33,1.33,0,0,0,76.466,58.843Z" transform="translate(755 6070)" fill="#12263f"/>
    <path id="Trazado_206952" data-name="Trazado 206952" d="M0,0V27" transform="translate(802.5 5978)" fill="none" stroke="#3c3fa7" stroke-width="4"/>
    <path id="Trazado_206950" data-name="Trazado 206950" d="M0,0V38.5" transform="translate(802.5 6196.5)" fill="none" stroke="#3c3fa7" stroke-width="4"/>
    <path id="Trazado_206951" data-name="Trazado 206951" d="M0,0H34.5" transform="translate(671 6102.5)" fill="none" stroke="#3c3fa7" stroke-width="4"/>
    <path id="Trazado_206949" data-name="Trazado 206949" d="M0,0V27" transform="translate(899 6102.5) rotate(-90)" fill="none" stroke="#3c3fa7" stroke-width="4"/>
  </g>
</svg>
