<svg xmlns="http://www.w3.org/2000/svg" xmlns:xlink="http://www.w3.org/1999/xlink" width="78" height="78" viewBox="0 0 78 78">
  <defs>
    <clipPath id="clip-path">
      <rect id="Rectángulo_338362" data-name="Rectángulo 338362" width="53.815" height="53.817" fill="none"/>
    </clipPath>
  </defs>
  <g id="Grupo_982663" data-name="Grupo 982663" transform="translate(4211 9070)">
    <circle id="Elipse_4896" data-name="Elipse 4896" cx="39" cy="39" r="39" transform="translate(-4211 -9070)" fill="#6b8dfc"/>
    <g id="Grupo_982662" data-name="Grupo 982662" transform="translate(-4199 -9058)">
      <g id="Grupo_982661" data-name="Grupo 982661" transform="translate(0 0)" clip-path="url(#clip-path)">
        <path id="Trazado_205316" data-name="Trazado 205316" d="M23.079,8.233c1.739-1.816,2.67-1.816,4.349.067V5.654c0-3.737,0-3.737-3.374-3.652a1.647,1.647,0,0,1-.272,0c-.5-.067-.726.109-.715.733.033,1.791.011,3.583.011,5.5" transform="translate(-11.572 -0.994)" fill="#f7a32f"/>
        <path id="Trazado_205317" data-name="Trazado 205317" d="M10.653,51.478c.542.716,2.115,2.661,2.81,3.489l-.045-2.419c0-1.564.213-1.8,1.588-1.8h3.027c.862,0,1.2-.4,1.2-1.409V38.671c0-1.009-.339-1.4-1.2-1.4H3.014c-.9,0-1.227.386-1.227,1.447V49.236c0,1.149.305,1.507,1.3,1.507h0c2.3.007,3.67.016,5.972-.023a1.781,1.781,0,0,1,1.6.757" transform="translate(-0.896 -18.695)" fill="#fcc059"/>
        <path id="Trazado_205318" data-name="Trazado 205318" d="M87.026,28.833H73.08c-.762,0-1.081.324-1.081,1.1q-.006,4.284,0,8.568c0,.768.321,1.092,1.086,1.092,1.083,0,2.166-.007,3.249,0a.919.919,0,0,1,1.043,1.023c.006.385,0,.77,0,1.292.658-.664,1.229-1.2,1.756-1.783a1.625,1.625,0,0,1,1.334-.544c2.183.023,4.368.008,6.552.008.8,0,1.116-.317,1.116-1.119v0q0-4.256,0-8.511c0-.808-.311-1.125-1.11-1.125M84.1,36.9c-2.968,0-5.937-.009-8.906.011-.417,0-.525-.094-.517-.515.025-1.286,0-1.286,1.3-1.286h4.09c1.643,0,3.288.011,4.93-.009.365,0,.462.09.457.453C85.444,36.9,85.459,36.9,84.1,36.9m0-3.583c-2.968,0-5.937-.009-8.906.011-.419,0-.525-.1-.517-.52.026-1.285.005-1.285,1.3-1.285H80.12c1.626,0,3.251.012,4.875-.009.367,0,.459.092.459.459-.008,1.344.006,1.344-1.356,1.344" transform="translate(-36.118 -14.465)" fill="#fe5d7c"/>
        <path id="Trazado_205319" data-name="Trazado 205319" d="M53.709,28.793a2.617,2.617,0,0,0-1.694.3l-3.071,2.985a.955.955,0,0,1-1.685-.7c.012-.724-.022-1.449.012-2.171.021-.37-.112-.442-.459-.429-.7.026-1.408.007-2.111.007a2.918,2.918,0,0,1-.494,0A2.776,2.776,0,0,1,41.637,25.8V17.177a2.7,2.7,0,0,1,0-.534,2.811,2.811,0,0,1,3.085-2.485c2.869,0,5.739-.005,8.608.006.345,0,.5-.035.5-.445-.021-3.142-.013-6.284-.013-9.427,0-.776-.341-1.1-1.147-1.1q-14.2.007-28.4-.01c-.371,0-.444.1-.444.443.02,1.558,0,3.119.014,4.681,0,.554-.054,1.051-.689,1.236s-.963-.232-1.259-.688c-.267-.412-.552-.812-.869-1.273-.342.5-.655.943-.938,1.378a1.023,1.023,0,0,1-1.2.584c-.557-.164-.684-.6-.679-1.124.015-1.6-.007-3.2.015-4.8,0-.356-.089-.452-.451-.438-.7.03-1.408.009-2.111.009-.88,0-1.2.31-1.2,1.169,0,4.931,0,9.864-.01,14.8,0,.4.089.5.506.5q4.421-.025,8.842-.008h.079a2.748,2.748,0,0,1,2.76,2.736q.023,4.572,0,9.142v.066A2.759,2.759,0,0,1,23.8,34.267c-.8.015-1.6.019-2.4,0-.3-.011-.4.072-.39.374.022.7,0,1.41.01,2.114a1,1,0,0,1-.573,1.077,1.012,1.012,0,0,1-1.192-.35c-.879-.865-1.792-1.7-2.636-2.6a1.877,1.877,0,0,0-1.573-.637c-.495.016-.591.132-.591.6q.011,9.113.011,18.225c0,1.05.263,1.311,1.344,1.311H52.468c1.079,0,1.348-.262,1.348-1.311V34.79q0-2.767,0-5.541c0-.151.106-.349-.108-.456" transform="translate(-7.249 -1.594)" fill="#dcd9ea"/>
        <path id="Trazado_205320" data-name="Trazado 205320" d="M51.2,12.573c-.056,0-.113,0-.169,0-1.01-.007-2.02-.022-3.03.009-.4.012-.487-.1-.486-.489.017-3.007.01-6.014.009-9.022A2.724,2.724,0,0,0,44.5.019H9.316A2.728,2.728,0,0,0,6.283,2.4a2.759,2.759,0,0,0,0,.669c0,4.8,0,9.6.009,14.4,0,.392-.092.5-.487.487-1.01-.031-2.02-.015-3.03-.009A2.676,2.676,0,0,0,.008,20.53c0,.056,0,.111,0,.167q-.015,4.427,0,8.854A2.677,2.677,0,0,0,2.614,32.3c.055,0,.11,0,.165,0,.99.007,1.98.026,2.97-.01.442-.015.543.111.543.546q-.023,8.937-.01,17.875c0,2.064,1.037,3.11,3.084,3.11H44.387c2.105,0,3.139-1.024,3.139-3.111V44.038q0-8.321-.009-16.643c0-.392.092-.5.486-.487,1.01.031,2.02.016,3.03.009a2.675,2.675,0,0,0,2.77-2.575c0-.057,0-.114,0-.171q.019-4.426,0-8.854a2.675,2.675,0,0,0-2.6-2.744M12.211,1.008a1.765,1.765,0,0,0,.272,0C15.856.923,15.856.923,15.856,4.66V7.306c-1.679-1.883-2.61-1.883-4.349-.067,0-1.916.022-3.707-.011-5.5-.011-.623.216-.8.715-.733M2.187,31.73h0c-.993,0-1.3-.347-1.3-1.463V20.047c0-1.031.325-1.405,1.227-1.405H17.133c.865,0,1.2.384,1.2,1.364V30.361c0,.981-.339,1.364-1.2,1.368H14.109c-1.375,0-1.588.234-1.588,1.753l.031,2.41s-2.4-2.64-2.938-3.334a1.8,1.8,0,0,0-1.6-.735c-2.3.038-3.528-.085-5.829-.092m44.381-3.97q0,2.762,0,5.518V51.483c0,1.044-.27,1.3-1.348,1.3H8.565c-1.081,0-1.344-.259-1.344-1.3q0-9.074-.011-18.148c0-.466.1-.582.591-.6a1.883,1.883,0,0,1,1.573.634c.844.893,1.757,1.726,2.636,2.587a1.014,1.014,0,0,0,1.192.349.991.991,0,0,0,.573-1.072c-.014-.7.012-1.4-.01-2.1-.009-.3.085-.384.391-.373.8.019,1.6.015,2.4,0a2.753,2.753,0,0,0,2.833-2.667c0-.022,0-.044,0-.066q.023-4.551,0-9.1a2.742,2.742,0,0,0-2.76-2.725h-.078q-4.421-.017-8.842.007c-.417,0-.507-.1-.506-.5.015-4.912.009-9.824.011-14.734,0-.855.317-1.16,1.2-1.164.7,0,1.407.02,2.111-.009.362-.015.455.081.451.435-.022,1.592,0,3.186-.015,4.778,0,.525.123.955.679,1.119a1.024,1.024,0,0,0,1.2-.581c.283-.433.6-.873.938-1.372.317.459.6.858.869,1.268.3.454.624.869,1.259.685s.694-.679.689-1.231c-.015-1.555.006-3.11-.014-4.661,0-.343.073-.442.445-.441q14.2.016,28.4.01c.806,0,1.146.325,1.147,1.1,0,3.129-.007,6.258.013,9.387,0,.408-.154.445-.5.443-2.869-.011-5.739-.007-8.608-.005a2.808,2.808,0,0,0-3.085,2.474,2.676,2.676,0,0,0,0,.532v8.59A2.768,2.768,0,0,0,36.959,27.3a2.919,2.919,0,0,0,.494,0c.7,0,1.406.018,2.111-.007.346-.013.48.058.458.427-.034.719,0,1.441-.012,2.162a.93.93,0,0,0,.576.963.945.945,0,0,0,1.109-.266l3.071-2.972a2.631,2.631,0,0,1,1.695-.3c.213.107.107.3.107.454M52.016,24v0c0,.8-.316,1.119-1.116,1.119-2.185,0-4.369.015-6.552-.008a1.624,1.624,0,0,0-1.335.543c-.526.581-1.1,1.12-1.755,1.784,0-.522.006-.907,0-1.292a.919.919,0,0,0-.8-1.025.9.9,0,0,0-.246,0c-1.083-.007-2.165,0-3.249,0-.765,0-1.085-.324-1.086-1.093q-.005-4.284,0-8.568c0-.771.319-1.1,1.082-1.1H50.907c.8,0,1.109.316,1.11,1.125q0,4.255,0,8.511" transform="translate(0 0)"/>
        <path id="Trazado_205321" data-name="Trazado 205321" d="M25.766,84.6q13.42-.023,26.84-.011c1.3,0,1.274,0,1.3-1.286.008-.424-.1-.515-.519-.514-4.591.016-9.189.01-13.785.01H26.436c-1.235,0-1.209,0-1.246,1.234-.014.466.114.567.576.567" transform="translate(-12.637 -41.535)"/>
        <path id="Trazado_205322" data-name="Trazado 205322" d="M62.361,89.979q-8.937.026-17.874.012c-1.3,0-1.275,0-1.3,1.285-.008.422.1.518.518.515,3.122-.019,6.238-.011,9.357-.011h8.631c1.236,0,1.21,0,1.247-1.233.011-.466-.114-.571-.578-.569" transform="translate(-21.665 -45.14)"/>
        <path id="Trazado_205323" data-name="Trazado 205323" d="M46.779,69.681c-.008.421.1.519.517.516,2.8-.021,5.6-.011,8.4-.011h7.789c1.236,0,1.211,0,1.247-1.232.013-.468-.11-.575-.574-.573-5.361.018-10.721.012-16.081.012-1.3,0-1.275,0-1.3,1.288" transform="translate(-23.467 -34.305)"/>
        <path id="Trazado_205324" data-name="Trazado 205324" d="M47.595,19.34l-.008,0a4.315,4.315,0,0,0,4.768-.614c.54-.424.528-.438,0-.9a4.779,4.779,0,0,1-.459-.41c-.251-.283-.421-.315-.754-.031a2.612,2.612,0,0,1-3.516-.158,2.67,2.67,0,0,1-.307-3.516,2.714,2.714,0,0,1,3.5-.757c.268.147.443.559.755.459.276-.087.486-.392.725-.6a1.507,1.507,0,0,1,.21-.184c.38-.224.275-.415,0-.651a4.341,4.341,0,0,0-4.8-.788,4.448,4.448,0,0,0-.12,8.149" transform="translate(-22.569 -5.415)"/>
        <path id="Trazado_205325" data-name="Trazado 205325" d="M32.906,77.4c3.567-.018,7.134-.011,10.7-.011,1.363,0,1.348,0,1.356-1.344,0-.367-.092-.459-.459-.459q-1.442.014-2.885.012H33.691c-1.3,0-1.276,0-1.3,1.286-.008.421.1.519.517.517" transform="translate(-16.248 -37.921)"/>
        <path id="Trazado_205326" data-name="Trazado 205326" d="M43.151,35.534c-.039.353.085.433.429.428.822-.009,1.643-.012,2.465-.012H52.6c1.326,0,1.307,0,1.328-1.318.005-.4-.1-.488-.489-.485-2.97.017-5.939.006-8.907.013-.443,0-1.023-.191-1.291.079s-.04.854-.093,1.295" transform="translate(-21.627 -17.104)"/>
        <path id="Trazado_205327" data-name="Trazado 205327" d="M47.313,43.2h5.322c1.332,0,1.315,0,1.332-1.312.005-.387-.083-.494-.483-.491-2.987.019-5.976.01-8.964.01-1.344,0-1.332,0-1.332,1.368,0,.338.071.439.426.434,1.233-.013,2.466-.011,3.7-.009" transform="translate(-21.666 -20.768)"/>
        <path id="Trazado_205328" data-name="Trazado 205328" d="M53.484,48.6c-2.987.018-5.976.01-8.964.01-1.343,0-1.329,0-1.33,1.371,0,.344.08.436.43.433,1.232-.015,2.465-.013,3.7-.01H52.64c1.329,0,1.311,0,1.331-1.315.005-.392-.092-.49-.487-.488" transform="translate(-21.667 -24.38)"/>
        <path id="Trazado_205329" data-name="Trazado 205329" d="M53.457,55.8c-2.97.02-5.939.011-8.906.011-1.362,0-1.347,0-1.355,1.345,0,.367.092.459.459.459,1.643-.02,3.287-.009,4.931-.009h4.089c1.3,0,1.274,0,1.3-1.285.006-.429-.1-.525-.519-.521" transform="translate(-21.67 -27.992)"/>
        <path id="Trazado_205330" data-name="Trazado 205330" d="M31.987,89.988C31.2,90,30.419,90,29.635,90h-3.08c-1.362,0-1.347,0-1.356,1.344,0,.367.092.459.459.459,1.792-.019,3.581-.009,5.377-.009,1.377,0,1.37,0,1.354-1.4,0-.318-.086-.41-.4-.4" transform="translate(-12.642 -45.144)"/>
        <path id="Trazado_205331" data-name="Trazado 205331" d="M76.953,75.589c-1.193.025-2.387.009-3.581.009-1.424,0-1.416,0-1.385,1.424.005.284.065.386.367.377.383-.011.765-.013,1.148-.012s.766,0,1.149,0h1.4c1.344,0,1.331,0,1.331-1.368,0-.337-.074-.44-.429-.434" transform="translate(-36.109 -37.92)"/>
        <path id="Trazado_205332" data-name="Trazado 205332" d="M36.4,70.21c.918-.02,1.83-.026,2.743,0,.367.011.459-.1.459-.459-.008-1.343.006-1.343-1.357-1.343h-.9c-1.377,0-1.368,0-1.351,1.4,0,.32.085.405.4.4" transform="translate(-18.056 -34.319)"/>
        <path id="Trazado_205333" data-name="Trazado 205333" d="M63.018,75.609H62.57c-1.469,0-1.469,0-1.4,1.469.01.215.022.339.294.334,1.01-.016,2.02-.008,3.025,0,.169,0,.251-.026.28-.233.2-1.445.109-1.561-1.3-1.561Z" transform="translate(-30.676 -37.931)"/>
        <path id="Trazado_205334" data-name="Trazado 205334" d="M26.1,77.4c.908,0,.908,0,.908-.885,0-.908,0-.908-.885-.908-.908,0-.908,0-.908.885,0,.908,0,.908.885.908" transform="translate(-12.651 -37.931)"/>
        <path id="Trazado_205335" data-name="Trazado 205335" d="M87.69,34.205c-1.624.021-3.25.009-4.875.009H78.672c-1.3,0-1.276,0-1.3,1.286-.008.423.1.522.517.52,2.969-.02,5.939-.011,8.906-.011,1.362,0,1.348,0,1.356-1.344,0-.367-.092-.459-.459-.459" transform="translate(-38.814 -17.16)"/>
        <path id="Trazado_205336" data-name="Trazado 205336" d="M87.691,41.4c-1.642.02-3.287.009-4.93.009h-4.09c-1.3,0-1.275,0-1.3,1.286-.008.422.1.518.517.515,2.97-.02,5.939-.011,8.906-.011,1.361,0,1.347,0,1.355-1.345,0-.363-.093-.458-.457-.453" transform="translate(-38.814 -20.771)"/>
        <path id="Trazado_205337" data-name="Trazado 205337" d="M9.515,46.813c2.97-.02,5.939-.011,8.906-.011,1.362,0,1.347,0,1.355-1.345,0-.367-.092-.459-.459-.459-1.643.02-3.287.009-4.931.009H10.3c-1.3,0-1.275,0-1.3,1.285-.007.427.1.524.519.521" transform="translate(-4.513 -22.574)"/>
        <path id="Trazado_205338" data-name="Trazado 205338" d="M18.485,54c1.3,0,1.275,0,1.3-1.286.008-.42-.1-.518-.517-.516-2.969.02-5.939.011-8.906.011-1.361,0-1.347,0-1.356,1.344,0,.367.092.459.459.459,1.624-.02,3.25-.009,4.874-.009Z" transform="translate(-4.519 -26.187)"/>
      </g>
    </g>
  </g>
</svg>
