<svg xmlns="http://www.w3.org/2000/svg" xmlns:xlink="http://www.w3.org/1999/xlink" width="715" height="244.514" viewBox="0 0 715 244.514">
  <defs>
    <clipPath id="clip-path">
      <rect id="Rectángulo_338292" data-name="Rectángulo 338292" width="262" height="218" transform="translate(806 3498)" fill="none" stroke="#707070" stroke-width="1"/>
    </clipPath>
    <clipPath id="clip-path-2">
      <rect id="Rectángulo_338808" data-name="Rectángulo 338808" width="183.406" height="343.378" fill="none"/>
    </clipPath>
    <clipPath id="clip-path-3">
      <path id="Trazado_204746" data-name="Trazado 204746" d="M0,0H244V224H87.391S62.356,244.514,50.06,244.514,24.451,224,24.451,224H0Z" transform="translate(1068 3492)" fill="none" stroke="#707070" stroke-width="1"/>
    </clipPath>
    <clipPath id="clip-path-4">
      <rect id="Rectángulo_338386" data-name="Rectángulo 338386" width="242.736" height="322.687" fill="none"/>
    </clipPath>
    <clipPath id="clip-path-6">
      <rect id="Rectángulo_338383" data-name="Rectángulo 338383" width="15.903" height="11.696" fill="none"/>
    </clipPath>
  </defs>
  <g id="Grupo_982942" data-name="Grupo 982942" transform="translate(-443 -2974.272)">
    <g id="Grupo_982432" data-name="Grupo 982432" transform="translate(443 2952.792)">
      <path id="Rectángulo_338258" data-name="Rectángulo 338258" d="M61,0H654a61,61,0,0,1,61,61v66.708a0,0,0,0,1,0,0H0a0,0,0,0,1,0,0V61A61,61,0,0,1,61,0Z" transform="translate(0 123)" fill="#3c3fa7"/>
    </g>
    <rect id="Rectángulo_338291" data-name="Rectángulo 338291" width="610" height="9" transform="translate(496 3198.272)" fill="#fff"/>
    <g id="Enmascarar_grupo_420" data-name="Enmascarar grupo 420" transform="translate(-262 -517.728)" clip-path="url(#clip-path)">
      <g id="Grupo_982516" data-name="Grupo 982516" transform="translate(-42.558 41.217)">
        <g id="Grupo_982515" data-name="Grupo 982515" transform="translate(0 -22.706)">
          <g id="Grupo_982513" data-name="Grupo 982513">
            <path id="Trazado_204741" data-name="Trazado 204741" d="M218.109,19.435H163.673c-3.347,0-6.916.163-6.916,5.036s-.756,35.212-.084,39.806c.557,3.817,2.538,5.672,10.793,5.835s45.515-.115,49.751,0c2.676.073,7.7.073,8.031-5.684.34-5.863.248-33.866.213-39.143.035-6.254-7.353-5.848-7.353-5.848" transform="translate(872.258 3466.276)" fill="#e28279"/>
            <path id="Trazado_204742" data-name="Trazado 204742" d="M187.775,61.132s-.434,8.686-3.908,15.2c0,0,11.075-1.954,14.549-16.721Z" transform="translate(876.479 3472.449)" fill="#e28279"/>
          </g>
          <path id="Trazado_204743" data-name="Trazado 204743" d="M213.23,29.9H165.939c-.323,0-.668.01-.668.33s-.074,2.307-.008,2.608c.053.249.245.371,1.042.382s46.428-.006,46.838,0c.26,0,.744,0,.776-.373s.024-2.218.021-2.564c0-.41-.709-.383-.709-.383" transform="translate(873.616 3467.884)" fill="#fff"/>
          <path id="Trazado_204744" data-name="Trazado 204744" d="M213.23,40.836H165.939c-.323,0-.668.01-.668.33s-.074,2.307-.008,2.608c.053.249.245.371,1.042.382s46.428-.006,46.838,0c.26,0,.744,0,.776-.373s.024-2.218.021-2.564c0-.41-.709-.383-.709-.383" transform="translate(873.616 3469.564)" fill="#fff"/>
          <path id="Trazado_204745" data-name="Trazado 204745" d="M213.23,52.27H165.939c-.323,0-.668.01-.668.33s-.074,2.307-.008,2.608c.053.249.245.371,1.042.382s46.428-.006,46.838,0c.26,0,.744,0,.776-.373s.024-2.218.021-2.564c0-.41-.709-.383-.709-.383" transform="translate(873.616 3471.32)" fill="#fff"/>
        </g>
        <g id="Grupo_983803" data-name="Grupo 983803" transform="translate(290.818 -1470.093)">
          <g id="Grupo_983804" data-name="Grupo 983804" transform="translate(603.74 4936.661)">
            <g id="Grupo_983803-2" data-name="Grupo 983803" transform="translate(0 0)" clip-path="url(#clip-path-2)">
              <path id="Trazado_211217" data-name="Trazado 211217" d="M55.782,330.373l-.4-.561c5.113-3.606,6.236-10.678,5.08-16.087-1.3-6.068-4.972-11.361-8.215-16.03-3.5-5.036-7.092-10.21-8.512-16.187-1.26-5.3-.7-10.819-.155-16.157.259-2.543.526-5.173.592-7.742a50.3,50.3,0,0,0-14.123-36.136c-1.829-1.883-3.883-3.72-5.869-5.5-6.02-5.387-12.245-10.956-13.564-18.852l.677-.113c1.279,7.657,7.413,13.145,13.344,18.452,2,1.785,4.058,3.631,5.9,5.531a50.989,50.989,0,0,1,14.317,36.632c-.067,2.6-.336,5.238-.6,7.795-.537,5.281-1.092,10.742.14,15.928,1.39,5.85,4.946,10.969,8.385,15.921,3.3,4.755,7.021,10.107,8.346,16.311,1.2,5.63.013,13-5.356,16.791" transform="translate(118.662 -138.066)" fill="#211010"/>
              <path id="Trazado_211218" data-name="Trazado 211218" d="M179.739,320.149c-6.285-8.2-11.2-18.358-12-24.7-1.488-11.744,8.6-27.48-9.524-47.624-13.071-14.529-11.14-19.354-11.14-19.354l-112.7,3.6s-1.533,17.734-7.445,27.47-16.4,17.607-8.5,36.408c6.477,15.427-2.673,31.985-7.617,41.354-4.871,9.23-1.393,18.021,7.827,38.29,0,0,5.209,2.506,9.389,4.2l.591-9.142c1.573.478,3.979,10.669,5.834,11.018a47.644,47.644,0,0,0,5.879.73c-3.5-6.781-4.945-14-2.8-20.187,7.7-25.148,12.186-49.89,1.4-74.895-7.822-18.787,5.259-35.827,20.918-41.107,21.95-7.175,41.806,3.5,62.186,9.7,6.7,1.349,15.547,2.426,19.582,8.508,7.935,11.081-2.069,26.633,4.931,38.932,4.31,8.244,13.839,14.728,18.286,24.054,4.942,9.265,6.349,19.5,5.208,29.864l.416.634A20.446,20.446,0,0,0,188.157,350c1.647-2.123,2.6-15.491-8.418-29.855" transform="translate(-8.326 -160.113)" fill="#211010"/>
              <path id="Trazado_211219" data-name="Trazado 211219" d="M199.54,363.376c-4.447-9.326-13.976-15.81-18.286-24.055-7-12.3,3-27.85-4.931-38.931-4.036-6.082-12.88-7.159-19.582-8.508-20.38-6.209-40.236-16.88-62.186-9.7-15.659,5.28-28.74,22.319-20.918,41.107,10.787,25,6.3,49.746-1.4,74.894-2.146,6.185-.7,13.407,2.8,20.188a47.071,47.071,0,0,0,11.024-.617l.6-19.755,7.343,18.8s11.819,4.9,50.41-8.3,46.219-7.539,48.521-14.615-7.9-30.684-7.9-30.684l19.708,30.045c1.142-10.36-.266-20.6-5.208-29.864" transform="translate(-43.028 -196.073)" fill="#261313"/>
              <path id="Trazado_211220" data-name="Trazado 211220" d="M535.741,375.254a42.291,42.291,0,0,1-9-38,85.736,85.736,0,0,1,3.607-10.223c2.189-5.456,4.452-11.1,4.57-17,.1-4.893-1.284-9.838-2.619-14.621-1.809-6.476-3.679-13.173-1.8-19.684,1.545-5.348,5.362-9.563,9.054-13.638a67.227,67.227,0,0,0,5.947-7.208,32.4,32.4,0,0,0,4.768-24.49l.672-.144a33.1,33.1,0,0,1-4.871,25.019,67.67,67.67,0,0,1-6.007,7.285c-3.807,4.2-7.4,8.172-8.9,13.368-1.827,6.323-.066,12.631,1.8,19.308,1.349,4.831,2.744,9.825,2.644,14.819-.12,6.029-2.408,11.73-4.619,17.244a85.11,85.11,0,0,0-3.58,10.14,41.594,41.594,0,0,0,8.85,37.372Z" transform="translate(-525.443 -161.356)" fill="#211010"/>
              <path id="Trazado_211221" data-name="Trazado 211221" d="M41.975,583.7s.788,3.173,2.376,8.192a61.1,61.1,0,0,0,22.693-9.812c-1.352-4.029-2.487-7.659-3.127-10.226Z" transform="translate(103.804 -400.749)" fill="#c78743"/>
              <path id="Trazado_211222" data-name="Trazado 211222" d="M35.252,672.7,33.444,635.56s-6.473-16.782-10.752-29.534A61.1,61.1,0,0,1,0,615.839c4.287,13.549,18.953,42.29,35.252,56.859" transform="translate(148.154 -424.7)" fill="#e6ac71"/>
              <path id="Trazado_211223" data-name="Trazado 211223" d="M152.432,809.4l-76.549,3.192S59.751,865.363,49.237,910.6H180.523c-6.851-25.8-16.321-81.783-28.092-101.2" transform="translate(-11.849 -567.221)" fill="#ff6248"/>
              <path id="Trazado_211224" data-name="Trazado 211224" d="M140.882,795.928s.209,3.87.442,5.279,65.633,1.142,77.22-2.266l-1.173-5.99s-32.254,4.973-76.489,2.976" transform="translate(-77.291 -555.696)" fill="#ff3614"/>
              <path id="Trazado_211225" data-name="Trazado 211225" d="M388.825,867.273a.357.357,0,0,1-.338-.468,7.2,7.2,0,0,1,.72-1.142c2.426-3.556,9.81-14.377,13.515-32.761a.359.359,0,1,1,.7.141A89.546,89.546,0,0,1,389.8,866.067c-.306.448-.595.872-.635.973a.369.369,0,0,1-.34.233" transform="translate(-336.258 -583.49)" fill="#ff3614"/>
              <path id="Trazado_211226" data-name="Trazado 211226" d="M128.1,853.985a.358.358,0,0,1-.312-.181,224.369,224.369,0,0,1-11.944-24.458.359.359,0,0,1,.667-.266,223.5,223.5,0,0,0,11.9,24.37.358.358,0,0,1-.311.535" transform="translate(20.292 -580.857)" fill="#ff3614"/>
              <path id="Trazado_211227" data-name="Trazado 211227" d="M458.8,604.243,433.84,589.981s-1.685,4.88-3.749,11.712c7.817,6.218,16.788,11.434,26.176,13.153Z" transform="translate(-404.079 -413.456)" fill="#c78743"/>
              <path id="Trazado_211228" data-name="Trazado 211228" d="M427.415,642.276c-9.388-1.719-18.359-6.935-26.176-13.153-3.632,12.024-8.437,30.1-7.289,38.271,1.111,7.913,33.871,57.012,37.756,50.736,6.018-9.724,9.107-23.031,9.107-23.031-5.853-7.958-18.68-30.7-18.68-30.7Z" transform="translate(-375.227 -440.886)" fill="#e6ac71"/>
              <path id="Trazado_211229" data-name="Trazado 211229" d="M100.895,454.333S81.3,458,69.688,463.82s-19.479,22.934-19.479,22.934,8.181,12.524,22.369,16.509a208.211,208.211,0,0,1-.79,21.035c-.972,8.882-3.548,30.427,7.247,32.932s33.622,1.829,45.173,2.53,26.222-1.591,33.815-5.2,11.052-7.119,11.171-19.862-4.386-37.976-4.386-37.976,13.959-3.129,21.786-16.1c0,0-13.384-22.6-30.29-25.179-14.5-2.211-30.775-5.03-55.41-1.112" transform="translate(-18.211 -317.024)" fill="#fff"/>
              <path id="Trazado_211230" data-name="Trazado 211230" d="M243.515,454.76s-14.424-1.557-21.161,2.233a23.774,23.774,0,0,0,22.716,10.514c15.762-1.528,18.8-13.682,18.8-13.682s-7.775-1.293-20.36.935" transform="translate(-146.998 -317.777)" fill="#244eff"/>
              <path id="Trazado_211231" data-name="Trazado 211231" d="M456.4,583.1c.837.283.352,4.548.352,4.548s-14.634,1.443-27.117-15.862c0,0-.55-4.549,5.188-5.484,0,0,8.971,12.531,21.576,16.8" transform="translate(-402.037 -396.863)" fill="#244eff"/>
              <path id="Trazado_211232" data-name="Trazado 211232" d="M35.353,557.876c-.8.268.841,4.552.841,4.552s13.8,1.71,25.916-15.366c0,0,.6-4.539-4.8-5.577,0,0-9.964,12.354-21.954,16.391" transform="translate(110.763 -379.47)" fill="#244eff"/>
              <path id="Trazado_211233" data-name="Trazado 211233" d="M132.731,643.639c-8.507,0-15.81-.421-15.942-.428l.062-1.059c.239.016,23.965,1.38,35.639-.842,5.458-1.038,13-1.146,20.293-1.251,8.749-.126,17.012-.244,21.13-1.889a39.1,39.1,0,0,1,14.359-2.515,19.358,19.358,0,0,0,2.368-.124l.18,1.045a19.538,19.538,0,0,1-2.527.14,38.128,38.128,0,0,0-13.987,2.44c-4.3,1.717-12.659,1.836-21.508,1.964-7.248.1-14.742.211-20.11,1.233-5.3,1.008-13.027,1.287-19.957,1.287" transform="translate(-62.358 -445.376)" fill="#244eff"/>
              <path id="Trazado_211234" data-name="Trazado 211234" d="M125.447,626.87c-3.262,0-5.272-.134-5.316-.138l.073-1.057a117.134,117.134,0,0,0,21.632-.978c3.669-.515,6.592-1.017,9.172-1.46,5.85-1,9.718-1.666,16.038-1.472l1.794.058c8.36.275,17,.555,26.74-1.555a119.771,119.771,0,0,1,16.9-2.619l.056,1.059a118.781,118.781,0,0,0-16.734,2.6c-9.866,2.137-18.575,1.854-27,1.578l-1.793-.057c-6.219-.194-10.041.463-15.826,1.456-2.587.444-5.519.948-9.2,1.465a121.225,121.225,0,0,1-16.537,1.123" transform="translate(-65.076 -432.845)" fill="#244eff"/>
              <path id="Trazado_211235" data-name="Trazado 211235" d="M126.4,609.382l-.124-.9c.148-.02,14.968-2.046,25.34-2.927,2.749-.233,7.071-.367,12.543-.535,15.172-.467,38.1-1.173,52.831-4.963l.227.883c-14.828,3.816-37.818,4.524-53.031,4.993-5.458.167-9.769.3-12.494.531-10.348.879-25.145,2.9-25.294,2.922" transform="translate(-71.599 -420.514)" fill="#244eff"/>
              <path id="Trazado_211236" data-name="Trazado 211236" d="M175.834,684.28a.234.234,0,0,1-.134-.427,83.2,83.2,0,0,0,23.231-24.482.235.235,0,0,1,.4.247,83.692,83.692,0,0,1-23.363,24.62.233.233,0,0,1-.134.042" transform="translate(-68.5 -462.006)" fill="#d175a2"/>
              <path id="Trazado_211237" data-name="Trazado 211237" d="M156.82,700.322a.234.234,0,0,1-.176-.39,75.829,75.829,0,0,0,14.714-25.24.235.235,0,1,1,.444.152A76.306,76.306,0,0,1,157,700.243a.232.232,0,0,1-.176.08" transform="translate(-35.26 -472.71)" fill="#d175a2"/>
              <path id="Trazado_211238" data-name="Trazado 211238" d="M265.263,416.55a49.537,49.537,0,0,0,6.427-2.373l-.207-11.017-28.059,2.168.05,11.087c7.175,2.1,15.062,2.309,21.789.136" transform="translate(-161.118 -282.533)" fill="#c78743"/>
              <path id="Trazado_211239" data-name="Trazado 211239" d="M265.016,442.354c-6.728,2.173-14.614,1.96-21.789-.136l.031,6.868c10.591,7.916,23.658,5.075,28.294-3.291l-.109-5.815a49.556,49.556,0,0,1-6.427,2.373" transform="translate(-160.92 -308.337)" fill="#e6ac71"/>
              <path id="Trazado_211240" data-name="Trazado 211240" d="M438.327,319.853,432.99,303s-15.733-5.218-16.087,10.781,16.455,16.33,21.425,6.069" transform="translate(-379.659 -211.774)" fill="#e6ac71"/>
              <path id="Trazado_211241" data-name="Trazado 211241" d="M246.45,119.306s8.018,15,10.933,38.015c2.274,17.957-9.837,37.35-31.581,41.551-20.437,3.948-42.9-1.637-52.98-29.726s-3.9-52.256,21.513-62,44.492-5.091,52.115,12.161" transform="translate(-124.581 -71.571)" fill="#e6ac71"/>
              <path id="Trazado_211242" data-name="Trazado 211242" d="M337.634,344.876c-.14,3.1-4.959,5.4-10.763,5.137s-10.4-2.988-10.256-6.087,4.959-5.4,10.763-5.136,10.4,2.988,10.256,6.087" transform="translate(-248.963 -237.408)" fill="#c78743"/>
              <path id="Trazado_211243" data-name="Trazado 211243" d="M190.759,309.717c1.11,2.9-2.389,6.931-7.815,9.009s-10.724,1.414-11.834-1.483,2.389-6.931,7.815-9.009,10.724-1.414,11.834,1.483" transform="translate(-58.694 -215.161)" fill="#c78743"/>
              <path id="Trazado_211244" data-name="Trazado 211244" d="M336.783,255.579s-3.575-2.323,2.555-6.833,8.588-4.1,9.933-2.509c1.228,1.447.065,4.072-3.429,6.536-4.194,2.957-7.1,4.156-9.059,2.806" transform="translate(-266.796 -171.79)" fill="#211010"/>
              <path id="Trazado_211245" data-name="Trazado 211245" d="M221.033,228.558s1.9-3.585-5.874-4.89-9.712.123-10.049,2.1c-.308,1.8,2.108,3.6,6.483,4.251,5.251.78,8.443.571,9.44-1.459" transform="translate(-99.194 -156.395)" fill="#211010"/>
              <path id="Trazado_211246" data-name="Trazado 211246" d="M336.185,303.394c.327,2.154-.842,4.118-2.609,4.386s-3.465-1.261-3.792-3.415.842-4.118,2.609-4.386,3.465,1.261,3.792,3.415" transform="translate(-251.49 -210.202)" fill="#211010"/>
              <path id="Trazado_211247" data-name="Trazado 211247" d="M217.5,277.3c.326,2.154-.841,4.118-2.609,4.386s-3.465-1.261-3.792-3.415.841-4.118,2.609-4.386,3.466,1.261,3.792,3.415" transform="translate(-97.295 -191.915)" fill="#211010"/>
              <path id="Trazado_211248" data-name="Trazado 211248" d="M444.274,332.783a.32.32,0,0,1-.3-.444c.033-.078,3.229-7.856-2.231-11.276a7.1,7.1,0,0,0-5.56-1.151,8.844,8.844,0,0,0-4.845,3.777.32.32,0,0,1-.554-.321,9.335,9.335,0,0,1,5.24-4.078,7.712,7.712,0,0,1,6.059,1.229c5.924,3.71,2.517,11.984,2.481,12.068a.32.32,0,0,1-.286.2" transform="translate(-391.04 -223.621)" fill="#52180d"/>
              <path id="Trazado_211249" data-name="Trazado 211249" d="M431.245,338.845a.32.32,0,0,1-.208-.572c.052-.042,5.312-4.116,9.412-.238a.32.32,0,0,1-.44.466c-3.7-3.5-8.527.237-8.575.275a.321.321,0,0,1-.19.068" transform="translate(-386.076 -235.722)" fill="#52180d"/>
              <path id="Trazado_211250" data-name="Trazado 211250" d="M264.258,251.606a.32.32,0,0,1-.258-.57,8.656,8.656,0,0,0,2.907-4.2c.493-1.948-.346-4.534-1.761-5.426a2.258,2.258,0,0,0-2.793.426c-.031.025-.08.07-.144.128-3.373,3.067-5.327,2.435-6.374,1.365-1.92-1.966-4.541-20.177-4.834-22.247a.325.325,0,0,1,.273-.362.32.32,0,0,1,.362.273c.786,5.567,3.157,20.353,4.657,21.888,1.235,1.264,3.081.8,5.486-1.391.074-.067.13-.118.165-.147a2.884,2.884,0,0,1,3.545-.475c1.649,1.041,2.6,3.9,2.041,6.125a9.148,9.148,0,0,1-3.147,4.554.315.315,0,0,1-.123.056" transform="translate(-159.384 -154.679)" fill="#52180d"/>
              <path id="Trazado_211251" data-name="Trazado 211251" d="M261.751,352.714c2.171.234,3.531-1.19,4.365-2.742a27.466,27.466,0,0,0-9.627-1.679c.894,1.819,2.544,4.129,5.262,4.421" transform="translate(-159.453 -244.082)" fill="#d14f8e"/>
              <path id="Trazado_211252" data-name="Trazado 211252" d="M252.477,339.391a13.191,13.191,0,0,0,.867,2.239,27.465,27.465,0,0,1,9.627,1.679,12.5,12.5,0,0,0,1.2-3.566c-4.37-1.927-11.695-.352-11.695-.352" transform="translate(-156.308 -237.419)" fill="#211010"/>
              <path id="Trazado_211253" data-name="Trazado 211253" d="M170.732,140.866s38.553-17.038,43.378-50.917c0,0,40.3,38.382,51.923,24,0,0-.12-37.793-28.275-46.572-15.445-4.815-26.71-.658-26.71-.658-20.285-1.072-31.185.851-50.645,21.334-20.037,21.089-10.924,64.857,10.329,52.814" transform="translate(-127.285 -45.588)" fill="#211010"/>
              <path id="Trazado_211254" data-name="Trazado 211254" d="M308.8,183.654l0-.686a69.362,69.362,0,0,0,69.357-61.606l.683.077A70.049,70.049,0,0,1,308.8,183.654" transform="translate(-287.826 -85.051)" fill="#211010"/>
              <path id="Trazado_211255" data-name="Trazado 211255" d="M217.932,138.206a77.162,77.162,0,0,1-59.6-45.664l.632-.267a76.466,76.466,0,0,0,59.058,45.25Z" transform="translate(-81.993 -64.667)" fill="#211010"/>
              <path id="Trazado_211256" data-name="Trazado 211256" d="M175.757,125.629s-5.932-42.683,25.519-55.419c42.017-17.015,60.317,17.871,63.906,29.89a.828.828,0,0,0,1.618-.175c.394-4.036-.99-11.417-6.186-22.689C253.869,62.6,243.75,53.464,219.344,54.563c-19.575.881-45.509,14.5-49.82,37.345-3.693,19.564,3.335,39.126,6.233,33.72" transform="translate(-133.865 -38.176)" fill="#244eff"/>
              <path id="Trazado_211257" data-name="Trazado 211257" d="M433.576,129.651a.347.347,0,0,1-.176-.047.352.352,0,0,1-.129-.481,51.829,51.829,0,0,1,7.587-10.062.352.352,0,0,1,.506.489,51.09,51.09,0,0,0-7.483,9.925.352.352,0,0,1-.305.176" transform="translate(-387.681 -83.363)" fill="#1b3abf"/>
              <path id="Trazado_211258" data-name="Trazado 211258" d="M441.84,129.827a.352.352,0,0,1-.315-.509,26.643,26.643,0,0,1,10.057-10.874.352.352,0,1,1,.361.6,25.931,25.931,0,0,0-9.788,10.584.352.352,0,0,1-.316.2" transform="translate(-400.805 -82.971)" fill="#1b3abf"/>
              <path id="Trazado_211259" data-name="Trazado 211259" d="M368.622,86.883a.352.352,0,0,1-.159-.666,51.826,51.826,0,0,1,11.858-4.264.352.352,0,0,1,.156.686,51.09,51.09,0,0,0-11.7,4.207.355.355,0,0,1-.158.037" transform="translate(-307.533 -57.427)" fill="#1b3abf"/>
              <path id="Trazado_211260" data-name="Trazado 211260" d="M361.991,73.994a.352.352,0,0,1-.235-.614A26.645,26.645,0,0,1,375.123,67a.352.352,0,1,1,.113.695,25.939,25.939,0,0,0-13.01,6.212.35.35,0,0,1-.235.09" transform="translate(-300.33 -46.949)" fill="#1b3abf"/>
              <path id="Trazado_211261" data-name="Trazado 211261" d="M412.27,33.7S423.75,16.715,410.444,0c0,0-14.327,11.8,1.826,33.7" transform="translate(-354.52 -0.003)" fill="#244eff"/>
              <path id="Trazado_211262" data-name="Trazado 211262" d="M454.049,92.731s-14.364-14.628-33.388-4.91c0,0,8.714,16.386,33.388,4.91" transform="translate(-396.508 -59.209)" fill="#244eff"/>
              <path id="Trazado_211263" data-name="Trazado 211263" d="M415.54,60.093a.339.339,0,0,1-.111-.018.352.352,0,0,1-.224-.445,24.834,24.834,0,0,0,.148-15.061.352.352,0,0,1,.672-.209,25.546,25.546,0,0,1-.151,15.491.352.352,0,0,1-.334.241" transform="translate(-357.975 -30.915)" fill="#1b3abf"/>
              <path id="Trazado_211264" data-name="Trazado 211264" d="M426.262,57.6a.352.352,0,0,1-.346-.293,127.076,127.076,0,0,1-1.585-14.415.352.352,0,0,1,.333-.37.348.348,0,0,1,.37.333,126.182,126.182,0,0,0,1.575,14.335.351.351,0,0,1-.288.405.34.34,0,0,1-.059.005" transform="translate(-370.17 -29.797)" fill="#1b3abf"/>
              <path id="Trazado_211265" data-name="Trazado 211265" d="M453.722,101.906a18.917,18.917,0,0,1-2.7-.247l-9.14-1.337a.352.352,0,0,1-.3-.4.355.355,0,0,1,.4-.3l9.14,1.337c1.966.287,3.855.473,5.338-.4a.352.352,0,0,1,.358.606,5.949,5.949,0,0,1-3.1.741" transform="translate(-405.715 -69.816)" fill="#1b3abf"/>
              <path id="Trazado_211266" data-name="Trazado 211266" d="M449.87,111.473a25.353,25.353,0,0,1-8.181-1.345.352.352,0,1,1,.228-.666,24.75,24.75,0,0,0,13.452.685.352.352,0,1,1,.16.685,25.034,25.034,0,0,1-5.659.641" transform="translate(-404.48 -76.698)" fill="#1b3abf"/>
              <path id="Trazado_211267" data-name="Trazado 211267" d="M411.671,93.041s7.709-5.682,2.948-10.2-13.331,2.833-14.57,6.382,5.69,8.874,11.622,3.819" transform="translate(-352.419 -57.055)" fill="#1b3abf"/>
            </g>
          </g>
        </g>
      </g>
    </g>
    <g id="Grupo_421" data-name="Grupo 421" transform="translate(-262 -517.728)" clip-path="url(#clip-path-3)">
      <g id="Grupo_982704" data-name="Grupo 982704" transform="translate(1076.564 3496)">
        <g id="Grupo_982712" data-name="Grupo 982712" clip-path="url(#clip-path-4)">
          <g id="Grupo_982711" data-name="Grupo 982711">
            <g id="Grupo_982710" data-name="Grupo 982710" clip-path="url(#clip-path-4)">
              <path id="Trazado_205340" data-name="Trazado 205340" d="M100.469,107.962c5.824.749,11.992,1.485,17.87,1.092,13.648-.91,27.42-1.26,41.138-1.7a46.254,46.254,0,0,1,1.248-11.292,86.142,86.142,0,0,0,1.514,8.756,4.127,4.127,0,0,0,1.294,2.56,4.21,4.21,0,0,0,2.571.514l19.532-.3a121.8,121.8,0,0,0-.247-13.372,60.539,60.539,0,0,1,3.214,11.108,76.751,76.751,0,0,0,26-3.051c.332-4.092.661-8.243-.109-12.277s-2.785-8-6.233-10.234a10.35,10.35,0,0,1-2.393-1.734c-1.7-1.99-.763-5-1-7.611-.635-7.134-7.48-14.75-14.081-16.839-2.72-.86-5.675-1.135-8.113-2.614-3.109-1.883-4.849-5.429-5.669-8.97s-.884-7.212-1.536-10.787C172.489,14.857,160.3,4.175,144.3,1.062a36,36,0,0,0-15.6,0,14.548,14.548,0,0,1-4.687.791A16.815,16.815,0,0,1,120.292.8c-7.665-2.5-16.847,1.226-23.007,5.819A36.17,36.17,0,0,0,83.748,27.478c-1.132,5.034-1.468,10.857-5.456,14.131a20.776,20.776,0,0,1-5.629,2.829c-9.242,3.7-18.248,10.947-19.277,20.85-.458,4.415.653,9.252-1.637,13.056-2.167,3.6-6.7,5.039-9.468,8.2-3.813,4.365-3.463,10.881-2.637,16.617a4.162,4.162,0,0,0,.847,2.333,4.026,4.026,0,0,0,2.435.963,45.622,45.622,0,0,0,9.486.383l2.464-10.158L55.9,106.837a127.216,127.216,0,0,0,23.063,1.021q.81-4.976,1.618-9.952.717,3.974,1.433,7.948a2.819,2.819,0,0,0,3.518,2.808l12.187.1q.645-4.971,1.292-9.943l1.455,9.142" transform="translate(6.718 0)" fill="#feb777"/>
              <path id="Trazado_205341" data-name="Trazado 205341" d="M242.264,291.955q-2.57-6.825-4.7-13.807a64.031,64.031,0,0,1-1.486-6.487c.04-.021.082-.036.123-.056-5.8-34.906-23.587-124.685-56.158-148.038a21.185,21.185,0,0,0-4.1-2.269l-34.518-14.6.827-28.779L120.14,82.789l-3.05,24.747s-36.9,2.428-47.726,14.748S44.93,163.727,44.93,163.727L31.684,120.806c-.155-.811-.332-1.617-.471-2.43a27.708,27.708,0,0,1-.7-5.025,21.456,21.456,0,0,1,1.034-5.07c1.325-4.8,4.309-9.018,5.538-13.841-.785-.95-2.324-.252-3.249.562a22.642,22.642,0,0,0-6.55,9.986q-.991-8.395-2.267-16.751A38.2,38.2,0,0,0,23,79.707c-.229-.567-.663-1.227-1.264-1.116-.541.1-.753.752-.838,1.3a38.289,38.289,0,0,0,0,8.691q.562,7.389,1.124,14.781c-1.56-6.241-2.745-12.754-4.654-18.872-.259-.828-3.045-8.938-4.36-7.019a4.452,4.452,0,0,0-.591,2.442c-.084,3.836.741,7.947,1.291,11.754.541,3.743.811,8.263,2.2,11.8l-3.821-9.714c-1.152-2.926-2.068-6.169-3.645-8.9-.4-.684-2.558-3.888-3.439-2.809-.489.6.547,3.6.718,4.318A39.7,39.7,0,0,0,7,90.62c1.685,4.652,3.229,9.344,4.754,14.071C8.867,99.862,6.11,94.623.868,92.1A.777.777,0,0,0,.276,92c-.415.157-.291.772-.091,1.168,2.3,4.568,4.81,9.106,6.71,13.84A33.434,33.434,0,0,1,8.92,119.058a71.334,71.334,0,0,0,.741,8.981c.019.128.049.238.07.362,2.641,32.7,11,99.357,35.18,96.387,0,0,18.37-3.6,30.655-45.477L83.9,215.7s-15.362,38.52-17.69,49.962c0,0,68.178,38.151,118.2,0L169.9,219.447l8.923-36.276S199.2,230.124,211.43,271.9a42.173,42.173,0,0,1,.265,7.1c-.183,3.663-1.829,7.639-2.977,11.137-.469,1.432-3.016,8.527-.326,9,.786.138,1.451-.554,1.93-1.194a39.516,39.516,0,0,0,7.163-16.212c1.174,7.988.42,15.777.859,23.792a2.947,2.947,0,0,0,.435,1.657c1.4,1.846,2.54-1.239,2.729-2.2,1.453-7.388,1.636-14.959,1.813-22.486q.631,6.916,1.26,13.832c.209,2.293.547,4.616.629,6.917.068,1.875.076,3.816,1.1,5.487.233.378.608.766,1.046.69,1.384-.238,1.322-4.5,1.3-5.45q-.239-11.318-.724-22.627a163.4,163.4,0,0,0,5.251,23.014c.316,1.037,1,2.3,2.067,2.122,1.087-.185,1.29-1.648,1.214-2.749a147.072,147.072,0,0,0-3.424-23.021c1.618,5.148,3.089,11.724,6.844,15.79a3.423,3.423,0,0,0,2.169,1.165c1.248.1.432-5.1.2-5.708" transform="translate(0 13.257)" fill="#e99988"/>
              <path id="Trazado_205342" data-name="Trazado 205342" d="M85.418,51.482a12.138,12.138,0,0,0-6.788-2.192,7.614,7.614,0,0,0-6.2,3.165,9.316,9.316,0,0,0-1.289,5.234,17.458,17.458,0,0,0,16.488,17.3" transform="translate(12.221 8.467)" fill="#e99988"/>
              <path id="Trazado_205343" data-name="Trazado 205343" d="M144.278,51.482a12.132,12.132,0,0,1,6.788-2.192,7.613,7.613,0,0,1,6.2,3.165,9.326,9.326,0,0,1,1.29,5.234A17.665,17.665,0,0,1,153.736,69.6c-4.516,4.736-10.349,7.054-16.834,5.839" transform="translate(23.517 8.467)" fill="#e99988"/>
              <path id="Trazado_205344" data-name="Trazado 205344" d="M75.5,54.821c3.883-1.053,7.325,1.919,9.345,4.925a17.309,17.309,0,0,1,2.91,10.321c-.029.779,1.18.777,1.21,0a18.389,18.389,0,0,0-3.487-11.519c-2.356-3.21-6.1-6.032-10.3-4.893a.605.605,0,0,0,.321,1.166" transform="translate(12.84 9.173)" fill="#c97567"/>
              <path id="Trazado_205345" data-name="Trazado 205345" d="M81.031,55.748a12.526,12.526,0,0,0-1.213,3.468,8.292,8.292,0,0,0,.159,3.164,8.406,8.406,0,0,0,3.59,5.059c.657.422,1.264-.625.611-1.044a7.181,7.181,0,0,1-3.035-4.336,8.343,8.343,0,0,1,.932-5.7c.327-.7-.716-1.316-1.044-.61" transform="translate(13.697 9.523)" fill="#c97567"/>
              <path id="Trazado_205346" data-name="Trazado 205346" d="M141.824,70.381a14.756,14.756,0,0,1,11.871-14.4c.763-.152.439-1.318-.321-1.166a15.966,15.966,0,0,0-12.76,15.571.605.605,0,0,0,1.209,0" transform="translate(24.155 9.413)" fill="#c97567"/>
              <path id="Trazado_205347" data-name="Trazado 205347" d="M145.6,58.884a6.084,6.084,0,0,1,1.1,4.541,4.694,4.694,0,0,1-2.469,3.321c-.7.349-.084,1.392.61,1.045a5.841,5.841,0,0,0,3.024-4.045,7.274,7.274,0,0,0-1.22-5.472c-.436-.64-1.485-.035-1.044.61" transform="translate(24.723 9.964)" fill="#c97567"/>
              <path id="Trazado_205348" data-name="Trazado 205348" d="M146.268,17.537a23.8,23.8,0,0,0-9.379-5.577,59.829,59.829,0,0,0-28.625-1.206c-6.169,1.23-14.938,3.45-19.007,8.675-6.06,7.779-8.068,20-7.687,29.632a188.662,188.662,0,0,0,3.575,29.365c1.93,9.687,7.47,19.155,17.235,22.256,9.127,2.9,19.38,3.807,28.709,1.316,8.1-2.164,13.783-8.775,17.076-16.208,3.739-8.436,6.746-17.211,7.872-26.438,1.411-11.562,3.2-25.378-4.224-35.517a43.429,43.429,0,0,0-5.544-6.3" transform="translate(14.005 1.643)" fill="#e99988"/>
              <path id="Trazado_205349" data-name="Trazado 205349" d="M101.7,51.1c0,2.5-1.039,4.521-2.32,4.521s-2.32-2.024-2.32-4.521,1.038-4.521,2.32-4.521S101.7,48.6,101.7,51.1" transform="translate(16.672 8.002)" fill="#b26356"/>
              <path id="Trazado_205350" data-name="Trazado 205350" d="M126.539,51.1c0,2.5-1.038,4.521-2.32,4.521S121.9,53.6,121.9,51.1s1.038-4.521,2.32-4.521,2.32,2.024,2.32,4.521" transform="translate(20.94 8.002)" fill="#b26356"/>
              <path id="Trazado_205351" data-name="Trazado 205351" d="M110.54,34.859q1,5.635,2,11.269c.456,2.569-.366,4.47-2.851,5.52a5.833,5.833,0,0,0-2.858,2.141c-2.475,4.186-.008,8.521,4.331,9.938.967.315,1.377-1.2.418-1.516-3.923-1.281-6.188-6.364-1.842-8.868,1.5-.864,3.63-1.223,4.228-3.138.593-1.9.23-3.708-.11-5.621q-.9-5.073-1.8-10.143c-.177-1-1.692-.573-1.516.418" transform="translate(18.183 5.818)" fill="#c97567"/>
              <path id="Trazado_205352" data-name="Trazado 205352" d="M107.434,62.712a9.084,9.084,0,0,0,12.588-2.1c.619-.8-.749-1.584-1.358-.793a7.5,7.5,0,0,1-10.437,1.533c-.841-.571-1.626.792-.793,1.358" transform="translate(18.394 10.22)" fill="#c97567"/>
              <path id="Trazado_205353" data-name="Trazado 205353" d="M106.348,35.042c.748,2.252-2.269,5.28-6.737,6.762s-8.7.859-9.445-1.393,2.27-5.281,6.738-6.764,8.7-.858,9.443,1.394" transform="translate(15.47 5.642)" fill="#b26356"/>
              <path id="Trazado_205354" data-name="Trazado 205354" d="M176.111,190c11.145-6.178,19.525-15.791,25.491-26.9-7.893-19.407-17.5-35.88-28.95-44.118a21.148,21.148,0,0,0-4.094-2.274L145.1,106.743a42.123,42.123,0,0,1-20.662,8.647c-10.173,1.109-21.14-3.263-27.3-11.083-11.751,1.8-28.446,5.6-35.158,13.222-6.215,7.053-13.345,19.612-18.308,29.058A86.446,86.446,0,0,0,51.1,163.845c.641,1.173,1.273,2.383,1.915,3.607a42.828,42.828,0,0,0,13.145,13.181c.657-1.928,1.3-3.937,1.932-6.067l8.282,36.4S60.95,249.465,58.6,260.9c0,0,68.118,38.256,118.2.184l-14.442-46.239,8.978-36.263s1.854,4.291,4.77,11.414" transform="translate(7.502 17.918)" fill="#2e5d91"/>
              <path id="Trazado_205355" data-name="Trazado 205355" d="M119.586,35.042c-.748,2.252,2.269,5.28,6.737,6.762s8.7.859,9.445-1.393-2.27-5.281-6.738-6.764-8.7-.858-9.443,1.394" transform="translate(20.523 5.642)" fill="#b26356"/>
              <path id="Trazado_205356" data-name="Trazado 205356" d="M111.69,5.611a22.741,22.741,0,0,0,.64,16.442,22.748,22.748,0,0,0,11.659,11.611c2.972,1.288,6.492,2.146,8.163,4.919,1.725,2.866.717,6.56,1.384,9.837a9.614,9.614,0,0,0,12.687,7.126,16.5,16.5,0,0,0,.882,4.742,5.571,5.571,0,0,0,3.27,3.355,5.434,5.434,0,0,0,5.473-1.854,12.69,12.69,0,0,0,2.5-5.51A41.342,41.342,0,0,0,148.666,19,41.346,41.346,0,0,0,112.2,6.588" transform="translate(18.974 0.964)" fill="#feb777"/>
              <g id="Grupo_982706" data-name="Grupo 982706" transform="translate(104.817 67.032)" opacity="0.15" style="mix-blend-mode: multiply;isolation: isolate">
                <g id="Grupo_982705" data-name="Grupo 982705">
                  <g id="Grupo_982704-2" data-name="Grupo 982704" clip-path="url(#clip-path-6)">
                    <path id="Trazado_205357" data-name="Trazado 205357" d="M105.354,63.053c0,3.229-3.56,5.847-7.952,5.847s-7.952-2.618-7.952-5.847,3.56-5.848,7.952-5.848,7.952,2.619,7.952,5.848" transform="translate(-89.451 -57.205)" fill="#ea497f"/>
                  </g>
                </g>
              </g>
              <path id="Trazado_205358" data-name="Trazado 205358" d="M174.707,260.626,160.193,214.41l8.922-36.276-11.881-32.026,2.026-32.8-4.595-1.944-1.812,32.714L116.717,164.6,83.839,139.784,82.082,106.5c-2.523.63-5.04,1.353-7.463,2.181l3.732,33.33L65.858,174.274,74.2,210.662s-15.361,38.521-17.689,49.964c0,0,68.178,38.151,118.2,0" transform="translate(9.707 18.294)" fill="#ea6eb2"/>
              <g id="Grupo_982709" data-name="Grupo 982709" transform="translate(141.458 67.032)" opacity="0.15" style="mix-blend-mode: multiply;isolation: isolate">
                <g id="Grupo_982708" data-name="Grupo 982708">
                  <g id="Grupo_982707" data-name="Grupo 982707" clip-path="url(#clip-path-6)">
                    <path id="Trazado_205359" data-name="Trazado 205359" d="M136.623,63.053c0,3.229-3.56,5.847-7.952,5.847s-7.952-2.618-7.952-5.847,3.56-5.848,7.952-5.848,7.952,2.619,7.952,5.848" transform="translate(-120.72 -57.205)" fill="#ea497f"/>
                  </g>
                </g>
              </g>
              <path id="Trazado_205360" data-name="Trazado 205360" d="M145.342,109.629l-6.922-2.927a42.126,42.126,0,0,1-20.648,8.678C107.6,116.5,96.627,112.15,90.452,104.34c-2.688.416-5.64.943-8.666,1.591a30.256,30.256,0,0,0,6.235,7.986,36.907,36.907,0,0,0,18.246,8.745c14.1,2.58,29.235-2.7,39.075-13.033" transform="translate(14.049 17.924)" fill="#244d72"/>
              <path id="Trazado_205361" data-name="Trazado 205361" d="M154.579,146.108l2.026-32.8-4.595-1.944L150.2,144.081l-36.138,20.525L81.184,139.784,79.427,106.5c-2.523.63-5.04,1.353-7.463,2.181l3.732,33.33-.93,2.4L113.2,171.78l42.539-22.538Z" transform="translate(12.362 18.294)" fill="#ce599e"/>
              <path id="Trazado_205362" data-name="Trazado 205362" d="M178.694,147.058c-5.689,12.181-13.086,23.6-23.57,31.135l.477,1.148c10.5-7.478,17.974-18.763,23.742-30.873-.213-.476-.432-.94-.648-1.411" transform="translate(26.648 25.262)" fill="#244d72"/>
              <path id="Trazado_205363" data-name="Trazado 205363" d="M67.033,169.611a79.138,79.138,0,0,1-19.854-35.479q-.427.766-.846,1.526A80.369,80.369,0,0,0,66.6,170.867a5.659,5.659,0,0,1,.43-1.256" transform="translate(7.959 23.041)" fill="#244d72"/>
              <path id="Trazado_205364" data-name="Trazado 205364" d="M81.12,57.106c-.36-12.583,12.011-22.251,13.7-34.725,8.631.857,18.084-.288,24.5-6.127,2.385-2.17,4.189-6.121,1.922-8.416a6.454,6.454,0,0,0-3.6-1.5C103.471,3.9,88.146,11.328,81.283,23.961" transform="translate(13.934 1.009)" fill="#feb777"/>
              <path id="Trazado_205365" data-name="Trazado 205365" d="M172.492,233.828l-.383-1.217A99.327,99.327,0,0,1,130.347,246.2a117.134,117.134,0,0,1-47.315-5.784,91.877,91.877,0,0,1-23.808-11.565c-.134.4-.26.8-.389,1.189a95.609,95.609,0,0,0,21.917,10.872,118.654,118.654,0,0,0,49.6,6.5,98.121,98.121,0,0,0,42.145-13.586" transform="translate(10.107 39.313)" fill="#ce599e"/>
              <path id="Trazado_205366" data-name="Trazado 205366" d="M35.163,144.282a102.272,102.272,0,0,1,7.3,31.625c.053.775,1.262.779,1.209,0a103.3,103.3,0,0,0-7.341-31.946c-.288-.714-1.459-.4-1.166.321" transform="translate(6.032 24.661)" fill="#c97567"/>
            </g>
          </g>
        </g>
      </g>
    </g>
  </g>
</svg>
