<svg xmlns="http://www.w3.org/2000/svg" xmlns:xlink="http://www.w3.org/1999/xlink" width="295" height="439" viewBox="0 0 295 439">
  <defs>
    <clipPath id="clip-path">
      <rect id="Rectángulo_338286" data-name="Rectángulo 338286" width="295" height="439" transform="translate(1105 926)" fill="#fff" stroke="#707070" stroke-width="1"/>
    </clipPath>
    <clipPath id="clip-path-2">
      <rect id="Rectángulo_338283" data-name="Rectángulo 338283" width="405.602" height="364.535" transform="translate(0 0)" fill="none"/>
    </clipPath>
  </defs>
  <g id="Enmascarar_grupo_419" data-name="Enmascarar grupo 419" transform="translate(-1105 -926)" clip-path="url(#clip-path)">
    <g id="Grupo_982500" data-name="Grupo 982500" transform="translate(28 401.056)">
      <g id="Grupo_982487" data-name="Grupo 982487" transform="translate(1077 742.22)">
        <rect id="Rectángulo_338281" data-name="Rectángulo 338281" width="223.226" height="221.224" transform="translate(90.091)" fill="#6b8dfc"/>
        <path id="Rectángulo_338282" data-name="Rectángulo 338282" d="M127.129,0H313.317a0,0,0,0,1,0,0V127.129a0,0,0,0,1,0,0H0a0,0,0,0,1,0,0v0A127.129,127.129,0,0,1,127.129,0Z" transform="translate(0 94.095)" fill="#3c3fa7"/>
      </g>
      <g id="Grupo_982495" data-name="Grupo 982495" transform="translate(1085.009 524.944)">
        <g id="Grupo_982489" data-name="Grupo 982489" transform="translate(0 73.89)">
          <g id="Grupo_982488" data-name="Grupo 982488" transform="translate(0 0)" clip-path="url(#clip-path-2)">
            <path id="Trazado_204545" data-name="Trazado 204545" d="M893.485,342.1c-6.935,2.1-28.133-.618-66.822-10.5-26.5-6.764-58-30.845-58-30.845-7.235-1.68-22.345-6.127-21.98-8.645s11.108-.358,11.108-.358-12.767-3.568-12.245-5.978,13.642,1.867,13.642,1.867-12.735-5.164-12.381-7.459c.754-3.865,14.98,3.723,14.98,3.723s-10.69-7.438-9.377-9.99,14.961,7.386,14.961,7.386-4.516-6.126-1.036-6.478,10.787,10.509,10.787,10.509,34.193,10.263,43.258,12.685c22.99,6.142,66.552,8,66.552,8" transform="translate(-725.877 -186.195)" fill="#e6ac71"/>
            <path id="Trazado_204546" data-name="Trazado 204546" d="M0,331.041c6.985,1.93,28.109-1.324,66.537-12.17,26.317-7.428,57.205-32.292,57.205-32.292,7.191-1.86,22.184-6.686,21.755-9.194s-11.114-.079-11.114-.079,12.673-3.887,12.091-6.284-13.591,2.209-13.591,2.209,12.6-5.482,12.189-7.767c-.85-3.845-14.882,4.1-14.882,4.1s10.5-7.7,9.123-10.222-14.771,7.759-14.771,7.759,4.361-6.238.873-6.5-10.52,10.777-10.52,10.777S80.974,282.491,71.971,285.14c-22.829,6.718-66.33,9.665-66.33,9.665" transform="translate(259.107 -176.281)" fill="#e6ac71"/>
            <path id="Trazado_204547" data-name="Trazado 204547" d="M473.029,373.6l19.952-1.487,8.992,1.355s21.777-1.4,28.631-2.664,8.087,40.185-9.374,51.1l-5.1,28.122-82.654,3.73.112-29.5s-25.5-14.158-16.028-52.885l32.5,1.687Z" transform="translate(-262.322 -252.416)" fill="#fff0b5"/>
            <path id="Trazado_204548" data-name="Trazado 204548" d="M577.217,395.624a2.813,2.813,0,0,0-1.963-4.557,153.919,153.919,0,0,0-15.464-.671c-4.413.112-9.634.392-13.5.625a3.914,3.914,0,0,0-3.035,6.077c2.432,3.58,7,7.528,15.338,7.566a23.152,23.152,0,0,0,18.626-9.04" transform="translate(-345.44 -265.757)" fill="#fff"/>
            <path id="Trazado_204549" data-name="Trazado 204549" d="M487.366,373.353s-2.5,22.07-2.3,32.985c0,0-24.954-.166-32.963-.116,0,0-1.185-26.432-.359-31.573,0,0-4.424-1.046-7.3-.351,0,0-1.492,16.92-1.229,32.565,0,0-12.8,34.165-15.554,37.221l-7.7,174.048H528.176L511.092,448.327S497.378,415.533,494.1,408.42c0,0,.728-28.169,2.262-33.711a9.472,9.472,0,0,0-8.992-1.355" transform="translate(-256.637 -253.807)" fill="#ffb8da"/>
            <path id="Trazado_204550" data-name="Trazado 204550" d="M569.5,537.225c15.482-.8,17.759-19.544,17.781-19.74a.216.216,0,0,0-.213-.241c-.229,0-23.114-.174-36.865.268a.249.249,0,0,0-.151.068.217.217,0,0,0-.058.155c.008.19.9,19.017,17.868,19.505q.843.025,1.639-.017m17.319-19.55c-.329,2.251-3.386,19.581-18.945,19.136-15.579-.449-17.283-16.787-17.435-18.873,12.992-.408,33.882-.28,36.381-.263" transform="translate(-357.25 -352.103)" fill="#c9371e"/>
            <path id="Trazado_204551" data-name="Trazado 204551" d="M552.18,676.272a.216.216,0,0,0,0-.431c-.6-.021-60.735-2-81.278,3.388a.217.217,0,0,0-.154.264.219.219,0,0,0,.264.154c20.48-5.374,80.55-3.4,81.154-3.376h.018" transform="translate(-297.054 -459.842)" fill="#c9371e"/>
            <path id="Trazado_204552" data-name="Trazado 204552" d="M553.68,696.885a.216.216,0,0,0,0-.431c-.6-.021-60.736-2-81.278,3.388a.217.217,0,0,0-.154.265.221.221,0,0,0,.264.154c20.482-5.374,80.549-3.4,81.154-3.375h.019" transform="translate(-299.033 -473.874)" fill="#c9371e"/>
            <path id="Trazado_204553" data-name="Trazado 204553" d="M595.186,824.986c.108-.006.193.117.192,0l-.552-148.1a.209.209,0,0,0-.206-.213.2.2,0,0,0-.2.219l.552,148.1c0,.119.093,0,.206,0Z" transform="translate(-379.532 -460.66)" fill="#c9371e"/>
            <path id="Trazado_204554" data-name="Trazado 204554" d="M603.534,707.265a.216.216,0,1,0-.022-.431c-.247.012-6.065.22-6.692-6.819-.644-7.245-.341-22.205-.338-22.355a.215.215,0,0,0-.211-.22.2.2,0,0,0-.22.211c0,.151-.308,15.135.339,22.4.665,7.462,7.08,7.217,7.144,7.213" transform="translate(-388.39 -461.182)" fill="#c9371e"/>
            <path id="Trazado_204555" data-name="Trazado 204555" d="M683.712,718.026l.027,0a21.641,21.641,0,0,0,16.536-14.784.216.216,0,0,0-.414-.124,21.2,21.2,0,0,1-16.2,14.483.216.216,0,0,0,.05.428" transform="translate(-512.868 -478.557)" fill="#c9371e"/>
            <path id="Trazado_204556" data-name="Trazado 204556" d="M476.7,720.106a.216.216,0,0,0,.082-.411,21.575,21.575,0,0,1-11.6-14.829.213.213,0,0,0-.255-.168.216.216,0,0,0-.168.255A22.015,22.015,0,0,0,476.6,720.085a.22.22,0,0,0,.1.021" transform="translate(-219.666 -479.737)" fill="#c9371e"/>
            <path id="Trazado_204557" data-name="Trazado 204557" d="M531.542,472.853a2.369,2.369,0,0,0,2.233-2.168l.073-.874a2.369,2.369,0,0,0-2.162-2.558l-9.028-.758a2.374,2.374,0,0,0-2.56,2.161l-.073.875a2.369,2.369,0,0,0,2.162,2.558l9.029.758a2.508,2.508,0,0,0,.326.005m-9.184-5.931a1.939,1.939,0,0,1,.263,0l9.028.758a1.934,1.934,0,0,1,1.768,2.091l-.073.874a1.934,1.934,0,0,1-2.091,1.767l-9.029-.758a1.935,1.935,0,0,1-1.768-2.091l.073-.875a1.94,1.94,0,0,1,1.829-1.771" transform="translate(-294.258 -317.572)" fill="#c9371e"/>
            <path id="Trazado_204558" data-name="Trazado 204558" d="M533.93,487.748a3.273,3.273,0,1,0,3.1-3.438,3.274,3.274,0,0,0-3.1,3.438" transform="translate(-305.313 -329.703)" fill="#c9371e"/>
            <path id="Trazado_204559" data-name="Trazado 204559" d="M661.459,466.958a2.369,2.369,0,0,0,2.242-2.484l-.044-.877a2.368,2.368,0,0,0-2.485-2.246l-9.048.457h0a2.368,2.368,0,0,0-2.242,2.484l.044.877a2.371,2.371,0,0,0,2.484,2.246l9.049-.457h0m-9.064.242h0Zm-.253-4.96h0l9.048-.457a1.936,1.936,0,0,1,2.032,1.836l.044.877a1.936,1.936,0,0,1-1.833,2.031h0l-9.049.457a1.938,1.938,0,0,1-2.03-1.836l-.045-.877a1.937,1.937,0,0,1,1.833-2.031" transform="translate(-465.56 -314.074)" fill="#c9371e"/>
            <path id="Trazado_204560" data-name="Trazado 204560" d="M661.38,482.745a3.273,3.273,0,1,0,2.612-3.821,3.273,3.273,0,0,0-2.612,3.821" transform="translate(-473.381 -326)" fill="#c9371e"/>
            <path id="Trazado_204561" data-name="Trazado 204561" d="M454.063,23.012c.539,10.43,9.839,18.428,20.771,17.862s19.357-9.479,18.817-19.91S483.811,2.536,472.879,3.1s-19.356,9.479-18.817,19.91" transform="translate(-233.014 -2.093)" fill="#211010"/>
            <path id="Trazado_204562" data-name="Trazado 204562" d="M468.941,39.134q.565,0,1.134-.029a20.853,20.853,0,0,0,14.167-6.465A18.944,18.944,0,0,0,482.812,5a21.18,21.18,0,0,0-28.925,1.5,19,19,0,0,0-5.284,14.13l.319-.017-.319.017a19,19,0,0,0,6.713,13.509,20.791,20.791,0,0,0,13.624,5M469.187.64A20.154,20.154,0,0,1,482.4,5.484,18.307,18.307,0,0,1,483.777,32.2a20.542,20.542,0,0,1-28.045,1.451,18.308,18.308,0,0,1-1.382-26.717A20.218,20.218,0,0,1,468.087.669c.367-.019.735-.028,1.1-.028" transform="translate(-227.147 -0.002)" fill="#211010"/>
            <path id="Trazado_204563" data-name="Trazado 204563" d="M482.017,61.4s25.768-1.7,28.9,16.713-3.976,21.691-.1,26.225,11.785,9.587,10,17.326S515.5,131.4,517.578,136.4s2.918,7.132,1.691,11.566c0,0-15.335,6.256-24.509,4.909l-1.634-10.476-2.38,10.32a73.125,73.125,0,0,1-38.079,3.062c-20.965-4.014-33.564-1.177-41.109-6.249l2.861-15.079-6.95,13.469s-2.539,1.952-15.151-2.494c0,0-4.739-7.129-2.982-15.414,2.2-10.36,6.11-8.6,6.767-17.011s-.669-19.4,8.823-28.315c9.03-8.479,3.7-12.937,9.1-21.228s33.464-14.841,56.2-4.728" transform="translate(-239.641 -36.483)" fill="#211010"/>
            <path id="Trazado_204564" data-name="Trazado 204564" d="M714.105,255.387l-.419-15.948s-12.342-8.458-16.646,5.33,10.19,18.275,17.066,10.617" transform="translate(-530.767 -161.257)" fill="#e6ac71"/>
            <path id="Trazado_204565" data-name="Trazado 204565" d="M692.6,317.337h.1a9.457,9.457,0,0,0,9.158-7.626.319.319,0,0,0-.627-.122,8.817,8.817,0,0,1-8.538,7.109H692.6a8.792,8.792,0,0,1-3.937-16.652.319.319,0,0,0-.286-.57,9.43,9.43,0,0,0,4.223,17.861" transform="translate(-514.347 -203.853)" fill="#fff"/>
            <path id="Trazado_204566" data-name="Trazado 204566" d="M439.757,264.429l3.878-15.475s13.885-5.571,15.089,8.823S444.8,273.4,439.757,264.429" transform="translate(-193.572 -168.76)" fill="#e6ac71"/>
            <path id="Trazado_204567" data-name="Trazado 204567" d="M469,319.366a9.563,9.563,0,0,0,1.677-.149,9.431,9.431,0,0,0,5.185-15.773.319.319,0,0,0-.463.44,8.791,8.791,0,1,1-15.065,4.694.319.319,0,1,0-.631-.1,9.436,9.436,0,0,0,9.3,10.886" transform="translate(-219.557 -206.509)" fill="#fff"/>
            <path id="Trazado_204568" data-name="Trazado 204568" d="M567.161,366.706a45.6,45.6,0,0,1-6.02-1.876l-.334-10.136,25.894.658.481,10.193a34.873,34.873,0,0,1-20.021,1.161" transform="translate(-360.605 -241.467)" fill="#c78743"/>
            <path id="Trazado_204569" data-name="Trazado 204569" d="M565.893,388.322a34.875,34.875,0,0,0,20.021-1.161l.3,6.314c-9.358,7.78-21.5,5.79-26.163-1.68l-.176-5.35a45.555,45.555,0,0,0,6.02,1.876" transform="translate(-359.337 -263.082)" fill="#e6ac71"/>
            <path id="Trazado_204570" data-name="Trazado 204570" d="M468.335,110.161s-.226,17.051.421,37.223c.524,16.329,14.1,31.885,34.076,32.525,18.778.6,38-7.58,42.977-34.054s.147-47.852-23.893-52.91-47.807-3.265-53.58,17.215" transform="translate(-291.464 -61.652)" fill="#e6ac71"/>
            <path id="Trazado_204571" data-name="Trazado 204571" d="M629.968,131.186c.1-.145.163-.227.163-.227s-.058.084-.163.227" transform="translate(-425.632 -89.154)" fill="#211010"/>
            <path id="Trazado_204572" data-name="Trazado 204572" d="M529.6,206.49s3.074-3.755-3.829-8.1-9.242-3.26-10.263-.942c-.931,2.114.718,5.184,4.632,7.522,4.7,2.806,7.794,3.671,9.459,1.517" transform="translate(-289.16 -133.041)" fill="#211010"/>
            <path id="Trazado_204573" data-name="Trazado 204573" d="M646.306,206.781s-2.562-4.121,4.844-7.532,9.587-2.035,10.3.395c.649,2.217-1.383,5.047-5.567,6.859-5.021,2.174-8.2,2.63-9.576.278" transform="translate(-462.148 -134.254)" fill="#211010"/>
            <path id="Trazado_204574" data-name="Trazado 204574" d="M448.754,273.389a.294.294,0,0,0,.119-.03.289.289,0,0,0,.131-.387c-.033-.069-3.343-6.9,1.387-10.282a6.4,6.4,0,0,1,4.945-1.344,7.977,7.977,0,0,1,4.573,3.135.289.289,0,0,0,.482-.32,8.426,8.426,0,0,0-4.946-3.384,6.959,6.959,0,0,0-5.391,1.442c-5.132,3.67-1.6,10.936-1.568,11.009a.289.289,0,0,0,.269.16" transform="translate(-197.618 -177.464)" fill="#632114"/>
            <path id="Trazado_204575" data-name="Trazado 204575" d="M469.7,277.866a.289.289,0,0,0,.156-.527c-.049-.034-5.014-3.414-8.493.306a.289.289,0,0,0,.422.4c3.14-3.358,7.695-.258,7.741-.226a.29.29,0,0,0,.175.051" transform="translate(-211.628 -187.826)" fill="#632114"/>
            <path id="Trazado_204576" data-name="Trazado 204576" d="M600.757,211.565a.289.289,0,0,0,.1-.556,7.817,7.817,0,0,1-3.463-3.04c-.857-1.6-.687-4.046.357-5.137a2.037,2.037,0,0,1,2.539-.238c.033.016.085.044.154.081,3.624,1.948,5.2.968,5.88-.2,1.252-2.141-.433-18.662-.63-20.539a.294.294,0,0,0-.318-.257.289.289,0,0,0-.257.318c.528,5.048,1.684,18.513.706,20.186-.805,1.377-2.523,1.372-5.108-.019-.079-.043-.139-.075-.177-.093a2.6,2.6,0,0,0-3.208.359c-1.217,1.272-1.427,3.987-.449,5.81a8.257,8.257,0,0,0,3.752,3.3.293.293,0,0,0,.12.022" transform="translate(-391.527 -123.683)" fill="#632114"/>
            <path id="Trazado_204577" data-name="Trazado 204577" d="M585.309,296.062a8.742,8.742,0,0,1-.821-2.683,44.035,44.035,0,0,1,13.474-2.818,12.125,12.125,0,0,1-.073,3.116,33.349,33.349,0,0,0-12.58,2.385" transform="translate(-379.012 -197.807)" fill="#211010"/>
            <path id="Trazado_204578" data-name="Trazado 204578" d="M597.5,300.322c-.354,2.289-1.529,5.1-5.116,5.741-4.423.785-6.5-1.4-7.464-3.356a33.331,33.331,0,0,1,12.58-2.385" transform="translate(-378.626 -204.452)" fill="#d14f8e"/>
            <path id="Trazado_204579" data-name="Trazado 204579" d="M712.407,264.194a.279.279,0,0,1-.109-.055.289.289,0,0,1-.043-.406c.048-.06,4.764-6.007.883-10.338a6.4,6.4,0,0,0-4.534-2.388,7.98,7.98,0,0,0-5.146,2.066.289.289,0,0,1-.4-.417,8.426,8.426,0,0,1,5.563-2.227,6.959,6.959,0,0,1,4.949,2.58c4.211,4.7-.812,11.023-.864,11.087a.29.29,0,0,1-.3.1" transform="translate(-534.052 -170.484)" fill="#632114"/>
            <path id="Trazado_204580" data-name="Trazado 204580" d="M703.5,268.431a.289.289,0,0,1-.037-.548c.056-.023,5.636-2.243,8.223,2.146a.289.289,0,1,1-.5.294c-2.334-3.96-7.455-1.925-7.506-1.9a.291.291,0,0,1-.182.012" transform="translate(-530.634 -181.972)" fill="#632114"/>
            <path id="Trazado_204581" data-name="Trazado 204581" d="M507.168,282.364c.634,2.728,5.289,3.976,10.4,2.788s8.735-4.361,8.1-7.089-5.289-3.976-10.4-2.788-8.735,4.362-8.1,7.089" transform="translate(-282.015 -187.094)" fill="#c78743"/>
            <path id="Trazado_204582" data-name="Trazado 204582" d="M657.727,283.669c-.577,2.74-5.2,4.086-10.336,3.006s-8.825-4.177-8.248-6.918,5.2-4.086,10.336-3.006,8.825,4.177,8.248,6.917" transform="translate(-456.197 -188.152)" fill="#c78743"/>
            <path id="Trazado_204583" data-name="Trazado 204583" d="M548.931,250.732h0a.319.319,0,0,0,.318-.32c0-.061-.076-6.113-4.98-6.765s-6.369,5.2-6.383,5.263a.319.319,0,0,0,.621.148,8.868,8.868,0,0,1,1.221-2.651,4.449,4.449,0,0,1,4.457-2.128c4.357.58,4.425,6.079,4.425,6.134a.32.32,0,0,0,.319.318" transform="translate(-315.353 -165.834)" fill="#211010"/>
            <path id="Trazado_204584" data-name="Trazado 204584" d="M528.739,260.027a.319.319,0,0,0,.1-.018l3.074-1.054a.319.319,0,0,0-.207-.6l-3.074,1.054a.319.319,0,0,0,.1.621" transform="translate(-295.217 -175.867)" fill="#211010"/>
            <path id="Trazado_204585" data-name="Trazado 204585" d="M531.706,255.969a.322.322,0,0,0,.117-.022l2.072-.818a.319.319,0,0,0-.234-.594l-2.072.818a.319.319,0,0,0,.117.616" transform="translate(-298.129 -173.266)"/>
            <path id="Trazado_204586" data-name="Trazado 204586" d="M655.528,246.373a2.559,2.559,0,1,1-2.49-3.075,2.826,2.826,0,0,1,2.49,3.075" transform="translate(-457.586 -165.631)" fill="#211010"/>
            <path id="Trazado_204587" data-name="Trazado 204587" d="M502.029,63.388s27.417,3.045,31.23,18.929-3.436,39.627-3.436,39.627-11.118-5.087-17.741-6.323c-3.567-.666,3.015-5.929-1.34-18.281,0,0-4.068,11.8-9.532,13.112-6.44,1.549-22.063.373-29.2-4.049-3.917-2.428-2.315-13.965-3.327-14.451-2-.962-3.208,13.378-5.261,13.867-1.4.333-10.537,7.5-13.175,3.99-2.148-2.854-.775-10.451-1.792-10.177-2.788.753-1.518,15.123-3.75,15.752-5,1.407-8.4,2.31-9.307,1.862-4.589-2.262-3.694-32.346,4.6-42.767s37.014-20.591,62.023-11.091" transform="translate(-266.88 -40.58)" fill="#211010"/>
            <path id="Trazado_204588" data-name="Trazado 204588" d="M417.214,172.525a.319.319,0,0,0,.284-.464,22.459,22.459,0,0,1-2.108-13.939,45.3,45.3,0,0,1,1.472-5.592c.491-1.586,1-3.225,1.341-4.883.9-4.339.315-8.126-1.642-10.664a17.859,17.859,0,0,0-4.089-3.507c-2.015-1.4-3.919-2.731-4.732-4.875-1.145-3.017.423-6.175,1.939-9.228.511-1.03,1.039-2.094,1.458-3.14a17.786,17.786,0,0,0-26.518-21.309.319.319,0,1,0,.359.528A17.147,17.147,0,0,1,410.542,116c-.409,1.022-.931,2.075-1.437,3.093-1.577,3.177-3.208,6.461-1.964,9.739.884,2.328,2.958,3.774,4.965,5.172a17.382,17.382,0,0,1,3.949,3.373c2.486,3.223,2.021,7.739,1.523,10.145-.337,1.628-.839,3.253-1.326,4.824a45.74,45.74,0,0,0-1.491,5.672,23.1,23.1,0,0,0,2.168,14.337.319.319,0,0,0,.285.174" transform="translate(-135.748 -62.62)" fill="#211010"/>
            <path id="Trazado_204589" data-name="Trazado 204589" d="M682.835,149.087a.319.319,0,0,0,.237-.533,15.274,15.274,0,0,1,.1-19.837c.631-.688,1.349-1.341,2.044-1.972a14.365,14.365,0,0,0,3.906-4.727c1.322-3.095.358-6.4-.575-9.6a25.512,25.512,0,0,1-1.232-5.893c-.216-5.018,2.777-9.514,6.043-13.625q.362-.455.729-.913c3.024-3.782,6.151-7.692,7-12.467a28.847,28.847,0,0,0,.331-3.953,19.722,19.722,0,0,1,.689-5.343c1.029-3.174,3.807-5.927,7.622-7.554,3.462-1.476,7.271-1.929,10.955-2.367a.319.319,0,1,0-.075-.634c-3.729.443-7.585.9-11.131,2.414-3.985,1.7-6.893,4.595-7.979,7.945a20.241,20.241,0,0,0-.719,5.516,28.352,28.352,0,0,1-.321,3.866c-.819,4.615-3.895,8.461-6.869,12.18l-.73.915c-3.343,4.208-6.406,8.822-6.181,14.049a26.054,26.054,0,0,0,1.257,6.045c.943,3.233,1.834,6.288.6,9.172a13.685,13.685,0,0,1-3.748,4.506c-.705.641-1.435,1.3-2.085,2.014a15.934,15.934,0,0,0-.1,20.694.319.319,0,0,0,.237.106" transform="translate(-532.057 -40.618)" fill="#211010"/>
            <path id="Trazado_204590" data-name="Trazado 204590" d="M960.832,831.48c2.063,16.768,4.978,84.842,4.777,88.264H917.683l-1.221-56.232s-12.565-.405-14.185-.811l-1.8,57.043s-43.266.406-56.234,0c0,0,4.928-80.073,9.65-103.881,33.283,15.533,71.495,21.38,106.939,15.617" transform="translate(-829.523 -555.418)" fill="#acade1"/>
            <path id="Trazado_204591" data-name="Trazado 204591" d="M961.931,755.146s2.157,16.226,4.247,33.221c-35.444,5.763-73.656-.083-106.939-15.617a181.181,181.181,0,0,1,5.016-20.44Z" transform="translate(-834.869 -512.152)" fill="#9495c4"/>
            <path id="Trazado_204592" data-name="Trazado 204592" d="M1174.83,886.054c.123,0,.227.123.24,0,4.2-40.247,12.763-119.312,12.837-119.6a.24.24,0,0,0-.175-.292.235.235,0,0,0-.292.175c-.073.289-8.639,79.436-12.849,119.719-.014.132.083-.014.214,0h.025" transform="translate(-1157.273 -521.575)" fill="#5c89b3"/>
            <path id="Trazado_204593" data-name="Trazado 204593" d="M1137.73,623.471s6.993,19.665,25.232,29.8a49.279,49.279,0,0,1-22.292,16.617s-17.833-16.617-25.128-33.64c-5.886-13.733-2.011-46.451,1.408-64.545,8.029,6.586,16.977,10.429,26.525,13.119Z" transform="translate(-1112.499 -389.2)" fill="#9c4737"/>
            <path id="Trazado_204594" data-name="Trazado 204594" d="M1197.1,554.085l-1.39,9.347c-9.547-2.69-18.5-6.533-26.525-13.118.819-4.334,1.612-7.837,2.239-10.03Z" transform="translate(-1164.734 -367.811)" fill="#822e1e"/>
            <path id="Trazado_204595" data-name="Trazado 204595" d="M782.951,632.576s-7.7,19.4-26.3,28.86c0,0,5.638,10.724,20.028,16.52,0,0,20.07-15.061,27.979-31.807,6.381-13.51,3.7-46.347.938-64.553-8.263,6.29-17.345,9.8-26.984,12.146Z" transform="translate(-644.531 -395.935)" fill="#9c4737"/>
            <path id="Trazado_204596" data-name="Trazado 204596" d="M766.018,562.8l1.049,9.392c9.639-2.342,18.721-5.856,26.984-12.146-.661-4.36-1.326-7.891-1.872-10.1Z" transform="translate(-632.983 -374.387)" fill="#822e1e"/>
            <path id="Trazado_204597" data-name="Trazado 204597" d="M1009.468,850.1a.241.241,0,0,0,.241-.233l1.316-39.93a.24.24,0,0,0-.232-.248.235.235,0,0,0-.249.233l-1.316,39.93a.241.241,0,0,0,.232.248Z" transform="translate(-927.596 -551.213)" fill="#5c89b3"/>
            <path id="Trazado_204598" data-name="Trazado 204598" d="M1022.064,864.227a.241.241,0,0,0,0-.481c-.289,0-7.072-.093-7.46-7.271-.4-7.4.2-20.112.2-20.24a.24.24,0,1,0-.48-.023c-.006.128-.6,12.865-.2,20.289.413,7.638,7.866,7.726,7.941,7.726" transform="translate(-940.395 -569.115)" fill="#5c89b3"/>
            <path id="Trazado_204599" data-name="Trazado 204599" d="M1101.193,838.445a.221.221,0,0,0,.086-.016c.177-.067,17.834-6.89,30.1-22.367a.241.241,0,0,0-.377-.3c-12.176,15.37-29.713,22.15-29.889,22.216a.241.241,0,0,0,.085.466" transform="translate(-1077.278 -555.288)" fill="#5c89b3"/>
            <path id="Trazado_204600" data-name="Trazado 204600" d="M879.4,835.08a.241.241,0,0,0,.227-.254c-.014-.25-.261-.362-1.3-.832-3.587-1.625-14.5-6.569-22.713-21.675a.241.241,0,0,0-.423.229c8.286,15.249,19.315,20.242,22.938,21.884a9.469,9.469,0,0,1,1.04.508.24.24,0,0,0,.232.14" transform="translate(-747.021 -552.92)" fill="#5c89b3"/>
            <path id="Trazado_204601" data-name="Trazado 204601" d="M1003.956,959.79c2.7,0,4.258-.076,4.307-.078a.241.241,0,0,0,.228-.253.255.255,0,0,0-.253-.229,168.988,168.988,0,0,1-34.6-2.631.241.241,0,1,0-.085.474,176.085,176.085,0,0,0,30.4,2.717" transform="translate(-913.611 -651.225)" fill="#5c89b3"/>
            <path id="Trazado_204602" data-name="Trazado 204602" d="M1042.156,966.442a.244.244,0,0,0,.124-.034l6.08-3.647a.241.241,0,0,0,.082-.331.243.243,0,0,0-.33-.083l-6.079,3.647a.241.241,0,0,0,.123.448" transform="translate(-975.482 -655.118)" fill="#5c89b3"/>
            <path id="Trazado_204603" data-name="Trazado 204603" d="M987.833,468.792c5.089,0,7.706-1.852,7.859-1.964a.241.241,0,0,0-.284-.388c-.052.038-5.307,3.737-15.39.573a.241.241,0,1,0-.144.46,26.586,26.586,0,0,0,7.959,1.32" transform="translate(-902.937 -317.508)" fill="#bd7c28"/>
            <path id="Trazado_204604" data-name="Trazado 204604" d="M870.195,425.184s21.568,4.039,34.35,10.443,21.44,25.244,21.44,25.244-9,13.785-24.622,18.172a229.179,229.179,0,0,0,.87,23.153c1.07,9.776,3.9,33.492-7.977,36.248s-37.008,2.014-49.722,2.785-28.862-1.752-37.22-5.729-12.165-7.836-12.3-21.862,4.828-41.8,4.828-41.8-15.364-3.444-23.979-17.717c0,0,14.731-24.877,33.34-27.714,15.962-2.433,33.874-5.536,60.99-1.224" transform="translate(-768.06 -287.99)" fill="#fc5f65"/>
            <path id="Trazado_204605" data-name="Trazado 204605" d="M947.774,425.58s15.877-1.714,23.292,2.458a26.169,26.169,0,0,1-25,11.573c-17.349-1.682-20.7-15.059-20.7-15.059s8.558-1.423,22.41,1.029" transform="translate(-860.866 -288.744)" fill="#fff"/>
            <path id="Trazado_204606" data-name="Trazado 204606" d="M761.2,559.057c-.921.312-.388,5.006-.388,5.006s16.108,1.589,29.848-17.46c0,0,.606-5.008-5.711-6.036,0,0-9.874,13.793-23.749,18.49" transform="translate(-627.9 -368.004)" fill="#fff"/>
            <path id="Trazado_204607" data-name="Trazado 204607" d="M1198.07,533c.876.3-.926,5.011-.926,5.011s-15.194,1.882-28.526-16.913c0,0-.663-5,5.287-6.139,0,0,10.968,13.6,24.165,18.041" transform="translate(-1165.755 -350.573)" fill="#fff"/>
            <path id="Trazado_204608" data-name="Trazado 204608" d="M939.165,620.912c9.364,0,17.4-.463,17.548-.471l-.069-1.166c-.263.017-26.378,1.519-39.228-.927-6.008-1.143-14.309-1.262-22.336-1.377-9.63-.138-18.726-.268-23.258-2.079a43.054,43.054,0,0,0-15.805-2.769,21.229,21.229,0,0,1-2.607-.136l-.2,1.15a21.5,21.5,0,0,0,2.781.154,41.959,41.959,0,0,1,15.4,2.686c4.733,1.89,13.933,2.021,23.674,2.161,7.978.114,16.227.232,22.136,1.357,5.832,1.11,14.339,1.417,21.967,1.417" transform="translate(-823.48 -416.625)" fill="#fff"/>
            <path id="Trazado_204609" data-name="Trazado 204609" d="M951.226,603.688c3.591,0,5.8-.147,5.852-.152L957,602.373a128.876,128.876,0,0,1-23.81-1.076c-4.039-.567-7.256-1.12-10.1-1.607-6.439-1.105-10.7-1.834-17.654-1.62l-1.975.064c-9.2.3-18.714.611-29.433-1.712a131.908,131.908,0,0,0-18.6-2.883l-.062,1.166a130.732,130.732,0,0,1,18.419,2.859c10.86,2.352,20.447,2.041,29.718,1.737l1.974-.062c6.845-.214,11.052.51,17.419,1.6,2.847.488,6.075,1.043,10.13,1.612a133.434,133.434,0,0,0,18.2,1.236" transform="translate(-824.531 -404.065)" fill="#fff"/>
            <path id="Trazado_204610" data-name="Trazado 204610" d="M954.038,585.654l.136-.995c-.163-.022-16.476-2.252-27.893-3.222-3.026-.256-7.783-.4-13.806-.589-16.7-.514-41.938-1.291-58.152-5.463l-.25.972c16.322,4.2,41.626,4.979,58.371,5.5,6.007.184,10.753.331,13.752.585,11.391.967,27.678,3.194,27.841,3.216" transform="translate(-821.216 -391.707)" fill="#fff"/>
            <path id="Trazado_204611" data-name="Trazado 204611" d="M1060.717,664.008a.258.258,0,0,0,.147-.47,91.572,91.572,0,0,1-25.572-26.948.258.258,0,1,0-.439.272,92.115,92.115,0,0,0,25.716,27.1.255.255,0,0,0,.147.046" transform="translate(-985.715 -433.291)" fill="#d49a2c"/>
            <path id="Trazado_204612" data-name="Trazado 204612" d="M1100.373,680.61a.258.258,0,0,0,.194-.429,83.471,83.471,0,0,1-16.2-27.781.258.258,0,1,0-.488.167,83.994,83.994,0,0,0,16.3,27.955.255.255,0,0,0,.193.088" transform="translate(-1041.03 -444.018)" fill="#d49a2c"/>
            <path id="Trazado_204613" data-name="Trazado 204613" d="M815.765,126.494s-6.629,31.99,2.9,46.654,17.123,19.6,30.943,23.279,53.878.36,59.261-7.746,15.31-33.563,12.043-51.359-105.15-10.828-105.15-10.828" transform="translate(-775.657 -85.2)" fill="#211010"/>
            <path id="Trazado_204614" data-name="Trazado 204614" d="M941.423,347.412l1.192-15.206,31.613,7.3-1.764,14.468c-10.968.614-21.324-2.023-31.041-6.558" transform="translate(-869.155 -226.158)" fill="#822e1e"/>
            <path id="Trazado_204615" data-name="Trazado 204615" d="M947.717,379.839c9.718,4.534,20.073,7.171,31.041,6.557l-.262,2.149S976.877,403.5,960.26,403.5s-12.971-18.2-12.971-18.2Z" transform="translate(-875.449 -258.585)" fill="#9c4737"/>
            <path id="Trazado_204616" data-name="Trazado 204616" d="M927.122,95.272s-1.085,18.572-3.362,40.47c-1.844,17.728-17.828,33.595-39.617,32.733-20.48-.81-40.756-11.214-44.107-40.408s3.575-52.081,30.128-55.708,52.275.178,56.958,22.914" transform="translate(-789.432 -48.446)" fill="#9c4737"/>
            <path id="Trazado_204617" data-name="Trazado 204617" d="M931.445,117.345c-.1-.166-.159-.26-.159-.26s.057.1.159.26" transform="translate(-823.135 -79.709)" fill="#ff6248"/>
            <path id="Trazado_204618" data-name="Trazado 204618" d="M1107.292,249.026l-3.012-17.141s-14.675-7.146-17.107,8.423,13.929,18.085,20.119,8.718" transform="translate(-1048.667 -156.747)" fill="#9c4737"/>
            <path id="Trazado_204619" data-name="Trazado 204619" d="M1012.287,176.174s-3.052-4.326,4.8-8.511,10.311-2.826,11.241-.225c.848,2.373-1.187,5.584-5.627,7.823-5.331,2.687-8.768,3.387-10.412.912" transform="translate(-945.875 -112.32)" fill="#211010"/>
            <path id="Trazado_204620" data-name="Trazado 204620" d="M886.164,183.792s3.109-4.285-4.684-8.574-10.273-2.962-11.237-.374c-.88,2.362,1.111,5.6,5.522,7.9,5.295,2.758,8.722,3.5,10.4,1.051" transform="translate(-758.915 -117.393)" fill="#211010"/>
            <path id="Trazado_204621" data-name="Trazado 204621" d="M1026.43,233.169c-.224,2.134-1.824,3.715-3.575,3.531s-2.988-2.062-2.765-4.2,1.824-3.715,3.575-3.531,2.989,2.062,2.765,4.2" transform="translate(-946.487 -155.869)" fill="#211010"/>
            <path id="Trazado_204622" data-name="Trazado 204622" d="M905.235,242.6c-.223,2.134-1.824,3.715-3.575,3.531s-2.989-2.062-2.765-4.2,1.824-3.715,3.575-3.531,2.989,2.062,2.765,4.2" transform="translate(-786.603 -162.287)" fill="#211010"/>
            <path id="Trazado_204623" data-name="Trazado 204623" d="M1109.523,259.7a.315.315,0,0,1-.239-.473c.042-.073,4.176-7.247-.707-11.3a6.987,6.987,0,0,0-5.277-1.849,8.7,8.7,0,0,0-5.221,3.055.315.315,0,0,1-.5-.386,9.193,9.193,0,0,1,5.646-3.3,7.593,7.593,0,0,1,5.754,1.99c5.3,4.394.892,12.025.847,12.1a.315.315,0,0,1-.3.153" transform="translate(-1056.343 -167.071)" fill="#632114"/>
            <path id="Trazado_204624" data-name="Trazado 204624" d="M1097.766,264.531a.316.316,0,0,1-.128-.585c.056-.033,5.722-3.324,9.217,1a.315.315,0,1,1-.49.4c-3.155-3.9-8.353-.88-8.405-.85a.319.319,0,0,1-.194.042" transform="translate(-1051.67 -178.85)" fill="#632114"/>
            <path id="Trazado_204625" data-name="Trazado 204625" d="M947.984,202.862a.315.315,0,0,1-.068-.613,8.522,8.522,0,0,0,4.006-3.037c1.058-1.672,1.064-4.349.013-5.617a2.223,2.223,0,0,0-2.744-.457c-.037.015-.1.041-.174.076-4.1,1.838-5.731.648-6.383-.675-1.2-2.427,1.929-20.273,2.288-22.3a.32.32,0,0,1,.366-.255.316.316,0,0,1,.255.366c-.969,5.451-3.277,20.014-2.343,21.91.768,1.561,2.638,1.69,5.56.378.089-.04.157-.071.2-.088a2.839,2.839,0,0,1,3.462.641c1.225,1.479,1.242,4.449.034,6.357a9.005,9.005,0,0,1-4.339,3.3.315.315,0,0,1-.132.015" transform="translate(-848.576 -115.718)" fill="#632114"/>
            <path id="Trazado_204626" data-name="Trazado 204626" d="M967.122,287.974a8.692,8.692,0,0,1-5.464-3.921.254.254,0,0,1,.445-.244,7.711,7.711,0,0,0,8.071,3.673.254.254,0,0,1,.09.5,8.327,8.327,0,0,1-3.141-.007" transform="translate(-871.848 -193.121)" fill="#632114"/>
            <path id="Trazado_204627" data-name="Trazado 204627" d="M810.055,258.963l1.7-17.32s14.089-8.24,17.7,7.1-12.515,19.09-19.4,10.221" transform="translate(-682.962 -163)" fill="#9c4737"/>
            <path id="Trazado_204628" data-name="Trazado 204628" d="M822.99,269.085a.315.315,0,0,0,.2-.49c-.048-.069-4.715-6.908-.154-11.317a6.987,6.987,0,0,1,5.121-2.244,8.7,8.7,0,0,1,5.438,2.65.315.315,0,0,0,.468-.422,9.191,9.191,0,0,0-5.88-2.858,7.593,7.593,0,0,0-5.586,2.421c-4.948,4.784.023,12.058.074,12.132a.316.316,0,0,0,.315.13" transform="translate(-690.443 -173.189)" fill="#632114"/>
            <path id="Trazado_204629" data-name="Trazado 204629" d="M843.16,273.831a.315.315,0,0,0,.084-.593c-.059-.03-5.957-2.88-9.115,1.693a.315.315,0,1,0,.519.359c2.849-4.127,8.262-1.513,8.317-1.486a.31.31,0,0,0,.2.027" transform="translate(-704.076 -185.398)" fill="#632114"/>
            <path id="Trazado_204630" data-name="Trazado 204630" d="M1034.76,274.719c-.9,2.918-6.066,3.914-11.531,2.223s-9.164-5.428-8.261-8.346,6.066-3.914,11.531-2.223,9.164,5.428,8.261,8.346" transform="translate(-953.256 -180.779)" fill="#822e1e"/>
            <path id="Trazado_204631" data-name="Trazado 204631" d="M870.434,285.837c.414,3.027,5.345,4.853,11.013,4.078s9.929-3.857,9.515-6.884-5.344-4.852-11.013-4.077-9.928,3.857-9.515,6.883" transform="translate(-763.244 -189.783)" fill="#822e1e"/>
            <path id="Trazado_204632" data-name="Trazado 204632" d="M890.28,29.887c-19.928-5.809-39.891.283-47.379,3.09.972-4.19-.55-9.271-1.974-9.388-1.883-.155-2.169,8.169-2.213,10.717l-.229.023c-.647-1.952-2.671-7.175-5.366-5.566-1.836,1.1.031,3.886,2.043,6.141-6.753,1.581-22.376,4.446-25.679,22.448-3.914,21.337,4.647,32.26,4.647,32.26s2.7.967,13.286-2.027c3.2-.9,15.573-42.5,25.863-30.541,21.859,25.4,33.978,23.96,54.224,29.707,7.123,2.022,4,6.53,8.043-7.034s-.065-42.485-25.267-49.831" transform="translate(-769.375 -16.058)" fill="#211010"/>
            <path id="Trazado_204633" data-name="Trazado 204633" d="M839.714,238.11a19.075,19.075,0,1,0-17.76-20.3,19.1,19.1,0,0,0,17.76,20.3m2.476-37.053a18.061,18.061,0,1,1-19.225,16.817,18.081,18.081,0,0,1,19.225-16.817" transform="translate(-716.835 -136.157)" fill="#1c1d27"/>
            <path id="Trazado_204634" data-name="Trazado 204634" d="M1002.7,227.218a19.075,19.075,0,1,0-17.76-20.3,19.1,19.1,0,0,0,17.76,20.3m2.476-37.053a18.061,18.061,0,1,1-19.225,16.817,18.082,18.082,0,0,1,19.225-16.817" transform="translate(-931.858 -128.742)" fill="#1c1d27"/>
            <path id="Trazado_204635" data-name="Trazado 204635" d="M937.434,240.655a.512.512,0,0,0,.26-.052c7.526-3.758,14.587.931,14.658.98a.507.507,0,0,0,.569-.839c-.075-.05-7.631-5.065-15.681-1.048a.507.507,0,0,0,.194.96" transform="translate(-846.644 -162.118)" fill="#1c1d27"/>
            <path id="Trazado_204636" data-name="Trazado 204636" d="M692.705,802.759h-.319a.016.016,0,0,1,0-.032h.319a.016.016,0,0,1,.016.016.017.017,0,0,1-.016.016" transform="translate(-508.143 -546.475)" fill="#e6a07e"/>
          </g>
        </g>
        <g id="Grupo_982494" data-name="Grupo 982494" transform="translate(12.242 0)">
          <g id="Grupo_982491" data-name="Grupo 982491" transform="translate(197.375 19.753)">
            <g id="Grupo_982490" data-name="Grupo 982490" transform="translate(0 0)">
              <path id="Trazado_204637" data-name="Trazado 204637" d="M39.4,92.769l-9.942-.61L13.6,110.911l7.164-19.286-7.9-.485C6.4,90.745,1.333,86.131,1.1,80.449L.078,55.02a95.705,95.705,0,0,1,.958-17.893L4.741,12.12C5.857,4.59,13.633-.763,22.215.09L40.242,1.881c9.22.916,16.4,7.459,17.113,15.592l1,11.481a148.263,148.263,0,0,1-2.1,40.887L53.772,82.822C52.608,88.894,46.392,93.2,39.4,92.769" transform="translate(-0.001 0)" fill="#fcf2ca"/>
              <path id="Trazado_204638" data-name="Trazado 204638" d="M47.967,105.836l-10.074-.582L21.816,123.167l7.258-18.423-8.007-.463C14.53,103.9,9.392,99.5,9.16,94.067L8.121,69.776a86.27,86.27,0,0,1,.971-17.092l3.754-23.889C13.976,21.6,21.854,16.489,30.551,17.3l18.265,1.711c9.342.875,16.618,7.126,17.339,14.895l1.018,10.967a133.675,133.675,0,0,1-2.127,39.057l-2.522,12.4C61.344,102.134,55.046,106.245,47.967,105.836Z" transform="translate(-6.374 -13.646)" fill="none" stroke="#483644" stroke-miterlimit="10" stroke-width="1"/>
            </g>
          </g>
          <g id="Grupo_982493" data-name="Grupo 982493" transform="translate(0 0)">
            <g id="Grupo_982492" data-name="Grupo 982492">
              <path id="Trazado_204639" data-name="Trazado 204639" d="M19.52,92.768l9.942-.61,15.867,18.752L38.165,91.625l7.9-.485c6.452-.4,11.523-5.009,11.752-10.691l1.025-25.429a95.7,95.7,0,0,0-.958-17.893L54.183,12.12C53.067,4.59,45.291-.763,36.709.09L18.682,1.881C9.462,2.8,2.281,9.34,1.569,17.473l-1,11.481a148.262,148.262,0,0,0,2.1,40.886L5.153,82.822c1.164,6.072,7.38,10.375,14.367,9.946" transform="translate(2.447 0)" fill="#c4d1ff"/>
              <path id="Trazado_204640" data-name="Trazado 204640" d="M27.819,105.835l10.074-.582L53.97,123.166l-7.258-18.423,8.007-.463c6.537-.378,11.676-4.785,11.908-10.213l1.039-24.292a86.268,86.268,0,0,0-.971-17.092L62.941,28.795C61.81,21.6,53.932,16.489,45.235,17.3L26.97,19.015c-9.342.875-16.618,7.126-17.339,14.895L8.613,44.876A133.674,133.674,0,0,0,10.74,83.933l2.522,12.4C14.442,102.134,20.74,106.245,27.819,105.835Z" transform="translate(-8.042 -13.646)" fill="none" stroke="#483644" stroke-miterlimit="10" stroke-width="1"/>
            </g>
          </g>
          <path id="Trazado_204641" data-name="Trazado 204641" d="M-9.939-1.5A4.323,4.323,0,0,1-9.77-2.727a2.929,2.929,0,0,1,.506-1,2.271,2.271,0,0,1,.854-.663,2.842,2.842,0,0,1,1.192-.236,3.306,3.306,0,0,1,.933.135,2.148,2.148,0,0,1,.821.45,2.346,2.346,0,0,1,.585.809A2.99,2.99,0,0,1-4.655-2,3.438,3.438,0,0,1-4.9-.647a2.67,2.67,0,0,1-.675.967,2.854,2.854,0,0,1-.978.573,3.44,3.44,0,0,1-1.135.191A2.3,2.3,0,0,1-8.826.837,1.965,1.965,0,0,1-9.512.218a2.265,2.265,0,0,1-.337-.832A4.637,4.637,0,0,1-9.939-1.5Zm7.577,0a4.323,4.323,0,0,1,.169-1.225,2.929,2.929,0,0,1,.506-1,2.271,2.271,0,0,1,.854-.663A2.842,2.842,0,0,1,.359-4.627a3.306,3.306,0,0,1,.933.135,2.148,2.148,0,0,1,.821.45,2.346,2.346,0,0,1,.585.809A2.99,2.99,0,0,1,2.922-2,3.438,3.438,0,0,1,2.674-.647,2.67,2.67,0,0,1,2,.319a2.854,2.854,0,0,1-.978.573,3.44,3.44,0,0,1-1.135.191A2.3,2.3,0,0,1-1.249.837,1.965,1.965,0,0,1-1.935.218a2.265,2.265,0,0,1-.337-.832A4.637,4.637,0,0,1-2.362-1.5Zm7.577,0a4.323,4.323,0,0,1,.169-1.225,2.929,2.929,0,0,1,.506-1,2.271,2.271,0,0,1,.854-.663,2.842,2.842,0,0,1,1.192-.236,3.306,3.306,0,0,1,.933.135,2.148,2.148,0,0,1,.821.45,2.346,2.346,0,0,1,.585.809A2.99,2.99,0,0,1,10.5-2a3.438,3.438,0,0,1-.247,1.349,2.67,2.67,0,0,1-.675.967A2.854,2.854,0,0,1,8.6.893a3.44,3.44,0,0,1-1.135.191A2.3,2.3,0,0,1,6.328.837,1.965,1.965,0,0,1,5.642.218,2.265,2.265,0,0,1,5.3-.614,4.637,4.637,0,0,1,5.215-1.5Z" transform="translate(25.994 56.752)" fill="#12263f"/>
          <path id="Trazado_204642" data-name="Trazado 204642" d="M-9.939-1.5A4.323,4.323,0,0,1-9.77-2.727a2.929,2.929,0,0,1,.506-1,2.271,2.271,0,0,1,.854-.663,2.842,2.842,0,0,1,1.192-.236,3.306,3.306,0,0,1,.933.135,2.148,2.148,0,0,1,.821.45,2.346,2.346,0,0,1,.585.809A2.99,2.99,0,0,1-4.655-2,3.438,3.438,0,0,1-4.9-.647a2.67,2.67,0,0,1-.675.967,2.854,2.854,0,0,1-.978.573,3.44,3.44,0,0,1-1.135.191A2.3,2.3,0,0,1-8.826.837,1.965,1.965,0,0,1-9.512.218a2.265,2.265,0,0,1-.337-.832A4.637,4.637,0,0,1-9.939-1.5Zm7.577,0a4.323,4.323,0,0,1,.169-1.225,2.929,2.929,0,0,1,.506-1,2.271,2.271,0,0,1,.854-.663A2.842,2.842,0,0,1,.359-4.627a3.306,3.306,0,0,1,.933.135,2.148,2.148,0,0,1,.821.45,2.346,2.346,0,0,1,.585.809A2.99,2.99,0,0,1,2.922-2,3.438,3.438,0,0,1,2.674-.647,2.67,2.67,0,0,1,2,.319a2.854,2.854,0,0,1-.978.573,3.44,3.44,0,0,1-1.135.191A2.3,2.3,0,0,1-1.249.837,1.965,1.965,0,0,1-1.935.218a2.265,2.265,0,0,1-.337-.832A4.637,4.637,0,0,1-2.362-1.5Zm7.577,0a4.323,4.323,0,0,1,.169-1.225,2.929,2.929,0,0,1,.506-1,2.271,2.271,0,0,1,.854-.663,2.842,2.842,0,0,1,1.192-.236,3.306,3.306,0,0,1,.933.135,2.148,2.148,0,0,1,.821.45,2.346,2.346,0,0,1,.585.809A2.99,2.99,0,0,1,10.5-2a3.438,3.438,0,0,1-.247,1.349,2.67,2.67,0,0,1-.675.967A2.854,2.854,0,0,1,8.6.893a3.44,3.44,0,0,1-1.135.191A2.3,2.3,0,0,1,6.328.837,1.965,1.965,0,0,1,5.642.218,2.265,2.265,0,0,1,5.3-.614,4.637,4.637,0,0,1,5.215-1.5Z" transform="translate(228.168 77.271)" fill="#12263f"/>
        </g>
      </g>
      <g id="Grupo_982497" data-name="Grupo 982497" transform="translate(1138.54 756.268)">
        <g id="Grupo_982496" data-name="Grupo 982496" transform="translate(0 0)">
          <rect id="Rectángulo_338284" data-name="Rectángulo 338284" width="65.222" height="31.965" rx="15.982" transform="translate(0 0)" fill="#3c3fa7"/>
        </g>
        <path id="Trazado_204747" data-name="Trazado 204747" d="M9.885-12.284a3.491,3.491,0,0,1-.164,1.107,4,4,0,0,1-.415.887,4.2,4.2,0,0,1-.543.692q-.292.3-.543.518T7.8-8.706q-.164.154-.164.246t.2.215q.2.113.5.267t.651.364a3.309,3.309,0,0,1,.651.518,2.629,2.629,0,0,1,.5.733,2.356,2.356,0,0,1,.2,1.01,4.157,4.157,0,0,1-.164,1.113,8.233,8.233,0,0,1-.436,1.189q-.272.6-.61,1.184t-.682,1.1q-.344.518-.672.938T7.219.861a2.989,2.989,0,0,1-.625.559,1.2,1.2,0,0,1-.636.169.87.87,0,0,1-.5-.123.65.65,0,0,1-.251-.323A1.068,1.068,0,0,1,5.158.692a2.034,2.034,0,0,1,.108-.5A3.248,3.248,0,0,1,5.481-.3a1.925,1.925,0,0,1,.282-.4q.123-.133.349-.436T6.6-1.841q.267-.405.549-.872t.513-.918a7.108,7.108,0,0,0,.374-.856,2.117,2.117,0,0,0,.144-.682.911.911,0,0,0-.149-.513,1.653,1.653,0,0,0-.385-.405A2.648,2.648,0,0,0,7.111-6.4a4.786,4.786,0,0,0-.6-.22,4.4,4.4,0,0,0-.584-.128,3.4,3.4,0,0,0-.477-.041.545.545,0,0,0-.077.005.629.629,0,0,1-.087.005l-.2.036a.581.581,0,0,0-.282.159,1.141,1.141,0,0,0-.256.415,2.682,2.682,0,0,0-.144.8q-.01.236-.031.677t-.046.918q-.026.477-.041.913t-.015.672a4.245,4.245,0,0,0,.051.656q.051.328.118.646t.118.625A3.617,3.617,0,0,1,4.6.338a.934.934,0,0,1-.138.508A.508.508,0,0,1,4,1.066q-.051,0-.113-.005a.389.389,0,0,1-.113-.026A1.63,1.63,0,0,1,3.143.631,2.651,2.651,0,0,1,2.7,0,3.71,3.71,0,0,1,2.4-.779a8.136,8.136,0,0,1-.169-.841q-.062-.42-.082-.815t-.021-.7q0-.625.031-1.374T2.251-6.07q.056-.81.128-1.651t.159-1.656q.087-.815.185-1.569t.2-1.379a.186.186,0,0,0-.067-.2.29.29,0,0,0-.149-.056.523.523,0,0,0-.349.179,2.195,2.195,0,0,0-.338.431,2.961,2.961,0,0,0-.251.513,1.275,1.275,0,0,0-.1.415,1.589,1.589,0,0,0,.021.251,1.589,1.589,0,0,1,.021.251,1.073,1.073,0,0,1-.072.41.272.272,0,0,1-.277.174,1.023,1.023,0,0,1-.123-.021A1.441,1.441,0,0,1,.3-10.613,2.124,2.124,0,0,1,0-11.751a2.846,2.846,0,0,1,.261-1.23,3.508,3.508,0,0,1,.7-.99,4.674,4.674,0,0,1,1-.759,6.872,6.872,0,0,1,1.189-.533A7.819,7.819,0,0,1,4.4-15.576a7.25,7.25,0,0,1,1.169-.1,5.367,5.367,0,0,1,1.492.22,4.828,4.828,0,0,1,1.395.651A3.6,3.6,0,0,1,9.485-13.74,2.677,2.677,0,0,1,9.885-12.284Zm-3.62-1.241q-.123,0-.277.01a1.582,1.582,0,0,0-.292.046.8.8,0,0,0-.246.108.32.32,0,0,0-.138.185l-.318,2.912a2.159,2.159,0,0,0-.01.7q.051.205.195.205a1.1,1.1,0,0,0,.554-.287q.349-.267.769-.641a9.809,9.809,0,0,0,.779-.774,6.357,6.357,0,0,0,.6-.779,1.267,1.267,0,0,0,.246-.656.6.6,0,0,0-.231-.472,1.929,1.929,0,0,0-.543-.318,3.312,3.312,0,0,0-.625-.179A2.9,2.9,0,0,0,6.265-13.525Zm4.9,13a2.785,2.785,0,0,1-.072-.5q-.031-.364-.046-.861t-.021-1.072q-.005-.574-.005-1.118t.005-1.01q.005-.467.005-.743a5.943,5.943,0,0,1,.051-.728,3.42,3.42,0,0,1,.185-.769,1.936,1.936,0,0,1,.354-.61.722.722,0,0,1,.569-.251.549.549,0,0,1,.405.138,1.044,1.044,0,0,1,.215.308q.077.169.128.308t.154.138a.421.421,0,0,0,.246-.154q.144-.144.328-.313a3.089,3.089,0,0,1,.415-.318,2.554,2.554,0,0,1,.513-.251,1.8,1.8,0,0,1,.62-.1,1.886,1.886,0,0,1,.8.169,1.961,1.961,0,0,1,.62.446,2.078,2.078,0,0,1,.4.625,1.843,1.843,0,0,1,.144.708,2.3,2.3,0,0,1-.031.379,1.037,1.037,0,0,1-.113.333.649.649,0,0,1-.231.241.742.742,0,0,1-.395.092.668.668,0,0,1-.467-.138,1.436,1.436,0,0,1-.251-.308,2.357,2.357,0,0,0-.22-.308.452.452,0,0,0-.364-.138,1.063,1.063,0,0,0-.759.385,3.571,3.571,0,0,0-.651,1,7.092,7.092,0,0,0-.456,1.415A7.563,7.563,0,0,0,13.074-1.9a4.872,4.872,0,0,1-.082.964,2.294,2.294,0,0,1-.226.656.977.977,0,0,1-.328.369.753.753,0,0,1-.4.113A.724.724,0,0,1,11.71.133a.958.958,0,0,1-.251-.179,1.077,1.077,0,0,1-.179-.236A1.657,1.657,0,0,1,11.167-.523Zm8.818.677a1.97,1.97,0,0,1-.938-.21,2,2,0,0,1-.672-.584,3.057,3.057,0,0,1-.441-.877,6.988,6.988,0,0,1-.256-1.1,11.751,11.751,0,0,1-.123-1.251q-.031-.656-.031-1.323,0-.164.01-.5t.051-.754q.041-.415.123-.856a4.373,4.373,0,0,1,.226-.8,1.874,1.874,0,0,1,.364-.6.7.7,0,0,1,.528-.236.825.825,0,0,1,.364.087,1.007,1.007,0,0,1,.313.236,1.2,1.2,0,0,1,.215.349,1.11,1.11,0,0,1,.082.426q0,.441-.041.9t-.087.928q-.046.467-.087.938t-.041.933q0,.154.005.385t.036.492a4.658,4.658,0,0,0,.092.523,2.072,2.072,0,0,0,.169.472,1,1,0,0,0,.272.338.63.63,0,0,0,.4.128.909.909,0,0,0,.718-.333,2.656,2.656,0,0,0,.472-.851,6.286,6.286,0,0,0,.282-1.143q.1-.625.138-1.215t.046-1.066q.005-.477.005-.692a3.318,3.318,0,0,1,.051-.584,1.807,1.807,0,0,1,.164-.508,1,1,0,0,1,.292-.354.694.694,0,0,1,.426-.133.676.676,0,0,1,.446.149,1.115,1.115,0,0,1,.292.385,2.04,2.04,0,0,1,.164.518,3.064,3.064,0,0,1,.051.549q0,.831-.031,1.579T23.974-4.02q-.031.738-.062,1.492T23.881-.933a2.123,2.123,0,0,1-.256,1.2.788.788,0,0,1-.667.354,1.255,1.255,0,0,1-.543-.092A.574.574,0,0,1,22.154.3a.742.742,0,0,1-.087-.308q-.01-.164-.01-.308a.658.658,0,0,0-.036-.236.151.151,0,0,0-.159-.092.434.434,0,0,0-.277.123q-.144.123-.349.277a2.3,2.3,0,0,1-.5.277A1.97,1.97,0,0,1,19.985.154Zm4.727-6.993a1.656,1.656,0,0,1,.082-.467,2.141,2.141,0,0,1,.236-.518,1.594,1.594,0,0,1,.379-.42.816.816,0,0,1,.513-.174.809.809,0,0,1,.426.1.612.612,0,0,1,.241.282,1.372,1.372,0,0,1,.1.451q.021.267.021.595,0,.625.195.625.1,0,.205-.154l.431-.646a4.783,4.783,0,0,1,.574-.7,3.285,3.285,0,0,1,.754-.569,1.987,1.987,0,0,1,.979-.236,1.461,1.461,0,0,1,.892.251,1.565,1.565,0,0,1,.518.718,3.8,3.8,0,0,1,.22,1.123,10.536,10.536,0,0,1-.021,1.456q-.051.687-.062,1.753t.082,2.625a1.243,1.243,0,0,1-.015.292.981.981,0,0,1-.1.3.786.786,0,0,1-.185.236.424.424,0,0,1-.287.1,1.167,1.167,0,0,1-.846-.292,1.835,1.835,0,0,1-.451-.7,3.174,3.174,0,0,1-.185-.831q-.036-.426-.036-.682,0-.451.036-.81t.072-.7q.036-.338.072-.672a6.774,6.774,0,0,0,.036-.723,4.714,4.714,0,0,0-.026-.549,1.4,1.4,0,0,0-.072-.328.353.353,0,0,0-.1-.159.185.185,0,0,0-.108-.041.7.7,0,0,0-.405.236,5.283,5.283,0,0,0-.538.6q-.287.369-.584.815t-.543.856a2.375,2.375,0,0,0-.179.41q-.067.205-.087.3a3.377,3.377,0,0,0-.031.508v.661q0,.349-.015.7a3.519,3.519,0,0,1-.082.641,1.37,1.37,0,0,1-.19.467.4.4,0,0,1-.349.179h-.205a.949.949,0,0,1-.308-.056,1.581,1.581,0,0,1-.308-.144,1.512,1.512,0,0,1-.261-.2.749.749,0,0,1-.169-.226,3.028,3.028,0,0,1-.169-.682q-.067-.436-.108-.979T24.7-3.363q-.01-.6-.01-1.179,0-.718.01-1.328T24.712-6.839ZM35.458-9.126a2.522,2.522,0,0,1,1.41.405,3.653,3.653,0,0,1,1.056,1.066,5.24,5.24,0,0,1,.667,1.492,6.293,6.293,0,0,1,.231,1.692,5.206,5.206,0,0,1-.328,1.887,4.717,4.717,0,0,1-.866,1.456,3.871,3.871,0,0,1-1.241.938,3.326,3.326,0,0,1-1.441.333A2.373,2.373,0,0,1,33.623-.21a2.78,2.78,0,0,1-.877-.907,4.05,4.05,0,0,1-.482-1.236,6.27,6.27,0,0,1-.149-1.338,7.017,7.017,0,0,1,.118-1.261A7.856,7.856,0,0,1,32.566-6.2a7.266,7.266,0,0,1,.518-1.133,4.885,4.885,0,0,1,.677-.933,3.131,3.131,0,0,1,.8-.631A1.866,1.866,0,0,1,35.458-9.126Zm.174,1.948a.7.7,0,0,0-.508.323,3.426,3.426,0,0,0-.477.841,6.648,6.648,0,0,0-.354,1.169,6.27,6.27,0,0,0-.138,1.307q0,.1.01.4a3.065,3.065,0,0,0,.087.615,1.574,1.574,0,0,0,.256.564.591.591,0,0,0,.508.246,1,1,0,0,0,.646-.267,2.677,2.677,0,0,0,.569-.687,4.025,4.025,0,0,0,.405-.954,3.831,3.831,0,0,0,.154-1.066q0-.174-.01-.431a5.007,5.007,0,0,0-.051-.533,4.357,4.357,0,0,0-.118-.549,2.127,2.127,0,0,0-.205-.492,1.1,1.1,0,0,0-.318-.354A.773.773,0,0,0,35.632-7.178Z" transform="translate(16.459 21.537)" fill="#fed947"/>
      </g>
      <g id="Grupo_982499" data-name="Grupo 982499" transform="translate(1267.193 829.343)">
        <g id="Grupo_982498" data-name="Grupo 982498" transform="translate(0 0)">
          <rect id="Rectángulo_338285" data-name="Rectángulo 338285" width="65.222" height="31.965" rx="15.982" transform="translate(0 0)" fill="#3c3fa7"/>
        </g>
        <path id="Trazado_204748" data-name="Trazado 204748" d="M.492-5.824A10.673,10.673,0,0,1,.7-7.8a16.552,16.552,0,0,1,.579-2.194,16.609,16.609,0,0,1,.9-2.164,10.8,10.8,0,0,1,1.174-1.866,5.956,5.956,0,0,1,1.4-1.307,2.837,2.837,0,0,1,1.574-.492,1.775,1.775,0,0,1,.933.267,3.055,3.055,0,0,1,.779.677,3.343,3.343,0,0,1,.533.9,2.584,2.584,0,0,1,.195.954,2.3,2.3,0,0,1-.087.543,7.246,7.246,0,0,1-.231.723q-.144.385-.328.774a6.987,6.987,0,0,1-.379.7,3.012,3.012,0,0,1-.385.508A.525.525,0,0,1,7-9.577a.73.73,0,0,1-.42-.133,1.287,1.287,0,0,1-.333-.333,1.619,1.619,0,0,1-.215-.451,1.63,1.63,0,0,1-.077-.477.949.949,0,0,1,.087-.344q.087-.21.205-.451l.241-.492a4.5,4.5,0,0,0,.195-.451.822.822,0,0,0,.062-.328.126.126,0,0,0-.144-.128,1.268,1.268,0,0,0-.723.251,3.578,3.578,0,0,0-.718.682,7.109,7.109,0,0,0-.682,1.01q-.328.579-.62,1.236T3.327-8.629q-.241.7-.415,1.379T2.64-5.958a7.15,7.15,0,0,0-.1,1.107,4.574,4.574,0,0,0,.108.969,2.7,2.7,0,0,0,.374.907,2.056,2.056,0,0,0,.713.667,2.228,2.228,0,0,0,1.123.256,3.781,3.781,0,0,0,1.271-.226A7.487,7.487,0,0,0,7.357-2.84a9.382,9.382,0,0,0,1.1-.738q.513-.4.907-.738t.651-.564q.256-.226.328-.226a.592.592,0,0,1,.446.164,1.012,1.012,0,0,1,.236.41,2.146,2.146,0,0,1,.092.523q.015.277.015.5a1.053,1.053,0,0,1-.251.518,6.306,6.306,0,0,1-.682.764,9.8,9.8,0,0,1-1.02.856,9.862,9.862,0,0,1-1.271.795,8.462,8.462,0,0,1-1.42.59A4.927,4.927,0,0,1,5.014.246,3.625,3.625,0,0,1,3.6-.021,3.954,3.954,0,0,1,2.461-.743,4.92,4.92,0,0,1,1.584-1.8,6.757,6.757,0,0,1,.969-3.081,7.942,7.942,0,0,1,.61-4.46,8.3,8.3,0,0,1,.492-5.824ZM17.1-1.241a2.383,2.383,0,0,1,.031.718,1.433,1.433,0,0,1-.149.5.752.752,0,0,1-.272.292.672.672,0,0,1-.349.1A.61.61,0,0,1,15.94.205a1.411,1.411,0,0,1-.3-.405,2.973,2.973,0,0,1-.205-.523Q15.35-1,15.289-1.246t-.108-.405q-.046-.164-.108-.164a.412.412,0,0,0-.272.149,3.944,3.944,0,0,0-.323.374q-.174.226-.385.487a3.727,3.727,0,0,1-.472.487,2.51,2.51,0,0,1-.579.374,1.625,1.625,0,0,1-.7.149,1.682,1.682,0,0,1-.954-.287,2.567,2.567,0,0,1-.738-.769,3.971,3.971,0,0,1-.477-1.107,4.966,4.966,0,0,1-.169-1.3,6.472,6.472,0,0,1,.133-1.256,8.3,8.3,0,0,1,.385-1.333,7.389,7.389,0,0,1,.625-1.266,5.432,5.432,0,0,1,.861-1.072,3.991,3.991,0,0,1,1.082-.743,3.023,3.023,0,0,1,1.292-.277,2.331,2.331,0,0,1,.984.19,2.014,2.014,0,0,1,.692.518,2.593,2.593,0,0,1,.451.769,5.278,5.278,0,0,1,.261.948A8.584,8.584,0,0,1,16.9-5.732q.031.543.031,1.077t.015,1.036q.015.513.036.969t.056.82Q17.073-1.466,17.1-1.241Zm-5.055-1.62a1.419,1.419,0,0,0,.169.759q.169.267.313.267a.927.927,0,0,0,.554-.205,2.981,2.981,0,0,0,.543-.538,5.369,5.369,0,0,0,.5-.749,8.144,8.144,0,0,0,.405-.836,6.727,6.727,0,0,0,.277-.795,2.464,2.464,0,0,0,.1-.631q0-.01-.005-.113t-.026-.251q-.021-.149-.062-.323a1.352,1.352,0,0,0-.123-.328.788.788,0,0,0-.205-.251.464.464,0,0,0-.3-.1.829.829,0,0,0-.528.215,2.592,2.592,0,0,0-.5.569,5.971,5.971,0,0,0-.441.795,8.011,8.011,0,0,0-.354.9,8.093,8.093,0,0,0-.236.882A3.734,3.734,0,0,0,12.048-2.861Zm5.732-2.83q0-.164.015-.456t.056-.625q.041-.333.113-.682a3.289,3.289,0,0,1,.19-.625,1.6,1.6,0,0,1,.282-.456.5.5,0,0,1,.379-.179.468.468,0,0,1,.415.231,2.211,2.211,0,0,1,.241.513q.092.282.159.513t.159.231q.072,0,.174-.185.113-.205.251-.441a3.379,3.379,0,0,1,.308-.441,1.655,1.655,0,0,1,.374-.338.794.794,0,0,1,.441-.133.719.719,0,0,1,.615.338,2.721,2.721,0,0,1,.374.851,7.432,7.432,0,0,1,.205,1.1q.067.59.118,1.1t.1.851q.051.338.164.338t.256-.308q.154-.308.354-.774t.456-1.01a7.386,7.386,0,0,1,.574-1.01,3.514,3.514,0,0,1,.7-.774,1.31,1.31,0,0,1,.836-.308,1.237,1.237,0,0,1,.451.092,1.006,1.006,0,0,1,.431.354,2.2,2.2,0,0,1,.323.713,4.437,4.437,0,0,1,.128,1.179q0,.236-.015.584t-.036.749q-.021.4-.041.82t-.041.81q-.021.39-.036.718t-.015.533a3.8,3.8,0,0,1-.1.954,2.062,2.062,0,0,1-.261.625A1.037,1.037,0,0,1,26.537.1a.707.707,0,0,1-.338.1.875.875,0,0,1-.492-.123.768.768,0,0,1-.282-.364,2.211,2.211,0,0,1-.133-.6q-.036-.364-.036-.856,0-.451.021-1T25.3-3.784q0-.482-.031-.8t-.133-.323q-.092,0-.22.282t-.287.708q-.159.426-.359.918a7.376,7.376,0,0,1-.446.918,3.2,3.2,0,0,1-.538.708.906.906,0,0,1-.641.282.773.773,0,0,1-.625-.323,3.031,3.031,0,0,1-.441-.8,6.879,6.879,0,0,1-.3-1.041q-.118-.559-.205-1.041T20.9-5.1q-.082-.313-.174-.3-.154.01-.287.272a3.381,3.381,0,0,0-.231.6,6.92,6.92,0,0,0-.159.677,4.56,4.56,0,0,0-.072.523q-.041.718-.072,1.359t-.1,1.118A2.49,2.49,0,0,1,19.6-.1a.443.443,0,0,1-.415.277H18.99A1.766,1.766,0,0,1,18.8.164a.458.458,0,0,1-.154-.041,1.107,1.107,0,0,1-.451-.564,4.438,4.438,0,0,1-.272-.964,9.535,9.535,0,0,1-.128-1.189q-.031-.636-.036-1.23t.01-1.092Q17.78-5.414,17.78-5.691ZM28.321-2.933q0-.359-.015-.954T28.3-5.158q.005-.677.051-1.369A10.256,10.256,0,0,1,28.5-7.778a3.029,3.029,0,0,1,.308-.913.59.59,0,0,1,.518-.354,1.307,1.307,0,0,1,.61.118.753.753,0,0,1,.313.538,4.656,4.656,0,0,1,.067.518q.026.313.026.754,0,.236.01.8t.015,1.282q.005.718.01,1.5t-.005,1.482q-.01.7-.041,1.21a3.5,3.5,0,0,1-.082.677.33.33,0,0,1-.164.19,1.214,1.214,0,0,1-.251.1,1.347,1.347,0,0,1-.246.046q-.118.01-.159.01a.616.616,0,0,1-.482-.241A1.958,1.958,0,0,1,28.6-.723a5.436,5.436,0,0,1-.21-.995A9.724,9.724,0,0,1,28.321-2.933Zm.205-10.182a1.972,1.972,0,0,1,.077-.559,1.336,1.336,0,0,1,.231-.456,1.036,1.036,0,0,1,.39-.3,1.3,1.3,0,0,1,.543-.108,1.508,1.508,0,0,1,.426.062.979.979,0,0,1,.374.205,1.07,1.07,0,0,1,.267.369,1.364,1.364,0,0,1,.1.564,1.568,1.568,0,0,1-.113.615,1.218,1.218,0,0,1-.308.441,1.3,1.3,0,0,1-.446.261,1.569,1.569,0,0,1-.518.087,1.047,1.047,0,0,1-.518-.113.9.9,0,0,1-.313-.282,1.033,1.033,0,0,1-.154-.379A2.115,2.115,0,0,1,28.526-13.115Zm2.892,3.138q.021-.39.041-1.061t.067-1.446q.046-.774.118-1.574t.19-1.441a5.092,5.092,0,0,1,.292-1.051q.174-.41.42-.41a1.216,1.216,0,0,1,.318.051,1.389,1.389,0,0,1,.359.159,1.11,1.11,0,0,1,.308.287.883.883,0,0,1,.164.426,7.075,7.075,0,0,1,.01.749q-.01.584-.046,1.451t-.077,1.958q-.041,1.092-.077,2.271t-.056,2.379q-.021,1.2,0,2.3t.077,2.025A12.022,12.022,0,0,0,33.7-1.354q.082.4.174.723a4.315,4.315,0,0,1,.128.579.919.919,0,0,1-.031.441.622.622,0,0,1-.313.318.91.91,0,0,1-.41.1.876.876,0,0,1-.508-.159,2.032,2.032,0,0,1-.41-.374,2.839,2.839,0,0,1-.3-.426q-.118-.21-.159-.3a3.988,3.988,0,0,1-.231-.831q-.1-.523-.159-1.184T31.4-3.886q-.031-.759-.041-1.523T31.351-6.9q.005-.728.015-1.343t.026-1.072Q31.408-9.772,31.418-9.977ZM41.641-1.241a2.383,2.383,0,0,1,.031.718,1.433,1.433,0,0,1-.149.5.752.752,0,0,1-.272.292.672.672,0,0,1-.349.1.61.61,0,0,1-.426-.164,1.411,1.411,0,0,1-.3-.405,2.973,2.973,0,0,1-.205-.523q-.082-.282-.144-.523t-.108-.405q-.046-.164-.108-.164a.412.412,0,0,0-.272.149,3.944,3.944,0,0,0-.323.374q-.174.226-.385.487a3.727,3.727,0,0,1-.472.487,2.51,2.51,0,0,1-.579.374,1.625,1.625,0,0,1-.7.149,1.682,1.682,0,0,1-.954-.287,2.567,2.567,0,0,1-.738-.769,3.971,3.971,0,0,1-.477-1.107,4.966,4.966,0,0,1-.169-1.3,6.472,6.472,0,0,1,.133-1.256,8.3,8.3,0,0,1,.385-1.333,7.389,7.389,0,0,1,.625-1.266,5.432,5.432,0,0,1,.861-1.072,3.991,3.991,0,0,1,1.082-.743,3.023,3.023,0,0,1,1.292-.277,2.331,2.331,0,0,1,.984.19A2.014,2.014,0,0,1,40.6-8.5a2.593,2.593,0,0,1,.451.769,5.278,5.278,0,0,1,.261.948,8.584,8.584,0,0,1,.123,1.051q.031.543.031,1.077t.015,1.036q.015.513.036.969t.056.82Q41.61-1.466,41.641-1.241Zm-5.055-1.62a1.419,1.419,0,0,0,.169.759q.169.267.313.267a.927.927,0,0,0,.554-.205,2.981,2.981,0,0,0,.543-.538,5.369,5.369,0,0,0,.5-.749,8.144,8.144,0,0,0,.405-.836,6.727,6.727,0,0,0,.277-.795,2.464,2.464,0,0,0,.1-.631q0-.01-.005-.113t-.026-.251q-.021-.149-.062-.323a1.352,1.352,0,0,0-.123-.328.788.788,0,0,0-.205-.251.464.464,0,0,0-.3-.1.829.829,0,0,0-.528.215,2.592,2.592,0,0,0-.5.569,5.971,5.971,0,0,0-.441.795,8.011,8.011,0,0,0-.354.9,8.093,8.093,0,0,0-.236.882A3.734,3.734,0,0,0,36.586-2.861Z" transform="translate(12.807 21.463)" fill="#fed947"/>
      </g>
    </g>
  </g>
</svg>
