<svg xmlns="http://www.w3.org/2000/svg" xmlns:xlink="http://www.w3.org/1999/xlink" width="305" height="350" viewBox="0 0 305 350">
  <defs>
    <clipPath id="clip-path">
      <rect id="Rectángulo_338391" data-name="Rectángulo 338391" width="305" height="350" transform="translate(593 4876)" fill="#fff" stroke="#707070" stroke-width="1"/>
    </clipPath>
    <clipPath id="clip-path-2">
      <rect id="Rectángulo_338390" data-name="Rectángulo 338390" width="183.406" height="343.378" fill="none"/>
    </clipPath>
    <clipPath id="clip-path-3">
      <rect id="Rectángulo_338389" data-name="Rectángulo 338389" width="157.914" height="356.699" fill="none"/>
    </clipPath>
  </defs>
  <g id="Enmascarar_grupo_433" data-name="Enmascarar grupo 433" transform="translate(-593 -4876)" clip-path="url(#clip-path)">
    <g id="Grupo_982719" data-name="Grupo 982719" transform="translate(-1.74 -45)">
      <g id="Grupo_982718" data-name="Grupo 982718" transform="translate(603.74 4936.661)">
        <g id="Grupo_982717" data-name="Grupo 982717" transform="translate(0 0)" clip-path="url(#clip-path-2)">
          <path id="Trazado_205479" data-name="Trazado 205479" d="M55.782,330.373l-.4-.561c5.113-3.606,6.236-10.678,5.08-16.087-1.3-6.068-4.972-11.361-8.215-16.03-3.5-5.036-7.092-10.21-8.512-16.187-1.26-5.3-.7-10.819-.155-16.157.259-2.543.526-5.173.592-7.742a50.3,50.3,0,0,0-14.123-36.136c-1.829-1.883-3.883-3.72-5.869-5.5-6.02-5.387-12.245-10.956-13.564-18.852l.677-.113c1.279,7.657,7.413,13.145,13.344,18.452,2,1.785,4.058,3.631,5.9,5.531a50.989,50.989,0,0,1,14.317,36.632c-.067,2.6-.336,5.238-.6,7.795-.537,5.281-1.092,10.742.14,15.928,1.39,5.85,4.946,10.969,8.385,15.921,3.3,4.755,7.021,10.107,8.346,16.311,1.2,5.63.013,13-5.356,16.791" transform="translate(118.662 -138.066)" fill="#211010"/>
          <path id="Trazado_205480" data-name="Trazado 205480" d="M179.739,320.149c-6.285-8.2-11.2-18.358-12-24.7-1.488-11.744,8.6-27.48-9.524-47.624-13.071-14.529-11.14-19.354-11.14-19.354l-112.7,3.6s-1.533,17.734-7.445,27.47-16.4,17.607-8.5,36.408c6.477,15.427-2.673,31.985-7.617,41.354-4.871,9.23-1.393,18.021,7.827,38.29,0,0,5.209,2.506,9.389,4.2l.591-9.142c1.573.478,3.979,10.669,5.834,11.018a47.644,47.644,0,0,0,5.879.73c-3.5-6.781-4.945-14-2.8-20.187,7.7-25.148,12.186-49.89,1.4-74.895-7.822-18.787,5.259-35.827,20.918-41.107,21.95-7.175,41.806,3.5,62.186,9.7,6.7,1.349,15.547,2.426,19.582,8.508,7.935,11.081-2.069,26.633,4.931,38.932,4.31,8.244,13.839,14.728,18.286,24.054,4.942,9.265,6.349,19.5,5.208,29.864l.416.634A20.446,20.446,0,0,0,188.157,350c1.647-2.123,2.6-15.491-8.418-29.855" transform="translate(-8.326 -160.113)" fill="#211010"/>
          <path id="Trazado_205481" data-name="Trazado 205481" d="M199.54,363.376c-4.447-9.326-13.976-15.81-18.286-24.055-7-12.3,3-27.85-4.931-38.931-4.036-6.082-12.88-7.159-19.582-8.508-20.38-6.209-40.236-16.88-62.186-9.7-15.659,5.28-28.74,22.319-20.918,41.107,10.787,25,6.3,49.746-1.4,74.894-2.146,6.185-.7,13.407,2.8,20.188a47.071,47.071,0,0,0,11.024-.617l.6-19.755,7.343,18.8s11.819,4.9,50.41-8.3,46.219-7.539,48.521-14.615-7.9-30.684-7.9-30.684l19.708,30.045c1.142-10.36-.266-20.6-5.208-29.864" transform="translate(-43.028 -196.073)" fill="#261313"/>
          <path id="Trazado_205482" data-name="Trazado 205482" d="M535.741,375.254a42.291,42.291,0,0,1-9-38,85.736,85.736,0,0,1,3.607-10.223c2.189-5.456,4.452-11.1,4.57-17,.1-4.893-1.284-9.838-2.619-14.621-1.809-6.476-3.679-13.173-1.8-19.684,1.545-5.348,5.362-9.563,9.054-13.638a67.227,67.227,0,0,0,5.947-7.208,32.4,32.4,0,0,0,4.768-24.49l.672-.144a33.1,33.1,0,0,1-4.871,25.019,67.67,67.67,0,0,1-6.007,7.285c-3.807,4.2-7.4,8.172-8.9,13.368-1.827,6.323-.066,12.631,1.8,19.308,1.349,4.831,2.744,9.825,2.644,14.819-.12,6.029-2.408,11.73-4.619,17.244a85.11,85.11,0,0,0-3.58,10.14,41.594,41.594,0,0,0,8.85,37.372Z" transform="translate(-525.443 -161.356)" fill="#211010"/>
          <path id="Trazado_205483" data-name="Trazado 205483" d="M41.975,583.7s.788,3.173,2.376,8.192a61.1,61.1,0,0,0,22.693-9.812c-1.352-4.029-2.487-7.659-3.127-10.226Z" transform="translate(103.804 -400.749)" fill="#c78743"/>
          <path id="Trazado_205484" data-name="Trazado 205484" d="M35.252,672.7,33.444,635.56s-6.473-16.782-10.752-29.534A61.1,61.1,0,0,1,0,615.839c4.287,13.549,18.953,42.29,35.252,56.859" transform="translate(148.154 -424.7)" fill="#e6ac71"/>
          <path id="Trazado_205485" data-name="Trazado 205485" d="M152.432,809.4l-76.549,3.192S59.751,865.363,49.237,910.6H180.523c-6.851-25.8-16.321-81.783-28.092-101.2" transform="translate(-11.849 -567.221)" fill="#ff6248"/>
          <path id="Trazado_205486" data-name="Trazado 205486" d="M140.882,795.928s.209,3.87.442,5.279,65.633,1.142,77.22-2.266l-1.173-5.99s-32.254,4.973-76.489,2.976" transform="translate(-77.291 -555.696)" fill="#ff3614"/>
          <path id="Trazado_205487" data-name="Trazado 205487" d="M388.825,867.273a.357.357,0,0,1-.338-.468,7.2,7.2,0,0,1,.72-1.142c2.426-3.556,9.81-14.377,13.515-32.761a.359.359,0,1,1,.7.141A89.546,89.546,0,0,1,389.8,866.067c-.306.448-.595.872-.635.973a.369.369,0,0,1-.34.233" transform="translate(-336.258 -583.49)" fill="#ff3614"/>
          <path id="Trazado_205488" data-name="Trazado 205488" d="M128.1,853.985a.358.358,0,0,1-.312-.181,224.369,224.369,0,0,1-11.944-24.458.359.359,0,0,1,.667-.266,223.5,223.5,0,0,0,11.9,24.37.358.358,0,0,1-.311.535" transform="translate(20.292 -580.857)" fill="#ff3614"/>
          <path id="Trazado_205489" data-name="Trazado 205489" d="M458.8,604.243,433.84,589.981s-1.685,4.88-3.749,11.712c7.817,6.218,16.788,11.434,26.176,13.153Z" transform="translate(-404.079 -413.456)" fill="#c78743"/>
          <path id="Trazado_205490" data-name="Trazado 205490" d="M427.415,642.276c-9.388-1.719-18.359-6.935-26.176-13.153-3.632,12.024-8.437,30.1-7.289,38.271,1.111,7.913,33.871,57.012,37.756,50.736,6.018-9.724,9.107-23.031,9.107-23.031-5.853-7.958-18.68-30.7-18.68-30.7Z" transform="translate(-375.227 -440.886)" fill="#e6ac71"/>
          <path id="Trazado_205491" data-name="Trazado 205491" d="M100.895,454.333S81.3,458,69.688,463.82s-19.479,22.934-19.479,22.934,8.181,12.524,22.369,16.509a208.211,208.211,0,0,1-.79,21.035c-.972,8.882-3.548,30.427,7.247,32.932s33.622,1.829,45.173,2.53,26.222-1.591,33.815-5.2,11.052-7.119,11.171-19.862-4.386-37.976-4.386-37.976,13.959-3.129,21.786-16.1c0,0-13.384-22.6-30.29-25.179-14.5-2.211-30.775-5.03-55.41-1.112" transform="translate(-18.211 -317.024)" fill="#fff"/>
          <path id="Trazado_205492" data-name="Trazado 205492" d="M243.515,454.76s-14.424-1.557-21.161,2.233a23.774,23.774,0,0,0,22.716,10.514c15.762-1.528,18.8-13.682,18.8-13.682s-7.775-1.293-20.36.935" transform="translate(-146.998 -317.777)" fill="#244eff"/>
          <path id="Trazado_205493" data-name="Trazado 205493" d="M456.4,583.1c.837.283.352,4.548.352,4.548s-14.634,1.443-27.117-15.862c0,0-.55-4.549,5.188-5.484,0,0,8.971,12.531,21.576,16.8" transform="translate(-402.037 -396.863)" fill="#244eff"/>
          <path id="Trazado_205494" data-name="Trazado 205494" d="M35.353,557.876c-.8.268.841,4.552.841,4.552s13.8,1.71,25.916-15.366c0,0,.6-4.539-4.8-5.577,0,0-9.964,12.354-21.954,16.391" transform="translate(110.763 -379.47)" fill="#244eff"/>
          <path id="Trazado_205495" data-name="Trazado 205495" d="M132.731,643.639c-8.507,0-15.81-.421-15.942-.428l.062-1.059c.239.016,23.965,1.38,35.639-.842,5.458-1.038,13-1.146,20.293-1.251,8.749-.126,17.012-.244,21.13-1.889a39.1,39.1,0,0,1,14.359-2.515,19.358,19.358,0,0,0,2.368-.124l.18,1.045a19.538,19.538,0,0,1-2.527.14,38.128,38.128,0,0,0-13.987,2.44c-4.3,1.717-12.659,1.836-21.508,1.964-7.248.1-14.742.211-20.11,1.233-5.3,1.008-13.027,1.287-19.957,1.287" transform="translate(-62.358 -445.376)" fill="#244eff"/>
          <path id="Trazado_205496" data-name="Trazado 205496" d="M125.447,626.87c-3.262,0-5.272-.134-5.316-.138l.073-1.057a117.134,117.134,0,0,0,21.632-.978c3.669-.515,6.592-1.017,9.172-1.46,5.85-1,9.718-1.666,16.038-1.472l1.794.058c8.36.275,17,.555,26.74-1.555a119.771,119.771,0,0,1,16.9-2.619l.056,1.059a118.781,118.781,0,0,0-16.734,2.6c-9.866,2.137-18.575,1.854-27,1.578l-1.793-.057c-6.219-.194-10.041.463-15.826,1.456-2.587.444-5.519.948-9.2,1.465a121.225,121.225,0,0,1-16.537,1.123" transform="translate(-65.076 -432.845)" fill="#244eff"/>
          <path id="Trazado_205497" data-name="Trazado 205497" d="M126.4,609.382l-.124-.9c.148-.02,14.968-2.046,25.34-2.927,2.749-.233,7.071-.367,12.543-.535,15.172-.467,38.1-1.173,52.831-4.963l.227.883c-14.828,3.816-37.818,4.524-53.031,4.993-5.458.167-9.769.3-12.494.531-10.348.879-25.145,2.9-25.294,2.922" transform="translate(-71.599 -420.514)" fill="#244eff"/>
          <path id="Trazado_205498" data-name="Trazado 205498" d="M175.834,684.28a.234.234,0,0,1-.134-.427,83.2,83.2,0,0,0,23.231-24.482.235.235,0,0,1,.4.247,83.692,83.692,0,0,1-23.363,24.62.233.233,0,0,1-.134.042" transform="translate(-68.5 -462.006)" fill="#d175a2"/>
          <path id="Trazado_205499" data-name="Trazado 205499" d="M156.82,700.322a.234.234,0,0,1-.176-.39,75.829,75.829,0,0,0,14.714-25.24.235.235,0,1,1,.444.152A76.306,76.306,0,0,1,157,700.243a.232.232,0,0,1-.176.08" transform="translate(-35.26 -472.71)" fill="#d175a2"/>
          <path id="Trazado_205500" data-name="Trazado 205500" d="M265.263,416.55a49.537,49.537,0,0,0,6.427-2.373l-.207-11.017-28.059,2.168.05,11.087c7.175,2.1,15.062,2.309,21.789.136" transform="translate(-161.118 -282.533)" fill="#c78743"/>
          <path id="Trazado_205501" data-name="Trazado 205501" d="M265.016,442.354c-6.728,2.173-14.614,1.96-21.789-.136l.031,6.868c10.591,7.916,23.658,5.075,28.294-3.291l-.109-5.815a49.556,49.556,0,0,1-6.427,2.373" transform="translate(-160.92 -308.337)" fill="#e6ac71"/>
          <path id="Trazado_205502" data-name="Trazado 205502" d="M438.327,319.853,432.99,303s-15.733-5.218-16.087,10.781,16.455,16.33,21.425,6.069" transform="translate(-379.659 -211.774)" fill="#e6ac71"/>
          <path id="Trazado_205503" data-name="Trazado 205503" d="M246.45,119.306s8.018,15,10.933,38.015c2.274,17.957-9.837,37.35-31.581,41.551-20.437,3.948-42.9-1.637-52.98-29.726s-3.9-52.256,21.513-62,44.492-5.091,52.115,12.161" transform="translate(-124.581 -71.571)" fill="#e6ac71"/>
          <path id="Trazado_205504" data-name="Trazado 205504" d="M337.634,344.876c-.14,3.1-4.959,5.4-10.763,5.137s-10.4-2.988-10.256-6.087,4.959-5.4,10.763-5.136,10.4,2.988,10.256,6.087" transform="translate(-248.963 -237.408)" fill="#c78743"/>
          <path id="Trazado_205505" data-name="Trazado 205505" d="M190.759,309.717c1.11,2.9-2.389,6.931-7.815,9.009s-10.724,1.414-11.834-1.483,2.389-6.931,7.815-9.009,10.724-1.414,11.834,1.483" transform="translate(-58.694 -215.161)" fill="#c78743"/>
          <path id="Trazado_205506" data-name="Trazado 205506" d="M336.783,255.579s-3.575-2.323,2.555-6.833,8.588-4.1,9.933-2.509c1.228,1.447.065,4.072-3.429,6.536-4.194,2.957-7.1,4.156-9.059,2.806" transform="translate(-266.796 -171.79)" fill="#211010"/>
          <path id="Trazado_205507" data-name="Trazado 205507" d="M221.033,228.558s1.9-3.585-5.874-4.89-9.712.123-10.049,2.1c-.308,1.8,2.108,3.6,6.483,4.251,5.251.78,8.443.571,9.44-1.459" transform="translate(-99.194 -156.395)" fill="#211010"/>
          <path id="Trazado_205508" data-name="Trazado 205508" d="M336.185,303.394c.327,2.154-.842,4.118-2.609,4.386s-3.465-1.261-3.792-3.415.842-4.118,2.609-4.386,3.465,1.261,3.792,3.415" transform="translate(-251.49 -210.202)" fill="#211010"/>
          <path id="Trazado_205509" data-name="Trazado 205509" d="M217.5,277.3c.326,2.154-.841,4.118-2.609,4.386s-3.465-1.261-3.792-3.415.841-4.118,2.609-4.386,3.466,1.261,3.792,3.415" transform="translate(-97.295 -191.915)" fill="#211010"/>
          <path id="Trazado_205510" data-name="Trazado 205510" d="M444.274,332.783a.32.32,0,0,1-.3-.444c.033-.078,3.229-7.856-2.231-11.276a7.1,7.1,0,0,0-5.56-1.151,8.844,8.844,0,0,0-4.845,3.777.32.32,0,0,1-.554-.321,9.335,9.335,0,0,1,5.24-4.078,7.712,7.712,0,0,1,6.059,1.229c5.924,3.71,2.517,11.984,2.481,12.068a.32.32,0,0,1-.286.2" transform="translate(-391.04 -223.621)" fill="#52180d"/>
          <path id="Trazado_205511" data-name="Trazado 205511" d="M431.245,338.845a.32.32,0,0,1-.208-.572c.052-.042,5.312-4.116,9.412-.238a.32.32,0,0,1-.44.466c-3.7-3.5-8.527.237-8.575.275a.321.321,0,0,1-.19.068" transform="translate(-386.076 -235.722)" fill="#52180d"/>
          <path id="Trazado_205512" data-name="Trazado 205512" d="M264.258,251.606a.32.32,0,0,1-.258-.57,8.656,8.656,0,0,0,2.907-4.2c.493-1.948-.346-4.534-1.761-5.426a2.258,2.258,0,0,0-2.793.426c-.031.025-.08.07-.144.128-3.373,3.067-5.327,2.435-6.374,1.365-1.92-1.966-4.541-20.177-4.834-22.247a.325.325,0,0,1,.273-.362.32.32,0,0,1,.362.273c.786,5.567,3.157,20.353,4.657,21.888,1.235,1.264,3.081.8,5.486-1.391.074-.067.13-.118.165-.147a2.884,2.884,0,0,1,3.545-.475c1.649,1.041,2.6,3.9,2.041,6.125a9.148,9.148,0,0,1-3.147,4.554.315.315,0,0,1-.123.056" transform="translate(-159.384 -154.679)" fill="#52180d"/>
          <path id="Trazado_205513" data-name="Trazado 205513" d="M261.751,352.714c2.171.234,3.531-1.19,4.365-2.742a27.466,27.466,0,0,0-9.627-1.679c.894,1.819,2.544,4.129,5.262,4.421" transform="translate(-159.453 -244.082)" fill="#d14f8e"/>
          <path id="Trazado_205514" data-name="Trazado 205514" d="M252.477,339.391a13.191,13.191,0,0,0,.867,2.239,27.465,27.465,0,0,1,9.627,1.679,12.5,12.5,0,0,0,1.2-3.566c-4.37-1.927-11.695-.352-11.695-.352" transform="translate(-156.308 -237.419)" fill="#211010"/>
          <path id="Trazado_205515" data-name="Trazado 205515" d="M170.732,140.866s38.553-17.038,43.378-50.917c0,0,40.3,38.382,51.923,24,0,0-.12-37.793-28.275-46.572-15.445-4.815-26.71-.658-26.71-.658-20.285-1.072-31.185.851-50.645,21.334-20.037,21.089-10.924,64.857,10.329,52.814" transform="translate(-127.285 -45.588)" fill="#211010"/>
          <path id="Trazado_205516" data-name="Trazado 205516" d="M308.8,183.654l0-.686a69.362,69.362,0,0,0,69.357-61.606l.683.077A70.049,70.049,0,0,1,308.8,183.654" transform="translate(-287.826 -85.051)" fill="#211010"/>
          <path id="Trazado_205517" data-name="Trazado 205517" d="M217.932,138.206a77.162,77.162,0,0,1-59.6-45.664l.632-.267a76.466,76.466,0,0,0,59.058,45.25Z" transform="translate(-81.993 -64.667)" fill="#211010"/>
          <path id="Trazado_205518" data-name="Trazado 205518" d="M175.757,125.629s-5.932-42.683,25.519-55.419c42.017-17.015,60.317,17.871,63.906,29.89a.828.828,0,0,0,1.618-.175c.394-4.036-.99-11.417-6.186-22.689C253.869,62.6,243.75,53.464,219.344,54.563c-19.575.881-45.509,14.5-49.82,37.345-3.693,19.564,3.335,39.126,6.233,33.72" transform="translate(-133.865 -38.176)" fill="#244eff"/>
          <path id="Trazado_205519" data-name="Trazado 205519" d="M433.576,129.651a.347.347,0,0,1-.176-.047.352.352,0,0,1-.129-.481,51.829,51.829,0,0,1,7.587-10.062.352.352,0,0,1,.506.489,51.09,51.09,0,0,0-7.483,9.925.352.352,0,0,1-.305.176" transform="translate(-387.681 -83.363)" fill="#1b3abf"/>
          <path id="Trazado_205520" data-name="Trazado 205520" d="M441.84,129.827a.352.352,0,0,1-.315-.509,26.643,26.643,0,0,1,10.057-10.874.352.352,0,1,1,.361.6,25.931,25.931,0,0,0-9.788,10.584.352.352,0,0,1-.316.2" transform="translate(-400.805 -82.971)" fill="#1b3abf"/>
          <path id="Trazado_205521" data-name="Trazado 205521" d="M368.622,86.883a.352.352,0,0,1-.159-.666,51.826,51.826,0,0,1,11.858-4.264.352.352,0,0,1,.156.686,51.09,51.09,0,0,0-11.7,4.207.355.355,0,0,1-.158.037" transform="translate(-307.533 -57.427)" fill="#1b3abf"/>
          <path id="Trazado_205522" data-name="Trazado 205522" d="M361.991,73.994a.352.352,0,0,1-.235-.614A26.645,26.645,0,0,1,375.123,67a.352.352,0,1,1,.113.695,25.939,25.939,0,0,0-13.01,6.212.35.35,0,0,1-.235.09" transform="translate(-300.33 -46.949)" fill="#1b3abf"/>
          <path id="Trazado_205523" data-name="Trazado 205523" d="M412.27,33.7S423.75,16.715,410.444,0c0,0-14.327,11.8,1.826,33.7" transform="translate(-354.52 -0.003)" fill="#244eff"/>
          <path id="Trazado_205524" data-name="Trazado 205524" d="M454.049,92.731s-14.364-14.628-33.388-4.91c0,0,8.714,16.386,33.388,4.91" transform="translate(-396.508 -59.209)" fill="#244eff"/>
          <path id="Trazado_205525" data-name="Trazado 205525" d="M415.54,60.093a.339.339,0,0,1-.111-.018.352.352,0,0,1-.224-.445,24.834,24.834,0,0,0,.148-15.061.352.352,0,0,1,.672-.209,25.546,25.546,0,0,1-.151,15.491.352.352,0,0,1-.334.241" transform="translate(-357.975 -30.915)" fill="#1b3abf"/>
          <path id="Trazado_205526" data-name="Trazado 205526" d="M426.262,57.6a.352.352,0,0,1-.346-.293,127.076,127.076,0,0,1-1.585-14.415.352.352,0,0,1,.333-.37.348.348,0,0,1,.37.333,126.182,126.182,0,0,0,1.575,14.335.351.351,0,0,1-.288.405.34.34,0,0,1-.059.005" transform="translate(-370.17 -29.797)" fill="#1b3abf"/>
          <path id="Trazado_205527" data-name="Trazado 205527" d="M453.722,101.906a18.917,18.917,0,0,1-2.7-.247l-9.14-1.337a.352.352,0,0,1-.3-.4.355.355,0,0,1,.4-.3l9.14,1.337c1.966.287,3.855.473,5.338-.4a.352.352,0,0,1,.358.606,5.949,5.949,0,0,1-3.1.741" transform="translate(-405.715 -69.816)" fill="#1b3abf"/>
          <path id="Trazado_205528" data-name="Trazado 205528" d="M449.87,111.473a25.353,25.353,0,0,1-8.181-1.345.352.352,0,1,1,.228-.666,24.75,24.75,0,0,0,13.452.685.352.352,0,1,1,.16.685,25.034,25.034,0,0,1-5.659.641" transform="translate(-404.48 -76.698)" fill="#1b3abf"/>
          <path id="Trazado_205529" data-name="Trazado 205529" d="M411.671,93.041s7.709-5.682,2.948-10.2-13.331,2.833-14.57,6.382,5.69,8.874,11.622,3.819" transform="translate(-352.419 -57.055)" fill="#1b3abf"/>
        </g>
      </g>
      <g id="Grupo_982716" data-name="Grupo 982716" transform="translate(742.635 4930)">
        <g id="Grupo_982715" data-name="Grupo 982715" transform="translate(0 0)" clip-path="url(#clip-path-3)">
          <path id="Trazado_205429" data-name="Trazado 205429" d="M25.093,612.826S42.016,644.358,60.13,654.57c0,0-6.123,18.253-20.7,23.414,0,0-29.368-35.552-36.533-52.563C-2.881,611.7,1.184,579.113,4.7,561.1c7.962,6.614,16.855,10.5,26.354,13.239Z" transform="translate(0 -389.045)" fill="#e6a07e"/>
          <path id="Trazado_205430" data-name="Trazado 205430" d="M43.14,542.463,41.7,551.771c-9.5-2.741-18.392-6.626-26.354-13.24.843-4.314,1.656-7.8,2.294-9.982Z" transform="translate(-10.638 -366.474)" fill="#dc8765"/>
          <path id="Trazado_205431" data-name="Trazado 205431" d="M190.963,103.721s3.942,32.32-6.737,46.1S165.6,167.871,151.57,170.385s-53.542-4.093-58.22-12.589-12.433-34.6-7.719-52.006,105.332-2.07,105.332-2.07" transform="translate(-58.356 -67.589)" fill="#211010"/>
          <path id="Trazado_205432" data-name="Trazado 205432" d="M194.416,373.677s5.266-2.4,20.731-.708,17.662,2.077,17.662,2.077l-13.516,18.738-20.766-8.618Z" transform="translate(-134.8 -258.183)" fill="#ff6248"/>
          <path id="Trazado_205433" data-name="Trazado 205433" d="M234.544,333.792l.071-15.2-32,4.635.557,14.515c10.843,1.516,21.346-.248,31.373-3.949" transform="translate(-140.484 -220.898)" fill="#dc8765"/>
          <path id="Trazado_205434" data-name="Trazado 205434" d="M235.8,368.163c-10.027,3.7-20.53,5.465-31.373,3.949l.083,2.157s-.734,23.448,15.77,24.821,15.494-25.463,15.494-25.463Z" transform="translate(-141.744 -255.269)" fill="#e6a07e"/>
          <path id="Trazado_205435" data-name="Trazado 205435" d="M114.427,62.192s-.456,18.536,0,40.474c.367,17.76,14.932,34.839,36.645,35.783,20.408.887,41.406-7.771,47.146-36.491s.751-52.023-25.322-57.82S120.957,40,114.427,62.192" transform="translate(-79.198 -28.627)" fill="#e6a07e"/>
          <path id="Trazado_205436" data-name="Trazado 205436" d="M212.525,87.058c.108-.157.18-.245.18-.245s-.065.091-.18.245" transform="translate(-147.356 -60.194)" fill="#ff6248"/>
          <path id="Trazado_205437" data-name="Trazado 205437" d="M358.738,237.6l4.407-16.776s15.165-5.885,16.3,9.779-15.329,16.812-20.7,7" transform="translate(-248.733 -152.361)" fill="#e6a07e"/>
          <path id="Trazado_205438" data-name="Trazado 205438" d="M306.127,156.306s3.389-4.044-4.062-8.849-10.008-3.658-11.146-1.152c-1.038,2.287.717,5.644,4.942,8.235,5.073,3.11,8.429,4.088,10.266,1.766" transform="translate(-201.508 -99.941)" fill="#211010"/>
          <path id="Trazado_205439" data-name="Trazado 205439" d="M142.429,152.469s-2.735-4.513,5.36-8.129,10.448-2.094,11.191.557c.678,2.418-1.567,5.47-6.137,7.387-5.486,2.3-8.952,2.759-10.414.185" transform="translate(-98.446 -98.6)" fill="#211010"/>
          <path id="Trazado_205440" data-name="Trazado 205440" d="M293.719,214.816c.046,2.138,1.505,3.84,3.259,3.8s3.139-1.8,3.093-3.939-1.505-3.84-3.259-3.8-3.139,1.8-3.093,3.939" transform="translate(-203.651 -146.214)" fill="#211010"/>
          <path id="Trazado_205441" data-name="Trazado 205441" d="M167.594,214.142c.046,2.138,1.5,3.84,3.259,3.8s3.139-1.8,3.093-3.939-1.505-3.84-3.259-3.8-3.139,1.8-3.093,3.939" transform="translate(-116.202 -145.747)" fill="#211010"/>
          <path id="Trazado_205442" data-name="Trazado 205442" d="M372.783,249.488a.314.314,0,0,0,.277-.45c-.036-.075-3.55-7.542,1.635-11.162a6.964,6.964,0,0,1,5.394-1.4,8.678,8.678,0,0,1,4.933,3.465.314.314,0,0,0,.528-.341,9.16,9.16,0,0,0-5.335-3.74,7.568,7.568,0,0,0-5.879,1.5c-5.624,3.926-1.88,11.87-1.841,11.95a.314.314,0,0,0,.29.177" transform="translate(-257.399 -163.452)" fill="#632114"/>
          <path id="Trazado_205443" data-name="Trazado 205443" d="M380.409,255.034a.314.314,0,0,0,.176-.57c-.053-.038-5.408-3.774-9.237.228a.314.314,0,0,0,.454.435c3.455-3.611,8.369-.185,8.419-.15a.316.316,0,0,0,.189.058" transform="translate(-257.415 -175.311)" fill="#632114"/>
          <path id="Trazado_205444" data-name="Trazado 205444" d="M217.155,177.031a.314.314,0,0,0,.117-.6,8.494,8.494,0,0,1-3.728-3.348c-.912-1.748-.7-4.407.451-5.58a2.216,2.216,0,0,1,2.763-.227c.035.018.092.049.167.09,3.916,2.163,5.639,1.116,6.4-.143,1.388-2.312-.24-20.3-.431-22.338a.319.319,0,0,0-.343-.284.315.315,0,0,0-.284.343c.512,5.494,1.6,20.149.518,21.955-.892,1.487-2.76,1.461-5.553-.084-.086-.048-.15-.083-.191-.1a2.829,2.829,0,0,0-3.492.35c-1.339,1.367-1.6,4.316-.56,6.311a8.978,8.978,0,0,0,4.038,3.635.312.312,0,0,0,.13.025" transform="translate(-147.233 -100.258)" fill="#632114"/>
          <path id="Trazado_205445" data-name="Trazado 205445" d="M231.854,267.781a8.664,8.664,0,0,0,5.751-3.443.253.253,0,0,0-.422-.279,7.685,7.685,0,0,1-8.32,2.982.252.252,0,0,0-.13.488,8.3,8.3,0,0,0,3.12.253" transform="translate(-158.464 -183.01)" fill="#632114"/>
          <path id="Trazado_205446" data-name="Trazado 205446" d="M92.258,225.731,92,208.388s-13.313-9.348-18.164,5.589,10.854,20,18.423,11.754" transform="translate(-50.561 -142.485)" fill="#e6a07e"/>
          <path id="Trazado_205447" data-name="Trazado 205447" d="M95.435,235.829a.318.318,0,0,1-.119-.061.314.314,0,0,1-.042-.442c.053-.065,5.253-6.472,1.087-11.228a6.964,6.964,0,0,0-4.9-2.652,8.677,8.677,0,0,0-5.62,2.183.314.314,0,0,1-.43-.458,9.162,9.162,0,0,1,6.076-2.352,7.566,7.566,0,0,1,5.348,2.866c4.52,5.16-1.02,11.974-1.076,12.043a.314.314,0,0,1-.324.1" transform="translate(-59.152 -153.101)" fill="#632114"/>
          <path id="Trazado_205448" data-name="Trazado 205448" d="M98.638,241.168a.314.314,0,0,1-.034-.6c.061-.024,6.155-2.368,8.914,2.435a.314.314,0,0,1-.545.314c-2.489-4.334-8.081-2.185-8.137-2.163a.312.312,0,0,1-.2.011" transform="translate(-68.23 -166.392)" fill="#632114"/>
          <path id="Trazado_205449" data-name="Trazado 205449" d="M284.023,259c.656,2.973,5.7,4.388,11.269,3.16s9.55-4.634,8.895-7.607-5.7-4.388-11.269-3.16-9.551,4.634-8.895,7.607" transform="translate(-196.88 -174)" fill="#dc8765"/>
          <path id="Trazado_205450" data-name="Trazado 205450" d="M154.68,258.877c-.661,2.972-5.709,4.378-11.275,3.14s-9.542-4.651-8.881-7.623,5.709-4.378,11.275-3.14,9.542,4.651,8.881,7.623" transform="translate(-93.223 -173.898)" fill="#dc8765"/>
          <path id="Trazado_205451" data-name="Trazado 205451" d="M110.649,2.183c20.273-4.123,39.6,3.577,46.8,6.982C156.833,4.924,158.764,0,160.187,0c1.882,0,1.48,8.293,1.312,10.827l.226.042c.8-1.885,3.245-6.906,5.79-5.085,1.733,1.24-.352,3.857-2.537,5.931,6.577,2.127,21.858,6.264,23.651,24.417,2.125,21.515-7.281,31.658-7.281,31.658s-2.763.737-13.029-3.111c-3.1-1.163-11.957-43.5-23.165-32.471C121.347,55.632,109.428,53.2,88.845,57.24c-7.241,1.42-4.514,6.155-7.407-7.65S85.011,7.4,110.649,2.183" transform="translate(-56.023 -0.004)" fill="#211010"/>
          <path id="Trazado_205452" data-name="Trazado 205452" d="M38.069,884.54c-3.433,16.484-14.031,71.49-14.114,74.906l55.219-.423.32-39s12.513.635,14.157.367l.426,39.774s42.93,4.077,55.845,4.746c0,0-1.625-63.008-4.348-87.045-34.34,12.679-72.777,15.329-107.5,6.678" transform="translate(-16.609 -608.672)" fill="#ffcce4"/>
          <path id="Trazado_205453" data-name="Trazado 205453" d="M76.944,793.182s-3.482,15.938-6.962,32.645c34.728,8.651,73.164,6,107.5-6.678a180.527,180.527,0,0,0-3.294-20.717Z" transform="translate(-48.522 -549.959)" fill="#ffabd2"/>
          <path id="Trazado_205454" data-name="Trazado 205454" d="M412.035,928.261a.241.241,0,0,1-.22-.234c-.852-40.322-7.258-103.112-7.307-103.407a.239.239,0,0,1,.2-.275.235.235,0,0,1,.276.2c.048.294,6.46,63.116,7.314,103.473a.241.241,0,0,1-.235.246h-.025" transform="translate(-280.466 -571.563)" fill="#211010"/>
          <path id="Trazado_205455" data-name="Trazado 205455" d="M362.642,679.978s-8.57,18.954-27.522,27.511a49.115,49.115,0,0,0,20.768,18.346S374.972,710.8,383.624,694.5c6.98-13.154,5.834-45.97,3.932-64.224-8.519,5.878-17.723,8.956-27.429,10.839Z" transform="translate(-232.358 -437.007)" fill="#e6a07e"/>
          <path id="Trazado_205456" data-name="Trazado 205456" d="M414.691,608.773l.608,9.4c9.705-1.884,18.91-4.961,27.429-10.839-.456-4.372-.954-7.917-1.4-10.147Z" transform="translate(-287.529 -414.064)" fill="#dc8765"/>
          <path id="Trazado_205457" data-name="Trazado 205457" d="M223.54,894.978a.24.24,0,0,1-.22-.251l1.991-39.768a.24.24,0,0,1,.251-.227.234.234,0,0,1,.228.252L223.8,894.752a.24.24,0,0,1-.251.227h-.008" transform="translate(-154.84 -592.634)" fill="#211010"/>
          <path id="Trazado_205458" data-name="Trazado 205458" d="M225.178,912.189a.24.24,0,1,1,.04-.478c.287.024,7.032.492,8.011-6.605,1.008-7.317,1.466-19.992,1.471-20.12a.24.24,0,1,1,.479.017c0,.127-.463,12.828-1.475,20.169-1.041,7.552-8.45,7.024-8.525,7.018" transform="translate(-155.976 -613.451)" fill="#211010"/>
          <path id="Trazado_205459" data-name="Trazado 205459" d="M352.275,894.309a.229.229,0,0,1-.084-.023c-.17-.081-17.144-8.317-28.044-24.7a.24.24,0,1,1,.4-.266c10.824,16.271,27.683,24.454,27.852,24.535a.24.24,0,0,1-.123.455" transform="translate(-224.722 -602.675)" fill="#211010"/>
          <path id="Trazado_205460" data-name="Trazado 205460" d="M65.126,869.842a.239.239,0,0,1-.219-.259c.021-.248.27-.354,1.317-.794,3.618-1.522,14.628-6.153,23.215-20.981a.24.24,0,0,1,.415.239c-8.668,14.969-19.79,19.646-23.444,21.184a9.324,9.324,0,0,0-1.049.478.24.24,0,0,1-.235.133" transform="translate(-45.003 -587.752)" fill="#211010"/>
          <path id="Trazado_205461" data-name="Trazado 205461" d="M183.827,1013.4c-2.679-.223-4.223-.427-4.271-.433a.24.24,0,0,1-.205-.27.254.254,0,0,1,.27-.206,168.406,168.406,0,0,0,34.581.244.24.24,0,0,1,.046.478,175.5,175.5,0,0,1-30.42.187" transform="translate(-124.353 -702.019)" fill="#211010"/>
          <path id="Trazado_205462" data-name="Trazado 205462" d="M256.412,1020.364a.241.241,0,0,1-.12-.044l-5.737-4.125a.24.24,0,0,1-.055-.336.243.243,0,0,1,.335-.055l5.737,4.125a.24.24,0,0,1-.16.434" transform="translate(-173.655 -704.285)" fill="#211010"/>
          <path id="Trazado_205463" data-name="Trazado 205463" d="M100.781,401.187l-3.47,10.047s-2.836-9.761-3.155-10.8-25.665-2.126-25.665-2.126S43.3,410.392,24.63,430.317c0,0-5.5,7.128,26.338,19.1,0,0-1.717,27.945-3.258,36.734s-7.34,39.518-7.34,39.518a64.461,64.461,0,0,0,36.669,22.1s7.144-3.054,10.5-9.26c0,0,6.006,10.633,14.695,13.382s27.64-10.672,35.622-18.926,9.256-13.822,9.256-13.822l-2.928-52.532s15.2-2.384,27.538-19.192c0,0-11.209-30.927-16.98-34.65S120.388,401.8,120.388,401.8Z" transform="translate(-16.826 -276.17)" fill="#ffcc3e"/>
          <path id="Trazado_205464" data-name="Trazado 205464" d="M415.208,577.653l-.052,4.26s19.539-3.441,30.608-14.681c0,0,.166-6.877-3.018-8.771a94.1,94.1,0,0,1-27.538,19.193" transform="translate(-287.851 -387.213)" fill="#ff6248"/>
          <path id="Trazado_205465" data-name="Trazado 205465" d="M42.674,520.617l-.006,4.26s-19.491-3.706-30.406-15.095c0,0-.073-6.878,3.137-8.729a94.1,94.1,0,0,0,27.274,19.564" transform="translate(-8.502 -347.409)" fill="#ff6248"/>
          <path id="Trazado_205466" data-name="Trazado 205466" d="M191.577,385.413s-16.388-7.646-17.714-8.769a85.959,85.959,0,0,0-9.089,9.377s12.582,14.423,16.926,15.8Z" transform="translate(-114.248 -261.15)" fill="#ff6248"/>
          <path id="Trazado_205467" data-name="Trazado 205467" d="M273.9,388.859s12.528-6.862,14.02-7.751a52.054,52.054,0,0,1,10.167,11.79s-12.645,13.135-17.156,13.773Z" transform="translate(-189.908 -264.245)" fill="#ff6248"/>
          <path id="Trazado_205468" data-name="Trazado 205468" d="M239.588,439.9a.24.24,0,0,1,.258-.221h0a.24.24,0,0,1,.219.258l-9.774,127.272a.24.24,0,0,1-.258.221h0a.24.24,0,0,1-.219-.257" transform="translate(-159.343 -304.857)" fill="#ff6248"/>
          <path id="Trazado_205469" data-name="Trazado 205469" d="M283.225,526.562l24.031.661a2.753,2.753,0,0,1,2.673,2.6l1.082,19.146a2.752,2.752,0,0,1-1.181,2.418l-11.818,8.189a2.753,2.753,0,0,1-3.1.028L279.8,549.518a2.753,2.753,0,0,1-1.211-2.568l1.818-17.914a2.753,2.753,0,0,1,2.815-2.474" transform="translate(-193.154 -365.095)" fill="#ff6248"/>
          <rect id="Rectángulo_338388" data-name="Rectángulo 338388" width="0.96" height="29.499" transform="translate(87.153 165.9) rotate(-86.813)" fill="#fff"/>
          <path id="Trazado_205470" data-name="Trazado 205470" d="M256.419,434.138a.238.238,0,0,1,.021-.082l2.238-4.982a.24.24,0,0,1,.438.2l-2.22,4.943L248.34,566.3a.24.24,0,0,1-.255.224h0a.24.24,0,0,1-.22-.254" transform="translate(-171.856 -297.404)" fill="#ff6248"/>
          <path id="Trazado_205471" data-name="Trazado 205471" d="M242.111,433.188c-5.054-.42-7.5-2.476-7.643-2.6a.24.24,0,0,1,.314-.362c.048.042,4.963,4.15,15.238,1.84a.24.24,0,0,1,.1.469,26.5,26.5,0,0,1-8.014.653" transform="translate(-162.512 -298.26)" fill="#ff6248"/>
          <path id="Trazado_205472" data-name="Trazado 205472" d="M267.058,450.29a1.515,1.515,0,1,1-1.384-1.635,1.515,1.515,0,0,1,1.384,1.635" transform="translate(-183.07 -311.075)" fill="#ff6248"/>
          <path id="Trazado_205473" data-name="Trazado 205473" d="M262.254,508.051a1.515,1.515,0,1,1-1.384-1.635,1.515,1.515,0,0,1,1.384,1.635" transform="translate(-179.739 -351.124)" fill="#ff6248"/>
          <path id="Trazado_205474" data-name="Trazado 205474" d="M257.418,566.756a1.515,1.515,0,1,1,.088-2.14,1.515,1.515,0,0,1-.088,2.14" transform="translate(-176.72 -391.142)" fill="#ff6248"/>
          <path id="Trazado_205475" data-name="Trazado 205475" d="M253.314,634.572a1.515,1.515,0,1,1,.088-2.14,1.514,1.514,0,0,1-.088,2.14" transform="translate(-173.875 -438.163)" fill="#ff6248"/>
          <path id="Trazado_205476" data-name="Trazado 205476" d="M244.009,758.382a1.515,1.515,0,1,1,.088-2.14,1.515,1.515,0,0,1-.088,2.14" transform="translate(-167.423 -524.008)" fill="#ff6248"/>
          <path id="Trazado_205477" data-name="Trazado 205477" d="M248.512,700.265a1.515,1.515,0,1,1,.088-2.14,1.515,1.515,0,0,1-.088,2.14" transform="translate(-170.546 -483.711)" fill="#ff6248"/>
          <path id="Trazado_205478" data-name="Trazado 205478" d="M238.589,831.674a1.515,1.515,0,1,1,.088-2.141,1.515,1.515,0,0,1-.088,2.141" transform="translate(-163.665 -574.825)" fill="#ff6248"/>
        </g>
      </g>
    </g>
  </g>
</svg>
