<svg xmlns="http://www.w3.org/2000/svg" xmlns:xlink="http://www.w3.org/1999/xlink" width="166" height="130" viewBox="0 0 166 130">
  <defs>
    <clipPath id="clip-path">
      <rect id="Rect치ngulo_338346" data-name="Rect치ngulo 338346" width="121.028" height="121.022" fill="none"/>
    </clipPath>
  </defs>
  <g id="Grupo_982611" data-name="Grupo 982611" transform="translate(-252 -1187)">
    <rect id="Rect치ngulo_338316" data-name="Rect치ngulo 338316" width="166" height="130" rx="14" transform="translate(252 1187)" fill="#6b8dfc"/>
    <g id="Grupo_982610" data-name="Grupo 982610" transform="translate(274 1191)">
      <g id="Grupo_982609" data-name="Grupo 982609" clip-path="url(#clip-path)">
        <path id="Trazado_204904" data-name="Trazado 204904" d="M114.407,121.022H6.382c-.225-.4-.67-.334-1.014-.467a8.161,8.161,0,0,1-4.9-4.9c-.132-.344-.073-.789-.467-1.015V38.526c.185-.031.222-.176.281-.326,1.654-4.237,4.1-5.919,8.607-5.922q7.8-.006,15.592.006a2.237,2.237,0,0,0,1.611-.521q11.864-10.2,23.768-20.355a1.489,1.489,0,0,0,.582-1.294A10.065,10.065,0,0,1,70.57,9.872a2.094,2.094,0,0,0,.863,1.757C78.324,17.5,85.286,23.3,92.02,29.345c2.414,2.168,4.818,3.475,8.063,2.936a2.326,2.326,0,0,1,.472,0c1.472.055,1.985.492,2.328,1.982-.348,1.59-.911,2.055-2.641,2.059-5.357.013-10.713.005-16.069.005q-37.573,0-75.147.006a3.4,3.4,0,0,0-1.914.271c1,.973,1.945,1.809,2.784,2.742a2.989,2.989,0,0,0,2.461,1.042q21.681-.05,43.362-.022,26.586,0,53.17-.007c.459,0,.986.174,1.362-.2,1.193-1.176,2.357-2.381,3.582-3.625a1.57,1.57,0,0,0-.4-.158c-1.3-.024-2.6-.034-3.9-.053-1.695-.025-2.191-.405-2.694-2.049a2.084,2.084,0,0,1,2.185-1.982c1.219-.043,2.442-.032,3.662-.011a8.039,8.039,0,0,1,8.334,8.459q.015,7.266,0,14.533,0,28.653,0,57.306a7.99,7.99,0,0,1-6.374,8.232c-.093.025-.162.138-.242.21M12.085,86.432c.545-.434.854-.67,1.153-.919q14.528-12.1,29.052-24.2c2.909-2.424,5.319-2.423,8.239.012,3.054,2.548,6.129,5.072,9.155,7.654a1.062,1.062,0,0,0,1.678-.009c3.086-2.633,6.211-5.22,9.335-7.807,2.678-2.218,5.22-2.211,7.88,0q14.617,12.174,29.237,24.345c.306.255.536.691,1.127.623V85.08c0-13.117-.015-26.235.026-39.352,0-1.106-.317-1.356-1.377-1.355q-47.094.041-94.186,0c-1.122,0-1.344.346-1.341,1.39q.049,19.617.022,39.234v1.439m48.309,22.519h46.918c1.64,0,1.641,0,1.642-1.57,0-4.372-.028-8.745.02-13.118.011-1.039-.23-1.431-1.365-1.43q-47.1.045-94.191,0c-1.134,0-1.379.387-1.367,1.429.048,4.333.02,8.667.02,13,0,1.688,0,1.689,1.641,1.689H60.394M44.176,88.558h60.556a48.238,48.238,0,0,0-4.391-3.969Q88.161,74.434,75.992,64.267a1.732,1.732,0,0,0-2.592-.085c-2.6,2.219-5.253,4.377-7.881,6.564q-8.248,6.861-16.49,13.729c-1.557,1.3-3.1,2.61-4.853,4.083m-28.136.036c.64.031,1.017.066,1.394.066,6.343,0,12.685-.016,19.028.022a3.411,3.411,0,0,0,2.335-.906q8.371-7,16.771-13.971c1.795-1.489,1.813-1.466.015-3-.09-.077-.171-.163-.262-.239q-3.8-3.182-7.6-6.363a1.691,1.691,0,0,0-2.434-.145q-5.11,4.281-10.233,8.548c-4.926,4.1-9.87,8.182-14.78,12.3a42.26,42.26,0,0,0-4.234,3.685M60.529,117h51.392c.394,0,.789.011,1.181-.019.181-.014.434-.063.516-.187.169-.256-.112-.414-.263-.571a15.691,15.691,0,0,1-1.32-1.35c-1.16-1.55-2.633-1.951-4.574-1.946q-46.431.1-92.86-.014c-2.648-.008-4.743.45-6.288,2.658-.288.41-1.055.716-.9,1.14.211.576.974.277,1.488.277Q34.716,117,60.529,117M4.354,39.4a2.727,2.727,0,0,0-.318,1.88q-.015,35.334-.008,70.667c0,.355-.006.71.01,1.064.01.227-.046.519.211.628s.417-.15.575-.307c.951-.942,1.882-1.906,2.849-2.832a1.45,1.45,0,0,0,.383-1.182q0-32.675-.005-65.349c0-.345.074-.71-.215-1.005C6.687,41.79,5.544,40.615,4.354,39.4M116.7,39.51c-1.949,1.911-4.493,3.4-3.761,6.83a14.411,14.411,0,0,1,.03,2.947q0,29.775.008,59.549c0,.494-.189,1.05.222,1.471q1.569,1.606,3.17,3.179c.344.339.556.2.6-.241.027-.273.027-.55.027-.826q0-35.8-.005-71.6c0-.414.125-.87-.29-1.309M76.81,32.2c-.184-.474-.555-.652-.845-.9-3.781-3.2-7.6-6.36-11.34-9.612-1.261-1.1-2.456-2.027-4.254-1.572a2.734,2.734,0,0,1-1.173-.055,1.494,1.494,0,0,0-1.372.452q-6.564,5.576-13.152,11.123c-.16.135-.437.21-.376.561ZM60.519,16.1a6.024,6.024,0,0,0,6.042-5.968A6.053,6.053,0,1,0,60.519,16.1M32,32.047l.093.295c1.474,0,2.95-.027,4.424.011a2.825,2.825,0,0,0,2.014-.782q7.278-6.187,14.6-12.32c1.29-1.082,1.3-1.054.169-2.228a6.046,6.046,0,0,1-.9-1.086c-.408-.693-.722-.809-1.409-.215C45.727,20.273,40.421,24.777,35.134,29.3c-1.056.9-2.093,1.831-3.138,2.747m54.162.295c.669,0,1.339.011,2.007-.006.261-.006.615.121.75-.18.147-.324-.206-.461-.4-.628Q79.733,24.012,70.94,16.5c-1.54-1.313-1.557-1.292-2.873.169a3.88,3.88,0,0,1-.581.586c-.83.592-.73,1.041.038,1.68q6.8,5.66,13.525,11.409c1.495,1.281,2.908,2.6,5.109,1.994" fill="#1d1d1b"/>
        <path id="Trazado_204905" data-name="Trazado 204905" d="M12.084,86.433V84.994q0-19.617-.021-39.234c0-1.044.219-1.392,1.341-1.39q47.092.048,94.185,0c1.061,0,1.381.249,1.378,1.355-.041,13.118-.026,26.235-.026,39.352v1.059c-.591.067-.822-.369-1.127-.623Q93.188,73.352,78.577,61.171c-2.66-2.216-5.2-2.222-7.88-.005-3.125,2.587-6.249,5.175-9.336,7.807a1.06,1.06,0,0,1-1.677.009c-3.026-2.581-6.1-5.105-9.155-7.653-2.92-2.436-5.33-2.436-8.239-.012q-14.523,12.1-29.052,24.2c-.3.249-.609.486-1.154.92M25.246,48.427a9.071,9.071,0,0,0-9.125,9.049,9.078,9.078,0,0,0,18.155.071,9.029,9.029,0,0,0-9.03-9.12M94.732,58.5V58.5h3.651c.078,0,.157,0,.235-.006,1.385-.085,2.27-.9,2.238-2.069a2.054,2.054,0,0,0-2.212-1.976q-3.826-.06-7.654,0a2.027,2.027,0,1,0-.026,4.038c1.255.043,2.512.009,3.768.009M60.341,54.439c1.334,0,2.67.027,4-.008a2.011,2.011,0,1,0,.106-4.01q-3.943-.073-7.889,0a2,2,0,1,0,.012,4c1.255.041,2.512.009,3.768.012" fill="#5c9ffd"/>
        <path id="Trazado_204906" data-name="Trazado 204906" d="M60.393,108.951q-23.34,0-46.681,0c-1.64,0-1.641,0-1.641-1.689,0-4.334.028-8.667-.02-13-.012-1.042.233-1.43,1.366-1.429q47.1.043,94.191,0c1.136,0,1.377.39,1.366,1.43-.048,4.372-.02,8.745-.021,13.118,0,1.569,0,1.57-1.641,1.57q-23.46,0-46.919,0m28.37-12.069a6.747,6.747,0,0,0-5.246,2.252,4.908,4.908,0,0,1-2.828,1.771c-1.483.205-2.189,1.122-1.959,2.375a2.241,2.241,0,0,0,2.757,1.564,8.937,8.937,0,0,0,5.107-2.937c1.379-1.446,2.891-1.408,4.329-.018.311.3.615.608.917.917a7.379,7.379,0,0,0,4.629,2.093,2.108,2.108,0,0,0,2.315-1.73,1.8,1.8,0,0,0-1.49-2.185,5.217,5.217,0,0,1-3.376-1.916,6.6,6.6,0,0,0-5.155-2.186m-56.445,0a6.7,6.7,0,0,0-5.447,2.491,4.27,4.27,0,0,1-2.694,1.535c-1.427.2-2.136,1.087-1.934,2.281a2.2,2.2,0,0,0,2.682,1.674,7.965,7.965,0,0,0,4.939-2.74,3.134,3.134,0,0,1,2.669-1.225,3.45,3.45,0,0,1,2.338,1.437A8.026,8.026,0,0,0,39.91,104.9a2.142,2.142,0,0,0,2.387-1.641,1.85,1.85,0,0,0-1.52-2.282,5.174,5.174,0,0,1-3.291-1.855,6.6,6.6,0,0,0-5.168-2.239m28.061-.007a6.482,6.482,0,0,0-5.011,2.218,4.672,4.672,0,0,1-2.925,1.818,2.018,2.018,0,0,0-1.993,2.259,2.188,2.188,0,0,0,2.678,1.687,8.417,8.417,0,0,0,5.111-2.891c1.44-1.518,3.044-1.465,4.559-.017q.468.447.916.918a7.087,7.087,0,0,0,4.529,2.028,2.167,2.167,0,0,0,2.334-1.734,1.954,1.954,0,0,0-1.537-2.19A5.018,5.018,0,0,1,65.563,99a6.66,6.66,0,0,0-5.184-2.129" fill="#3e7389"/>
        <path id="Trazado_204907" data-name="Trazado 204907" d="M44.176,88.559c1.75-1.473,3.3-2.785,4.853-4.083q8.241-6.87,16.489-13.73C68.146,68.56,70.8,66.4,73.4,64.183a1.731,1.731,0,0,1,2.591.084Q88.15,74.448,100.341,84.59a48.371,48.371,0,0,1,4.391,3.969Z" fill="#57686c"/>
        <path id="Trazado_204908" data-name="Trazado 204908" d="M16.04,88.594a42.039,42.039,0,0,1,4.234-3.685c4.91-4.121,9.854-8.2,14.78-12.3q5.123-4.266,10.232-8.548a1.692,1.692,0,0,1,2.435.146q3.8,3.184,7.6,6.363c.09.075.172.162.262.238,1.8,1.535,1.779,1.513-.016,3q-8.4,6.967-16.771,13.971a3.4,3.4,0,0,1-2.335.906c-6.342-.037-12.685-.018-19.027-.022-.377,0-.754-.035-1.394-.066" fill="#57686c"/>
        <path id="Trazado_204909" data-name="Trazado 204909" d="M102.883,34.261l3.959.014c.5,1.644,1,2.024,2.693,2.049,1.3.019,2.6.03,3.9.053a1.584,1.584,0,0,1,.4.158c-1.225,1.244-2.389,2.449-3.582,3.625-.377.371-.9.2-1.362.2q-26.584.012-53.17.007-21.681,0-43.363.023A2.991,2.991,0,0,1,9.9,39.344c-.839-.933-1.787-1.769-2.785-2.741a3.4,3.4,0,0,1,1.915-.272q37.574-.009,75.146-.005c5.357,0,10.713.007,16.069-.006,1.731,0,2.294-.469,2.642-2.059" fill="#d7ac81"/>
        <path id="Trazado_204910" data-name="Trazado 204910" d="M60.529,117q-25.813,0-51.628-.012c-.514,0-1.277.3-1.488-.278-.155-.424.612-.729.9-1.14,1.545-2.208,3.64-2.666,6.289-2.658q46.43.144,92.859.014c1.942,0,3.415.4,4.574,1.947a15.84,15.84,0,0,0,1.321,1.349c.151.158.431.315.262.571-.082.124-.335.174-.515.188-.392.03-.787.019-1.181.019H60.529" fill="#d9ae82"/>
        <path id="Trazado_204911" data-name="Trazado 204911" d="M4.354,39.4c1.19,1.219,2.333,2.394,3.482,3.564.29.3.215.66.215,1.005q0,32.675.005,65.349a1.447,1.447,0,0,1-.383,1.182c-.967.926-1.9,1.89-2.849,2.833-.158.156-.31.418-.575.306s-.2-.4-.211-.628c-.016-.354-.01-.709-.01-1.064q0-35.334.008-70.667a2.727,2.727,0,0,1,.318-1.88" fill="#d9ae82"/>
        <path id="Trazado_204912" data-name="Trazado 204912" d="M116.7,39.51c.415.439.29.9.29,1.309q.011,35.8.005,71.6c0,.276,0,.553-.027.826-.043.445-.255.58-.6.241q-1.6-1.577-3.17-3.179c-.411-.421-.222-.977-.223-1.47q-.013-29.775-.007-59.55a14.41,14.41,0,0,0-.031-2.947c-.732-3.429,1.812-4.919,3.761-6.83" fill="#d9ae82"/>
        <path id="Trazado_204913" data-name="Trazado 204913" d="M60.519,16.1a6.034,6.034,0,1,1,6.042-5.968A6.039,6.039,0,0,1,60.519,16.1" fill="#d9ad82"/>
        <path id="Trazado_204914" data-name="Trazado 204914" d="M32,32.047c1.045-.916,2.082-1.843,3.138-2.747,5.287-4.523,10.592-9.027,15.856-13.578.687-.594,1-.478,1.409.215a6.046,6.046,0,0,0,.9,1.086c1.134,1.174,1.121,1.146-.169,2.228q-7.319,6.141-14.6,12.32a2.821,2.821,0,0,1-2.014.782c-1.474-.038-2.95-.011-4.424-.011L32,32.047" fill="#906052"/>
        <path id="Trazado_204915" data-name="Trazado 204915" d="M86.158,32.342c-2.2.607-3.614-.713-5.109-1.994q-6.717-5.757-13.525-11.409c-.768-.639-.868-1.088-.038-1.68a3.88,3.88,0,0,0,.581-.586c1.316-1.461,1.333-1.482,2.873-.169q8.8,7.5,17.575,15.024c.194.167.547.3.4.628-.135.3-.489.174-.75.18-.668.017-1.338.006-2.007.006" fill="#906052"/>
        <path id="Trazado_204916" data-name="Trazado 204916" d="M25.246,48.427a9.073,9.073,0,0,1-.007,18.146,9.164,9.164,0,0,1-9.118-9.1,9.071,9.071,0,0,1,9.125-9.049m0,14.077a5.024,5.024,0,1,0-5.081-4.994A5.022,5.022,0,0,0,25.242,62.5" fill="#1d1d1b"/>
        <path id="Trazado_204917" data-name="Trazado 204917" d="M94.732,58.5c-1.256,0-2.513.034-3.768-.009a2.027,2.027,0,1,1,.026-4.038q3.827-.057,7.654,0a2.054,2.054,0,0,1,2.212,1.976c.032,1.165-.853,1.984-2.238,2.069-.078.005-.157.006-.235.006H94.732Z" fill="#1d1d1b"/>
        <path id="Trazado_204918" data-name="Trazado 204918" d="M60.341,54.437c-1.256,0-2.513.03-3.768-.011a2,2,0,1,1-.012-4q3.943-.077,7.889,0a2.011,2.011,0,1,1-.106,4.01c-1.333.035-2.669.008-4,.006" fill="#1d1d1b"/>
        <path id="Trazado_204919" data-name="Trazado 204919" d="M88.765,96.882a6.6,6.6,0,0,1,5.154,2.185,5.216,5.216,0,0,0,3.376,1.917,1.8,1.8,0,0,1,1.49,2.184,2.108,2.108,0,0,1-2.316,1.73,7.381,7.381,0,0,1-4.629-2.092c-.3-.309-.606-.617-.916-.918-1.439-1.39-2.952-1.428-4.331.018a8.921,8.921,0,0,1-5.105,2.937,2.242,2.242,0,0,1-2.758-1.563c-.229-1.254.476-2.171,1.959-2.376a4.913,4.913,0,0,0,2.829-1.771,6.742,6.742,0,0,1,5.247-2.251" fill="#1d1d1b"/>
        <path id="Trazado_204920" data-name="Trazado 204920" d="M32.318,96.879a6.6,6.6,0,0,1,5.168,2.239,5.177,5.177,0,0,0,3.292,1.855,1.85,1.85,0,0,1,1.519,2.282A2.141,2.141,0,0,1,39.91,104.9a8.026,8.026,0,0,1-5.039-2.564,3.448,3.448,0,0,0-2.338-1.437,3.132,3.132,0,0,0-2.668,1.225,7.967,7.967,0,0,1-4.94,2.74,2.2,2.2,0,0,1-2.681-1.674c-.2-1.194.506-2.081,1.934-2.281a4.275,4.275,0,0,0,2.694-1.535,6.7,6.7,0,0,1,5.446-2.491" fill="#1d1d1b"/>
        <path id="Trazado_204921" data-name="Trazado 204921" d="M60.379,96.873A6.66,6.66,0,0,1,65.563,99a5.018,5.018,0,0,0,3.477,1.967,1.954,1.954,0,0,1,1.537,2.19,2.167,2.167,0,0,1-2.334,1.734,7.087,7.087,0,0,1-4.529-2.028q-.447-.471-.916-.918c-1.515-1.448-3.119-1.5-4.559.017a8.417,8.417,0,0,1-5.111,2.891,2.188,2.188,0,0,1-2.678-1.687,2.018,2.018,0,0,1,1.993-2.259,4.672,4.672,0,0,0,2.925-1.818,6.482,6.482,0,0,1,5.011-2.218" fill="#1d1d1b"/>
        <path id="Trazado_204922" data-name="Trazado 204922" d="M25.242,62.5a5.024,5.024,0,1,1,5-5.055,5.057,5.057,0,0,1-5,5.055" fill="#fae06d"/>
      </g>
    </g>
  </g>
</svg>
