<svg xmlns="http://www.w3.org/2000/svg" xmlns:xlink="http://www.w3.org/1999/xlink" width="190" height="114" viewBox="0 0 190 114">
  <defs>
    <clipPath id="clip-path">
      <path id="Trazado_186036" data-name="Trazado 186036" d="M10,0H180a10,10,0,0,1,10,10v94a10,10,0,0,1-10,10H10A10,10,0,0,1,0,104V10A10,10,0,0,1,10,0Z" transform="translate(180 1535)" fill="#3c3fa7"/>
    </clipPath>
    <clipPath id="clip-path-2">
      <rect id="Rectángulo_45772" data-name="Rectángulo 45772" width="107.798" height="96.216" transform="translate(0 0)" fill="none"/>
    </clipPath>
  </defs>
  <g id="Grupo_175785" data-name="Grupo 175785" transform="translate(-180 -1535)">
    <g id="Grupo_175697" data-name="Grupo 175697" transform="translate(0 -1499)">
      <path id="Trazado_185925" data-name="Trazado 185925" d="M10,0H180a10,10,0,0,1,10,10v94a10,10,0,0,1-10,10H10A10,10,0,0,1,0,104V10A10,10,0,0,1,10,0Z" transform="translate(180 3034)" fill="#3c3fa7"/>
      <g id="Enmascarar_grupo_318" data-name="Enmascarar grupo 318" transform="translate(0 1499)" clip-path="url(#clip-path)">
        <g id="Grupo_175784" data-name="Grupo 175784" transform="translate(257.376 1718) rotate(-130)">
          <g id="Grupo_175783" data-name="Grupo 175783" transform="translate(0 0)">
            <g id="Grupo_175782" data-name="Grupo 175782">
              <path id="Trazado_186031" data-name="Trazado 186031" d="M202.306,101.9c-15.24-15.332-30.943-30.146-46.925-44.719,7.3,15.068,15.115,29.929,22.088,45.137,7.9,17.244,17.243,40.686,9.032,58.046-18.718,39.57-72.4-2.432-92.412-23.651-2.134-2.259-4.176-4.612-6.243-6.942,7.559,16.753,14.46,33.929,13.637,51.633-1.135,24.342-23.632,29.2-43.734,16.982-21.59-13.123-39.432-34.965-54.4-54.748-12.714-16.8,14.018-31.085,26.628-14.52a242.613,242.613,0,0,0,22.463,25.546q-1.84-3.145-3.713-6.283c-8.27-13.82-16.449-27.689-23.331-42.153C12.211,78.529-7.161,40.137,6.606,12.219,13.545-1.849,31.26-2.528,44.915,3.924c18.352,8.671,31.6,26.612,44.274,41.86,13.233,15.921,25.011,32.727,37.342,49.274,5.155,6.915,10.308,13.925,16.138,20.334.133.146.275.283.409.431l-.159-.441c-3.507-9.575-7.88-18.807-12.3-28.066C122.39,70.094,111.96,51.885,108.4,33.378c-3.15-16.362,2.723-34.287,22.635-32.231,18.717,1.932,34.473,20.3,47.484,32.668C194.278,48.8,209.778,64.062,225.279,79.3,241.463,95.216,218.311,118,202.306,101.9Z" transform="translate(3.061 3.01)" fill="#6b8dfc"/>
              <path id="Trazado_186032" data-name="Trazado 186032" d="M132.181,1.049c-7.327-.323-13.43,1.932-17.737,6.583-5.987,6.465-8.213,17.327-5.956,29.059,2.938,15.289,10.321,30.137,17.462,44.5,1.707,3.438,3.4,6.84,5.009,10.206,1.523,3.192,3.126,6.546,4.723,10.012-.938-1.249-1.867-2.5-2.786-3.733l-.913-1.224c-3.2-4.3-6.37-8.616-9.535-12.927-8.879-12.11-18.064-24.632-27.922-36.489q-2.16-2.6-4.351-5.289C78.859,27.933,66.036,12.277,49.083,4.265,33.965-2.87,14.635-1.909,6.921,13.74-6.943,41.847,11.077,79.6,24.234,107.167l1.5,3.132c3.872,8.143,8.162,16.114,12.686,24.059q-1.532-1.927-3.019-3.877a20.976,20.976,0,0,0-28.6-5.148c-6.568,4.56-9.97,13.426-2.759,22.956,15.979,21.118,33.745,42.472,55.35,55.608,11.995,7.285,24.834,8.949,34.364,4.448,8.389-3.962,13.294-12.316,13.819-23.53.613-13.152-2.85-25.921-7.591-38.161,16.214,15.63,45.9,38.1,68.818,35.9,10.526-1.013,18.445-6.98,23.53-17.731,8.363-17.68.115-40.512-9.055-60.518-4.365-9.52-9.123-19.04-13.725-28.244l-1.629-3.256C180.924,84.885,192.58,96.119,203.3,106.9h0c5.3,5.333,11.823,7.491,18.354,6.094a19.579,19.579,0,0,0,14.75-14.4c1.518-6.49-.618-12.986-6.018-18.294l-1.763-1.734c-14.677-14.433-29.853-29.354-45.035-43.791-1.871-1.78-3.8-3.682-5.783-5.643C166,17.474,151.3,2.963,134.144,1.192,133.48,1.124,132.828,1.078,132.181,1.049Zm14.071,120.635a2.717,2.717,0,0,0,1.447-.323,2.66,2.66,0,0,0,1.28-3.318l-.162-.441c-3.676-10.037-8.319-19.763-12.416-28.341-1.623-3.4-3.333-6.831-5.056-10.3-6.948-13.973-14.132-28.42-16.912-42.869-1.886-9.813-.107-19.1,4.647-24.231,3.521-3.8,8.552-5.377,14.963-4.737C148.9,8.659,162.08,21.669,173.7,33.151c2.016,1.992,3.976,3.925,5.875,5.73,15.14,14.4,30.3,29.3,44.956,43.713l1.76,1.734c4.774,4.692,4.917,9.357,4.194,12.448a14.3,14.3,0,0,1-10.623,10.379c-3.093.666-7.757.467-12.426-4.232h0C193.6,89,178.208,74.334,160.392,58.086a3.112,3.112,0,0,0-3.82-.394,2.787,2.787,0,0,0-.842,3.582c2.759,5.7,5.593,11.362,8.423,17.029,4.579,9.155,9.31,18.623,13.632,28.047,8.59,18.737,16.381,39.994,9.008,55.577-4.288,9.062-10.539,13.868-19.111,14.694-21.363,2.046-52.619-22.086-68.4-38.818-1.681-1.784-3.307-3.628-4.936-5.469l-1.235-1.4a3.163,3.163,0,0,0-3.9-.764,2.772,2.772,0,0,0-1.058,3.614c7.2,15.955,14.167,32.983,13.363,50.232-.431,9.246-4.156,15.785-10.77,18.909-7.717,3.641-18.375,2.133-28.519-4.029C41.6,186.36,24.351,165.587,8.779,145.008c-4.922-6.5-2.3-11.856,1.791-14.7a14.551,14.551,0,0,1,20.1,3.465,246.432,246.432,0,0,0,22.781,25.905,3.116,3.116,0,0,0,3.965.46,2.82,2.82,0,0,0,.677-3.776q-1.85-3.164-3.732-6.311c-8.375-13.994-16.448-27.728-23.183-41.879l-1.5-3.141C17.055,78.587-.233,42.366,12.416,16.721,18.56,4.259,34.4,3.715,46.869,9.6c15.562,7.35,27.337,21.729,38.722,35.63q2.21,2.7,4.383,5.326c9.728,11.7,18.848,24.135,27.672,36.163q4.758,6.49,9.561,12.97l.913,1.221c4.837,6.5,9.838,13.214,15.436,19.366l.285.3A3.648,3.648,0,0,0,146.252,121.684Zm59.115-16.774h0Z" transform="translate(0 0)"/>
            </g>
            <path id="Trazado_186033" data-name="Trazado 186033" d="M14.658,73.818C2.517,51.266-4.931,25.131,3.8,1.85,5.093-1.59,11.018.2,9.709,3.692c-8.2,21.859-1.379,46.139,10.04,67.35A2.9,2.9,0,1,1,14.658,73.818Z" transform="translate(13.025 20.373)"/>
            <path id="Trazado_186034" data-name="Trazado 186034" d="M8.714,5.846c-.051,0-.1.016-.147.023-.077.16-.148.329-.173.376l-.011.017c-.005.024,0,.009,0,.044-.331,1.312-.552,2.649-.785,3.989q-.819,4.669-1.632,9.339A2.791,2.791,0,0,1,2.328,21.55,3.347,3.347,0,0,1,.052,17.792L1.9,7.231C2.413,4.3,3.271.462,6.846.028a3.418,3.418,0,0,1,3.816,2.247C11.059,3.728,10.369,5.646,8.714,5.846Z" transform="translate(25.342 25.864)"/>
            <path id="Trazado_186035" data-name="Trazado 186035" d="M11.94,71.577c-3.354,1.654-6.647-3.624-3.284-5.28,4.64-2.287,5.859-7.306,5.826-12.288a87.111,87.111,0,0,0-2.13-17.144A121.61,121.61,0,0,0,.412,4.4,2.9,2.9,0,1,1,5.5,1.621,127.585,127.585,0,0,1,18.942,39.832C20.848,50.635,23.241,66.01,11.94,71.577Z" transform="translate(161.058 93.106)"/>
          </g>
        </g>
      </g>
      <g id="Grupo_175781" data-name="Grupo 175781" transform="translate(221 3043)">
        <g id="Grupo_175780" data-name="Grupo 175780" clip-path="url(#clip-path-2)">
          <path id="Trazado_186019" data-name="Trazado 186019" d="M89.519,40.418l2.347,2.047c-.3,1.459.523,2.358,1.449,3.35a84.643,84.643,0,0,1,10.195,13.6,1.486,1.486,0,0,1,.269.842,33.039,33.039,0,0,1-4.533,7.709C91.481,78.579,81.021,84.759,68.073,86.888c-6.4,1.052-12.583.15-18.7-1.644a44.772,44.772,0,0,1-17.2-9.613A48.433,48.433,0,0,1,22.122,63.075a7.639,7.639,0,0,1-1.37-2.919,3.314,3.314,0,0,1,.7-1.512,103.555,103.555,0,0,1,6.083-8.618,2.636,2.636,0,0,1,2.4-1.154,18.972,18.972,0,0,0,3.685-.3,3.1,3.1,0,0,1,2.123.467,34.743,34.743,0,0,0,12.331,4.611,3.122,3.122,0,0,0,3.306-1.1,3.16,3.16,0,0,0,.374-3.384q-1.17-2.8-2.386-5.572a1.538,1.538,0,0,1,.46-2.061,20.542,20.542,0,0,0,2.6-2.631,1.386,1.386,0,0,1,1.765-.493,21.355,21.355,0,0,1,6.259,3.451c.231.191.451.394.7.566.985.689,1.357.713,2.284-.08a20.321,20.321,0,0,1,7.739-4.187,21.669,21.669,0,0,1,9.877-.644A14.381,14.381,0,0,1,86.3,39.726a3.368,3.368,0,0,0,3.223.692" fill="#fe3d43"/>
          <path id="Trazado_186020" data-name="Trazado 186020" d="M4.552,14.443a10.91,10.91,0,0,1,1.626-2.592c1.575.12,2.542-.844,3.6-1.835a26.576,26.576,0,0,1,13.814-6.66,30.324,30.324,0,0,1,10.9-.044,5.492,5.492,0,0,1,1.616.426,34,34,0,0,1,7.457,4.73c4.244,3.811,7.039,8.39,7.6,14.17.712,7.385-2.281,13.214-7.609,18.057-.715.65-1.744,1.084-1.373,2.409.11.39-.46.513-.777.694A29.335,29.335,0,0,1,28.163,46.3c-8.571-.426-16.038-3.375-21.356-10.411A17.779,17.779,0,0,1,4.433,17.35a3.851,3.851,0,0,0,.119-2.907" fill="#fef4ce"/>
          <path id="Trazado_186021" data-name="Trazado 186021" d="M36.031,4.011a28.617,28.617,0,0,0-13.637-.1,25.972,25.972,0,0,0-13.71,7.549,1.847,1.847,0,0,1-2.505.394c-.723-1.218-.684-1.654.282-2.656A29.637,29.637,0,0,1,24.607.32C33.329-.791,41.443.945,48.539,6.3c6.368,4.8,9.961,11.127,9.7,19.3a19.5,19.5,0,0,1-2.561,9.07c-.528.934-.327,1.165.58,1.488a17.791,17.791,0,0,1,5.261,2.918c.6.483.954.358,1.516-.038a23.771,23.771,0,0,1,20.526-3.805,16.347,16.347,0,0,1,5.156,2.638c1.148.8,1.272,1.205.8,2.549a1.673,1.673,0,0,1-2.418.162c-6.675-5.366-18.023-3.007-23.363,1.907C62.5,43.623,62.03,43.6,60.774,42.5A20.692,20.692,0,0,0,54.1,38.686a1.065,1.065,0,0,0-1.426.365,16.632,16.632,0,0,1-2.856,2.843.916.916,0,0,0-.315,1.311c.86,1.9,1.649,3.841,2.491,5.753a3.5,3.5,0,0,1-.38,3.8,3.394,3.394,0,0,1-3.606,1.173,34.727,34.727,0,0,1-12.69-4.8,1.639,1.639,0,0,0-1.24-.336,26.091,26.091,0,0,1-4.687.374,1.171,1.171,0,0,0-1.091.389,87.255,87.255,0,0,0-7.362,10.556,3.814,3.814,0,0,0,.074,3.4A50.562,50.562,0,0,0,32.642,80.749c.8.784,1.71,1.445,2.527,2.21a1.6,1.6,0,0,1,.1,2.508,1.7,1.7,0,0,1-2.5-.043A51.826,51.826,0,0,1,16.92,62.37a2.535,2.535,0,0,1,.285-2.324,113.153,113.153,0,0,1,6.8-10.127c.221-.291.43-.59.729-1a41.356,41.356,0,0,1-5.768-1.308C11.975,45.3,6.251,41.332,2.68,34.757a20.626,20.626,0,0,1-.665-19.069c.613-1.383,1.066-1.584,2.537-1.244a1.8,1.8,0,0,1,.46,2.31c-3.934,8.234-1.365,17.408,6.023,23.1,8.907,6.857,18.806,7.743,29.26,4.088.387-.135.763-.3,1.143-.455a1.581,1.581,0,0,1,1.9.664,1.625,1.625,0,0,1-.1,1.94,7.4,7.4,0,0,1-3.53,1.639,38.247,38.247,0,0,0,5.1,1.917c1.044.295,2.1.561,3.159.781.722.151.871-.08.577-.759-.861-1.991-1.7-3.992-2.56-5.984-.889-2.06-.8-2.477.972-3.907a19.968,19.968,0,0,0,7.329-11c1.534-6.464-.309-12.042-4.658-16.892-3.673-4.1-8.5-6.236-13.6-7.871"/>
          <path id="Trazado_186022" data-name="Trazado 186022" d="M35.269,85.467a1.767,1.767,0,0,0-.528-2.532A49.682,49.682,0,0,1,20.5,63.028a2.409,2.409,0,0,1,.442-2.916,39.948,39.948,0,0,0,4.765,7.936,45.422,45.422,0,0,0,16.839,14.22,48.845,48.845,0,0,0,15.037,4.44c7.5,1.045,14.594-.455,21.491-3.178A43.362,43.362,0,0,0,92.36,75.192a50.741,50.741,0,0,0,11.266-15.023,1.676,1.676,0,0,1,.883,2.379,51.21,51.21,0,0,1-3.055,6.618,48.438,48.438,0,0,1-7.977,10.8,44.266,44.266,0,0,1-22.715,12.4A38.557,38.557,0,0,1,62.1,93.418a42.41,42.41,0,0,1-8.987-1.213,44.112,44.112,0,0,1-11.914-4.526c-1.058-.6-2.112-1.13-3.348-.5l-2.578-1.708" fill="#d62e2e"/>
          <path id="Trazado_186023" data-name="Trazado 186023" d="M37.848,87.176a1.879,1.879,0,0,1,2.613-.243A44.408,44.408,0,0,0,61.78,93.078,39.678,39.678,0,0,0,76.592,90.4c11.8-4.254,20.089-12.375,25.672-23.44.655-1.3,1.137-2.684,1.785-3.986a2.171,2.171,0,0,0-.422-2.809,82.364,82.364,0,0,0-11.34-15.04c-.8-.831-1.127-1.642-.421-2.664a1.732,1.732,0,0,1,2.568.3,94.92,94.92,0,0,1,13.067,17.6,2.231,2.231,0,0,1,.1,2.033,51.285,51.285,0,0,1-17.48,24.288,45.887,45.887,0,0,1-27.481,9.524A45.4,45.4,0,0,1,38.556,89.5a1.7,1.7,0,0,1-.708-2.319"/>
          <path id="Trazado_186024" data-name="Trazado 186024" d="M32.4,63.347c3.2.064,5.965-1.236,8.592-2.865,7.214-4.474,15.031-6.9,23.529-6.315a39.508,39.508,0,0,1,18.859,6.2c2.988,1.92,6.164,3.393,9.9,2.9a1.438,1.438,0,0,1,1.736,1.355,1.456,1.456,0,0,1-1.271,1.707,12.017,12.017,0,0,1-5.871-.391,10.233,10.233,0,0,1-2.508-.947,3.367,3.367,0,0,0-3.332-.048,54.219,54.219,0,0,1-19.895,3.336,53.663,53.663,0,0,1-20.812-3.8,1.5,1.5,0,0,0-1.359.177,15.8,15.8,0,0,1-8.217,1.818,4.54,4.54,0,0,1-1.311-.263,1.434,1.434,0,0,1-.9-1.734,1.388,1.388,0,0,1,1.407-1.212c.483-.014.969.053,1.454.084"/>
          <path id="Trazado_186025" data-name="Trazado 186025" d="M43.049,46.018c.613-1.593.094-2.409-1.611-2.534.305-.2.838-.263.425-.85-.352-.5-.146-.808.331-1.183A22.069,22.069,0,0,0,50.725,27.87a18.554,18.554,0,0,0-1.332-11.006c-2.62-6.011-7.217-10.008-13.117-12.637a1.075,1.075,0,0,1-.245-.216c9,1.682,19.482,9.524,19.057,21.23-.22,6.058-3.146,10.78-7.709,14.59a9.488,9.488,0,0,1-.8.621,1.738,1.738,0,0,0-.653,2.424c1.005,2.286,1.978,4.585,2.96,6.881.127.3.433.625.239.925-.262.4-.7.092-1.029.031a14.725,14.725,0,0,1-3.34-.847,40.92,40.92,0,0,1-1.712-3.848" fill="#feeba0"/>
          <path id="Trazado_186026" data-name="Trazado 186026" d="M29.95,21.268H16.941a3.17,3.17,0,0,1-1.326-.158,1.468,1.468,0,0,1-.951-1.606,1.4,1.4,0,0,1,1.261-1.356,6.245,6.245,0,0,1,1.006-.042q13.01,0,26.019,0a6.754,6.754,0,0,1,1.007.04A1.411,1.411,0,0,1,45.232,19.5a1.469,1.469,0,0,1-.948,1.61,3.135,3.135,0,0,1-1.325.164H29.95" fill="#010100"/>
          <path id="Trazado_186027" data-name="Trazado 186027" d="M24.124,31.212c-2.506,0-5.012.006-7.518,0-1.314,0-1.978-.569-1.95-1.622.026-.995.677-1.524,1.933-1.525q7.518-.009,15.036,0c1.3,0,1.982.578,1.954,1.621-.027.992-.682,1.521-1.937,1.525-2.506.009-5.012,0-7.518,0"/>
          <path id="Trazado_186028" data-name="Trazado 186028" d="M43.049,46.018c.735.255.651,1.02.9,1.55a4.668,4.668,0,0,1,.808,2.3,22.893,22.893,0,0,1-5.522-2.143c1.32-.625,2.728-.8,3.81-1.7" fill="#fcf2cd"/>
          <path id="Trazado_186029" data-name="Trazado 186029" d="M74.42,59.532a23.894,23.894,0,0,1,5.706,2.674,57.525,57.525,0,0,1-35.986.084,25.879,25.879,0,0,1,6.04-2.773,64.2,64.2,0,0,0,12.911,1.2,61.921,61.921,0,0,0,8.806-.772c.842-.135,1.69-.227,2.523-.416" fill="#545456"/>
          <path id="Trazado_186030" data-name="Trazado 186030" d="M74.42,59.532c-.289.746-1.038.514-1.535.595a60.207,60.207,0,0,1-12.1.92,63.42,63.42,0,0,1-10.064-1.092c-.285-.057-.511-.1-.537-.439a33.191,33.191,0,0,1,24.24.016" fill="#67676b"/>
        </g>
      </g>
    </g>
  </g>
</svg>
