<svg xmlns="http://www.w3.org/2000/svg" xmlns:xlink="http://www.w3.org/1999/xlink" width="166" height="130" viewBox="0 0 166 130">
  <defs>
    <clipPath id="clip-path">
      <rect id="Rect치ngulo_338348" data-name="Rect치ngulo 338348" width="105.442" height="102.718" fill="none"/>
    </clipPath>
  </defs>
  <g id="Grupo_982617" data-name="Grupo 982617" transform="translate(7794 10102)">
    <rect id="Rect치ngulo_338320" data-name="Rect치ngulo 338320" width="166" height="130" rx="14" transform="translate(-7794 -10102)" fill="#6b8dfc"/>
    <g id="Grupo_982616" data-name="Grupo 982616" transform="translate(-7764 -10089)">
      <g id="Grupo_982615" data-name="Grupo 982615" clip-path="url(#clip-path)">
        <path id="Trazado_204944" data-name="Trazado 204944" d="M105.27,69.7c-.281,7.511-.812,15-1.643,22.473a9.862,9.862,0,0,1-9.27,8.993c-18.218,1.375-36.461,1.814-54.725,1.413-9.5-.209-18.993-.733-28.474-1.4A9.891,9.891,0,0,1,1.824,92.24,290.028,290.028,0,0,1,.253,47.534c.283-6.891.808-13.767,1.617-20.618a9.263,9.263,0,0,1,1.91-4.593c.267-.349.473-.55-.017-.961a3.843,3.843,0,0,1-1.247-4.275A3.915,3.915,0,0,1,5.74,14.27c2.545-.54,5.08-1.133,7.63-1.652a1.756,1.756,0,0,0,1.589-1.57c.5-2.587,1.092-5.158,1.691-7.726A3.91,3.91,0,0,1,20.629,0a3.937,3.937,0,0,1,4,3.316c.605,2.566,1.192,5.138,1.682,7.727a1.74,1.74,0,0,0,1.582,1.573c2.549.52,5.085,1.1,7.63,1.649a3.876,3.876,0,0,1,2.987,2.256c.248.577.658.482,1.089.479,5.73-.042,11.461-.1,17.191-.121a9.672,9.672,0,0,1,9.394,5.789,13.122,13.122,0,0,1,.918,4.4,6.49,6.49,0,0,0,4.542,5.68.985.985,0,0,0,.226-.022c0-.885-.015-1.789,0-2.693a5.648,5.648,0,0,1,5.547-5.625q7.462-.094,14.929,0a5.608,5.608,0,0,1,5.523,5.423c.063,1.2.058,2.4.015,3.6a.893.893,0,0,0,.7,1.033,9.4,9.4,0,0,1,5.224,4.549c.628,1.172.485,1.7-.64,2.5a1.227,1.227,0,0,1-1.913-.363C99.6,38.24,97.1,37.164,93.817,37.122c-2.145-.027-4.316-.17-6.466-.241-3.7-.121-7.4-.4-11.1-.278a28.264,28.264,0,0,1-4-.266,9.991,9.991,0,0,1-8.475-8.815c-.175-2.133-.533-4.162-2.316-5.629a5.887,5.887,0,0,0-3.926-1.552,24.849,24.849,0,0,1-3.9-.176,31.018,31.018,0,0,0-4.207.183c-3.157-.013-6.315.008-9.472-.013a2.08,2.08,0,0,0-1.8.769,5.174,5.174,0,0,1-3.141,1.615c-2.279.5-4.559,1-6.843,1.473a1.8,1.8,0,0,0-1.61,1.573c-.543,2.62-1.047,5.253-1.747,7.836a4.346,4.346,0,0,1-7.08,2.145A4.65,4.65,0,0,1,16.3,33.069c-.5-2.28-1.086-4.543-1.48-6.842A2.2,2.2,0,0,0,12.726,24.1c-.51-.055-1.012-.187-1.518-.284-.839-.179-1.678-.361-2.512-.559a1.651,1.651,0,0,0-1.745.583,6.5,6.5,0,0,0-1.7,3.565c-.459,3.743-.757,7.5-1.055,11.26-.7,8.859-.934,17.733-.765,26.612Q3.555,71.7,4,78.114c.315,4.513.757,9.014,1.153,13.519a6.714,6.714,0,0,0,7.277,6.156c4.613.372,9.23.647,13.854.851,3.527.156,7.055.265,10.581.4,9.571.377,19.143.174,28.713.126,4.481-.022,8.973-.231,13.456-.5q4.514-.276,9.035-.489c2.122-.1,4.248-.229,6.356-.48a6.216,6.216,0,0,0,5.773-5.751c.573-4.8.941-9.621,1.253-14.449.506-7.809.67-15.623.56-23.442-.033-2.329-.228-4.658-.182-6.991a4.774,4.774,0,0,1,.12-1.328,1.281,1.281,0,0,1,1.6-.989,1.639,1.639,0,0,1,1.594,1.775q.064,1.892.127,3.784a21.057,21.057,0,0,1,.068,2.658,24.912,24.912,0,0,0,.106,3.54v7.825a18.871,18.871,0,0,0-.106,3.117,16.125,16.125,0,0,1-.066,2.252"/>
        <path id="Trazado_204945" data-name="Trazado 204945" d="M105.442,56.5a10.564,10.564,0,0,1-.172-3.528c.069-.064.126-.051.172.027Z" fill="#464646"/>
        <path id="Trazado_204946" data-name="Trazado 204946" d="M105.269,67.434a9.044,9.044,0,0,1,.173-3.107v3.089c-.049.085-.107.091-.173.018" fill="#6a6a6a"/>
        <path id="Trazado_204947" data-name="Trazado 204947" d="M105.442,53a.624.624,0,0,0-.172-.027l0-2.669a.227.227,0,0,1,.175.019Z" fill="#949494"/>
        <path id="Trazado_204948" data-name="Trazado 204948" d="M105.269,67.434a.721.721,0,0,0,.173-.018v2.266l-.084.024-.088-.01q0-1.131,0-2.262" fill="#adadad"/>
        <path id="Trazado_204949" data-name="Trazado 204949" d="M11.33,23.577a.787.787,0,0,1,.2-.006c3.719.877,2.956.077,3.758,3.635.459,2.038.888,4.083,1.374,6.114a3.9,3.9,0,0,0,3.947,3.23,3.868,3.868,0,0,0,3.968-3.2q.951-3.942,1.746-7.923a1.626,1.626,0,0,1,1.453-1.454c2.582-.528,5.155-1.107,7.731-1.667a4.007,4.007,0,0,0,2.7-1.723,1.053,1.053,0,0,1,1.032-.49c5.969-.048,11.937-.226,17.907-.107a6.485,6.485,0,0,1,6.732,6.249c.253,3.294,1.382,6.057,4.084,8.056a9.171,9.171,0,0,0,5.249,1.856q8.9.3,17.794.591c1.611.055,3.229.065,4.83.225a6.463,6.463,0,0,1,5.25,3.5,1.728,1.728,0,0,0,2.083,1.052c.314,1.055.162,2.164.376,3.23-1.263.374-1.51.713-1.469,2.076.149,4.938.322,9.875.269,14.816-.1,9.437-.567,18.851-1.6,28.234a26.873,26.873,0,0,1-.351,2.957,6.758,6.758,0,0,1-6.321,5.262q-26.7,2.013-53.468,1.41c-9.429-.2-18.852-.582-28.251-1.415a2.2,2.2,0,0,1-1.077-1.31c-.892-1.959-.84-4.084-1.06-6.151-.507-4.767-.788-9.553-1.1-14.337-.579-8.8-.477-17.611-.306-26.409a238.815,238.815,0,0,1,1.8-24.58c.078-.632.049-1.329.72-1.722" fill="#de656e"/>
        <path id="Trazado_204950" data-name="Trazado 204950" d="M11.33,23.577a23.709,23.709,0,0,0-.806,5.431c-.329,2.941-.555,5.894-.815,8.842-.093,1.052-.09,2.107-.191,3.164-.2,2.07-.136,4.164-.254,6.243-.416,7.325-.187,14.655-.163,21.981.014,4.122.337,8.247.605,12.365.2,3.021.455,6.042.829,9.045.247,1.979.126,4.028.99,5.914a8.984,8.984,0,0,0,.831,1.524c-4.442.083-7.088-2.362-7.58-7.017a292.446,292.446,0,0,1-1.65-36.022C3.28,46.514,3.767,38,4.7,29.511c.214-1.952.347-3.883,1.672-5.5.752-.919,1.509-1.509,2.78-.986a15.068,15.068,0,0,0,2.183.553" fill="#db4955"/>
        <path id="Trazado_204951" data-name="Trazado 204951" d="M20.6,33.462c-.755,0-.89-.584-1.018-1.171-.554-2.542-1.124-5.08-1.655-7.627a4.252,4.252,0,0,0-3.55-3.635c-2.448-.5-4.882-1.066-7.322-1.6-.234-.051-.463-.132-.7-.166a.948.948,0,0,1-.922-.935c-.026-.6.355-.906.933-1.032,2.642-.574,5.274-1.2,7.922-1.737a4.306,4.306,0,0,0,3.641-3.672c.527-2.548,1.1-5.086,1.651-7.628.129-.592.28-1.166,1.058-1.154s.9.558,1.034,1.169c.526,2.477,1.117,4.941,1.615,7.425a4.435,4.435,0,0,0,3.8,3.885c2.487.475,4.952,1.067,7.423,1.619.6.132,1.288.2,1.316,1.035.031.9-.695.99-1.327,1.13-2.606.579-5.217,1.139-7.822,1.72a3.956,3.956,0,0,0-3.227,3.2q-.915,4.056-1.8,8.12c-.128.59-.326,1.053-1.054,1.061" fill="#f5e166"/>
        <path id="Trazado_204952" data-name="Trazado 204952" d="M84.956,27.468c2.3,0,4.6-.01,6.9,0A2.64,2.64,0,0,1,94.771,30.4c.009.857-.036,1.717.015,2.572.041.7-.238.87-.9.841Q86.647,33.5,79.4,33.243c-1.165-.044-2.335-.081-3.5-.028-.8.036-1.025-.269-.955-1.014.057-.613.008-1.234.013-1.852a2.656,2.656,0,0,1,2.89-2.876c2.368-.021,4.735,0,7.1,0" fill="#453d80"/>
        <path id="Trazado_204953" data-name="Trazado 204953" d="M24.572,84.027c-.613-.912-1.717-1.294-2.354-2.18.277-1.38-.506-2.25-1.347-3.217a26.971,26.971,0,0,1-3.813-29.389A26.646,26.646,0,0,1,27.936,37.616a26.836,26.836,0,0,1,30.857,2.829,26.375,26.375,0,0,1,9.386,17.419,26.025,26.025,0,0,1-5.863,20.171A26.272,26.272,0,0,1,44.079,87.9a25.634,25.634,0,0,1-16.11-3.433c-1.125-.659-2.154-1.132-3.4-.437" fill="#453d80"/>
        <path id="Trazado_204954" data-name="Trazado 204954" d="M24.572,84.027c.857-.951,1.439-1.048,2.6-.319a25.714,25.714,0,0,0,9.923,3.728,26.1,26.1,0,0,0,21.238-5.763,25.732,25.732,0,0,0,9.548-17.18,25.893,25.893,0,0,0-5.892-20.425A25.789,25.789,0,0,0,44.8,34.53,25.956,25.956,0,0,0,24.7,40.171a25.657,25.657,0,0,0-9.78,16.939,25.985,25.985,0,0,0,6.773,22.012c.766.845,1.231,1.645.526,2.725-1.268.67-1.7.615-2.674-.477-7.554-8.5-9.978-18.315-6.611-29.14C16.341,41.279,24,34.408,35.19,31.888c16.27-3.666,32.433,7.245,35.485,23.7A29.825,29.825,0,0,1,45.191,90.634a29.394,29.394,0,0,1-19.684-4.3,1.717,1.717,0,0,1-.935-2.305"/>
        <path id="Trazado_204955" data-name="Trazado 204955" d="M89.218,57.751c-1.372,0-2.744.017-4.115,0A5.215,5.215,0,0,1,79.895,52.6c-.031-1.543-.021-3.087,0-4.63a5.241,5.241,0,0,1,5.285-5.406q4.164-.1,8.332,0a5.219,5.219,0,0,1,5.208,5.27c.042,1.577.044,3.156,0,4.732a5.19,5.19,0,0,1-5.275,5.178c-1.406.019-2.812,0-4.218,0"/>
        <path id="Trazado_204956" data-name="Trazado 204956" d="M81.053,86.607a7.661,7.661,0,1,1-7.516-7.8,7.7,7.7,0,0,1,7.516,7.8"/>
        <path id="Trazado_204957" data-name="Trazado 204957" d="M41.409,81.859c-11.364.185-20.874-9.389-20.888-20.8a20.845,20.845,0,1,1,20.888,20.8"/>
        <path id="Trazado_204958" data-name="Trazado 204958" d="M89.24,54.664c-1.337,0-2.675.02-4.011-.006a2.133,2.133,0,0,1-2.249-2.267q-.038-2.211,0-4.423a2.146,2.146,0,0,1,2.226-2.308q4.113-.076,8.228,0a2.117,2.117,0,0,1,2.2,2.232c.051,1.507.054,3.018,0,4.525a2.154,2.154,0,0,1-2.385,2.241c-1.338.014-2.675,0-4.012,0" fill="#e3f5fe"/>
        <path id="Trazado_204959" data-name="Trazado 204959" d="M71.874,82.239a4.376,4.376,0,0,1,5.178,1.511,4.53,4.53,0,0,1,0,5.441,4.388,4.388,0,0,1-5.18,1.5,5.623,5.623,0,0,1,0-8.457" fill="#f5f8f8"/>
        <path id="Trazado_204960" data-name="Trazado 204960" d="M71.874,82.239c-2.208,2.892-2.208,5.533,0,8.457a4.455,4.455,0,0,1,0-8.457" fill="#dbd8e9"/>
        <path id="Trazado_204961" data-name="Trazado 204961" d="M48.394,77.269A13.042,13.042,0,0,1,43.406,78.7,17.755,17.755,0,0,1,38.8,43.49a16.714,16.714,0,0,1,9.6,1.3c.07.438-.282.593-.549.782a12.153,12.153,0,0,0-4.271,5.541,1.779,1.779,0,0,1-1.994,1.35,9.321,9.321,0,0,0-5.441,1.894,8.5,8.5,0,0,0,2.969,14.874,8.915,8.915,0,0,0,3.044.393c.746-.009,1.057.48,1.3,1.092a15.448,15.448,0,0,0,2.364,4.037,14.063,14.063,0,0,0,1.974,1.763c.247.211.624.324.6.751" fill="#e3f5fe"/>
        <path id="Trazado_204962" data-name="Trazado 204962" d="M41.549,52.206a1.542,1.542,0,0,0,1.8-1.181,11.726,11.726,0,0,1,4.779-5.93,1.381,1.381,0,0,0,.267-.3A17.2,17.2,0,0,1,58.829,57.878,17.715,17.715,0,0,1,49.06,77.057a5.012,5.012,0,0,1-.666.212,12.834,12.834,0,0,1-5.276-6.68.924.924,0,0,0-.95-.728c.157-.535.654-.41,1.022-.506a8.135,8.135,0,0,0,6.418-6.371,8.33,8.33,0,0,0-7.131-10.333c-.35-.031-.789.055-.928-.445" fill="#d2eefa"/>
        <path id="Trazado_204963" data-name="Trazado 204963" d="M41.549,52.206a15.3,15.3,0,0,1,3.271.765A8.774,8.774,0,0,1,42.754,69.7a5.075,5.075,0,0,0-.586.158c-3.628.061-6.552-1.263-8.414-4.466a8.749,8.749,0,0,1,6.677-13.064c.373-.038.745-.083,1.118-.125"/>
        <path id="Trazado_204964" data-name="Trazado 204964" d="M47,61.093a5.7,5.7,0,0,1-5.691,5.677A5.725,5.725,0,0,1,41.4,55.32,5.7,5.7,0,0,1,47,61.093" fill="#453d80"/>
      </g>
    </g>
  </g>
</svg>
