<svg xmlns="http://www.w3.org/2000/svg" xmlns:xlink="http://www.w3.org/1999/xlink" width="304.91" height="656" viewBox="0 0 304.91 656">
  <defs>
    <clipPath id="clip-path">
      <rect id="Rectángulo_45318" data-name="Rectángulo 45318" width="304.91" height="545.913" fill="none"/>
    </clipPath>
  </defs>
  <g id="Grupo_982338" data-name="Grupo 982338" transform="translate(12 10)">
    <g id="Grupo_174791" data-name="Grupo 174791" transform="translate(0 0)">
      <g id="Grupo_172620" data-name="Grupo 172620" transform="matrix(-0.998, 0.07, -0.07, -0.998, 286.556, 474.053)">
        <g id="Grupo_157493" data-name="Grupo 157493" transform="translate(0)">
          <path id="Trazado_114544" data-name="Trazado 114544" d="M141.348,6.855c36.131,15.352,73.6,36.067,88.154,70.71,16.15,38.447-.755,81.5-.349,122.832.323,32.739,11.62,64.357,20.508,96.016s15.417,65.3,6.246,96.885c-6.139,21.146-19.179,40.279-36.014,55.461-29.645,26.734-72.357,41.2-112.94,35.086S29.5,449.871,17.639,412.916C.83,360.558,33.665,304.667,26.686,250.376c-2.73-21.243-11.469-41.333-17.4-61.995A239.442,239.442,0,0,1,0,120.932C.226,86.082,9.631,48.9,37.316,25.692,65.241,2.281,106.8-7.826,141.348,6.855Z" transform="translate(0 0)" fill="#3c3fa7"/>
        </g>
      </g>
      <g id="Grupo_982372" data-name="Grupo 982372" transform="translate(-12 100.087)">
        <g id="Grupo_175092" data-name="Grupo 175092" transform="translate(0 0)" clip-path="url(#clip-path)">
          <path id="Trazado_183915" data-name="Trazado 183915" d="M191.394,373.855a1.594,1.594,0,0,0,.281-.023,1.712,1.712,0,0,0,1.41-1.968L159.506,169.281c-2.155-13-12.11-22.426-23.673-22.426H62.11a1.712,1.712,0,0,0,0,3.425h73.723c9.88,0,18.414,8.226,20.294,19.56l33.58,202.583a1.712,1.712,0,0,0,1.687,1.433" transform="translate(66.344 161.314)" fill="#12263f"/>
          <path id="Trazado_183916" data-name="Trazado 183916" d="M188.425,280.1H77.746A69.886,69.886,0,0,1,7.859,210.212V73.35A46.237,46.237,0,0,1,54.1,27.113h59.25A46.238,46.238,0,0,1,159.581,73.3l.134,127.874,72.124,8.944v26.562A43.416,43.416,0,0,1,188.425,280.1" transform="translate(8.633 29.782)" fill="#e1e8ff"/>
          <path id="Trazado_183917" data-name="Trazado 183917" d="M7.043,211.109V74.246A48,48,0,0,1,54.993,26.3h59.25a48.015,48.015,0,0,1,47.95,47.9l.13,126.361,70.626,8.759a1.71,1.71,0,0,1,1.5,1.7v26.564a45.18,45.18,0,0,1-45.129,45.127H78.64a71.678,71.678,0,0,1-71.6-71.6M160.4,203.771a1.715,1.715,0,0,1-1.5-1.7L158.768,74.2a44.587,44.587,0,0,0-44.525-44.481H54.993A44.576,44.576,0,0,0,10.468,74.246V211.109A68.251,68.251,0,0,0,78.64,279.282H189.321a41.752,41.752,0,0,0,41.7-41.7V212.528Z" transform="translate(7.736 28.885)" fill="#5774cd"/>
          <path id="Trazado_183918" data-name="Trazado 183918" d="M1.715,379.569a1.713,1.713,0,0,0,1.689-1.44L37.439,167.014a20.682,20.682,0,0,1,20.292-16.735H176.3a1.712,1.712,0,1,0,0-3.425H57.731A24.123,24.123,0,0,0,34.067,166.42L.021,377.583a1.715,1.715,0,0,0,1.419,1.964,1.757,1.757,0,0,0,.275.021" transform="translate(0 161.313)" fill="#12263f"/>
          <path id="Trazado_183919" data-name="Trazado 183919" d="M20.273,379.569a1.713,1.713,0,0,0,1.689-1.44L56,167.014a20.684,20.684,0,0,1,20.292-16.735h73.723a1.712,1.712,0,0,0,0-3.425H76.289A24.123,24.123,0,0,0,52.625,166.42L18.579,377.583A1.715,1.715,0,0,0,20,379.547a1.757,1.757,0,0,0,.275.021" transform="translate(20.385 161.313)" fill="#12263f"/>
          <path id="Trazado_183920" data-name="Trazado 183920" d="M129.059,92.238,111.3,95.912l-9.764-23.3,20.724-1.643Z" transform="translate(111.535 77.952)" fill="#e8926d"/>
          <path id="Trazado_183921" data-name="Trazado 183921" d="M110.144,84.3l7.571,41.333a1.529,1.529,0,0,0,2.449.925l52.482-41.272a1.523,1.523,0,0,0,.558-1.475L165.631,42.48a1.529,1.529,0,0,0-2.449-.928L110.7,82.825a1.52,1.52,0,0,0-.558,1.477" transform="translate(120.959 45.283)" fill="#5774cd"/>
          <path id="Trazado_183922" data-name="Trazado 183922" d="M109.626,86.419l8.587,37.061a1.528,1.528,0,0,0,2.436.856l50.535-39.89a1.526,1.526,0,0,0,.558-1.463l-6.7-38.4a1.528,1.528,0,0,0-2.451-.938L110.169,84.872a1.528,1.528,0,0,0-.543,1.547" transform="translate(120.375 47.582)" fill="#fff"/>
          <path id="Trazado_183923" data-name="Trazado 183923" d="M89.9,126.7,188.38,352.447l-22.848,7.311L58.373,167.832Z" transform="translate(64.12 139.179)" fill="#e8926d"/>
          <path id="Trazado_183924" data-name="Trazado 183924" d="M86.966,127.366,116.2,66.223a28.057,28.057,0,0,0-.472-25.146l-3.687-7.019L43.954,131.71l19.335,11.909Z" transform="translate(48.281 37.411)" fill="#fff"/>
          <path id="Trazado_183925" data-name="Trazado 183925" d="M63.7,144.818a.8.8,0,0,1-.413-.118L43.954,132.792a.785.785,0,0,1-.233-1.121L111.81,34.02a.787.787,0,0,1,1.343.084l3.687,7.021a28.966,28.966,0,0,1,.485,25.849L88.087,128.119a.767.767,0,0,1-.264.308L64.146,144.68a.784.784,0,0,1-.445.139M45.488,131.887l18.189,11.2L86.759,127.25,115.9,66.3a27.386,27.386,0,0,0-.457-24.439l-3.087-5.876Zm41.889-4.109h0Z" transform="translate(47.87 36.998)"/>
          <path id="Trazado_183926" data-name="Trazado 183926" d="M68.328,191l-9.955-17.831L94,126.7l6.965,15.965Z" transform="translate(64.12 139.178)"/>
          <path id="Trazado_183927" data-name="Trazado 183927" d="M164.709,100.336,75.323,140.108,54.6,116.691l97.8-45.725Z" transform="translate(59.981 77.953)" fill="#fff"/>
          <path id="Trazado_183928" data-name="Trazado 183928" d="M75.733,141.307a.784.784,0,0,1-.588-.267L54.427,117.626a.787.787,0,0,1,.256-1.234l97.8-45.727a.788.788,0,0,1,1.06.409l12.305,29.37a.786.786,0,0,1-.405,1.022L76.054,141.24a.815.815,0,0,1-.321.067M56.3,117.372l19.637,22.193L164.1,100.341,152.4,72.438Z" transform="translate(59.569 77.541)"/>
          <path id="Trazado_183929" data-name="Trazado 183929" d="M66.309,256.824l66.769-90.6L89.413,145.3l27.29-37.476L177.2,141.877a18.078,18.078,0,0,1,4.761,27.63L89.233,275.926Z" transform="translate(72.837 118.441)" fill="#e8926d"/>
          <path id="Trazado_183930" data-name="Trazado 183930" d="M101.2,156.743,77.319,145.3l27.288-37.476,10.629,5.983Z" transform="translate(84.932 118.441)"/>
          <path id="Trazado_183931" data-name="Trazado 183931" d="M31.219,163.14c-1.4,12.1-.413,18.922,17.472,53.213s46.248,73.761,46.248,73.761L162.7,194.693,94.567,160.549l7.876-128.411s-21.664,20.5-34.86,43.776c-17.191,30.327-33.565,62.941-36.364,87.226" transform="translate(33.811 35.302)" fill="#fc5f65"/>
          <path id="Trazado_183932" data-name="Trazado 183932" d="M109.124,40.6,87.568,56.766l-16.02-18.5L93.685,20.936Z" transform="translate(78.593 22.998)" fill="#e8926d"/>
          <path id="Trazado_183933" data-name="Trazado 183933" d="M103.89,49.392l-36.44,90.441L50.2,130.409,95.553,41.9Z" transform="translate(55.137 46.03)" fill="#fd521b"/>
          <path id="Trazado_183934" data-name="Trazado 183934" d="M95.716,87.349a33.566,33.566,0,0,0,24-.518c13.273-5.2,24.653-27.118,24.653-27.118s-33.1,2.226-43.5,6.906-5.154,20.731-5.154,20.731" transform="translate(103.685 65.591)" fill="#e8926d"/>
          <path id="Trazado_183935" data-name="Trazado 183935" d="M95.355,64.883,99.814,63l7.139,22.668-5.886-.325Z" transform="translate(104.743 69.206)"/>
          <path id="Trazado_183936" data-name="Trazado 183936" d="M101.063,86.714l26.424,38.108a1.531,1.531,0,0,0,2.2.329l52.789-41.516a1.525,1.525,0,0,0,.313-2.071L156.365,43.456a1.53,1.53,0,0,0-2.2-.329l-52.8,41.516a1.53,1.53,0,0,0-.308,2.071" transform="translate(110.713 47.014)" fill="#5774cd"/>
          <path id="Trazado_183937" data-name="Trazado 183937" d="M168.085,122.738,72.463,171.4a26.215,26.215,0,0,1-34.95-35.831L88.8,40.716a20.23,20.23,0,0,1,34.331,21.411L78.88,133.61l81.5-41.682Z" transform="translate(37.742 34.321)" fill="#fff"/>
          <path id="Trazado_183938" data-name="Trazado 183938" d="M61,175.442a27,27,0,0,1-23.775-39.837L88.51,40.751a21.016,21.016,0,0,1,35.693,22.2L81.44,132.034l78.984-40.4a.8.8,0,0,1,.684-.015.784.784,0,0,1,.436.525l7.71,30.812a.789.789,0,0,1-.407.892L73.225,172.511A26.9,26.9,0,0,1,61,175.442M106.4,32.435a19.683,19.683,0,0,0-3.672.346,19.243,19.243,0,0,0-12.861,8.763L38.611,136.352a25.428,25.428,0,0,0,33.9,34.757l95.064-48.378-7.317-29.242L79.644,134.72a.787.787,0,0,1-1.028-1.114l44.25-71.486A19.557,19.557,0,0,0,117.9,36.256a19.234,19.234,0,0,0-11.5-3.821" transform="translate(37.337 33.91)"/>
          <path id="Trazado_183939" data-name="Trazado 183939" d="M136.674,69.657l-3.039,16.872A3.635,3.635,0,0,1,132,88.946l-.1.063a3.808,3.808,0,0,1-5.855-3.744l3.137-16.937a3.67,3.67,0,0,1,2.247-2.717,3.8,3.8,0,0,1,5.244,4.046" transform="translate(138.385 71.75)" fill="#e8926d"/>
          <path id="Trazado_183940" data-name="Trazado 183940" d="M133.991,71.947l-3.324,18.2a3.884,3.884,0,0,1-1.819,2.6l-.109.067c-3.106,1.908-7.2-.632-6.549-4.067l3.433-18.267a3.958,3.958,0,0,1,2.5-2.923c3.093-1.207,6.438,1.291,5.871,4.388" transform="translate(134.145 73.87)" fill="#e8926d"/>
          <path id="Trazado_183941" data-name="Trazado 183941" d="M128,75.723l-2.459,12.861a2.691,2.691,0,0,1-1.4,1.828l-.086.048c-2.42,1.324-5.647-.508-5.168-2.934L121.43,74.62a2.81,2.81,0,0,1,1.933-2.05c2.417-.831,5.057.965,4.64,3.154" transform="translate(130.537 79.487)" fill="#e8926d"/>
          <path id="Trazado_183942" data-name="Trazado 183942" d="M124.792,78.78,122.57,89.4A2.213,2.213,0,0,1,121.2,90.9l-.086.036c-2.39,1.056-5.645-.523-5.213-2.527l2.308-10.66a2.434,2.434,0,0,1,1.895-1.664c2.394-.646,5.064.892,4.686,2.7" transform="translate(127.272 83.407)" fill="#e8926d"/>
          <path id="Trazado_183943" data-name="Trazado 183943" d="M145.4,42.422C148.753,22.181,136.943,3.366,119.02.4S83.85,11.432,80.5,31.674,88.957,70.733,106.88,73.7,142.05,62.664,145.4,42.422" transform="translate(87.8 0)" fill="#e8926d"/>
          <path id="Trazado_183944" data-name="Trazado 183944" d="M105.292,31.955s-4.514,36.423.949,49.316L77.928,50.142l4.531-6.459-8.308,2.306L65.74,36.743s15.4-8.232,20.571-12.114S112.42,1.609,119.5,1.288s-17.81,21.944-17.81,21.944Z" transform="translate(72.212 1.411)" fill="#ffb6c8"/>
          <path id="Trazado_183945" data-name="Trazado 183945" d="M89.276,20.816s12.11,13.69,25.591-3.979l.216,7.2,10.469,8.245,4.046-9.749-.913,12.333,8.74,10.068s-.854-20.854-3.985-27.4c-1.777-3.714-10.293-12.853-10.293-12.853l-19.14-.323Z" transform="translate(98.066 4.794)" fill="#ffb6c8"/>
          <path id="Trazado_183946" data-name="Trazado 183946" d="M106.732,30.028l5.624,8.253-10.3-1.973Z" transform="translate(112.105 32.984)" fill="#e8926d"/>
          <path id="Trazado_183947" data-name="Trazado 183947" d="M110.187,41.336s8.82-16.315-8.253-23.154c0,0-7.611,23.154,8.253,23.154" transform="translate(109.964 19.972)" fill="#fff"/>
          <path id="Trazado_183948" data-name="Trazado 183948" d="M102.361,41.344a31.176,31.176,0,0,1-6.222,1.146l3.116-13.812Z" transform="translate(105.604 31.501)" fill="#5774cd"/>
          <path id="Trazado_183949" data-name="Trazado 183949" d="M126.172,19.479,86.819,27.214,85.445,9.874C92.771,2.534,102.753-1.294,112.962.4c11.651,1.928,20.687,10.574,24.684,21.935Z" transform="translate(93.857 0.001)" fill="#ffb6c8"/>
          <path id="Trazado_183950" data-name="Trazado 183950" d="M99.65,31.178a8.644,8.644,0,1,0,8.644-8.644,8.643,8.643,0,0,0-8.644,8.644" transform="translate(109.461 24.753)"/>
          <path id="Trazado_183951" data-name="Trazado 183951" d="M111.582,28.233a.955.955,0,0,1-.187-.019.941.941,0,0,1-.739-1.11c.571-2.852-3.446-6.5-5.04-7.666a.943.943,0,0,1,1.11-1.526c.273.2,6.707,4.944,5.779,9.563a.944.944,0,0,1-.923.758" transform="translate(115.588 19.477)"/>
          <path id="Trazado_183952" data-name="Trazado 183952" d="M82.937,14.325C85.063,8.949,90.7,6.468,95.532,8.783s7.021,8.553,4.9,13.93-7.766,7.859-12.595,5.542-7.021-8.553-4.9-13.93" transform="translate(90.211 8.695)" fill="#e8926d"/>
          <path id="Trazado_183953" data-name="Trazado 183953" d="M88.927,23.157a.943.943,0,0,1-.938-.856l-1.1-11.865a.944.944,0,0,1,.852-1.028.956.956,0,0,1,1.026.852l1.1,11.867a.942.942,0,0,1-.852,1.026c-.029,0-.059,0-.088,0" transform="translate(95.444 10.33)"/>
          <path id="Trazado_183954" data-name="Trazado 183954" d="M85.081,15.432a.942.942,0,0,1-.019-1.884l6.346-.134a.89.89,0,0,1,.963.923.945.945,0,0,1-.923.963l-6.348.132Z" transform="translate(92.423 14.727)"/>
          <path id="Trazado_183955" data-name="Trazado 183955" d="M125.549,214.867l18.087,41.14-23.026,7.313L99.417,225.653Z" transform="translate(109.205 236.021)" fill="#d7e5ff"/>
          <path id="Trazado_183956" data-name="Trazado 183956" d="M64.935,196.544l23.528-31.928,24.445,23.054L88.656,215.5Z" transform="translate(71.328 180.824)" fill="#d7e5ff"/>
          <path id="Trazado_183957" data-name="Trazado 183957" d="M106.876,241.269l5.46,21.236-5.565,28.354h79.292l1.431-9.573a7.058,7.058,0,0,0-5.981-8.083c-10.646-1.454-30.264-5.949-37.785-19.61-1.358-2.466-.869-21.4-.869-21.4Z" transform="translate(117.283 255.054)" fill="#ffd947"/>
          <path id="Trazado_183958" data-name="Trazado 183958" d="M71.728,195.521a.774.774,0,0,1-.466-.153.788.788,0,0,1-.166-1.1l31.378-42.58a.788.788,0,1,1,1.267.936L72.362,195.2a.791.791,0,0,1-.634.317" transform="translate(77.927 166.267)"/>
          <path id="Trazado_183959" data-name="Trazado 183959" d="M80.822,202.334a.786.786,0,0,1-.594-1.3l28.048-32.19a.787.787,0,1,1,1.188,1.032l-28.048,32.19a.792.792,0,0,1-.594.271" transform="translate(87.915 185.167)"/>
          <path id="Trazado_183960" data-name="Trazado 183960" d="M84.272,174.958,71.66,196.52l-20.4,8.287L87.64,277.849l8.048-2.508a7.026,7.026,0,0,0,4.61-8.883c-3.353-10.154-13.031-34.778-4.107-47.475,1.61-2.292,14.624-19.234,14.624-19.234Z" transform="translate(56.31 192.183)" fill="#ffd947"/>
          <path id="Trazado_183961" data-name="Trazado 183961" d="M186.688,258.4h-79a.7.7,0,1,1,0-1.393h79a.7.7,0,1,1,0,1.393" transform="translate(117.525 282.31)"/>
          <path id="Trazado_183962" data-name="Trazado 183962" d="M89.23,263.239a.692.692,0,0,1-.63-.4L54.274,188.5a.692.692,0,1,1,1.257-.581l34.329,74.331a.7.7,0,0,1-.34.921.706.706,0,0,1-.29.063" transform="translate(59.546 205.982)"/>
          <path id="Trazado_183963" data-name="Trazado 183963" d="M59.263,218.528a.692.692,0,0,1-.575-1.079l25.9-38.547a.693.693,0,1,1,1.15.772l-25.9,38.547a.691.691,0,0,1-.575.306" transform="translate(64.338 196.179)"/>
          <path id="Trazado_183964" data-name="Trazado 183964" d="M120.856,282.857a.7.7,0,0,1-.686-.581l-7.938-46.724a.7.7,0,0,1,.569-.8.7.7,0,0,1,.8.571l7.941,46.726a.7.7,0,0,1-.571.8,1.1,1.1,0,0,1-.118.008" transform="translate(123.27 257.851)"/>
          <path id="Trazado_183965" data-name="Trazado 183965" d="M139.5,75.854a.784.784,0,0,1-.655-.348L123.173,52.125a.787.787,0,0,1,1.307-.877l15.673,23.381a.79.79,0,0,1-.216,1.093.777.777,0,0,1-.436.132" transform="translate(135.154 55.91)" fill="#ffb6c8"/>
          <path id="Trazado_183966" data-name="Trazado 183966" d="M137.166,77.88a.785.785,0,0,1-.655-.348L120.838,54.153a.787.787,0,1,1,1.307-.877l15.673,23.379a.79.79,0,0,1-.216,1.093.777.777,0,0,1-.436.132" transform="translate(132.589 58.138)" fill="#ffb6c8"/>
          <path id="Trazado_183967" data-name="Trazado 183967" d="M120.847,87.187a.787.787,0,0,1-.648-.338L106.656,67.317a.786.786,0,1,1,1.293-.9l13.546,19.53a.788.788,0,0,1-.2,1.1.767.767,0,0,1-.447.141" transform="translate(117.002 72.587)" fill="#ffb6c8"/>
          <path id="Trazado_183968" data-name="Trazado 183968" d="M24.021,99.851s79.6,41.489,77.433,99.773l-34.8-3.475a58.9,58.9,0,0,1-50.961-43.077l-2.885-10.551Z" transform="translate(14.07 109.682)" fill="#e1e8ff"/>
          <path id="Trazado_183969" data-name="Trazado 183969" d="M96.056,202.239a1.755,1.755,0,0,0,2.2-1.631c.9-24.369-12.4-49.652-38.486-73.114a219.065,219.065,0,0,0-39.89-28.283,1.755,1.755,0,0,0-1.622,3.112c.787.409,78.589,41.656,76.491,98.153a1.755,1.755,0,0,0,1.305,1.763" transform="translate(19.021 108.764)" fill="#5774cd"/>
        </g>
      </g>
    </g>
  </g>
</svg>
