<svg xmlns="http://www.w3.org/2000/svg" xmlns:xlink="http://www.w3.org/1999/xlink" width="166" height="130" viewBox="0 0 166 130">
  <defs>
    <clipPath id="clip-path">
      <rect id="Rectángulo_338350" data-name="Rectángulo 338350" width="91.976" height="109.124" fill="none"/>
    </clipPath>
    <clipPath id="clip-path-2">
      <rect id="Rectángulo_338351" data-name="Rectángulo 338351" width="66.754" height="81.409" fill="none"/>
    </clipPath>
  </defs>
  <g id="Grupo_982626" data-name="Grupo 982626" transform="translate(7794 9270)">
    <rect id="Rectángulo_338324" data-name="Rectángulo 338324" width="166" height="130" rx="14" transform="translate(-7794 -9270)" fill="#6b8dfc"/>
    <g id="Grupo_982625" data-name="Grupo 982625" transform="translate(-7757 -9260)">
      <g id="Grupo_982622" data-name="Grupo 982622">
        <g id="Grupo_982621" data-name="Grupo 982621" clip-path="url(#clip-path)">
          <path id="Trazado_204988" data-name="Trazado 204988" d="M1.86,98.7C.368,98.312.017,97.847.017,96.2q0-19.912,0-39.825Q.015,29.486,0,2.6A2.727,2.727,0,0,1,1.227,0H90.75a2.732,2.732,0,0,1,1.226,2.6q-.027,51.978-.016,103.957c0,2.028-.55,2.564-2.608,2.564H2.64c-.213,0-.426.006-.639,0a1.86,1.86,0,0,1-1.973-1.8,1.837,1.837,0,0,1,1.832-1.825c.141-.014.283-.026.423-.038a2.958,2.958,0,0,1,1.958-.3q23.708-.013,47.417-.007,17.262,0,34.524,0c1.87,0,1.873,0,1.874-1.891V5.876c0-1.9,0-1.9-1.855-1.9H5.753c-.178,0-.356,0-.533,0C4.053,4,3.956,4.1,3.924,5.265c-.012.39,0,.781,0,1.172q0,44.428,0,88.858a9.7,9.7,0,0,1-.088,2.019A1.586,1.586,0,0,1,1.86,98.7" transform="translate(0)"/>
          <path id="Trazado_204989" data-name="Trazado 204989" d="M2.077,99.127C3.6,98.7,3.872,98.31,3.872,96.481q0-42.783,0-85.565c0-1.847.058-3.7-.023-5.54-.046-1.025.171-1.359,1.3-1.356,15.239.047,30.478.031,45.717.031q18.224,0,36.446-.019c.915,0,1.251.151,1.25,1.183q-.047,49.762-.016,99.523c0,.743.03,1.2-1.008,1.2q-42.2-.05-84.4-.028c-.212,0-.424-.023-.636-.035-.631-1.181-.383-2.462-.415-3.709-.027-1.014-.008-2.028-.009-3.043" transform="translate(-0.217 -0.423)" fill="#fea964"/>
          <path id="Trazado_204990" data-name="Trazado 204990" d="M80.082,25.33c.266.229.61.151.913.235a1.805,1.805,0,0,1,1.5,1.811c.005.213,0,.426,0,.639q0,34.677,0,69.355a2.555,2.555,0,0,1-.461,1.911,2.4,2.4,0,0,1-1.956.625q-17.366-.012-34.733,0-15.4,0-30.792,0c-2,0-2.551-.531-2.551-2.5q0-41.6,0-83.2c0-1.986.54-2.518,2.53-2.518q32.71,0,65.42,0a3.175,3.175,0,0,1,1.465.176,1.71,1.71,0,0,1,1.035,1.9,1.665,1.665,0,0,1-1.528,1.525,6.1,6.1,0,0,1-.957.013q-31.538,0-63.075.011c-.394,0-.842-.2-1.19.174A2.159,2.159,0,0,1,16.047,17c0,3.314.014,6.628,0,9.942a14.209,14.209,0,0,0,0,1.7q-.007,26.3,0,52.607a3.341,3.341,0,0,0,.078,1.184c.345.091.486-.211.67-.383a14.056,14.056,0,0,1,2.956-2.075,2.143,2.143,0,0,1,3.089.6,2.088,2.088,0,0,1-.982,3.032,15.615,15.615,0,0,0-5.216,5.183,3.952,3.952,0,0,0-.651,2.2c.023,1.237,0,2.475.009,3.713a1.512,1.512,0,0,0,.234,1.109,1.3,1.3,0,0,0,.919.177q3.663-.04,7.326-.009c.768.006,1.194-.255,1.292-1.048.412-3.3,1.064-6.566,1.371-9.881a17.666,17.666,0,0,0-.326-5.721,38.216,38.216,0,0,0-1.994-5.945,46.525,46.525,0,0,1-3.063-9.39,26.238,26.238,0,0,1-.058-9,6.349,6.349,0,0,1,4.289-5.03,1.875,1.875,0,0,0,1.388-2.146,18.55,18.55,0,0,1,2.5-9.243c.558-1.051.541-1.077-.6-1.42A31.8,31.8,0,0,1,21.507,33.7c-1.4-.873-1.7-1.823-1.03-3.21,1.168-1.118,1.686-1.192,3.11-.421a31.225,31.225,0,0,0,8.66,3.479,2.653,2.653,0,0,0,2.436-.581,19.841,19.841,0,0,1,13.1-4.544,2.179,2.179,0,0,1,.636.03c1.951.632,3.639-.091,5.388-.872A42.3,42.3,0,0,1,73.973,24.2a39.17,39.17,0,0,1,4.957.651,1.737,1.737,0,0,1,1.152.475" transform="translate(-1.263 -1.228)"/>
          <path id="Trazado_204991" data-name="Trazado 204991" d="M80.509,25.778a68.836,68.836,0,0,0-8.136-.915A42.673,42.673,0,0,0,52.59,29.068a3.532,3.532,0,0,1-2.116.361,19.208,19.208,0,0,0-15.706,4.645,1.641,1.641,0,0,1-1.553.346,29.171,29.171,0,0,1-9.26-3.616c-1.34-.778-1.793-.724-2.932.279a.69.69,0,0,1-.684-.168c-1.264-.892-2.528-1.787-3.722-2.773-.228-.188-.3-.469-.489-.678-.088-3.844-.1-7.689,0-11.533l46,.014c6,0,12,.013,18-.016.787,0,1.045.212,1.031,1.017-.047,2.625-.019,5.252-.016,7.878,0,.465.08.97-.635.952" transform="translate(-1.69 -1.676)" fill="#fee673"/>
          <path id="Trazado_204992" data-name="Trazado 204992" d="M67.828,52.079c-3.312.465-5.254,2.432-6.332,5.523-1.943,5.574-4.357,10.979-6.076,16.637a6.1,6.1,0,0,0-.352,1.548,3.651,3.651,0,0,1-2.382,3.229,5.815,5.815,0,0,1-6.84-1.063c-.226-1.119.015-2.249-.116-3.381C45.321,71.036,44,67.786,42.771,64.5c-1.077-2.888-2.256-5.738-3.321-8.631a16.671,16.671,0,0,0-2.009-4.079,10.422,10.422,0,0,1,2.274-4.607,18.2,18.2,0,0,1,10.671-7.039,3.849,3.849,0,0,0,2.924-2.351c.348-.848-.008-1.67.03-2.5a15.6,15.6,0,0,1,10.931,8.5,2.232,2.232,0,0,0,2.5,1.494c.416.163.527.541.63.914a29.794,29.794,0,0,1,.712,4.893,1.19,1.19,0,0,1-.287.982" transform="translate(-3.94 -3.714)" fill="#feead1"/>
          <path id="Trazado_204993" data-name="Trazado 204993" d="M70.342,51.519a22.408,22.408,0,0,0-1.055-6.789c1.368-.924,1.558-1.569.832-3.031a19.954,19.954,0,0,0-8.78-8.9,27.252,27.252,0,0,1,5.9-1.9A41.241,41.241,0,0,1,83.1,30.593c.775.13.972.377.967,1.131-.031,5.608-.017,11.216-.017,16.824v36.8A23.133,23.133,0,0,0,79.8,82.127a1.811,1.811,0,0,0-2.681.518.83.83,0,0,1-.791.174c-1.118-.308-2.239-.6-3.376-.823a.6.6,0,0,1-.435-.42,52.993,52.993,0,0,1,3.22-9.2A30.469,30.469,0,0,0,77.85,57.588,6.98,6.98,0,0,0,71.3,51.56c-.319-.02-.637-.028-.956-.041" transform="translate(-6.455 -3.154)" fill="#f9d985"/>
          <path id="Trazado_204994" data-name="Trazado 204994" d="M16.125,28.82l4.9,3.619c-.463,1.45-.243,2.054,1.049,2.819a31.939,31.939,0,0,0,8.46,3.619c.577.146.948.231.465.979a18.58,18.58,0,0,0-2.985,10.681c.014.7-.149,1.031-.877,1.248a6.745,6.745,0,0,0-4.9,6.127c-.642,5.786.692,11.178,2.961,16.427a34.869,34.869,0,0,1,2.3,6.715c.047.319.111.736-.3.778-1.362.142-2.6.848-3.981.862-1.013-1.24-1.669-1.367-3.007-.59a17.961,17.961,0,0,0-3.916,3.06c-.361-.151-.217-.441-.217-.654q-.011-27.53,0-55.059c0-.211.034-.422.053-.633" transform="translate(-1.689 -3.033)" fill="#f9d985"/>
          <path id="Trazado_204995" data-name="Trazado 204995" d="M60.46,95.435c1.407-.594,1.77-1.618,1.5-3.1-.432-2.334-.71-4.7-1.059-7.047a20.957,20.957,0,0,1,1.382-10.639c1.79-4.732,3.565-9.47,5.4-14.186a3.251,3.251,0,0,1,5.544-1.252c.591,1.1.166,2.137-.219,3.167-1.511,4.052-3.1,8.074-4.628,12.119-.514,1.359-1.019,2.719-1.449,4.111a23.766,23.766,0,0,0-.561,10.21c.446,3.446,1.014,6.872,1.513,10.309.03.21.07.42.091.631.126,1.272.1,1.314-1.183,1.295-1.841-.027-3.682.093-5.521-.064a11.7,11.7,0,0,1-.8-5.559" transform="translate(-6.354 -6.117)" fill="#fef2e3"/>
          <path id="Trazado_204996" data-name="Trazado 204996" d="M28.322,58.984c1.8-1.423,4.263-1.032,5.078,1.026,2.318,5.852,4.724,11.679,6.58,17.7,1.084,3.513.568,7.1.008,10.655q-.91,5.778-1.7,11.574c-.124.912-.37,1.325-1.411,1.249a47.526,47.526,0,0,0-4.791-.013c-.767.022-.99-.189-.609-.887a2.836,2.836,0,0,0,1.312.37c.626-.008,1.033-.245,1.1-.892.419-3.873,1.365-7.675,1.371-11.606a22.766,22.766,0,0,0-1.588-8.2c-.592-1.559-1.223-3.1-1.852-4.646A27.923,27.923,0,0,1,29.483,63.09c.085-1.507.066-2.975-1.161-4.106" transform="translate(-2.98 -6.118)" fill="#feead1"/>
          <path id="Trazado_204997" data-name="Trazado 204997" d="M73.782,87.646l4.6,1.068c-.431,1.375-.272,1.943.953,2.664a14.864,14.864,0,0,1,5.618,5.814,2.394,2.394,0,0,1,.337,1.205c-.012,1.669-.025,3.337.005,5,.012.615-.138.888-.822.88-2.875-.032-5.751-.025-8.626,0-.562,0-.788-.14-.875-.743-.56-3.887-1.275-7.754-1.594-11.671a16.593,16.593,0,0,1,.4-4.219" transform="translate(-7.719 -9.223)" fill="#585966"/>
          <path id="Trazado_204998" data-name="Trazado 204998" d="M52.929,35.242c1.086,2.129-.1,4.473-2.64,5.045A18.6,18.6,0,0,0,44.464,42.7a17.89,17.89,0,0,0-7.311,8.917c-1.2-.369-2.406-.736-3.618-1.072-.284-5.839,3.934-12.071,9.83-14.486a15.229,15.229,0,0,1,9.564-.82" transform="translate(-3.527 -3.664)" fill="#fef2e3"/>
          <path id="Trazado_204999" data-name="Trazado 204999" d="M61.455,101.083c1.879,0,3.758-.019,5.636.013.571.009.827-.071.717-.738-.361-2.185-.684-4.375-.988-6.569-.51-3.664-1.22-7.327-.915-11.041a30.024,30.024,0,0,1,2.318-8.331c1.6-4.115,3.137-8.253,4.734-12.368a6.319,6.319,0,0,0,.367-2.7,2.689,2.689,0,0,1,.9,1.959A25.784,25.784,0,0,1,72.574,73.62c-.84,2.178-1.633,4.375-2.5,6.544A23.755,23.755,0,0,0,68.9,93.131c.412,2.483.73,4.982,1.147,7.464.106.626-.093.7-.626.7-2.663-.026-5.326-.023-7.989-.03-.066-.047-.085-.089-.057-.126a.1.1,0,0,1,.076-.052" transform="translate(-6.457 -6.244)" fill="#feead1"/>
          <path id="Trazado_205000" data-name="Trazado 205000" d="M28.169,59.083a2.209,2.209,0,0,1,1.467,2.439c-.576,6.246,1.337,11.958,3.819,17.534a23.688,23.688,0,0,1,1.9,11.823c-.224,2.626-.75,5.226-1.14,7.839-.037.243-.085.487-.1.732-.117,1.549-.88,2.046-2.4,1.6-.386-.114-.339-.4-.391-.661.361-2.594.641-5.2,1.1-7.778.918-5.145-.11-9.973-2.046-14.721-1.293-3.168-2.691-6.314-3.186-9.754a25.293,25.293,0,0,1-.127-7.1,2.582,2.582,0,0,1,1.109-1.952" transform="translate(-2.827 -6.217)" fill="#fef2e3"/>
          <path id="Trazado_205001" data-name="Trazado 205001" d="M23.222,88.839a11.315,11.315,0,0,1,3.5-1.015c.421-.05.765-.111.778-.626a14.959,14.959,0,0,1,.347,5.734,6.721,6.721,0,0,1-2.074,1.244,12.86,12.86,0,0,0-6.443,8.041c-.651,2.326-.234,1.847-2.489,1.9a1.091,1.091,0,0,1-.719-.095c-.011-1.877-.012-3.754-.038-5.632a2.36,2.36,0,0,1,.38-1.194,14.825,14.825,0,0,1,5.6-5.824,1.953,1.953,0,0,0,1.162-2.534" transform="translate(-1.692 -9.175)" fill="#6e6f7f"/>
          <path id="Trazado_205002" data-name="Trazado 205002" d="M55.772,90.237c.242,1.6.457,3.213.743,4.809a.817.817,0,0,1-.5,1.069c-1.733.867-3.4,1.838-5.446,1.847a1.607,1.607,0,0,0-1.6,1.437.412.412,0,0,1-.5.289,7.118,7.118,0,0,1-3.694-1.876,35.661,35.661,0,0,1,.828-5.83,1.457,1.457,0,0,1,1.463-1.155,3.3,3.3,0,0,1,1.257.133,8.154,8.154,0,0,0,6.354-.685c.326-.171.711-.588,1.091-.038" transform="translate(-4.712 -9.466)" fill="#feead1"/>
          <path id="Trazado_205003" data-name="Trazado 205003" d="M44.807,98.78a16.161,16.161,0,0,0,3.027,1.443c.315.1.643.328,1,.081.016,1.587.58,2.143,2.173,2.139a11.036,11.036,0,0,0,5.026-1.434c.877-.449,1.764-.88,2.645-1.32l.891,5.522a.542.542,0,0,0-.019.178c-5.137.009-10.274.009-15.411.039-.7,0-.8-.185-.677-.864.363-1.978.625-3.975.927-5.965.217-.118.293.094.421.18" transform="translate(-4.568 -10.372)" fill="#585965"/>
          <path id="Trazado_205004" data-name="Trazado 205004" d="M16.127,104.7c.8-.06,1.809.33,2.357-.175.479-.443.426-1.433.676-2.157a13.721,13.721,0,0,1,8.694-8.758c-.072,2.446-.652,4.826-.949,7.243-.142,1.156-.361,2.3-.516,3.457-.049.368-.14.591-.566.591-3.153-.01-6.306-.007-9.46-.019-.078,0-.156-.119-.234-.182" transform="translate(-1.697 -9.85)" fill="#585966"/>
          <path id="Trazado_205005" data-name="Trazado 205005" d="M33.525,52.394a5.007,5.007,0,0,1,3.618,1.072c1.509,1.607,1.956,3.729,2.732,5.685,1.615,4.071,3.251,8.137,4.639,12.292a21.344,21.344,0,0,1,1.163,6.533,5.515,5.515,0,0,1-.253,1.773,1.959,1.959,0,0,1-.894-1.263c-.628-4.069-2.407-7.761-3.782-11.584-1.006-2.8-2.111-5.557-3.164-8.336A6,6,0,0,0,34.71,55.01a2,2,0,0,1-1.186-2.616" transform="translate(-3.517 -5.511)" fill="#fedeb9"/>
          <path id="Trazado_205006" data-name="Trazado 205006" d="M44.921,97.638l-.421-.18c.432-3.116.873-6.231,1.288-9.349.07-.527.273-.433.621-.271a9.708,9.708,0,0,0,8.506.019c.448-.206.622-.174.645.355.027.6.12,1.193.183,1.789-.423-.285-.654.142-.929.288A8.279,8.279,0,0,1,48.189,91c-1.611-.5-2.437.059-2.634,1.719a37.1,37.1,0,0,0-.633,4.916" transform="translate(-4.683 -9.229)" fill="#fedeb9"/>
          <path id="Trazado_205007" data-name="Trazado 205007" d="M57.605,56.8a3.629,3.629,0,0,1-.039-7.257,3.629,3.629,0,1,1,.039,7.257" transform="translate(-5.682 -5.213)"/>
          <path id="Trazado_205008" data-name="Trazado 205008" d="M48.016,53.193a3.6,3.6,0,0,1-3.663,3.61,3.629,3.629,0,1,1,3.663-3.61" transform="translate(-4.288 -5.213)"/>
          <path id="Trazado_205009" data-name="Trazado 205009" d="M53.054,70.513c0,1.207.026,2.414-.007,3.619a1.812,1.812,0,0,1-1.873,1.991c-1.081-.021-1.74-.726-1.752-1.976q-.035-3.672,0-7.346a1.811,1.811,0,0,1,1.736-2.011,1.854,1.854,0,0,1,1.888,2c.035,1.241.008,2.484.008,3.726" transform="translate(-5.199 -6.818)" fill="#010000"/>
        </g>
      </g>
      <g id="Grupo_982624" data-name="Grupo 982624" transform="translate(12.611 13.669)">
        <g id="Grupo_982623" data-name="Grupo 982623" clip-path="url(#clip-path-2)">
          <path id="Trazado_205010" data-name="Trazado 205010" d="M45.367,103.712H86.876V79.517a2.15,2.15,0,0,1-.136-.259A36.023,36.023,0,0,0,74.653,64.139a18.056,18.056,0,0,0-8.124-3.763,6.347,6.347,0,0,0-5.673,1.413,1.364,1.364,0,0,0,.115,2.266,2.024,2.024,0,0,1,.787,2.765,23.065,23.065,0,0,1-1,2.113,22.72,22.72,0,0,0-2.63,9.78c-.115,5.463,2.2,9.949,5.736,13.919.719.806,1.435,1.614,2.214,2.489-.235.045-.331.072-.428.08a35.35,35.35,0,0,0-20.287,8.509" transform="translate(-17.385 -20.008)"/>
          <path id="Trazado_205011" data-name="Trazado 205011" d="M69.363,63.622a15.616,15.616,0,0,1,6.449,3.341c6.066,4.751,10.534,10.594,12.206,18.284a26.6,26.6,0,0,1,.34,9.314c-.052.378-.1.733-.56.76s-.433-.388-.514-.671c-.56-1.94-1.1-3.885-1.667-5.823-.306-1.052-.934-1.508-1.725-1.3s-1.125.96-.84,2c.559,2.051,1.122,4.1,1.753,6.13.181.581-.029.8-.43,1.125-.5.4-.7-.029-.963-.25A80.8,80.8,0,0,1,76.6,90.263c-1.145-1.225-2-1.078-2.741.444-.513.128-.791-.251-1.073-.542-2.887-2.989-4.917-6.4-5.121-10.67a13.16,13.16,0,0,1,.239-2.746,60.285,60.285,0,0,0,1.166-12.032,1.324,1.324,0,0,1,.292-1.094" transform="translate(-19.73 -20.363)" fill="#dccbce"/>
          <path id="Trazado_205012" data-name="Trazado 205012" d="M72.293,108.128a1.16,1.16,0,0,1-.956-1.267c.021-.886.587-1.288,1.824-1.279,1.953.015,3.907.049,5.86.045.3,0,.761.237.863-.319.092-.5-.348-.562-.649-.7a26.453,26.453,0,0,0-10.294-2.377c-6.463-.193-12.282,1.844-17.686,5.228q-.523.327-1.036.667Z" transform="translate(-17.895 -24.425)" fill="#dccbce"/>
          <path id="Trazado_205013" data-name="Trazado 205013" d="M68.838,63.586a64.227,64.227,0,0,1-1.219,13.462c-.717,4.2.714,7.851,3.3,11.11a11.918,11.918,0,0,0,2.412,2.513,2.872,2.872,0,0,0,.83,1.449c1.6,1.7,3.341,3.255,5.306,5.018a35.676,35.676,0,0,0-7.231-1.574,1.02,1.02,0,0,1-.554-.276c-2.971-2.864-5.916-5.765-7.639-9.605-2.352-5.242-1.464-10.312.968-15.27a25.359,25.359,0,0,0,1.213-2.595,4.939,4.939,0,0,0-.474-4.391,5.507,5.507,0,0,1,3.083.159" transform="translate(-19.206 -20.328)" fill="#fefefe"/>
          <path id="Trazado_205014" data-name="Trazado 205014" d="M91.181,102.019c-.078-.007-.151-.029-.229-.031a4.467,4.467,0,0,0-4.681,4.221,4.692,4.692,0,0,0,.374,1.9h4.536Z" transform="translate(-21.689 -24.4)" fill="#fbb324"/>
          <path id="Trazado_205015" data-name="Trazado 205015" d="M71.849,41.919a1.882,1.882,0,0,1-1.756-.773,4.591,4.591,0,0,1-.665-1.891,24.723,24.723,0,0,0-3.9-10.583c-3.043-4.344-7.383-6.617-12.436-7.725-1.045-.229-2.1-.4-3.3-.632a34.014,34.014,0,0,0,5.494-5.889H11.3c.582,7.022,1.665,14,2.328,21.017.311,3.3.48,6.626.482,9.953.67-.312,1.345-.63,2.039-.943-.055.278-.093.482-.134.686A35.6,35.6,0,0,0,19.07,68.133a13.049,13.049,0,0,0,4.358,5.284,5.6,5.6,0,0,0,4.627,1.057,1.3,1.3,0,0,0,1-1.784c-.478-1.657-.265-2.227,1.222-3.149,1.025-.634,2.089-1.206,3.1-1.868,5.02-3.3,8.35-7.742,9.11-13.839A27.211,27.211,0,0,0,42,45.208a4.537,4.537,0,0,1,.438.177,36.024,36.024,0,0,0,17.713,4.633c3.695.06,7.316-.349,10.519-2.435a5.71,5.71,0,0,0,2.683-3.807c.22-1.178-.3-1.863-1.509-1.858" transform="translate(-13.8 -15.186)"/>
          <path id="Trazado_205016" data-name="Trazado 205016" d="M23.682,14.426h-6.9a4.294,4.294,0,0,1,.334.317,80.5,80.5,0,0,0,6.809,6.274c.26.222.464.649.964.251.4-.32.61-.544.429-1.125-.589-1.892-1.116-3.8-1.638-5.717" transform="translate(-14.377 -15.187)" fill="#dccbce"/>
          <path id="Trazado_205017" data-name="Trazado 205017" d="M27.591,14.426c.45,1.568.894,3.137,1.347,4.7.081.283.054.7.514.671s.508-.382.559-.761a27.374,27.374,0,0,0,.242-4.614Z" transform="translate(-15.514 -15.187)" fill="#dccbce"/>
          <path id="Trazado_205018" data-name="Trazado 205018" d="M22.169,30.383c-.185-.554-.519-.636-1.033-.64-2.06-.016-4.119-.074-6.178-.119-1.2-.026-1.764-.471-1.743-1.367s.587-1.288,1.824-1.279c1.953.015,3.907.048,5.86.044.3,0,.761.238.863-.319.091-.5-.348-.562-.649-.7a26.293,26.293,0,0,0-8.84-2.293c.49,4.116,1.024,8.228,1.422,12.357a82.64,82.64,0,0,0,7.925-4.711c.351-.227.748-.381.549-.974" transform="translate(-13.902 -16.164)" fill="#dccbce"/>
          <path id="Trazado_205019" data-name="Trazado 205019" d="M37.31,14.426c-.807,1.777-1.545,3.584-2.269,5.4-.144.361-.463.719.08,1.109a.894.894,0,0,0,1.221-.077q2.569-1.808,5.174-3.564c.906-.613,1.686-.534,2.141.167s.218,1.435-.672,2.056c-1.6,1.117-3.219,2.208-4.812,3.336-.273.193-.837.27-.582.834.235.521.7.262,1.032.2a26.472,26.472,0,0,0,5.562-1.767,27.872,27.872,0,0,0,10.151-7.687Z" transform="translate(-16.274 -15.187)" fill="#dccbce"/>
          <path id="Trazado_205020" data-name="Trazado 205020" d="M23.7,71.358a18.99,18.99,0,0,1-3.4-7.135c-2-6.894-2.249-13.763.446-20.559A26.134,26.134,0,0,1,25.5,35.9c.214-.24.376-.669.847-.4s.175.64.084.933c-.587,1.9-1.215,3.779-1.811,5.671-.339,1.074-.021,1.832.829,2.071.77.217,1.4-.238,1.743-1.295.634-1.954,1.267-3.91,1.871-5.874.161-.523.338-.847.99-.847.675,0,.608.487.712.846a80.134,80.134,0,0,1,2.2,8.98c.234,1.417.913,1.757,2.272,1.233.659.466.515,1.217.587,1.852a18.226,18.226,0,0,1-.651,8.088,12.092,12.092,0,0,1-2.905,4.653,64.57,64.57,0,0,0-7.835,9.081c-.165.242-.312.59-.732.47" transform="translate(-14.585 -17.395)" fill="#dccbce"/>
          <path id="Trazado_205021" data-name="Trazado 205021" d="M69.744,47.857A18.4,18.4,0,0,1,61.9,48.865a33.378,33.378,0,0,1-15.072-4.037,27.091,27.091,0,0,1-10.161-9.937c-.126-.214-.246-.431-.365-.649-.14-.257-.251-.5.031-.759.327-.3.522-.01.727.144,1.616,1.218,3.222,2.45,4.837,3.669.939.709,1.709.705,2.232.012s.311-1.453-.613-2.16c-1.636-1.252-3.27-2.505-4.934-3.718a.9.9,0,0,1-.4-1.147c.184-.616.614-.442,1.026-.422a82.056,82.056,0,0,1,9.11.9c1.584.257,2.08-.2,2.035-1.7a.79.79,0,0,1,.795-.155c3.7.671,7.113,1.921,9.783,4.74a12.973,12.973,0,0,1,2.219,3.229,79.337,79.337,0,0,0,4.908,8.949,9.017,9.017,0,0,0,1.688,2.035" transform="translate(-16.416 -16.706)" fill="#dccbce"/>
          <path id="Trazado_205022" data-name="Trazado 205022" d="M70.462,47.323a1.073,1.073,0,0,1-.952-.531A48.922,48.922,0,0,1,64.12,37.4c-2.266-5.1-6.379-7.57-11.588-8.64-.483-.1-.974-.157-1.462-.234a1.835,1.835,0,0,0-1.366-.884c-2.128-.418-4.292-.54-6.727-.853A40.053,40.053,0,0,0,49.437,23.9a2.448,2.448,0,0,1,1.258-.045c3.954.308,7.826.962,11.285,3.062,4.569,2.773,6.776,7.091,7.808,12.15.134.66.242,1.325.361,1.989a5.356,5.356,0,0,0,3.313,4.373,6.144,6.144,0,0,1-3,1.9" transform="translate(-17.133 -16.172)" fill="#fefefe"/>
          <path id="Trazado_205023" data-name="Trazado 205023" d="M24.281,71.871c2.678-3.99,6.118-7.326,9.306-10.881A11.318,11.318,0,0,0,36.2,54.381a18.463,18.463,0,0,0-.387-6.654,1.9,1.9,0,0,0,.363-1.79c-.4-1.816-.774-3.639-1.2-5.649a33.88,33.88,0,0,0,4.754,4.962c.5.413.5,1.078.638,1.654.9,3.683,1.42,7.39.468,11.148-1.28,5.047-4.63,8.414-8.961,10.975a27.454,27.454,0,0,0-2.354,1.442A4.453,4.453,0,0,0,27.5,73.811c-.044.73-.334.65-.78.376a6.76,6.76,0,0,1-2.436-2.316" transform="translate(-15.166 -17.908)" fill="#fefefe"/>
          <path id="Trazado_205024" data-name="Trazado 205024" d="M19.938,37.128c-1.575.882-3.151,1.76-4.715,2.661a2.5,2.5,0,0,1-1.1.346q.169,2.309.239,4.626c1-.528,1.994-1.086,2.98-1.654a1.191,1.191,0,0,0,.492-.531,36.245,36.245,0,0,1,3.134-5.805c-.5-.124-.738.2-1.027.357" transform="translate(-14.097 -17.535)" fill="#fefefe"/>
          <path id="Trazado_205025" data-name="Trazado 205025" d="M11.8,19.457c.119.115.236.231.355.346a1.023,1.023,0,0,0,.555.276,35.689,35.689,0,0,1,7.231,1.574c-1.965-1.763-3.7-3.32-5.307-5.018a2.879,2.879,0,0,1-.83-1.449,7.03,7.03,0,0,1-.894-.761H11.3c.14,1.68.312,3.356.5,5.032" transform="translate(-13.8 -15.186)" fill="#fefefe"/>
          <path id="Trazado_205026" data-name="Trazado 205026" d="M34.7,27.928a4.589,4.589,0,0,1-4.52,4.328,4.539,4.539,0,0,1-4.4-4.663,4.463,4.463,0,0,1,8.919.335" transform="translate(-15.323 -16.128)" fill="#fbb324"/>
        </g>
      </g>
    </g>
  </g>
</svg>
