<svg xmlns="http://www.w3.org/2000/svg" xmlns:xlink="http://www.w3.org/1999/xlink" width="166" height="130" viewBox="0 0 166 130">
  <defs>
    <clipPath id="clip-path">
      <rect id="Rect치ngulo_338352" data-name="Rect치ngulo 338352" width="99.336" height="98.544" fill="none"/>
    </clipPath>
  </defs>
  <g id="Grupo_982629" data-name="Grupo 982629" transform="translate(7794 8863)">
    <rect id="Rect치ngulo_338326" data-name="Rect치ngulo 338326" width="166" height="130" rx="14" transform="translate(-7794 -8863)" fill="#6b8dfc"/>
    <g id="Grupo_982628" data-name="Grupo 982628" transform="translate(-7761 -8848)">
      <g id="Grupo_982627" data-name="Grupo 982627" clip-path="url(#clip-path)">
        <path id="Trazado_205027" data-name="Trazado 205027" d="M89.153,98.544h-46.3c-.816-.318-.884-1.014-.886-1.747-.006-3.332,0-6.664,0-10,0-.288-.014-.577,0-.864.023-.651-.291-.929-.928-.919a36.543,36.543,0,0,0-4.411.109A12.578,12.578,0,0,1,34.9,85.2c-3.81,0-7.62-.064-11.427.022-2.846.063-5.69.215-8.539.171a8.71,8.71,0,0,1-1.246-.057,1.594,1.594,0,0,1-1.442-1.447,10.041,10.041,0,0,1-.054-1.535q0-16.147,0-32.293c0-.257,0-.513,0-.769-.006-1.564-.02-1.581-1.629-1.584-2.5,0-4.994-.034-7.49.007C-.17,47.773,0,47.051,0,44.7Q.03,23.41.012,2.121c0-.352-.013-.7.013-1.057A1.053,1.053,0,0,1,1.067.016,6.682,6.682,0,0,1,1.834.008H48.891c1.78,0,2.129.334,2.145,2.128.019,2.179,0,4.357.007,6.536,0,1.479.02,1.5,1.5,1.5q21.848,0,43.7,0c.48,0,.961-.018,1.44.023,1.057.092,1.361.379,1.559,1.447q0,22.571,0,45.142c-.208.99-.495,1.261-1.563,1.288-2.014.05-4.028.009-6.042.02-1.347.008-1.4.05-1.4,1.409q-.006,18.1,0,36.191c0,.48,0,.959-.022,1.439a1.355,1.355,0,0,1-1.055,1.413" transform="translate(0 0)"/>
        <path id="Trazado_205028" data-name="Trazado 205028" d="M131.85,60.633l-.081.01-.08-.005c-.011-.223-.031-.446-.031-.669q0-21.881,0-43.761c0-.255.021-.51.032-.764a.283.283,0,0,1,.158.005Z" transform="translate(-32.514 -3.812)" fill="#dedede"/>
        <path id="Trazado_205029" data-name="Trazado 205029" d="M44.707,3.127c1.413,0,2.743.007,4.072,0,.316,0,.483.09.456.431-.015.192,0,.385,0,.577q0,20.376.018,40.75c0,.77-.138,1.015-.968,1.008-4.609-.048-9.217-.023-13.975-.023A4.04,4.04,0,0,0,35.771,43.1a3.364,3.364,0,0,0-1.246-2.788,3.615,3.615,0,0,0-4.874.318c-1.359,1.478-1.2,3.37.492,5.166H12.675a3.683,3.683,0,0,0,1.383-3.4,3.3,3.3,0,0,0-1.149-2.049,3.628,3.628,0,0,0-4.812.169c-1.437,1.423-1.328,3.335.377,5.34-1.66,0-3.245-.005-4.829.005-.352,0-.436-.166-.417-.47.011-.192,0-.386,0-.577q0-20.328-.018-40.654c0-.806.139-1.075,1.023-1.066,4.641.053,9.283.024,13.924.024h1.056a3.73,3.73,0,0,0-1.507,3.558,3.289,3.289,0,0,0,1.227,2.1,3.46,3.46,0,0,0,4.623-.27c1.413-1.461,1.258-3.453-.473-5.324h17.7a3.775,3.775,0,0,0-1.489,2.856,3.444,3.444,0,0,0,6,2.368c1.316-1.456,1.135-3.335-.585-5.29" transform="translate(-0.792 -0.766)" fill="#dfdfdf"/>
        <path id="Trazado_205030" data-name="Trazado 205030" d="M90.359,16.98c7.33,0,14.661.013,21.991-.018.778,0,1.015.159,1.014.982q-.042,20.375,0,40.75c0,.857-.22,1.063-1.062,1.052q-5.569-.073-11.139,0c-.807.01-1-.211-1-1.005q.043-14.945.019-29.89c0-1.839-.215-2.058-2.011-2.058-9.891,0-19.782-.019-29.674.028-1.016.005-1.188-.3-1.166-1.216.063-2.561.05-5.126.005-7.688-.013-.734.157-.957.931-.954,7.362.032,14.725.02,22.087.02" transform="translate(-16.629 -4.188)" fill="#65aed5"/>
        <path id="Trazado_205031" data-name="Trazado 205031" d="M69.8,86.437c-7.33,0-14.661-.014-21.991.02-.818,0-1-.228-.991-1.014.049-2.816.037-5.633.005-8.451-.007-.624.163-.807.8-.806q22.231.024,44.462,0c.648,0,.788.2.782.808-.03,2.819-.044,5.639.006,8.457.014.784-.166,1.011-.983,1.007-7.362-.034-14.725-.02-22.087-.02" transform="translate(-11.562 -18.815)" fill="#fe8774"/>
        <path id="Trazado_205032" data-name="Trazado 205032" d="M69.784,69.613c-7.332,0-14.663-.009-21.995.014-.716,0-1-.131-.974-.928.062-2.079.046-4.161.012-6.24-.011-.691.409-.581.813-.581H60.32c1.681,0,2.026-.274,1.927-1.934-.062-1.05.31-1.227,1.267-1.224q14.167.053,28.335,0c.764,0,1.038.136,1.023.976-.057,3.011-.047,6.024,0,9.035.01.721-.179.9-.9.9-7.4-.028-14.791-.017-22.187-.017" transform="translate(-11.561 -14.502)" fill="#fe8774"/>
        <path id="Trazado_205033" data-name="Trazado 205033" d="M82.53,52.365c-4.766,0-9.532-.014-14.3.016-.693,0-.979-.133-.913-.883a14.329,14.329,0,0,0,0-2.4c-.056-.709.227-.873.871-.83.343.023.916.227,1.016-.2a3.958,3.958,0,0,0-.015-1.889c-.094-.343-.7-.157-1.057-.134-.6.037-.861-.121-.814-.782a17.91,17.91,0,0,0,0-2.495c-.047-.653.2-.785.805-.782,4.574.023,9.148.013,13.722.013,5.022,0,10.044.016,15.065-.017.755-.005,1.038.116,1.02.963-.061,2.847-.05,5.7,0,8.546.012.736-.206.892-.91.888-4.829-.032-9.659-.017-14.489-.017" transform="translate(-16.623 -10.368)" fill="#fe8774"/>
        <path id="Trazado_205034" data-name="Trazado 205034" d="M109.173,88.85c.952-.215,1.173-.855,1.166-1.728-.027-3.2,0-6.408-.023-9.611-.005-.6.11-.876.777-.811,1.072.1,2.513-.45,3.122.214.533.581.17,2,.17,3.055.005,11.4-.008,22.81.026,34.214,0,.856-.263.918-1.038,1.061-2.5.46-3.416-1.546-4.813-2.823-.355-.324,0-.505.184-.687.839-.837,1.7-1.654,2.533-2.493.818-.819.83-1.261.059-2.128-.85-.957-1.7-1.916-2.584-2.843-.342-.359-.362-.576.029-.915.871-.754,1.712-1.543,2.542-2.343.785-.757.784-1.252.014-2.036-.808-.822-1.618-1.645-2.463-2.426-.409-.378-.509-.607-.017-1.023.855-.721,1.645-1.52,2.451-2.3.783-.757.814-1.264.034-2.029-.731-.716-1.53-1.363-2.3-2.04l.131-.308" transform="translate(-26.773 -18.913)" fill="#fd9db7"/>
        <path id="Trazado_205035" data-name="Trazado 205035" d="M96.926,100.033a42.1,42.1,0,0,1,3.242-2.908,1.144,1.144,0,0,0-.1-1.939c-.894-.621-1.49-1.522-2.493-2.375,1.911,0,3.561.006,5.211-.005.342,0,.513.224.709.427.8.827,1.585,1.675,2.412,2.477.356.346.37.556-.008.891-.815.72-1.594,1.481-2.383,2.232-.971.924-.981,1.37-.058,2.3.746.749,1.461,1.534,2.258,2.222.59.509.476.806-.056,1.247-.813.672-1.575,1.407-2.338,2.137a1.153,1.153,0,0,0-.084,1.9c.91,1.033,1.823,2.064,2.767,3.065.317.336.3.522-.031.83-.908.856-1.789,1.743-2.665,2.633-.706.718-.724,1.256,0,1.972.613.606,1.3,1.139,1.952,1.7l-.18.362a22.141,22.141,0,0,0-2.975.024,4,4,0,0,1-3.946-1.694c-1.169-1.442-1.263-1.388.075-2.675a14.351,14.351,0,0,1,1.964-1.8,1.127,1.127,0,0,0-.011-1.826,37.865,37.865,0,0,1-2.919-3.014c-.359-.339-.282-.561.061-.832.976-.77,1.755-1.761,2.81-2.447a1.126,1.126,0,0,0,.015-1.877,43.807,43.807,0,0,1-3.234-3.029" transform="translate(-23.937 -22.919)" fill="#fd9db7"/>
        <path id="Trazado_205036" data-name="Trazado 205036" d="M93.707,119.2c-1.587,0-3.174,0-4.761,0a.879.879,0,0,1-.647-.36c-.837-.88-1.673-1.761-2.538-2.669,1.013-1.009,2.014-1.995,3-2.994.718-.728.737-1.225.063-1.986-.849-.958-1.7-1.916-2.59-2.834-.4-.413-.445-.66.031-1.056.86-.715,1.671-1.491,2.481-2.264.761-.727.763-1.282.02-2.039-.83-.845-1.654-1.7-2.525-2.5-.422-.388-.368-.6.032-.953.816-.717,1.592-1.482,2.374-2.238.892-.862.908-1.349.006-2.241-.694-.688-1.443-1.319-2.167-1.976l.2-.282c1.586,0,3.173.005,4.759,0a.847.847,0,0,1,.641.352c.84.878,1.662,1.777,2.539,2.617.391.374.206.553-.077.814-.776.715-1.542,1.442-2.309,2.168-1.087,1.03-1.086,1.421,0,2.51.748.746,1.477,1.513,2.255,2.225.422.386.374.611-.038.963-.826.707-1.608,1.465-2.4,2.209s-.813,1.253-.105,2.046c.873.979,1.74,1.965,2.653,2.906.386.4.343.629-.042.986-.891.826-1.749,1.689-2.6,2.554a1.2,1.2,0,0,0,0,1.981c.612.608,1.3,1.145,1.947,1.714l-.2.346" transform="translate(-21.18 -22.919)" fill="#fd9db7"/>
        <path id="Trazado_205037" data-name="Trazado 205037" d="M82.573,37.516c-4.77,0-9.54-.018-14.31.018-.757.006-1-.193-.942-.95a21.356,21.356,0,0,0,0-2.785c-.038-.643.187-.8.8-.792,3.393.029,6.787.014,10.18.014,6.243,0,12.485.014,18.728-.017.722,0,.944.179.892.9a20.586,20.586,0,0,0,0,2.785c.044.685-.187.847-.852.843-4.834-.029-9.668-.015-14.5-.015" transform="translate(-16.624 -8.15)" fill="#fe8774"/>
        <path id="Trazado_205038" data-name="Trazado 205038" d="M65.173,92.806c1.43,0,2.861.023,4.29-.014a1.276,1.276,0,0,1,.908.433c.917.844,1.761,1.767,2.643,2.649.269.27.13.439-.084.622a28.839,28.839,0,0,1-2.78,2.474,1.173,1.173,0,0,0,0,2.065,30.306,30.306,0,0,1,2.786,2.6c.319.278.207.474-.054.69a29.071,29.071,0,0,1-2.737,2.376,1.161,1.161,0,0,0-.062,2.009,36.426,36.426,0,0,1,2.908,3.029c.325.316.228.515-.056.764a34.249,34.249,0,0,1-2.869,2.667,1.175,1.175,0,0,0,.076,2.014,4.637,4.637,0,0,1,.727.594c.392.407.777.82,1.332,1.407H67.342c-.294,0-.445-.222-.62-.4-.666-.692-1.3-1.419-2.008-2.066-.492-.45-.4-.721.041-1.125.849-.778,1.658-1.6,2.467-2.423.747-.759.761-1.179.058-1.977-.846-.962-1.691-1.926-2.582-2.845-.4-.416-.444-.66.027-1.057.882-.741,1.721-1.533,2.549-2.335a1.132,1.132,0,0,0,.023-1.9,33.365,33.365,0,0,0-2.4-2.358c-.656-.554-.536-.88.046-1.37.808-.679,1.554-1.433,2.307-2.174.7-.7.745-1.2.045-1.889-.752-.742-1.584-1.4-2.381-2.1l.255-.367" transform="translate(-15.9 -22.916)" fill="#fd9db7"/>
        <path id="Trazado_205039" data-name="Trazado 205039" d="M82.951,119.2c-1.675,0-3.1-.005-4.533,0a.96.96,0,0,1-.734-.38c-.7-.744-1.4-1.5-2.135-2.206-.373-.356-.333-.571.022-.9.864-.81,1.7-1.652,2.529-2.493.813-.819.818-1.24.032-2.117-.853-.953-1.7-1.915-2.583-2.839-.357-.374-.325-.591.053-.918.823-.71,1.612-1.46,2.4-2.207.927-.877.941-1.347.063-2.237-.809-.82-1.617-1.642-2.459-2.428-.374-.349-.357-.557.02-.892.836-.744,1.637-1.529,2.437-2.312.848-.829.843-1.311.008-2.182-.665-.692-1.334-1.38-2-2.071A1.1,1.1,0,0,1,76,92.814c1.554,0,3.066,0,4.577,0,.224,0,.342.152.472.286.871.894,1.725,1.8,2.612,2.68.307.3.277.486-.026.762-.875.8-1.731,1.615-2.582,2.438-.8.772-.81,1.239-.041,2.027.736.756,1.458,1.534,2.252,2.226.614.535.724.888,0,1.441A27.473,27.473,0,0,0,81,106.744c-.723.7-.75,1.151-.093,1.9.886,1.009,1.781,2.013,2.714,2.979.387.4.342.638-.041.993-.822.761-1.6,1.565-2.4,2.353-.973.966-.981,1.347-.059,2.317.547.577,1.1,1.152,1.827,1.92" transform="translate(-18.593 -22.921)" fill="#fd9db7"/>
        <path id="Trazado_205040" data-name="Trazado 205040" d="M19.62,96.879c0-1.683.011-3.179-.008-4.673a.9.9,0,0,1,.476-.767q8.468-6.553,16.934-13.11c.227-.177.474-.443.754-.3.245.122.094.461.1.7.014,1.25-.035,2.5.02,3.749a1.925,1.925,0,0,1-.951,1.924c-4.2,2.933-8.317,5.976-12.465,8.979-1.569,1.136-3.143,2.267-4.856,3.5" transform="translate(-4.844 -19.26)" fill="#7367da"/>
        <path id="Trazado_205041" data-name="Trazado 205041" d="M37.832,89.661c.074,2.547.058,2.349,3.389,2.4-1.188.911-2.187,1.774-3.28,2.5-2.563,1.692-4.909,3.668-7.37,5.493q-2.85,2.113-5.64,4.308a2.393,2.393,0,0,1-1.655.571c-1.022-.035-2.047-.009-3.069.023-.452.014-.572-.148-.617-.6a2.672,2.672,0,0,1,1.278-2.777c5.361-3.767,10.641-7.649,15.95-11.489.3-.221.578-.517,1.014-.429" transform="translate(-4.832 -22.139)" fill="#7367da"/>
        <path id="Trazado_205042" data-name="Trazado 205042" d="M19.627,86.228c0-1.553,0-3.076,0-4.6,0-.352.259-.491.483-.662Q28.55,74.54,36.992,68.116c.252-.192.48-.437.89-.322,0,1.362,0,2.737,0,4.11a.784.784,0,0,1-.315.732q-8.5,6.505-16.973,13.041a1.692,1.692,0,0,1-.966.551" transform="translate(-4.847 -16.735)" fill="#7367da"/>
        <path id="Trazado_205043" data-name="Trazado 205043" d="M19.618,77.106c0-1.49.014-2.93-.009-4.37a.975.975,0,0,1,.489-.855q5.694-4.322,11.378-8.66a1.209,1.209,0,0,1,.772-.314c1.7.013,3.392,0,5.088.011.2,0,.482-.085.529.249a.546.546,0,0,1-.273.556c-5.826,4.222-11.467,8.689-17.216,13.014a1.078,1.078,0,0,1-.757.37" transform="translate(-4.843 -15.536)" fill="#7367da"/>
        <path id="Trazado_205044" data-name="Trazado 205044" d="M30.889,105.554c.812-.624,1.535-1.182,2.262-1.737,2.16-1.645,4.271-3.362,6.5-4.916,2.618-1.828,5.112-3.815,7.658-5.735.742-.56,1.526-.276,2.3-.336.327-.025.3.265.3.483,0,.831-.024,1.664.011,2.494.02.433-.239.63-.519.843-2.871,2.188-5.718,4.411-8.631,6.543-.948.694-1.925,1.356-2.862,2.069a1.4,1.4,0,0,1-.888.294c-1.98,0-3.959,0-6.121,0" transform="translate(-7.628 -22.92)" fill="#7267da"/>
        <path id="Trazado_205045" data-name="Trazado 205045" d="M62.449,119.189c-.924,0-1.849-.023-2.772.01-.49.017-.618-.2-.572-.626a3.628,3.628,0,0,0,0-.384q0-12.2.01-24.4c0-.323-.212-.847.18-.94a1.423,1.423,0,0,1,1.52.255q1.271,1.375,2.6,2.689c.337.331.2.5-.068.749-.871.8-1.736,1.612-2.587,2.435-.762.738-.762,1.27-.009,2.037.785.8,1.554,1.618,2.391,2.361.538.477.446.761-.05,1.176-.784.657-1.521,1.371-2.265,2.075-.838.793-.855,1.262-.1,2.109.876.977,1.743,1.962,2.647,2.913.334.351.342.56-.02.9-.91.852-1.789,1.741-2.664,2.632-.678.692-.7,1.224-.031,1.9.627.631,1.32,1.2,1.984,1.788l-.2.322" transform="translate(-14.585 -22.905)" fill="#fd9db7"/>
        <path id="Trazado_205046" data-name="Trazado 205046" d="M19.621,69.423c0-2.132,0-4.014,0-5.9,0-.341,0-.621.483-.619,2.6.014,5.2.007,8.066.007l-8.546,6.509" transform="translate(-4.845 -15.536)" fill="#7267da"/>
        <path id="Trazado_205047" data-name="Trazado 205047" d="M45.049,107.505l8.347-6.357c0,2.074-.008,3.973,0,5.873,0,.573-.4.48-.728.48-2.462.007-4.925,0-7.623,0" transform="translate(-11.125 -24.98)" fill="#7266da"/>
        <path id="Trazado_205048" data-name="Trazado 205048" d="M12.475,56.825a1.155,1.155,0,0,1-1.152-1.11A1.14,1.14,0,0,1,12.49,54.5c.636,0,1.346.613,1.228,1.178a1.273,1.273,0,0,1-1.243,1.151" transform="translate(-2.794 -13.458)" fill="#7165d7"/>
        <path id="Trazado_205049" data-name="Trazado 205049" d="M26.528,7.877A1.077,1.077,0,0,1,25.415,6.7a1.124,1.124,0,0,1,1.157-1.166,1.2,1.2,0,0,1,1.188,1.243,1.14,1.14,0,0,1-1.231,1.1" transform="translate(-6.276 -1.367)" fill="#7165d7"/>
        <path id="Trazado_205050" data-name="Trazado 205050" d="M41.238,54.481a1.164,1.164,0,1,1-1.124,1.158,1.1,1.1,0,0,1,1.124-1.158" transform="translate(-9.907 -13.455)" fill="#7165d7"/>
        <path id="Trazado_205051" data-name="Trazado 205051" d="M56.486,6.782A1.049,1.049,0,0,1,55.37,7.868a1.091,1.091,0,0,1-1.2-1.09,1.221,1.221,0,0,1,1.179-1.251,1.2,1.2,0,0,1,1.142,1.254" transform="translate(-13.376 -1.365)" fill="#7165d6"/>
        <path id="Trazado_205052" data-name="Trazado 205052" d="M44.126,26.579a3.539,3.539,0,1,1-3.6-3.432,3.466,3.466,0,0,1,3.6,3.432" transform="translate(-9.15 -5.716)"/>
        <path id="Trazado_205053" data-name="Trazado 205053" d="M40.5,17.047a3.434,3.434,0,0,1-3.45-3.474,3.54,3.54,0,0,1,7.077.1A3.412,3.412,0,0,1,40.5,17.047" transform="translate(-9.15 -2.511)"/>
        <path id="Trazado_205054" data-name="Trazado 205054" d="M11.647,17.047a3.418,3.418,0,0,1-3.36-3.456A3.46,3.46,0,0,1,11.8,10.169a3.444,3.444,0,1,1-.151,6.878" transform="translate(-2.047 -2.511)"/>
        <path id="Trazado_205055" data-name="Trazado 205055" d="M44.126,40.533A3.433,3.433,0,0,1,40.569,44a3.477,3.477,0,0,1-3.519-3.426,3.54,3.54,0,0,1,7.076-.044" transform="translate(-9.15 -9.169)"/>
        <path id="Trazado_205056" data-name="Trazado 205056" d="M11.775,37.131a3.381,3.381,0,0,1,3.566,3.421A3.446,3.446,0,0,1,11.673,44a3.46,3.46,0,0,1-3.386-3.453,3.409,3.409,0,0,1,3.488-3.42" transform="translate(-2.047 -9.17)"/>
        <path id="Trazado_205057" data-name="Trazado 205057" d="M15.342,26.617a3.462,3.462,0,0,1-3.693,3.426,3.449,3.449,0,0,1,.148-6.9,3.425,3.425,0,0,1,3.545,3.47" transform="translate(-2.047 -5.716)"/>
        <path id="Trazado_205058" data-name="Trazado 205058" d="M57.992,47.286A3.436,3.436,0,1,1,54.57,43.8a3.408,3.408,0,0,1,3.423,3.49" transform="translate(-12.625 -10.816)"/>
        <path id="Trazado_205059" data-name="Trazado 205059" d="M57.992,32.931a3.417,3.417,0,0,1-3.407,3.417,3.477,3.477,0,0,1-3.465-3.483,3.426,3.426,0,0,1,3.432-3.395,3.379,3.379,0,0,1,3.441,3.46" transform="translate(-12.625 -7.278)"/>
        <path id="Trazado_205060" data-name="Trazado 205060" d="M57.992,19.026a3.407,3.407,0,0,1-3.461,3.357,3.448,3.448,0,1,1,3.461-3.357" transform="translate(-12.624 -3.825)"/>
        <path id="Trazado_205061" data-name="Trazado 205061" d="M22.411,32.857a3.424,3.424,0,1,1,6.847.083,3.424,3.424,0,1,1-6.847-.083" transform="translate(-5.535 -7.278)"/>
        <path id="Trazado_205062" data-name="Trazado 205062" d="M29.258,18.939a3.423,3.423,0,1,1-3.479-3.45,3.416,3.416,0,0,1,3.479,3.45" transform="translate(-5.535 -3.825)"/>
        <path id="Trazado_205063" data-name="Trazado 205063" d="M22.411,47.211a3.423,3.423,0,1,1,6.846.053,3.423,3.423,0,1,1-6.846-.053" transform="translate(-5.535 -10.816)"/>
        <path id="Trazado_205064" data-name="Trazado 205064" d="M114.514,60.578c-1.1.317-1.151-.259-1.223-1.139-.095-1.172.539-1.032,1.3-1.108,1.026-.1,1.167.306,1.188,1.219.025,1.069-.405,1.276-1.267,1.028" transform="translate(-27.976 -14.402)"/>
        <path id="Trazado_205065" data-name="Trazado 205065" d="M71.662,20.791c-.927.235-1.358-.037-1.257-1.121.122-1.3-.179-1.047,1.413-1.148.962-.06,1.187.224,1.227,1.188.05,1.181-.508,1.23-1.384,1.081" transform="translate(-17.384 -4.572)" fill="#030506"/>
        <path id="Trazado_205066" data-name="Trazado 205066" d="M122.911,65.2c-.971.248-1.189-.139-1.236-1.118-.058-1.207.541-1.1,1.368-1.159.986-.066,1.1.318,1.142,1.188.044,1.057-.353,1.306-1.273,1.089" transform="translate(-30.048 -15.537)" fill="#05080a"/>
        <path id="Trazado_205067" data-name="Trazado 205067" d="M124.576,53.751c1.021-.282,1.142.212,1.2,1.135.075,1.185-.563,1.044-1.325,1.105-.944.075-1.139-.266-1.172-1.172-.038-1.08.389-1.284,1.3-1.069" transform="translate(-30.445 -13.255)" fill="#040708"/>
        <path id="Trazado_205068" data-name="Trazado 205068" d="M122.94,31.793c.926-.221,1.242.07,1.255,1.091.014,1.062-.4,1.152-1.27,1.164-.91.013-1.245-.16-1.246-1.182,0-1.046.356-1.291,1.262-1.074" transform="translate(-30.05 -7.834)" fill="#05080a"/>
        <path id="Trazado_205069" data-name="Trazado 205069" d="M115.926,68.518c.835-.224,1.025.2,1.066,1.16.048,1.133-.51,1.056-1.307,1.136-1.1.112-1.185-.409-1.131-1.263.074-1.162-.189-1.016,1.373-1.034" transform="translate(-28.287 -16.907)" fill="#040608"/>
        <path id="Trazado_205070" data-name="Trazado 205070" d="M115.758,41.2c-1.046.288-1.2-.169-1.244-1.1-.047-1.07.4-1.119,1.251-1.156.976-.041,1.213.252,1.212,1.21,0,1.006-.3,1.345-1.218,1.046" transform="translate(-28.28 -9.617)" fill="#030607"/>
        <path id="Trazado_205071" data-name="Trazado 205071" d="M115.735,27.487c1.05-.289,1.208.172,1.25,1.1.049,1.089-.435,1.1-1.273,1.152-1,.061-1.179-.286-1.188-1.212-.01-1.011.3-1.342,1.211-1.042" transform="translate(-28.283 -6.762)" fill="#030607"/>
        <path id="Trazado_205072" data-name="Trazado 205072" d="M102.42,20.766c-1.085.318-1.139-.247-1.211-1.129-.094-1.159.511-1.035,1.289-1.127,1.141-.136,1.077.471,1.13,1.274.069,1.034-.368,1.228-1.209.982" transform="translate(-24.992 -4.566)" fill="#010202"/>
        <path id="Trazado_205073" data-name="Trazado 205073" d="M88.856,20.778c-1.081.324-1.087-.291-1.167-1.147-.11-1.179.533-1.039,1.3-1.112,1-.094,1.087.33,1.129,1.184.053,1.05-.326,1.313-1.261,1.075" transform="translate(-21.653 -4.57)" fill="#010202"/>
        <path id="Trazado_205074" data-name="Trazado 205074" d="M80.006,27.049c-.758.178-1.131-.072-1.127-1.127,0-1.008.374-1.125,1.224-1.113s1.38.045,1.255,1.151c-.122,1.077-.027,1.087-1.352,1.088" transform="translate(-19.48 -6.127)" fill="#010101"/>
        <path id="Trazado_205075" data-name="Trazado 205075" d="M94.045,27.008c-.947.241-1.245-.078-1.242-1.091,0-.979.332-1.117,1.192-1.111.875.006,1.292.1,1.242,1.16-.044.925-.272,1.293-1.192,1.042" transform="translate(-22.919 -6.126)"/>
        <path id="Trazado_205076" data-name="Trazado 205076" d="M121.328,47.629c-1.041.313-1.121-.2-1.192-1.063-.095-1.139.48-1.083,1.283-1.131.935-.056,1.157.242,1.169,1.161.014,1.056-.382,1.3-1.26,1.033" transform="translate(-29.666 -11.219)" fill="#000101"/>
        <path id="Trazado_205077" data-name="Trazado 205077" d="M104.824,26.307c-.8.2-1.068-.154-1.076-1.148s.367-1.09,1.206-1.1c.9-.012,1.318.137,1.211,1.17-.123,1.192.15,1.063-1.34,1.08" transform="translate(-25.622 -5.941)"/>
        <path id="Trazado_205078" data-name="Trazado 205078" d="M117.723,20.782c1.035-.309,1.139.186,1.206,1.051.087,1.111-.44,1.1-1.261,1.133-.906.041-1.179-.194-1.166-1.137.014-.992.294-1.364,1.221-1.047" transform="translate(-28.771 -5.105)"/>
        <path id="Trazado_205079" data-name="Trazado 205079" d="M74.138,81.581c1.1-.34,1.087.29,1.136,1.1.059.98-.32,1.11-1.186,1.14-1,.035-1.107-.358-1.115-1.208-.008-.927.236-1.325,1.165-1.034" transform="translate(-18.021 -20.124)" fill="#0e0706"/>
        <path id="Trazado_205080" data-name="Trazado 205080" d="M56.66,81.566c1.155-.363.944.446,1.029,1.157.124,1.048-.42,1.034-1.211,1.092-1.068.078-1.017-.47-1.075-1.244-.079-1.049.421-1.168,1.257-1" transform="translate(-13.68 -20.121)" fill="#0b0605"/>
        <path id="Trazado_205081" data-name="Trazado 205081" d="M103.282,81.574c1.054-.326,1.068.277,1.11,1.1.047.954-.282,1.13-1.169,1.148-.969.019-1.125-.327-1.127-1.2,0-.922.242-1.311,1.186-1.048" transform="translate(-25.214 -20.123)" fill="#0b0605"/>
        <path id="Trazado_205082" data-name="Trazado 205082" d="M90.374,82.533c-.377-1.191.486-.923,1.174-1.02,1.044-.145.969.448,1.028,1.174.081.989-.334,1.1-1.2,1.136-1.063.043-1.159-.456-1.005-1.291" transform="translate(-22.296 -20.125)" fill="#0c0605"/>
        <path id="Trazado_205083" data-name="Trazado 205083" d="M96.188,82.589c-.3-.994.262-1.021,1.05-1.084,1.034-.082,1.072.383,1.1,1.206.027.9-.265,1.081-1.118,1.107-1.009.031-1.231-.364-1.028-1.229" transform="translate(-23.735 -20.126)" fill="#040202"/>
        <path id="Trazado_205084" data-name="Trazado 205084" d="M51.866,82.847c.241.852-.282.916-1.089.974-1.055.075-1.035-.43-1.095-1.229-.079-1.06.424-1.109,1.226-1.062.957.056.959.016.958,1.316" transform="translate(-12.268 -20.132)" fill="#040202"/>
        <path id="Trazado_205085" data-name="Trazado 205085" d="M61.285,82.606c-.319-1.081.325-1.021,1.061-1.094,1.048-.1,1.04.416,1.087,1.214.057.969-.367,1.031-1.152,1.068-1,.047-1.262-.337-1-1.188" transform="translate(-15.111 -20.127)" fill="#010000"/>
        <path id="Trazado_205086" data-name="Trazado 205086" d="M68.222,81.57c1.217-.36.892.54.99,1.2.156,1.032-.431.955-1.161,1.027-1.138.113-.954-.563-1.035-1.27-.12-1.045.429-1.092,1.206-.952" transform="translate(-16.546 -20.124)"/>
        <path id="Trazado_205087" data-name="Trazado 205087" d="M80.94,82.638c.279.964-.175,1.121-1.065,1.167-1.057.054-1.023-.447-1.074-1.23-.062-.952.332-1.045,1.129-1.061.876-.017,1.279.194,1.01,1.124" transform="translate(-19.459 -20.131)"/>
        <path id="Trazado_205088" data-name="Trazado 205088" d="M85.738,81.576c1.136-.358.994.393,1.063,1.142.088.965-.353,1.021-1.14,1.077-1.05.075-1.053-.431-1.09-1.233-.043-.945.3-1.211,1.167-.986" transform="translate(-20.885 -20.123)" fill="#010101"/>
        <path id="Trazado_205089" data-name="Trazado 205089" d="M90.385,65.142c-.334-1.078.3-1.069,1.116-1.133,1.078-.084,1.026.475,1.082,1.254.071.974-.363,1.038-1.151,1.066-.935.032-1.313-.245-1.047-1.188" transform="translate(-22.299 -15.806)" fill="#0b0605"/>
        <path id="Trazado_205090" data-name="Trazado 205090" d="M103.3,64.081c1.251-.366.977.523,1.078,1.237.166,1.177-.609.9-1.267,1-1.061.156-.962-.465-1.005-1.18-.057-.941.256-1.31,1.2-1.057" transform="translate(-25.215 -15.804)" fill="#0a0505"/>
        <path id="Trazado_205091" data-name="Trazado 205091" d="M75.2,65.221c.325,1.06-.289,1.064-1.107,1.114-.981.061-1.107-.313-1.127-1.18-.021-.953.288-1.148,1.182-1.148.947,0,1.3.284,1.051,1.214" transform="translate(-18.02 -15.807)" fill="#0d0706"/>
        <path id="Trazado_205092" data-name="Trazado 205092" d="M57.628,65.255c.346,1.1-.352,1.009-1.124,1.075-1.02.088-1.064-.375-1.1-1.2-.048-1,.363-1.093,1.208-1.124,1.008-.035,1.218.376,1.02,1.247" transform="translate(-13.681 -15.807)" fill="#0a0505"/>
        <path id="Trazado_205093" data-name="Trazado 205093" d="M51.828,65.2c.3,1-.209,1.087-1.066,1.135-1.041.059-1.047-.419-1.07-1.212-.026-.864.214-1.113,1.094-1.111.928,0,1.3.256,1.042,1.189" transform="translate(-12.271 -15.809)" fill="#040202"/>
        <path id="Trazado_205094" data-name="Trazado 205094" d="M63.367,65.28c.355,1.13-.409.959-1.139,1.047-1.153.139-.921-.581-1.008-1.257-.128-.991.385-.993,1.139-1.047,1.041-.077,1.18.413,1.009,1.258" transform="translate(-15.114 -15.809)" fill="#010000"/>
        <path id="Trazado_205095" data-name="Trazado 205095" d="M69.174,65.356c.3,1.026-.4.889-1.1.968-1.069.12-1-.453-1.064-1.215-.087-1.042.418-1.031,1.215-1.094,1.167-.092,1.018.59.952,1.341" transform="translate(-16.546 -15.807)"/>
        <path id="Trazado_205096" data-name="Trazado 205096" d="M80.941,65.206c.307,1.009-.222,1.08-1.072,1.133-1.052.065-1.035-.434-1.063-1.215-.03-.863.208-1.113,1.088-1.108.927,0,1.306.253,1.047,1.191" transform="translate(-19.461 -15.809)" fill="#040202"/>
        <path id="Trazado_205097" data-name="Trazado 205097" d="M97.216,66.258c-1.066.335-1.047-.3-1.09-1.1-.05-.944.264-1.115,1.156-1.151,1.083-.044,1.012.5,1.047,1.252.041.874-.186,1.272-1.113,1" transform="translate(-23.738 -15.806)" fill="#040202"/>
        <path id="Trazado_205098" data-name="Trazado 205098" d="M84.639,65.187c-.315-1.057.248-1.124,1.09-1.179,1.065-.07,1.028.463,1.074,1.243.054.921-.288,1.078-1.116,1.079-.892,0-1.361-.18-1.047-1.143" transform="translate(-20.878 -15.806)" fill="#0b0605"/>
        <path id="Trazado_205099" data-name="Trazado 205099" d="M104.306,48.48c.335,1.079-.263,1.109-1.09,1.16-1.006.062-1.084-.367-1.124-1.209-.047-.991.331-1.115,1.191-1.12.933-.005,1.32.245,1.023,1.169" transform="translate(-25.212 -11.684)" fill="#0a0504"/>
        <path id="Trazado_205100" data-name="Trazado 205100" d="M92.516,48.471c.283.985-.2,1.114-1.073,1.179-1.126.085-1.068-.481-1.13-1.285-.075-.976.368-1.028,1.14-1.048.891-.023,1.349.18,1.063,1.154" transform="translate(-22.302 -11.685)" fill="#0e0706"/>
        <path id="Trazado_205101" data-name="Trazado 205101" d="M75.2,48.562c.337,1.123-.4.991-1.16,1.072-1.207.129-.974-.616-1.066-1.344-.144-1.133.571-.887,1.218-.969,1.044-.132,1.177.4,1.008,1.241" transform="translate(-18.018 -11.682)" fill="#0c0706"/>
        <path id="Trazado_205102" data-name="Trazado 205102" d="M80.947,48.395c.172.835.02,1.263-1.011,1.25-.938-.012-1.143-.271-1.139-1.171,0-.878.158-1.215,1.123-1.163.817.044,1.31.136,1.028,1.084" transform="translate(-19.459 -11.683)" fill="#030201"/>
        <path id="Trazado_205103" data-name="Trazado 205103" d="M86.736,48.484c.289.975-.194,1.115-1.074,1.16-1.041.053-1.049-.426-1.1-1.233-.07-1.026.381-1.068,1.2-1.1.967-.041,1.185.328.974,1.175" transform="translate(-20.881 -11.682)" fill="#0b0605"/>
        <path id="Trazado_205104" data-name="Trazado 205104" d="M98.266,48.435c.226.889-.067,1.192-1.031,1.209-.991.017-1.087-.351-1.116-1.2-.032-.943.253-1.145,1.154-1.136s1.25.23.992,1.127" transform="translate(-23.737 -11.683)" fill="#030201"/>
        <path id="Trazado_205105" data-name="Trazado 205105" d="M41.311,28.524a1.168,1.168,0,1,1-.035-2.335,1.066,1.066,0,0,1,1.13,1.156,1.1,1.1,0,0,1-1.095,1.179" transform="translate(-9.898 -6.467)" fill="#7266d8"/>
        <path id="Trazado_205106" data-name="Trazado 205106" d="M42.421,14.328a1.075,1.075,0,0,1-1.106,1.2,1.1,1.1,0,0,1-1.229-1.075A1.166,1.166,0,0,1,41.247,13.2a1.137,1.137,0,0,1,1.173,1.13" transform="translate(-9.898 -3.259)" fill="#7165d7"/>
        <path id="Trazado_205107" data-name="Trazado 205107" d="M12.324,15.528a1.065,1.065,0,0,1-1.007-1.167A1.13,1.13,0,0,1,12.474,13.2c.623-.041,1.405.732,1.262,1.292a1.271,1.271,0,0,1-1.413,1.041" transform="translate(-2.795 -3.258)" fill="#7165d7"/>
        <path id="Trazado_205108" data-name="Trazado 205108" d="M42.421,41.279A1.127,1.127,0,0,1,41.3,42.495a1.169,1.169,0,0,1-1.215-1.2,1.17,1.17,0,0,1,2.337-.011" transform="translate(-9.898 -9.92)" fill="#7165d7"/>
        <path id="Trazado_205109" data-name="Trazado 205109" d="M12.342,40.161c.755-.009,1.465.59,1.372,1.173A1.253,1.253,0,0,1,12.533,42.5a1.21,1.21,0,0,1-1.233-1.2,1.107,1.107,0,0,1,1.041-1.145" transform="translate(-2.79 -9.918)" fill="#7165d7"/>
        <path id="Trazado_205110" data-name="Trazado 205110" d="M12.384,28.518a1.117,1.117,0,0,1-1.085-1.11,1.186,1.186,0,0,1,1.189-1.23c.749,0,1.077.529,1.225,1.12.136.544-.581,1.2-1.329,1.22" transform="translate(-2.789 -6.465)" fill="#7165d7"/>
        <path id="Trazado_205111" data-name="Trazado 205111" d="M55.286,46.824c.736.039,1.169.4,1.191,1.118A1.079,1.079,0,0,1,55.4,49.149a1.148,1.148,0,0,1-1.236-1.163,1.13,1.13,0,0,1,1.121-1.162" transform="translate(-13.376 -11.564)" fill="#7165d7"/>
        <path id="Trazado_205112" data-name="Trazado 205112" d="M56.492,33.709a1.1,1.1,0,0,1-1.171,1.122,1.113,1.113,0,0,1-1.157-1.151,1.145,1.145,0,0,1,1.229-1.171,1.1,1.1,0,0,1,1.1,1.2" transform="translate(-13.376 -8.028)" fill="#7165d7"/>
        <path id="Trazado_205113" data-name="Trazado 205113" d="M55.453,18.52a1.081,1.081,0,0,1,1.022,1.154,1.054,1.054,0,0,1-1.106,1.166,1.165,1.165,0,0,1-1.215-1.186,1.228,1.228,0,0,1,1.3-1.133" transform="translate(-13.373 -4.574)" fill="#7165d7"/>
        <path id="Trazado_205114" data-name="Trazado 205114" d="M26.571,32.495a1.138,1.138,0,0,1,1.191,1.124,1.2,1.2,0,0,1-1.215,1.218,1.107,1.107,0,0,1-1.13-1.185,1.092,1.092,0,0,1,1.155-1.158" transform="translate(-6.277 -8.025)" fill="#7165d7"/>
        <path id="Trazado_205115" data-name="Trazado 205115" d="M26.62,20.863a1.113,1.113,0,0,1-1.2-1.143,1.09,1.09,0,0,1,1.11-1.194,1.167,1.167,0,0,1,1.235,1.187,1.141,1.141,0,0,1-1.141,1.151" transform="translate(-6.277 -4.574)" fill="#7165d7"/>
        <path id="Trazado_205116" data-name="Trazado 205116" d="M26.615,49.176a1.133,1.133,0,0,1-1.2-1.127,1.063,1.063,0,0,1,1.08-1.208,1.157,1.157,0,0,1,1.264,1.147,1.174,1.174,0,0,1-1.146,1.188" transform="translate(-6.277 -11.567)" fill="#7165d7"/>
      </g>
    </g>
  </g>
</svg>
