<svg xmlns="http://www.w3.org/2000/svg" width="78.022" height="60.348" viewBox="0 0 78.022 60.348">
  <g id="Grupo_982775" data-name="Grupo 982775" transform="translate(-383.43 -272.184)">
    <path id="Trazado_185916" data-name="Trazado 185916" d="M397,322.823c2.309.179,4.362.5,6.407.452a17.5,17.5,0,0,0,6.306-1.049,15.036,15.036,0,0,1-5.484-4.473c-.419.3-.789.57-1.156.839a20.5,20.5,0,0,1-8.627,3.905,8.254,8.254,0,0,1-9.509-6.574,14.2,14.2,0,0,1,2-9.3c.138-.25.3-.488.445-.733s.285-.489.465-.8c-.649-.988-1.332-1.955-1.94-2.968a15.406,15.406,0,0,1-2.416-5.9,4.979,4.979,0,0,1,3.388-5.734c.354-.135.71-.264,1.093-.407a21.536,21.536,0,0,1,5.02-10.424,20.572,20.572,0,0,1,16.175-7.475,7.247,7.247,0,0,1,3.548.946c2.362,1.337,3.436,4.049,2.863,7.2-.1.552-.243,1.1-.426,1.914.468-.382.753-.586,1-.826a8.909,8.909,0,0,1,5.173-2.527,7.035,7.035,0,0,1,3.337.453,24.387,24.387,0,0,0,4.673,1.125,3.565,3.565,0,0,0,2.656-.426,14.117,14.117,0,0,1,8.442-1.455,18.646,18.646,0,0,1,3.358.6c5.684,1.656,8.789,5.631,9.062,11.743.054,1.218-.115,2.447-.186,3.744.638.087,1.242.157,1.842.252,5.3.85,6.724,4.537,6.907,7.992.367,6.891-2.6,12.068-8.591,15.439a27.877,27.877,0,0,1-12.838,3.434,52.238,52.238,0,0,1-11.353-1.006,2.47,2.47,0,0,0-1.234.064c-2.449.895-4.882,1.837-7.535,2.846a12.027,12.027,0,0,0,1.255,1.2,18.53,18.53,0,0,0,13.348,3.454,13.916,13.916,0,0,1,8.093,1.076c.208.1.4.235.789.462a22.569,22.569,0,0,1-14.478,2.326,18.952,18.952,0,0,1-12.5-7.484c-2.437.279-4.844.524-7.241.839a22.943,22.943,0,0,1-8.219-.4A6.686,6.686,0,0,1,397,322.823Zm41.357-4.3.055.3c.978-.1,1.955-.214,2.934-.287a24.8,24.8,0,0,0,10.552-3.21,13.884,13.884,0,0,0,4.982-4.621,10.749,10.749,0,0,0,1.744-8.434c-.744-3.208-2.806-4.541-6.011-3.929a1.816,1.816,0,0,0-1.526,1.1,45.134,45.134,0,0,1-5.262,8.976,4.8,4.8,0,0,0-.629,1.266A15.363,15.363,0,0,1,438.362,318.525Zm-39.876-27.39a24.91,24.91,0,0,1,3.9-2.366,26.642,26.642,0,0,0,5.123-2.734,8.821,8.821,0,0,1,1.1-.664c2.454-1.141,3.4-3.4,4.029-5.749a3.13,3.13,0,0,0-2.739-4.156,9.829,9.829,0,0,0-2.973.148c-7.213,1.591-12.168,5.94-15.179,12.6a11.948,11.948,0,0,0-.449,1.439Zm47.735,7.325c1.7-1.166,3.07-2.4,3.185-4.528a40.495,40.495,0,0,0,.216-4.391,7.448,7.448,0,0,0-3.3-5.726c-2.7-1.991-5.73-2.066-8.855-1.667a15.35,15.35,0,0,0-1.926.508C443.33,289.477,444.13,290.661,446.221,298.46Zm-44.058,16.5c-.464-.785-.888-1.417-1.224-2.092a1.8,1.8,0,0,0-1.7-1.076,13.251,13.251,0,0,1-7.775-3.187l-1.285-.989c-1.713,2.332-2.685,4.755-2.17,7.542a4.043,4.043,0,0,0,4.3,3.7C396.116,318.89,399.162,317.243,402.163,314.956Zm22.1-24.534c4.312,2.97,6.341,7.214,7.463,12.129a15.891,15.891,0,0,0-3.031-16.237A8.21,8.21,0,0,0,424.259,290.421ZM413.547,306.76l-6.816,8.657c.784.805,1.564,1.623,2.363,2.422a1.026,1.026,0,0,0,1.626-.055,19.837,19.837,0,0,0,1.9-2.3c1.12-1.648,2.165-3.346,3.232-5.029a1.47,1.47,0,0,0,.1-.429Zm14.758-2.547c-.043-4.1-2.567-8.915-5.189-10.221-.3,2.289-1.08,4.623,1.477,6.227a3.706,3.706,0,0,1,.732.867c.571.7,1.12,1.418,1.72,2.091A12.054,12.054,0,0,0,428.3,304.213ZM393.2,299.527a10.073,10.073,0,0,1-4.7-5.232c-1.51.714-1.893,1.258-1.566,2.279a17.158,17.158,0,0,0,3.131,5.635Zm26.057-7.18a4.372,4.372,0,0,0-3.533,1.506.922.922,0,0,0-.265.631,15.519,15.519,0,0,0,.556,4.461l3.243-1.034Zm6.034-8.6-.074-.318c-1.614.3-3.222.641-4.844.892a3.842,3.842,0,0,0-3.331,3.246l.756,1.183h2.652A11.081,11.081,0,0,1,425.289,283.749ZM411.777,290.6c-3.039-.384-4.858,1.489-6.959,3.251,1.669.583,2.851,1.861,4.565,1.746.655-1.016,1.211-2.01,1.9-2.9A2.217,2.217,0,0,0,411.777,290.6Zm24.86,14.809c.719-.573,1.461-1.085,2.106-1.7a2.246,2.246,0,0,0,.643-2.607,26.65,26.65,0,0,0-1.517-3.045,3.09,3.09,0,0,0-1.416-1.485,20.289,20.289,0,0,1-1.044,8.068Zm-44.1-.556c1.8,1.97,4.46,3.376,5.824,3.111l-1.8-6.038A13.87,13.87,0,0,0,392.535,304.858Zm9.492,2.552a8.018,8.018,0,0,0,4-4.835l-5.853-.417A26.027,26.027,0,0,0,402.027,307.409Zm26.665,8.225c.753.043,1.381.271,1.8.068a10.424,10.424,0,0,0,4.363-3.583,10.147,10.147,0,0,0,.706-1.635c-.847-.157-1.493-.325-2.148-.375a1.116,1.116,0,0,0-.848.33C431.32,312.054,430.12,313.705,428.692,315.634Zm-36.971-22.119c.766,1.885,2.993,3.649,4.574,3.663.16-.911.322-1.827.494-2.8C395.08,293.913,393.505,293.263,391.721,293.515Zm13.116,18.966c2.286-3.048,4.412-5.886,6.543-8.721a1.071,1.071,0,0,0-.156-1.524c-1.011,1.7-1.954,3.393-3,5.019a12.039,12.039,0,0,1-4.288,3.9Zm13.132,4.689a4.048,4.048,0,0,0,4.043-1.37l-2.465-1.882A5.741,5.741,0,0,0,417.97,317.17Zm19.377-2.358a8.74,8.74,0,0,0,3.488-3.43l-.891-1.611a1.145,1.145,0,0,0-1.18.985C438.383,312.067,437.871,313.339,437.347,314.813Zm-3.42-27.092c.938,2.758,3.216,4.513,4.9,6.714A13.5,13.5,0,0,0,433.926,287.721Zm-14.264,19.007,1.022-.787-2.07-.984-.14.191Z"/>
  </g>
</svg>
