<svg xmlns="http://www.w3.org/2000/svg" xmlns:xlink="http://www.w3.org/1999/xlink" width="68.534" height="89.733" viewBox="0 0 68.534 89.733">
  <defs>
    <clipPath id="clip-path">
      <rect id="Rectángulo_338421" data-name="Rectángulo 338421" width="46.292" height="79.31" fill="none"/>
    </clipPath>
    <clipPath id="clip-path-2">
      <rect id="Rectángulo_338420" data-name="Rectángulo 338420" width="46.291" height="79.31" fill="none"/>
    </clipPath>
    <clipPath id="clip-path-3">
      <rect id="Rectángulo_338415" data-name="Rectángulo 338415" width="9.76" height="12.071" fill="none"/>
    </clipPath>
    <clipPath id="clip-path-4">
      <rect id="Rectángulo_338416" data-name="Rectángulo 338416" width="13.939" height="16.353" fill="none"/>
    </clipPath>
    <clipPath id="clip-path-5">
      <rect id="Rectángulo_338417" data-name="Rectángulo 338417" width="15.907" height="67.941" fill="none"/>
    </clipPath>
    <clipPath id="clip-path-6">
      <rect id="Rectángulo_338418" data-name="Rectángulo 338418" width="3.496" height="6.094" fill="none"/>
    </clipPath>
    <clipPath id="clip-path-7">
      <rect id="Rectángulo_338419" data-name="Rectángulo 338419" width="3.798" height="6.377" fill="none"/>
    </clipPath>
  </defs>
  <g id="Grupo_982778" data-name="Grupo 982778" transform="matrix(0.951, -0.309, 0.309, 0.951, 0, 14.305)">
    <g id="Grupo_982772" data-name="Grupo 982772" clip-path="url(#clip-path)">
      <g id="Grupo_982771" data-name="Grupo 982771">
        <g id="Grupo_982770" data-name="Grupo 982770" clip-path="url(#clip-path-2)">
          <path id="Trazado_205688" data-name="Trazado 205688" d="M44.354,77.077c-13.971.35-23.232,1.195-37.188.395-.421-10.5.556-20.615,6.921-27.69,2.766-3.076,6.73-5.595,7.588-9.876.687-3.427-3.92-6.378-5.888-9.1-2.7-3.731-8.209-7.728-8.875-25.5,11.1-.283,35.532-.06,36.481.223-.342,7.4-1.184,15.645-4.9,21.743a52.922,52.922,0,0,1-5.263,6.454c-1.589,1.8-3.415,3.869-2.9,6.345,1.032,4.946,8.9,8.674,12.277,18.32,2.552,7.291,2.395,10.709,1.741,18.68" transform="translate(-2.692 -2.018)" fill="#fff"/>
          <path id="Trazado_205689" data-name="Trazado 205689" d="M18.1,77.344q-5.524.014-11.043-.274l-.46-.024c-.153,0-.346-.013-.429-.17a56.618,56.618,0,0,1,1.292-17.4,27.808,27.808,0,0,1,3.7-8.446c2.25-3.625,6.275-6.018,8.3-9.728,1.331-2.422,1.055-4.2-.824-6.247-1.184-1.375-2.625-2.589-3.821-4-1.1-1.416-2.39-2.877-3.476-4.338C6.652,20.364,5.483,12.265,5.086,4.62a1.142,1.142,0,0,1,.534-1.026,1.236,1.236,0,0,1,.627-.165l.462-.013c7.985-.232,15.977-.2,23.963-.16,4.075.095,8.066.016,12.148.346a1.182,1.182,0,0,1,1.046,1.259l-.006.116-.012.231c-.38,6.758-1.081,13.815-4.156,20.014-1.626,3.382-4.452,6.1-6.879,8.829-1.5,1.665-3.1,3.69-2.087,5.966.9,2.173,2.731,3.932,4.284,5.71a44.551,44.551,0,0,1,4.6,5.824,33.529,33.529,0,0,1,4.751,13.957,50.536,50.536,0,0,1-.176,9.223l-.079.918-.04.458-.02.23a.411.411,0,0,1-.126.27c-.116.152-.352.1-.507.115l-.46.012c-6.2.181-18.529.473-24.848.609m0,0c6.369-.164,18.6-.507,24.844-.8l.46-.018.23-.01a.2.2,0,0,0,.2-.194c.031-.375.087-1.212.117-1.606a46.847,46.847,0,0,0,0-9.159,34.539,34.539,0,0,0-1.763-7.085c-1.494-4.689-4.471-8.618-7.862-12.119-2.04-2.31-4.862-4.576-5.062-7.923,0-2.035,1.389-3.785,2.59-5.2,2.373-2.811,4.941-5.333,6.47-8.673,2.853-6.015,3.4-12.805,3.747-19.428l.011-.228.005-.115c0-.026,0-.045,0,.014a.632.632,0,0,0,.4.545l-.068,0c-.129-.014-.483-.035-.771-.049-11.425-.312-23.477-.317-34.911-.222l-.458.007c-.173.006.1,0,.182-.076a.55.55,0,0,0,.249-.437l.005.114c.01.12.023.551.032.683.33,7.166,1.323,14.714,5.53,20.678.989,1.4,2.284,2.946,3.333,4.36,1.158,1.426,2.527,2.627,3.715,4.072,2.015,2.32,2.363,4.443.779,7.187-2.231,3.857-6.183,5.981-8.588,9.627a26.617,26.617,0,0,0-3.817,8.26A55,55,0,0,0,6.22,76.847c.071.137.23.141.383.145l.46.026q5.515.315,11.04.326" transform="translate(-1.98 -1.257)"/>
          <path id="Trazado_205690" data-name="Trazado 205690" d="M7.108,76.824c11.83.53,24.754-.47,36.61-.921l-.5.475a57.47,57.47,0,0,0,.169-9.733,35.364,35.364,0,0,0-2.438-9.316c-1.81-4.529-5.185-8.123-8.494-11.66-4.929-5.269-4.809-8.544.15-13.678,2.139-2.411,4.334-4.766,5.648-7.716,2.686-5.863,3.255-12.484,3.573-18.891l.83.954C30.973,5.922,18.569,5.9,6.9,6.054l.794-.847c.289,6.5,1.142,13.266,4.387,18.983a59.4,59.4,0,0,0,4.366,5.993c2.5,3.083,7.456,6.429,5.274,11.037C20,45.471,15.858,47.8,13.133,51.282,7.609,58.5,6.982,68.042,7.108,76.824m0,0C6.637,68.533,7,59.668,11.4,52.363c.248-.38.828-1.23,1.068-1.588.241-.3.947-1.181,1.2-1.493,2.784-3.122,9.662-8.059,6.7-12.74C19.093,34.5,16.979,32.92,15.411,31a59.4,59.4,0,0,1-4.581-6.075C7.168,18.783,6.339,11.443,6.023,4.446l.834-.021c11.786-.216,24.163-.294,35.961.091l.876.059a91.941,91.941,0,0,1-1.033,10.793,33.693,33.693,0,0,1-4.074,11.888,46.313,46.313,0,0,1-4.747,5.838c-1.977,2.2-4.494,4.7-2.946,7.739,1.374,2.8,4.024,5.005,6.034,7.454a32.1,32.1,0,0,1,7.656,18.247,58.453,58.453,0,0,1-.338,9.928l-.04.465-.463.01c-11.876.214-24.822.872-36.636-.113" transform="translate(-2.346 -1.654)"/>
          <path id="Trazado_205691" data-name="Trazado 205691" d="M68.243,122.363l0-.916v1.774c0-.233,0-.621,0-.858m0,0c0-.238,0-.624,0-.858v1.774Z" transform="translate(-26.581 -47.304)"/>
          <rect id="Rectángulo_338413" data-name="Rectángulo 338413" width="45.693" height="5.133" transform="translate(0.299 73.75)"/>
          <path id="Trazado_205692" data-name="Trazado 205692" d="M45.992,126.044H.3a.3.3,0,0,1-.3-.3v-5.132a.3.3,0,0,1,.3-.3H45.992a.3.3,0,0,1,.3.3v5.132a.3.3,0,0,1-.3.3M.6,125.445H45.693V120.91H.6Z" transform="translate(0 -46.862)"/>
          <rect id="Rectángulo_338414" data-name="Rectángulo 338414" width="44.574" height="5.133" transform="translate(0.299 0.597)"/>
          <path id="Trazado_205693" data-name="Trazado 205693" d="M44.873,6.219H.3a.3.3,0,0,1-.3-.3V.787a.3.3,0,0,1,.3-.3H44.873a.3.3,0,0,1,.3.3V5.919a.3.3,0,0,1-.3.3M.6,5.62H44.573V1.085H.6Z" transform="translate(0 -0.19)"/>
          <path id="Trazado_205694" data-name="Trazado 205694" d="M31.256,42.595a20.465,20.465,0,0,1-11.5-9.7c-.247-.428-.458-.911-.675-1.355a.729.729,0,0,1,.57-1.06,13.69,13.69,0,0,1,3.073-.062c1.72.1,3.28.876,4.927.921,2.75-.194,5.333-1.881,8.177-1.916a15.915,15.915,0,0,1,4.565.342.684.684,0,0,1,.567.837,43.616,43.616,0,0,1-9.038,11.5c-.15.106-.489.521-.671.5m0,0c.178.027.515-.4.663-.5a37.3,37.3,0,0,0,8.327-11.638.078.078,0,0,0,.054.073c-.356-.051-.715-.1-1.072-.126a16.459,16.459,0,0,0-6.491.786c-1.593.521-3.292,1.364-5.081,1.349a13.135,13.135,0,0,1-3.449-.752,14.153,14.153,0,0,0-4.466-.446c.025,0,.1-.063.091-.118-.035-.135.04.089.089.2A18.64,18.64,0,0,0,31.256,42.595" transform="translate(-7.4 -11.444)"/>
          <path id="Trazado_205695" data-name="Trazado 205695" d="M20.885,31.8A19.7,19.7,0,0,0,32.11,41.788l-.54.1a41.885,41.885,0,0,0,8.508-11.159l.427.851a15.2,15.2,0,0,0-4.824-.045,32.026,32.026,0,0,0-4.776,1.321,7.654,7.654,0,0,1-5.123-.217,14.225,14.225,0,0,0-4.9-.836m0,0a13.055,13.055,0,0,1,5.032.364c3.418,1.223,6.261-1.094,9.59-1.671a15.629,15.629,0,0,1,5.189-.076l.8.126A40.416,40.416,0,0,1,37.248,37.4a36.128,36.128,0,0,1-5.215,5.5A18.473,18.473,0,0,1,20.885,31.8" transform="translate(-8.135 -11.779)"/>
          <path id="Trazado_205696" data-name="Trazado 205696" d="M12.574,102.8a.3.3,0,0,1-.269-.44l.225-.572c2.8-7.521,10.169-11.617,14.933-17.687a.739.739,0,0,1,1.164-.1l.4.477c.263.3.535.589.822.867,2.342,2.269,5.2,3.913,7.737,5.988,3.121,2.517,5.6,6.356,5.21,10.518l-.011.161-.005.081a.839.839,0,0,1-.918.795c-9.737-.9-19.532-.526-29.29-.087m0,0c9.731-.421,19.464-1.476,29.215-.967l.154.008c.045,0,0,0-.012,0a.23.23,0,0,0-.208.183c.336-3.811-2-7.4-4.907-9.778-2.832-2.343-6.132-4.272-8.471-7.2-.125-.154-.275-.357-.368-.48a.131.131,0,0,0,.119.037c.027.01.127-.107.01.024-3.189,3.807-7.4,6.514-10.855,10.038a22.678,22.678,0,0,0-4.942,7.695.3.3,0,0,0,.264.438" transform="translate(-4.779 -32.627)"/>
          <path id="Trazado_205697" data-name="Trazado 205697" d="M28.034,85.726c-3.452,4.614-8.5,7.816-11.87,12.477a22.52,22.52,0,0,0-2.688,4.943l-.52-.73c9.454-.516,19.278-1.211,28.719-.429l-.566.5c.492-8.243-8.891-11.109-13.076-16.758m0,0c4.943,5.544,14.392,7.845,14.131,16.82l-.03.528-.535-.032c-9.654-.575-19.743.14-29.424.471a22.945,22.945,0,0,1,3.259-5.853C19,93.018,24.191,90.1,28.034,85.726" transform="translate(-4.742 -33.391)"/>
          <path id="Trazado_205698" data-name="Trazado 205698" d="M38.033,61.892a.3.3,0,0,1-.3-.29l-.092-3.007a.3.3,0,0,1,.29-.309.3.3,0,0,1,.308.29l.092,3.008a.3.3,0,0,1-.29.308h-.009" transform="translate(-14.662 -22.702)"/>
          <path id="Trazado_205699" data-name="Trazado 205699" d="M38.035,72.695a.3.3,0,0,1-.3-.288l-.107-2.851a.3.3,0,0,1,.288-.311.3.3,0,0,1,.31.288l.107,2.851a.3.3,0,0,1-.288.311h-.012" transform="translate(-14.657 -26.971)"/>
          <path id="Trazado_205700" data-name="Trazado 205700" d="M22.5,108.925a.1.1,0,0,1-.089-.054L20.8,105.719a.1.1,0,1,1,.178-.091l1.613,3.151a.1.1,0,0,1-.043.134.1.1,0,0,1-.045.011" transform="translate(-8.098 -41.122)"/>
          <path id="Trazado_205701" data-name="Trazado 205701" d="M27.842,107.035a.1.1,0,0,1-.087-.051,46.388,46.388,0,0,1-2.435-4.958.1.1,0,0,1,.184-.078,46.226,46.226,0,0,0,2.424,4.937.1.1,0,0,1-.037.136.1.1,0,0,1-.049.013" transform="translate(-9.86 -39.686)"/>
          <path id="Trazado_205702" data-name="Trazado 205702" d="M32.295,105.553a.1.1,0,0,1-.087-.051c-1.3-2.291-2.517-4.679-3.606-7.1a.1.1,0,1,1,.182-.082c1.085,2.415,2.3,4.8,3.6,7.084a.1.1,0,0,1-.037.136.1.1,0,0,1-.049.013" transform="translate(-11.137 -38.273)"/>
          <path id="Trazado_205703" data-name="Trazado 205703" d="M36.7,104.181a.1.1,0,0,1-.089-.054C35.138,101.3,33.687,98.4,32.3,95.52a.1.1,0,0,1,.179-.087c1.385,2.882,2.835,5.775,4.309,8.6a.1.1,0,0,1-.042.135.108.108,0,0,1-.046.011" transform="translate(-12.578 -37.15)"/>
          <path id="Trazado_205704" data-name="Trazado 205704" d="M41.528,103.021a.1.1,0,0,1-.089-.054l-5.553-10.93a.1.1,0,1,1,.178-.09l5.553,10.93a.1.1,0,0,1-.043.134.1.1,0,0,1-.045.011" transform="translate(-13.974 -35.792)"/>
          <path id="Trazado_205705" data-name="Trazado 205705" d="M46.6,103.14a.1.1,0,0,1-.089-.053c-1.921-3.641-3.836-7.352-5.693-11.028a.1.1,0,1,1,.178-.09c1.856,3.675,3.772,7.385,5.692,11.024a.1.1,0,0,1-.042.135.1.1,0,0,1-.046.012" transform="translate(-15.893 -35.801)"/>
          <path id="Trazado_205706" data-name="Trazado 205706" d="M53.135,105.971a.1.1,0,0,1-.089-.054L49.165,98.43a.1.1,0,0,1,.177-.092l3.882,7.487a.1.1,0,0,1-.043.135.1.1,0,0,1-.046.011" transform="translate(-19.146 -38.282)"/>
          <path id="Trazado_205707" data-name="Trazado 205707" d="M56.263,105.965a.1.1,0,0,1-.093-.062,19.94,19.94,0,0,0-1.162-2.4.1.1,0,0,1,.173-.1,20.287,20.287,0,0,1,1.174,2.426.1.1,0,0,1-.093.137" transform="translate(-21.421 -40.256)"/>
          <path id="Trazado_205708" data-name="Trazado 205708" d="M26.584,37.8a.1.1,0,0,1-.092-.061l-1.232-2.9a.1.1,0,0,1,.184-.078l1.231,2.905a.1.1,0,0,1-.053.131.1.1,0,0,1-.038.008" transform="translate(-9.836 -13.513)"/>
          <path id="Trazado_205709" data-name="Trazado 205709" d="M31.445,41.521a.1.1,0,0,1-.089-.054,42.316,42.316,0,0,1-2.415-5.66.1.1,0,1,1,.189-.064,42.214,42.214,0,0,0,2.4,5.632.1.1,0,0,1-.043.134.1.1,0,0,1-.046.011" transform="translate(-11.271 -13.896)"/>
          <path id="Trazado_205710" data-name="Trazado 205710" d="M35.843,43.446a.1.1,0,0,1-.089-.056,52.283,52.283,0,0,1-2.77-6.684.1.1,0,1,1,.189-.063A52.138,52.138,0,0,0,35.932,43.3a.1.1,0,0,1-.089.144" transform="translate(-12.845 -14.246)"/>
          <path id="Trazado_205711" data-name="Trazado 205711" d="M38.718,42.118a.1.1,0,0,1-.09-.057c-.844-1.788-1.632-3.633-2.342-5.487a.1.1,0,1,1,.186-.071c.709,1.848,1.494,3.689,2.337,5.472a.1.1,0,0,1-.09.142" transform="translate(-14.131 -14.193)"/>
          <path id="Trazado_205712" data-name="Trazado 205712" d="M41.669,39.574a.1.1,0,0,1-.086-.049,31.469,31.469,0,0,1-2.057-4.2.1.1,0,0,1,.185-.074,31.261,31.261,0,0,0,2.044,4.17.1.1,0,0,1-.086.15" transform="translate(-15.393 -13.707)"/>
          <path id="Trazado_205713" data-name="Trazado 205713" d="M44.775,37.155a.1.1,0,0,1-.089-.054,30.828,30.828,0,0,1-1.326-2.889.1.1,0,1,1,.185-.073,30.891,30.891,0,0,0,1.318,2.871.1.1,0,0,1-.089.146" transform="translate(-16.886 -13.273)"/>
          <path id="Trazado_205714" data-name="Trazado 205714" d="M47.728,34.943a.1.1,0,0,1-.091-.059l-.711-1.59a.1.1,0,1,1,.183-.081l.711,1.59a.1.1,0,0,1-.05.132.109.109,0,0,1-.041.009" transform="translate(-18.274 -12.913)"/>
          <g id="Grupo_982757" data-name="Grupo 982757" transform="translate(22.959 18.138)" opacity="0.129">
            <g id="Grupo_982756" data-name="Grupo 982756">
              <g id="Grupo_982755" data-name="Grupo 982755" clip-path="url(#clip-path-3)">
                <path id="Trazado_205715" data-name="Trazado 205715" d="M45.328,30.29a50.237,50.237,0,0,1-3.9,5.183c-.535.647-1.018,1.342-1.551,1.993-.512.63-1.066,1.219-1.607,1.819-.2.237-.473.425-.559.745a1.256,1.256,0,0,0,1.063,1.75c.616,0,1-.557,1.413-.968a32.376,32.376,0,0,0,2.661-3.047,36.866,36.866,0,0,0,3.2-4.4c.335-.512.664-1.028.98-1.554a1.569,1.569,0,0,0,.324-.763,1.091,1.091,0,0,0-2.023-.759" transform="translate(-37.608 -29.711)"/>
              </g>
            </g>
          </g>
          <g id="Grupo_982760" data-name="Grupo 982760" transform="translate(22.788 52.567)" opacity="0.129">
            <g id="Grupo_982759" data-name="Grupo 982759">
              <g id="Grupo_982758" data-name="Grupo 982758" clip-path="url(#clip-path-4)">
                <path id="Trazado_205716" data-name="Trazado 205716" d="M50.931,99.727q-.385-.979-.792-1.947c-1.411-3.38-4.085-5.819-6.823-7.912a24.44,24.44,0,0,1-2.794-2.278c-.51-.418-.886-1.062-1.465-1.358-1.224-.614-2.327,1.179-1.366,2.2,3.427,3.9,5.371,4.249,8.615,8.429a16.059,16.059,0,0,1,1.54,2.919c.106.247.446,1.1.541,1.33l.007.019a1.821,1.821,0,0,0,.727,1.12,1.384,1.384,0,0,0,1.957-.557,2.131,2.131,0,0,0-.148-1.965" transform="translate(-37.327 -86.105)"/>
              </g>
            </g>
          </g>
          <g id="Grupo_982763" data-name="Grupo 982763" transform="translate(25.773 5.719)" opacity="0.129">
            <g id="Grupo_982762" data-name="Grupo 982762">
              <g id="Grupo_982761" data-name="Grupo 982761" clip-path="url(#clip-path-5)">
                <path id="Trazado_205717" data-name="Trazado 205717" d="M55.452,70.822c.06,1.883-.092,3.766-.078,5.648a2.473,2.473,0,0,0,.084.838c.5,0,1,0,1.505-.035.277-.019.552-.063.83-.063.071,0,.142,0,.213,0a17.386,17.386,0,0,0,.052-2.458c.018-2.071.14-4.148,0-6.217a35.855,35.855,0,0,0-2.193-8.805C55.249,58.369,54.644,57,53.92,55.7a32.936,32.936,0,0,0-3.55-4.871c-1.994-2.451-3.491-3.56-4.687-6.317l-.022-.055c-.217-.581-.426-1.167-.6-1.766a10.52,10.52,0,0,0-.484-1.75.841.841,0,0,0-.216-.228,4.271,4.271,0,0,1,.082-.442,7.438,7.438,0,0,1,.715-2.034,25.238,25.238,0,0,1,2.831-3.853,52.366,52.366,0,0,0,5.024-7.171A38.706,38.706,0,0,0,55.3,21.083c.427-1.8.729-3.635,1.007-5.469q.311-2.163.563-4.336a4.318,4.318,0,0,0,.071-.91.92.92,0,0,0-.128-.435,1.056,1.056,0,0,0-1.968.28,79.8,79.8,0,0,1-1.678,9.54c-.363,1.569-1.543,4.538-1.677,4.965a31.044,31.044,0,0,1-3.147,5.469c-.077.146-1.833,2.541-3.009,4a11.871,11.871,0,0,0-3.118,6.852,6.661,6.661,0,0,0,.484,2.557,8.482,8.482,0,0,0,.548,1.421.924.924,0,0,0,.372.332,12.183,12.183,0,0,0,1.129,1.938,46.563,46.563,0,0,0,3.612,5.2,43,43,0,0,1,3.057,4.7c.73,1.317,1.346,2.706,1.966,4.087l.066.164.026.071a46.842,46.842,0,0,1,1.709,6.767,10.939,10.939,0,0,1,.264,2.558" transform="translate(-42.217 -9.368)"/>
              </g>
            </g>
          </g>
          <g id="Grupo_982766" data-name="Grupo 982766" transform="translate(42.363 73.216)" opacity="0.129">
            <g id="Grupo_982765" data-name="Grupo 982765">
              <g id="Grupo_982764" data-name="Grupo 982764" clip-path="url(#clip-path-6)">
                <path id="Trazado_205718" data-name="Trazado 205718" d="M72.8,121.033a.939.939,0,0,0-1.386-.521.849.849,0,0,0-.183-.278.973.973,0,0,0-1.662.747c-.05.874-.087,1.748-.159,2.62a3.5,3.5,0,0,0,.082,1.252.917.917,0,0,0,1.263.566c.01.023.018.046.029.068a1,1,0,0,0,1.868-.265,22.827,22.827,0,0,0,.193-2.764,4.023,4.023,0,0,0-.044-1.426" transform="translate(-69.392 -119.928)"/>
              </g>
            </g>
          </g>
          <g id="Grupo_982769" data-name="Grupo 982769" transform="translate(41.84)" opacity="0.129">
            <g id="Grupo_982768" data-name="Grupo 982768">
              <g id="Grupo_982767" data-name="Grupo 982767" clip-path="url(#clip-path-7)">
                <path id="Trazado_205719" data-name="Trazado 205719" d="M70.61.281a1.053,1.053,0,0,0-1.749.554,15.393,15.393,0,0,0-.3,2.9A4.18,4.18,0,0,0,68.637,5.2a1.019,1.019,0,0,0,.882.691.968.968,0,0,0,.45.382,1.01,1.01,0,0,0,1.321-.47,3.456,3.456,0,0,0,.2-1.165c.012-.205.089-.945.1-1.057.032-.241.07-.481.125-.717a3.569,3.569,0,0,1,.117-.383,3.975,3.975,0,0,1,.205-.411,1.45,1.45,0,0,0,.28-.7A1.087,1.087,0,0,0,70.61.281" transform="translate(-68.535 0)"/>
              </g>
            </g>
          </g>
        </g>
      </g>
    </g>
  </g>
</svg>
