<svg xmlns="http://www.w3.org/2000/svg" xmlns:xlink="http://www.w3.org/1999/xlink" width="1240" height="603" viewBox="0 0 1240 603">
  <defs>
    <clipPath id="clip-path">
      <rect id="Rect치ngulo_45246" data-name="Rect치ngulo 45246" width="1240" height="603" rx="28" transform="translate(180 2874)" fill="#f0f4ff"/>
    </clipPath>
  </defs>
  <g id="Grupo_982472" data-name="Grupo 982472" transform="translate(-180 -1931.292)">
    <rect id="Rect치ngulo_45243" data-name="Rect치ngulo 45243" width="1240" height="603" rx="26" transform="translate(180 1931.292)" fill="#f0f4ff"/>
    <g id="Grupo_982397" data-name="Grupo 982397" transform="translate(0 68.292)">
      <g id="Enmascarar_grupo_298" data-name="Enmascarar grupo 298" transform="translate(0 -1011)" clip-path="url(#clip-path)">
        <g id="Grupo_174906" data-name="Grupo 174906" transform="translate(766.719 3408.986) rotate(-50)">
          <g id="Grupo_162315" data-name="Grupo 162315" transform="translate(18.417 17.977)" style="mix-blend-mode: overlay;isolation: isolate">
            <path id="Trazado_143614" data-name="Trazado 143614" d="M548.38,268.957C505.822,311.471,462.023,352.6,417.48,393.1c20.81-41.374,43-82.2,62.914-123.935,22.575-47.317,49.423-111.564,27.869-158.323C459.149,4.258,309.888,121.378,253.942,180.148c-5.958,6.265-11.684,12.774-17.471,19.214C258.083,153.4,277.908,106.321,276.6,58.227,274.812-7.9,213.475-19.9,157.77,14.423c-59.818,36.842-109.863,97.2-151.918,151.8C-29.87,212.6,42.546,249.992,77.97,204.266a700.258,700.258,0,0,1,62.9-70.671q-5.209,8.652-10.514,17.278C106.962,188.9,83.817,227.054,64.189,266.763,26.607,342.787-28.523,448.236,7.665,523.4c18.24,37.877,66.719,38.764,104.449,20.485,50.719-24.571,87.958-74.071,123.5-116.219,37.1-44.007,70.264-90.341,104.924-136,14.48-19.08,28.969-38.42,45.287-56.155.374-.411.762-.791,1.135-1.195l-.458,1.2c-10.121,26.225-22.587,51.565-35.2,76.979-23.457,47.284-53.01,97.361-63.757,147.867-9.5,44.661,5.6,93.082,60.237,86.415,51.364-6.265,95.5-57.051,131.8-91.4,43.953-41.6,87.218-83.924,130.488-126.207C655.248,285.017,593.084,224.314,548.38,268.957Z" transform="translate(8.227 7.965)" fill="#3c384f"/>
            <path id="Trazado_143615" data-name="Trazado 143615" d="M350.6,563.3c-20.081,1.275-36.678-4.535-48.221-16.948-16.044-17.256-21.551-46.671-14.739-78.686,8.881-41.739,29.9-82.513,50.22-121.934,4.867-9.442,9.687-18.792,14.269-28.031,4.344-8.763,8.915-17.968,13.473-27.479q-3.954,5.181-7.831,10.3l-2.566,3.385q-13.509,17.791-26.8,35.666c-24.976,33.4-50.8,67.948-78.439,100.728-4.036,4.787-8.1,9.671-12.2,14.608-31.729,38.175-67.687,81.44-114.542,104.135C81.456,579.259,28.569,577.7,8.293,535.566-28.15,459.882,23.235,356.253,60.76,280.588l4.259-8.6c11.042-22.351,23.219-44.257,36.046-66.107q-4.311,5.325-8.477,10.713c-21.9,28.265-57.158,30.1-78.605,15.537C-3.753,220.082-12.591,196.16,7.67,169.856c44.9-58.287,94.7-117.313,154.576-154.191C195.475-4.8,230.73-10.018,256.574,1.705c22.755,10.321,35.744,32.777,36.565,63.241.967,35.728-9.2,70.629-22.84,104.175,45.234-43.385,127.752-106.08,190.379-101.351,28.768,2.187,50.119,17.983,63.462,46.941,21.952,47.622-1.868,110.159-28.066,165.046-12.468,26.132-26.011,52.267-39.11,77.55l-4.637,8.943c36.269-33.554,68.79-64.73,98.717-94.619v.008c14.8-14.788,32.778-21.018,50.586-17.57,19.553,3.8,35.478,19.2,39.619,38.353,3.8,17.565-2.4,35.352-17.477,50.078l-4.921,4.8c-40.969,40.038-83.332,81.44-125.682,121.509-5.219,4.942-10.592,10.217-16.133,15.657-32.96,32.335-73.976,72.585-121.06,78.328C354.162,563.025,352.367,563.187,350.6,563.3Zm45.053-328.783a7.322,7.322,0,0,1,3.947.791,6.986,6.986,0,0,1,3.317,8.955l-.467,1.208c-10.608,27.5-23.848,54.189-35.529,77.735-4.629,9.33-9.5,18.764-14.4,28.281C332.749,389.856,312.3,429.528,303.9,468.975c-5.7,26.784-1.325,51.935,11.407,65.63,9.443,10.157,23.126,14.157,40.715,12.071,40.765-4.979,77.554-41.069,110.012-72.919,5.628-5.518,11.089-10.879,16.388-15.9,42.236-39.965,84.545-81.307,125.461-121.293l4.913-4.8c13.335-13.024,13.97-25.718,12.167-34.075-2.941-13.6-14.676-24.965-28.527-27.655-8.443-1.644-21.223-.849-34.261,12.181v.008c-38.662,38.607-81.591,79.319-131.251,124.455-3.064,2.787-7.435,3.315-10.482,1.279s-3.933-6.081-2.113-9.693c7.863-15.64,15.928-31.2,23.993-46.753,13.024-25.15,26.5-51.151,38.835-77.008,24.543-51.415,47.017-109.634,27.672-151.6-11.242-24.416-28.1-37.146-51.535-38.921-58.385-4.417-145.268,62.892-189.389,109.251-4.707,4.934-9.259,10.036-13.82,15.138l-3.448,3.861c-2.85,3.185-7.382,4.151-10.722,2.288s-4.468-5.991-2.695-9.761c20.578-43.782,40.567-90.45,39.3-137.319C275.842,42.328,266,24.751,248.056,16.612,227.13,7.12,197.858,11.8,169.748,29.1,112.6,64.313,64.231,121.722,20.48,178.523c-13.82,17.949-6.943,32.37,4.109,39.873,14.969,10.153,39.4,9.91,55.216-10.515a713.964,713.964,0,0,1,63.781-71.672c3.1-3.047,7.747-3.673,10.891-1.467s3.852,6.571,1.648,10.24q-5.236,8.69-10.569,17.354c-23.68,38.5-46.536,76.286-65.736,115.127l-4.269,8.621c-36,72.6-85.3,172.023-52.052,241.079,16.151,33.544,59.492,34.168,93.955,17.485,43.009-20.827,76.028-60.554,107.954-98.977,4.13-4.962,8.225-9.889,12.3-14.71,27.261-32.344,52.907-66.653,77.72-99.834q13.38-17.9,26.881-35.776l2.565-3.377c13.6-17.926,27.652-36.455,43.321-53.5l.789-.833A10.469,10.469,0,0,1,395.654,234.516Zm160.962,42.406.075,0Z" fill="#3c384f"/>
            <path id="Trazado_143616" data-name="Trazado 143616" d="M40.044,3.613C5.588,65.59-16.227,137.068,6.43,199.891c3.345,9.292,19.666,4.1,16.272-5.329C1.439,135.574,21.429,69.179,53.836,10.886,59.185,1.276,45.412-6.046,40.044,3.613Z" transform="translate(29.448 312.063)" fill="#3c384f"/>
            <path id="Trazado_143617" data-name="Trazado 143617" d="M23,42.65c-.14-.007-.27-.039-.4-.055-.2-.423-.38-.888-.446-1.013l-.038-.046c-.012-.064.009-.017-.009-.112-.834-3.557-1.36-7.173-1.933-10.811Q18.2,17.959,16.21,5.306C15.567,1.212,10.548-1.264,6.375.294A9.508,9.508,0,0,0-.07,10.635Q2.172,24.943,4.423,39.259C5.666,47.2,7.808,57.585,17.574,58.572c4.218.427,9.211-1.675,10.57-6.316C29.311,48.282,27.532,43.105,23,42.65Z" transform="translate(60.563 442.576)" fill="#3c384f"/>
            <path id="Trazado_143618" data-name="Trazado 143618" d="M32.674.216C23.579-4.1,14.285,10.428,23.4,14.751,35.976,20.719,39.051,34.3,38.682,47.858c-.405,15.393-3.21,31.366-6.76,46.724A342.272,342.272,0,0,1-2.525,183.513c-5.341,9.617,8.424,16.932,13.793,7.272C29.8,157.437,43.019,122.262,50.13,86.158,55.934,56.687,63.317,14.752,32.674.216Z" transform="translate(438.533 115.925)" fill="#3c384f"/>
          </g>
          <g id="Grupo_162318" data-name="Grupo 162318" transform="translate(0 0)">
            <g id="Grupo_162317" data-name="Grupo 162317" transform="translate(0 0)">
              <g id="Grupo_162316" data-name="Grupo 162316">
                <path id="Trazado_143619" data-name="Trazado 143619" d="M548.388,268.96C505.829,311.473,462.03,352.6,417.48,393.094c20.81-41.366,43.005-82.2,62.921-123.928,22.576-47.317,49.414-111.563,27.869-158.323C459.156,4.26,309.9,121.372,253.949,180.15c-5.966,6.257-11.683,12.766-17.471,19.214,21.6-45.963,41.43-93.04,40.134-141.135C274.819-7.9,213.482-19.895,157.777,14.417,97.951,51.267,47.914,111.625,5.851,166.227c-35.722,46.375,36.7,83.767,72.127,38.041a701.146,701.146,0,0,1,62.891-70.678q-5.208,8.652-10.506,17.286C106.969,188.9,83.824,227.057,64.2,266.757,26.606,342.79-28.515,448.23,7.673,523.4c18.24,37.877,66.711,38.765,104.449,20.484,50.719-24.571,87.957-74.071,123.5-116.218,37.1-44.007,70.256-90.341,104.915-136,14.489-19.081,28.978-38.42,45.287-56.164.373-.4.769-.784,1.143-1.2l-.459,1.208c-10.12,26.225-22.6,51.566-35.2,76.979-23.465,47.276-53.009,97.353-63.757,147.867-9.509,44.662,5.6,93.082,60.237,86.415,51.355-6.265,95.492-57.05,131.788-91.4,43.961-41.6,87.227-83.933,130.5-126.216C655.247,285.019,593.083,224.316,548.388,268.96Z" transform="translate(8.22 7.963)" fill="#a6bbff"/>
                <path id="Trazado_143620" data-name="Trazado 143620" d="M350.593,563.292c-20.081,1.275-36.67-4.527-48.213-16.941-16.044-17.256-21.551-46.671-14.738-78.694,8.873-41.73,29.891-82.5,50.22-121.934,4.859-9.442,9.678-18.784,14.268-28.022,4.344-8.763,8.915-17.968,13.473-27.48-2.636,3.446-5.247,6.89-7.831,10.3l-2.565,3.377Q341.7,321.691,328.4,339.565c-24.968,33.41-50.795,67.956-78.43,100.727q-6.055,7.192-12.2,14.616c-31.728,38.167-67.686,81.432-114.542,104.135C81.448,579.26,28.569,577.691,8.293,535.558-28.151,459.882,23.235,356.253,60.752,280.58l4.267-8.6c11.042-22.351,23.219-44.257,36.037-66.106q-4.3,5.324-8.476,10.7c-21.892,28.272-57.15,30.107-78.6,15.545C-3.754,220.083-12.591,196.16,7.67,169.856c44.9-58.287,94.7-117.313,154.568-154.2C195.475-4.8,230.721-10.017,256.574,1.706,279.33,12.026,292.31,34.475,293.14,64.938c.967,35.728-9.205,70.637-22.849,104.175C315.533,125.736,398.043,63.042,460.67,67.77c28.768,2.187,50.128,17.982,63.47,46.94,21.943,47.623-1.876,110.152-28.066,165.046-12.468,26.123-26.011,52.267-39.11,77.542l-4.636,8.943c36.268-33.546,68.79-64.722,98.716-94.611h0c14.8-14.788,32.778-21.009,50.586-17.562,19.553,3.8,35.477,19.2,39.611,38.354,3.807,17.564-2.395,35.344-17.468,50.069l-4.921,4.81c-40.969,40.038-83.331,81.432-125.682,121.509-5.219,4.942-10.592,10.217-16.141,15.657C444.078,516.8,403.062,557.054,355.978,562.8,354.154,563.018,352.368,563.179,350.593,563.292Zm45.053-328.783a7.306,7.306,0,0,1,3.946.8,6.978,6.978,0,0,1,3.325,8.954l-.467,1.209c-10.607,27.491-23.848,54.189-35.529,77.735-4.628,9.322-9.5,18.756-14.4,28.281-19.781,38.369-40.232,78.041-48.625,117.481-5.7,26.784-1.325,51.935,11.415,65.637,9.435,10.149,23.126,14.157,40.715,12.071,40.765-4.978,77.554-41.069,110-72.919,5.629-5.525,11.1-10.887,16.4-15.9,42.236-39.965,84.545-81.307,125.461-121.293l4.913-4.81c13.326-13.015,13.969-25.71,12.158-34.074-2.942-13.59-14.668-24.966-28.527-27.647-8.434-1.645-21.215-.849-34.253,12.18h0c-38.662,38.607-81.591,79.319-131.251,124.463-3.072,2.787-7.443,3.315-10.482,1.279-3.056-2.035-3.933-6.081-2.113-9.693,7.863-15.64,15.928-31.2,23.985-46.76,13.032-25.142,26.5-51.143,38.843-77,24.535-51.414,47.017-109.634,27.672-151.608C497.581,98.487,480.722,85.756,457.3,83.973c-58.386-4.408-145.276,62.9-189.4,109.251-4.7,4.942-9.251,10.043-13.811,15.138l-3.456,3.869c-2.842,3.184-7.373,4.15-10.713,2.287s-4.476-5.99-2.7-9.769C257.8,160.975,277.792,114.3,276.523,67.439,275.842,42.32,266,24.743,248.057,16.6c-20.935-9.483-50.2-4.807-78.309,12.5C112.59,64.306,64.231,121.723,20.48,178.523c-13.828,17.949-6.942,32.362,4.11,39.865,14.968,10.161,39.4,9.918,55.216-10.507a712.185,712.185,0,0,1,63.781-71.671c3.089-3.047,7.747-3.673,10.883-1.466,3.153,2.206,3.86,6.57,1.648,10.232q-5.236,8.7-10.561,17.362c-23.688,38.5-46.536,76.286-65.745,115.128l-4.269,8.621c-36,72.6-85.291,172.023-52.043,241.07,16.15,33.553,59.492,34.176,93.955,17.493,43.009-20.828,76.028-60.562,107.954-98.976q6.2-7.455,12.289-14.718c27.269-32.337,52.915-66.645,77.727-99.827q13.38-17.9,26.882-35.784l2.565-3.369c13.6-17.926,27.653-36.463,43.313-53.495l.8-.834A10.461,10.461,0,0,1,395.646,234.509Zm160.961,42.414.083-.005Z" fill="#6b8dfc"/>
              </g>
              <path id="Trazado_143621" data-name="Trazado 143621" d="M40.048,3.615C5.584,65.592-16.223,137.061,6.426,199.893c3.354,9.284,19.674,4.1,16.28-5.33-21.271-59-1.281-125.383,31.135-183.677C59.182,1.27,45.416-6.045,40.048,3.615Z" transform="translate(29.444 312.062)"/>
              <path id="Trazado_143622" data-name="Trazado 143622" d="M23,42.65c-.14-.007-.27-.039-.4-.055-.2-.431-.388-.888-.455-1.013l-.03-.047c-.012-.064.01-.025-.009-.12-.835-3.549-1.368-7.173-1.933-10.8Q18.184,17.959,16.21,5.305C15.567,1.212,10.549-1.264,6.367.294A9.505,9.505,0,0,0-.07,10.635L4.415,39.251C5.666,47.2,7.808,57.585,17.574,58.571c4.219.419,9.211-1.675,10.57-6.315C29.311,48.281,27.524,43.106,23,42.65Z" transform="translate(60.563 442.577)"/>
              <path id="Trazado_143623" data-name="Trazado 143623" d="M32.677.216c-9.1-4.316-18.4,10.212-9.279,14.535,12.581,5.968,15.647,19.55,15.287,33.1-.405,15.393-3.211,31.374-6.761,46.732A342.274,342.274,0,0,1-2.522,183.513c-5.349,9.618,8.424,16.931,13.793,7.272,18.521-33.356,31.751-68.531,38.861-104.627C55.938,56.679,63.32,14.744,32.677.216Z" transform="translate(438.531 115.926)" fill="#6b8dfc"/>
            </g>
          </g>
        </g>
      </g>
    </g>
  </g>
</svg>
